<svg xmlns="http://www.w3.org/2000/svg" viewBox="0 0 3000 3000" width="3000" height="3000"><g transform="translate(1863.3333333333335 2688.3333333333335) rotate(0.0 269.16666666666674 55.0) scale(1.4437444742132939 1.439338427719041)"><svg width="372.873" height="76.424" viewBox="0 0 372.873 76.424"><ellipse cx="186.436" cy="38.212" fill="#cbc8ff" rx="186.436" ry="38.212"/></svg></g><g transform="translate(183.33333333333334 2661.666666666667) rotate(0.0 250.0 70.0) translate(0.0 0.0) scale(0.8290224167661494 0.8235391004600054)"><svg width="583.016" height="169.998" viewBox="0 0 583.016 169.998"><ellipse clip-rule="evenodd" cx="301.56" cy="84.999" fill="#cac7ff" fill-rule="evenodd" rx="301.56" ry="84.999"/></svg></g><g transform="translate(498.33333333333337 1213.3333333333335) rotate(0.0 480.8333333333333 577.5) scale(1.6669815730643514 1.6668590890723316)"><svg width="576.891" height="692.92" viewBox="0 0 576.891 692.92"><path d="M54.387 588.741a834.548 834.548 0 0 0-1.894-39.063v-.219c-.009-.085-.008-.167-.012-.23-.957-13.314-1.872-26.241-2.766-37.521l145.653-11.414-.617 79.105z" fill="#ffd6c0"/><path d="M65.25 511.053c-9.632.444-15.536.655-15.536.655.894 11.28 1.809 24.207 2.766 37.521.004.063.003.145.012.23v.219a834.548 834.548 0 0 1 1.894 39.063l15.73-1.047z" fill="#f5b9ab"/><path d="M54.387 589.741a1.002 1.002 0 0 1-1-.975c-.327-13.091-.928-25.488-1.892-39.017l-.002-.24c-.005-.06-.007-.118-.009-.172l-.367-5.128c-.833-11.617-1.621-22.59-2.4-32.422a1.002 1.002 0 0 1 .918-1.076l145.652-11.414a.997.997 0 0 1 1.078 1.005l-.616 79.105a1 1 0 0 1-.934.99l-140.364 9.342-.064.002zm-3.596-77.115c.754 9.582 1.516 20.21 2.322 31.439l.365 5.092.005.118c.004.035.009.149.009.184v.219a826.022 826.022 0 0 1 1.867 37.996l138.398-9.211.601-77.087z" fill="#112c41"/><path d="m262.577 664.4-212.027.2s3.263-50.159 3.835-75.863c0 0 140.021-9.235 140.36-9.342 10.059 4.889 56.555 37.561 67.832 85.005z" fill="#ffa9dc"/><path d="M50.551 664.6s3.263-50.159 3.835-75.863l14.047-.902c2.367 22.321 8.324 56.836 20.817 76.729z" fill="#ff90d8"/><path d="M50.551 665.6a.998.998 0 0 1-.997-1.065c.032-.501 3.268-50.432 3.833-75.82a1 1 0 0 1 .936-.976l11.339-.723c1.266-.084 126.587-8.374 128.942-8.611a.996.996 0 0 1 .58.09c8.928 4.34 56.724 36.689 68.367 85.673a1.001 1.001 0 0 1-.972 1.231zm4.813-75.923c-.57 23.578-3.28 66.608-3.747 73.922l209.687-.198c-11.864-47.146-57.532-78.362-66.775-82.999-2.64.215-19.322 1.371-128.737 8.609z" fill="#112c41"/><path d="M175.266 667.906a2.5 2.5 0 0 1-2.275-1.461c-6.699-14.658-15.94-29.481-48.219-35.608-29.585-5.615-37.052-20.366-39.953-43.947a2.5 2.5 0 1 1 4.962-.61c2.742 22.292 9.051 34.544 35.923 39.645 34.62 6.571 44.908 23.288 51.834 38.442a2.5 2.5 0 0 1-2.272 3.539z" fill="#fff"/><path d="M260.664 691.92H56.358a7 7 0 0 1-6.985-7.459l1.178-19.862 212.026-.206c1.605 6.134 2.396 14.332 3.07 22.108.253 2.917-2.056 5.419-4.983 5.419z" fill="#fff"/><path d="M260.664 692.92H56.358a7.922 7.922 0 0 1-5.839-2.531 7.924 7.924 0 0 1-2.144-5.992l1.178-19.855a1 1 0 0 1 .997-.941l212.026-.206h.001a1 1 0 0 1 .967.747c1.611 6.156 2.414 14.38 3.099 22.275a5.995 5.995 0 0 1-1.551 4.557 6.026 6.026 0 0 1-4.428 1.946zm-209.17-27.321-1.122 18.922c-.11 1.68.46 3.276 1.607 4.5s2.702 1.899 4.379 1.899h204.306a3.963 3.963 0 0 0 2.954-1.299 3.937 3.937 0 0 0 1.033-3.032c-.649-7.491-1.405-15.273-2.852-21.194z" fill="#112c41"/><path d="M54.387 588.737c42.337 7.059 102.642 2.034 140.36-9.338l.335-42.512c-35.069 9.988-93.486 13.865-142.61 12.057 0 0 .007.1.007.284-.002.076.002.152.012.228v.22a827.638 827.638 0 0 1 1.896 39.061z" fill="#fff"/><path d="M98.668 592.961c-16.027 0-31.31-1.048-44.446-3.238a1 1 0 0 1-.835-.961 819.62 819.62 0 0 0-1.894-39.015l-.002-.229a2.44 2.44 0 0 1-.012-.32c0-.098-.004-.173-.005-.188a1.005 1.005 0 0 1 1.034-1.066c53.85 1.982 109.704-2.736 142.299-12.02a1.001 1.001 0 0 1 1.274.969l-.334 42.512a1.001 1.001 0 0 1-.711.95c-26.952 8.127-63.24 12.606-96.368 12.606zm-43.303-5.077c39.784 6.446 98.919 2.503 138.387-9.232l.318-40.444c-32.725 9.036-87.55 13.634-140.558 11.773a816.989 816.989 0 0 1 1.853 37.903z" fill="#112c41"/><circle cx="182.985" cy="608.017" fill="#ffe993" r="8.5"/><path d="M184.391 610.612c15.293-.586 31.431-9.287 35.945-13.938a2.832 2.832 0 1 0-4.065-3.945c-3.465 3.571-18.852 12.034-32.981 12.246a2.833 2.833 0 0 0 .016 5.664l.066-.001c.339-.004.679-.013 1.019-.026z" fill="#fff"/><path d="M183.37 611.638c-2.181 0-3.898-1.711-3.904-3.82a3.836 3.836 0 0 1 3.821-3.843c13.84-.208 28.892-8.465 32.266-11.942 1.472-1.517 3.903-1.553 5.419-.081s1.552 3.903.081 5.419c-4.644 4.785-20.855 13.636-36.624 14.241-.349.013-.698.022-1.046.027l-.013-.001zm34.934-18.769h-.028a1.82 1.82 0 0 0-1.288.556c-3.547 3.655-19.284 12.333-33.684 12.549-1.022.003-1.842.827-1.839 1.837s.796 1.819 1.837 1.827c.388-.005.718-.013 1.049-.026 15.024-.576 30.944-9.183 35.266-13.635a1.834 1.834 0 0 0-1.313-3.108z" fill="#112c41"/><circle cx="200.53" cy="628.381" fill="#ffe993" r="8.5"/><path d="M202.012 630.933c15.269-1.039 32.138-12.215 36.513-17a2.832 2.832 0 1 0-4.179-3.823c-3.358 3.672-19.484 14.588-33.6 15.219a2.832 2.832 0 0 0 .249 5.658c.339-.012.678-.031 1.017-.054z" fill="#fff"/><path d="M200.907 631.988a3.812 3.812 0 0 1-3.826-3.612 3.836 3.836 0 0 1 3.606-4.045c14.071-.629 29.834-11.522 32.919-14.896a3.807 3.807 0 0 1 2.657-1.242 3.8 3.8 0 0 1 2.757 1c.755.691 1.197 1.635 1.242 2.657s-.31 2.002-1.001 2.757c-4.105 4.49-21.193 16.235-37.183 17.323a33.392 33.392 0 0 1-1.171.058zm35.53-21.799-.083.002a1.82 1.82 0 0 0-1.27.594c-3.22 3.521-19.656 14.889-34.293 15.543a1.832 1.832 0 0 0 .173 3.659c.324-.012.652-.03.98-.052 15.428-1.05 31.892-12.355 35.843-16.677.331-.361.5-.829.479-1.318a1.82 1.82 0 0 0-.594-1.27 1.82 1.82 0 0 0-1.235-.481z" fill="#112c41"/><path d="M341.181 517.237c-9.26 2.696-14.95 4.29-14.95 4.29 3.52 10.754 7.448 23.103 11.508 35.819.019.061.037.141.066.222l.055.211a832.986 832.986 0 0 1 11.023 37.524l15.045-4.715z" fill="#f5b9ab"/><path d="M348.883 595.302a832.986 832.986 0 0 0-11.023-37.524l-.055-.211c-.029-.081-.047-.161-.066-.222-4.06-12.716-7.988-25.065-11.508-35.819 0 0 90.617-24.429 137.49-44.06 2.64 9.888 5.56 21.647 8.876 34.567 5.7 22.212 10.517 41.2 10.517 41.2z" fill="#ffd6c0"/><path d="M348.883 596.302a.996.996 0 0 1-.965-.741 827.214 827.214 0 0 0-11.01-37.48l-.07-.262a1.34 1.34 0 0 1-.041-.136l-1.567-4.916c-3.539-11.089-6.881-21.562-9.948-30.931a1 1 0 0 1 .69-1.277c.906-.244 91.09-24.637 137.364-44.017a.999.999 0 0 1 1.352.665c1.741 6.522 3.625 13.94 5.62 21.794a5418.32 5418.32 0 0 0 3.258 12.782 16988.653 16988.653 0 0 1 10.518 41.203 1 1 0 0 1-.67 1.2l-134.231 42.069a.973.973 0 0 1-.3.047zm-21.375-74.086c2.979 9.118 6.211 19.245 9.625 29.945l1.558 4.88.033.114c.01.027.041.131.048.159l.055.211a825.747 825.747 0 0 1 10.75 36.511l132.334-41.474c-1.027-4.044-5.32-20.94-10.283-40.28-1.131-4.407-2.216-8.678-3.26-12.787-1.882-7.407-3.664-14.426-5.32-20.665-43.992 18.237-125.492 40.648-135.54 43.386z" fill="#112c41"/><path d="M566.571 612.767c-42.455 28.545-104.967 44.106-159.781 48.623a384.692 384.692 0 0 1-45.284 1.182s-7.137-42.156-12.623-67.273l10.851-3.369s123.077-38.522 123.38-38.706c10.92 2.385 61.343 16.078 83.457 59.543z" fill="#ffa9dc"/><path d="M361.506 662.572s-7.137-42.156-12.623-67.273l14.038-1.713c7.568 21.16 18.889 54.4 33.6 68.7.153.154-21.033.803-35.015.286z" fill="#ff90d8"/><path d="M374.064 663.778c-4.206 0-8.405-.069-12.591-.206a1 1 0 0 1-.953-.833c-.071-.421-7.196-42.42-12.614-67.227a1 1 0 0 1 .68-1.168l10.851-3.369c1.211-.379 121.066-37.894 123.305-38.679a1 1 0 0 1 .585-.049c10.065 2.198 61.422 15.425 84.135 60.067a1 1 0 0 1-.333 1.283c-37.768 25.394-97.677 43.633-160.257 48.79a387.103 387.103 0 0 1-32.808 1.391zm-11.71-2.179c14.744.452 29.661.047 44.35-1.205 61.851-5.097 121.03-23.007 158.568-47.962-22.727-43.593-75.049-56.598-82.133-58.178-2.521.832-18.479 5.883-123.108 38.631l-9.978 3.098c4.985 23.014 11.295 59.723 12.301 65.616z" fill="#112c41"/><path d="M486.047 650.706a2.497 2.497 0 0 1-2.006-1.005c-7.4-9.919-19.619-20.732-54.142-25.716-29.721-4.294-44.167-15.564-53.302-41.584a2.5 2.5 0 0 1 4.718-1.656c8.511 24.242 21.411 34.263 49.299 38.292 28.9 4.172 46.077 12.449 57.435 27.675a2.5 2.5 0 0 1-2.002 3.994z" fill="#fff"/><path d="M575.662 634.061a4.931 4.931 0 0 1-.789 4.486c-19.367 26-138.06 58.576-201.094 52.671-5.4-.5-7.194-3.129-8.212-6.293l-4.061-22.353c61.967 2.271 150.236-12.944 205.065-49.805 3.794 7.057 7.168 14.341 9.091 21.294z" fill="#fff"/><path d="M390.032 692.918c-5.833 0-11.302-.231-16.346-.704-6.198-.574-8.063-3.852-9.071-6.982a1.124 1.124 0 0 1-.032-.127l-4.061-22.353a1 1 0 0 1 1.02-1.177c59.665 2.185 149.104-12.413 204.47-49.635a1 1 0 0 1 1.438.356c4.469 8.312 7.468 15.339 9.169 21.484a5.932 5.932 0 0 1-.955 5.378c-9.213 12.369-41.675 27.186-84.708 38.658-36.528 9.736-72.869 15.101-100.924 15.102zm-23.493-8.237c.982 3.012 2.617 5.105 7.332 5.542 5.234.49 10.815.723 16.641.723 66.592.003 166.687-30.345 183.559-52.996a3.941 3.941 0 0 0 .637-3.587l-.01-.035c-1.594-5.764-4.375-12.354-8.49-20.116-55.416 36.76-143.855 51.341-203.497 49.403z" fill="#112c41"/><path d="M348.883 595.294c42.81-3.09 100.243-22.15 134.231-42.07 0 0-4.033-15.6-8.936-35.042-.168-.674-.344-1.355-.521-2.035s-.352-1.361-.523-2.049-.355-1.375-.534-2.07c-31.739 17.953-86.761 35.247-134.933 45.038 0 0 .03.1.074.274.015.075.037.148.064.219.02.076.032.146.057.213a837.618 837.618 0 0 1 11.021 37.522z" fill="#fff"/><g fill="#112c41"><path d="M348.882 596.294a1 1 0 0 1-.965-.74 830.279 830.279 0 0 0-11.008-37.478 2.068 2.068 0 0 1-.06-.215 2.397 2.397 0 0 1-.087-.318c-.025-.097-.05-.18-.053-.19a1.002 1.002 0 0 1 .759-1.266c52.351-10.64 105.2-28.276 134.64-44.928a1 1 0 0 1 1.461.621l.187.72c.118.454.236.906.349 1.357.17.685.344 1.362.52 2.039.178.683.355 1.368.523 2.045 4.846 19.214 8.894 34.878 8.934 35.034a1 1 0 0 1-.463 1.113c-36.036 21.12-93.929 39.264-134.665 42.205l-.072.001zm-9.951-38.465a836.049 836.049 0 0 1 10.702 36.407c40.178-3.085 96.718-20.813 132.323-41.494a6996.526 6996.526 0 0 1-8.749-34.315 216.13 216.13 0 0 0-.519-2.028c-.178-.684-.354-1.368-.526-2.06a86.459 86.459 0 0 0-.205-.805c-29.61 16.446-81.5 33.73-133.026 44.295z"/><path d="M348.882 596.295a1 1 0 0 1-.965-.741 822.109 822.109 0 0 0-11.008-37.478 2.894 2.894 0 0 1-.067-.237 2.54 2.54 0 0 1-.081-.296c-.025-.097-.05-.18-.053-.19a1 1 0 0 1 1.916-.573s.035.116.086.317c.019.049.062.207.073.258a.977.977 0 0 0 .029.106 825.546 825.546 0 0 1 11.037 37.575 1 1 0 0 1-.967 1.259zm134.231-42.07c-.447 0-.854-.302-.969-.754 0 0-3.953-15.587-8.936-35.04-.169-.677-.344-1.354-.52-2.031-.178-.684-.354-1.368-.526-2.061-.11-.443-.225-.884-.341-1.327l-.191-.733a1 1 0 1 1 1.937-.499l.189.726c.118.451.235.9.347 1.351.17.685.344 1.363.52 2.039.178.683.355 1.368.523 2.045 4.982 19.449 8.935 35.038 8.935 35.038a1 1 0 0 1-.968 1.246z"/></g><circle cx="478.409" cy="583.805" fill="#ffe993" r="8.5"/><path d="M480.385 586.002c14.727-4.164 28.368-16.414 31.662-22a2.831 2.831 0 1 0-4.878-2.879c-2.529 4.286-15.5 16.128-29.178 19.656a2.832 2.832 0 1 0 1.325 5.507l.085-.022c.329-.085.657-.172.984-.262z" fill="#fff"/><path d="M478.653 587.365a3.838 3.838 0 0 1-3.725-2.936c-.24-.995-.077-2.024.457-2.897s1.377-1.486 2.372-1.725c13.401-3.457 26.089-15.02 28.551-19.192a3.806 3.806 0 0 1 2.344-1.763 3.801 3.801 0 0 1 2.904.411 3.807 3.807 0 0 1 1.763 2.344c.256.991.11 2.022-.411 2.904-3.387 5.743-17.061 18.159-32.251 22.454l-.008.002a63.316 63.316 0 0 1-1.101.292c-.299.072-.6.106-.895.106zm1.732-1.363h.01zm29.226-25.272c-.153 0-.308.02-.46.059a1.819 1.819 0 0 0-1.121.843c-2.587 4.385-15.844 16.519-29.789 20.116a1.828 1.828 0 0 0-1.15.829 1.82 1.82 0 0 0-.219 1.385 1.836 1.836 0 0 0 2.21 1.353c.391-.102.714-.188 1.035-.275 14.47-4.094 27.917-16.201 31.069-21.545a1.833 1.833 0 0 0-1.575-2.765z" fill="#112c41"/><circle cx="500.25" cy="599.474" fill="#ffe993" r="8.5"/><path d="M502.29 601.602c14.6-4.6 28.366-19.427 31.494-25.1a2.831 2.831 0 1 0-4.961-2.734c-2.4 4.359-15.509 18.76-29.081 22.691a2.832 2.832 0 1 0 1.572 5.442c.326-.094.651-.193.976-.299z" fill="#fff"/><path d="M500.529 603.013a3.84 3.84 0 0 1-3.683-2.769 3.837 3.837 0 0 1 2.618-4.745c13.519-3.916 26.278-18.208 28.483-22.213a3.808 3.808 0 0 1 2.291-1.832c.984-.285 2.019-.169 2.915.325s1.547 1.307 1.832 2.291a3.805 3.805 0 0 1-.325 2.915c-2.937 5.328-16.787 20.755-32.065 25.57-.334.108-.668.21-1.004.307a3.832 3.832 0 0 1-1.062.151zm30.777-29.711a1.836 1.836 0 0 0-1.607.949c-2.301 4.179-15.603 19.092-29.678 23.169a1.834 1.834 0 0 0-.377 3.365c.429.237.924.292 1.394.156.316-.091.631-.188.945-.289l.008-.003c14.742-4.645 28.091-19.501 30.919-24.629.236-.428.292-.923.155-1.393a1.818 1.818 0 0 0-.876-1.095 1.815 1.815 0 0 0-.883-.23z" fill="#112c41"/><path d="M463.721 477.466s-23.364 15.189-71.248 30.218c-36.064 11.32-59.906 15.359-73.249 16.778a15.983 15.983 0 0 1-16.887-10.93c-20.82-63.633-104.069-300.524-104.069-300.524s.03-.238-.046 1c-.814 12.9-2.955 298.864-2.955 298.864s-45.448 8.562-83.539 9.8c-35.639 1.158-57.98-1.043-70.314-3-7.222-1.146-12.728-7.057-13.389-14.34-2.828-31.172-10.843-120.008-18.629-210.95-9.482-110.757-27.226-192.143 56-257 45.324-35.321 126.735-39.834 156-34.534 90.608 16.41 117.612 79.934 153.918 181.839 48.025 134.804 88.407 292.779 88.407 292.779z" fill="#b2b0f7"/><path d="M189.014 1.089c-37.281.979-90.237 10.28-123.619 36.294-83.226 64.857-65.482 146.243-56 257 7.786 90.942 15.801 179.778 18.629 210.95.661 7.283 6.167 13.194 13.389 14.34 5.703.905 13.549 1.851 23.855 2.498l.227-.598c-21.893-11.379-19.315-22.402-26.897-121.464-5.796-75.733-13.132-150.11-14.367-215.718C21.918 61.518 103.735 16.728 189.014 1.089zm125.924 492.133c-3.953-13.032-91.196-267.561-109.055-319.357-6.665 10.511-7.663 32.753-7.663 40.143.042-.688.051-.914.052-.984.468 1.323 83.302 237.055 104.063 300.508a15.984 15.984 0 0 0 16.887 10.93c4.473-.475 10.132-1.248 17.03-2.488-10.406-2.036-16.495-12.865-21.314-28.752z" fill="#9797f7"/><path d="M198.221 215.009a1 1 0 0 1-1-1c0-4.099.378-40.214 13.468-45.992a1 1 0 1 1 .808 1.83c-9.71 4.286-12.275 30.761-12.275 44.162-.001.552-.449 1-1.001 1z" fill="#112c41"/><path d="M317.555 525.551c-7.25 0-13.878-4.704-16.17-11.708-18.902-57.771-90.172-260.941-102.306-295.503-.885 37.909-2.793 291.833-2.813 294.54a1 1 0 0 1-.815.975c-.458.086-46.277 8.65-83.693 9.817-35.581 1.11-57.978-1.025-70.502-3.011-7.674-1.217-13.525-7.483-14.228-15.237-3.031-33.406-10.914-120.834-18.63-210.955-.95-11.095-1.987-21.935-2.989-32.418-4.563-47.717-8.504-88.927-1.964-126.099 7.172-40.765 26.661-72.336 61.335-99.357C111.595.112 194.773-2.988 221.573 1.866c91.221 16.521 118.207 80.108 154.682 182.487 47.493 133.304 88.031 291.286 88.435 292.866a1 1 0 0 1-.424 1.086c-.235.153-24.028 15.436-71.494 30.334C356.895 519.9 333.03 524 319.329 525.457c-.594.063-1.186.094-1.774.094zM199.21 212.677c.833 2.369 83.491 237.628 104.076 300.544 2.186 6.68 8.846 10.99 15.831 10.247 13.612-1.447 37.335-5.525 73.055-16.738 43.016-13.502 66.428-27.285 70.397-29.724-3.01-11.676-42.366-163.336-88.199-291.982C338.137 83.321 311.354 20.158 221.217 3.833 194.676-.973 112.322 2.081 66.009 38.173 31.75 64.871 12.496 96.051 5.415 136.298c-6.493 36.906-2.564 77.99 1.985 125.562 1.003 10.488 2.04 21.333 2.991 32.438 7.715 90.116 15.598 177.54 18.628 210.945.621 6.841 5.781 12.369 12.55 13.442 12.438 1.973 34.701 4.092 70.126 2.988 34.532-1.077 76.278-8.485 82.576-9.634.129-17.054 2.166-285.657 2.951-298.093.03-.487.043-.732.048-.852a1.02 1.02 0 0 1 1.094-1.1c.522.049.752.285.841.684z" fill="#112c41"/></svg></g><g transform="translate(1735.0 1283.3333333333335) rotate(0.0 415.8333333333335 755.8333333333333) scale(1.6826876061796117 1.681196878719903)"><svg width="494.249" height="899.161" viewBox="0 0 494.249 899.161"><path d="M291.01 658.664a832.433 832.433 0 0 1-23.064-31.585l-.134-.173c-.047-.072-.099-.135-.136-.187-7.618-10.961-15.026-21.594-21.416-30.932 0 0-74.255 55.968-118.361 81.209 7.363 10.227 13.51 18.651 21.743 29.146a14869.02 14869.02 0 0 0 26.285 33.418l115.083-80.897z" fill="#ffd6c0"/><path d="m228.821 598.063 49.384 69.799c4.699-.154 13.813-.357 16.912-.986-19.559-27.973-52.322-74.882-52.322-74.882l-13.973 6.07z" fill="#f5b9ab"/><path d="M175.928 740.561a1 1 0 0 1-.786-.38c-.121-.154-12.297-15.58-26.287-33.421-8.545-10.892-14.914-19.658-21.768-29.178-.166-.23-.226-.52-.166-.796s.235-.515.481-.656c43.548-24.921 117.513-80.58 118.256-81.139a.997.997 0 0 1 1.427.234c5.595 8.176 11.905 17.252 18.586 26.861l2.826 4.065c.064.084.11.146.153.213l.083.101c7.782 11.178 15.102 21.203 23.07 31.593a1 1 0 0 1-.218 1.427l-115.083 80.897a.994.994 0 0 1-.574.182zm-46.57-63.25c6.597 9.158 12.818 17.695 21.071 28.213a15078.464 15078.464 0 0 0 25.698 32.674l113.456-79.753c-7.743-10.122-14.896-19.932-22.458-30.795l-.066-.083a3.157 3.157 0 0 1-.086-.116l-.114-.154-2.831-4.072c-6.449-9.276-12.553-18.055-18.004-26.011-8.266 6.197-75.432 56.318-116.667 80.097z" fill="#112c41"/><path d="M172.376 842.019c48.489-16.311 98.883-56.44 135.829-97.183 10.768-11.881 20.399-23.802 28.499-35.211 0 0-29.104-31.32-45.695-50.961l-9.277 6.56s-105.475 74.208-105.806 74.337c-4.756 10.118-24.577 58.459-3.551 102.458z" fill="#b2b0f7"/><path d="M172.376 843.019a1 1 0 0 1-.902-.569c-21.601-45.201-.834-93.993 3.548-103.314.086-.182.224-.333.395-.435 1.994-1.305 104.701-73.564 105.74-74.295l9.275-6.558a1 1 0 0 1 1.341.171c16.385 19.398 45.372 50.612 45.663 50.925a1 1 0 0 1 .083 1.26c-8.213 11.568-17.827 23.446-28.573 35.304-42.181 46.516-93.116 82.949-136.251 97.459a.982.982 0 0 1-.319.052zm4.352-102.81c-3.059 6.581-24.588 56.002-3.828 100.576 42.647-14.595 92.877-50.65 134.565-96.621 10.489-11.573 19.89-23.161 27.953-34.457-4.056-4.376-29.348-31.733-44.579-49.698l-8.529 6.03c-89.698 63.108-103.396 72.68-105.582 74.169z" fill="#360815"/><path d="M336.575 709.799s-29.104-31.32-45.695-50.961l-9.903 10.096c12.183 18.883 31.666 48.096 34.063 68.474.025.214 13.434-16.201 21.534-27.609z" fill="#9797f7"/><path d="M287.88 768.318a2.496 2.496 0 0 1-1.997-.993c-20.986-27.787-24.547-78.525 3.898-106.906a2.5 2.5 0 0 1 3.531 3.539c-25.861 25.802-23.145 74.262-3.44 100.353a2.5 2.5 0 0 1-1.993 4.007z" fill="#fff"/><path d="M172.376 843.019a1 1 0 0 1-.902-.569c-21.601-45.201-.834-93.993 3.548-103.314.086-.182.224-.333.395-.435 1.994-1.305 104.701-73.564 105.74-74.295l9.275-6.558a1 1 0 0 1 1.341.171c16.385 19.398 45.372 50.612 45.663 50.925a1 1 0 0 1 .083 1.26c-8.213 11.568-17.827 23.446-28.573 35.304-42.181 46.516-93.116 82.949-136.251 97.459a.982.982 0 0 1-.319.052zm4.352-102.81c-3.059 6.581-24.588 56.002-3.828 100.576 42.647-14.595 92.877-50.65 134.565-96.621 10.489-11.573 19.89-23.161 27.953-34.457-4.056-4.376-29.348-31.733-44.579-49.698l-8.529 6.03c-89.698 63.108-103.396 72.68-105.582 74.169z" fill="#112c41"/><path d="M183.738 862.194c.962 1.274 2.26 2.079 4.041 2.104 32.419.461 130.505-73.891 164.186-127.5 2.885-4.592 1.895-7.612.004-10.346l-15.264-16.827c-35.913 50.549-101.709 111.326-164.328 132.394 3.29 7.306 7.016 14.416 11.362 20.174z" fill="#fff"/><path d="M188.067 865.3c-.102 0-.201 0-.302-.002-1.97-.028-3.593-.87-4.825-2.501-3.844-5.094-7.598-11.756-11.476-20.366a1 1 0 0 1 .593-1.359c63.233-21.275 129.251-83.352 163.832-132.026a.998.998 0 0 1 .756-.419.982.982 0 0 1 .8.326l15.264 16.827a1 1 0 0 1 .082.103c1.869 2.702 3.333 6.174.02 11.447-15.66 24.926-46.614 56.435-82.802 84.286-35.063 26.986-66.399 43.684-81.942 43.684zm-3.53-3.708c.852 1.129 1.918 1.688 3.257 1.707l.279.002c31.017 0 128.381-71.859 163.045-127.034 2.52-4.011 1.855-6.582.065-9.191l-14.385-15.858c-34.761 48.504-100.158 109.8-163.055 131.395 3.654 7.988 7.189 14.205 10.793 18.98z" fill="#112c41"/><path d="M291.007 658.661c-28.508 32.087-78.587 66.057-115.079 80.9 0 0-9.92-12.693-22.365-28.418-.433-.544-.865-1.098-1.298-1.652s-.865-1.108-1.308-1.662c-.432-.554-.875-1.119-1.317-1.683 33.562-14.257 80.773-47.387 117.861-79.65 0 0 .057.082.173.226.038.051.096.113.134.184.048.062.097.113.135.174a834.543 834.543 0 0 0 23.064 31.582z" fill="#fff"/><path d="M175.928 740.561a1 1 0 0 1-.788-.384 6660.578 6660.578 0 0 0-22.361-28.413c-.433-.545-.867-1.101-1.302-1.658a189.85 189.85 0 0 0-1.301-1.654l-1.323-1.69a.998.998 0 0 1 .396-1.537c31.133-13.225 77.292-44.424 117.596-79.484a.998.998 0 0 1 1.476.181c.007.009.052.071.133.172.069.086.125.16.172.231.074.091.124.157.168.229a831.6 831.6 0 0 0 23.007 31.5 1 1 0 0 1-.046 1.272c-27.127 30.532-76.76 65.425-115.45 81.163a.992.992 0 0 1-.376.074zm-24.7-34.01.518.662c.428.536.853 1.08 1.277 1.624.461.59.892 1.142 1.323 1.684a6910.654 6910.654 0 0 1 21.904 27.828c38.08-15.664 86.558-49.735 113.461-79.737a830.5 830.5 0 0 1-22.372-30.651c-39.739 34.45-85.038 65.104-116.11 78.591z" fill="#112c41"/><circle cx="203.056" cy="754.441" fill="#ffe993" r="8.5"/><path d="M203.592 757.343c-12.267 9.15-30.29 12.518-36.724 11.734a2.832 2.832 0 1 1 .685-5.623c4.94.602 22.228-2.479 33.354-11.188a2.832 2.832 0 1 1 3.494 4.458 41.19 41.19 0 0 1-.81.619z" fill="#fff"/><path d="M168.958 770.187c-.833 0-1.575-.04-2.21-.117a3.837 3.837 0 0 1-3.341-4.267 3.833 3.833 0 0 1 4.267-3.341c4.811.583 21.709-2.445 32.618-10.983a3.84 3.84 0 0 1 5.38.653c.631.805.911 1.809.788 2.825s-.635 1.924-1.44 2.555c-.273.214-.55.425-.828.633-11.435 8.531-27.385 12.043-35.232 12.043zm-1.748-5.754c-.913 0-1.705.683-1.818 1.611a1.836 1.836 0 0 0 1.597 2.041c6.158.754 23.953-2.553 36.005-11.543.266-.198.53-.399.79-.604.386-.302.63-.736.689-1.222s-.075-.966-.377-1.351a1.836 1.836 0 0 0-2.573-.311c-11.339 8.875-29.036 12.008-34.091 11.394a1.864 1.864 0 0 0-.222-.014z" fill="#112c41"/><circle cx="202.195" cy="781.307" fill="#ffe993" r="8.5"/><path d="M202.645 784.223c-12.533 8.783-32.68 10.683-39.088 9.709a2.833 2.833 0 0 1 .851-5.601c4.92.748 24.324-.887 35.704-9.263a2.832 2.832 0 0 1 3.361 4.559c-.273.201-.549.4-.828.595z" fill="#fff"/><path d="M167.241 795.146c-1.582 0-2.888-.082-3.833-.225-2.089-.317-3.53-2.275-3.213-4.364s2.274-3.528 4.365-3.213c4.522.687 23.629-.74 34.961-9.08a3.839 3.839 0 0 1 5.358.812 3.837 3.837 0 0 1-.811 5.358c-.279.206-.562.409-.847.609-11.062 7.752-27.488 10.104-35.979 10.104zm-3.259-5.846a1.833 1.833 0 0 0-.274 3.643c5.789.879 25.701-.666 38.364-9.539.272-.191.542-.385.808-.581.813-.6.987-1.749.388-2.562a1.838 1.838 0 0 0-2.563-.387c-11.797 8.684-31.729 10.164-36.446 9.447a1.852 1.852 0 0 0-.276-.021z" fill="#112c41"/><path d="M452.936 780.323a833.772 833.772 0 0 1 .166-39.109l-.005-.218c.005-.085 0-.168.001-.231.368-13.343.712-26.298 1.106-37.607 0 0-92.979 1.013-143.461-4.828-.139 12.602-.187 23.029.217 36.362.688 22.923 1.339 42.496 1.339 42.496l140.636 3.135z" fill="#ffd6c0"/><path d="m438.816 694.646-1.645 85.487c3.875 2.663 11.332 7.906 14.2 9.237.846-34.122 2.294-91.322 2.294-91.322l-14.85-3.402z" fill="#f5b9ab"/><path d="M452.936 781.323h-.022l-140.636-3.136a1 1 0 0 1-.977-.966c-.006-.196-.658-19.837-1.339-42.5-.419-13.838-.346-24.673-.218-36.402a1 1 0 0 1 1.115-.983c49.841 5.768 142.407 4.831 143.335 4.821.267.018.536.106.727.301.191.196.293.46.284.733-.343 9.831-.644 20.794-.963 32.401l-.143 5.199c.002.105.002.182-.003.26l.007.137c-.365 13.615-.418 26.028-.166 39.114a1 1 0 0 1-1 1.019zm-139.668-5.114 138.648 3.091c-.23-12.735-.17-24.878.186-38.113l-.005-.168v-.164l.001-.11.143-5.207c.308-11.202.599-21.804.927-31.372-10.323.086-94.132.597-141.437-4.718-.121 11.286-.176 21.849.229 35.212.596 19.838 1.169 37.36 1.308 41.548z" fill="#112c41"/><path d="M248.666 857.569c48.712 15.63 113.087 13.216 166.999 2.33 15.716-3.178 30.541-7.063 43.83-11.443 0 0-4.853-42.479-6.559-68.132l-11.36-.222s-128.933-2.821-129.276-2.913c-9.831 5.325-54.463 32.486-63.634 80.38z" fill="#b2b0f7"/><path d="M330.612 869.612c-30.822 0-59.251-3.711-82.251-11.091a1 1 0 0 1-.677-1.14c9.421-49.202 55.082-76.166 64.14-81.072a.997.997 0 0 1 .576-.116c2.381.133 127.928 2.881 129.198 2.909l11.358.222a1 1 0 0 1 .978.934c1.686 25.336 6.507 67.66 6.555 68.085a.999.999 0 0 1-.681 1.063c-13.474 4.441-28.259 8.302-43.945 11.473-28.882 5.832-58.002 8.734-85.252 8.734zm-80.792-12.726c42.992 13.547 104.818 14.316 165.648 2.032 15.309-3.096 29.751-6.849 42.943-11.159-.669-5.93-4.804-42.956-6.41-66.454l-10.444-.204c-109.632-2.399-126.349-2.818-128.996-2.917-6.366 3.484-53.015 30.503-62.741 78.701z" fill="#360815"/><path d="M459.288 848.519s-4.853-42.479-6.559-68.132l-13.961 2.254c-1.393 22.429-3.035 57.505-13.193 75.332-.107.187 20.425-5.074 33.714-9.454z" fill="#9797f7"/><path d="M386.853 867.232a2.5 2.5 0 0 1-2.499-2.47c-.414-34.819 26.816-77.779 66.551-83.755a2.501 2.501 0 0 1 .744 4.945c-36.125 5.433-62.683 46.058-62.295 78.751a2.5 2.5 0 0 1-2.47 2.53h-.031z" fill="#fff"/><path d="M330.612 869.612c-30.822 0-59.251-3.711-82.251-11.091a1 1 0 0 1-.677-1.14c9.421-49.202 55.082-76.166 64.14-81.072a.997.997 0 0 1 .576-.116c2.381.133 127.928 2.881 129.198 2.909l11.358.222a1 1 0 0 1 .978.934c1.686 25.336 6.507 67.66 6.555 68.085a.999.999 0 0 1-.681 1.063c-13.474 4.441-28.259 8.302-43.945 11.473-28.882 5.832-58.002 8.734-85.252 8.734zm-80.792-12.726c42.992 13.547 104.818 14.316 165.648 2.032 15.309-3.096 29.751-6.849 42.943-11.159-.669-5.93-4.804-42.956-6.41-66.454l-10.444-.204c-109.632-2.399-126.349-2.818-128.996-2.917-6.366 3.484-53.015 30.503-62.741 78.701z" fill="#112c41"/><path d="M245.847 880.55c.018 1.597.586 3.014 2.005 4.091 25.827 19.601 148.897 17.924 207.811-5.257 5.047-1.986 6.041-5.004 6.14-8.327l-2.307-22.601c-58.897 19.394-147.919 29.295-210.829 9.113-1.685 7.834-2.902 15.768-2.819 22.981z" fill="#fff"/><path d="M329.276 899.162c-39.724 0-70.676-5.108-82.029-13.725-1.569-1.191-2.377-2.832-2.4-4.876-.073-6.381.856-13.971 2.842-23.204a.999.999 0 0 1 1.283-.741c63.527 20.379 153.499 9.563 210.211-9.111a1.002 1.002 0 0 1 1.308.848l2.307 22.602c.004.043.006.087.005.131-.098 3.284-.979 6.948-6.773 9.228-27.393 10.778-71.003 17.784-116.659 18.741-3.419.072-6.79.107-10.094.107zm-79.861-40.307c-1.797 8.598-2.638 15.7-2.569 21.683.016 1.415.543 2.497 1.609 3.307 24.466 18.567 146.023 18.538 206.84-5.392 4.408-1.734 5.398-4.198 5.504-7.361l-2.175-21.3c-35.156 11.417-82.698 19.812-128.863 19.813-28.363 0-56.202-3.167-80.348-10.75z" fill="#112c41"/><path d="M452.935 780.319c-41.984 8.922-102.452 6.565-140.635-3.131 0 0-.457-16.103-1.149-36.145-.026-.695-.045-1.397-.065-2.1s-.039-1.405-.067-2.114l-.062-2.136c35.477 8.43 93.137 9.762 142.133 5.787 0 0-.002.1.005.284 0 .064.011.148-.001.228.002.078.011.148.005.22a835.204 835.204 0 0 0-.165 39.107z" fill="#fff"/><path d="M391.809 786.866c-28.126 0-57.099-2.956-79.755-8.709a.999.999 0 0 1-.753-.941c-.005-.161-.465-16.33-1.149-36.138-.026-.696-.045-1.401-.065-2.107-.021-.738-.04-1.417-.066-2.104l-.063-2.145a1.002 1.002 0 0 1 1.231-1.003c32.91 7.821 88.578 10.082 141.822 5.763a.997.997 0 0 1 1.081 1.019c0 .011 0 .089.005.221.004.109.006.202.001.287.005.117.006.198 0 .281a828.436 828.436 0 0 0-.162 39.01 1 1 0 0 1-.792.997c-17.593 3.739-39.201 5.569-61.334 5.569zm-78.531-10.463c39.949 9.979 99.187 11.304 138.642 3.107a830.462 830.462 0 0 1 .171-37.947c-52.426 4.162-107.078 1.972-140.095-5.601l.024.839c.026.682.046 1.369.065 2.056.021.758.041 1.458.066 2.15.6 17.391 1.029 31.977 1.127 35.396z" fill="#112c41"/><circle cx="325.314" cy="805.259" fill="#ffe993" r="8.5"/><path d="M324.024 807.913c-15.304.09-31.811-7.889-36.526-12.337a2.833 2.833 0 0 1 3.887-4.121c3.62 3.414 19.366 11.189 33.489 10.777a2.831 2.831 0 1 1 .169 5.661c-.339.01-.679.016-1.019.018z" fill="#fff"/><path d="M323.761 808.915c-15.7 0-32.125-8.061-36.948-12.61-1.537-1.45-1.608-3.88-.159-5.417s3.879-1.608 5.417-.159c3.526 3.325 18.927 10.906 32.775 10.505 2.092-.062 3.881 1.607 3.944 3.716.031 1.023-.339 1.997-1.041 2.742s-1.652 1.172-2.675 1.203a40.15 40.15 0 0 1-1.043.019h-.269zm-34.319-17.229c-.487 0-.973.192-1.333.574a1.834 1.834 0 0 0 .076 2.59c4.514 4.257 20.785 12.153 35.834 12.064.332-.002.664-.008.995-.018.49-.015.944-.219 1.279-.575s.512-.821.498-1.311a1.846 1.846 0 0 0-1.887-1.777c-14.395.423-30.499-7.555-34.204-11.049a1.829 1.829 0 0 0-1.257-.498z" fill="#112c41"/><circle cx="308.685" cy="826.378" fill="#ffe993" r="8.5"/><path d="M307.318 828.993c-15.3-.363-32.646-10.784-37.228-15.369a2.833 2.833 0 0 1 4.007-4.005c3.517 3.52 20.109 13.714 34.239 13.721a2.833 2.833 0 0 1 .002 5.664c-.339 0-.68-.004-1.019-.012z" fill="#fff"/><path d="M308.279 830.004c-.327 0-.656-.004-.985-.012-16.019-.379-33.611-11.357-37.912-15.661-.724-.724-1.122-1.687-1.122-2.71s.399-1.986 1.124-2.709a3.837 3.837 0 0 1 5.419.002c3.232 3.235 19.462 13.421 33.532 13.427a3.839 3.839 0 0 1 3.832 3.832 3.804 3.804 0 0 1-1.122 2.709c-.737.737-1.732 1.121-2.767 1.123zm-36.186-20.214a1.83 1.83 0 0 0-1.296 3.126c4.139 4.143 21.088 14.709 36.544 15.076.331.008.665.01.993.011.491 0 .951-.19 1.297-.537s.536-.806.536-1.296a1.837 1.837 0 0 0-1.834-1.832c-14.648-.006-31.572-10.638-34.945-14.013a1.83 1.83 0 0 0-1.296-.537z" fill="#112c41"/><path d="M468.579 509.188c-1.33 61.18 1.26 140.09 4.83 176.91 1.14 11.73-7.59 22.09-19.34 22.96-2.56.19-5.3.38-8.18.56-16.87 1.11-38.7 2.06-59.31 1.57-38.2-.91-75.94-5.28-75.94-5.28s-16.06-116.72-16.06-218.72-8-192-4-269c-.02.01-.05.02-.07.04-57.98 29.01-117.93 95.99-108.93 177.96 7.43 67.68 54.18 151.13 69.87 177.56a14.833 14.833 0 0 1-1.17 16.85c-1.89 2.36-4.2 5.16-6.96 8.29-9.11 10.41-22.98 24.6-41.74 39.3-36.18 28.36-69 44-69 44s-90-94-122-234c-26.79-117.2 4-210 75-308 69.321-95.68 151.821-135.8 223-139 3.78-.17 7.51-.22 11.19-.17 83.16 1.32 142.53 59.08 158.81 102.17 17 45 17.07 92.85 11 131-7 44-19 183-21 275z" fill="#ffa9dc"/><path d="M398.055 712.319c-3.837 0-7.683-.041-11.5-.131-37.808-.901-75.654-5.243-76.031-5.287a1 1 0 0 1-.876-.857c-.161-1.168-16.069-117.955-16.069-218.856 0-42.987-1.406-83.411-2.767-122.504-1.801-51.763-3.504-100.691-1.32-144.822-57.868 29.591-115.623 96.954-106.92 176.216 7.459 67.949 55.262 152.778 69.736 177.159 3.347 5.634 2.845 12.862-1.249 17.985a227.684 227.684 0 0 1-6.991 8.327c-8.402 9.601-22.489 24.237-41.873 39.426-35.852 28.103-68.857 43.959-69.187 44.116-.389.186-.854.1-1.153-.211-.226-.235-22.869-24.039-49.117-64.648-24.222-37.476-56.572-97.358-73.135-169.82-13.066-57.159-12.792-110.044.837-161.678 12.444-47.145 36.757-95.272 74.328-147.132 32.856-45.35 70.237-80.494 111.107-104.456 36.124-21.179 75.08-33.267 112.66-34.957 3.67-.165 7.453-.223 11.249-.171 47.712.757 83.468 19.785 105.063 35.615 25.356 18.587 45.793 43.709 54.669 67.202 18.597 49.227 16.275 98.687 11.052 131.511-6.84 42.994-18.934 180.395-20.988 274.865-1.393 64.088 1.42 141.668 4.826 176.792.577 5.942-1.222 11.728-5.066 16.292-3.845 4.564-9.241 7.321-15.196 7.762-2.564.19-5.308.38-8.191.561-12.505.823-30.057 1.703-47.897 1.703zm-86.529-7.317c5.574.62 40.344 4.359 75.077 5.187 21.486.508 44.064-.571 59.22-1.568a721.9 721.9 0 0 0 8.172-.559c5.413-.401 10.319-2.907 13.814-7.056 3.494-4.148 5.129-9.408 4.604-14.81-3.411-35.181-6.229-112.867-4.834-177.029 2.055-94.547 14.164-232.088 21.012-275.135 5.185-32.584 7.494-81.673-10.948-130.489-8.745-23.146-28.924-47.929-53.98-66.296-21.36-15.657-56.727-34.479-103.91-35.228-3.754-.051-7.498.006-11.129.169-47.031 2.114-138.441 22.93-222.235 138.588-77.288 106.678-99.668 198.548-74.835 307.19 16.498 72.177 48.73 131.84 72.865 169.18 23.993 37.122 44.927 60.106 48.385 63.821 4.805-2.369 35.27-17.785 68.159-43.565 19.262-15.093 33.256-29.632 41.604-39.171a226.025 226.025 0 0 0 6.932-8.256c3.577-4.476 4.015-10.791 1.091-15.714-14.525-24.468-62.501-109.613-70.004-177.962-4.133-37.644 6.074-75.514 29.518-109.517 19.976-28.972 48.358-53.628 79.923-69.429a1.013 1.013 0 0 1 1.111.016 1 1 0 0 1 .441.873c-2.312 44.493-.59 93.981 1.233 146.375 1.361 39.11 2.768 79.552 2.768 122.573 0 96.467 14.563 207.492 15.947 217.813z" fill="#112c41"/><path d="M181.579 396.188c7.43 67.68 54.18 151.13 69.87 177.56a14.833 14.833 0 0 1-1.17 16.85c-1.89 2.36-4.2 5.16-6.96 8.29-1.15.41-1.906 1.129-1.83.65 6.09-38.35-74.91-117.35-82.91-220.35-9.293-119.644 128-191 128-191 4 15 4.3 29.3 4.3 29.3s-.14.29-.37.74c-57.98 29.01-117.93 95.99-108.93 177.96zm287 113c-1.33 61.18 1.26 140.09 4.83 176.91 1.14 11.73-7.59 22.09-19.34 22.96-2.56.19-5.3.38-8.18.56 18.69-7.43 7.69-115.43 7.69-231.43s8.469-172.791 13-277c5-115-75-188-146.81-200.16v-.01c83.16 1.32 142.53 59.08 158.81 102.17 17 45 17.07 92.85 11 131-7 44-19 183-21 275z" fill="#ff90d8"/><g fill="#112c41"><path d="M398.055 712.319c-3.837 0-7.683-.041-11.5-.131-37.808-.901-75.654-5.243-76.031-5.287a1 1 0 0 1-.876-.857c-.161-1.168-16.069-117.955-16.069-218.856 0-42.987-1.406-83.411-2.767-122.504-1.801-51.763-3.504-100.691-1.32-144.822-57.868 29.591-115.623 96.954-106.92 176.216 7.459 67.949 55.262 152.778 69.736 177.159 3.347 5.634 2.845 12.862-1.249 17.985a227.684 227.684 0 0 1-6.991 8.327c-8.402 9.601-22.489 24.237-41.873 39.426-35.852 28.103-68.857 43.959-69.187 44.116-.389.186-.854.1-1.153-.211-.226-.235-22.869-24.039-49.117-64.648-24.222-37.476-56.572-97.358-73.135-169.82-13.066-57.159-12.792-110.044.837-161.678 12.444-47.145 36.757-95.272 74.328-147.132 32.856-45.35 70.237-80.494 111.107-104.456 36.124-21.179 75.08-33.267 112.66-34.957 3.67-.165 7.453-.223 11.249-.171 47.712.757 83.468 19.785 105.063 35.615 25.356 18.587 45.793 43.709 54.669 67.202 18.597 49.227 16.275 98.687 11.052 131.511-6.84 42.994-18.934 180.395-20.988 274.865-1.393 64.088 1.42 141.668 4.826 176.792.577 5.942-1.222 11.728-5.066 16.292-3.845 4.564-9.241 7.321-15.196 7.762-2.564.19-5.308.38-8.191.561-12.505.823-30.057 1.703-47.897 1.703zm-86.529-7.317c5.574.62 40.344 4.359 75.077 5.187 21.486.508 44.064-.571 59.22-1.568a721.9 721.9 0 0 0 8.172-.559c5.413-.401 10.319-2.907 13.814-7.056 3.494-4.148 5.129-9.408 4.604-14.81-3.411-35.181-6.229-112.867-4.834-177.029 2.055-94.547 14.164-232.088 21.012-275.135 5.185-32.584 7.494-81.673-10.948-130.489-8.745-23.146-28.924-47.929-53.98-66.296-21.36-15.657-56.727-34.479-103.91-35.228-3.754-.051-7.498.006-11.129.169-47.031 2.114-138.441 22.93-222.235 138.588-77.288 106.678-99.668 198.548-74.835 307.19 16.498 72.177 48.73 131.84 72.865 169.18 23.993 37.122 44.927 60.106 48.385 63.821 4.805-2.369 35.27-17.785 68.159-43.565 19.262-15.093 33.256-29.632 41.604-39.171a226.025 226.025 0 0 0 6.932-8.256c3.577-4.476 4.015-10.791 1.091-15.714-14.525-24.468-62.501-109.613-70.004-177.962-4.133-37.644 6.074-75.514 29.518-109.517 19.976-28.972 48.358-53.628 79.923-69.429a1.013 1.013 0 0 1 1.111.016 1 1 0 0 1 .441.873c-2.312 44.493-.59 93.981 1.233 146.375 1.361 39.11 2.768 79.552 2.768 122.573 0 96.467 14.563 207.492 15.947 217.813z"/><path d="M290.096 230.114a1 1 0 0 1-.994-1.124c1.414-11.353 1.618-28.272-5.439-44.401a1 1 0 0 1 1.832-.802c7.239 16.545 7.036 33.848 5.591 45.45a1 1 0 0 1-.991.876z"/></g></svg></g><g transform="translate(486.6666666666667 2368.3333333333335) rotate(0.0 473.33333333333337 215.83333333333326) scale(1.668220343712131 1.6705754261579855)"><svg width="567.471" height="258.394" viewBox="0 0 567.471 258.394"><path d="M566.471 6.02v246.354a5.021 5.021 0 0 1-5.02 5.02H6.02a5.021 5.021 0 0 1-5.02-5.02V6.02A5.02 5.02 0 0 1 6.02 1h555.432a5.021 5.021 0 0 1 5.019 5.02z" fill="#fcd7ac"/><path d="M561.451 257.394H217.539a5.02 5.02 0 0 0 5.02-5.02V43.99c27.969 197.276 338.892 213.404 338.892 213.404z" fill="#fccc86"/><path d="M434.197 1v82.919c0 1.347-1.643 2.007-2.575 1.035l-9.024-9.415a1.496 1.496 0 0 0-2.159 0l-10.513 10.974a1.494 1.494 0 0 1-2.159 0l-10.512-10.974a1.494 1.494 0 0 0-2.159 0l-10.519 10.975a1.496 1.496 0 0 1-2.159 0l-10.52-10.975a1.496 1.496 0 0 0-2.159 0l-9.025 9.415c-.932.973-2.575.313-2.575-1.035V1z" fill="#fff"/><path d="M561.452 258.394H6.02c-3.32 0-6.02-2.7-6.02-6.02V6.02C0 2.7 2.7 0 6.02 0h555.432c3.319 0 6.02 2.7 6.02 6.02v246.354a6.027 6.027 0 0 1-6.02 6.02zM6.02 2A4.024 4.024 0 0 0 2 6.02v246.354a4.024 4.024 0 0 0 4.02 4.02h555.432a4.024 4.024 0 0 0 4.02-4.02V6.02a4.024 4.024 0 0 0-4.02-4.02z" fill="#112c41"/><path d="M222.559 6.02v246.354a5.021 5.021 0 0 1-5.02 5.02H6.02a5.021 5.021 0 0 1-5.02-5.02V6.02A5.02 5.02 0 0 1 6.02 1h211.519a5.021 5.021 0 0 1 5.02 5.02z" fill="#fccc86"/><path d="M145.84 1v82.919c0 1.347-1.471 2.007-2.306 1.035l-8.083-9.415c-.527-.614-1.407-.614-1.934 0l-9.416 10.974c-.527.615-1.407.615-1.934 0l-9.416-10.974c-.527-.615-1.407-.615-1.934 0l-9.422 10.975c-.527.614-1.407.614-1.933 0L90.04 75.539c-.527-.614-1.407-.614-1.933 0l-8.083 9.415c-.835.973-2.306.313-2.306-1.035V1z" fill="#dedffe"/><path d="M217.539 258.394H6.02c-3.319 0-6.02-2.7-6.02-6.02V6.02C0 2.7 2.701 0 6.02 0h211.519c3.319 0 6.02 2.7 6.02 6.02v246.354c0 3.32-2.7 6.02-6.02 6.02zM6.02 2A4.024 4.024 0 0 0 2 6.02v246.354a4.024 4.024 0 0 0 4.02 4.02h211.519a4.024 4.024 0 0 0 4.02-4.02V6.02a4.024 4.024 0 0 0-4.02-4.02z" fill="#112c41"/></svg></g><g transform="translate(218.33333333333334 470.0) rotate(0.0 620.8333333333334 549.1666666666667) scale(1.6687498040058955 1.668677182118263)"><svg width="744.07" height="658.206" viewBox="0 0 744.07 658.206"><path d="M742.498 72.845c-2.64 13.907-24.579 47.268-36.671 89.291-23.9 83.059-66.387 159.038-187.164 190.012-.587.223-1.175.438-1.753.652 6.295-86.488-40.05-123.187-40.05-123.187 42.838-13.556 83.426-25.957 113.317-85.305C618.6 87.875 624.71-8.35 666.137 9.049c13.525-13.169 25.367-8.321 28.375 1.294 9.811-7.307 20.753.085 18.836 21.538-1.762 19.737-15.133 48.422 6.249 33.027 13.968-10.057 26.307-10.002 22.901 7.937z" fill="#ffd6c0"/><path d="m717.918 128.507-.002-.001c-11.688 17.03-40.842 113.719-107.951 158.475-38.874 25.926-73.259 34.967-92.817 38.121.507 8.599.481 17.82-.238 27.698.579-.215 1.166-.429 1.753-.653 120.777-30.974 163.264-106.953 187.164-190.012 3.454-12 7.71-23.291 12.091-33.628z" fill="#f5b9ab"/><path d="M516.91 353.8a.997.997 0 0 1-.997-1.072c1.783-24.493.195-60.575-17.491-93.376-10.576-19.615-22.067-28.863-22.182-28.955a1 1 0 0 1 .319-1.737l1.122-.355c42.253-13.367 82.164-25.993 111.604-84.446 9.344-18.554 16.218-41.263 22.864-63.224 10.115-33.422 19.67-64.991 36.234-72.782 5.304-2.495 11.199-2.486 17.531.025 6.71-6.345 13.718-8.99 19.791-7.455 4.185 1.058 7.588 4.141 9.309 8.361 3.986-2.529 8.19-2.873 11.698-.912 2.802 1.567 9.156 7.052 7.632 24.098-.497 5.566-1.868 11.668-3.195 17.568-1.875 8.344-3.815 16.972-1.513 18.493.762.503 2.992.661 9.376-3.935 8.997-6.477 16.734-8.55 21.226-5.688 2.449 1.56 5 5.364 3.243 14.624-1.116 5.878-5.561 15.067-11.188 26.7-7.78 16.083-18.434 38.108-25.505 62.681-21.892 76.082-61.32 158.231-187.822 190.69-.402.152-.803.301-1.202.448l-.506.187a.998.998 0 0 1-.348.062zm-38.035-123.775c3.423 3.081 12.54 12.151 21.251 28.274 9.802 18.14 20.794 48.936 17.889 93.025l.293-.111c.035-.013.071-.025.107-.034 125.562-32.201 164.713-113.772 186.451-189.32 7.118-24.737 17.815-46.852 25.626-62.999 5.563-11.5 9.957-20.584 11.024-26.202 1.226-6.458.412-10.803-2.353-12.564-3.656-2.329-10.929-.174-18.983 5.625-5.849 4.211-9.441 5.438-11.647 3.981-3.453-2.282-1.636-10.366.665-20.6 1.312-5.837 2.669-11.873 3.154-17.308.985-11.018-1.489-19.307-6.616-22.175-3.158-1.766-6.932-1.224-10.626 1.527a1 1 0 0 1-1.552-.504c-1.332-4.257-4.373-7.275-8.344-8.28-5.515-1.395-12.043 1.234-18.379 7.404-.288.28-.714.361-1.085.206-6.104-2.563-11.507-2.664-16.516-.308-15.758 7.412-25.188 38.567-35.171 71.551-6.671 22.043-13.57 44.836-22.992 63.544-29.681 58.932-69.75 71.838-112.196 85.268zm263.624-157.18h.01z" fill="#112c41"/><path d="M677.076 53.629a1 1 0 0 1-.994-1.117c3.705-31.558 15.981-41.776 19.655-44.156a1 1 0 1 1 1.087 1.679c-10.966 7.103-16.879 26.72-18.756 42.71a1 1 0 0 1-.992.884zm-27.515-1.254a1 1 0 0 1-.994-1.117c3.002-25.566 12.007-40.046 18.806-44.677a1 1 0 0 1 1.126 1.654c-6.961 4.741-15.21 19.955-17.946 43.257a1 1 0 0 1-.992.883z" fill="#112c41"/><path d="M527.162 289.272c-9.165-37.83-25.321-65.156-38.653-69.467-8.318-2.69-45.535-2.802-160.087 14.69-110.696 16.903-213.831 44.98-245.522 60.27-4.507 2.175-5.928 5.05-6.366 6.159-4.945 12.533 4.248 53.974 22.392 87.318s37.698 52.759 50.42 51.377c8.255-.897 27.222-7.03 45.057-13.925l.036.142c20.515 47.34 68.128 82.96 127.481 87.545 83.268 6.432 156.08-55.156 163.863-137.989l.011-.002c13.663-1.886 35.325-6.359 40.8-16.295 5.021-9.108 9.156-34.371.568-69.823z" fill="#ffe993"/><path d="M292.422 240.421c-96.419 16.976-181.301 40.729-209.521 54.344-4.507 2.175-5.928 5.05-6.366 6.159-1.777 4.503-1.719 12.749-.086 23 33.573-19.765 110.614-55.552 215.61-79.704-.09-1.283.049-2.554.363-3.799z" fill="#ffd169"/><path d="M76.535 300.924c-4.945 12.533 4.248 53.974 22.392 87.318s37.698 52.759 50.42 51.377c7.1-.771 22.123-5.417 37.535-11.088 4.123-18.67-11.634-65.48-20.812-84.234-20.593-44.681-37.308-58.764-46.786-63.091-15.957 5.073-28.423 9.719-36.382 13.559-4.509 2.174-5.93 5.049-6.367 6.159zm450.627-11.652c-9.165-37.83-25.321-65.156-38.653-69.467-3.668-1.186-12.96-1.87-32.015-.765.056.059.104.115.161.175 0 0 26.275 20.323 40.109 81.487 10.53 46.557.736 72.673.736 72.673 12.021-2.53 25.026-6.895 29.095-14.278 5.02-9.11 9.155-34.373.567-69.825z" fill="#fff"/><path d="M218.432 415.526c-6.795 3.215-15.244 6.771-23.979 10.149l-.015.161c20.515 47.34 68.128 82.96 127.481 87.545 47.046 3.634 90.753-14.449 121.283-45.805v-.001c-85.472 57.205-182.199 32.321-224.77-52.049z" fill="#ffd169"/><g fill="#112c41"><path d="M148.033 440.689c-13.432 0-32.399-19.65-49.986-51.969-18.683-34.335-27.406-75.586-22.444-88.163.615-1.56 2.325-4.505 6.861-6.693 33.425-16.126 140.173-44.228 245.806-60.358 126.206-19.271 154.318-16.667 160.545-14.653 14.255 4.61 30.423 33.471 39.317 70.183 8.017 33.094 5.276 59.766-.663 70.542-5.457 9.901-25.601 14.602-41.54 16.803a1 1 0 1 1-.273-1.981c12.677-1.75 34.739-6.128 40.062-15.787 4.135-7.503 9.555-31.603.47-69.106-8.739-36.072-24.36-64.344-37.988-68.751-4.754-1.537-30.314-5.018-159.628 14.727-105.456 16.103-211.944 44.119-245.239 60.182-3.923 1.893-5.362 4.337-5.87 5.626-4.705 11.925 4.211 53.156 22.34 86.473 17.55 32.252 36.959 52.216 49.433 50.86 13.295-1.444 57.343-17.467 76.019-27.652a1.001 1.001 0 0 1 .958 1.756c-17.266 9.416-62.229 26.306-76.76 27.885-.465.05-.939.076-1.42.076z"/><path d="M333.797 514.84c-3.961 0-7.939-.152-11.954-.462-57.516-4.443-106.686-38.217-128.322-88.144a.999.999 0 1 1 1.835-.795c21.341 49.244 69.867 82.56 126.641 86.945 83.447 6.445 156.574-56.197 163.02-139.64.678-8.778.601-17.635-.231-26.323a1 1 0 1 1 1.991-.191c.843 8.803.921 17.775.234 26.668-6.22 80.528-73.753 141.942-153.214 141.942zm-184.281-85.071c-1.92.912-4.538.129-7.65-2.098-.968-.682-1.982-1.512-3.033-2.465a60.983 60.983 0 0 1-3.331-3.297c-9.176-9.827-21.625-27.642-31.884-49.065-11.941-24.963-18.063-48.104-18.387-60.836-.005-.086-.001-.172-.005-.259-.095-5.105.938-8.487 3.211-9.564 2.043-.967 4.869-.028 8.243 2.521.367.275.749.577 1.131.896 9.73 8.069 23.456 28.289 35.525 53.49 10.675 22.303 17.488 43.155 19.054 56.427.175 1.447.277 2.804.323 4.073-.002.034.005.069.004.104.175 5.375-.849 8.948-3.201 10.073z"/><path d="M147.786 431.142c-1.852 0-4.029-.889-6.502-2.659-.958-.674-2.011-1.53-3.122-2.537a60.963 60.963 0 0 1-3.388-3.353c-8.376-8.971-21.195-26.636-32.057-49.318-10.86-22.703-18.116-46.742-18.485-61.243l-.003-.151a4.41 4.41 0 0 1-.002-.115c-.106-5.719 1.166-9.247 3.782-10.486 2.366-1.12 5.486-.235 9.274 2.627.377.283.773.596 1.169.926 10.24 8.492 23.953 29.117 35.785 53.826 10.346 21.616 17.503 42.828 19.146 56.742.169 1.399.28 2.797.329 4.154.004.068.006.129.003.189.199 5.931-1.069 9.635-3.767 10.926l-.002.001a4.961 4.961 0 0 1-2.16.471zm1.73-1.373h.01zM90.179 302.813a3.04 3.04 0 0 0-1.315.275c-1.789.848-2.726 3.917-2.639 8.642l.003.144.002.108c.275 10.815 5.231 33.131 18.29 60.43 10.764 22.477 23.44 39.954 31.713 48.814a59.647 59.647 0 0 0 3.273 3.24c1.049.951 2.037 1.754 2.935 2.386 1.984 1.42 4.74 2.916 6.645 2.013 1.861-.891 2.795-4.136 2.63-9.137a1.552 1.552 0 0 1-.003-.179 48.546 48.546 0 0 0-.316-3.91c-1.618-13.71-8.707-34.687-18.964-56.115-11.538-24.093-25.378-44.957-35.261-53.152-.371-.31-.74-.601-1.093-.866-2.358-1.782-4.364-2.693-5.9-2.693zm237.097-41.41c18.587-1.457 32.959-11.483 32.1-22.384-.228-2.97-1.478-5.788-3.772-8.052-.153-.15-.322-.29-.484-.434a3109.212 3109.212 0 0 0-26.697 3.963 1603.472 1603.472 0 0 0-36 5.922c-.322 1.278-.465 2.582-.362 3.9.858 10.899 16.627 18.549 35.215 17.085z"/><path d="M322.714 262.583c-7.462 0-14.481-1.445-20.131-4.187-6.984-3.389-11.075-8.361-11.519-14.001-.106-1.357.024-2.777.389-4.223a.999.999 0 0 1 .796-.74 1610.587 1610.587 0 0 1 36.022-5.925 3137.15 3137.15 0 0 1 26.706-3.964c.291-.042.586.047.807.242l.139.121c.131.114.261.228.383.348 2.407 2.376 3.813 5.38 4.067 8.688.444 5.639-2.817 11.191-9.182 15.63-6.208 4.329-14.673 7.109-23.836 7.827-1.56.123-3.11.184-4.641.184zm-29.463-21.297a10.816 10.816 0 0 0-.193 2.952c.386 4.903 4.079 9.292 10.399 12.359 6.494 3.151 14.925 4.503 23.741 3.809 8.814-.691 16.928-3.345 22.848-7.474 5.76-4.017 8.719-8.931 8.333-13.835-.217-2.823-1.419-5.388-3.478-7.419l-.095-.09a3126.424 3126.424 0 0 0-26.233 3.896 1608.59 1608.59 0 0 0-35.322 5.802z"/></g><path d="M233.202 565.742c-.328-7.744 14.477-18.356 10.713-27.084-5.813-13.474-30.802 5.281-64.528-2.08-11.699-2.554-42.464-17.01-53.773-48.98-8.336-26.408 4.277-48.596 19.859-63.174a135.02 135.02 0 0 1 7.158-6.22 49.417 49.417 0 0 0-.243-2.685c-1.566-13.271-8.379-34.124-19.054-56.427-12.069-25.202-25.794-45.421-35.525-53.49a27.56 27.56 0 0 0-1.131-.896l-.056-.04a183.601 183.601 0 0 0-11.392 7.342c-31.718 22.229-80.619 60.676-83.936 127.68-3.738 75.525 27.964 139.157 101.788 183.02 25.818 15.34 48.817 18.769 62.766 21.818 16.177 23.14 50.339 10.911 48.583-7.263 11.148-.359 22.755-10.992 22.389-25.784 6.595-3.663 12.041-12.59 10.989-22.186-1.725-15.744-14.382-18.277-14.607-23.551z" fill="#ffd6c0"/><path d="M182.942 537.257a74.365 74.365 0 0 1-3.555-.68c-11.699-2.554-42.464-17.01-53.773-48.98-8.336-26.408 4.277-48.596 19.859-63.174a135.02 135.02 0 0 1 7.158-6.22 49.417 49.417 0 0 0-.243-2.685c-.612-5.183-2.034-11.533-4.163-18.663-20.251 9.597-49.554 42.92-37.696 81.437 14.259 46.317 72.225 59.463 72.225 59.463z" fill="#f5b9ab"/><path d="M189.905 658.178c-8.771 0-18.118-3.64-24.648-12.758-1.505-.326-3.113-.657-4.816-1.009-13.897-2.866-34.899-7.197-57.868-20.844-36.228-21.525-63.261-48.448-80.348-80.021C5.766 513.138-1.612 478.178.296 439.638c3.151-63.654 46.739-102.083 84.361-128.45a185.414 185.414 0 0 1 11.454-7.382 1.002 1.002 0 0 1 1.112.059c.436.325.833.638 1.228.968 10.24 8.491 23.953 29.117 35.786 53.826 10.346 21.616 17.503 42.828 19.146 56.741.101.837.18 1.708.248 2.736a1 1 0 0 1-.368.842 133.943 133.943 0 0 0-7.105 6.173c-11.303 10.575-28.879 32.71-19.589 62.143 11.491 32.483 42.927 46.098 53.033 48.304 16.393 3.578 30.475.953 41.791-1.157 11.711-2.183 20.172-3.761 23.442 3.818 2.356 5.464-1.624 11.217-5.472 16.781-2.719 3.931-5.287 7.644-5.16 10.657.066 1.543 1.76 3.02 3.904 4.889 4.041 3.524 9.576 8.35 10.699 18.595 1.108 10.11-4.605 19.031-10.975 22.866.063 14.799-11.217 25.207-22.338 26.152.206 7.63-5.481 14.644-14.773 18.07-3.313 1.224-7.01 1.909-10.815 1.909zm-93.35-352.307a181.565 181.565 0 0 0-10.75 6.955C48.556 338.932 5.401 376.95 2.294 439.737c-1.889 38.169 5.408 72.775 21.689 102.858 16.913 31.251 43.698 57.915 79.611 79.253 22.681 13.476 43.484 17.766 57.251 20.604 1.855.383 3.597.742 5.218 1.096a1 1 0 0 1 .606.404c8.732 12.49 23.045 14.245 33.357 10.443 8.832-3.256 14.096-9.943 13.41-17.036a.998.998 0 0 1 .963-1.095c10.632-.343 21.777-10.374 21.422-24.76a1.001 1.001 0 0 1 .514-.899c5.998-3.331 11.524-11.684 10.481-21.203-1.038-9.468-6.232-13.998-10.025-17.305-2.506-2.185-4.485-3.911-4.587-6.312-.156-3.683 2.598-7.664 5.513-11.879 3.539-5.116 7.198-10.406 5.281-14.851-2.52-5.84-9.016-4.923-21.239-2.644-10.886 2.03-25.795 4.81-42.584 1.145-10.388-2.268-42.698-16.251-54.502-49.624-9.631-30.511 8.472-53.341 20.119-64.238a135.176 135.176 0 0 1 6.808-5.938 44.717 44.717 0 0 0-.202-2.116c-1.618-13.71-8.707-34.687-18.964-56.115-11.538-24.094-25.379-44.957-35.261-53.152a30.454 30.454 0 0 0-.618-.502z" fill="#112c41"/><path d="M236.82 612.478c-.536 0-.98-.426-.999-.966-.221-6.499-5.205-12.578-9.514-13.67a1 1 0 0 1 .492-1.939c5.638 1.43 10.789 8.692 11.021 15.541a1 1 0 0 1-.966 1.033l-.034.001zm-54.939 34.583c-2.342 0-9.177-.135-16.23-1.555a1 1 0 0 1 .395-1.961c8.296 1.671 16.548 1.511 16.631 1.509a1 1 0 0 1 .044 2c-.059.001-.352.007-.84.007zm32.549-8.798a1 1 0 0 1-.991-.875c-.634-5.039-5.202-9.326-11.636-10.92a1 1 0 1 1 .481-1.941c7.244 1.795 12.401 6.746 13.14 12.612a1 1 0 0 1-.994 1.124z" fill="#112c41"/></svg></g><g transform="translate(1541.6666666666667 446.6666666666667) rotate(0.0 660.0000000000001 607.5) scale(1.6747549719288233 1.6739433835148954)"><svg width="788.175" height="725.831" viewBox="0 0 788.175 725.831"><path d="M15.784 96.662c-.751-37.06 6.163-76.112 27.705-67.513C45.526 5.99 65.784-3.338 75.372 15.129c7.033-16.695 31.106-25.69 34.412 14.533 3.36 40.875 5.369 90.022 14 140 8.429 48.807 24.224 89.683 39.96 110.001 17.86 23.06 43.838 33.977 77.804 26.767l52.291 134.655c-21.908 4.821-110.615 18.407-171.941-27.845C61.158 367.429 19.611 285.476 15.784 96.662z" fill="#ffd6c0"/><path d="M72.25 61.873a1 1 0 0 1-.988-.853c-.164-1.098-3.932-27.118 3.173-46.239a1 1 0 1 1 1.875.697c-6.924 18.633-3.109 44.984-3.07 45.248a.999.999 0 0 1-.99 1.147z" fill="#112c41"/><path d="M34.818 73.358a1 1 0 0 1-.713-1.7c8.07-8.225 18.711-12.508 30.814-12.385 13 .132 23.233 5.08 27.029 7.201a1 1 0 1 1-.976 1.746c-25.847-14.441-47.01-3.753-55.44 4.839a1 1 0 0 1-.714.299z" fill="#112c41"/><path d="M44.515 66.042a1 1 0 0 1-.987-.847c-.027-.172-2.65-17.456-1.035-36.132a1 1 0 1 1 1.993.173c-1.594 18.427.992 35.483 1.019 35.653a1 1 0 0 1-.99 1.153z" fill="#112c41"/><path d="M57.554 152.642c-4.059-14.606.844-28.165 8.237-33.199-6.676-10.603-18.12-42.815.405-47.883 19.175-5.246 38.26 44.284 38.26 44.284" fill="#ffd6c0"/><path d="M57.553 153.642a1 1 0 0 1-.963-.733c-4.161-14.974.855-28.286 7.867-33.732-5.22-8.774-12.448-28.449-7.897-40.152 1.694-4.356 4.847-7.193 9.372-8.431 19.818-5.42 38.665 42.833 39.457 44.89a1.001 1.001 0 0 1-1.866.72c-.188-.487-18.977-48.629-37.063-43.679-3.88 1.062-6.584 3.493-8.036 7.226-4.383 11.27 3.318 31.385 8.213 39.159a1 1 0 0 1-.283 1.359c-6.831 4.652-11.899 17.484-7.837 32.105a1 1 0 0 1-.964 1.268z" fill="#112c41"/><path d="M157.395 413.693C87.22 394.589 54.937 327.538 44.435 299.934c.279.82.561 1.632.843 2.442l.033.097c18.601 53.328 44.995 86.941 76.586 110.767 61.326 46.252 150.034 32.666 171.941 27.845l-9.89-25.467c-32.605 8.223-81.033 10.468-126.553-1.925z" fill="#f5b9ab"/><path d="M237.302 447.715c-35.164 0-80.08-6.581-116.005-33.676-33.886-25.557-57.635-58.958-74.736-105.114-19.558-52.785-29.952-122.21-31.777-212.243-.265-13.092.076-56.645 15.6-67.395 3.595-2.489 7.707-2.997 12.241-1.516C44.274 13.74 52.126 6.03 59.365 4.596c6.2-1.228 11.919 1.798 15.92 8.342C79.592 4.432 87.725-.983 94.847.153c5.115.817 13.986 5.726 15.934 29.426.767 9.335 1.456 18.986 2.185 29.204 2.415 33.836 5.151 72.186 11.803 110.708 7.981 46.213 23.218 88.194 39.766 109.559 18.583 23.993 45.143 33.122 76.806 26.401a1 1 0 0 1 1.14.616l52.291 134.655a.998.998 0 0 1-.718 1.338c-4.885 1.077-27.429 5.655-56.752 5.655zM16.784 96.642c1.82 89.805 12.174 159.016 31.652 211.588 16.963 45.781 40.497 78.895 74.064 104.212 63.272 47.719 154.949 31.067 169.982 27.912l-51.56-132.772c-32.102 6.558-59.047-2.875-77.969-27.306-16.736-21.608-32.122-63.928-40.155-110.443-6.669-38.62-9.41-77.024-11.828-110.906-.729-10.212-1.417-19.858-2.183-29.182-1.836-22.34-9.72-26.89-14.256-27.615-6.727-1.076-14.57 4.681-18.238 13.388a1.002 1.002 0 0 1-1.809.073C70.91 8.704 65.54 5.412 59.754 6.559c-9.282 1.839-14.421 13.045-15.269 22.678a1.002 1.002 0 0 1-1.367.841c-4.423-1.766-8.216-1.486-11.595.854-11.685 8.091-15.275 39.248-14.739 65.71z" fill="#112c41"/><path d="M90.243 194.625c-5.651 0-11.421-.167-17.15-.499C36.681 192.011-.612 183.442.008 172.764c.229-3.963 6.557-7.358 18.811-10.091a1 1 0 0 1 .435 1.952c-10.639 2.372-17.088 5.458-17.249 8.254-.413 7.125 28.728 16.782 71.205 19.25 41.921 2.434 70.543-3.782 70.973-11.115.171-2.944-8.437-9.185-20.678-11.773l-.142-.028a1 1 0 1 1 .385-1.962l.156.031c12.153 2.57 22.555 9.04 22.276 13.849-.53 9.016-26.636 13.494-55.937 13.494zm-58.949 44.807c-14.496 0-24.855-2.314-25.97-7.707-1.087-5.257 11.076-13.625 18.998-17.664a1 1 0 1 1 .908 1.782c-10.949 5.584-18.507 12.777-17.949 15.478 1.473 7.121 30.415 9.088 71.153.665 18.382-3.801 35.317-8.998 47.684-14.636 11.618-5.296 18.111-10.601 17.368-14.19-.56-2.723-5.525-4.786-13.622-5.663l-.628-.051a1 1 0 1 1 .163-1.993l.655.053c9.442 1.022 14.612 3.46 15.392 7.249 1.247 6.028-9.371 12.254-18.498 16.414-12.499 5.698-29.585 10.945-48.109 14.775-16.676 3.448-33.934 5.488-47.545 5.488z" fill="#112c41"/><path d="M689.585 327.604c-20.575-17.512-107.164-46.308-197.445-54.1-120.337-10.386-232.424 12.898-273.758 26.591-4.597 1.523-5.962 7.581-4.491 12.195 11.965 39.98 35.774 101.22 45.411 133.593 12.139-.938 22.574-2.463 29.217-3.721v.001c21.39 69.88 91.042 112.742 166.195 99.904 50.136-8.565 90.656-42.536 114.319-91.116 1.21-2.485 2.498-5.714 3.742-9.432l.581-.253c5.448 3.138 23.044 6.501 25.454 7.437 7.073 2.746 12.66 1.601 26.303-5.669 44.653-23.794 85.808-97.27 64.472-115.43z" fill="#ffe993"/><path d="M689.585 327.604c-19.056-16.219-96.731-42.257-177.754-52.057.759.218 96.953 24.923 142.83 59.706 22.951 17.401 27.911 35.286 26.468 49.65 13.919-24.206 19.38-48.002 8.456-57.299zm-110.221 79.622s-17.31 5.206-24.741 19.181c-8.127 15.285-17.385 44.885-46.185 73.369-46.54 46.03-114.18 40.371-116.426 40.169 19.756 4.886 40.998 5.828 62.703 2.12 50.136-8.565 90.656-42.536 114.319-91.116 1.21-2.485 2.498-5.714 3.742-9.432l.581-.253-.405-.254c3.066-9.313 5.826-21.673 6.412-33.784z" fill="#ffd169"/><g fill="#112c41"><path d="M288.518 443.162a1 1 0 0 1-.956-.708c-2.029-6.629-5.986-23.357-6.442-39.221a1 1 0 0 1 1.999-.057c.45 15.65 4.354 32.153 6.356 38.693a1 1 0 0 1-.957 1.293zm284.433-1.15a1 1 0 0 1-.95-1.313c3.532-10.726 5.852-22.944 6.364-33.521a.999.999 0 1 1 1.997.097c-.52 10.75-2.875 23.161-6.462 34.05a1 1 0 0 1-.949.687z"/><path d="M428.131 545.338c-64.308.005-120.885-39.908-140.304-102.027-6.239 1.159-17.06 2.727-28.452 3.569a1.002 1.002 0 0 1-1.032-.712c-4.591-15.421-12.382-37.345-20.63-60.557-9.103-25.617-18.517-52.106-24.78-73.035-1.631-5.115.04-11.743 5.135-13.431 48.421-16.04 161.392-36.37 274.158-26.638 92.509 7.984 177.674 37.028 198.008 54.335 4.87 4.146 6.908 11.299 5.892 20.686-3.123 28.855-34.617 77.245-70.542 96.387-13.853 7.381-19.686 8.61-27.135 5.719-2.152-.835-21.632-6.352-24.901-7.276-1.185 3.485-2.431 6.598-3.615 9.029-12.005 24.648-27.988 45.139-47.502 60.904-20.021 16.174-42.748 26.524-67.547 30.76a158.99 158.99 0 0 1-26.753 2.287zM288.519 441.161c.432 0 .825.281.956.707 21.475 70.158 90.896 111.883 165.071 99.212 24.458-4.178 46.875-14.387 66.627-30.344 19.285-15.58 35.085-35.842 46.961-60.224 1.206-2.475 2.483-5.695 3.693-9.311a.999.999 0 0 1 .551-.6l.577-.251c.213-.093.451-.109.673-.047.943.266 23.117 6.525 25.544 7.467 6.779 2.632 12.254 1.423 25.471-5.619 34.818-18.552 66.488-67.051 69.495-94.837.955-8.824-.795-15.199-5.2-18.948-10.39-8.843-38.061-20.529-72.215-30.497-39.558-11.545-83.833-19.844-124.669-23.369-112.466-9.706-225.093 10.556-273.357 26.543-3.972 1.316-5.199 6.72-3.853 10.942 6.255 20.898 15.659 47.362 24.754 72.956 8.121 22.853 15.799 44.459 20.432 59.883 11.569-.892 22.427-2.51 28.299-3.645.063-.012.127-.018.19-.018z"/><path d="M690.488 348.279s1.879-7.294-.206-9.162c-3.328-2.983-10.008 1.868-10.008 1.868z"/><path d="M690.488 349.279a.997.997 0 0 1-.581-.186l-10.213-7.294a.999.999 0 0 1-.007-1.623c.299-.217 7.378-5.286 11.263-1.804 2.416 2.164.846 8.84.507 10.156a1 1 0 0 1-.969.751zm-8.438-8.254 7.789 5.562c.5-2.628.706-5.892-.224-6.725-1.826-1.637-5.407-.111-7.565 1.163zm-216.228-69.276c-24.539-1.173-48.531-1.049-71.424-.001-5.818 3.165-9.016 6.46-8.984 11.299.072 11.322 21.866 18.228 45.89 18.073 24.024-.156 41.18-7.31 41.109-18.631-.024-3.959-2.446-7.634-6.591-10.74z"/><path d="M430.495 302.122c-11.919 0-23.064-1.696-31.465-4.797-9.525-3.515-14.58-8.45-14.617-14.272-.032-4.898 2.811-8.541 9.506-12.183a.992.992 0 0 1 .432-.12c24.237-1.11 48.299-1.109 71.517.001.2.01.392.079.552.199 4.549 3.409 6.967 7.397 6.991 11.534.074 11.762-16.451 19.471-42.102 19.637l-.814.001zm-35.82-29.385c-5.814 3.202-8.287 6.291-8.261 10.304.031 4.846 4.758 9.253 13.309 12.409 8.371 3.089 19.589 4.743 31.574 4.67 24.06-.156 40.181-7.239 40.115-17.625-.02-3.417-2.075-6.787-5.948-9.761-22.987-1.09-46.8-1.089-70.789.003z"/></g><path d="M680.275 340.986c49.689 33.719 102.579 95.985 106.691 175.572 5.626 108.891-103.077 168.104-198.044 180.349 1.767 9.792-11.729 26.985-33.108 27.888-24.737 1.05-38.382-21.374-37.874-34.17-8.965-6.451-22.21-23.231-17.115-41.316-19.89-30.486 14.226-59.14 32.465-61.855-13.999-17.436-14.218-25.487-9.259-30.532 11.238-11.432 39.037 20.619 61.053 21.18 12.962.334 26.11-1.275 38.24-4.455.013-.002.034-.009.048-.011 28.13-8.511 39.85-30.423 37.999-54.24-3.068-39.462-45.035-65.884-65.603-71.561.001-.001 22.422-62.478 84.507-106.849z" fill="#ffd6c0"/><path d="M661.371 519.396c1.851 23.816-9.867 45.726-37.992 54.238 38.219-4.471 55.251-29.916 55.251-59.092 0-16.412-11.202-65.5-71.729-90.214-7.755 14.1-11.132 23.506-11.132 23.506 20.567 5.677 62.535 32.099 65.602 71.562z" fill="#f5b9ab"/><path d="M554.116 725.832c-12.525 0-21.074-5.837-26.112-10.861-6.761-6.743-11.16-16.25-11.076-23.847-9.696-7.203-21.912-23.889-17.185-41.648-6.864-10.756-7.802-22.417-2.707-33.751 6.78-15.082 22.713-26.411 34.436-28.953-14.983-19.124-12.261-26.372-8.155-30.551 6.674-6.789 17.815-.054 30.715 7.746 9.991 6.041 21.315 12.887 31.077 13.136 12.567.323 25.693-1.206 37.961-4.423a.767.767 0 0 1 .046-.011c25.324-7.675 39.251-27.559 37.258-53.195-3.348-43.072-46.542-63.793-64.957-70.703a1 1 0 0 1-.59-1.274c.225-.628 23.24-63.281 84.866-107.324a.999.999 0 0 1 1.143-.014c19.401 13.166 47.416 36.145 70.706 70.856 22.266 33.185 34.52 68.678 36.422 105.492 2.57 49.73-18.76 93.735-61.683 127.257-35.29 27.561-84.901 47.218-136.242 54.007.323 4.143-1.626 9.251-5.352 13.907-6.692 8.36-17.47 13.638-28.831 14.118-.587.023-1.168.035-1.74.036zm-23.88-170.383c-2.146 0-3.997.654-5.492 2.174-3.619 3.682-5.829 10.33 9.326 29.205a1 1 0 0 1-.633 1.616c-11.357 1.69-27.962 13.386-34.577 28.102-4.862 10.815-3.893 21.955 2.803 32.218.157.242.203.54.125.818-4.844 17.197 7.355 33.483 16.737 40.233a1 1 0 0 1 .415.851c-.237 5.957 2.911 15.345 10.477 22.89 4.984 4.97 13.605 10.785 26.355 10.241 10.792-.456 21.018-5.454 27.354-13.369 3.689-4.609 5.488-9.596 4.812-13.342a.996.996 0 0 1 .856-1.169c51.349-6.621 101.013-26.205 136.256-53.729 42.386-33.103 63.451-76.526 60.917-125.577-1.883-36.448-14.024-71.6-36.086-104.481-22.881-34.101-50.362-56.795-69.592-69.923-56.618 40.728-80.157 97.185-83.23 105.049 19.262 7.386 61.928 28.569 65.309 72.064 2.072 26.652-12.398 47.315-38.707 55.275a.99.99 0 0 1-.097.025c-12.445 3.262-25.76 4.813-38.507 4.484-10.292-.262-21.857-7.254-32.061-13.423-8.902-5.386-16.919-10.232-22.76-10.232zm93.136 18.187h.01z" fill="#112c41"/><path d="M550.733 704.182a1 1 0 0 1-.351-1.937c.206-.077 5.194-1.909 17.458-3.767 3.579-.542 8.616-1.122 13.487-1.682 2.611-.301 5.182-.596 7.471-.88a1 1 0 0 1 .245 1.985 910.79 910.79 0 0 1-7.488.882c-4.854.558-9.873 1.136-13.416 1.673-12.015 1.821-17.01 3.646-17.059 3.664a1.025 1.025 0 0 1-.347.062zm-32.792-12.556-.072-.002a1 1 0 0 1-.927-1.068c.795-11.194 6.396-19.723 17.122-26.074a1 1 0 0 1 1.019 1.721c-10.119 5.992-15.4 14.004-16.146 24.495a.999.999 0 0 1-.996.928zm-17.116-41.315a1 1 0 0 1-.949-1.315c4.705-14.215 14.211-20.389 18.08-22.383a1 1 0 0 1 .916 1.778c-3.651 1.882-12.625 7.718-17.098 21.234-.139.419-.53.686-.949.686zm129.578 54.216c-10.799.002-25.931-33.492-34.677-67.096-8.532-32.783-10.526-62.023-4.85-71.106 1.055-1.688 2.371-2.702 3.911-3.012 4.128-.834 9.064 3.421 14.669 12.642a1 1 0 1 1-1.709 1.039c-4.905-8.07-9.484-12.342-12.564-11.721-.98.198-1.858.908-2.61 2.112-5.322 8.516-3.182 37.763 5.089 69.542 10.689 41.072 25.873 67.048 33.343 65.541 3.07-.619 5.056-6.376 5.449-15.796a.996.996 0 0 1 1.041-.957 1 1 0 0 1 .957 1.041c-.447 10.721-2.886 16.833-7.051 17.673a5.203 5.203 0 0 1-.998.098z" fill="#112c41"/><path d="M668.26 697.572a5.53 5.53 0 0 1-1.624-.263c-8.592-2.654-23.97-26.691-37.397-58.453-13.752-32.532-23.194-69.259-15.19-74.407 2.979-1.916 7.344.522 12.972 7.25a1.001 1.001 0 0 1-1.534 1.284c-4.671-5.583-8.446-8.081-10.355-6.851-5.491 3.532-.392 33.285 15.95 71.946 14.733 34.853 29.335 55.217 36.145 57.321.868.268 1.562.224 2.12-.135 1.934-1.244 2.854-8.784.751-20.306a1 1 0 0 1 1.967-.359c1.605 8.791 2.139 19.919-1.636 22.348a3.954 3.954 0 0 1-2.169.625z" fill="#112c41"/></svg></g><g transform="translate(2501.666666666667 416.6666666666667) rotate(-27.391687948893253 -253.33333333333348 253.33333333333334) scale(-1.68888888888889 1.6888888888888889)"><svg width="300" height="300" viewBox="0 0 300 300"><path d="M51.314 158.691c1.598 22.007 14.142 97.056 16.264 109.663a1.945 1.945 0 0 0 2.135 1.616c16.507-1.79 140.867-17.19 217.782-82.03a1.968 1.968 0 0 0 .448-2.456l-53.83-97.331a1.96 1.96 0 0 0-2.423-.879L52.562 156.731a1.952 1.952 0 0 0-1.248 1.96z" fill="#b2b0f7"/><path d="m52.558 156.729 2.456-.95c5.845 26.727 25.531 94.799 30.561 112.095-7.677 1.151-13.191 1.806-15.866 2.092a1.944 1.944 0 0 1-2.134-1.611c-2.117-12.603-14.665-87.651-16.263-109.664a1.961 1.961 0 0 1 1.246-1.962z" fill="#9797f7"/><path d="M69.501 270.98a2.954 2.954 0 0 1-2.908-2.461c-2.438-14.48-14.684-87.82-16.275-109.757a2.935 2.935 0 0 1 1.885-2.964L231.33 86.34a2.969 2.969 0 0 1 3.66 1.328l53.83 97.33a2.972 2.972 0 0 1-.68 3.704c-77.516 65.347-204.136 80.722-218.318 82.26a2.692 2.692 0 0 1-.321.018zM232.396 88.142a.974.974 0 0 0-.345.064L52.924 157.664a.946.946 0 0 0-.612.954c1.586 21.847 13.817 95.105 16.254 109.569a.94.94 0 0 0 1.04.787c14.121-1.531 140.184-16.836 217.245-81.801a.967.967 0 0 0 .219-1.206l-53.831-97.331a.964.964 0 0 0-.843-.494z" fill="#112c41"/><circle cx="252.068" cy="108.927" fill="#ffd6c0" r="28.57"/><path d="M278.757 115.809a26.846 26.846 0 0 1-1.273 3.792 10.52 10.52 0 0 1 1.804.867 28.264 28.264 0 0 0 1.327-3.852 14.952 14.952 0 0 0-1.858-.807z" fill="#ffd6c0"/><path d="M253.618 137.454c15.244-.826 27.048-13.459 27.02-28.563-3.678 10.659-13.512 18.556-25.463 19.213-15.755.852-29.226-11.233-30.078-26.988a31.14 31.14 0 0 1-.037-1.523 28.41 28.41 0 0 0-1.516 10.88c.852 15.757 14.319 27.833 30.074 26.981z" fill="#f5b9ab"/><path d="M252.082 138.497a29.668 29.668 0 0 1-20.654-8.396 1 1 0 1 1 1.396-1.432c5.508 5.364 13.067 8.192 20.737 7.787 15.179-.824 26.859-13.843 26.036-29.023-.823-15.179-13.863-26.895-29.023-26.036-14.325.776-25.777 12.607-26.071 26.934a1.012 1.012 0 0 1-1.021.979 1.001 1.001 0 0 1-.979-1.021c.315-15.366 12.599-28.057 27.964-28.89 16.264-.909 30.244 11.646 31.127 27.926.884 16.28-11.644 30.244-27.925 31.127-.529.03-1.059.044-1.587.045z" fill="#112c41"/><path d="M238.712 118.012a1 1 0 0 1-.927-.623c-1.841-4.531-1.854-9.49-.038-13.965 1.82-4.483 5.26-7.942 9.684-9.741 4.995-2.028 10.6-1.648 15.376 1.045a1 1 0 0 1-.982 1.742c-4.242-2.394-9.216-2.734-13.64-.934-3.921 1.593-6.969 4.661-8.585 8.641-1.619 3.988-1.605 8.413.039 12.458a1.002 1.002 0 0 1-.927 1.377z" fill="#112c41"/><circle cx="153.017" cy="151.069" fill="#ffd6c0" r="102.5"/><path d="M100.496 63.393c.296-.179.597-.34.894-.516l12.176 7.222c-45.64 27.794-61.043 84.796-33.791 129.838 27.301 45.124 87.076 61.157 132.91 33.426a98.414 98.414 0 0 0 12.74-9.157 102.822 102.822 0 0 1-18.808 14.582c-48.435 29.305-111.453 13.797-140.758-34.637S52.061 92.698 100.496 63.393z" fill="#f5b9ab"/><path d="M153.743 254.632c-8.298 0-16.653-1.006-24.918-3.039-26.846-6.606-49.511-23.271-63.822-46.925C35.46 155.84 51.15 92.08 99.978 62.537c48.825-29.542 112.586-13.854 142.131 34.976 29.542 48.829 13.853 112.588-34.976 142.131-16.37 9.905-34.734 14.988-53.39 14.988zm-87.029-50.999c14.035 23.196 36.263 39.539 62.589 46.018 26.328 6.479 53.6 2.316 76.796-11.718 47.884-28.972 63.271-91.5 34.3-139.385-28.973-47.885-91.499-63.271-139.385-34.3-47.885 28.972-63.272 91.5-34.3 139.385z" fill="#112c41"/><ellipse cx="134.131" cy="138.371" fill="#112c41" rx="6.828" ry="9.104" transform="matrix(.8556 -.5177 .5177 .8556 -52.259 89.4168)"/><ellipse cx="114.957" cy="114.55" fill="#112c41" rx="14.13" ry="9.336" transform="matrix(.7708 -.637 .637 .7708 -46.6279 99.4788)"/><ellipse cx="219.002" cy="136.986" fill="#ffa6e0" rx="12.121" ry="8.009" transform="matrix(.7966 -.6045 .6045 .7966 -38.2632 160.2611)"/><ellipse cx="130.722" cy="167.011" fill="#ffa6e0" rx="12.121" ry="8.009" transform="matrix(.9964 -.0851 .0851 .9964 -13.7458 11.7371)"/><g fill="#112c41"><ellipse cx="198.549" cy="84.637" rx="8.6" ry="13.016" transform="matrix(.0599 -.9982 .9982 .0599 102.1716 277.7607)"/><path d="M197.873 78.017c.354 0 .714.011 1.071.032 5.961.358 10.816 3.677 10.602 7.248-.197 3.287-4.826 5.96-10.319 5.96-.355 0-.716-.011-1.073-.032-5.961-.358-10.816-3.677-10.602-7.248.197-3.286 4.827-5.96 10.321-5.96m-.002-2c-6.641 0-12.047 3.365-12.316 7.841-.284 4.741 5.302 8.933 12.478 9.364.402.024.799.036 1.192.036 6.641 0 12.047-3.365 12.316-7.841.284-4.741-5.302-8.934-12.478-9.364a19.94 19.94 0 0 0-1.192-.036z"/><ellipse cx="199.286" cy="114.024" rx="6.828" ry="9.104" transform="matrix(.9838 -.1791 .1791 .9838 -17.1985 37.533)"/><path d="M155.752 147.901c5.765 11.086 16.345 17.212 25.193 13.976s12.981-14.742 10.233-26.931z"/><path d="M176.025 163.739c-7.885 0-16.185-5.808-21.161-15.377a.998.998 0 0 1 .544-1.4l35.428-12.955a1 1 0 0 1 1.319.72c2.909 12.91-1.66 24.724-10.866 28.09a15.288 15.288 0 0 1-5.264.922zm-18.843-15.296c5.725 10.184 15.433 15.42 23.42 12.494 7.991-2.922 12.031-13.183 9.835-24.655z"/></g><path d="M187.018 156.898c-4.278-2.949-10.716-2.995-16.218.334a17.747 17.747 0 0 0-3.698 2.969c4.494 2.561 9.388 3.305 13.843 1.676 2.562-.937 4.729-2.568 6.445-4.711a10.958 10.958 0 0 0-.372-.268z" fill="#ffa6e0"/><path d="M176.035 163.734c-3.104 0-6.328-.897-9.428-2.664a1 1 0 0 1-.23-1.557 18.726 18.726 0 0 1 3.906-3.137c5.65-3.421 12.604-3.541 17.302-.302h.001c.137.095.272.191.405.292a1 1 0 0 1 .18 1.424c-1.884 2.354-4.199 4.045-6.882 5.025-1.68.616-3.446.919-5.254.919zm-7.25-3.775c4.022 1.958 8.176 2.312 11.816.979 2.01-.734 3.788-1.934 5.298-3.569-4.045-2.429-9.81-2.166-14.581.72a16.874 16.874 0 0 0-2.533 1.87z" fill="#112c41"/><circle cx="45.993" cy="188.703" fill="#ffd6c0" r="30.5"/><circle cx="45.993" cy="188.703" fill="#ffd6c0" r="30.5"/><path d="M76.143 193.953c-1.088 2.116-2.798 4.327-4.427 6.197-11.088 12.688-30.728 13.521-43.409 2.439-8.322-7.269-11.137-17.588-9.371-27.723-6.366 12.187-4.442 27.103 6.376 36.561 12.674 11.089 31.949 9.797 43.037-2.891 3.812-4.357 6.876-9.254 7.794-14.583z" fill="#f5b9ab"/><path d="M46.046 220.196c-10.67.001-21.089-5.411-27.004-15.187-8.991-14.86-4.216-34.266 10.646-43.257 14.023-8.488 32.449-4.687 41.947 8.651a1 1 0 0 1-1.629 1.161c-8.895-12.49-26.149-16.05-39.283-8.101-6.742 4.079-11.492 10.539-13.375 18.19s-.674 15.578 3.405 22.32c8.421 13.917 26.594 18.39 40.512 9.969 6.893-4.171 12.218-11.906 13.897-20.189a1 1 0 0 1 1.961.399c-1.788 8.812-7.468 17.052-14.823 21.502a31.328 31.328 0 0 1-16.254 4.542z" fill="#112c41"/><path d="M29.384 188.744a1 1 0 0 1-.98-1.204c1.186-5.712 4.804-10.468 9.926-13.049 4.538-2.284 9.715-2.621 14.581-.938 4.856 1.676 8.819 5.159 11.161 9.806.248.493.05 1.095-.443 1.344a1.004 1.004 0 0 1-1.344-.443c-2.104-4.18-5.666-7.311-10.026-8.816-4.352-1.503-8.979-1.206-13.028.836-4.575 2.304-7.807 6.557-8.867 11.668-.1.472-.516.796-.98.796z" fill="#112c41"/><path d="M57.857 71.824a104.829 104.829 0 0 1 14.459-17.07 108.596 108.596 0 0 1 16.866-13.157c36.268-22.966 80.622-21.529 112.014.31 8.51 5.92 16.083 13.328 22.252 22.178 1.241 1.781-.222 3.261-1.904 3.01-16.94-2.53-46.735.669-67.103 6.08-13.589 3.61-27.174 9.636-40.631 16.932a219.756 219.756 0 0 0-16.296 9.764c-3.977-8.938-5.893-18.207-5.733-26.979-3.914 9.589-5.281 22.362-4.59 34.301-16.751 12.683-31.264 27.636-41.27 42.557-.827 1.234-2.623 1.437-3.084-.548-6.093-26.216-.595-54.33 15.02-77.378z" fill="#b2b0f7"/><path d="M45.616 150.203c3.799-5.72 12.304-15.984 17.164-21.488-5.369-23.413-1.317-57.375 22.255-79.853a97.703 97.703 0 0 1 15.094-11.771 97.066 97.066 0 0 1 12.217-6.576 107.892 107.892 0 0 0-23.165 11.082 108.766 108.766 0 0 0-16.869 13.156c-26.497 25.278-37.54 61.802-29.351 94.978.31 1.235 1.953 1.532 2.655.472z" fill="#9797f7"/><path d="M44.345 151.687c-.146 0-.29-.013-.435-.039-1.018-.188-1.764-.996-2.048-2.22-6.134-26.394-.605-54.884 15.166-78.164l.828.561-.828-.561a105.986 105.986 0 0 1 14.597-17.233 109.904 109.904 0 0 1 17.021-13.278c17.72-11.222 37.914-16.999 58.381-16.803 20.018.224 38.946 6.15 54.739 17.137 8.85 6.158 16.42 13.703 22.501 22.427.752 1.079.847 2.293.255 3.247-.618.996-1.847 1.516-3.127 1.324-17.59-2.628-47.724 1.017-66.698 6.058-12.322 3.272-25.541 8.782-40.412 16.844a219.754 219.754 0 0 0-16.222 9.721 1.004 1.004 0 0 1-1.465-.429c-3.168-7.12-5.089-14.592-5.653-21.895-2.362 8.192-3.358 18.356-2.758 28.753a.996.996 0 0 1-.395.854C71.2 120.554 56.624 135.582 46.75 150.307c-.583.869-1.493 1.38-2.405 1.38zM145.863 25.943c-19.695 0-39.083 5.692-56.146 16.498a107.852 107.852 0 0 0-16.711 13.036 104.027 104.027 0 0 0-14.321 16.907c-15.461 22.821-20.882 50.737-14.875 76.59.046.195.182.654.462.706.216.028.57-.119.818-.488 9.909-14.778 24.481-29.846 41.072-42.475-.675-12.79 1.028-25.229 4.691-34.204a1 1 0 0 1 1.926.396c-.151 8.351 1.636 17.134 5.178 25.474a221.997 221.997 0 0 1 15.375-9.156c15.012-8.139 28.374-13.705 40.852-17.02 19.171-5.093 49.665-8.768 67.507-6.103.483.077.943-.093 1.133-.399.219-.354-.029-.81-.196-1.05-5.945-8.528-13.348-15.906-22.003-21.928-15.463-10.758-34.004-16.56-53.618-16.779-.382-.003-.764-.005-1.144-.005zM273.626 145.54a14.774 14.774 0 0 1-13.486-8.763 1 1 0 1 1 1.828-.812 12.771 12.771 0 0 0 11.658 7.575c7.032 0 12.753-5.722 12.753-12.754s-5.721-12.753-12.753-12.753a12.706 12.706 0 0 0-8.725 3.451 1.001 1.001 0 0 1-1.369-1.459 14.7 14.7 0 0 1 10.094-3.992c8.135 0 14.753 6.618 14.753 14.753 0 8.136-6.618 14.754-14.753 14.754zM45.815 236.962c-8.135 0-14.753-6.618-14.753-14.754 0-8.135 6.618-14.753 14.753-14.753a1 1 0 1 1 0 2c-7.032 0-12.753 5.721-12.753 12.753s5.721 12.754 12.753 12.754 12.754-5.722 12.754-12.754c0-1.799-.366-3.537-1.09-5.168a.999.999 0 1 1 1.828-.81 14.654 14.654 0 0 1 1.262 5.979c0 8.135-6.618 14.753-14.754 14.753z" fill="#112c41"/></svg></g><g transform="translate(945.0 480.0) rotate(9.178516763504632 -205.0 176.66666666666669) scale(-1.5350056158742043 1.5328994938539409)"><svg width="267.1" height="230.5" viewBox="0 0 267.1 230.5"><circle cx="29.6" cy="84.8" fill="#ffd6c0" r="28.6"/><path d="M28 113.3c-15.2-.8-27-13.4-27-28.5 3.7 10.7 13.5 18.6 25.5 19.2 15.8.9 29.2-11.2 30.1-27v-1.5c1.2 3.4 1.7 7.1 1.5 10.9-.9 15.7-14.3 27.8-30.1 26.9z" fill="#f5b9ab"/><path d="M29.6 114.4H28c-7.9-.4-15.1-3.9-20.4-9.8-5.3-5.9-8-13.5-7.6-21.4s3.9-15.1 9.8-20.4 13.5-7.9 21.3-7.5c15.4.8 27.6 13.5 28 28.9 0 .6-.4 1-1 1s-1-.4-1-1C56.8 69.9 45.4 58 31 57.3c-7.4-.4-14.4 2.1-19.9 7S2.4 76 2 83.3c-.4 7.4 2.1 14.4 7 19.9s11.7 8.7 19 9.1c7.7.4 15.2-2.4 20.7-7.8.4-.4 1-.4 1.4 0s.4 1 0 1.4c-5.4 5.5-12.9 8.5-20.5 8.5z" fill="#112c41"/><path d="M42.9 93.9c-.1 0-.3 0-.4-.1-.5-.2-.7-.8-.5-1.3 3.4-8.3-.4-17.8-8.5-21.1-4.4-1.8-9.4-1.5-13.6.9-.5.3-1.1.1-1.4-.4s-.1-1.1.4-1.4c4.8-2.7 10.4-3.1 15.4-1 9.1 3.7 13.4 14.3 9.6 23.7-.2.5-.6.7-1 .7z" fill="#112c41"/><circle cx="128.1" cy="127" fill="#ffd6c0" r="102.5"/><path d="M181.1 39.3c-.3-.2-.6-.3-.9-.5L168.1 46c45.6 27.8 61 84.8 33.8 129.8-27.4 45.2-87.1 61.2-133 33.5-4.6-2.8-8.8-5.8-12.7-9.2 5.6 5.5 11.8 10.4 18.8 14.6 48.4 29.3 111.5 13.8 140.8-34.6s13.8-111.5-34.7-140.8z" fill="#f5b9ab"/><g fill="#112c41"><path d="M127.9 230.5c-18.7 0-37-5.1-53.4-15-23.7-14.3-40.3-37-46.9-63.8s-2.4-54.7 12-78.3c29.5-48.8 93.3-64.5 142.1-35s64.5 93.3 35 142.1c-14.3 23.7-37 40.3-63.8 46.9-8.4 2.1-16.7 3.1-25 3.1zm.3-205c-34.4 0-67.9 17.4-87 48.9-14 23.2-18.2 50.5-11.7 76.8s22.8 48.6 46 62.6 50.5 18.2 76.8 11.7 48.6-22.8 62.6-46l.9.5-.9-.5c29-47.9 13.6-110.4-34.3-139.4-16.4-9.9-34.5-14.6-52.4-14.6z"/><ellipse cx="147.5" cy="114.3" rx="9.1" ry="6.8" transform="matrix(.4684 -.8835 .8835 .4684 -22.5456 191.0647)"/><ellipse cx="168.8" cy="84.3" rx="9.3" ry="14.1" transform="matrix(.6371 -.7708 .7708 .6371 -3.7159 160.7051)"/><ellipse cx="82.8" cy="56.4" rx="13" ry="8.6" transform="matrix(.9982 -.05975936 .05975936 .9982 -3.2248 5.0518)"/><path d="M83.5 49.8c5.5 0 10.1 2.7 10.3 6 .1 2.2-1.6 3.8-2.6 4.6-2 1.5-4.9 2.5-8 2.7h-1.1c-5.5 0-10.1-2.7-10.3-6-.1-2.2 1.6-3.8 2.6-4.6 2-1.5 4.9-2.5 8-2.7zm0-2h-1.2c-7.2.4-12.8 4.6-12.5 9.4.3 4.5 5.7 7.8 12.3 7.8h1.2c7.2-.4 12.8-4.6 12.5-9.4-.2-4.4-5.6-7.8-12.3-7.8z"/><ellipse cx="82.4" cy="89.9" rx="9.1" ry="6.8" transform="matrix(.2957 -.9553 .9553 .2957 -27.8923 141.9943)"/><path d="M125.7 123.9c-5.8 11.1-16.3 17.2-25.2 14s-13-14.7-10.2-26.9c0-.1 35.4 12.9 35.4 12.9z"/><path d="M105.4 139.7c-1.8 0-3.6-.3-5.3-.9-9.2-3.4-13.8-15.2-10.9-28.1.1-.3.2-.5.5-.7.3-.1.6-.2.8-.1l35.4 13c.3.1.5.3.6.6s.1.6 0 .8c-4.9 9.6-13.2 15.4-21.1 15.4zM91 112.2c-2.2 11.5 1.8 21.7 9.8 24.7 8 2.9 17.7-2.3 23.4-12.5.1 0-33.2-12.2-33.2-12.2z"/></g><path d="M94.4 132.8c4.3-2.9 10.7-3 16.2.3 1.4.9 2.6 1.9 3.7 3-4.5 2.6-9.4 3.3-13.8 1.7-2.6-.9-4.7-2.6-6.4-4.7l.3-.3z" fill="#ffa6e0"/><path d="M105.4 139.7c-1.8 0-3.6-.3-5.3-.9-2.7-1-5-2.7-6.9-5-.2-.2-.2-.5-.2-.8s.2-.5.4-.7c.1-.1.3-.2.4-.3 4.7-3.2 11.7-3.1 17.3.3 1.5.9 2.8 1.9 3.9 3.1.2.2.3.5.3.8s-.2.6-.5.7c-3 1.9-6.3 2.8-9.4 2.8zm-9.8-6.4c1.5 1.6 3.3 2.8 5.3 3.6 3.6 1.3 7.8 1 11.8-1-.8-.7-1.6-1.3-2.5-1.9-4.8-2.9-10.6-3.1-14.6-.7z" fill="#112c41"/><circle cx="235.6" cy="164.6" fill="#ffd6c0" transform="matrix(.1602 -.9871 .9871 .1602 35.404 370.8364)" r="30.5"/><path d="M205.5 169.9c1.1 2.1 2.8 4.3 4.4 6.2 11.1 12.7 30.7 13.5 43.4 2.4 8.3-7.3 11.1-17.6 9.4-27.7 6.4 12.2 4.4 27.1-6.4 36.6-12.7 11.1-31.9 9.8-43-2.9-3.8-4.4-6.9-9.3-7.8-14.6z" fill="#f5b9ab"/><path d="M235.6 196.1c-5.7 0-11.3-1.5-16.3-4.6-7.4-4.5-13-12.7-14.8-21.5-.1-.5.2-1.1.8-1.2.5-.1 1.1.2 1.2.8 1.7 8.3 7 16 13.9 20.2 6.7 4.1 14.7 5.3 22.3 3.4 7.7-1.9 14.1-6.6 18.2-13.4 4.1-6.7 5.3-14.7 3.4-22.3-1.9-7.7-6.6-14.1-13.4-18.2-13.1-7.9-30.4-4.4-39.3 8.1-.3.4-.9.6-1.4.2-.4-.3-.6-.9-.2-1.4 9.5-13.3 27.9-17.1 41.9-8.6 7.2 4.4 12.3 11.3 14.3 19.4 2 8.2.7 16.6-3.6 23.8-4.4 7.2-11.3 12.3-19.4 14.3-2.6.7-5.1 1-7.6 1z" fill="#112c41"/><path d="M252.2 164.7c-.5 0-.9-.3-1-.8-1.1-5.1-4.3-9.4-8.9-11.7-4.1-2-8.7-2.3-13-.8-4.4 1.5-7.9 4.6-10 8.8-.2.5-.8.7-1.3.4-.5-.2-.7-.9-.4-1.3 2.3-4.6 6.3-8.1 11.2-9.8s10-1.3 14.6.9c5.1 2.6 8.7 7.3 9.9 13 .1.5-.2 1.1-.8 1.2-.1 0-.2.1-.3.1z" fill="#112c41"/><path d="M236.6 124.2C221.1 102 197.2 81 167.2 65.5c-12.8-6.6-25.7-11.7-38.5-15.4 3.2-9.2 8.1-17.3 14.2-23.6-.1.1-.3.1-.4.2-9.2 4.4-18.1 11.3-25.6 20.3-2.5-.6-4.9-1-7.4-1.5-18-3.2-35.3-3.5-50.5-.9-1.6.3-2.8-1.5-1.9-2.8 6-9 13.5-16.6 21.9-22.8 30.9-22.5 75.3-24.8 112-2.6 6.2 3.8 12 8.1 17.1 12.8 27 24.7 38.8 61 31.3 94.4-.4 1.3-2.1 1.7-2.8.6z" fill="#fcaa51"/><path d="M236.6 124.2c-3.9-5.6-8.4-11.2-13.4-16.6 6.5-29.7-4.1-61.9-28.1-83.9-4.6-4.2-9.7-8.1-15.3-11.5-4-2.4-8.2-4.5-12.3-6.3 8 2.5 15.8 6 23.4 10.6 6.2 3.8 12 8.1 17.1 12.8 27 24.7 38.8 61 31.3 94.4-.3 1.2-2 1.6-2.7.5z" fill="#ff9522"/><path d="M237.8 125.7c-.9 0-1.8-.5-2.4-1.3-15.9-22.7-40.3-43.3-68.7-57.9-12.5-6.4-25.4-11.6-38.3-15.3-.3-.1-.5-.3-.6-.5s-.1-.5-.1-.8c2.6-7.4 6.3-14.2 10.9-20-7.7 4.4-14.9 10.5-21.1 17.9-.2.3-.6.4-1 .3-20.2-4.5-40.1-5.3-57.4-2.4-1.3.2-2.5-.3-3.2-1.3-.6-.9-.5-2.2.2-3.3 5.9-8.8 13.3-16.5 22-22.9C93.8 7 112.6.7 132.6.1c20.5-.6 40.8 4.8 58.7 15.6 6.2 3.7 12 8.1 17.3 12.9 26.7 24.5 38.9 60.8 31.7 94.8-.3 1.2-1 2.1-2 2.3h-.5zM130 49.4c12.8 3.8 25.4 8.9 37.7 15.2 28.7 14.8 53.4 35.6 69.4 58.6.3.4.6.5.8.5.3-.1.4-.5.4-.7 7-33.3-4.9-68.9-31.1-92.9-5.2-4.7-10.9-9-17-12.7-35.5-21.6-79-20.6-110.8 2.5-8.5 6.2-15.8 13.7-21.6 22.4-.2.2-.4.7-.2 1.1.2.3.7.5 1.1.4 17.4-3 37.3-2.2 57.6 2.3 7.5-8.9 16.5-15.9 26.1-20.3.4-.2 1-.1 1.2.3s.2.9-.1 1.3c-5.7 5.8-10.4 13.5-13.5 22z" fill="#112c41"/><ellipse cx="150.5" cy="144.4" fill="#ffa9dc" rx="8" ry="12.1" transform="matrix(.07130589 -.9975 .9975 .07130589 -4.2558 284.2049)"/><ellipse cx="63" cy="111.3" fill="#ffa9dc" rx="8" ry="12.1" transform="matrix(.5934 -.8049 .8049 .5934 -63.9626 95.9174)"/></svg></g><g transform="translate(525.0 476.6666666666667) rotate(0.0 213.33333333333337 179.16666666666666) scale(1.6626658769003755 1.6724463300304462)"><svg width="256.616" height="214.257" viewBox="0 0 256.616 214.257"><g><g><circle style="fill:#ffd6c0" cx="229.178" cy="94.438" r="26.43"/><path style="fill:#f5b9ab" d="M226.392 120.72c13.975 1.483 26.667-8.232 28.884-22.11-6.897 12.866-22.919 17.704-35.784 10.806a26.431 26.431 0 0 1-13.795-26.083c.053-.47.117-.935.191-1.396-6.896 12.876-2.048 28.905 10.829 35.801a26.43 26.43 0 0 0 9.675 2.982z"/><path style="fill:#112c41" d="M229.191 121.871c-1.637 0-3.295-.147-4.961-.453a27.343 27.343 0 0 1-17.082-10.637 1 1 0 0 1 1.606-1.192 25.347 25.347 0 0 0 15.836 9.861c13.795 2.531 27.073-6.634 29.603-20.427 1.226-6.682-.224-13.441-4.082-19.032-3.858-5.591-9.663-9.345-16.344-10.571-6.681-1.225-13.441.224-19.032 4.082-5.591 3.858-9.345 9.663-10.571 16.344a1 1 0 0 1-1.967-.361c2.729-14.878 17.054-24.762 31.931-22.033 14.878 2.729 24.762 17.053 22.033 31.931-2.423 13.213-13.991 22.487-26.97 22.488z"/><path style="fill:#112c41" d="M215.789 100.855c-.45 0-.859-.306-.971-.763-2.2-9.006 3.336-18.125 12.341-20.329 4.95-1.127 10.038.052 13.975 3.234a1 1 0 0 1-1.257 1.555 14.326 14.326 0 0 0-12.258-2.843c-7.918 1.938-12.796 9.973-10.858 17.908a1 1 0 0 1-.972 1.238z"/><circle style="fill:#ffd6c0" cx="132.998" cy="118.434" r="94.822"/><path style="fill:#f5b9ab" d="M97.457 30.525c.296-.12.595-.223.892-.34l10.053 8.39c-45.773 18.661-68.237 68.452-49.983 113.602 18.287 45.237 70.517 68.682 116.461 50.107a90.942 90.942 0 0 0 12.987-6.487c-42.725 30.291-101.917 20.212-132.209-22.514S35.446 71.366 78.172 41.075a94.836 94.836 0 0 1 19.285-10.55z"/><path style="fill:#112c41" d="M132.998 214.257c-52.837 0-95.822-42.986-95.822-95.822s42.986-95.823 95.822-95.823 95.822 42.986 95.822 95.823-42.985 95.822-95.822 95.822zm0-189.645c-51.734 0-93.822 42.089-93.822 93.823s42.088 93.822 93.822 93.822 93.822-42.088 93.822-93.822-42.088-93.823-93.822-93.823z"/><ellipse transform="matrix(0.9271 -0.3748 0.3748 0.9271 -30.4259 51.4807)" style="fill:#112c41" cx="117.129" cy="103.957" rx="6.317" ry="8.422"/><ellipse transform="matrix(0.8625 -0.5061 0.5061 0.8625 -25.9911 63.1155)" style="fill:#112c41" cx="103.128" cy="79.378" rx="13.072" ry="8.637"/><ellipse transform="matrix(0.8827 -0.47 0.47 0.8827 -29.9551 104.5841)" style="fill:#ffa9dc" cx="194.497" cy="112.29" rx="11.213" ry="7.409"/><ellipse transform="matrix(0.0746 -0.9972 0.9972 0.0746 -27.593 229.0689)" style="fill:#ffa9dc" cx="109.626" cy="129.402" rx="7.409" ry="11.213"/><path style="fill:#112c41" d="M185.613 56.611a17.809 17.809 0 0 0-3.857-.434v.92h-.001v-.92h.001v-.005l-.001-.002c-4.874 0-8.865 2.155-9.628 5.573-.958 4.291 3.529 8.942 10.016 10.396 1.266.286 2.56.432 3.859.435 4.874 0 8.865-2.156 9.628-5.573.958-4.287-3.527-8.94-10.017-10.39z"/><ellipse transform="matrix(0.9998 -0.0201 0.0201 0.9998 -1.8026 3.6481)" style="fill:#112c41" cx="180.222" cy="91.32" rx="6.317" ry="8.422"/><g><path style="fill:#112c41" d="M136.182 115.814c3.632 10.973 12.396 18.127 20.951 16.475s14.026-11.552 13.313-23.089l-34.264 6.614z"/><path style="fill:#112c41" d="M154.66 133.526c-8.066 0-15.95-6.892-19.427-17.397a1 1 0 0 1 .76-1.296l34.264-6.614a.998.998 0 0 1 1.187.92c.758 12.256-5.181 22.405-14.121 24.132-.886.171-1.776.255-2.663.255zm-17.151-16.949c3.728 10.059 11.765 16.213 19.434 14.73 7.671-1.481 12.839-10.183 12.555-20.905l-31.989 6.175z"/></g><g><path style="fill:#ffa6e0" d="M163.411 128.636c-3.472-3.323-9.343-4.313-14.861-2.083a16.366 16.366 0 0 0-3.814 2.167c3.727 3.001 8.087 4.402 12.396 3.57a13.589 13.589 0 0 0 6.579-3.353 7.74 7.74 0 0 0-.3-.301z"/><path style="fill:#112c41" d="M154.677 133.523c-3.617 0-7.288-1.384-10.567-4.025a1 1 0 0 1 .021-1.574 17.38 17.38 0 0 1 4.047-2.299c5.692-2.3 12.092-1.38 15.925 2.289.112.107.222.217.329.328a1.002 1.002 0 0 1-.04 1.428 14.576 14.576 0 0 1-7.064 3.6c-.877.169-1.763.253-2.651.253zm-8.233-4.773c3.344 2.321 7.029 3.229 10.499 2.558a12.572 12.572 0 0 0 5.264-2.405c-3.32-2.748-8.557-3.332-13.282-1.422-.865.347-1.695.772-2.481 1.269z"/></g><circle style="fill:#ffd6c0" cx="29.221" cy="136.942" r="28.215"/><path style="fill:#f5b9ab" d="M55.983 146.177a30.737 30.737 0 0 1-4.957 5.008c-11.995 9.955-30.055 7.822-40.004-4.163-6.53-7.868-7.58-17.706-4.474-26.704-7.61 10.193-8.048 24.099.438 34.33 9.944 11.993 27.727 13.654 39.719 3.71l.012-.01c4.123-3.419 7.642-7.439 9.266-12.171z"/><path style="fill:#112c41" d="M29.326 166.132c-10.83.001-21.237-6.036-26.284-16.223-7.151-14.436-1.224-31.997 13.212-39.147 6.993-3.464 14.916-3.997 22.31-1.502 7.394 2.495 13.374 7.721 16.837 14.714a1 1 0 1 1-1.792.888c-6.661-13.447-23.021-18.969-36.468-12.307-6.514 3.227-11.382 8.797-13.707 15.685-2.324 6.888-1.828 14.269 1.399 20.783 6.279 12.677 21.472 18.453 34.587 13.152 7.162-3.076 12.866-9.038 15.628-16.349a1 1 0 1 1 1.871.707c-2.954 7.817-9.052 14.191-16.73 17.488a28.979 28.979 0 0 1-10.863 2.111z"/><path style="fill:#112c41" d="M45.636 136.003c-.429 0-.826-.279-.957-.711-2.532-8.382-11.412-13.147-19.796-10.618a15.353 15.353 0 0 0-9.754 9.296 1 1 0 0 1-1.873-.701 17.347 17.347 0 0 1 11.034-10.505c9.455-2.85 19.453 2.512 22.304 11.95a.999.999 0 0 1-.958 1.289z"/><g><path style="fill:#fcaa51" d="M34.301 99.915c17.408-18.054 42.378-33.667 72.028-43.38a197.413 197.413 0 0 1 37.444-8.404 59.212 59.212 0 0 0-9.474-23.63c.126.093.261.174.377.266a70.177 70.177 0 0 1 20.417 22.348c2.348-.141 4.67-.221 6.977-.266 16.948-.286 32.718 2.02 46.28 6.661a1.722 1.722 0 0 0 2.144-2.323 82.874 82.874 0 0 0-16.639-24.027C168.903 2.078 128.782-6.586 91.963 8.299a100.647 100.647 0 0 0-17.535 9.175C46.12 36.083 30.01 67.492 31.96 99.043a1.367 1.367 0 0 0 2.341.872z"/><path style="fill:#ff9522" d="M34.301 99.915A144.264 144.264 0 0 1 48.94 86.72c-1.538-28.066 12.859-55.95 38.044-72.497a90.74 90.74 0 0 1 27.9-12.168 100.935 100.935 0 0 0-40.455 15.419C46.12 36.083 30.01 67.492 31.96 99.043a1.367 1.367 0 0 0 2.341.872z"/><path style="fill:#112c41" d="M33.311 101.166a2.35 2.35 0 0 1-.829-.149c-.925-.349-1.489-1.233-1.548-2.426C29.391 66.46 45.847 35.058 73.881 16.64a101.678 101.678 0 0 1 17.708-9.268c18.001-7.278 37.352-9.218 55.962-5.61 18.196 3.528 34.452 12.068 47.012 24.699a82.984 82.984 0 0 1 16.772 24.165c.519 1.135.399 2.287-.319 3.08-.748.826-1.982 1.103-3.145.707-15.353-5.231-33.583-7.409-52.719-6.297a1.002 1.002 0 0 1-.924-.499c-4.194-7.281-9.773-13.814-16.302-19.128a60.588 60.588 0 0 1 6.829 19.483.998.998 0 0 1-.864 1.156 196.674 196.674 0 0 0-37.249 8.358C78.53 66.69 53.218 81.877 35.366 100.249c-.577.594-1.326.917-2.055.917zm41.668-82.854C47.534 36.343 31.422 67.067 32.932 98.494c.013.273.088.588.256.652.166.063.489-.029.744-.291 18.073-18.6 43.674-33.967 72.086-43.271a198.761 198.761 0 0 1 36.584-8.311 58.52 58.52 0 0 0-9.134-22.204 1 1 0 0 1 1.396-1.385 71.513 71.513 0 0 1 20.787 22.398c19.167-1.044 37.435 1.178 52.867 6.436.459.157.849.03 1.017-.156.229-.253.088-.677-.017-.906a81.02 81.02 0 0 0-16.37-23.585C180.869 15.525 164.971 7.176 147.17 3.725 128.941.19 109.981 2.093 92.338 9.226a99.647 99.647 0 0 0-17.359 9.086z"/></g></g></g></svg></g><g transform="translate(1420.0 186.66666666666669) rotate(61.89356417604023 85.83333333333337 125.83333333333334) scale(1.707922105486576 1.7066427962720594)"><svg width="100.512" height="147.463" viewBox="0 0 100.512 147.463"><path d="m3.901 57.428 13.985-22.303c1.463-2.333 4.74-2.644 6.615-.628l43.213 46.454c1.265 1.36-.072 3.521-1.854 2.996L7.418 66.715c-3.959-1.167-5.709-5.79-3.517-9.287z" fill="#ffe993"/><path d="M66.394 85.026c-.27 0-.545-.039-.817-.119L7.135 67.674A7.173 7.173 0 0 1 2.418 63.3a7.173 7.173 0 0 1 .636-6.403l13.985-22.303a5.146 5.146 0 0 1 3.905-2.409 5.133 5.133 0 0 1 4.289 1.632l43.213 46.454a2.797 2.797 0 0 1 .333 3.412 2.792 2.792 0 0 1-2.385 1.343zM4.748 57.959a5.191 5.191 0 0 0-.46 4.632 5.19 5.19 0 0 0 3.413 3.165l58.442 17.232c.56.165.859-.231.937-.358.078-.125.301-.569-.098-.998L23.768 35.178a3.16 3.16 0 0 0-2.635-1.002 3.167 3.167 0 0 0-2.4 1.48z" fill="#112c41"/><path d="m72.45 6.472 22.524-5.37c2.356-.562 4.603 1.264 4.537 3.684l-1.53 55.786c-.045 1.633-2.216 2.165-3.01.736l-26.04-46.842c-1.764-3.172-.012-7.152 3.519-7.994z" fill="#ffe993"/><path d="M96.359 63.138a2.575 2.575 0 0 1-2.262-1.344l-26.04-46.841a6.431 6.431 0 0 1-.268-5.76A6.428 6.428 0 0 1 72.218 5.5L94.742.13a4.665 4.665 0 0 1 4.038.919 4.649 4.649 0 0 1 1.73 3.765L98.98 60.6a2.58 2.58 0 0 1-1.985 2.461 2.737 2.737 0 0 1-.636.077zm-.522-61.137c-.209 0-.42.024-.63.074l-22.524 5.37a4.444 4.444 0 0 0-3.062 2.554 4.443 4.443 0 0 0 .185 3.981l26.04 46.842a.572.572 0 0 0 .674.295c.135-.033.451-.154.462-.572l1.53-55.786a2.664 2.664 0 0 0-.991-2.157 2.67 2.67 0 0 0-1.684-.601zM72.45 6.473h.01z" fill="#112c41"/><path d="m4.248 141.738-3.211-22.932a3.684 3.684 0 0 1 4.098-4.167l55.39 6.81c1.622.199 1.945 2.411.448 3.066L11.873 146c-3.326 1.455-7.122-.666-7.625-4.262z" fill="#ffe993"/><path d="M9.671 147.466a6.455 6.455 0 0 1-3.157-.83 6.43 6.43 0 0 1-3.257-4.759L.046 118.945a4.649 4.649 0 0 1 1.299-3.934 4.656 4.656 0 0 1 3.911-1.364l55.39 6.811c1.181.145 2.089 1.033 2.261 2.21s-.445 2.288-1.535 2.764l-49.098 21.484a6.484 6.484 0 0 1-2.603.55zM5.238 141.6a4.445 4.445 0 0 0 2.252 3.29 4.44 4.44 0 0 0 3.982.194L60.571 123.6c.382-.167.377-.505.357-.643s-.111-.464-.526-.515l-55.39-6.811a2.661 2.661 0 0 0-2.241.782 2.665 2.665 0 0 0-.744 2.254z" fill="#112c41"/></svg></g></svg>