<svg xmlns="http://www.w3.org/2000/svg" viewBox="0 0 1800 1800" width="1800" height="1800"><g transform="translate(797.0 1191.0) rotate(0.0 164.0 22.5) scale(0.935648492835728 0.9375781315109593)"><svg width="350.559" height="47.996" viewBox="0 0 350.559 47.996"><ellipse cx="175.279" cy="23.998" fill="#cbc8ff" rx="175.279" ry="23.998"/></svg></g><g transform="translate(389.0 683.0) rotate(0.0 493.5 274.0) scale(0.9993155650233477 0.9998631574145873)"><svg width="987.676" height="548.075" viewBox="0 0 987.676 548.075"><ellipse cx="226.41" cy="58.616" fill="#ffd6c0" rx="42.263" ry="24.702" transform="matrix(.68204942 -.73130609 .73130609 .68204942 29.12 184.211)"/><path d="M209.694 94.834c-5.147 0-9.537-1.544-12.791-4.579-5.096-4.753-6.738-12.536-4.625-21.917 2.071-9.19 7.518-18.868 15.336-27.251 16.271-17.445 37.94-23.775 48.303-14.108 5.096 4.753 6.738 12.536 4.625 21.917-2.071 9.19-7.518 18.868-15.336 27.251s-17.095 14.49-26.118 17.196c-3.327.998-6.482 1.492-9.394 1.492zm33.384-70.446c-10.201 0-23.268 6.554-34.001 18.062-7.581 8.128-12.854 17.477-14.848 26.327-1.951 8.659-.517 15.767 4.037 20.014 4.557 4.248 11.746 5.183 20.247 2.634 8.689-2.605 17.649-8.516 25.229-16.644 7.581-8.128 12.854-17.477 14.848-26.327 1.951-8.659.517-15.767-4.037-20.014-2.947-2.749-6.928-4.052-11.476-4.052z" fill="#112c41"/><path d="M103.972 44.97s3.337 19.828 6.856 37.85c3.919 20.075 14.916 29.365 28.276 3.589 16.117-31.097 4.805-81.4-29.427-72.271-30 8-34 45-34 64 0 162.432 214.19 444.307 507.307 355.68 0 0-31.737-171.26-96.306-202.935-43.001 58.256-262.783-8.453-277.001-157.744-2-21-10-53-10-53" fill="#ffd6c0"/><path d="M472.179 451.671a353.884 353.884 0 0 1-72.927-7.573c-53.357-11.212-104.179-34.541-151.054-69.339-51.337-38.11-95.345-88.114-127.267-144.606C91.103 177.367 74.676 123.38 74.676 78.136c0-20.803 4.514-56.905 34.742-64.966 11.297-3.012 20.976.013 27.989 8.748 12.146 15.125 13.306 44.261 2.583 64.95-5.991 11.56-11.905 17.011-17.58 16.194-5.656-.813-10.235-8.121-12.564-20.051-3.48-17.828-6.827-37.677-6.86-37.876a1 1 0 1 1 1.972-.332c.033.198 3.375 20.022 6.851 37.824 2.124 10.882 6.193 17.781 10.886 18.455 4.66.671 10.04-4.56 15.521-15.135 10.392-20.05 9.33-48.212-2.367-62.777-6.482-8.071-15.444-10.86-25.914-8.068-28.938 7.717-33.258 42.805-33.258 63.034 0 82.891 59.326 210.844 172.714 295.017 69.941 51.921 184.347 104.403 332.441 59.965-1.231-6.356-9.191-46.073-23.741-88.59-20.656-60.358-45.233-99.185-71.117-112.382-10.513 13.572-31.331 20.635-57.804 20.637-16.051 0-34.176-2.595-53.354-7.913-77.091-21.374-158.668-82.735-167.135-171.64-1.971-20.683-9.896-52.533-9.975-52.852a.999.999 0 1 1 1.94-.485c.081.321 8.042 32.314 10.025 53.148 8.377 87.958 89.248 148.711 165.679 169.902 50.521 14.006 93.509 9.039 109.522-12.657a1 1 0 0 1 1.245-.304c27.024 13.258 51.543 51.586 72.872 113.92 15.846 46.308 23.897 89.302 23.977 89.731a1 1 0 0 1-.694 1.139c-37.232 11.258-74.393 16.897-111.094 16.897z" fill="#112c41"/><rect fill="#ff90d8" height="395.559" rx="13.109" width="313.902" x="1" y="74.993"/><path d="M301.794 471.553H14.108C6.329 471.553 0 465.224 0 457.444V88.102c0-7.779 6.329-14.109 14.108-14.109h287.686c7.779 0 14.108 6.329 14.108 14.109v369.342c0 7.78-6.329 14.109-14.108 14.109zM14.108 75.993C7.431 75.993 2 81.425 2 88.102v369.342c0 6.677 5.432 12.109 12.108 12.109h287.686c6.677 0 12.108-5.432 12.108-12.109V88.102c0-6.677-5.432-12.109-12.108-12.109z" fill="#112c41"/><path d="M248.081 84.538h-30.742V70.567a4.034 4.034 0 0 0-4.034-4.034H101.538a4.034 4.034 0 0 0-4.034 4.034v13.971H67.822a5.314 5.314 0 0 0-5.314 5.314v19.066a5.314 5.314 0 0 0 5.314 5.314h180.259a5.314 5.314 0 0 0 5.314-5.314V89.852a5.314 5.314 0 0 0-5.314-5.314z" fill="#badcee"/><path d="M248.08 115.231H67.822a6.322 6.322 0 0 1-6.314-6.314V89.851a6.321 6.321 0 0 1 6.314-6.314h28.682V70.566a5.04 5.04 0 0 1 5.034-5.034h111.766a5.04 5.04 0 0 1 5.034 5.034v12.971h29.742a6.321 6.321 0 0 1 6.314 6.314v19.066a6.322 6.322 0 0 1-6.314 6.314zM67.822 85.537a4.319 4.319 0 0 0-4.314 4.314v19.066a4.32 4.32 0 0 0 4.314 4.314H248.08a4.319 4.319 0 0 0 4.314-4.314V89.851a4.32 4.32 0 0 0-4.314-4.314h-30.742a1 1 0 0 1-1-1V70.566a3.037 3.037 0 0 0-3.034-3.034H101.538a3.037 3.037 0 0 0-3.034 3.034v13.971a1 1 0 0 1-1 1z" fill="#112c41"/><path d="M53.425 445.101H287.33V101.505H29.633v322.571z" fill="#fff"/><path d="M287.33 446.101H53.425a.998.998 0 0 1-.662-.251l-23.792-21.025a1 1 0 0 1-.338-.749v-322.57a1 1 0 0 1 1-1H287.33a1 1 0 0 1 1 1v343.595a1 1 0 0 1-1 1zm-233.526-2H286.33V102.506H30.633v321.119z" fill="#112c41"/><path d="m52.964 445.101-2.121-23.33-21.21 2.121z" fill="#dedffe"/><path d="M52.964 446.101c-.243 0-.484-.089-.673-.26L28.96 424.632a1 1 0 0 1 .574-1.735l21.21-2.121a.999.999 0 0 1 1.095.904l2.121 23.331a1.001 1.001 0 0 1-.996 1.091zm-20.996-21.438 19.768 17.97-1.797-19.767zm200.344-292.692H86.563c-3.158 0-5.633-1.716-5.633-3.906v-26.301a1 1 0 1 1 2 0v26.301c0 .899 1.554 1.906 3.633 1.906h145.749c2.079 0 3.633-1.006 3.633-1.906v-26.301a1 1 0 1 1 2 0v26.301c0 2.19-2.475 3.906-5.633 3.906z" fill="#112c41"/><path d="M155.419 320.809a7 7 0 0 1-5.209-2.325l-67.46-75.17a7 7 0 1 1 10.42-9.351l60.938 67.903 67.608-120.162a7 7 0 0 1 12.201 6.865l-72.396 128.673a6.999 6.999 0 0 1-6.102 3.567z" fill="#7bdaac"/><path d="M158.853 21.542c-1.795-13.984 30.477-28.828 46.373 3.549 9.691 19.739 9.547 40.439.767 56.359-7.773 14.094-25.261 15.69-30.28 5.485-9.294-18.901-14.771-49.122-16.86-65.393z" fill="#ffd6c0"/><path d="M187.25 94.5c-.143 0-.285-.002-.428-.005-5.47-.128-9.846-2.723-12.007-7.118-10.971-22.311-16.048-58.649-16.955-65.707-.83-6.473 5.061-13.313 13.703-15.911 10.651-3.202 25.322.079 34.56 18.893 9.679 19.714 9.95 40.593.746 57.283-4.232 7.673-11.896 12.566-19.619 12.566zm-27.405-73.085c.899 7.003 5.935 43.053 16.766 65.079 1.821 3.703 5.561 5.89 10.259 6.001 7.125.176 14.294-4.358 18.248-11.527 8.886-16.11 8.598-36.316-.789-55.436-8.687-17.691-22.324-20.824-32.188-17.859-7.718 2.32-13.003 8.227-12.295 13.741z" fill="#112c41"/><path d="M119.704 12.742c3.017-10.423 31.682-23.114 52.236 7.214 9.261 13.664 12.585 45.762 2.243 62.878-12.711 21.037-32.906 10.533-33.963-.191" fill="#ffd6c0"/><path d="M156.058 95.955c-1.589 0-2.93-.207-3.91-.429-6.801-1.539-12.355-7.036-12.923-12.785a1 1 0 1 1 1.99-.196c.486 4.931 5.376 9.673 11.374 11.031 7.793 1.764 15.35-2.34 20.738-11.259 9.894-16.374 7.003-48.198-2.216-61.8C158.546 1.975 144.22 1.173 136.796 2.349c-8.878 1.405-14.938 6.547-16.132 10.671a1 1 0 1 1-1.922-.557c1.606-5.547 9.233-10.745 17.741-12.091 13.422-2.124 26.652 4.809 36.284 19.022 9.737 14.367 12.697 46.702 2.271 63.956-6.339 10.492-13.913 12.604-18.98 12.604z" fill="#112c41"/><path d="M146.36 63.607c-2.05 20.617-14.058 34.174-27.584 31.77-3.743-2.94-7.037-4.581-9.574-10.51-4.806-11.232-.541-26.602-7.28-44.264-9.426-24.702 13.872-17.736 26.068-16.523s20.421 18.909 18.37 39.526z" fill="#ffd6c0"/><path d="M123.301 96.07c-1.371 0-2.688-.169-3.917-.472-8.145-2.016-13.443-9.65-13.5-19.45-.144-24.923-5.741-36.133-5.798-36.243a1 1 0 1 1 1.78-.912c.24.468 5.872 11.749 6.019 37.144.051 8.855 4.754 15.732 11.98 17.52 5.82 1.44 13.958-.621 19.357-10.72 10.044-18.786 9.541-43.761-1.171-58.094-4.682-6.264-13.334-13.096-27.95-10.076-14.688 3.035-24.779 14.775-29.993 34.893a1.001 1.001 0 0 1-1.936-.502c5.421-20.918 16.027-33.148 31.524-36.35 12.208-2.523 22.848 1.326 29.957 10.837 11.146 14.914 11.718 40.809 1.332 60.234-4.826 9.027-11.747 12.191-17.685 12.191z" fill="#112c41"/><path d="M960.467 238.404c-31.917-50.15-103.434-116.489-234.251-128.447-159.603-14.59-240.634 66.324-252.665 91.747-5.265 11.125-.94 23.526 9.758 39.111 11.651 16.975 30.431 36.899 38.653 44.896 3.382 35.806 18.109 83.342 68.047 119.641 14.763 10.731 43.408 23.062 67.97 29.033 66.002 16.035 132.023-4.599 176.979-48.876a188.43 188.43 0 0 0 33.248-44.103c39.979-1.59 77.877-8.498 92.532-12.958 23.475-7.144 29.78-20.837 23.845-40.322-1.918-6.295-8.883-25.787-24.116-49.721z" fill="#ffa9dc"/><path d="M712.949 108.953c121.336 15.458 188.24 81.82 218.615 132.565 15.065 25.16 21.896 45.667 23.775 52.298 5.129 18.087.776 31.479-16.4 39.649 9.353-1.753 16.878-3.523 21.797-5.017 23.478-7.143 29.783-20.834 23.848-40.327-1.923-6.297-8.887-25.779-24.114-49.722-31.924-50.149-103.437-116.487-234.258-128.447-4.482-.405-8.9-.741-13.263-1z" fill="#ff90d8"/><path d="M521.955 285.705c-2.492-26.345 1.155-46.338 1.431-50.828" fill="#ffa9dc"/><g fill="#112c41"><path d="M521.954 286.705a1 1 0 0 1-.994-.906c-2.059-21.754.02-38.95 1.018-47.213.203-1.676.362-2.999.41-3.771a1 1 0 0 1 1.997.122c-.051.83-.206 2.113-.42 3.888-.99 8.194-3.051 25.245-1.014 46.785a1 1 0 0 1-.996 1.094z"/><path d="M703.092 440.816c-15.055 0-30.26-1.794-45.351-5.46-24.513-5.958-53.245-18.237-68.321-29.196-50.481-36.694-65.085-85.43-68.42-119.989-9.576-9.35-27.519-28.766-38.517-44.79-11.956-17.418-14.897-29.412-9.838-40.105 5.284-11.165 27.016-38.354 71.438-61.339 35.692-18.468 96.283-38.833 182.223-30.976 58.945 5.388 110.98 22.229 154.659 50.054 41.927 26.708 66.833 57.622 80.345 78.852 16.443 25.838 23.068 46.156 24.229 49.966 3.158 10.369 2.838 18.732-.978 25.568-4 7.166-11.697 12.4-23.533 16.003-13.544 4.122-50.492 11.267-92.218 12.977a189.341 189.341 0 0 1-33.152 43.839c-36.048 35.503-83.473 54.593-132.567 54.595zm-14.088-331.587c-66.025 0-113.919 16.92-144.001 32.485-40.764 21.092-64.524 47.688-70.549 60.418-4.716 9.964-1.821 21.364 9.678 38.117 11.018 16.052 29.076 35.553 38.526 44.745a1 1 0 0 1 .298.623c3.228 34.17 17.582 82.541 67.64 118.926 14.891 10.824 43.328 22.965 67.618 28.87 63.629 15.459 129.438-2.717 176.041-48.617a187.363 187.363 0 0 0 33.073-43.869.999.999 0 0 1 .838-.521c39.549-1.573 77.771-8.499 92.281-12.915 11.316-3.444 18.634-8.372 22.369-15.064 3.536-6.336 3.802-14.189.81-24.01-1.147-3.767-7.698-23.856-24.003-49.476-21.667-34.045-87.794-114.669-233.498-127.988-12.952-1.184-25.327-1.724-37.121-1.724z"/><path d="M784.056 320.572c.189 3.164 5.342 5.815 14.118 7.798 16.958 3.845 47.505 5.207 82.165 3.041 31.846-1.993 59.864-6.515 76.88-11.833 11.096-3.46 17.518-7.263 17.286-10.924-.158-2.441-3.266-4.58-8.733-6.347-1.782-.578-3.806-1.108-6.07-1.6-17.093-3.725-47.296-5.032-81.503-2.873-34.04 2.135-63.721 7.16-80.238 12.939-7.188 2.513-11.895 5.19-13.4 7.816-.374.662-.553 1.322-.506 1.985z"/><path d="M848.194 333.451c-20.588 0-38.333-1.406-50.241-4.105-9.663-2.183-14.675-5.113-14.896-8.706-.06-.839.153-1.695.633-2.543 1.614-2.818 6.304-5.598 13.94-8.268 17.32-6.06 47.416-10.917 80.506-12.992 33.257-2.1 63.828-1.018 81.778 2.894 2.315.503 4.39 1.051 6.165 1.626 6.153 1.989 9.235 4.355 9.422 7.234.262 4.122-5.79 8.14-17.985 11.944-17.663 5.52-46.491 9.96-77.115 11.876-11.185.699-22.044 1.042-32.207 1.042zm62.235-35.669c-10.161 0-21.01.345-32.167 1.05-32.918 2.064-62.813 6.881-79.972 12.884-6.968 2.436-11.535 5.053-12.861 7.369-.285.503-.409.968-.377 1.416v.012c.071 1.179 1.512 4.209 13.342 6.882 17.349 3.933 48.723 5.09 81.882 3.018 30.473-1.907 59.125-6.314 76.645-11.79 15.235-4.751 16.674-8.511 16.585-9.906-.122-1.883-2.978-3.822-8.042-5.459-1.713-.555-3.723-1.085-5.975-1.575-11.783-2.568-29.094-3.902-49.06-3.902zM673.021 120.607c-.865 9.772 18.228 19.442 42.654 21.604 24.424 2.171 44.929-4 45.803-13.771.538-6.011-6.504-11.993-17.693-16.208-10.737-1.647-21.077-2.738-30.874-3.32a313.351 313.351 0 0 0-22.81-.479c-9.991 2.39-16.599 6.718-17.08 12.174z"/><path d="M784.562 319.588a1 1 0 0 1-.953-1.303c5.433-17.054 3.43-29.733 3.409-29.86a1 1 0 0 1 1.972-.328c.089.533 2.113 13.249-3.476 30.795a1.002 1.002 0 0 1-.953.697z"/></g><ellipse cx="349.486" cy="214.18" fill="#ffd6c0" rx="23.909" ry="40.907" transform="matrix(.91125239 -.41184838 .41184838 .91125239 -57.194 162.945)"/><path d="M360.172 253.753c-4.633 0-9.69-1.838-14.758-5.436-7.439-5.282-14.055-13.762-18.627-23.878s-6.566-20.685-5.615-29.759c.972-9.269 4.898-15.905 11.055-18.688 6.156-2.782 13.732-1.345 21.331 4.051 7.439 5.282 14.055 13.762 18.627 23.878s6.566 20.685 5.615 29.759c-.972 9.269-4.898 15.905-11.055 18.688-2.051.927-4.259 1.385-6.573 1.385zM338.8 176.61c-2.034 0-3.965.399-5.749 1.205-5.482 2.478-8.995 8.542-9.89 17.074-.915 8.727 1.021 18.929 5.448 28.726 4.429 9.798 10.808 17.991 17.962 23.071 6.996 4.966 13.866 6.338 19.35 3.859 5.482-2.478 8.995-8.542 9.89-17.074.915-8.727-1.021-18.929-5.448-28.726-4.429-9.798-10.808-17.991-17.962-23.071-4.72-3.35-9.383-5.064-13.601-5.064z" fill="#112c41"/><path d="M233.659 313.719a10.408 10.408 0 0 1-5.99 2.36l-13.743.837-5.054.313c-2.1.128-3.408-2.235-2.193-3.954l2.832-3.99 8.442-11.919a10.424 10.424 0 0 1 3.282-2.994l8.656-5.008 10.756 18.592-6.988 5.764z" fill="#fcd7ac"/><path d="M208.714 318.234a3.474 3.474 0 0 1-3.053-1.798 3.487 3.487 0 0 1 .201-3.739l11.274-15.91a11.318 11.318 0 0 1 3.597-3.281l8.656-5.008a.999.999 0 0 1 1.366.365l10.757 18.592a1 1 0 0 1-.229 1.272l-6.988 5.763a11.335 11.335 0 0 1-6.565 2.586l-18.796 1.15a3.212 3.212 0 0 1-.22.007zm20.812-27.504-7.79 4.507a9.334 9.334 0 0 0-2.966 2.706l-11.275 15.91a1.482 1.482 0 0 0-.086 1.609c.288.516.814.803 1.403.768l18.797-1.15a9.357 9.357 0 0 0 5.414-2.133l6.335-5.224z" fill="#112c41"/><path d="m423.778 177.19 11.78 20.362-203.256 117.591a3.501 3.501 0 0 1-4.782-1.276l-8.276-14.304a3.501 3.501 0 0 1 1.277-4.782z" fill="#fcaa51"/><path d="M230.562 316.614a4.5 4.5 0 0 1-3.902-2.246l-8.275-14.304a4.461 4.461 0 0 1-.453-3.414 4.472 4.472 0 0 1 2.094-2.734l203.255-117.593a.999.999 0 0 1 1.366.365l11.781 20.363a1.001 1.001 0 0 1-.364 1.366L232.809 316.01a4.479 4.479 0 0 1-2.246.604zm192.854-138.059L221.027 295.647a2.486 2.486 0 0 0-1.164 1.519 2.484 2.484 0 0 0 .252 1.896l8.275 14.304a2.503 2.503 0 0 0 3.416.912l202.39-117.092-10.78-18.632z" fill="#112c41"/><path d="m429.088 174.115 11.781 20.363-5.312 3.073-11.78-20.363z" fill="#dedffe"/><path d="M435.563 198.552a.996.996 0 0 1-.866-.5l-11.781-20.363a1.001 1.001 0 0 1 .364-1.366l5.313-3.073a.998.998 0 0 1 1.366.365l11.781 20.363a1.001 1.001 0 0 1-.364 1.366l-5.313 3.073a1 1 0 0 1-.5.135zm-10.416-20.998 10.78 18.632 3.581-2.072-10.78-18.632z" fill="#112c41"/><path d="m450.876 168.883 5.39 9.317a6.383 6.383 0 0 1-2.327 8.717l-13.07 7.561-11.78-20.363 13.07-7.56a6.383 6.383 0 0 1 8.717 2.327z" fill="#ffa9dc"/><path d="M440.875 195.479a.996.996 0 0 1-.866-.5l-11.781-20.363a1.001 1.001 0 0 1 .364-1.366l13.069-7.561a7.333 7.333 0 0 1 5.6-.742 7.33 7.33 0 0 1 4.484 3.435l5.391 9.317c2.038 3.522.831 8.046-2.691 10.084l-13.069 7.561a1 1 0 0 1-.5.135zm-10.416-20.998 10.78 18.632 12.203-7.06a5.389 5.389 0 0 0 1.963-7.352l-5.391-9.317a5.347 5.347 0 0 0-3.27-2.504 5.347 5.347 0 0 0-4.082.541l-12.204 7.061z" fill="#112c41"/><path d="m213.926 316.916-5.054.313c-2.1.128-3.408-2.235-2.193-3.954l2.832-3.99 4.415 7.632z" fill="#7bdaac"/><path d="M208.714 318.234a3.474 3.474 0 0 1-3.053-1.798 3.487 3.487 0 0 1 .201-3.739l2.833-3.992a1.02 1.02 0 0 1 .861-.42 1 1 0 0 1 .819.498l4.415 7.632a.997.997 0 0 1-.803 1.498l-5.054.313a3.212 3.212 0 0 1-.22.007zm.711-7.101-1.931 2.72a1.482 1.482 0 0 0-.086 1.609c.288.516.814.803 1.403.768l3.439-.213-2.826-4.885z" fill="#112c41"/><path d="m959.051 313.67-.05.499c-1.492 16.452-5.327 32.794-11.055 48.64-3.69 10.231-8.172 20.259-13.322 29.984-28.002 52.947-72.219 100.777-125.749 123.71-83.742 35.872-221.428 66.379-403.275-68.882-24.157-17.964-42.188-36.553-55.151-51.533v-.01c-10.287-11.898-17.376-21.545-21.787-26.805-19.364 17.769-80.578-30.266-49.223-68.14-5.724-5.39-7.444-17.649-.425-28.288-14.681 10.679-25.605 6.006-29.176-.157-7.225-12.518 4.648-34.136 12.472-43.966 22.569-28.397 63.909-41.924 111.761-10.544 21.279 13.937 58.998 48.092 76.525 66.373 80.632 84.091 178.776 104.119 234.852 98.389 39.637-4.055 86.651-31.532 99.114-64.357 1.505-2.626 6.212-5.303 13.4-7.816 16.517-5.779 46.198-10.804 80.238-12.939 34.207-2.159 64.41-.852 81.503 2.873a171.092 171.092 0 0 1-.652 12.969z" fill="#ffd6c0"/><path d="M667.589 548.076c-7.859 0-15.734-.281-23.633-.841-77.832-5.521-158.228-38.766-238.952-98.811-19.988-14.864-38.08-31.769-55.311-51.681a.857.857 0 0 1-.074-.097c-6.646-7.691-11.868-14.327-16.066-19.664-1.909-2.426-3.593-4.566-5.011-6.289-10.489 8.374-29.213.457-41.875-11.576-14.433-13.715-25.204-37.021-8.567-57.919-4.819-5.245-6.55-15.552-1.98-25.242-7.662 4.55-13.651 4.682-17.504 3.867-4.199-.888-7.714-3.306-9.642-6.634-7.195-12.468 3.565-33.796 12.555-45.09 12.101-15.225 28.802-25.188 47.026-28.053 20.942-3.293 43.789 2.687 66.066 17.296 21.522 14.097 59.177 48.243 76.697 66.518 78.64 82.014 175.22 104.096 234.028 98.086 19.369-1.982 40.99-9.724 59.317-21.242 19.342-12.155 33.179-27.24 38.964-42.475.019-.049.041-.097.067-.142 1.612-2.813 6.301-5.593 13.937-8.262 17.322-6.061 47.418-10.918 80.506-12.993 33.259-2.099 63.829-1.017 81.778 2.894a1 1 0 0 1 .787.989c-.049 4.237-.27 8.625-.656 13.044v.012l-.051.499c-1.456 16.067-5.194 32.516-11.109 48.88-3.641 10.092-8.142 20.223-13.379 30.113-30.453 57.582-76.466 102.838-126.239 124.162-47.979 20.552-94.558 30.653-141.68 30.653zm-316.31-152.557c17.111 19.763 35.077 36.545 54.918 51.299 138.397 102.943 269.986 125.436 402.284 68.766 49.36-21.147 95.015-66.073 125.259-123.259 5.193-9.807 9.656-19.852 13.266-29.856 5.856-16.204 9.558-32.485 10.999-48.391l.05-.498c.357-4.084.571-8.141.637-12.072-17.88-3.734-47.836-4.739-80.428-2.681-32.916 2.064-62.812 6.881-79.972 12.884-6.902 2.414-11.45 5.005-12.824 7.305-5.955 15.613-20.064 31.016-39.74 43.38-18.578 11.676-40.513 19.526-60.178 21.538-6 .613-12.397.937-19.119.937-59.66.002-145.431-25.452-216.556-99.628-17.455-18.206-54.945-52.209-76.351-66.229-49.544-32.49-89.53-15.967-110.431 10.329-8.318 10.452-19.037 31.325-12.389 42.844 1.644 2.837 4.678 4.907 8.323 5.678 4.022.852 10.654.531 19.398-5.83a.999.999 0 0 1 1.423 1.359c-6.724 10.191-5.092 21.955.276 27.01a1 1 0 0 1 .085 1.366c-16.57 20.015-6.137 42.62 7.833 55.896 12.507 11.885 30.864 19.198 39.943 10.869a1 1 0 0 1 1.442.094c1.563 1.863 3.478 4.297 5.694 7.115 4.202 5.34 9.432 11.985 16.083 19.678a.913.913 0 0 1 .072.095z" fill="#112c41"/><path d="M947.946 362.809c-3.69 10.231-8.172 20.259-13.322 29.984-28.002 52.947-72.219 100.777-125.749 123.71-83.742 35.872-221.428 66.379-403.275-68.882-24.157-17.964-42.188-36.553-55.151-51.533v-.01c176.626 153.048 467.929 190.239 596.165-31.048.436-.752.889-1.495 1.331-2.221z" fill="#f5b9ab"/><path d="M667.101 548.027c-7.859 0-15.733-.281-23.632-.841-77.832-5.521-158.228-38.766-238.952-98.811-36.754-27.338-59.365-56.078-71.513-71.519-1.883-2.393-3.544-4.504-4.945-6.21-10.492 8.377-29.22.453-41.883-11.582-14.432-13.716-25.201-37.021-8.567-57.917-4.818-5.245-6.548-15.551-1.977-25.237-7.667 4.551-13.658 4.681-17.511 3.865-4.197-.889-7.709-3.309-9.635-6.638-7.192-12.458 3.569-33.791 12.559-45.09 12.096-15.224 28.795-25.186 47.02-28.052 20.945-3.293 43.791 2.686 66.07 17.294 21.514 14.096 59.171 48.245 76.696 66.522 78.641 82.014 175.215 104.096 234.028 98.086 19.37-1.979 40.99-9.72 59.317-21.238 19.34-12.154 33.178-27.239 38.963-42.475.019-.049.041-.097.066-.142 1.612-2.813 6.301-5.593 13.938-8.262 17.32-6.06 47.416-10.917 80.506-12.993 33.255-2.1 63.827-1.018 81.777 2.894a1 1 0 0 1 .787.988 172.636 172.636 0 0 1-.656 13.045l-.05.509c-2.377 26.21-10.617 52.79-24.489 78.995-30.454 57.583-76.466 102.837-126.237 124.157-47.979 20.552-94.558 30.653-141.681 30.653zm-338.92-179.802a.998.998 0 0 1 .766.358c1.546 1.847 3.438 4.251 5.628 7.035 12.09 15.367 34.595 43.972 71.135 71.151 88.999 66.199 175.195 99.13 260.563 99.133 47.383.002 94.5-10.14 141.722-30.368 49.358-21.143 95.013-66.067 125.257-123.254 13.748-25.969 21.912-52.295 24.266-78.247l.05-.506c.357-4.074.571-8.132.636-12.064-17.881-3.735-47.837-4.739-80.427-2.681-32.919 2.065-62.814 6.881-79.972 12.885-6.903 2.413-11.45 5.004-12.824 7.305-5.956 15.614-20.064 31.016-39.738 43.38-18.578 11.676-40.513 19.525-60.179 21.534-6 .613-12.397.937-19.119.937-59.659.002-145.43-25.451-216.556-99.628-17.46-18.208-54.953-52.214-76.35-66.233-49.552-32.49-89.534-15.967-110.428 10.33-8.318 10.457-19.038 31.335-12.393 42.845 1.643 2.839 4.674 4.91 8.317 5.682 4.023.852 10.655.534 19.405-5.828a1 1 0 0 1 1.423 1.36c-6.727 10.187-5.097 21.948.271 27.004a1 1 0 0 1 .085 1.366c-16.568 20.013-6.135 42.618 7.834 55.894 12.507 11.888 30.87 19.204 39.951 10.875a.998.998 0 0 1 .676-.263z" fill="#112c41"/><path d="M331.72 373.603a.994.994 0 0 1-.752-.341c-23.184-26.477-34.477-31.74-34.588-31.79a1 1 0 0 1 .812-1.827c.467.207 11.712 5.383 35.279 32.3a1 1 0 0 1-.752 1.659zm-57.184-64.444a1 1 0 0 1-.878-1.478c6.275-11.551 18.302-17.018 24.911-19.249 9.857-3.326 19.928-3.697 25.649-.947a1 1 0 1 1-.865 1.802c-10.03-4.82-37.947.956-47.938 19.348a1 1 0 0 1-.88.523zm4.561-35.522a1.001 1.001 0 0 1-.821-1.57c8.738-12.604 27.89-32.787 57.959-26.365a1 1 0 1 1-.418 1.956c-28.938-6.183-47.442 13.354-55.896 25.548a.999.999 0 0 1-.823.43zm56.15 137.425c-1.838 0-3.253-.496-4.16-1.571-2.797-3.317.495-11.374 9.785-23.949a.999.999 0 1 1 1.609 1.188c-9.631 13.036-11.411 19.638-9.865 21.471.911 1.083 5.659 3.516 28.354-10.691 15.014-9.397 34.087-23.687 53.705-40.235 18.54-15.639 34.799-31.717 45.781-45.272 10.376-12.806 15.029-22.277 12.448-25.337-1.819-2.156-7.735-1.243-16.233 2.506a1 1 0 1 1-.806-1.83c9.783-4.315 16.027-4.976 18.569-1.965 4.287 5.083-4.39 17.969-12.423 27.885-11.06 13.65-27.413 29.823-46.047 45.542-24.608 20.758-66.071 52.255-80.718 52.258zm76.771 60.018a3.775 3.775 0 0 1-1.708-.386c-3.675-1.825-4.142-7.55-1.612-19.761a1 1 0 0 1 1.959.406c-2.217 10.698-2.044 16.279.544 17.564.3.149.637.222 1.006.222 8.197.003 33.033-35.978 54.847-79.894 10.484-21.108 18.766-41.725 23.318-58.053 4.297-15.414 4.791-25.645 1.32-27.368-1.307-.648-4.604-.61-11.998 6.951a.999.999 0 1 1-1.43-1.398c6.313-6.456 11.128-8.928 14.318-7.344 5.804 2.883 3.049 17.74-.284 29.696-4.585 16.447-12.915 37.189-23.454 58.406-16.071 32.355-44.763 80.953-56.826 80.959z" fill="#112c41"/></svg></g><g transform="translate(1325.0 413.0) rotate(-35.36236733962175 -193.5 167.0) scale(-1.113810093939952 1.1142879066400215)"><svg width="347.456" height="299.743" viewBox="0 0 347.456 299.743"><circle cx="313.794" cy="133.433" fill="#ffd6c0" r="28.57"/><path d="M321.584 160.92a28.567 28.567 0 0 0 20.071-33.809 28.572 28.572 0 0 1-55.89 4.64q-.2-.739-.37-1.478a28.59 28.59 0 0 0 36.189 30.647z" fill="#f5b9ab"/><path d="M313.817 163a29.653 29.653 0 0 1-15.5-4.365 1 1 0 0 1 1.047-1.705 27.568 27.568 0 1 0-12.594-18.009 1 1 0 0 1-1.959.4 29.678 29.678 0 0 1 20.92-34.335A29.569 29.569 0 1 1 313.817 163z" fill="#112c41"/><path d="M302.546 145.26a1 1 0 0 1-.823-.429 18.122 18.122 0 0 1 4.192-25.247 17.645 17.645 0 0 1 15.229-2.366 1 1 0 0 1-.574 1.916 15.646 15.646 0 0 0-13.513 2.092 16.118 16.118 0 0 0-3.691 22.463 1 1 0 0 1-.82 1.571z" fill="#112c41"/><circle cx="226.446" cy="196.341" fill="#ffd6c0" r="102.5"/><path d="M155.917 122.373c.249-.239.507-.463.758-.7l13.467 4.366c-38.4 37.156-40.885 96.151-4.388 134.091 36.563 38.009 98.4 40.494 137.007 3.356a98.234 98.234 0 0 0 10.412-11.736 102.51 102.51 0 1 1-157.256-129.377z" fill="#f5b9ab"/><path d="M227 299.694a103.45 103.45 0 1 1 71.733-28.86A103.206 103.206 0 0 1 227 299.694zm-73.173-33.084a101.5 101.5 0 1 0 2.783-143.516 101.616 101.616 0 0 0-2.783 143.516z" fill="#112c41"/><ellipse cx="205.228" cy="188.111" fill="#112c41" rx="6.828" ry="9.104" transform="matrix(.72068422 -.69326348 .69326348 .72068422 -73.087 194.819)"/><ellipse cx="181.282" cy="169.093" fill="#112c41" rx="14.13" ry="9.336" transform="matrix(.61176177 -.79104205 .79104205 .61176177 -63.379 209.051)"/><ellipse cx="287.714" cy="168.082" fill="#ffa6e0" rx="12.121" ry="8.009" transform="matrix(.64400347 -.76502257 .76502257 .64400347 -26.161 279.944)"/><ellipse cx="208.206" cy="216.799" fill="#ffa6e0" rx="12.121" ry="8.009" transform="matrix(.95320122 -.30233662 .30233662 .95320122 -55.802 73.094)"/><g fill="#112c41"><ellipse cx="256.241" cy="121.518" rx="13.016" ry="8.6" transform="matrix(.98691207 -.16125933 .16125933 .98691207 -16.242 42.911)"/><path d="M257.99 114.772c4.816 0 8.653 2.09 9.124 4.969.348 2.135-1.207 3.94-2.165 4.825a14.849 14.849 0 0 1-7.643 3.465 17.461 17.461 0 0 1-2.813.232c-4.816 0-8.654-2.09-9.124-4.969-.349-2.135 1.207-3.939 2.165-4.825a14.846 14.846 0 0 1 7.643-3.469 17.566 17.566 0 0 1 2.813-.232m0-2a19.623 19.623 0 0 0-3.135.258c-7.094 1.159-12.225 5.9-11.459 10.587.651 3.983 5.348 6.646 11.1 6.646a19.489 19.489 0 0 0 3.135-.258c7.1-1.159 12.225-5.9 11.459-10.586-.65-3.983-5.348-6.647-11.1-6.647z"/><ellipse cx="263.428" cy="150.022" rx="6.828" ry="9.104" transform="matrix(.92030014 -.39121305 .39121305 .92030014 -37.695 115.014)"/><path d="M228.417 192.649c8.063 9.545 19.732 13.193 27.651 8.089s9.418-17.237 4.056-28.523z"/><path d="M247.916 204.046c-6.836 0-14.4-3.816-20.263-10.752a1 1 0 0 1 .222-1.486l31.707-20.434a1 1 0 0 1 1.445.412c5.68 11.953 3.822 24.483-4.417 29.792a15.868 15.868 0 0 1-8.694 2.468zm-17.986-11.184c7.824 8.674 18.447 11.643 25.6 7.035s8.834-15.507 4.167-26.215z"/></g><path d="M260.9 194.544c-4.822-1.935-11.112-.562-15.747 3.895a17.791 17.791 0 0 0-2.953 3.71c4.947 1.51 9.885 1.158 13.872-1.411a14.684 14.684 0 0 0 5.25-6.014q-.213-.094-.422-.18z" fill="#ffa6e0"/><path d="M247.921 204.04a20.637 20.637 0 0 1-6.017-.934 1 1 0 0 1-.567-1.467 18.67 18.67 0 0 1 3.119-3.92c4.761-4.579 11.52-6.229 16.812-4.1h.005q.229.093.453.193a1 1 0 0 1 .492 1.35 15.6 15.6 0 0 1-5.609 6.417 15.868 15.868 0 0 1-8.688 2.461zm-4.137-2.5a15.024 15.024 0 0 0 11.742-1.646 13.427 13.427 0 0 0 4.383-4.649c-4.482-1.478-10.05.047-14.066 3.912a16.9 16.9 0 0 0-2.059 2.386z" fill="#112c41"/><circle cx="130.328" cy="256.606" fill="#ffd6c0" r="30.5"/><path d="M160.894 255.092a33.246 33.246 0 0 1-2.955 7.019c-8.024 14.817-27 19.952-41.808 11.933-9.718-5.259-14.734-14.706-15.242-24.981-3.528 13.289 1.631 27.416 14.266 34.261a30.493 30.493 0 0 0 41.345-12.291c2.76-5.09 4.671-10.541 4.394-15.941z" fill="#f5b9ab"/><path d="M130.345 288.106c-.209 0-.417 0-.627-.006a31.5 31.5 0 0 1-21.228-54.2 31.618 31.618 0 0 1 42.824-.792 1 1 0 0 1-1.334 1.491 29.606 29.606 0 0 0-40.1.743 29.5 29.5 0 1 0 40.9 42.52 31.456 31.456 0 0 0 9.115-22.753 1 1 0 0 1 2-.043 33.52 33.52 0 0 1-9.728 24.238 31.286 31.286 0 0 1-21.822 8.802z" fill="#112c41"/><path d="M113.915 260.325a1 1 0 0 1-1-.982 18.676 18.676 0 0 1 20.826-19.038 19.639 19.639 0 0 1 13.046 7.109 1 1 0 0 1-1.545 1.272 17.643 17.643 0 0 0-11.721-6.393 16.678 16.678 0 0 0-18.606 17.015 1 1 0 0 1-.983 1.017z" fill="#112c41"/><path d="M116.179 139.982a104.786 104.786 0 0 1 10.347-19.834 108.554 108.554 0 0 1 13.557-16.548c30.324-30.385 73.906-38.744 109.335-24.349a88.937 88.937 0 0 1 26.588 16.739c1.6 1.464.5 3.229-1.195 3.354-17.081 1.261-45.442 10.938-64.12 20.7-12.461 6.512-24.387 15.38-35.909 25.459q-7.269 6.358-13.747 13.111a63.913 63.913 0 0 1-11.53-25.056c-1.708 10.215-.23 22.976 3.071 34.471-13.549 16.058-24.416 33.839-30.892 50.6-.536 1.385-2.243 1.978-3.129.143-11.712-24.237-12.536-52.872-2.376-78.79z" fill="#b2b0f7"/><path d="M121.487 219.133c2.448-6.416 8.485-18.3 12.014-24.739-10.389-21.658-13.911-55.679 4.136-82.793a98.047 98.047 0 0 1 22.6-23.909 109.117 109.117 0 0 0-33.718 32.455c-20.285 30.489-23.019 68.548-7.729 99.108a1.477 1.477 0 0 0 2.697-.122z" fill="#9797f7"/><path d="M120.044 220.918a2.7 2.7 0 0 1-2.39-1.715c-11.791-24.4-12.668-53.406-2.406-79.587a106.068 106.068 0 0 1 10.446-20.022 109.871 109.871 0 0 1 13.681-16.7 106.771 106.771 0 0 1 53.252-29.239 97.235 97.235 0 0 1 57.173 4.67 89.9 89.9 0 0 1 26.886 16.926 2.9 2.9 0 0 1 .963 3.11 3.091 3.091 0 0 1-2.758 1.981c-17.737 1.309-46.332 11.5-63.732 20.588-11.3 5.9-22.981 14.187-35.714 25.324a219.196 219.196 0 0 0-13.684 13.052 1.015 1.015 0 0 1-.784.3 1 1 0 0 1-.739-.4A66.874 66.874 0 0 1 149.9 139.1a88.366 88.366 0 0 0 3.637 28.653 1 1 0 0 1-.2.921c-13.421 15.907-24.333 33.774-30.725 50.312a2.869 2.869 0 0 1-2.474 1.932h-.094zm93.863-147.536a99.744 99.744 0 0 0-20.861 2.229 104.786 104.786 0 0 0-52.255 28.7 108.014 108.014 0 0 0-13.433 16.389 104.115 104.115 0 0 0-10.249 19.646c-10.058 25.663-9.2 54.088 2.346 77.985.086.178.313.586.594.586h.011a.944.944 0 0 0 .691-.655c6.415-16.6 17.314-34.5 30.718-50.473-3.472-12.328-4.548-24.837-2.951-34.4a1 1 0 0 1 .967-.835h.02a1 1 0 0 1 .979.8 62.887 62.887 0 0 0 10.656 23.71 222.508 222.508 0 0 1 12.984-12.317c12.853-11.242 24.663-19.613 36.1-25.592 17.579-9.186 46.516-19.481 64.51-20.808a1.142 1.142 0 0 0 1.017-.641c.129-.373-.159-.738-.423-.979a87.911 87.911 0 0 0-26.289-16.549 93.136 93.136 0 0 0-35.132-6.796z" fill="#112c41"/><circle cx="151.717" cy="281.49" fill="#fff" r="11.5"/><path d="M151.69 293.994a12.5 12.5 0 0 1-12.268-10.256 12.474 12.474 0 1 1 12.268 10.256zm.049-23.007a10.671 10.671 0 0 0-1.911.174 10.514 10.514 0 0 0-8.44 12.218 10.5 10.5 0 1 0 10.351-12.392z" fill="#112c41"/><circle cx="334.954" cy="160.56" fill="#fff" r="11.5"/><path d="M334.928 173.064a12.508 12.508 0 0 1-12.27-10.256 12.5 12.5 0 1 1 14.542 10.048 12.715 12.715 0 0 1-2.272.208zm-10.3-10.616a10.5 10.5 0 1 0 8.44-12.217 10.432 10.432 0 0 0-8.44 12.217zM59.964 133.784q-1.794 0-3.585-.092c-16.968-.875-32.062-7.912-42.5-19.812C-8.73 88.113-3.147 45.283 26.322 18.405a1 1 0 0 1 1.348 1.479C-1 46.032-6.513 87.608 15.381 112.562c10.081 11.49 24.677 18.286 41.1 19.132 19.1.987 38.44-6.2 53.02-19.719a1 1 0 1 1 1.359 1.467 75.455 75.455 0 0 1-50.896 20.342z" fill="#112c41"/><path d="M114.454 109.405a63 63 0 1 0-89.079-1.728 63 63 0 0 0 89.079 1.728" fill="#9797f7"/><path d="M34.856 88.594a61.054 61.054 0 0 0 98.02-13.948A63.027 63.027 0 0 0 21.948 24.175a61.029 61.029 0 0 0 12.908 64.419z" fill="#b2b0f7"/><path d="M70.792 127.972a63.975 63.975 0 0 1-49.618-104.43 64.754 64.754 0 0 1 5.231-5.665 64 64 0 1 1 44.387 110.1zM70.765 2.03a61.791 61.791 0 0 0-42.972 17.288 62.7 62.7 0 0 0-5.07 5.489A62.079 62.079 0 1 0 70.765 2.03z" fill="#112c41"/></svg></g><g transform="translate(786.0 603.0) rotate(0.0 32.5 32.5) scale(1.3145122148519657 1.3134497251859036)"><svg width="49.448" height="49.488" viewBox="0 0 49.448 49.488"><g fill="#cbc8ff"><path d="M25.458 1.616c2.318 10.152 12.587 20.537 22.364 22.713a.422.422 0 0 1 0 .83c-9.777 2.176-20.046 12.561-22.364 22.713a.416.416 0 0 1-.818-.012c-2.05-9.942-12.693-20.48-23.023-22.707a.417.417 0 0 1 0-.818C11.947 22.107 22.59 11.57 24.64 1.628a.416.416 0 0 1 .818-.012z"/><path d="M25.052 49.488h-.019a1.7 1.7 0 0 1-1.648-1.369c-1.95-9.456-12.249-19.6-22.039-21.713a1.7 1.7 0 0 1 0-3.325c9.791-2.11 20.09-12.256 22.04-21.712a1.7 1.7 0 0 1 3.322-.039c2.215 9.7 12.012 19.66 21.393 21.748a1.7 1.7 0 0 1 0 3.332c-9.382 2.09-19.179 12.047-21.394 21.747a1.691 1.691 0 0 1-1.655 1.331zM4.846 24.744c8.816 3.114 17.187 11.367 20.228 19.937 3.148-8.6 11.281-16.854 19.648-19.937-8.367-3.083-16.5-11.335-19.648-19.938-3.041 8.57-11.412 16.823-20.228 19.938z"/></g></svg></g><g transform="translate(1345.0 686.0) rotate(0.0 24.0 24.0) scale(0.970716712506067 0.9699321047526673)"><svg width="49.448" height="49.488" viewBox="0 0 49.448 49.488"><g fill="#cbc8ff"><path d="M25.458 1.616c2.318 10.152 12.587 20.537 22.364 22.713a.422.422 0 0 1 0 .83c-9.777 2.176-20.046 12.561-22.364 22.713a.416.416 0 0 1-.818-.012c-2.05-9.942-12.693-20.48-23.023-22.707a.417.417 0 0 1 0-.818C11.947 22.107 22.59 11.57 24.64 1.628a.416.416 0 0 1 .818-.012z"/><path d="M25.052 49.488h-.019a1.7 1.7 0 0 1-1.648-1.369c-1.95-9.456-12.249-19.6-22.039-21.713a1.7 1.7 0 0 1 0-3.325c9.791-2.11 20.09-12.256 22.04-21.712a1.7 1.7 0 0 1 3.322-.039c2.215 9.7 12.012 19.66 21.393 21.748a1.7 1.7 0 0 1 0 3.332c-9.382 2.09-19.179 12.047-21.394 21.747a1.691 1.691 0 0 1-1.655 1.331zM4.846 24.744c8.816 3.114 17.187 11.367 20.228 19.937 3.148-8.6 11.281-16.854 19.648-19.937-8.367-3.083-16.5-11.335-19.648-19.938-3.041 8.57-11.412 16.823-20.228 19.938z"/></g></svg></g><g transform="translate(1300.0 506.0) rotate(0.0 24.0 24.0) scale(0.970716712506067 0.9699321047526673)"><svg width="49.448" height="49.488" viewBox="0 0 49.448 49.488"><path d="M25.458 1.616c2.318 10.152 12.587 20.537 22.364 22.713a.422.422 0 0 1 0 .83c-9.777 2.176-20.046 12.561-22.364 22.713a.416.416 0 0 1-.818-.012c-2.05-9.942-12.693-20.48-23.023-22.707a.417.417 0 0 1 0-.818C11.947 22.107 22.59 11.57 24.64 1.628a.416.416 0 0 1 .818-.012z" fill="#fff"/><path d="M25.052 49.488h-.018a1.7 1.7 0 0 1-1.649-1.368c-1.95-9.457-12.249-19.6-22.038-21.714a1.7 1.7 0 0 1 0-3.324c9.789-2.111 20.088-12.257 22.038-21.713a1.7 1.7 0 0 1 3.322-.039c2.216 9.7 12.012 19.659 21.394 21.747a1.7 1.7 0 0 1 0 3.332C38.72 28.5 28.923 38.457 26.707 48.157a1.691 1.691 0 0 1-1.655 1.331zM4.846 24.744c8.816 3.114 17.187 11.367 20.228 19.937 3.148-8.6 11.281-16.854 19.648-19.937-8.367-3.083-16.5-11.335-19.648-19.937-3.041 8.569-11.411 16.822-20.228 19.937z" fill="#cbc8ff"/></svg></g></svg>