<svg xmlns="http://www.w3.org/2000/svg" viewBox="0 0 1800 1800" width="1800" height="1800"><g transform="translate(475.0 349.0) rotate(31.126658163905034 154.5 133.0) scale(0.889321237797016 0.8874268957073226)"><svg width="347.456" height="299.743" viewBox="0 0 347.456 299.743"><circle cx="313.794" cy="133.433" fill="#ffd6c0" r="28.57"/><path d="M321.584 160.92a28.567 28.567 0 0 0 20.071-33.809 28.572 28.572 0 0 1-55.89 4.64q-.2-.739-.37-1.478a28.59 28.59 0 0 0 36.189 30.647z" fill="#f5b9ab"/><path d="M313.817 163a29.653 29.653 0 0 1-15.5-4.365 1 1 0 0 1 1.047-1.705 27.568 27.568 0 1 0-12.594-18.009 1 1 0 0 1-1.959.4 29.678 29.678 0 0 1 20.92-34.335A29.569 29.569 0 1 1 313.817 163z" fill="#112c41"/><path d="M302.546 145.26a1 1 0 0 1-.823-.429 18.122 18.122 0 0 1 4.192-25.247 17.645 17.645 0 0 1 15.229-2.366 1 1 0 0 1-.574 1.916 15.646 15.646 0 0 0-13.513 2.092 16.118 16.118 0 0 0-3.691 22.463 1 1 0 0 1-.82 1.571z" fill="#112c41"/><circle cx="226.446" cy="196.341" fill="#ffd6c0" r="102.5"/><path d="M155.917 122.373c.249-.239.507-.463.758-.7l13.467 4.366c-38.4 37.156-40.885 96.151-4.388 134.091 36.563 38.009 98.4 40.494 137.007 3.356a98.234 98.234 0 0 0 10.412-11.736 102.51 102.51 0 1 1-157.256-129.377z" fill="#f5b9ab"/><path d="M227 299.694a103.45 103.45 0 1 1 71.733-28.86A103.206 103.206 0 0 1 227 299.694zm-73.173-33.084a101.5 101.5 0 1 0 2.783-143.516 101.616 101.616 0 0 0-2.783 143.516z" fill="#112c41"/><ellipse cx="205.228" cy="188.111" fill="#112c41" rx="6.828" ry="9.104" transform="matrix(.72068422 -.69326348 .69326348 .72068422 -73.087 194.819)"/><ellipse cx="181.282" cy="169.093" fill="#112c41" rx="14.13" ry="9.336" transform="matrix(.61176177 -.79104205 .79104205 .61176177 -63.379 209.051)"/><ellipse cx="287.714" cy="168.082" fill="#ffa6e0" rx="12.121" ry="8.009" transform="matrix(.64400347 -.76502257 .76502257 .64400347 -26.161 279.944)"/><ellipse cx="208.206" cy="216.799" fill="#ffa6e0" rx="12.121" ry="8.009" transform="matrix(.95320122 -.30233662 .30233662 .95320122 -55.802 73.094)"/><g fill="#112c41"><ellipse cx="256.241" cy="121.518" rx="13.016" ry="8.6" transform="matrix(.98691207 -.16125933 .16125933 .98691207 -16.242 42.911)"/><path d="M257.99 114.772c4.816 0 8.653 2.09 9.124 4.969.348 2.135-1.207 3.94-2.165 4.825a14.849 14.849 0 0 1-7.643 3.465 17.461 17.461 0 0 1-2.813.232c-4.816 0-8.654-2.09-9.124-4.969-.349-2.135 1.207-3.939 2.165-4.825a14.846 14.846 0 0 1 7.643-3.469 17.566 17.566 0 0 1 2.813-.232m0-2a19.623 19.623 0 0 0-3.135.258c-7.094 1.159-12.225 5.9-11.459 10.587.651 3.983 5.348 6.646 11.1 6.646a19.489 19.489 0 0 0 3.135-.258c7.1-1.159 12.225-5.9 11.459-10.586-.65-3.983-5.348-6.647-11.1-6.647z"/><ellipse cx="263.428" cy="150.022" rx="6.828" ry="9.104" transform="matrix(.92030014 -.39121305 .39121305 .92030014 -37.695 115.014)"/><path d="M228.417 192.649c8.063 9.545 19.732 13.193 27.651 8.089s9.418-17.237 4.056-28.523z"/><path d="M247.916 204.046c-6.836 0-14.4-3.816-20.263-10.752a1 1 0 0 1 .222-1.486l31.707-20.434a1 1 0 0 1 1.445.412c5.68 11.953 3.822 24.483-4.417 29.792a15.868 15.868 0 0 1-8.694 2.468zm-17.986-11.184c7.824 8.674 18.447 11.643 25.6 7.035s8.834-15.507 4.167-26.215z"/></g><path d="M260.9 194.544c-4.822-1.935-11.112-.562-15.747 3.895a17.791 17.791 0 0 0-2.953 3.71c4.947 1.51 9.885 1.158 13.872-1.411a14.684 14.684 0 0 0 5.25-6.014q-.213-.094-.422-.18z" fill="#ffa6e0"/><path d="M247.921 204.04a20.637 20.637 0 0 1-6.017-.934 1 1 0 0 1-.567-1.467 18.67 18.67 0 0 1 3.119-3.92c4.761-4.579 11.52-6.229 16.812-4.1h.005q.229.093.453.193a1 1 0 0 1 .492 1.35 15.6 15.6 0 0 1-5.609 6.417 15.868 15.868 0 0 1-8.688 2.461zm-4.137-2.5a15.024 15.024 0 0 0 11.742-1.646 13.427 13.427 0 0 0 4.383-4.649c-4.482-1.478-10.05.047-14.066 3.912a16.9 16.9 0 0 0-2.059 2.386z" fill="#112c41"/><circle cx="130.328" cy="256.606" fill="#ffd6c0" r="30.5"/><path d="M160.894 255.092a33.246 33.246 0 0 1-2.955 7.019c-8.024 14.817-27 19.952-41.808 11.933-9.718-5.259-14.734-14.706-15.242-24.981-3.528 13.289 1.631 27.416 14.266 34.261a30.493 30.493 0 0 0 41.345-12.291c2.76-5.09 4.671-10.541 4.394-15.941z" fill="#f5b9ab"/><path d="M130.345 288.106c-.209 0-.417 0-.627-.006a31.5 31.5 0 0 1-21.228-54.2 31.618 31.618 0 0 1 42.824-.792 1 1 0 0 1-1.334 1.491 29.606 29.606 0 0 0-40.1.743 29.5 29.5 0 1 0 40.9 42.52 31.456 31.456 0 0 0 9.115-22.753 1 1 0 0 1 2-.043 33.52 33.52 0 0 1-9.728 24.238 31.286 31.286 0 0 1-21.822 8.802z" fill="#112c41"/><path d="M113.915 260.325a1 1 0 0 1-1-.982 18.676 18.676 0 0 1 20.826-19.038 19.639 19.639 0 0 1 13.046 7.109 1 1 0 0 1-1.545 1.272 17.643 17.643 0 0 0-11.721-6.393 16.678 16.678 0 0 0-18.606 17.015 1 1 0 0 1-.983 1.017z" fill="#112c41"/><path d="M116.179 139.982a104.786 104.786 0 0 1 10.347-19.834 108.554 108.554 0 0 1 13.557-16.548c30.324-30.385 73.906-38.744 109.335-24.349a88.937 88.937 0 0 1 26.588 16.739c1.6 1.464.5 3.229-1.195 3.354-17.081 1.261-45.442 10.938-64.12 20.7-12.461 6.512-24.387 15.38-35.909 25.459q-7.269 6.358-13.747 13.111a63.913 63.913 0 0 1-11.53-25.056c-1.708 10.215-.23 22.976 3.071 34.471-13.549 16.058-24.416 33.839-30.892 50.6-.536 1.385-2.243 1.978-3.129.143-11.712-24.237-12.536-52.872-2.376-78.79z" fill="#b2b0f7"/><path d="M121.487 219.133c2.448-6.416 8.485-18.3 12.014-24.739-10.389-21.658-13.911-55.679 4.136-82.793a98.047 98.047 0 0 1 22.6-23.909 109.117 109.117 0 0 0-33.718 32.455c-20.285 30.489-23.019 68.548-7.729 99.108a1.477 1.477 0 0 0 2.697-.122z" fill="#9797f7"/><path d="M120.044 220.918a2.7 2.7 0 0 1-2.39-1.715c-11.791-24.4-12.668-53.406-2.406-79.587a106.068 106.068 0 0 1 10.446-20.022 109.871 109.871 0 0 1 13.681-16.7 106.771 106.771 0 0 1 53.252-29.239 97.235 97.235 0 0 1 57.173 4.67 89.9 89.9 0 0 1 26.886 16.926 2.9 2.9 0 0 1 .963 3.11 3.091 3.091 0 0 1-2.758 1.981c-17.737 1.309-46.332 11.5-63.732 20.588-11.3 5.9-22.981 14.187-35.714 25.324a219.196 219.196 0 0 0-13.684 13.052 1.015 1.015 0 0 1-.784.3 1 1 0 0 1-.739-.4A66.874 66.874 0 0 1 149.9 139.1a88.366 88.366 0 0 0 3.637 28.653 1 1 0 0 1-.2.921c-13.421 15.907-24.333 33.774-30.725 50.312a2.869 2.869 0 0 1-2.474 1.932h-.094zm93.863-147.536a99.744 99.744 0 0 0-20.861 2.229 104.786 104.786 0 0 0-52.255 28.7 108.014 108.014 0 0 0-13.433 16.389 104.115 104.115 0 0 0-10.249 19.646c-10.058 25.663-9.2 54.088 2.346 77.985.086.178.313.586.594.586h.011a.944.944 0 0 0 .691-.655c6.415-16.6 17.314-34.5 30.718-50.473-3.472-12.328-4.548-24.837-2.951-34.4a1 1 0 0 1 .967-.835h.02a1 1 0 0 1 .979.8 62.887 62.887 0 0 0 10.656 23.71 222.508 222.508 0 0 1 12.984-12.317c12.853-11.242 24.663-19.613 36.1-25.592 17.579-9.186 46.516-19.481 64.51-20.808a1.142 1.142 0 0 0 1.017-.641c.129-.373-.159-.738-.423-.979a87.911 87.911 0 0 0-26.289-16.549 93.136 93.136 0 0 0-35.132-6.796z" fill="#112c41"/><circle cx="151.717" cy="281.49" fill="#fff" r="11.5"/><path d="M151.69 293.994a12.5 12.5 0 0 1-12.268-10.256 12.474 12.474 0 1 1 12.268 10.256zm.049-23.007a10.671 10.671 0 0 0-1.911.174 10.514 10.514 0 0 0-8.44 12.218 10.5 10.5 0 1 0 10.351-12.392z" fill="#112c41"/><circle cx="334.954" cy="160.56" fill="#fff" r="11.5"/><path d="M334.928 173.064a12.508 12.508 0 0 1-12.27-10.256 12.5 12.5 0 1 1 14.542 10.048 12.715 12.715 0 0 1-2.272.208zm-10.3-10.616a10.5 10.5 0 1 0 8.44-12.217 10.432 10.432 0 0 0-8.44 12.217zM59.964 133.784q-1.794 0-3.585-.092c-16.968-.875-32.062-7.912-42.5-19.812C-8.73 88.113-3.147 45.283 26.322 18.405a1 1 0 0 1 1.348 1.479C-1 46.032-6.513 87.608 15.381 112.562c10.081 11.49 24.677 18.286 41.1 19.132 19.1.987 38.44-6.2 53.02-19.719a1 1 0 1 1 1.359 1.467 75.455 75.455 0 0 1-50.896 20.342z" fill="#112c41"/><path d="M114.454 109.405a63 63 0 1 0-89.079-1.728 63 63 0 0 0 89.079 1.728" fill="#9797f7"/><path d="M34.856 88.594a61.054 61.054 0 0 0 98.02-13.948A63.027 63.027 0 0 0 21.948 24.175a61.029 61.029 0 0 0 12.908 64.419z" fill="#b2b0f7"/><path d="M70.792 127.972a63.975 63.975 0 0 1-49.618-104.43 64.754 64.754 0 0 1 5.231-5.665 64 64 0 1 1 44.387 110.1zM70.765 2.03a61.791 61.791 0 0 0-42.972 17.288 62.7 62.7 0 0 0-5.07 5.489A62.079 62.079 0 1 0 70.765 2.03z" fill="#112c41"/></svg></g><g transform="translate(229.0 1608.0) rotate(0.0 295.5 21.5) scale(0.933649289099526 0.9347826086956522)"><svg width="633" height="46" viewBox="0 0 633 46"><ellipse cx="316.5" cy="23" fill="#cbc8ff" rx="316.5" ry="23"/></svg></g><g transform="translate(329.0 869.0) rotate(0.0 284.5 388.5) scale(0.8771510626785326 0.8785110763626249)"><svg width="648.691" height="884.451" viewBox="0 0 648.691 884.451"><path d="M167.66 685.149c-1.93 10.81-3.99 24.72-5.79 37.71-2.73 19.74-4.86 37.37-5.04 38.92-.01.07-.02.11-.02.11l-124.74 6.13-15.72.78h-.04v-.15c.17-9.09.83-24.48 1.42-39.54.7-17.67 1.31-34.88.93-40.96 0 0 5.44.23 14.41.49 29.25.85 96.09 2.01 134.59-3.49z" fill="#ffd6c0"/><path d="m33.07 688.639-1 79.38v.16c-3.81 2.77-12.58 8.56-15.41 9.97-.16-2.96-.27-6.1-.35-9.35v-.15c.36-19.75 3.05-69.24 2.35-80.5 0 0 5.44.23 14.41.49z" fill="#f5b9ab"/><path d="M222.578 840.54c-48.277 16.93-112.693 16.242-166.877 6.8a384.875 384.875 0 0 1-44.121-10.26s3.713-42.594 4.731-68.284l11.35-.526s128.812-6.27 129.152-6.376c9.97 5.059 55.314 31.015 65.765 78.646z" fill="#b2b0f7"/><path d="M130.445 854.916a440.072 440.072 0 0 1-74.916-6.586 384.965 384.965 0 0 1-44.236-10.292 1 1 0 0 1-.709-1.045c.037-.426 3.722-42.865 4.728-68.236a1 1 0 0 1 .953-.96l11.351-.525c1.266-.062 126.728-6.175 129.072-6.37a.993.993 0 0 1 .577.1c9.187 4.662 55.553 30.393 66.289 79.324a1 1 0 0 1-.645 1.158c-25.369 8.896-57.592 13.432-92.464 13.432zm-117.8-18.561a384.206 384.206 0 0 0 43.227 10c61.135 10.649 122.92 8.225 165.534-6.47-11.014-47.917-58.365-73.676-64.827-76.991-2.638.168-19.321 1.034-128.869 6.372l-10.438.483c-.972 23.536-4.116 60.66-4.626 66.606z" fill="#360815"/><path d="M11.58 837.08s3.713-42.594 4.731-68.284l14.017 1.88c1.993 22.383 4.575 57.4 15.207 74.951.112.184-20.554-4.527-33.955-8.547z" fill="#9797f7"/><path d="M84.63 853.9a2.5 2.5 0 0 1-2.5-2.462c-.606-40.576-33.887-72.671-64.591-77.191a2.5 2.5 0 1 1 .728-4.946c40.548 5.967 68.343 47.249 68.863 82.062a2.5 2.5 0 0 1-2.462 2.537z" fill="#fff"/><path d="M16.35 769.8a1.043 1.043 0 0 1-.709-.275 1.019 1.019 0 0 1-.331-.725v-.15c.138-7.364.593-18.781 1.075-30.869l.346-8.71c.654-16.507 1.319-34.639.931-40.859a1 1 0 0 1 1.04-1.061c.054 0 5.538.232 14.4.49 27.494.8 95.638 2.059 134.419-3.481a1 1 0 0 1 1.126 1.166c-1.673 9.372-3.619 22.047-5.784 37.671-2.615 18.92-4.753 36.459-5.037 38.9-.022.155-.041.231-.041.231a1.022 1.022 0 0 1-.923.762L16.4 769.8zm3.361-80.607c.27 7.138-.361 24.28-.982 39.956l-.346 8.712c-.462 11.582-.9 22.549-1.054 29.889l14.691-.728 123.9-6.089c.5-4.156 2.519-20.587 4.956-38.21 2.066-14.91 3.933-27.142 5.556-36.392-39.145 5.341-106.166 4.1-133.394 3.309-6.58-.192-11.304-.368-13.327-.448z" fill="#112c41"/><path d="M130.445 854.916a440.072 440.072 0 0 1-74.916-6.586 384.965 384.965 0 0 1-44.236-10.292 1 1 0 0 1-.709-1.045c.037-.426 3.722-42.865 4.728-68.236a1 1 0 0 1 .953-.96l11.351-.525c1.266-.062 126.728-6.175 129.072-6.37a.993.993 0 0 1 .577.1c9.187 4.662 55.553 30.393 66.289 79.324a1 1 0 0 1-.645 1.158c-25.369 8.896-57.592 13.432-92.464 13.432zm-117.8-18.561a384.206 384.206 0 0 0 43.227 10c61.135 10.649 122.92 8.225 165.534-6.47-11.014-47.917-58.365-73.676-64.827-76.991-2.638.168-19.321 1.034-128.869 6.372l-10.438.483c-.972 23.536-4.116 60.66-4.626 66.606z" fill="#112c41"/><path d="M226.012 863.438a4.932 4.932 0 0 1-1.9 4.143c-25.292 20.286-148.363 21.907-207.877.313-5.1-1.85-6.173-4.84-6.361-8.159l1.7-22.655c59.4 17.808 148.651 25.321 211 3.46 1.898 7.787 3.326 15.685 3.438 22.898z" fill="#fff"/><path d="M130.014 884.452c-44.576 0-87.05-5.8-114.115-15.618-5.854-2.124-6.833-5.763-7.018-9.042a.969.969 0 0 1 0-.132l1.7-22.655a1 1 0 0 1 1.284-.883c57.193 17.148 147.422 25.551 210.38 3.475a1 1 0 0 1 1.3.707c2.233 9.176 3.366 16.739 3.462 23.119a5.907 5.907 0 0 1-2.269 4.938c-12.042 9.66-47.189 15.822-91.725 16.082-.996.006-2 .009-2.999.009zM10.881 859.743c.192 3.159 1.247 5.595 5.7 7.211 29.469 10.693 72.776 15.514 112.495 15.515 43.084 0 81.949-5.669 94.415-15.668a3.949 3.949 0 0 0 1.52-3.348 102.141 102.141 0 0 0-3.148-21.606c-62.889 21.615-152.151 13.447-209.379-3.455z" fill="#112c41"/><path d="M17.73 729.109c47.47 2.45 108.98 2.26 144.14-6.25-2.73 19.74-4.86 37.37-5.04 38.92-.01.07-.02.11-.02.11-37.9 10.72-98.25 14.7-140.46 6.91a.06.06 0 0 0-.04-.01v-.14z" fill="#fff"/><path d="M67.04 773.844c-18.375 0-36.018-1.32-50.871-4.061l-.083-.019a1 1 0 0 1-.776-.975v-.14l1.421-39.576a1 1 0 0 1 .323-.7.985.985 0 0 1 .728-.262c22.843 1.179 100.728 4.216 143.852-6.223A1 1 0 0 1 162.86 723c-2.615 18.92-4.753 36.459-5.037 38.9-.022.155-.041.231-.041.231a1.031 1.031 0 0 1-.7.726c-25.315 7.155-58.738 10.986-90.042 10.987zm-49.7-5.882c39.683 7.139 98.916 4.21 138.567-6.857.446-3.747 2.394-19.615 4.777-36.94-12.9 2.935-55.569 10.378-141.987 6z" fill="#112c41"/><circle cx="144.556" cy="790.304" fill="#ffe993" r="8.5"/><path d="M145.916 792.923c15.3-.32 31.588-8.739 36.182-13.311a2.833 2.833 0 0 0-4-4.016c-3.527 3.51-19.059 11.705-33.188 11.671a2.832 2.832 0 1 0-.017 5.664c.342.002.683-.001 1.023-.008z" fill="#fff"/><path d="M145.067 793.932h-.174a3.832 3.832 0 0 1 .015-7.664H145c13.83 0 28.966-7.968 32.395-11.38a3.832 3.832 0 1 1 5.406 5.433c-4.727 4.7-21.09 13.272-36.867 13.6-.287.007-.578.011-.867.011zm-.159-5.665a1.836 1.836 0 0 0-1.835 1.827 1.832 1.832 0 0 0 1.827 1.837c.333 0 .663 0 .994-.009 15.031-.314 31.1-8.642 35.5-13.019a1.832 1.832 0 1 0-2.586-2.6c-3.6 3.585-19.432 11.961-33.807 11.961z" fill="#112c41"/><circle cx="161.744" cy="810.969" fill="#ffe993" r="8.5"/><path d="M163.181 813.547c15.285-.773 32.346-11.655 36.8-16.361a2.833 2.833 0 0 0-4.113-3.9c-3.421 3.613-19.734 14.248-33.859 14.634a2.832 2.832 0 0 0 .151 5.662c.34-.005.682-.018 1.021-.035z" fill="#fff"/><path d="M162.085 814.586a3.832 3.832 0 0 1-.1-7.662c14.063-.383 30.016-11 33.161-14.321a3.832 3.832 0 1 1 5.564 5.271c-4.183 4.417-21.474 15.862-37.478 16.671q-.522.027-1.043.04zm35.844-21.179a1.828 1.828 0 0 0-1.332.572c-3.281 3.464-19.915 14.545-34.557 14.944a1.832 1.832 0 0 0 .046 3.663h.05c.331-.009.663-.021.993-.038 15.443-.781 32.1-11.8 36.127-16.05a1.83 1.83 0 0 0-1.328-3.091z" fill="#112c41"/><path d="M431.621 772.323a835.418 835.418 0 0 0-4.062-38.9l-.017-.217c-.013-.085-.017-.167-.024-.23-1.7-13.24-3.329-26.1-4.848-37.309 0 0 92.618-8.256 142.266-19.1 1.393 12.525 2.48 22.895 3.407 36.2 1.6 22.877 2.9 42.418 2.9 42.418z" fill="#ffd6c0"/><path d="m437.134 685.665 10.154 84.9c-3.59 3.036-10.488 9-13.21 10.606C429.837 747.3 422.7 690.53 422.7 690.53z" fill="#f5b9ab"/><path d="M431.621 773.323a1 1 0 0 1-1-.919c-1.054-13.057-2.344-25.4-4.058-38.852l-.022-.264-.015-.139-.62-4.861c-1.49-11.643-2.9-22.641-4.23-32.485a1 1 0 0 1 .9-1.13c.925-.083 93.123-8.375 142.141-19.078a1 1 0 0 1 1.207.866c1.3 11.644 2.447 22.407 3.411 36.244 1.58 22.617 2.888 42.226 2.9 42.421a1 1 0 0 1-.876 1.059l-139.616 17.131a1.01 1.01 0 0 1-.122.007zM423.8 696.57c1.293 9.585 2.654 20.224 4.092 31.465l.616 4.816c0 .013.011.108.012.121l.018.155.017.231a825.273 825.273 0 0 1 3.977 37.846l137.651-16.889c-.28-4.18-1.455-21.673-2.839-41.471-.93-13.362-2.037-23.858-3.28-35.06-46.537 10.001-129.975 17.842-140.264 18.786z" fill="#112c41"/><path d="M642.57 828.833c-46.913 20.405-111.208 24.417-165.936 18.956a384.944 384.944 0 0 1-44.752-7.019s.6-42.751-.261-68.447l11.281-1.352s128.011-15.653 128.343-15.779c10.312 4.319 57.428 26.899 71.325 73.641z" fill="#b2b0f7"/><path d="M520.907 851c-14.6 0-29.473-.727-44.372-2.214a384.847 384.847 0 0 1-44.87-7.038 1 1 0 0 1-.784-.99c.006-.427.587-43.022-.259-68.4a1 1 0 0 1 .88-1.025l11.281-1.352c1.26-.155 125.923-15.4 128.263-15.767a1 1 0 0 1 .585.058c9.5 3.979 57.622 26.261 71.9 74.278a1 1 0 0 1-.561 1.2C611.186 843.574 567.517 851 520.907 851zm-88.015-11.029a384.09 384.09 0 0 0 43.842 6.825c61.755 6.162 123.192-.763 164.62-18.525-14.479-46.988-63.587-69.226-70.268-72.059-2.624.362-19.209 2.443-128.063 15.754l-10.373 1.243c.742 23.539.317 60.791.242 66.76z" fill="#360815"/><path d="M432.1 840.812s.6-42.75-.262-68.446l14.117.852c3.62 22.179 8.749 56.916 20.633 73.643.119.175-20.835-3.014-34.488-6.049z" fill="#9797f7"/><path d="M505.78 852.229a2.5 2.5 0 0 1-2.487-2.281c-1.426-16.174-9.732-34.01-22.219-47.713-13.592-14.913-30.5-23.593-47.613-24.44a2.5 2.5 0 1 1 .249-4.994c18.439.913 36.572 10.17 51.059 26.066 13.4 14.7 21.963 33.158 23.5 50.642a2.5 2.5 0 0 1-2.27 2.71c-.072.007-.146.01-.219.01z" fill="#fff"/><path d="M520.907 851c-14.6 0-29.473-.727-44.372-2.214a384.847 384.847 0 0 1-44.87-7.038 1 1 0 0 1-.784-.99c.006-.427.587-43.022-.259-68.4a1 1 0 0 1 .88-1.025l11.281-1.352c1.26-.155 125.923-15.4 128.263-15.767a1 1 0 0 1 .585.058c9.5 3.979 57.622 26.261 71.9 74.278a1 1 0 0 1-.561 1.2C611.186 843.574 567.517 851 520.907 851zm-88.015-11.029a384.09 384.09 0 0 0 43.842 6.825c61.755 6.162 123.192-.763 164.62-18.525-14.479-46.988-63.587-69.226-70.268-72.059-2.624.362-19.209 2.443-128.063 15.754l-10.373 1.243c.742 23.539.317 60.791.242 66.76z" fill="#112c41"/><path d="M647.665 851.419a4.932 4.932 0 0 1-1.587 4.271c-23.746 22.076-146.371 32.669-207.3 15.472-5.22-1.473-6.51-4.377-6.939-7.673l.044-22.719c60.536 13.429 150.1 14.412 210.688-11.937 2.456 7.627 4.458 15.401 5.094 22.586z" fill="#fff"/><path d="M516.911 880.73c-30.623 0-58.431-2.968-78.406-8.605-5.993-1.691-7.235-5.249-7.659-8.507a.95.95 0 0 1-.009-.131l.044-22.719a1 1 0 0 1 1.217-.974c58.291 12.931 148.892 14.729 210.073-11.878a1 1 0 0 1 1.351.61c2.9 8.99 4.576 16.449 5.139 22.805a5.914 5.914 0 0 1-1.9 5.09c-11.306 10.512-45.91 19.221-90.307 22.728a503.838 503.838 0 0 1-39.543 1.581zm-84.074-17.306c.421 3.137 1.652 5.49 6.211 6.776 62.9 17.753 183.856 5.67 206.349-15.243a3.951 3.951 0 0 0 1.272-3.45 102.268 102.268 0 0 0-4.716-21.319C580.81 856.331 491.19 854.7 432.879 842.013z" fill="#112c41"/><path d="M431.621 772.319c42.664 4.7 102.6-3.675 139.624-17.127 0 0-1.15-16.068-2.458-36.079-.044-.694-.1-1.4-.145-2.1s-.1-1.4-.144-2.11-.1-1.417-.152-2.132c-34.46 11.923-91.7 18.992-140.849 19.918 0 0 .012.1.023.284a1.28 1.28 0 0 0 .024.226 1.907 1.907 0 0 0 .017.22 835.287 835.287 0 0 1 4.06 38.9z" fill="#fff"/><path d="M457.417 774.611a239.164 239.164 0 0 1-25.906-1.3 1 1 0 0 1-.887-.914c-1.055-13.066-2.344-25.411-4.055-38.85a1.761 1.761 0 0 1-.021-.226 2.487 2.487 0 0 1-.023-.235 5.05 5.05 0 0 0-.021-.271 1.005 1.005 0 0 1 .974-1.124c53.409-1.006 108.574-8.8 140.541-19.863a1 1 0 0 1 1.324.874l.152 2.13c.044.713.093 1.407.144 2.1l.021.291c.043.61.087 1.219.125 1.823 1.293 19.776 2.446 35.91 2.457 36.071a1 1 0 0 1-.656 1.011c-31.54 11.462-76.615 18.483-114.169 18.483zm-24.867-3.2c40.078 4.225 98.887-3 137.644-16.9-.242-3.413-1.27-17.968-2.4-35.331-.038-.6-.081-1.2-.124-1.809l-.02-.282c-.052-.709-.1-1.411-.145-2.12l-.059-.826c-32.1 10.824-86.258 18.45-138.839 19.531 1.653 13.077 2.91 25.086 3.943 37.739z" fill="#112c41"/><circle cx="561.092" cy="784.42" fill="#ffe993" r="8.5"/><path d="M562.639 786.933c15.237-1.435 30.867-11.019 35.115-15.914a2.832 2.832 0 1 0-4.277-3.713c-3.262 3.757-18.155 13.063-32.249 14.06a2.832 2.832 0 1 0 .4 5.65c.334-.023.672-.051 1.011-.083z" fill="#fff"/><path d="M561.422 788.023a3.832 3.832 0 0 1-.266-7.655c13.818-.977 28.388-10.058 31.565-13.718a3.832 3.832 0 1 1 5.788 5.024c-4.371 5.036-20.065 14.775-35.776 16.255a45.99 45.99 0 0 1-1.04.085 4.157 4.157 0 0 1-.271.009zm34.196-20.69a1.831 1.831 0 0 0-1.387.63c-3.339 3.847-18.57 13.386-32.934 14.4a1.832 1.832 0 1 0 .256 3.656c.331-.023.663-.051.992-.081 14.969-1.41 30.387-10.889 34.455-15.575a1.831 1.831 0 0 0-1.382-3.032z" fill="#112c41"/><circle cx="579.742" cy="803.777" fill="#ffe993" r="8.5"/><path d="M581.363 806.243c15.188-1.886 31.41-13.983 35.512-19a2.832 2.832 0 1 0-4.386-3.585c-3.149 3.853-18.643 15.649-32.7 17.063a2.832 2.832 0 0 0 .563 5.636q.505-.051 1.011-.114z" fill="#fff"/><path d="M580.066 807.371a3.833 3.833 0 0 1-.38-7.646c14-1.408 29.134-13.161 32.028-16.7a3.833 3.833 0 1 1 5.935 4.851c-3.85 4.71-20.26 17.386-36.163 19.36-.345.042-.691.081-1.035.116-.13.012-.258.019-.385.019zm34.621-23.753a1.83 1.83 0 0 0-1.421.672c-3.02 3.7-18.8 15.959-33.376 17.425a1.832 1.832 0 1 0 .364 3.646c.329-.032.661-.07.99-.11 15.343-1.9 31.154-14.108 34.859-18.642a1.831 1.831 0 0 0-1.416-2.991z" fill="#112c41"/><path d="M565.06 677.679c-4.6 2.53-106.4 15.47-138.71 18.46-.8.07-1.74.15-2.74.23-4.51.37-10.5.78-12.95.78a9.852 9.852 0 0 1-6.71-2.27.6.6 0 0 1-.08-.08 8.888 8.888 0 0 1-2.55-4.42c-.17-.67-.34-1.34-.52-2.01-59.5-232.13-112.32-365.46-173.14-449.22-3.29 55.18-45 370-60.42 448.4-50.31 4.32-93.94 4.58-144.1 2.33-.01 0-.01-.01-.02-.01a116.221 116.221 0 0 1-11.58-1.38 41.709 41.709 0 0 1-5.88-1.34 6.413 6.413 0 0 1-4.32-3.66.318.318 0 0 1-.03-.09 6.42 6.42 0 0 1-.26-2.83c.12-1.08.24-2.16.35-3.23 24.52-225.31 28.74-291.94 18.26-407.19-12-132 12.04-198.85 69-241 39.84-29.48 110.8-38.01 171.88-14.96a179.446 179.446 0 0 1 44.12 23.96c161 120.151 238 437 260.4 639.53z" fill="#ffa9dc"/><path d="M410.66 698.149a10.906 10.906 0 0 1-7.372-2.521 2.078 2.078 0 0 1-.141-.134 9.866 9.866 0 0 1-2.8-4.866c-.169-.669-.338-1.335-.516-2-29.66-115.71-57.8-207.343-86.042-280.146-26.982-69.563-54.907-124.061-85.318-166.493-4.391 62.028-44.764 367-60.254 445.753a1 1 0 0 1-.9.8C120.128 692.6 77 693.3 23.1 690.878a.969.969 0 0 1-.141-.017c-1.916-.1-6.958-.586-11.585-1.386a41.971 41.971 0 0 1-6.033-1.375c-2.546-.853-4.208-2.286-4.939-4.26a1.406 1.406 0 0 1-.063-.2 7.3 7.3 0 0 1-.284-3.182l.036-.329c.108-.967.214-1.935.313-2.893 24.015-220.679 28.945-289.48 18.259-407-5.919-65.1-3.08-115.667 8.678-154.573C38.6 78.418 57.9 50.671 88.065 28.345c19.829-14.673 47.7-24.393 78.474-27.37a211.07 211.07 0 0 1 94.354 12.278 180.458 180.458 0 0 1 44.365 24.1c38.1 28.431 73.665 69.618 105.716 122.416 28.382 46.755 54.223 102.917 76.8 166.925 50.023 141.793 70.514 280.7 78.276 350.88a1 1 0 0 1-.512.987c-5.05 2.777-108.813 15.776-139.1 18.579-.807.071-1.75.151-2.752.231-4.744.384-10.615.778-13.026.778zm-6.052-4.024a8.859 8.859 0 0 0 6.052 2.024c2.354 0 8.159-.39 12.868-.776 1-.08 1.937-.161 2.735-.23 31.325-2.9 128.293-15.235 137.719-18.114-7.816-70.334-28.313-208.58-78.09-349.674-22.536-63.879-48.317-119.916-76.628-166.553-31.917-52.578-67.312-93.575-105.2-121.852a178.493 178.493 0 0 0-43.875-23.825 209.019 209.019 0 0 0-93.458-12.159C136.312 5.908 108.8 15.492 89.254 29.953c-29.806 22.056-48.871 49.476-60 86.292-11.683 38.655-14.5 88.968-8.6 153.814 10.7 117.7 5.77 186.557-18.262 407.388-.1.958-.206 1.93-.313 2.9l-.037.329a5.461 5.461 0 0 0 .211 2.393l.019.061v.009a5.446 5.446 0 0 0 3.7 3.059 40.355 40.355 0 0 0 5.73 1.3c4.626.8 9.826 1.293 11.459 1.367a.887.887 0 0 1 .135.016c53.5 2.395 96.336 1.715 143.1-2.269 15.835-81.136 56.989-392.7 60.258-447.528a1 1 0 0 1 1.807-.527c31.144 42.891 59.663 98.235 87.189 169.2 28.267 72.878 56.435 164.585 86.111 280.362.178.663.349 1.338.521 2.012a7.866 7.866 0 0 0 2.256 3.93c.03.022.05.039.07.064z" fill="#112c41"/><path d="M260.54 14.189c-50.35-14.65-100.25-2.51-142.88 27.96-57.31 40.98-78 91-75 218 2.89 122.23-1 162-29.06 420.33-.34 3.11 3.94 6.84 7.51 8.6a5.168 5.168 0 0 0 .55.07c-.15-.01-.29-.01-.44-.02a12.121 12.121 0 0 0 1.16.49l-1.55-.51c-3.37-.15-6.98-.42-9.29-.62-1.38-.11-2.3-.2-2.44-.22-.19-.04-6.32-.1-7.76-4.78a.318.318 0 0 1-.03-.09 7.34 7.34 0 0 1-.27-2.53c.01-.1.01-.2.01-.3.12-1.08.24-2.16.35-3.23 24.52-225.31 28.74-291.94 18.26-407.19-12-132 12.04-198.85 69-241 39.84-29.48 110.8-38.01 171.88-14.96zm164.74 682.25c-3.63.39-10.55.77-13.67 1.06q-.315.03-.57.06a8.4 8.4 0 0 1-7.09-2.68.6.6 0 0 1-.08-.08 9.617 9.617 0 0 1-2.13-3.77c-.26-.85-.57-1.74-.94-2.66-59.5-232.13-112.32-365.46-173.14-449.22 0-10 2-23 4-28 36 26 67.738 77.438 103 177 34 96 70.63 253.75 78.69 298.51 1.25 6.93 5.72 9.1 9.54 9.63.24.04.48.06.72.08a13.813 13.813 0 0 0 1.67.07z" fill="#ff90d8"/><g fill="#112c41"><path d="M227.661 240.149h-.051a1 1 0 0 1-.949-1.048c1.017-20.35 5.086-34.394 13.19-45.538a1 1 0 1 1 1.617 1.176c-7.862 10.811-11.812 24.523-12.809 44.462a1 1 0 0 1-.998.948z"/><path d="M410.66 698.149a10.906 10.906 0 0 1-7.372-2.521 2.078 2.078 0 0 1-.141-.134 9.866 9.866 0 0 1-2.8-4.866c-.169-.669-.338-1.335-.516-2-29.66-115.71-57.8-207.343-86.042-280.146-26.982-69.563-54.907-124.061-85.318-166.493-4.391 62.028-44.764 367-60.254 445.753a1 1 0 0 1-.9.8C120.128 692.6 77 693.3 23.1 690.878a.969.969 0 0 1-.141-.017c-1.916-.1-6.958-.586-11.585-1.386a41.971 41.971 0 0 1-6.033-1.375c-2.546-.853-4.208-2.286-4.939-4.26a1.406 1.406 0 0 1-.063-.2 7.3 7.3 0 0 1-.284-3.182l.036-.329c.108-.967.214-1.935.313-2.893 24.015-220.679 28.945-289.48 18.259-407-5.919-65.1-3.08-115.667 8.678-154.573C38.6 78.418 57.9 50.671 88.065 28.345c19.829-14.673 47.7-24.393 78.474-27.37a211.07 211.07 0 0 1 94.354 12.278 180.458 180.458 0 0 1 44.365 24.1c38.1 28.431 73.665 69.618 105.716 122.416 28.382 46.755 54.223 102.917 76.8 166.925 50.023 141.793 70.514 280.7 78.276 350.88a1 1 0 0 1-.512.987c-5.05 2.777-108.813 15.776-139.1 18.579-.807.071-1.75.151-2.752.231-4.744.384-10.615.778-13.026.778zm-6.052-4.024a8.859 8.859 0 0 0 6.052 2.024c2.354 0 8.159-.39 12.868-.776 1-.08 1.937-.161 2.735-.23 31.325-2.9 128.293-15.235 137.719-18.114-7.816-70.334-28.313-208.58-78.09-349.674-22.536-63.879-48.317-119.916-76.628-166.553-31.917-52.578-67.312-93.575-105.2-121.852a178.493 178.493 0 0 0-43.875-23.825 209.019 209.019 0 0 0-93.458-12.159C136.312 5.908 108.8 15.492 89.254 29.953c-29.806 22.056-48.871 49.476-60 86.292-11.683 38.655-14.5 88.968-8.6 153.814 10.7 117.7 5.77 186.557-18.262 407.388-.1.958-.206 1.93-.313 2.9l-.037.329a5.461 5.461 0 0 0 .211 2.393l.019.061v.009a5.446 5.446 0 0 0 3.7 3.059 40.355 40.355 0 0 0 5.73 1.3c4.626.8 9.826 1.293 11.459 1.367a.887.887 0 0 1 .135.016c53.5 2.395 96.336 1.715 143.1-2.269 15.835-81.136 56.989-392.7 60.258-447.528a1 1 0 0 1 1.807-.527c31.144 42.891 59.663 98.235 87.189 169.2 28.267 72.878 56.435 164.585 86.111 280.362.178.663.349 1.338.521 2.012a7.866 7.866 0 0 0 2.256 3.93c.03.022.05.039.07.064z"/></g></svg></g><g transform="translate(246.0 583.0) rotate(0.0 285.0 201.0) scale(0.8813324509700841 0.8799772344198061)"><svg width="646.748" height="456.83" viewBox="0 0 646.748 456.83"><path d="M94.139 71.547c-.555 2.209-.795 4.819-.726 7.771.673 32.387 36.832 105.699 67.352 137.163.784-2.785 1.942-5.203 3.415-7.249 3.4-4.786 8.491-7.59 14.51-8.393 4.93-.668 10.475.012 16.241 2.047 14.75 53.893 56.051 100.246 114.173 120.075 61.181 20.876 125.557 7.095 170.652-30.743 3.333 4.022 6.287 8.573 8.776 12.945 2.345 4.112 4.28 8.077 5.754 11.314 2.106 4.666 3.256 7.844 3.256 7.844 24.94-1.023 67.11-15.233 100.107-31.64 26.918-13.392 47.736-28.237 48.09-38.581.501-14.495-20.002-46.533-56.941-81.749-35.811-34.131-87.062-71.255-149.625-98.297a502.598 502.598 0 0 0-10.117-4.25c-14.887-6.054-30.38-11.526-46.426-16.237-.008-.003-.016-.006-.028-.001a4.09 4.09 0 0 0-.308-.099.17.17 0 0 1-.068-.017l-.008-.003c-7.598-2.231-15.343-4.153-23.153-6.147-5.484-1.404-11.214-2.678-17.148-3.833-79.592-15.507-195.236-9.063-239.971 18.563-4.358 2.693-6.866 5.782-7.807 9.517z" fill="#ffe993"/><path d="M367.547 333.685c-19.838 0-39.728-3.28-58.766-9.777-56.303-19.208-99.136-64.136-114.675-120.249-5.37-1.825-10.645-2.458-15.282-1.829-5.898.788-10.68 3.548-13.829 7.982-1.433 1.988-2.531 4.321-3.269 6.94a.998.998 0 0 1-1.68.425c-30.929-31.886-66.958-105.314-67.634-137.838-.07-3.051.184-5.755.757-8.036v-.001c1.01-4.005 3.708-7.315 8.25-10.121 21.274-13.138 59.405-22.23 107.369-25.604 45.696-3.214 94.288-.696 133.319 6.909 6.044 1.177 11.833 2.471 17.204 3.846l3.231.823c6.583 1.674 13.39 3.405 19.956 5.333a6.262 6.262 0 0 1 .35.104l.062.016c15.541 4.562 31.193 10.037 46.521 16.271a500.32 500.32 0 0 1 10.137 4.258c54.964 23.757 108.206 58.735 149.918 98.491 34.802 33.179 57.81 66.336 57.25 82.508-.479 13.994-34.178 32.245-48.644 39.442-35.648 17.725-76.98 30.778-100.511 31.743a1.002 1.002 0 0 1-.981-.659c-.011-.031-1.164-3.202-3.227-7.773-1.822-4.002-3.744-7.781-5.711-11.229-2.61-4.586-5.313-8.626-8.043-12.025-22.509 18.657-49.792 31.428-78.972 36.956a177.937 177.937 0 0 1-33.1 3.094zm-185.125-134.09c4.067 0 8.437.794 12.842 2.349a.998.998 0 0 1 .631.679c15.247 55.708 57.688 100.341 113.532 119.393 29.367 10.02 60.782 12.305 90.849 6.61 29.182-5.528 56.443-18.382 78.838-37.172a1.001 1.001 0 0 1 1.413.128c3.02 3.644 6.006 8.048 8.875 13.089 1.996 3.5 3.946 7.333 5.795 11.394a134.42 134.42 0 0 1 3.026 7.227c23.399-1.188 63.921-14.07 98.981-31.503 29.458-14.656 47.229-28.757 47.536-37.72.245-7.093-4.818-18.638-14.258-32.507-10.254-15.066-24.906-31.832-42.374-48.484-41.545-39.597-94.58-74.437-149.332-98.102a496.544 496.544 0 0 0-10.098-4.242c-15.239-6.197-30.799-11.641-46.249-16.18a1.03 1.03 0 0 1-.181-.049 2.636 2.636 0 0 0-.213-.068 1.527 1.527 0 0 1-.164-.047c-6.468-1.896-13.257-3.624-19.822-5.293l-3.233-.824a302.243 302.243 0 0 0-17.091-3.82c-38.866-7.572-87.268-10.078-132.796-6.877-47.647 3.351-85.455 12.339-106.459 25.31-4.078 2.519-6.486 5.433-7.362 8.909-.529 2.106-.763 4.631-.697 7.504.66 31.753 35.502 103.04 65.907 135.274.769-2.189 1.791-4.175 3.049-5.921 3.474-4.893 8.728-7.938 15.188-8.8a28.252 28.252 0 0 1 3.867-.257zM382.629 53.568h.01z" fill="#112c41"/><path d="M94.139 71.547c-.555 2.209-.795 4.819-.726 7.771.505 5.578 1.621 11.707 3.156 17.743.673-3.865.803-11.916 3.706-13.2 85.751-37.907 183.363-45.652 262.54-33.706a449.51 449.51 0 0 1 19.786 3.411c.011-.005.019-.002.028.001l-.336-.1a.17.17 0 0 1-.068-.017l-.008-.003a459.772 459.772 0 0 0-23.153-6.147 594.158 594.158 0 0 0-17.148-3.833C262.324 27.96 146.68 34.404 101.945 62.03c-4.357 2.693-6.865 5.782-7.806 9.517z" fill="#ffd169"/><path d="M189.372 170.271c4.682 67.2 50.146 128.952 119.734 152.692 67.1 22.891 138.046 4.101 183.177-42.391" fill="#ffe993"/><path d="M367.217 333.608a180.9 180.9 0 0 1-58.434-9.698c-33.863-11.552-63.144-32.433-84.676-60.385-21.031-27.301-33.387-59.523-35.732-93.185a1 1 0 1 1 1.995-.139c2.317 33.267 14.532 65.115 35.322 92.103 21.292 27.639 50.248 48.288 83.737 59.713 64.45 21.986 135.943 5.446 182.137-42.142a1 1 0 0 1 1.435 1.393c-33.006 34.002-78.783 52.34-125.784 52.34z" fill="#112c41"/><path d="M189.369 169.657s1.474 13.74 4.651 27.05c.336 1.369.667 2.724 1.033 4.082l.25.489a205.419 205.419 0 0 0 4.443 14.042l1.087 2.862c20.722 54.832 68.472 98.073 130.513 110.508 23.089 4.625 46.056 4.572 67.894.483-81.362 7.808-153.091-45.635-183.537-133.123-2.357-6.774-19.51-24.168-26.334-26.393z" fill="#ffd169"/><g fill="#112c41"><path d="M367.547 333.685c-19.838 0-39.728-3.28-58.766-9.777-56.303-19.208-99.136-64.136-114.675-120.249-5.37-1.825-10.645-2.458-15.282-1.829-5.898.788-10.68 3.548-13.829 7.982-1.433 1.988-2.531 4.321-3.269 6.94a.998.998 0 0 1-1.68.425c-30.929-31.886-66.958-105.314-67.634-137.838-.07-3.051.184-5.755.757-8.036v-.001c1.01-4.005 3.708-7.315 8.25-10.121 21.274-13.138 59.405-22.23 107.369-25.604 45.696-3.214 94.288-.696 133.319 6.909 6.044 1.177 11.833 2.471 17.204 3.846l3.231.823c6.583 1.674 13.39 3.405 19.956 5.333a6.262 6.262 0 0 1 .35.104l.062.016c15.541 4.562 31.193 10.037 46.521 16.271a500.32 500.32 0 0 1 10.137 4.258c54.964 23.757 108.206 58.735 149.918 98.491 34.802 33.179 57.81 66.336 57.25 82.508-.479 13.994-34.178 32.245-48.644 39.442-35.648 17.725-76.98 30.778-100.511 31.743a1.002 1.002 0 0 1-.981-.659c-.011-.031-1.164-3.202-3.227-7.773-1.822-4.002-3.744-7.781-5.711-11.229-2.61-4.586-5.313-8.626-8.043-12.025-22.509 18.657-49.792 31.428-78.972 36.956a177.937 177.937 0 0 1-33.1 3.094zm-185.125-134.09c4.067 0 8.437.794 12.842 2.349a.998.998 0 0 1 .631.679c15.247 55.708 57.688 100.341 113.532 119.393 29.367 10.02 60.782 12.305 90.849 6.61 29.182-5.528 56.443-18.382 78.838-37.172a1.001 1.001 0 0 1 1.413.128c3.02 3.644 6.006 8.048 8.875 13.089 1.996 3.5 3.946 7.333 5.795 11.394a134.42 134.42 0 0 1 3.026 7.227c23.399-1.188 63.921-14.07 98.981-31.503 29.458-14.656 47.229-28.757 47.536-37.72.245-7.093-4.818-18.638-14.258-32.507-10.254-15.066-24.906-31.832-42.374-48.484-41.545-39.597-94.58-74.437-149.332-98.102a496.544 496.544 0 0 0-10.098-4.242c-15.239-6.197-30.799-11.641-46.249-16.18a1.03 1.03 0 0 1-.181-.049 2.636 2.636 0 0 0-.213-.068 1.527 1.527 0 0 1-.164-.047c-6.468-1.896-13.257-3.624-19.822-5.293l-3.233-.824a302.243 302.243 0 0 0-17.091-3.82c-38.866-7.572-87.268-10.078-132.796-6.877-47.647 3.351-85.455 12.339-106.459 25.31-4.078 2.519-6.486 5.433-7.362 8.909-.529 2.106-.763 4.631-.697 7.504.66 31.753 35.502 103.04 65.907 135.274.769-2.189 1.791-4.175 3.049-5.921 3.474-4.893 8.728-7.938 15.188-8.8a28.252 28.252 0 0 1 3.867-.257zM382.629 53.568h.01z"/><path d="M367.217 333.608a180.9 180.9 0 0 1-58.434-9.698c-33.863-11.552-63.144-32.433-84.676-60.385-21.031-27.301-33.387-59.523-35.732-93.185a1 1 0 1 1 1.995-.139c2.317 33.267 14.532 65.115 35.322 92.103 21.292 27.639 50.248 48.288 83.737 59.713 64.45 21.986 135.943 5.446 182.137-42.142a1 1 0 0 1 1.435 1.393c-33.006 34.002-78.783 52.34-125.784 52.34zM101.908 83.117c2.343 14.759 11.579 40.005 25.266 67.373 12.938 25.857 26.748 47.401 37.006 58.743 3.385-4.773 8.457-7.575 14.448-8.379a.413.413 0 0 1 .061-.014c-3.131-15.07-11.974-38.529-24.611-63.804-13.408-26.803-27.75-48.961-38.109-59.941l-.008-.003c-5.396-5.717-9.708-8.403-12.251-7.131-2.438 1.218-2.949 5.931-1.802 13.156z"/><path d="m164.274 210.828-.836-.924c-10.727-11.861-24.618-33.905-37.159-58.967-13.209-26.411-22.926-52.338-25.359-67.663-1.29-8.127-.523-12.774 2.343-14.208 2.947-1.475 7.285.873 13.266 7.17h.001l.167.172c10.891 11.544 25.2 34.041 38.276 60.18 12.201 24.402 21.433 48.345 24.695 64.047l.226 1.088-1.133.121c-5.869.788-10.628 3.543-13.766 7.967zM102.895 82.96c2.403 15.137 12.049 40.841 25.173 67.082 12.15 24.282 25.549 45.684 36.047 57.616 3.256-4.062 7.842-6.684 13.376-7.642-3.411-15.551-12.443-38.806-24.307-62.533-12.741-25.471-27.207-48.257-37.799-59.55l-.151-.155c-7.212-7.641-10.149-7.389-11.077-6.923-1.874.937-2.334 5.349-1.262 12.105zm385.637 222.204c2.345 4.112 4.28 8.077 5.754 11.314 14.276-.247 41.809-7.421 72.21-19.454 26.888-10.646 49.545-22.525 61.742-31.765 7.024-5.318 10.575-9.766 9.457-12.587-1.173-2.972-7.33-3.717-16.86-2.555-15.302 1.855-39.298 8.605-65.404 18.942a436.493 436.493 0 0 0-12.679 5.241c-25.448 10.983-45.63 22.574-54.22 30.864z"/><path d="m493.648 317.489-.272-.597c-1.824-4.005-3.746-7.784-5.712-11.232l-.385-.675.56-.54c8.842-8.534 29.222-20.146 54.516-31.062a435.873 435.873 0 0 1 12.708-5.253c25.172-9.968 49.715-17.072 65.651-19.005 10.545-1.286 16.571-.216 17.911 3.18 1.284 3.237-2.007 7.864-9.783 13.751-12.743 9.653-35.913 21.577-61.978 31.897-29.771 11.784-57.574 19.265-72.561 19.524zm-3.86-12.136a142.201 142.201 0 0 1 5.133 10.109c14.719-.461 42.523-8.014 71.207-19.368 25.906-10.257 48.899-22.083 61.506-31.633 9.482-7.179 9.544-10.378 9.13-11.421-.437-1.108-2.852-3.511-15.81-1.931-15.777 1.913-40.135 8.971-65.157 18.879a438.896 438.896 0 0 0-12.594 5.204c-24.613 10.625-44.45 21.836-53.415 30.161zM353.675 53.764c-3.277 9.872 11.017 23.496 31.92 30.419 20.911 6.926 40.507 4.524 43.776-5.351.699-2.098.599-4.38-.19-6.719a502.598 502.598 0 0 0-10.117-4.25c-15.018-6.104-30.644-11.618-46.83-16.354l-.008-.003a463.126 463.126 0 0 0-13.675-3.478c-2.413 1.47-4.103 3.395-4.876 5.736z"/><path d="M408.328 89.144c-7.108 0-15.086-1.375-23.048-4.012-10.247-3.394-19.268-8.482-25.403-14.329-6.326-6.029-8.866-12.192-7.152-17.354.836-2.528 2.621-4.64 5.304-6.276.225-.137.495-.18.752-.119a466.824 466.824 0 0 1 13.705 3.485c.021.006.043.012.064.02 15.639 4.578 31.415 10.088 46.889 16.377 3.28 1.335 6.69 2.768 10.138 4.258.26.113.46.33.551.599.881 2.615.945 5.089.191 7.354-1.709 5.163-7.427 8.592-16.1 9.653-1.877.23-3.848.344-5.891.344zm-49.601-40.047c-2.076 1.347-3.455 3.021-4.103 4.981v.001c-1.457 4.387.899 9.812 6.633 15.276 5.925 5.646 14.68 10.575 24.652 13.878 9.974 3.303 19.942 4.578 28.067 3.582 7.862-.962 12.992-3.909 14.445-8.298.575-1.728.556-3.632-.055-5.667a505.946 505.946 0 0 0-9.68-4.061c-15.424-6.269-31.147-11.759-46.734-16.32l-.028-.009a462.889 462.889 0 0 0-13.197-3.363zm-5.052 4.667h.01z"/></g><path d="M565.941 454.996c92.074-13.228 88.581-147.318 64.19-204.915-11.333-.422-31.164 3.626-64.027 15.072-7.231 2.518-13.872 5.577-13.825 5.779-54.113-141.577 52.093-178.737 72.72-195.754 18.806-15.516-9.005-31.967-33.203-17.922 17.183-33.338-10.225-60.974-21.054-41.24.027-8.954-10.928-27.994-32.125-1.446-36.658 45.912-83.901 32.349-121.469 120.101-53.831 125.742 39.329 336.051 148.793 320.325z" fill="#ffd6c0"/><path d="M554.378 456.822c-32.888 0-65.902-19.674-94.103-56.428-26.052-33.952-46.012-80.677-54.762-128.196-9.374-50.902-5.568-99.883 10.716-137.92 23.417-54.7 50.458-70.188 76.607-85.166 16.036-9.185 31.183-17.861 45-35.166C549.074-.13 557.166-1.066 561.979.627c5.474 1.927 8.539 7.788 9.462 12.493 3.727-4.797 9.04-6.052 14.375-3.214 9.687 5.153 17.678 23.848 8.203 45.036 6.543-3.176 13.717-4.531 20.492-3.833 7.001.721 12.899 3.619 15.775 7.752 3.667 5.271 1.929 11.66-4.651 17.088-2.883 2.378-7.256 5.051-12.793 8.435-34.309 20.97-105.587 64.539-60.049 185.084.725-.36 1.771-.827 3.273-1.476a149 149 0 0 1 9.709-3.785c30.162-10.504 51.818-15.594 64.393-15.127.388.015.732.252.884.609 8.837 20.868 14.365 50.256 14.788 78.612.632 42.473-9.543 69.656-18.191 84.98-13.796 24.449-34.51 38.816-61.565 42.703l-.142-.99.142.99a82.037 82.037 0 0 1-11.706.838zm3.853-454.827c-5.443 0-11.88 4.492-18.833 13.2-14.055 17.603-29.362 26.371-45.568 35.653-25.864 14.814-52.608 30.133-75.762 84.217-16.131 37.679-19.892 86.252-10.588 136.771 8.695 47.218 28.517 93.632 54.382 127.341 27.807 36.238 60.275 55.642 92.529 55.644 3.811 0 7.612-.27 11.408-.815 26.409-3.794 46.632-17.826 60.108-41.706 27.843-49.341 18.624-125.065 3.551-161.238-12.389-.259-33.606 4.79-63.025 15.035-6.507 2.266-12.535 4.982-13.443 5.539a.999.999 0 0 1-1.645-.347c-20.212-52.881-20.278-97.48-.195-132.559 16.717-29.2 43.155-45.359 60.649-56.051 5.47-3.343 9.79-5.983 12.563-8.272 5.774-4.764 7.335-10.014 4.282-14.403-7.057-10.142-25.925-7.931-36.346-1.882a.999.999 0 0 1-1.391-1.323c10.918-21.183 3.364-40.129-6.031-45.126-5.141-2.736-10.098-.932-13.258 4.826a1 1 0 0 1-1.876-.484c.014-4.412-2.908-11.557-8.427-13.5a9.214 9.214 0 0 0-3.084-.52zm-4.975 268.724zm-.002-.006.001.005-.001-.005zm-.001-.007.001.006-.001-.006z" fill="#112c41"/><path d="M565.941 454.996c19.102-2.74 34.284-11.011 46.096-22.894-5.989 2.975-12.57 5.283-19.784 6.828-107.62 23.033-215.408-178.315-171.032-306.204 4.277-12.325 8.879-22.755 13.716-31.699-6.102 9.237-12.055 20.262-17.788 33.646-53.834 125.738 39.327 336.048 148.792 320.323z" fill="#f5b9ab"/><path d="M548.499 60.912a1 1 0 0 1-.546-1.838c13.793-8.967 21.125-23.465 21.79-43.09a1 1 0 0 1 1.999.067c-.688 20.316-8.325 35.356-22.699 44.7a.996.996 0 0 1-.544.161zm23.515 20.235a1 1 0 0 1-.647-1.763c8.159-6.917 14.743-14.534 19.569-22.639a1.001 1.001 0 0 1 1.719 1.023c-4.939 8.295-11.666 16.082-19.995 23.141a.992.992 0 0 1-.646.238zm24.839 264.444a.996.996 0 0 1-.732-.319c-22.861-24.577-34.886-49.648-44.474-73.08a1 1 0 0 1 1.85-.758c9.517 23.256 21.445 48.133 44.088 72.475a1.001 1.001 0 0 1-.732 1.682zm-67.845-178.634c-14.659 0-33.471-2.387-53.053-6.736-36.81-8.175-73.416-23.25-70.956-34.324.96-4.323 7.337-6.88 18.955-7.599a1 1 0 1 1 .124 1.996c-10.172.63-16.414 2.83-17.126 6.037-1.688 7.601 25.811 22.249 69.438 31.938 19.442 4.318 38.101 6.688 52.618 6.688l.511-.001c13.735-.053 22.446-2.381 23.3-6.229.496-2.231-1.592-5.136-6.037-8.401a1 1 0 1 1 1.184-1.611c5.206 3.824 7.495 7.338 6.805 10.446-1.414 6.367-14.509 7.753-25.245 7.795l-.518.001zm-47.529 33.397c-3.844 0-7.754-.067-11.705-.203-21.217-.73-41.108-3.356-56.01-7.393-10.84-2.937-23.711-7.908-23.47-14.913.153-4.456 5.532-8.239 15.985-11.246a.997.997 0 0 1 1.237.685.999.999 0 0 1-.685 1.237c-9.259 2.663-14.422 5.999-14.539 9.392-.148 4.315 8.074 9.143 21.994 12.914 14.757 3.998 34.487 6.599 55.555 7.324 21.069.725 40.93-.513 55.928-3.488 14.146-2.806 22.681-7.057 22.83-11.371.093-2.699-3.161-5.702-9.164-8.458a1 1 0 0 1 .835-1.817c6.979 3.204 10.454 6.685 10.328 10.344-.241 7.005-13.423 11.079-24.439 13.264-12.323 2.444-27.879 3.729-44.68 3.729z" fill="#112c41"/><path d="M554.378 456.822c-32.888 0-65.902-19.674-94.103-56.428-26.052-33.952-46.012-80.677-54.762-128.196-9.374-50.902-5.568-99.883 10.716-137.92 23.417-54.7 50.458-70.188 76.607-85.166 16.036-9.185 31.183-17.861 45-35.166C549.074-.13 557.166-1.066 561.979.627c5.474 1.927 8.539 7.788 9.462 12.493 3.727-4.797 9.04-6.052 14.375-3.214 9.687 5.153 17.678 23.848 8.203 45.036 6.543-3.176 13.717-4.531 20.492-3.833 7.001.721 12.899 3.619 15.775 7.752 3.667 5.271 1.929 11.66-4.651 17.088-2.883 2.378-7.256 5.051-12.793 8.435-34.309 20.97-105.587 64.539-60.049 185.084.725-.36 1.771-.827 3.273-1.476a149 149 0 0 1 9.709-3.785c30.162-10.504 51.818-15.594 64.393-15.127.388.015.732.252.884.609 8.837 20.868 14.365 50.256 14.788 78.612.632 42.473-9.543 69.656-18.191 84.98-13.796 24.449-34.51 38.816-61.565 42.703l-.142-.99.142.99a82.037 82.037 0 0 1-11.706.838zm3.853-454.827c-5.443 0-11.88 4.492-18.833 13.2-14.055 17.603-29.362 26.371-45.568 35.653-25.864 14.814-52.608 30.133-75.762 84.217-16.131 37.679-19.892 86.252-10.588 136.771 8.695 47.218 28.517 93.632 54.382 127.341 27.807 36.238 60.275 55.642 92.529 55.644 3.811 0 7.612-.27 11.408-.815 26.409-3.794 46.632-17.826 60.108-41.706 27.843-49.341 18.624-125.065 3.551-161.238-12.389-.259-33.606 4.79-63.025 15.035-6.507 2.266-12.535 4.982-13.443 5.539a.999.999 0 0 1-1.645-.347c-20.212-52.881-20.278-97.48-.195-132.559 16.717-29.2 43.155-45.359 60.649-56.051 5.47-3.343 9.79-5.983 12.563-8.272 5.774-4.764 7.335-10.014 4.282-14.403-7.057-10.142-25.925-7.931-36.346-1.882a.999.999 0 0 1-1.391-1.323c10.918-21.183 3.364-40.129-6.031-45.126-5.141-2.736-10.098-.932-13.258 4.826a1 1 0 0 1-1.876-.484c.014-4.412-2.908-11.557-8.427-13.5a9.214 9.214 0 0 0-3.084-.52zm-4.975 268.724zm-.002-.006.001.005-.001-.005zm-.001-.007.001.006-.001-.006z" fill="#112c41"/><ellipse cx="343.717" cy="291.421" fill="#ffd6c0" rx="46.137" ry="20.199" transform="matrix(.866 -.5 .5 .866 -99.6612 210.9017)"/><path d="M318.017 321.392c-7.163 0-12.596-2.098-15.091-6.419-5.934-10.278 7.336-28.673 30.209-41.879 22.874-13.207 45.438-15.5 51.373-5.222 5.934 10.278-7.336 28.673-30.209 41.879-13.256 7.652-26.411 11.641-36.282 11.641zm51.506-58.024c-9.506 0-22.516 3.945-35.422 11.396-21.571 12.454-34.806 30.059-29.503 39.244 5.303 9.186 27.167 6.524 48.737-5.929 21.571-12.454 34.806-30.058 29.503-39.243-2.131-3.69-6.934-5.468-13.315-5.468z" fill="#112c41"/><path d="M195.948 389.308c14.696 1.98 28.678 2.771 41.926 3.038 47.079.978 84.897-4.612 112.764 13.124 25.312 16.105 42.261 14.954 44.111-3.83 16.392 7.695 28.697-16.798 15.179-42.016 10.154 8.415 20.131 9.236 24.653 1.709 11.588-19.288-19.655-68.54-109.295-81.715-118.38-17.399-164.809-39.194-163.992-61.317.524-14.065 16.236-17.241 17.334-17.447a.413.413 0 0 1 .061-.014c-3.131-15.07-11.974-38.529-24.611-63.804-13.408-26.803-27.75-48.961-38.109-59.941l-.008-.003c-4.845 1.963-9.568 3.878-14.053 6.025-12.312 5.895-23.385 12.218-33.288 18.903-141.751 95.672-42.009 264.518 127.328 287.288z" fill="#ffd6c0"/><path d="M379.767 417.722c-7.719 0-17.787-3.85-29.666-11.408-21.398-13.62-49.525-13.314-82.096-12.962-9.651.105-19.633.212-30.153-.006-15.586-.314-28.944-1.283-42.038-3.046-48.035-6.459-92.142-24.681-127.551-52.695-33.702-26.663-56.761-60.556-64.928-95.435-6.014-25.681-3.976-50.627 6.058-74.145 10.829-25.382 30.567-47.868 58.667-66.834 10.062-6.793 21.305-13.178 33.415-18.977 4.53-2.168 9.4-4.142 14.11-6.05a.997.997 0 0 1 .727-.01c.143.054.279.142.384.253 10.892 11.544 25.2 34.041 38.276 60.18 12.201 24.402 21.433 48.345 24.695 64.047a.997.997 0 0 1-.85 1.195c-2.084.411-16.045 3.598-16.525 16.507-.609 16.477 27.2 40.312 163.138 60.291 64.006 9.407 98.205 36.838 108.867 59.372 4.394 9.288 4.799 17.756 1.14 23.848-1.807 3.008-4.518 4.897-7.84 5.463-4.404.75-9.616-.799-14.952-4.396 6.822 15.479 4.317 29.941-2.161 36.773-4.046 4.266-9.416 5.466-14.9 3.391-.914 6.447-3.68 10.833-8.232 13.049-2.187 1.066-4.725 1.595-7.585 1.595zm-96.822-26.48c26.576 0 49.724 1.606 68.23 13.384 15.438 9.824 27.977 13.271 35.301 9.704 4.194-2.042 6.643-6.344 7.278-12.789a1 1 0 0 1 1.42-.807c5.158 2.421 10.081 1.561 13.858-2.422 6.508-6.863 8.602-22.194.014-38.216a1 1 0 0 1 1.52-1.243c5.936 4.919 12.021 7.285 16.696 6.486 2.769-.472 4.942-1.993 6.461-4.522 3.256-5.419 2.806-13.424-1.233-21.962-10.44-22.066-44.125-48.956-107.35-58.249-110.313-16.213-165.775-37.188-164.846-62.344.229-6.138 3.314-11.232 8.922-14.732 3.312-2.067 6.635-3.056 8.288-3.456-3.401-15.551-12.44-38.834-24.32-62.592-12.614-25.216-26.918-47.801-37.48-59.208-4.484 1.817-9.091 3.698-13.364 5.743-12.022 5.757-23.179 12.092-33.16 18.831-27.775 18.747-47.271 40.939-57.946 65.961-9.863 23.117-11.865 47.646-5.95 72.903 8.065 34.441 30.873 67.938 64.222 94.322 35.128 27.791 78.898 45.87 126.577 52.281 13.016 1.754 26.302 2.716 41.812 3.029 10.489.219 20.454.11 30.09.006 5.096-.054 10.086-.108 14.96-.108z" fill="#112c41"/><path d="M195.948 389.308c14.696 1.98 28.678 2.771 41.926 3.038-14.958-2.052-30.835-4.782-47.465-9.212C38.317 342.584-39.501 186.529 68.62 102.02c-141.751 95.672-42.009 264.518 127.328 287.288z" fill="#f5b9ab"/><path d="M379.767 417.722c-7.719 0-17.787-3.85-29.666-11.408-21.398-13.62-49.525-13.314-82.096-12.962-9.651.105-19.633.212-30.153-.006-15.586-.314-28.944-1.283-42.038-3.046-48.035-6.459-92.142-24.681-127.551-52.695-33.702-26.663-56.761-60.556-64.928-95.435-6.014-25.681-3.976-50.627 6.058-74.145 10.829-25.382 30.567-47.868 58.667-66.834 10.062-6.793 21.305-13.178 33.415-18.977 4.53-2.168 9.4-4.142 14.11-6.05a.997.997 0 0 1 .727-.01c.143.054.279.142.384.253 10.892 11.544 25.2 34.041 38.276 60.18 12.201 24.402 21.433 48.345 24.695 64.047a.997.997 0 0 1-.85 1.195c-2.084.411-16.045 3.598-16.525 16.507-.609 16.477 27.2 40.312 163.138 60.291 64.006 9.407 98.205 36.838 108.867 59.372 4.394 9.288 4.799 17.756 1.14 23.848-1.807 3.008-4.518 4.897-7.84 5.463-4.404.75-9.616-.799-14.952-4.396 6.822 15.479 4.317 29.941-2.161 36.773-4.046 4.266-9.416 5.466-14.9 3.391-.914 6.447-3.68 10.833-8.232 13.049-2.187 1.066-4.725 1.595-7.585 1.595zm-96.822-26.48c26.576 0 49.724 1.606 68.23 13.384 15.438 9.824 27.977 13.271 35.301 9.704 4.194-2.042 6.643-6.344 7.278-12.789a1 1 0 0 1 1.42-.807c5.158 2.421 10.081 1.561 13.858-2.422 6.508-6.863 8.602-22.194.014-38.216a1 1 0 0 1 1.52-1.243c5.936 4.919 12.021 7.285 16.696 6.486 2.769-.472 4.942-1.993 6.461-4.522 3.256-5.419 2.806-13.424-1.233-21.962-10.44-22.066-44.125-48.956-107.35-58.249-110.313-16.213-165.775-37.188-164.846-62.344.229-6.138 3.314-11.232 8.922-14.732 3.312-2.067 6.635-3.056 8.288-3.456-3.401-15.551-12.44-38.834-24.32-62.592-12.614-25.216-26.918-47.801-37.48-59.208-4.484 1.817-9.091 3.698-13.364 5.743-12.022 5.757-23.179 12.092-33.16 18.831-27.775 18.747-47.271 40.939-57.946 65.961-9.863 23.117-11.865 47.646-5.95 72.903 8.065 34.441 30.873 67.938 64.222 94.322 35.128 27.791 78.898 45.87 126.577 52.281 13.016 1.754 26.302 2.716 41.812 3.029 10.489.219 20.454.11 30.09.006 5.096-.054 10.086-.108 14.96-.108z" fill="#112c41"/><path d="M409.931 359.625c-10.666-17.681-20.181-25.003-28.848-31.313" fill="#ffd6c0"/><path d="M409.932 360.625a1 1 0 0 1-.857-.483c-10.159-16.84-18.954-24.012-28.58-31.021a1 1 0 1 1 1.177-1.617c7.563 5.507 17.921 13.048 29.116 31.605a1 1 0 0 1-.856 1.516z" fill="#112c41"/><path d="M394.75 401.639c-2.821-21.764-21.528-36.829-33.997-43.862" fill="#ffd6c0"/><path d="M394.748 402.639a1 1 0 0 1-.99-.872c-3.144-24.252-26.433-39.135-33.496-43.119a1 1 0 0 1 .982-1.742c7.268 4.099 31.234 19.431 34.497 44.604a1 1 0 0 1-.993 1.129z" fill="#112c41"/></svg></g><g transform="translate(880.0 296.0) rotate(0.0 364.5 504.5) scale(0.8800649002593114 0.879732923895691)"><svg width="828.348" height="1146.939" viewBox="0 0 828.348 1146.939"><path d="M784.385 1146.939H71.498c-24.28 0-43.963-19.683-43.963-43.963V75.878c0-24.28 19.683-43.963 43.963-43.963h712.887c24.28 0 43.963 19.683 43.963 43.963v1027.098c0 24.28-19.683 43.963-43.963 43.963z" fill="#cbc8ff"/><path d="M757.85 1116.072H44.963c-24.28 0-43.963-19.683-43.963-43.963V45.011C1 20.731 20.683 1.048 44.963 1.048H757.85c24.28 0 43.963 19.683 43.963 43.963v1027.098c0 24.28-19.683 43.963-43.963 43.963z" fill="#fff"/><path d="M757.85 1117.072H44.963c-24.792 0-44.963-20.17-44.963-44.963V45.011C0 20.218 20.17.048 44.963.048H757.85c24.792 0 44.962 20.17 44.962 44.962v1027.098c0 24.793-20.169 44.964-44.962 44.964zM44.963 2.048C21.273 2.048 2 21.321 2 45.011v1027.098c0 23.69 19.273 42.963 42.963 42.963H757.85c23.689 0 42.962-19.273 42.962-42.963V45.011c0-23.689-19.273-42.962-42.962-42.962H44.963z" fill="#112c41"/><path d="m1.219 114.55-.121-65.929C1.098 28.179 12.363 1 53.121 1l699.245.053c31.235 0 49.566 20.64 49.566 48.747 0 18.997-.438 64.75-.438 64.75z" fill="#cbc8ff"/><path d="M802.484 115.55H.221L.098 48.623C.098 25.116 14.027 0 53.121 0l699.245.053c15.295 0 28.163 4.888 37.21 14.134 8.737 8.929 13.355 21.244 13.355 35.613 0 18.785-.434 64.302-.438 64.76zm-800.267-2h798.285c.063-6.785.429-46.521.429-63.75 0-29.005-19.063-47.747-48.565-47.747L53.121 2C28.455 2 2.098 14.247 2.098 48.621z" fill="#112c41"/><path d="M337.96 327.137a2.16 2.16 0 0 0-1.429-2.512 343.338 343.338 0 0 1-14.24-5.134c-58.266-22.421-111.766-59.951-121.32-66.816a2.157 2.157 0 0 0-2.813.25c-11.694 12.085-99.164 102.58-140.979 148.736a2.165 2.165 0 0 0 .015 2.927c13.202 14.175 28.532 27.606 44.967 40.089 47.938 36.413 105.246 64.755 146.419 80.047 17.236 6.404 31.642 10.515 41.354 11.979a2.158 2.158 0 0 0 2.423-1.68z" fill="#ff90d8"/><path d="M290.25 537.669c-.151 0-.303-.011-.457-.034-9.952-1.501-24.705-5.772-41.542-12.028-18.867-7.007-85.203-33.498-146.661-80.18-17.346-13.175-32.515-26.7-45.086-40.198-1.089-1.169-1.099-3.015-.024-4.202 42.032-46.395 130.995-138.418 141-148.759a3.083 3.083 0 0 1 4.041-.36c10.054 7.226 63.143 44.397 121.108 66.703a343.865 343.865 0 0 0 14.201 5.119 3.1 3.1 0 0 1 2.05 3.608l-45.603 207.886a3.111 3.111 0 0 1-3.027 2.445zm-90.543-284.46c-.318 0-.633.126-.871.372-10.004 10.337-98.946 102.34-140.958 148.713a1.23 1.23 0 0 0 .006 1.651c12.498 13.419 27.587 26.871 44.847 39.981 61.252 46.525 127.371 72.93 146.177 79.914 16.72 6.211 31.339 10.449 41.167 11.93a1.215 1.215 0 0 0 1.361-.949l45.603-207.886a1.219 1.219 0 0 0-.808-1.416 344.712 344.712 0 0 1-14.279-5.147c-58.18-22.388-111.444-59.682-121.531-66.931a1.22 1.22 0 0 0-.714-.232z" fill="#112c41"/><path d="M249.322 522.658a2.161 2.161 0 0 1-2.794 1.298c-41.01-15.461-97.22-43.467-144.367-79.279-16.436-12.483-31.765-25.915-44.968-40.09a2.162 2.162 0 0 1-.015-2.925c41.815-46.156 129.286-136.652 140.98-148.737a2.158 2.158 0 0 1 2.813-.25c9.446 6.788 61.857 43.556 119.358 66.055a2.16 2.16 0 0 1 1.25 2.742z" fill="#ffa8db"/><path d="M247.288 525.039c-.368 0-.737-.067-1.093-.201-49.803-18.776-103.861-48.462-144.605-79.41-17.345-13.174-32.515-26.699-45.087-40.199-1.089-1.168-1.1-3.013-.024-4.201 42.033-46.396 130.995-138.419 141-148.759a3.083 3.083 0 0 1 4.041-.36c9.855 7.083 61.919 43.549 119.152 65.943a3.089 3.089 0 0 1 1.794 3.938l-72.258 201.186a3.086 3.086 0 0 1-1.624 1.774 3.07 3.07 0 0 1-1.296.289zm-47.581-271.83c-.318 0-.633.126-.871.372-10.003 10.338-98.946 102.34-140.958 148.714a1.225 1.225 0 0 0 .006 1.648c12.499 13.421 27.588 26.873 44.848 39.982 40.607 30.844 94.487 60.432 144.129 79.147a1.222 1.222 0 0 0 1.574-.734l72.258-201.186a1.212 1.212 0 0 0-.707-1.545c-57.443-22.476-109.677-59.062-119.565-66.167a1.227 1.227 0 0 0-.714-.231zm49.615 269.449h.01z" fill="#112c41"/><circle cx="296.452" cy="325.449" fill="#ffe993" r="6.202"/><circle cx="209.737" cy="276.049" fill="#ffe993" r="6.202"/><path d="M207.027 276.608a1.875 1.875 0 0 1 .067-1.321c9.932-22.617 25.145-44.514 41.737-60.075 17.082-16.021 33.514-23.149 45.082-19.556 7.648 2.376 13.862 8.51 17.971 17.74 11.274 25.312 5.967 68.581-13.833 112.926a1.697 1.697 0 0 1-2.332.836 1.897 1.897 0 0 1-.867-2.444c19.088-42.75 24.522-85.863 13.846-109.859-3.658-8.216-9.091-13.646-15.712-15.702-10.368-3.221-25.589 3.631-41.759 18.797-16.262 15.251-31.178 36.728-40.925 58.924a1.697 1.697 0 0 1-2.326.851 1.865 1.865 0 0 1-.949-1.117z" fill="#112c41"/><path d="M203.353 732.843a2.024 2.024 0 0 0-2.71-.039 340.29 340.29 0 0 1-11.668 9.693c-48.778 38.783-108.179 65.778-118.591 70.372a2.01 2.01 0 0 0-1.129 2.379c4.34 15.676 37.97 136.892 56.492 196.126a2.027 2.027 0 0 0 2.37 1.377c18.849-4.17 38.136-10.55 57.167-18.361 55.402-22.739 108.61-57.582 142.488-85.172 14.241-11.595 25.061-21.909 31.203-29.507a2.025 2.025 0 0 0-.207-2.757z" fill="#9696f6"/><path d="M127.668 1013.801a3.008 3.008 0 0 1-2.876-2.128c-18.601-59.489-52.676-182.345-56.5-196.158a2.993 2.993 0 0 1 1.688-3.56c11.269-4.972 69.933-31.727 118.372-70.24a341.792 341.792 0 0 0 11.634-9.665 3.02 3.02 0 0 1 4.046.06l155.415 144.11a3.034 3.034 0 0 1 .306 4.119c-6.298 7.79-17.431 18.321-31.35 29.654-15.526 12.645-71.706 56.167-142.739 85.322-20.091 8.246-39.38 14.441-57.332 18.413a3.076 3.076 0 0 1-.664.073zm74.31-280.497a1.03 1.03 0 0 0-.678.254 343.49 343.49 0 0 1-11.703 9.722c-48.631 38.666-107.501 65.515-118.809 70.504a1.004 1.004 0 0 0-.568 1.196c3.823 13.81 37.89 136.636 56.482 196.095.158.506.685.814 1.2.699 17.84-3.946 37.019-10.107 57.003-18.31 70.78-29.05 126.764-72.421 142.236-85.022 13.814-11.248 24.844-21.675 31.057-29.36a1.028 1.028 0 0 0-.109-1.395l-155.415-144.11a1.022 1.022 0 0 0-.696-.273z" fill="#112c41"/><path d="M327.773 909.218c-33.879 27.591-87.086 62.434-142.488 85.172-19.031 7.812-38.318 14.191-57.167 18.361a2.027 2.027 0 0 1-2.37-1.377c-18.522-59.234-52.152-180.451-56.492-196.126a2.01 2.01 0 0 1 1.129-2.379c10.302-4.545 68.563-31.021 117.041-69.147a2.026 2.026 0 0 1 2.813.293z" fill="#b1aff6"/><path d="M127.668 1013.801a3.008 3.008 0 0 1-2.876-2.128c-18.601-59.489-52.676-182.345-56.5-196.158a2.993 2.993 0 0 1 1.688-3.56c11.058-4.879 68.658-31.136 116.827-69.018a3.014 3.014 0 0 1 4.2.439l137.534 165.202a1.002 1.002 0 0 1-.137 1.415c-15.526 12.645-71.706 56.167-142.739 85.322-20.091 8.246-39.38 14.441-57.332 18.413a3.092 3.092 0 0 1-.665.073zm61.016-269.516c-.224 0-.449.073-.641.224-48.357 38.03-106.16 64.38-117.256 69.276a1.004 1.004 0 0 0-.568 1.196c3.823 13.81 37.89 136.636 56.482 196.095.158.506.685.814 1.2.699 17.84-3.946 37.019-10.107 57.003-18.31 69.631-28.579 124.943-71.018 141.452-84.385L189.471 744.655a1.026 1.026 0 0 0-.787-.37z" fill="#112c41"/><circle cx="182.222" cy="768.903" fill="#ffe993" r="5.818"/><circle cx="98.554" cy="818.061" fill="#ffe993" r="5.818"/><path d="M98.61 819.794a1.686 1.686 0 0 1-1.365-.818c-11.39-19.213-19.565-39.115-23.642-57.553-3.808-17.222-4.036-32.838-.659-45.161 2.875-10.491 8.319-18.227 15.745-22.372 12.417-6.933 27.603-3.791 43.917 9.081 16.236 12.81 33.437 34.714 51.125 65.101.459.789.18 1.793-.624 2.242a1.698 1.698 0 0 1-2.288-.617c-17.478-30.027-34.405-51.616-50.311-64.166-15.367-12.124-28.876-15.079-40.153-8.783-6.632 3.701-11.531 10.746-14.17 20.373-6.911 25.219 2.27 63.616 23.961 100.207a1.625 1.625 0 0 1-.606 2.247 1.708 1.708 0 0 1-.93.219z" fill="#112c41"/><circle cx="72.414" cy="57.161" fill="#fff" r="26.568"/><path d="M72.414 84.729c-15.201 0-27.568-12.367-27.568-27.568s12.367-27.568 27.568-27.568S99.982 41.96 99.982 57.161 87.616 84.729 72.414 84.729zm0-53.136c-14.098 0-25.568 11.47-25.568 25.568s11.47 25.568 25.568 25.568 25.568-11.47 25.568-25.568-11.469-25.568-25.568-25.568z" fill="#112c41"/><circle cx="150.292" cy="57.161" fill="#b1aff6" r="26.568"/><path d="M150.292 84.729c-15.201 0-27.568-12.367-27.568-27.568s12.367-27.568 27.568-27.568S177.86 41.96 177.86 57.161s-12.367 27.568-27.568 27.568zm0-53.136c-14.098 0-25.568 11.47-25.568 25.568s11.47 25.568 25.568 25.568 25.568-11.47 25.568-25.568-11.47-25.568-25.568-25.568z" fill="#112c41"/><circle cx="226.481" cy="57.161" fill="#9696f6" r="26.568"/><path d="M226.481 84.729c-15.201 0-27.568-12.367-27.568-27.568s12.367-27.568 27.568-27.568 27.568 12.367 27.568 27.568-12.366 27.568-27.568 27.568zm0-53.136c-14.098 0-25.568 11.47-25.568 25.568s11.47 25.568 25.568 25.568 25.568-11.47 25.568-25.568-11.47-25.568-25.568-25.568z" fill="#112c41"/><path d="M715.264 299.148H405.807c-11.046 0-20-8.954-20-20s8.954-20 20-20h309.457c11.046 0 20 8.954 20 20s-8.954 20-20 20z" fill="#cbc8ff"/><path d="M715.265 300.148H405.808c-11.58 0-21-9.42-21-21s9.42-21 21-21h309.457c11.58 0 21 9.42 21 21s-9.421 21-21 21zm-309.457-40c-10.477 0-19 8.523-19 19s8.523 19 19 19h309.457c10.477 0 19-8.523 19-19s-8.523-19-19-19z" fill="#112c41"/><path d="M601.867 378.879h-196.06c-11.046 0-20-8.954-20-20s8.954-20 20-20h196.06c11.046 0 20 8.954 20 20s-8.954 20-20 20z" fill="#cbc8ff"/><path d="M601.867 379.879h-196.06c-11.58 0-21-9.42-21-21s9.42-21 21-21h196.06c11.58 0 21 9.42 21 21s-9.42 21-21 21zm-196.059-40c-10.477 0-19 8.523-19 19s8.523 19 19 19h196.06c10.477 0 19-8.523 19-19s-8.523-19-19-19z" fill="#112c41"/><path d="M584.535 530.607H428.54c-22.092 0-40-17.909-40-40s17.908-40 40-40h155.995c22.092 0 40 17.909 40 40s-17.908 40-40 40z" fill="#ffa8db"/><path d="M584.535 531.607H428.54c-22.607 0-41-18.393-41-41s18.393-41 41-41h155.995c22.607 0 41 18.393 41 41 0 22.608-18.392 41-41 41zm-155.995-80c-21.505 0-39 17.495-39 39s17.495 39 39 39h155.995c21.505 0 39-17.495 39-39s-17.495-39-39-39z" fill="#112c41"/><path d="M715.264 756.732H405.807c-11.046 0-20-8.954-20-20s8.954-20 20-20h309.457c11.046 0 20 8.954 20 20s-8.954 20-20 20z" fill="#cbc8ff"/><path d="M715.265 757.732H405.808c-11.58 0-21-9.42-21-21s9.42-21 21-21h309.457c11.58 0 21 9.42 21 21s-9.421 21-21 21zm-309.457-40c-10.477 0-19 8.523-19 19s8.523 19 19 19h309.457c10.477 0 19-8.523 19-19s-8.523-19-19-19z" fill="#112c41"/><path d="M601.867 836.462h-196.06c-11.046 0-20-8.954-20-20s8.954-20 20-20h196.06c11.046 0 20 8.954 20 20s-8.954 20-20 20z" fill="#cbc8ff"/><path d="M601.867 837.462h-196.06c-11.58 0-21-9.42-21-21s9.42-21 21-21h196.06c11.58 0 21 9.42 21 21s-9.42 21-21 21zm-196.059-40c-10.477 0-19 8.523-19 19s8.523 19 19 19h196.06c10.477 0 19-8.523 19-19s-8.523-19-19-19z" fill="#112c41"/><path d="M584.535 988.19H428.54c-22.092 0-40-17.908-40-40s17.908-40 40-40h155.995c22.092 0 40 17.908 40 40s-17.908 40-40 40z" fill="#ffa8db"/><path d="M584.535 989.19H428.54c-22.607 0-41-18.393-41-41s18.393-41 41-41h155.995c22.607 0 41 18.393 41 41s-18.392 41-41 41zm-155.995-80c-21.505 0-39 17.495-39 39s17.495 39 39 39h155.995c21.505 0 39-17.495 39-39s-17.495-39-39-39z" fill="#112c41"/></svg></g></svg>