<svg xmlns="http://www.w3.org/2000/svg" viewBox="0 0 1800 1800" width="1800" height="1800"><g transform="translate(1065.0 333.0) rotate(0.0 221.0 122.0) scale(1.0 0.9959793456742249)"><svg width="442" height="244.985" viewBox="0 0 442 244.985"><path d="M441 196.608c0 25.377-19.955 46.092-45.032 47.321v.056H59.166v-.047c-.628.019-1.248.047-1.876.047-13.847 0-26.532-5-36.335-13.303C8.749 220.362 1 204.939 1 187.695c0-30.575 24.383-55.436 54.761-56.252a69.21 69.21 0 0 1-5.976-28.183c0-38.343 31.081-69.424 69.424-69.424 24.411 0 45.867 12.609 58.241 31.663 5.16-31.719 29.693-56.918 61.056-63.064a96.612 96.612 0 0 1 2.918-.516c.178-.028.375-.047.572-.075.732-.103 1.567-.216 2.533-.338.113-.009.216-.028.328-.038a80.64 80.64 0 0 1 3.049-.281c.047 0 .094 0 .131-.009A83.73 83.73 0 0 1 253.366 1c2.308 0 4.597.103 6.848.31 39.281 3.462 70.081 36.438 70.081 76.62 0 3.162-.216 6.276-.582 9.344a56.292 56.292 0 0 1 17.469-2.777c31.091 0 56.29 25.199 56.29 56.29 0 3.18-.272 6.286-.779 9.316 21.822 4.241 38.305 23.445 38.305 46.505z" fill="#fff"/><path d="M395.968 244.985H59.166a.972.972 0 0 1-.272-.038l-.182.006c-.474.016-.945.032-1.422.032a57.283 57.283 0 0 1-36.981-13.54A57.184 57.184 0 0 1 0 187.695c0-15.029 5.779-29.229 16.272-39.984 10.13-10.381 23.572-16.458 37.992-17.209-3.638-8.656-5.48-17.813-5.48-27.241 0-38.832 31.593-70.424 70.425-70.424 23.105 0 44.488 11.19 57.692 30.06 6.041-30.841 30.434-55.372 61.412-61.442.979-.189 1.964-.36 2.949-.521.117-.019.233-.033.353-.047l.241-.031c.736-.104 1.575-.217 2.548-.34l.159-.018a79.784 79.784 0 0 1 3.271-.306c.047-.002.052-.002.027.003.037-.006.075-.011.113-.014 4.411-.283 8.392-.228 12.332.134 19.321 1.702 37.227 10.531 50.415 24.858 13.268 14.414 20.574 33.15 20.574 52.757 0 2.579-.138 5.188-.419 7.935a57.262 57.262 0 0 1 16.307-2.368c31.59 0 57.29 25.7 57.29 57.29 0 2.828-.216 5.692-.642 8.528 22.175 4.77 38.168 24.504 38.168 47.293 0 25.728-20.038 46.885-45.674 48.304a.916.916 0 0 1-.358.073zm-336.499-2H395.65a.926.926 0 0 1 .269-.055C420.638 241.719 440 221.371 440 196.608c0-22.156-15.77-41.302-37.496-45.523a1 1 0 0 1-.796-1.146c.508-3.037.766-6.116.766-9.151 0-30.487-24.803-55.29-55.29-55.29a55.26 55.26 0 0 0-17.159 2.728c-.326.106-.681.039-.944-.178s-.398-.553-.358-.892c.387-3.236.574-6.253.574-9.226 0-39.638-29.736-72.149-69.169-75.624-3.826-.351-7.677-.405-11.968-.134-.104.016-.192.016-.252.016-.938.071-1.939.164-2.939.275l-.145.017a4.422 4.422 0 0 1-.212.024c-.918.117-1.747.229-2.476.332l-.558.073c-.959.157-1.925.324-2.882.509-30.973 6.069-55.189 31.083-60.259 62.243a1 1 0 0 1-1.826.384c-12.69-19.541-34.149-31.208-57.402-31.208-37.729 0-68.425 30.695-68.425 68.424a67.93 67.93 0 0 0 5.891 27.776 1.002 1.002 0 0 1-.886 1.406c-30.162.81-53.788 25.08-53.788 55.253a55.193 55.193 0 0 0 19.601 42.223 55.282 55.282 0 0 0 35.689 13.067c.454 0 .903-.015 1.354-.03l.492-.016a1.05 1.05 0 0 1 .332.046z" fill="#112c41"/><path d="M441 196.608c0 25.377-19.955 46.092-45.032 47.321v.056H59.166v-.047c-.628.019-1.248.047-1.876.047-13.847 0-26.532-5-36.335-13.303 33.521 8.612 357.465 4.579 376.89 2.045 21.302-2.779 44.432-57.674-2.819-72.617-1.064-.337-1.773-1.366-1.679-2.478 3.269-38.599-31.433-66.313-72.856-59.493-1.118.184-2.064-.827-1.83-1.936 7.529-35.686-21.52-88.868-61.888-94.649 1.107-.085 2.252-.16 3.443-.244 39.281 3.462 70.081 36.438 70.081 76.62 0 3.162-.216 6.276-.582 9.344a56.292 56.292 0 0 1 17.469-2.777c31.091 0 56.29 25.199 56.29 56.29 0 3.18-.272 6.286-.779 9.316C424.517 154.344 441 173.548 441 196.608z" fill="#dedffe"/><path d="M395.968 244.985H59.166a.972.972 0 0 1-.272-.038l-.05.002c-.517.018-1.033.036-1.554.036-31.59 0-57.29-25.7-57.29-57.29 0-15.03 5.779-29.231 16.273-39.986 10.131-10.382 23.573-16.458 37.994-17.207-3.64-8.655-5.483-17.813-5.483-27.242 0-38.832 31.593-70.424 70.425-70.424 23.102 0 44.485 11.19 57.692 30.059 3.349-17.096 12.426-32.687 25.741-44.12A77.902 77.902 0 0 1 253.367 0c42.97 0 77.929 34.959 77.929 77.929 0 2.563-.142 5.226-.421 7.936a57.24 57.24 0 0 1 16.309-2.369c31.59 0 57.29 25.7 57.29 57.29 0 2.809-.217 5.674-.646 8.532C426.005 154.079 442 173.812 442 196.607c0 25.73-20.032 46.886-45.667 48.3a.915.915 0 0 1-.365.077zm-336.498-2h336.172a.926.926 0 0 1 .277-.059C420.638 241.721 440 221.375 440 196.607c0-22.162-15.771-41.305-37.499-45.519a1 1 0 0 1-.796-1.146c.51-3.064.769-6.145.769-9.156 0-30.487-24.803-55.29-55.29-55.29-5.838 0-11.612.918-17.162 2.729a1 1 0 0 1-1.303-1.071c.384-3.158.578-6.262.578-9.226 0-41.868-34.062-75.93-75.929-75.93-37.421 0-68.933 26.772-74.929 63.658a1 1 0 0 1-1.826.384c-12.694-19.541-34.153-31.207-57.403-31.207-37.729 0-68.425 30.695-68.425 68.424a67.903 67.903 0 0 0 5.895 27.777 1.002 1.002 0 0 1-.887 1.406c-30.163.805-53.791 25.074-53.791 55.252 0 30.487 24.803 55.29 55.29 55.29.497 0 .991-.018 1.484-.035l.358-.012a.942.942 0 0 1 .337.047z" fill="#112c41"/></svg></g><g transform="translate(377.0 1003.0) rotate(0.0 206.5 64.0) scale(1.2708435262369184 1.2713547874453714)"><svg width="324.981" height="100.68" viewBox="0 0 324.981 100.68"><ellipse clip-rule="evenodd" cx="162.491" cy="50.34" fill="#cac7ff" fill-rule="evenodd" rx="162.49" ry="50.34"/></svg></g><g transform="translate(478.0 278.0) rotate(24.90982001584494 139.0 116.0) scale(1.0027810943299582 1.002289713569793)"><svg width="277.229" height="231.47" viewBox="0 0 277.229 231.47"><circle cx="247.656" cy="102.004" fill="#ffd6c0" r="28.57"/><path d="M244.644 130.414a28.567 28.567 0 0 0 31.223-23.9A28.572 28.572 0 0 1 222.273 90q.086-.762.207-1.509a28.589 28.589 0 0 0 22.164 41.924z" fill="#f5b9ab"/><path d="M247.678 131.575a29.589 29.589 0 0 1-23.77-11.952 1 1 0 0 1 1.606-1.193 27.569 27.569 0 1 0-4.976-21.4 1 1 0 0 1-1.968-.358 29.571 29.571 0 1 1 29.108 34.907z" fill="#112c41"/><path d="M233.182 108.859a1 1 0 0 1-.973-.776 18.452 18.452 0 0 1 2.185-13.792A17.56 17.56 0 0 1 260.52 89.7a1 1 0 1 1-1.248 1.563 15.56 15.56 0 0 0-23.168 4.07 16.466 16.466 0 0 0-1.946 12.306 1 1 0 0 1-.751 1.2.966.966 0 0 1-.225.02z" fill="#112c41"/><circle cx="143.688" cy="127.943" fill="#ffd6c0" r="102.5"/><path d="M105.269 32.916c.32-.13.643-.241.964-.367l10.867 9.069c-49.479 20.172-73.762 73.994-54.03 122.8 19.768 48.9 76.227 74.243 125.891 54.164A98.268 98.268 0 0 0 203 211.57a102.51 102.51 0 1 1-97.731-178.654z" fill="#f5b9ab"/><path d="M143.675 231.5a103.747 103.747 0 1 1 38.807-7.6 103.3 103.3 0 0 1-38.807 7.6zm.025-205.112a101.729 101.729 0 1 0 39.626 8.112 101.38 101.38 0 0 0-39.626-8.112z" fill="#112c41"/><ellipse cx="126.535" cy="112.293" fill="#112c41" rx="6.828" ry="9.104" transform="matrix(.92709884 -.37481696 .37481696 .92709884 -32.865 55.614)"/><ellipse cx="111.4" cy="85.723" fill="#112c41" rx="14.13" ry="9.336" transform="matrix(.86245184 -.50613914 .50613914 .86245184 -28.065 68.176)"/><ellipse cx="210.167" cy="121.3" fill="#ffa9dc" rx="12.121" ry="8.009" transform="matrix(.88267705 -.46998003 .46998003 .88267705 -32.351 113.007)"/><ellipse cx="118.423" cy="139.798" fill="#ffa9dc" rx="8.009" ry="12.121" transform="matrix(.07459583 -.99721385 .99721385 .07459583 -29.819 247.463)"/><g fill="#112c41"><ellipse cx="198.688" cy="69.502" rx="8.6" ry="13.016" transform="matrix(.21807511 -.97593199 .97593199 .21807511 87.53 248.252)"/><path d="M196.394 62.64a17.19 17.19 0 0 1 3.733.421 14.84 14.84 0 0 1 7.43 3.9c.905.939 2.354 2.83 1.882 4.942-.587 2.626-4.064 4.46-8.456 4.46a17.133 17.133 0 0 1-3.734-.422c-5.828-1.3-10.092-5.352-9.313-8.843.587-2.626 4.065-4.46 8.458-4.46m0-2c-5.269 0-9.583 2.33-10.408 6.024-1.037 4.638 3.814 9.666 10.826 11.238a19.128 19.128 0 0 0 4.171.47c5.269 0 9.583-2.33 10.408-6.024 1.036-4.635-3.812-9.664-10.828-11.232a19.178 19.178 0 0 0-4.17-.469z"/><ellipse cx="194.736" cy="98.632" rx="6.828" ry="9.104" transform="matrix(.99979717 -.02013974 .02013974 .99979717 -1.947 3.943)"/><path d="M147.13 125.111c3.926 11.862 13.4 19.595 22.647 17.809s15.162-12.487 14.391-24.958z"/><path d="M167.105 144.175c-8.685 0-17.177-7.428-20.924-18.75a1 1 0 0 1 .76-1.3l37.037-7.149a1 1 0 0 1 1.188.92c.817 13.209-5.576 24.144-15.2 26a15.132 15.132 0 0 1-2.861.279zm-18.65-18.3c4.029 10.963 12.781 17.678 21.132 16.064s13.976-11.1 13.635-22.775z"/></g><path d="M176.564 138.971c-3.753-3.592-10.1-4.662-16.064-2.252a17.713 17.713 0 0 0-4.123 2.342c4.029 3.244 8.742 4.758 13.4 3.859a14.683 14.683 0 0 0 7.112-3.625q-.159-.165-.325-.324z" fill="#ffa6e0"/><path d="M167.121 144.173a18.217 18.217 0 0 1-11.371-4.333 1 1 0 0 1 .02-1.574 18.818 18.818 0 0 1 4.355-2.475c6.124-2.476 13.008-1.487 17.13 2.458.121.116.239.233.354.354a1 1 0 0 1-.05 1.434 15.613 15.613 0 0 1-7.594 3.865 15.025 15.025 0 0 1-2.844.271zm-9.044-5.083a15.015 15.015 0 0 0 11.51 2.848 13.441 13.441 0 0 0 5.8-2.681c-3.609-3.042-9.343-3.7-14.511-1.611a16.92 16.92 0 0 0-2.799 1.444z" fill="#112c41"/><circle cx="31.508" cy="147.949" fill="#ffd6c0" r="30.5"/><path d="M60.437 157.932a33.178 33.178 0 0 1-5.358 5.413c-12.966 10.761-32.489 8.455-43.243-4.5-7.059-8.505-8.194-19.14-4.836-28.866-8.226 11.018-8.7 26.05.473 37.11a30.492 30.492 0 0 0 42.948 4c4.457-3.696 8.261-8.042 10.016-13.157z" fill="#f5b9ab"/><path d="M31.5 179.466a31.508 31.508 0 1 1 28.232-45.5 1 1 0 0 1-1.793.886A29.6 29.6 0 0 0 20.451 120.6a29.5 29.5 0 0 0 22.114 54.7A31.46 31.46 0 0 0 59.5 157.58a1 1 0 0 1 1.872.7 33.523 33.523 0 0 1-18.058 18.867 31.464 31.464 0 0 1-11.814 2.319z" fill="#112c41"/><path d="M49.253 146.854a1 1 0 0 1-.954-.7 17.277 17.277 0 0 0-21.49-11.55A16.764 16.764 0 0 0 16.2 144.713a1 1 0 0 1-1.872-.713 18.755 18.755 0 0 1 11.877-11.3 19.277 19.277 0 0 1 24 12.853 1 1 0 0 1-.953 1.3z" fill="#112c41"/><path d="M37 107.924c18.817-19.516 45.809-36.393 77.86-46.892a213.323 213.323 0 0 1 40.476-9.084 64.009 64.009 0 0 0-10.241-25.543c.136.1.282.188.408.288a75.849 75.849 0 0 1 22.07 24.157 187.56 187.56 0 0 1 7.542-.288c18.32-.309 35.367 2.184 50.027 7.2a1.861 1.861 0 0 0 2.318-2.511 89.573 89.573 0 0 0-17.986-25.972C182.5 2.165 139.131-7.2 99.331 8.89a108.729 108.729 0 0 0-18.955 9.918c-30.6 20.116-48.015 54.068-45.907 88.174a1.477 1.477 0 0 0 2.531.942z" fill="#fcaa51"/><path d="M37 107.924a155.9 155.9 0 0 1 15.824-14.263c-1.663-30.338 13.9-60.48 41.124-78.367a98.089 98.089 0 0 1 30.159-13.153 109.121 109.121 0 0 0-43.731 16.667c-30.6 20.116-48.015 54.068-45.907 88.174a1.477 1.477 0 0 0 2.531.942z" fill="#ff9522"/><path d="M35.93 109.2a2.435 2.435 0 0 1-.87-.157 2.671 2.671 0 0 1-1.619-2.551c-1.667-34.7 16.108-68.616 46.388-88.514A109.848 109.848 0 0 1 98.956 7.963 106.761 106.761 0 0 1 159.4 1.9a97.232 97.232 0 0 1 50.778 26.675 89.845 89.845 0 0 1 18.115 26.1 2.9 2.9 0 0 1-.331 3.24 3.092 3.092 0 0 1-3.314.741c-16.6-5.658-36.317-8.015-57.02-6.81a1.015 1.015 0 0 1-.92-.491 76.832 76.832 0 0 0-17.971-21.022 66.817 66.817 0 0 1 7.574 21.444 1 1 0 0 1-.864 1.164 212.386 212.386 0 0 0-40.28 9.038C84.77 71.937 57.4 88.362 38.093 108.229a3.06 3.06 0 0 1-2.163.971zm44.449-90.39.549.836C51.236 39.156 33.806 72.4 35.439 106.392c.01.2.061.675.328.776a.941.941 0 0 0 .891-.333c19.526-20.095 47.188-36.7 77.891-46.755a214.7 214.7 0 0 1 39.607-8.992 62.841 62.841 0 0 0-9.888-24.109 1 1 0 0 1 1.38-1.4 76.631 76.631 0 0 1 22.476 24.236c20.738-1.134 40.5 1.263 57.173 6.95a1.147 1.147 0 0 0 1.186-.191c.279-.308.116-.8 0-1.067a87.881 87.881 0 0 0-17.714-25.52 95.246 95.246 0 0 0-49.746-26.121 104.778 104.778 0 0 0-59.318 5.951 107.879 107.879 0 0 0-18.777 9.829z" fill="#112c41"/></svg></g><g transform="translate(534.0 791.0) rotate(0.0 282.0 362.0) scale(0.9993178415443359 0.9990533831204135)"><svg width="564.385" height="724.686" viewBox="0 0 564.385 724.686"><path d="M368.856 487.433a832.69 832.69 0 0 0 14.654-36.26l.087-.2c.028-.081.063-.155.086-.214 4.711-12.489 9.299-24.609 13.216-35.225 0 0 86.429 36.212 135.364 49.92-4.643 11.716-9.303 21.316-14.725 33.504-9.317 20.955-17.33 38.825-17.33 38.825l-131.352-50.349z" fill="#ffd6c0"/><path d="m414.365 413.481-30.846 79.744c-4.595.998-13.482 3.026-16.641 3.173 12.137-31.901 32.455-85.391 32.455-85.391z" fill="#f5b9ab"/><path d="M500.208 538.782c-.119 0-.24-.021-.358-.066l-131.352-50.349a.998.998 0 0 1-.559-1.33 828.05 828.05 0 0 0 14.637-36.217l.106-.248s.028-.075.056-.139l1.854-4.912c4.097-10.856 7.967-21.11 11.369-30.333a1 1 0 0 1 1.325-.576c.863.362 86.933 36.345 135.247 49.879a.998.998 0 0 1 .66 1.332c-3.27 8.249-6.579 15.522-10.083 23.223-1.498 3.293-3.045 6.691-4.658 10.319-9.211 20.717-17.252 38.649-17.332 38.828a.998.998 0 0 1-.912.591zm-130.021-51.91 129.495 49.638c1.713-3.823 8.879-19.824 16.941-37.959 1.616-3.633 3.165-7.037 4.666-10.335 3.347-7.354 6.515-14.318 9.634-22.102-45.817-12.997-123.878-45.276-133.447-49.257-3.317 8.974-7.06 18.891-11.013 29.369l-1.844 4.885a3.419 3.419 0 0 1-.044.107 7.162 7.162 0 0 1-.063.155l-.087.2a826.918 826.918 0 0 1-14.239 35.298z" fill="#112c41"/><path d="M528.668 636.272c-51.004-3.978-109.671-30.588-155.447-61.077-13.343-8.892-25.593-18.101-36.234-27.187 0 0 20.576-37.478 31.869-60.575l10.598 4.096s120.401 46.209 120.754 46.253c7.083 8.651 38.107 50.689 28.46 98.49z" fill="#ffa9dc"/><path d="M336.987 548.009s20.576-37.478 31.869-60.575l12.068 7.373c-7.204 21.286-18.964 54.372-16.313 74.719.028.214-16.983-12.43-27.624-21.516z" fill="#ff90d8"/><path d="M528.669 637.272c-.026 0-.053 0-.079-.003-45.373-3.539-103.661-26.433-155.923-61.241-13.318-8.876-25.541-18.047-36.329-27.259a1.002 1.002 0 0 1-.228-1.242c.206-.375 20.694-37.722 31.848-60.533a1 1 0 0 1 1.259-.493l10.598 4.096c1.185.455 118.424 45.448 120.678 46.227a.997.997 0 0 1 .489.325c6.526 7.97 38.576 50.215 28.667 99.321a1 1 0 0 1-.979.802zm-190.413-89.497c10.575 8.983 22.521 17.926 35.521 26.588 51.649 34.401 109.163 57.1 154.083 60.84 9.247-48.292-23.696-90.962-28.27-96.597-2.485-.911-18.111-6.85-120.494-46.144l-9.745-3.767c-10.384 21.14-28.23 53.844-31.095 59.079z" fill="#112c41"/><path d="M443.536 616.56h-.073a2.5 2.5 0 0 1-2.427-2.571c.357-12.365-2.509-28.424-26.479-53.772-20.631-21.816-24.958-39.619-15.966-65.688a2.5 2.5 0 0 1 4.727 1.631c-8.378 24.288-4.486 40.152 14.872 60.622 20.066 21.22 28.394 38.372 27.845 57.353a2.5 2.5 0 0 1-2.498 2.428z" fill="#fff"/><path d="M522.575 658.61c-.622 1.471-1.684 2.568-3.405 3.027-31.326 8.362-144.597-39.79-190.347-83.552-3.919-3.749-3.696-6.919-2.53-10.032l10.693-20.045c47.169 40.251 125.813 83.123 191.681 88.264-1.407 7.889-3.284 15.693-6.092 22.338z" fill="#fff"/><path d="M510.649 663.567c-17.564 0-47.424-8.399-81.641-23.242-41.894-18.172-79.604-41.17-100.876-61.518-4.499-4.304-3.928-8.029-2.775-11.105a.817.817 0 0 1 .055-.12l10.693-20.045a1 1 0 0 1 1.531-.29c45.418 38.757 124.596 82.836 191.109 88.027a1.002 1.002 0 0 1 .906 1.172c-1.656 9.293-3.67 16.67-6.155 22.552-.796 1.884-2.165 3.096-4.068 3.604-2.424.647-5.371.963-8.779.963zm-183.441-95.102c-1.099 2.968-1.116 5.623 2.308 8.897 47.229 45.177 159.731 91.234 189.397 83.309 1.294-.345 2.19-1.147 2.742-2.45 2.33-5.514 4.24-12.406 5.832-21.042-66.265-5.584-144.65-49.057-190.202-87.605z" fill="#112c41"/><path d="M368.858 487.429c35.48 24.155 92.337 44.869 131.349 50.353 0 0 6.521-14.731 14.749-33.018.287-.633.571-1.276.855-1.919s.568-1.286.862-1.931l.866-1.954c-36.027-5.63-89.899-26.231-133.742-48.462 0 0-.036.093-.113.261-.025.059-.066.133-.085.211-.032.072-.066.133-.088.202a834.078 834.078 0 0 1-14.655 36.257z" fill="#fff"/><path d="M500.208 538.782a.951.951 0 0 1-.14-.01c-41.362-5.815-98.013-27.532-131.772-50.517a1 1 0 0 1-.355-1.223 828.743 828.743 0 0 0 14.638-36.214c.01-.038.047-.123.09-.213.025-.074.056-.145.086-.21.077-.17.105-.24.11-.254a1.004 1.004 0 0 1 1.387-.536c47.646 24.159 100.025 43.144 133.444 48.367a1 1 0 0 1 .76 1.393l-.865 1.952c-.297.652-.58 1.292-.862 1.931-.286.646-.571 1.292-.859 1.928a6606.41 6606.41 0 0 0-14.746 33.01.999.999 0 0 1-.914.595zm-130.104-51.717c33.413 22.524 88.743 43.728 129.496 49.62a6739.288 6739.288 0 0 1 14.444-32.332c.287-.633.57-1.273.853-1.914.286-.646.571-1.292.867-1.941l.336-.757c-33.426-5.493-84.835-24.156-131.786-47.863a827.896 827.896 0 0 1-14.21 35.187z" fill="#112c41"/><circle cx="477.533" cy="558.836" fill="#ffe993" r="8.5"/><path d="M477.722 561.781c14.13 5.878 32.429 4.743 38.477 2.412a2.831 2.831 0 1 0-2.037-5.285c-4.643 1.789-22.161 3.024-35.077-2.706a2.832 2.832 0 0 0-2.3 5.176c.31.138.623.272.936.403z" fill="#fff"/><path d="M501.611 567.103c-7.551 0-16.465-1.151-24.271-4.398a43.31 43.31 0 0 1-.96-.413 3.836 3.836 0 0 1-1.946-5.058 3.841 3.841 0 0 1 5.058-1.947c12.662 5.617 29.788 4.429 34.313 2.687a3.836 3.836 0 0 1 4.953 2.198 3.81 3.81 0 0 1-.072 2.933 3.81 3.81 0 0 1-2.126 2.021c-2.888 1.113-8.406 1.977-14.947 1.977zm-23.672-10.145c-.703 0-1.375.406-1.678 1.087-.41.923.008 2.008.931 2.418.302.135.606.266.913.393 13.882 5.775 31.943 4.634 37.733 2.403a1.828 1.828 0 0 0 1.052-2.368 1.835 1.835 0 0 0-2.369-1.051c-4.751 1.833-22.679 3.114-35.842-2.725a1.838 1.838 0 0 0-.741-.157z" fill="#112c41"/><circle cx="484.928" cy="584.678" fill="#ffe993" r="8.5"/><path d="M485.253 587.937c14.385 5.223 34.333 1.819 40.268-.787a2.832 2.832 0 0 0-2.278-5.186c-4.556 2.001-23.718 5.467-36.884.338a2.832 2.832 0 1 0-2.06 5.276c.316.123.634.244.954.36z" fill="#fff"/><path d="M503.015 591.669c-6.074 0-12.462-.744-18.104-2.792a38.327 38.327 0 0 1-.977-.368c-.953-.372-1.705-1.093-2.116-2.031s-.432-1.979-.06-2.933a3.842 3.842 0 0 1 4.962-2.177c13.11 5.109 31.934 1.518 36.119-.321 1.936-.85 4.2.034 5.051 1.968.411.937.433 1.979.062 2.932a3.806 3.806 0 0 1-2.03 2.117c-3.484 1.53-12.762 3.603-22.907 3.603zm-17.683-8.56a1.834 1.834 0 0 0-1.682 2.567 1.82 1.82 0 0 0 1.011.971c.31.121.62.238.932.351 14.535 5.276 34.163 1.592 39.524-.763.448-.197.794-.557.972-1.013s.167-.954-.03-1.402a1.835 1.835 0 0 0-2.415-.941c-4.368 1.919-23.998 5.672-37.648.354a1.841 1.841 0 0 0-.663-.125z" fill="#112c41"/><path d="M323.121 609.176a833.018 833.018 0 0 0-1.264-39.089v-.218c-.008-.085-.006-.167-.009-.231-.743-13.328-1.449-26.267-2.161-37.561 0 0 93.691-1.84 143.988-9.096.492 12.593.113 23.258.084 36.597-.045 22.933-.146 42.517-.146 42.517l-140.493 7.081z" fill="#ffd6c0"/><path d="m334.831 523.136 4.044 85.407c-3.798 2.771-11.106 8.221-13.936 9.632-1.804-34.084-4.856-91.222-4.856-91.222z" fill="#f5b9ab"/><path d="M323.122 610.176a1.002 1.002 0 0 1-1-.991c-.116-13.114-.518-25.52-1.263-39.042l-.003-.26a1.596 1.596 0 0 1-.006-.15l-.274-4.96c-.649-11.693-1.263-22.737-1.887-32.631a1.001 1.001 0 0 1 .979-1.063c.937-.018 94.204-1.922 143.865-9.086a1.003 1.003 0 0 1 1.141.95c.347 8.868.262 16.86.172 25.321-.038 3.617-.078 7.349-.087 11.318-.044 22.671-.145 42.324-.146 42.52a1 1 0 0 1-.949.993l-140.492 7.081-.051.001zm-2.371-77.121c.602 9.632 1.195 20.317 1.822 31.605l.273 4.922.004.118c.002.022.006.133.006.156v.231a825.207 825.207 0 0 1 1.256 38.038l138.507-6.98c.021-4.189.102-21.722.141-41.568.009-3.975.049-7.713.087-11.334.086-8.081.167-15.733-.129-24.114-47.159 6.646-131.604 8.697-141.967 8.927z" fill="#112c41"/><path d="M529.479 680.658c-48.255 16.991-112.672 16.384-166.868 7.016-15.799-2.735-30.728-6.203-44.134-10.208 0 0 3.659-42.598 4.645-68.289l11.349-.54s128.803-6.439 129.143-6.54c9.977 5.047 55.353 30.945 65.865 78.563z" fill="#ffa9dc"/><path d="M318.477 677.465s3.659-42.598 4.645-68.289l14.019 1.861c2.022 22.381 4.648 57.397 15.302 74.932.112.184-20.56-4.499-33.966-8.504z" fill="#ff90d8"/><path d="M436.853 695.15c-24.012 0-49.265-2.144-74.412-6.491-15.766-2.729-30.653-6.173-44.25-10.235a1 1 0 0 1-.71-1.043c.036-.426 3.667-42.87 4.642-68.243a.999.999 0 0 1 .951-.96l11.349-.541c1.268-.063 126.721-6.335 129.064-6.533.198-.024.399.009.578.1 9.192 4.65 55.592 30.321 66.39 79.24.108.493-.168.991-.645 1.159-25.479 8.972-57.89 13.549-92.957 13.549zm-117.311-18.411c13.31 3.939 27.853 7.285 43.239 9.949 61.149 10.57 122.93 8.068 165.524-6.68-11.074-47.906-58.463-73.604-64.925-76.909-2.639.172-19.326 1.06-128.861 6.535l-10.436.497c-.946 23.534-4.04 60.662-4.542 66.608z" fill="#112c41"/><path d="M442.637 697.278a2.5 2.5 0 0 1-2.315-1.556c-4.675-11.454-13.792-24.981-45.968-38.467-27.69-11.607-38.849-26.139-41.17-53.618a2.501 2.501 0 0 1 4.982-.421c2.162 25.602 12.138 38.536 38.121 49.427 26.934 11.29 41.487 23.608 48.663 41.189a2.5 2.5 0 0 1-2.313 3.445z" fill="#fff"/><path d="M532.942 703.551c.026 1.597-.502 3.03-1.889 4.145-25.267 20.318-148.335 22.095-207.877.577-5.1-1.843-6.179-4.833-6.371-8.151l1.672-22.657c59.418 17.733 148.683 25.132 211.002 3.193 1.904 7.784 3.344 15.681 3.463 22.893z" fill="#fff"/><path d="M436.319 724.687c-44.339 0-86.537-5.734-113.483-15.473-5.855-2.117-6.84-5.754-7.029-9.034a.97.97 0 0 1 0-.132l1.673-22.657a.998.998 0 0 1 1.284-.885c57.215 17.075 147.454 25.362 210.383 3.207a1 1 0 0 1 1.304.706c2.244 9.175 3.387 16.736 3.492 23.115.033 2.044-.728 3.707-2.263 4.941-12.031 9.674-47.17 15.881-91.705 16.198-1.218.009-2.44.013-3.655.013zm-118.513-24.558c.195 3.159 1.254 5.594 5.709 7.204 61.464 22.213 182.977 18.832 206.91-.416 1.044-.839 1.54-1.935 1.517-3.35-.099-5.98-1.139-13.056-3.177-21.603-62.862 21.695-152.131 13.642-209.382-3.189l-1.577 21.353z" fill="#112c41"/><path d="M323.122 609.172c42.218 7.741 102.595 3.687 140.492-7.076 0 0 .005-16.11.134-36.163.006-.695.006-1.398.006-2.101s0-1.406.007-2.115c0-.703 0-1.42.002-2.137-35.226 9.423-92.827 12.372-141.915 9.773 0 0 .005.1.003.284.001.064-.006.148.008.228 0 .078-.006.149.001.22a833.384 833.384 0 0 1 1.262 39.087z" fill="#fff"/><path d="M373.378 614.157c-18.216 0-35.7-1.3-50.437-4.002a.998.998 0 0 1-.819-.975c-.115-13.083-.516-25.488-1.26-39.041a1.787 1.787 0 0 1-.005-.227c-.007-.078-.008-.155-.007-.227.002-.196 0-.273 0-.288a1.004 1.004 0 0 1 .296-.755.97.97 0 0 1 .756-.29c53.345 2.824 108.926-1 141.604-9.74a1 1 0 0 1 1.259.967l-.002 2.135c-.008.717-.008 1.416-.008 2.115v.234c0 .628 0 1.255-.006 1.876a6835.081 6835.081 0 0 0-.134 36.154.999.999 0 0 1-.727.961c-25.44 7.226-59.066 11.1-90.51 11.1zm-49.264-5.822c39.667 7.083 98.847 4.098 138.501-6.997.003-3.421.021-18.013.133-35.412.006-.618.006-1.239.006-1.86v-.234c0-.707 0-1.413.008-2.126v-.828c-32.794 8.498-87.358 12.221-139.883 9.53a829.264 829.264 0 0 1 1.235 37.928z" fill="#112c41"/><circle cx="451.393" cy="630.52" fill="#ffe993" r="8.5"/><path d="M452.756 633.138c15.3-.339 31.577-8.779 36.165-13.357a2.833 2.833 0 0 0-4.001-4.011c-3.523 3.515-19.044 11.729-33.174 11.713a2.832 2.832 0 0 0-.01 5.664c.339 0 .68-.003 1.019-.01z" fill="#fff"/><path d="M451.85 634.148h-.116a3.837 3.837 0 0 1-3.824-3.838 3.84 3.84 0 0 1 3.835-3.826c.013.003.029 0 .042 0 13.843 0 29-8.001 32.428-11.421a3.837 3.837 0 0 1 5.42.006 3.837 3.837 0 0 1-.007 5.42c-4.721 4.709-21.072 13.297-36.848 13.648-.311.007-.621.011-.93.011zm-.105-5.664c-1.01 0-1.833.82-1.835 1.829 0 1.01.819 1.833 1.829 1.835.323.002.663-.002.994-.01 15.031-.333 31.088-8.683 35.481-13.065.715-.713.717-1.876.003-2.592s-1.876-.716-2.592-.002c-3.603 3.594-19.453 12.004-33.84 12.005h-.042z" fill="#112c41"/><circle cx="468.608" cy="651.164" fill="#ffe993" r="8.5"/><path d="M470.223 654.013c15.269-1.042 32.135-12.223 36.509-17.007a2.834 2.834 0 0 0-4.181-3.823c-3.357 3.673-19.48 14.594-33.596 15.228a2.832 2.832 0 1 0 .251 5.659c.339-.015.679-.034 1.018-.057z" fill="#fff"/><path d="M469.079 655.073a3.837 3.837 0 0 1-3.827-3.663 3.84 3.84 0 0 1 3.658-3.998c14.057-.631 29.818-11.529 32.903-14.904a3.812 3.812 0 0 1 2.657-1.243 3.826 3.826 0 0 1 2.757 1 3.809 3.809 0 0 1 1.243 2.657 3.809 3.809 0 0 1-1 2.757c-4.104 4.49-21.191 16.239-37.179 17.33-.347.023-.693.043-1.04.059-.058.002-.115.004-.172.004zm35.566-21.811c-.028 0-.057 0-.084.002-.489.022-.94.233-1.271.594-3.22 3.522-19.655 14.895-34.29 15.552a1.837 1.837 0 0 0-1.75 1.912 1.835 1.835 0 0 0 1.912 1.749c.33-.015.663-.033.994-.056 15.426-1.053 31.888-12.362 35.838-16.685.33-.361.5-.829.479-1.318a1.821 1.821 0 0 0-.595-1.271 1.819 1.819 0 0 0-1.233-.48z" fill="#112c41"/><path d="M530.513 469.781s-59.06-16.62-67.06-21.62c2 29 .47 80.32.47 80.32s-36.47 9.68-84.47 9.68c-19.41 0-36.76-.81-49.97-1.71-3.94-.26-7.5-.54-10.65-.8-8.69-.72-15.39-7.93-15.49-16.65-.12-10.75-.37-27.12-.89-48.84-1-42-9-140.01-66-165-59.74-26.2-85.86-13.03-167-51-55.1-25.78-88.62-105.76-55-173 16.29-32.57 40.12-57.1 75.71-70 36.53-13.23 85.44-14.2 151.29 1 130 30 274 100 310 215s-20.94 242.62-20.94 242.62z" fill="#b2b0f7"/><path d="M379.453 539.161c-16.524 0-33.359-.576-50.038-1.712-4.31-.285-8.15-.594-10.664-.801-9.247-.766-16.301-8.347-16.408-17.635-.111-9.969-.356-26.531-.89-48.828-.547-22.981-3.066-57.013-11.963-88.632-11.084-39.396-29.063-64.79-53.438-75.476-26.652-11.689-46.632-15.52-67.784-19.576-26.708-5.121-54.325-10.417-99.238-31.434-27.637-12.931-50.007-39.089-61.374-71.769-12.01-34.521-9.913-70.953 5.902-102.584 17.614-35.218 42.561-58.277 76.264-70.493 38.679-14.009 88.352-13.692 151.855.965 50.414 11.634 124.396 34.22 190.557 75.752 63.07 39.593 103.502 86.669 120.173 139.923 18.661 59.611 11.961 122.598 3.055 164.94-9.646 45.854-23.894 78.066-24.036 78.387a1 1 0 0 1-1.184.555c-2.291-.645-53.49-15.082-65.674-20.861 1.803 29 .369 78.125.354 78.628a1.002 1.002 0 0 1-.743.937c-.366.097-37.146 9.714-84.727 9.714zM154.757 1.946c-24.257 0-45.562 3.385-64.254 10.155C57.305 24.134 32.721 46.87 15.347 81.609-.225 112.753-2.287 148.633 9.544 182.641c11.191 32.173 33.183 57.911 60.333 70.614 44.688 20.912 72.18 26.184 98.767 31.281 21.267 4.078 41.354 7.93 68.211 19.708 24.95 10.938 43.307 36.767 54.562 76.766 8.952 31.819 11.487 66.03 12.037 89.126.533 22.307.778 38.879.89 48.853.095 8.25 6.36 14.984 14.573 15.665 2.507.207 6.336.515 10.634.799a737.627 737.627 0 0 0 49.903 1.708c43.646 0 78.133-8.13 83.491-9.463.178-6.464 1.354-52.755-.489-79.468a1.001 1.001 0 0 1 1.528-.917c7.274 4.547 58.723 19.217 65.96 21.268 2.23-5.209 14.808-35.554 23.571-77.238 8.85-42.096 15.511-104.7-3.016-163.883C505.742 84.486 302.463 27.267 241.228 13.135 208.911 5.676 180.21 1.946 154.757 1.946z" fill="#112c41"/><path d="M329.483 536.451c-3.94-.26-7.5-.54-10.65-.8-8.69-.72-15.39-7.93-15.49-16.65-.12-10.75-.37-27.12-.89-48.84-1-42-9-140.01-66-165-59.74-26.2-85.86-13.03-167-51-55.1-25.78-88.62-105.76-55-173 16.29-32.57 40.12-57.1 75.71-70 .01.01.02.01.02.01-58.73 42.99-75.73 108.99-56.73 161.99 17.889 49.9 72.413 78.894 129 88 87 14 117 44 132 84 18.126 48.337 22 109 22 142s13.03 49.29 13.03 49.29z" fill="#9797f7"/><g fill="#112c41"><path d="M379.453 539.161a748.37 748.37 0 0 1-60.698-2.509c-9.253-.768-16.31-8.352-16.414-17.641-.113-10.024-.358-26.632-.888-48.826-.547-22.982-3.066-57.014-11.962-88.63-11.084-39.395-29.063-64.79-53.439-75.478-26.65-11.686-46.629-15.518-67.781-19.574-26.709-5.122-54.327-10.419-99.241-31.437-27.639-12.934-50.01-39.094-61.377-71.774-12.007-34.517-9.909-70.948 5.905-102.578 37.363-74.727 109.847-96.82 228.119-69.527 50.414 11.634 124.396 34.22 190.557 75.753 63.07 39.592 103.502 86.669 120.173 139.923 18.661 59.611 11.961 122.597 3.054 164.938-9.646 45.853-23.895 78.065-24.037 78.385a1.003 1.003 0 0 1-1.184.555c-2.291-.645-53.493-15.08-65.672-20.858 1.803 29 .373 78.124.358 78.627a1.002 1.002 0 0 1-.743.937c-.366.097-37.15 9.715-84.73 9.715zM154.711 1.959c-67.505 0-112.609 26.139-139.364 79.65-15.572 31.143-17.634 67.022-5.805 101.027 11.19 32.174 33.182 57.914 60.335 70.62 44.688 20.912 72.182 26.185 98.771 31.284 21.266 4.078 41.352 7.93 68.207 19.706 24.951 10.941 43.308 36.769 54.562 76.768 8.952 31.817 11.487 66.028 12.037 89.124.529 22.204.774 38.821.888 48.851.093 8.252 6.36 14.989 14.58 15.67a745.812 745.812 0 0 0 60.532 2.502c43.646 0 78.137-8.131 83.495-9.464.177-6.463 1.35-52.754-.493-79.467a1.001 1.001 0 0 1 1.528-.917c7.274 4.547 58.721 19.214 65.958 21.265 2.231-5.209 14.808-35.554 23.572-77.236 8.851-42.096 15.512-104.699-3.015-163.882C505.742 84.486 302.463 27.267 241.228 13.136c-32.189-7.428-60.964-11.177-86.517-11.177z"/><path d="M464.016 460.134a1 1 0 0 1-1-.979c-.016-.738-1.791-74.598-21.521-139.704-21.503-70.96-67.121-171.317-214.376-223.347a1 1 0 1 1 .666-1.886c66.323 23.434 118.918 59.167 156.323 106.204 33.898 42.626 50.079 88.016 59.301 118.449C463.22 384.246 465 458.372 465.015 459.113a1 1 0 0 1-.979 1.021h-.021z"/></g></svg></g><g transform="translate(314.0 527.0) rotate(0.0 380.0 293.5) scale(0.9997263906720266 0.9998143445254628)"><svg width="760.208" height="587.109" viewBox="0 0 760.208 587.109"><path d="M591.313 129.804c-17.058 66.385-38.284 95.847-58.049 98.902-10.416 1.61-26.2-3.488-40.936-8.87-12.25-4.491-23.772-9.186-30.849-10.389-15.588-2.65-253.544 15.922-255.52 16.227-.81.125-22.847-3.136-49.864-7.52-38.684-6.284-87.568-14.856-98.943-19.058-6.643-2.454-15.099-6.429-23.428-11.475-15.876-9.618-31.265-23.156-32.716-37.522-.87-8.638 10.514-27.813 25.738-49.513 18.14-25.875 43.919-50.781 88.07-65.22 36.196-11.838 87.297-25.035 141.499-30.56.01-.002 4 0 4 0 4.612-.47 5.341-.573 10-1 23.776-2.178 49.058-2.092 73-3 37.229-1.424 70.708 1.659 103 5 58 6 88.438 13.089 112 20 16.368 4.816 31.259 16.169 36 20 10.141 8.197 9.913 33.737-3 84z" fill="#ffe993"/><path d="M591.313 129.804c-17.058 66.385-41.235 97.945-61 101-10.416 1.61-37.915-9.618-52.65-15 1-3 2.146-8.731 3.65-11 6.161-9.3 11-46 11-46s0-22 22-72c11.255-25.58 27.441-48.595 44-61 16.368 4.816 31.951 15.444 36 20 8 9 9.913 33.737-3 84z" fill="#fff"/><path d="M277.313 3.804c-.292.058 6.363 2.503-4 4-53.322 7.7-228.289 38.694-246.225 147.369-2.335 14.146 7.074 22.392 6.635 32.447-15.876-9.618-31.265-23.156-32.716-37.522-1.843-25.012 45.016-94.993 113.807-114.734 36.606-10.504 85.499-27.56 162.499-31.56z" fill="#ffd169"/><path d="M188.007 214.283c.284.725-18.783 2.6-31.913 3.871-38.684-6.284-87.568-14.856-98.943-19.058-6.643-2.454-15.099-6.429-23.428-11.475-15.876-9.618-31.265-23.156-32.716-37.522-.87-8.638 5.686-22.128 16.772-42.056 41.7-3.137 64.929 1.093 96.186 13.463 36.216 14.333 60.546 38.199 60.799 42.976.645 4.433 12.014 46.693 13.244 49.801z" fill="#fff"/><path d="M526.428 232.084c-11.896 0-27.621-6.719-41.671-12.722-9.075-3.877-17.646-7.54-23.382-8.515-15.872-2.697-253.227 15.972-255.209 16.231-1.339.189-37.681-5.385-68.21-10.503-25.595-4.291-70.163-12.093-81.088-16.127-7.367-2.722-15.969-6.935-23.6-11.558-11.665-7.067-31.491-21.437-33.193-38.277-1.006-9.953 7.899-32.202 26.868-55.469 16.019-19.647 44.21-46.132 87.552-60.728C208.1 2.893 317.322-6.793 448.4 4.808c109.193 9.663 133.539 29.584 145.239 39.158.449.368.882.722 1.302 1.061 10.921 8.827 9.177 43.238-4.667 92.051-17.057 60.149-36.621 91.131-59.81 94.715a26.44 26.44 0 0 1-4.037.292zm-70.589-23.464c2.849 0 4.846.081 5.872.256 5.968 1.014 14.645 4.722 23.831 8.647 15.458 6.605 32.973 14.092 44.618 12.293 22.334-3.453 41.369-33.966 58.19-93.284 13.414-47.3 15.458-81.767 5.333-89.949-.422-.341-.857-.698-1.311-1.068-11.545-9.447-35.569-29.104-144.148-38.713C317.423-4.772 208.47 4.88 115.133 36.314c-42.89 14.444-70.788 40.653-86.64 60.097-18.426 22.6-27.369 44.691-26.427 54.001 1.614 15.976 20.893 29.893 32.24 36.768 7.526 4.561 16.003 8.713 23.256 11.393 18.052 6.666 143.073 26.52 148.38 26.52h.014c1.639-.258 209.718-16.472 249.884-16.472z" fill="#112c41"/><path d="M592.573 70.594c-.03 1.51-.12 3.09-.25 4.77-3.04 36.51-31.4 113.77-47.67 136.05-.33.45-.65.88-.97 1.29-.11.14-.22.28-.33.41-.52.63-1.04 1.22-1.53 1.73-7.04 7.97-11.52 9.35-13.96 6.05-1.64-2.22-2.35-6.57-2.29-12.47 0-.3.01-.6.021-.91.01-.56.03-1.14.06-1.73.02-.41.03-.84.07-1.27.03-.68.08-1.38.14-2.09.06-.8.14-1.61.22-2.44.02-.24.05-.48.07-.72.05-.5.11-1.01.17-1.53.521-4.55 1.31-9.54 2.31-14.89.23-1.24.47-2.5.73-3.79 7.93-39.15 26.91-93.64 43.87-114.5.22-.29.44-.56.67-.81.6-.71 1.19-1.37 1.78-1.99 3.82-4 7.5-6.12 10.89-5.78 3.92.38 5.75 4.76 5.98 11.84.03.88.04 1.81.02 2.78z" fill="#112c41"/><path d="M530.968 223.563a4.11 4.11 0 0 1-.222-.005c-1.479-.064-2.72-.761-3.688-2.07-1.738-2.353-2.552-6.63-2.486-13.074 0-.268.009-.546.018-.832.013-.656.034-1.247.063-1.848l.016-.337c.014-.32.027-.648.058-.976.028-.644.078-1.358.14-2.081.055-.723.126-1.461.198-2.216l.091-.942c.047-.459.098-.905.15-1.36l.023-.203c.504-4.409 1.264-9.302 2.32-14.96.23-1.243.472-2.508.732-3.803 7.879-38.895 26.97-93.896 44.074-114.933.221-.29.46-.583.71-.855a44.875 44.875 0 0 1 1.792-2.003c4.199-4.397 8.134-6.445 11.714-6.086 4.302.417 6.617 4.724 6.88 12.803.033.952.04 1.906.021 2.833a82.293 82.293 0 0 1-.253 4.826c-3.095 37.171-31.598 114.295-47.859 136.562-.338.46-.663.898-.989 1.316a30.988 30.988 0 0 1-1.927 2.218c-4.758 5.388-8.557 8.026-11.575 8.026zm54.896-166.625c-2.788 0-5.965 1.849-9.457 5.506a43.535 43.535 0 0 0-1.74 1.945c-.236.259-.437.505-.638.77-16.933 20.827-35.854 75.431-43.686 114.093a241.501 241.501 0 0 0-.727 3.773c-1.049 5.613-1.802 10.46-2.301 14.822l-.023.204c-.051.445-.101.883-.145 1.313l-.092.952c-.072.74-.142 1.465-.196 2.182a53.775 53.775 0 0 0-.138 2.059c-.03.342-.043.636-.055.923l-.016.352a53.445 53.445 0 0 0-.059 1.697l-.004.115c-.008.264-.017.521-.017.778-.074 7.373 1.098 10.527 2.095 11.876.6.811 1.309 1.223 2.166 1.26.044.002.088.003.133.003 1.669 0 4.752-1.319 10.107-7.382.494-.515.992-1.078 1.508-1.704.1-.117.188-.231.278-.344.35-.447.663-.869.986-1.311 16.13-22.086 44.407-98.635 47.48-135.542.139-1.786.22-3.328.246-4.706v-.002c.02-.891.013-1.807-.019-2.724-.226-6.915-1.934-10.574-5.078-10.879a6.192 6.192 0 0 0-.612-.031z" fill="#112c41"/><path d="M492.571 136.789c2.472 77.391-44.384 147.522-115.157 175.655-12.564 4.998-25.89 8.667-39.814 10.82-75.137 11.615-146.656-24.25-184.055-85.252a181.22 181.22 0 0 1-15.41-31.678z" fill="#ffe993"/><path d="M377.415 312.444c-12.564 4.998-25.89 8.667-39.814 10.82-75.137 11.615-146.656-24.25-184.055-85.252 4.635-5.493-.325-33.979-.325-33.979s75.671 136.036 224.165 108.416l.03-.005z" fill="#ffd169"/><path d="M309.724 326.403c-32.932.001-65.525-8.833-94.018-25.771-36.092-21.455-63.974-54.819-78.511-93.946a1 1 0 1 1 1.875-.697c29.918 80.526 113.346 129.431 198.378 116.286 90.801-14.037 157.062-93.765 154.128-185.454a.998.998 0 0 1 .967-1.031h.033a1 1 0 0 1 .998.968c2.967 92.698-64.021 173.303-155.821 187.495a183.54 183.54 0 0 1-28.029 2.151z" fill="#112c41"/><path d="M185.644 205.541c-.071.062-.133.122-.206.174-17.005 14.103-130.661-18.769-159.106-37.888l-.509-.346c-1.26-.888-2.351-1.721-3.254-2.523-12.408-10.164-10.067-15.049.759-16.166 1.582-.174 3.36-.256 5.292-.262 35.131-.139 124.015 24.866 148.288 46.39 1.066 2.841 5.486 5.446 7.767 8.807 0 0 .002.01.011.008.383.578.718 1.174.957 1.805z" fill="#112c41"/><path d="M169.489 210.173c-18.523 0-45.852-6.419-59.565-9.976-35.693-9.26-70.297-22.229-84.149-31.54l-.514-.349c-1.383-.974-2.476-1.822-3.355-2.602-6.698-5.486-9.495-9.744-8.521-12.991.814-2.709 4.033-4.318 9.842-4.917 1.559-.171 3.375-.261 5.392-.267h.285c17.026 0 47.67 5.918 78.222 15.115 33.571 10.106 59.249 21.597 70.447 31.528l.186.165.088.232c.504 1.342 2.023 2.758 3.634 4.258 1.286 1.198 2.611 2.433 3.656 3.825l.03-.005.355.537c.472.712.817 1.368 1.058 2.003l.246.653-.526.457-.655-.756.608.797a2.575 2.575 0 0 1-.231.189c-3.165 2.626-9.15 3.646-16.531 3.646zM28.925 149.53h-.3c-1.947.005-3.691.092-5.187.256-4.786.494-7.598 1.705-8.138 3.504-.398 1.325.1 4.503 7.902 10.895.853.755 1.889 1.558 3.196 2.479l.497.339c28.514 19.165 139.978 50.911 157.521 38.24a9.32 9.32 0 0 0-.469-.808l-.222-.172-.019-.174c-.956-1.342-2.295-2.589-3.592-3.797-1.705-1.588-3.32-3.092-4.045-4.775-23.352-20.445-110.887-45.985-147.146-45.985z" fill="#112c41"/><path d="M256.313 579.804c-13.391 5.356-28.986-20.629-51-20-35 1-86.847 33.041-117 25-15-4-12.476-16.416-10-22 0 0-9.31 2.343-15 0-17-7-8-22-8-22-4-5-21.573-23.287 28-42 21.893-8.272 40-3 54-23l2-4c1.602-11.824-3.119-25.836-13.047-55.305-8.909-26.409-21.088-52.039-34.33-77.222-1.222-2.604-2.663-5.639-4.275-9.063a295.34 295.34 0 0 1-.9-1.895c-.313-.65-.626-1.3-.932-1.971-.326-.668-.645-1.357-.974-2.045a2492.703 2492.703 0 0 1-6.398-13.633c-.362-.774-.715-1.549-1.079-2.333a1424.422 1424.422 0 0 1-3.641-7.907 258.582 258.582 0 0 1-1.545-3.384 81.531 81.531 0 0 1-.921-2.033c-.213-.463-.417-.927-.63-1.39a1193.937 1193.937 0 0 1-9-20.384c-.421-.957-.832-1.915-1.245-2.884-3.936-9.227-7.887-18.816-11.664-28.523a409.576 409.576 0 0 1-1.246-3.217c-3.028-7.87-5.933-15.799-8.605-23.653a712.589 712.589 0 0 1-1.806-5.397 441.795 441.795 0 0 1-4.08-13.04 515.83 515.83 0 0 1-1.445-5.028 306.542 306.542 0 0 1-3.316-12.743c-.221-.907-.423-1.817-.632-2.715a211.01 211.01 0 0 1-1.253-5.878c-.126-.618-.25-1.226-.363-1.826a55.081 55.081 0 0 1-.334-1.77c-.166-.875-.318-1.732-.463-2.6a158.656 158.656 0 0 1-1.151-7.836 46.436 46.436 0 0 1-.196-1.659c-.064-.547-.117-1.085-.171-1.633a20.39 20.39 0 0 1-.11-1.106c-.032-.4-.074-.808-.106-1.208-.051-.589-.088-1.16-.126-1.731 1.582-.174 3.36-.256 5.292-.262 5.521-.024 12.373.577 20.083 1.682 41.386 5.957 107.744 26.571 128.205 44.708 1.066 2.841 5.486 5.446 7.767 8.807.254.659.507 1.318.762 1.987a11617.182 11617.182 0 0 0 15.669 40.947c16.91 43.932 31.008 89.311 41.225 129.219 10.751 41.99 16.98 81.924 18.98 111.924.789 11.828 2 33 4 53 1.759 17.589 1 35-9 39z" fill="#ffd6c0"/><path d="M139.313 471.804c.369-25.083-14.319-64.037-33-104-31.963-68.378-76.422-147.23-82.984-219.012 6.424-.648 15.664.045 25.375 1.42-3.84 82.228 118.149 279.758 90.609 321.592z" fill="#f5b9ab"/><g fill="#112c41"><path d="M96.951 587.07c-6.819 0-12.471-1.365-16.392-4.723-5.581-4.779-6.614-12.838-4.36-18.278-9.061 1.782-17.382-.497-21.152-5.947-5.178-7.484-2.264-14.875-1.113-17.188-5.027-4.838-6.952-11.516-5.15-18.015 2.112-7.616 11.211-21.448 48.424-28.521 23.361-4.448 33.994-9.618 39.23-19.077 5.354-9.671-.771-27.825-10.042-55.305l-1.077-3.196c-7.752-22.978-18.32-46.749-34.268-77.076-1.225-2.61-2.643-5.601-4.233-8.959-16.839-35.531-51.879-109.465-61.977-163.118-1.288-6.777-2.132-13.106-2.51-18.807a1 1 0 0 1 .889-1.06c1.565-.172 3.382-.262 5.398-.268h.285c17.026 0 47.67 5.918 78.222 15.115 33.526 10.092 59.179 21.566 70.401 31.488 3.479 2.402 5.61 5.546 7.868 8.873l.06.088c.071.085.13.184.171.293.215.579.439 1.164.666 1.757l.081.213a11776.037 11776.037 0 0 0 15.669 40.945c15.923 41.369 30.191 86.091 41.261 129.33 11.378 44.439 17.746 89.84 19.01 115.122.494 9.892 1.476 19.933 2.425 29.643 2.916 29.822 5.434 55.577-8.091 60.35-8.193 2.894-15.339-2.441-22.899-8.089-7.775-5.809-16.593-12.384-28.389-11.855-13.816.628-33.152 6.87-51.852 12.906-20.452 6.602-41.387 13.36-56.555 13.36zm-18.848-25.468a.999.999 0 0 1 .831 1.557c-3.048 4.548-2.444 13.07 2.926 17.668 11.795 10.103 41.908.38 71.031-9.021 18.825-6.077 38.29-12.361 52.375-13.001 12.509-.57 21.633 6.242 29.677 12.251 7.431 5.55 13.848 10.341 21.036 7.805 12.048-4.252 9.601-29.285 6.767-58.27-.951-9.733-1.936-19.798-2.433-29.738-1.258-25.181-7.605-70.421-18.949-114.726-11.051-43.165-25.294-87.81-41.19-129.108a11866.307 11866.307 0 0 1-15.67-40.95l-.081-.211c-.212-.553-.421-1.1-.623-1.641l-.061-.09c-2.253-3.321-4.199-6.19-7.396-8.382a1.026 1.026 0 0 1-.098-.076c-23.086-20.471-110.97-46.139-147.321-46.139h-.3a53.328 53.328 0 0 0-4.229.164c.4 5.367 1.21 11.282 2.41 17.599 10.051 53.401 45.016 127.178 61.819 162.633a2332.43 2332.43 0 0 1 4.216 8.926c15.979 30.383 26.585 54.244 34.372 77.326l1.078 3.196c9.44 27.983 15.678 46.47 9.896 56.913-5.567 10.057-16.573 15.498-40.606 20.073-36.15 6.872-44.883 19.923-46.87 27.091-1.662 5.994.258 12.172 5.136 16.526.358.32.438.853.189 1.265-.195.322-4.706 7.989.655 15.74 2.987 4.319 10.687 7.431 21.155 4.652a.987.987 0 0 1 .257-.034z"/><path d="M78.105 563.597a.999.999 0 0 1-.76-1.649c15.556-18.242 39.74-19 39.983-19.005h.022a.998.998 0 0 1 .023 1.999c-.234.006-23.546.758-38.508 18.304a.997.997 0 0 1-.761.351zm-22.923-21.871a.999.999 0 0 1-.865-1.5c9.968-17.257 32.549-25.355 44.672-25.395h.003a1 1 0 0 1 .003 2c-12.12.04-33.787 8.539-42.945 24.395a1 1 0 0 1-.867.5zM190.9 220.907a1 1 0 0 1-.925-.619c-5.861-14.21-15.717-56.585-16.134-58.382a1.001 1.001 0 0 1 1.949-.452c.102.438 10.235 44.012 16.034 58.071a1.001 1.001 0 0 1-.925 1.382zM348.25 11.135c1.413 13.462-15.929 26.302-38.721 28.692s-42.414-6.588-43.826-20.04c-.521-4.938 1.49-9.803 5.371-14.086 23.776-2.178 48.067-3.778 72.009-4.686 2.941 2.925 4.775 6.345 5.167 10.12z"/><path d="M302.296 41.209c-20.059.001-36.277-8.824-37.588-21.317-.535-5.072 1.41-10.211 5.624-14.862l.262-.289.389-.036C295.16 2.491 319.405.914 343.045.017L343.48 0l.309.307c3.214 3.196 5.05 6.804 5.455 10.725.722 6.875-3.071 13.767-10.682 19.405-7.455 5.522-17.729 9.211-28.929 10.385-2.486.261-4.94.387-7.337.387zM271.557 6.662c-3.643 4.138-5.322 8.634-4.86 13.021 1.353 12.888 20.519 21.479 42.728 19.15 10.851-1.138 20.775-4.69 27.947-10.003 7.019-5.2 10.528-11.447 9.884-17.59-.344-3.329-1.882-6.424-4.573-9.208-23.337.894-47.263 2.451-71.124 4.63z"/></g><path d="M718.313 291.804c-34 23-81.44 31.73-119 43-17 5.1-29.35 11.73-38.68 18.82-23.61 17.94-27.98 38.85-39.77 45.61-12.13 6.95-20.53-5.3-20.53-5.3-3.16 9.49-9.91 12.44-14.16 12.53-8.4.16-23.78-10.51-27.1-42.59-6.36 15.61-17.53 20.89-24.89 18.33-6.87-2.39-14.7-17.53-6.87-50.4 5-21 16-38 43.58-63.23 25.55-23.37 57.66-49.29 75.42-56.77-6.52-1.56-15.04-3.29-20.72-4.29.04-1.09-.01-.46.13-3 3.83-44.18 26.95-113.44 47.51-139.96.22-.29.44-.56.67-.81.6-.71 1.19-1.37 1.78-1.99 46.78 17.32 108.82 38.21 149.3 74.67 14.97 13.71 24.57 29.41 29.68 45.6v.01c13.35 42.27-3.93 87.84-36.35 109.77z" fill="#ffd6c0"/><path d="M485.973 407.466c-9.127 0-23.437-10.641-27.463-39.903-6.713 13.545-17.202 18.178-24.655 15.586-6.325-2.2-16.034-15.811-7.515-51.576 5.236-21.991 17.128-39.266 43.878-63.736 23.392-21.396 54.248-46.69 72.998-55.727-6.333-1.441-13.399-2.836-17.797-3.61a1 1 0 0 1-.825-1.021l.019-.638c.008-.352.013-.583.112-2.381 3.891-44.885 27.525-114.471 47.718-140.518.234-.308.474-.602.724-.874a44.875 44.875 0 0 1 1.792-2.003 1 1 0 0 1 1.072-.249c3.717 1.376 7.531 2.775 11.423 4.203 44.906 16.471 100.793 36.971 138.198 70.662 14.405 13.192 24.485 28.681 29.966 46.042.008.025.015.05.02.075 12.937 41.065-2.518 87.669-36.764 110.834-26.484 17.915-61.66 27.374-92.694 35.719-9.327 2.508-18.136 4.876-26.579 7.41-15.353 4.606-27.901 10.709-38.361 18.658-13.068 9.929-20.234 20.86-25.992 29.644-4.739 7.229-8.482 12.938-13.887 16.037-10.135 5.805-17.878-1.032-20.695-4.181-3.404 8.328-9.805 11.444-14.47 11.543l-.222.002zm-26.899-44.592a1 1 0 0 1 .996.897c3.151 30.458 17.48 41.695 25.907 41.695.06 0 .119 0 .178-.002 4.313-.091 10.368-3.248 13.23-11.846a1.003 1.003 0 0 1 1.774-.251c.323.469 8.041 11.399 19.208 4.999 4.988-2.86 8.615-8.393 13.208-15.398 5.842-8.912 13.113-20.002 26.454-30.14 10.655-8.096 23.411-14.305 38.998-18.981 8.47-2.542 17.293-4.914 26.634-7.425 30.883-8.305 65.887-17.717 92.093-35.445 33.549-22.694 48.671-68.384 35.958-108.64a1.05 1.05 0 0 1-.021-.075c-5.378-16.995-15.264-32.169-29.383-45.099-37.111-33.427-92.798-53.853-137.542-70.265-3.677-1.349-7.284-2.672-10.806-3.974-.425.46-.851.945-1.293 1.467-.236.259-.437.505-.638.77-20.016 25.819-43.446 94.884-47.31 139.441a89.141 89.141 0 0 0-.102 2.08c5.178.932 13.306 2.566 19.928 4.151a1 1 0 0 1 .156 1.894c-18.132 7.637-50.7 34.238-75.133 56.586-26.419 24.168-38.149 41.168-43.282 62.724-7.595 31.883-.438 46.906 6.226 49.224 6.966 2.423 17.613-2.981 23.637-17.763a1 1 0 0 1 .926-.623z" fill="#112c41"/><path d="M718.313 291.804c-34 23-81.44 31.73-119 43-17 5.1-29.35 11.73-38.68 18.82 18.68-23.82 54.2-34.021 91.68-45.82 54-17 112-60 102.35-125.77 13.35 42.27-3.93 87.84-36.35 109.77z" fill="#f5b9ab"/><path d="M485.964 407.465c-9.125 0-23.431-10.636-27.458-39.898-6.709 13.544-17.19 18.177-24.647 15.583-6.324-2.199-16.035-15.809-7.519-51.577 5.236-21.992 17.13-39.267 43.883-63.74 23.377-21.385 54.229-46.675 72.996-55.724a411.565 411.565 0 0 0-17.8-3.61.999.999 0 0 1-.825-1.02c.011-.322.015-.49.018-.637.007-.353.011-.581.113-2.384 3.889-44.884 27.523-114.47 47.718-140.516.234-.308.474-.602.724-.874a44.875 44.875 0 0 1 1.792-2.003 1 1 0 0 1 1.072-.248c3.731 1.382 7.561 2.787 11.468 4.22 44.893 16.47 100.764 36.968 138.153 70.646 24.413 22.35 36.587 51.924 34.285 83.278-2.22 30.239-17.57 57.78-41.063 73.672-26.487 17.918-61.668 27.377-92.706 35.723-9.322 2.506-18.128 4.874-26.567 7.406-40.701 12.21-54.373 33.07-64.356 48.301-4.737 7.228-8.479 12.938-13.882 16.033-10.13 5.806-17.88-1.027-20.7-4.174-3.402 8.336-9.806 11.448-14.474 11.541l-.224.002zm-26.896-44.588a1 1 0 0 1 .997.897c3.151 30.458 17.478 41.691 25.903 41.691.061 0 .121 0 .181-.002 4.315-.085 10.371-3.238 13.231-11.843a1 1 0 0 1 1.773-.252c.323.468 8.042 11.395 19.215 4.992 4.986-2.857 8.613-8.39 13.204-15.395 10.151-15.488 24.054-36.701 65.454-49.121 8.467-2.54 17.285-4.911 26.622-7.422 30.887-8.305 65.895-17.718 92.104-35.448 22.99-15.552 38.015-42.528 40.19-72.162 2.256-30.731-9.689-59.728-33.635-81.651-37.098-33.414-92.768-53.838-137.499-70.249a4070.755 4070.755 0 0 1-10.85-3.992c-.425.46-.852.945-1.293 1.467-.236.259-.437.505-.638.77-20.018 25.818-43.448 94.883-47.31 139.441a84.922 84.922 0 0 0-.104 2.08c5.268.951 13.438 2.593 19.931 4.151a1.002 1.002 0 0 1 .156 1.894c-18.154 7.653-50.713 34.246-75.129 56.582-26.423 24.171-38.154 41.172-43.287 62.728-7.592 31.887-.434 46.908 6.23 49.226 6.962 2.422 17.608-2.979 23.628-17.761a.997.997 0 0 1 .925-.623z" fill="#112c41"/><path d="M459.072 364.876h-.003a1 1 0 0 1-.997-1.003c.044-15.668 6.014-30.59 11.585-39.33a1 1 0 0 1 1.686 1.075c-5.42 8.503-11.228 23.02-11.271 38.26a1 1 0 0 1-1 .997zm41.263 30.061a.997.997 0 0 1-.861-.491c-8.405-14.197-9.116-38.945 5.789-58.775a1 1 0 0 1 1.599 1.202c-14.378 19.128-13.734 42.929-5.668 56.555a1 1 0 0 1-.86 1.51zm33.4-175.368a1 1 0 0 1-.533-1.847c15.619-9.791 52.749-23.872 70.945-26.904a1 1 0 0 1 .328 1.973c-18.007 3.001-54.753 16.937-70.211 26.626a1 1 0 0 1-.53.153z" fill="#112c41"/></svg></g><g transform="translate(1188.0 938.0) rotate(0.0 68.5 65.0) scale(1.0134260457891038 1.0000076923668644)"><svg width="135.185" height="129.999" viewBox="0 0 135.185 129.999"><ellipse cx="72.247" cy="67.744" fill="#dedffe" rx="60.925" ry="62.24" transform="matrix(.49073648 -.87130804 .87130804 .49073648 -22.233 97.449)"/><path d="M73.278 130.015c-10.867 0-21.646-2.811-31.42-8.316-14.715-8.287-25.39-21.689-30.059-37.737-4.672-16.056-2.772-32.837 5.347-47.253C33.903 6.958 72.251-3.326 102.637 13.788c30.382 17.112 41.468 55.239 24.712 84.99-8.119 14.416-21.486 24.738-37.638 29.065a63.438 63.438 0 0 1-16.434 2.171zM71.219 7.511c-21.098 0-41.435 10.834-52.331 30.18-7.853 13.943-9.688 30.178-5.169 45.712 4.522 15.543 14.864 28.525 29.121 36.554 14.254 8.029 30.716 10.145 46.354 5.955 15.628-4.187 28.56-14.172 36.413-28.115 16.215-28.791 5.47-65.695-23.952-82.267-9.652-5.436-20.135-8.02-30.436-8.02z" fill="#112c41"/><circle cx="61.936" cy="61.936" fill="#fff" r="60.925"/><path d="M61.841 123.889c-10.507 0-20.89-2.7-30.295-7.998C1.796 99.136-8.777 61.299 7.98 31.547 16.097 17.135 29.341 6.746 45.272 2.295 61.201-2.156 77.914-.137 92.326 7.981c29.75 16.756 40.322 54.593 23.566 84.345-8.117 14.412-21.361 24.801-37.292 29.252a62.248 62.248 0 0 1-16.759 2.312zm.186-121.905c-5.413 0-10.86.741-16.217 2.237-15.416 4.308-28.232 14.36-36.088 28.307-16.215 28.791-5.984 65.407 22.806 81.621 13.945 7.854 30.116 9.809 45.534 5.501 15.415-4.307 28.232-14.362 36.088-28.307 16.215-28.791 5.984-65.406-22.807-81.621-9.1-5.125-19.149-7.739-29.316-7.739z" fill="#112c41"/><circle cx="69.113" cy="49.114" fill="#9797f7" r="11.933"/><path d="M62.07 92.088c3.011 1.668 6.778.262 8.01-2.951 5.075-13.237 2.825-26.548-6.009-31.473-8.836-4.926-21.345.162-29.937 11.444-2.086 2.739-1.3 6.683 1.703 8.366a7451.994 7451.994 0 0 0 26.234 14.614z" fill="#9797f7"/><path d="M70.833 108.077a4.19 4.19 0 0 1-2.057-.543L20.068 80.101a4.21 4.21 0 0 1-1.6-5.726l32.036-56.879a4.174 4.174 0 0 1 2.531-1.986 4.178 4.178 0 0 1 3.195.386l48.708 27.433a4.21 4.21 0 0 1 1.6 5.726l-32.036 56.878a4.174 4.174 0 0 1-2.531 1.986 4.226 4.226 0 0 1-1.138.157zM54.17 17.354c-.199 0-.399.027-.597.083a2.19 2.19 0 0 0-1.327 1.041L20.211 75.356a2.206 2.206 0 0 0 .84 3.002l48.708 27.433c.512.289 1.105.36 1.674.202a2.19 2.19 0 0 0 1.327-1.041l32.036-56.878a2.206 2.206 0 0 0-.84-3.002L55.248 17.639a2.195 2.195 0 0 0-1.078-.285z" fill="#112c41"/></svg></g><g transform="translate(1123.0 480.0) rotate(0.0 108.0 119.0) scale(0.9969169420495874 0.9998991698316136)"><svg width="216.668" height="238.024" viewBox="0 0 216.668 238.024"><path d="M182.975 63.558S208.556 212.82 1 236.993c.065-.026.143-.052.209-.065q.013 0 .026-.013C141.461 193.745 125.463 69.138 124.707 63.74a2.452 2.452 0 0 0-.026-.183H91.982L154.538 1l61.124 62.558z" fill="#ffa9dc"/><path d="M.999 237.993c-.45 0-.853-.305-.968-.75a1.001 1.001 0 0 1 .59-1.175 2.57 2.57 0 0 1 .269-.091l.052-.017C136.396 194.258 125.186 75.751 123.806 64.558H91.982a1 1 0 0 1-.707-1.707L153.831.293a.997.997 0 0 1 .707-.293h.006c.268.001.522.11.709.301l61.124 62.558a1.001 1.001 0 0 1-.715 1.699h-31.536c1.034 8.041 5.514 55.997-27.087 99.55-30.317 40.503-82.778 65.359-155.924 73.878a.903.903 0 0 1-.116.007zM94.396 62.558h30.285c.468 0 .876.337.979.794 0 0 .022.1.042.281.725 5.169 15.899 125.021-114.451 171.03 67.164-9.523 115.635-33.628 144.167-71.725 35.032-46.776 26.66-98.693 26.572-99.212a.998.998 0 0 1 .986-1.168h30.313L154.53 2.422 94.395 62.557z" fill="#112c41"/><path d="M154.852 1c-.913 1.186-46.521 62.558-46.521 62.558H91.982l61.161-61.163L154.851 1zm-17.184 62.584a2.596 2.596 0 0 1 2.591 2.851c-2.1 21.006-2.357 131.443-130.588 169.372-2.925.865-5.815.86-8.435 1.108C141.461 193.745 125.463 69.138 124.707 63.74l.157-.156z" fill="#ff90d8"/><path d="M.999 238.024a1 1 0 0 1-.292-1.956c73.769-22.642 103.272-68.3 115.033-102.615 11.594-33.829 8.718-63.537 8.066-68.87H91.985a1 1 0 0 1-.707-1.707L153.83.324a.997.997 0 0 1 .707-.293h.006c.267.001.522.11.709.301l61.131 62.552a1.001 1.001 0 0 1-.715 1.699h-31.546c1.034 8.042 5.518 56.003-27.085 99.559-30.317 40.504-82.776 65.359-155.922 73.875a.903.903 0 0 1-.116.007zm93.4-175.44h30.283a1 1 0 0 1 .988.848c.05.326 4.864 33.021-8.039 70.67-7.581 22.122-19.702 41.615-36.024 57.937-18.285 18.286-41.914 32.607-70.343 42.653 67.157-9.523 115.62-33.625 144.149-71.719 35.034-46.779 26.66-98.702 26.571-99.221a.998.998 0 0 1 .986-1.168h30.321l-58.762-60.13z" fill="#112c41"/></svg></g><g transform="translate(1303.0 654.0) rotate(0.0 63.5 59.0) scale(1.0010010010010009 1.007728767240275)"><svg width="126.873" height="117.095" viewBox="0 0 126.873 117.095"><ellipse cx="68.23" cy="57.515" fill="#dedffe" rx="57.677" ry="56.458" transform="matrix(.98128258 -.19257335 .19257335 .98128258 -9.799 14.216)"/><path d="M67.644 115.036a58.649 58.649 0 0 1-32.295-9.657c-12.971-8.515-21.741-21.5-24.697-36.565s.256-30.402 9.046-43.187C28.483 12.848 41.79 4.149 57.166 1.132c15.372-3.015 30.982.008 43.945 8.519 12.97 8.515 21.74 21.502 24.697 36.565 2.956 15.064-.256 30.401-9.046 43.187-8.785 12.779-22.092 21.478-37.468 24.496a60.496 60.496 0 0 1-11.65 1.139zM68.812 1.993c-3.738 0-7.507.364-11.262 1.101C42.691 6.01 29.833 14.415 21.346 26.76c-8.482 12.338-11.584 27.137-8.731 41.669 2.852 14.532 11.315 27.061 23.831 35.278 12.525 8.222 27.604 11.145 42.464 8.227 14.859-2.916 27.717-11.321 36.204-23.666 8.482-12.338 11.584-27.137 8.731-41.669-2.852-14.532-11.315-27.061-23.831-35.278a56.67 56.67 0 0 0-31.202-9.329z" fill="#112c41"/><circle cx="57.469" cy="59.627" fill="#fff" r="56.458"/><g fill="#112c41"><path d="M57.449 117.091c-26.901.001-50.991-19.029-56.363-46.4C-5.015 39.602 15.315 9.345 46.404 3.244c15.061-2.955 30.371.131 43.109 8.69s21.382 21.568 24.338 36.628c6.102 31.089-14.228 61.346-45.317 67.448a57.685 57.685 0 0 1-11.085 1.082zm.136-112.939c-3.586 0-7.198.349-10.796 1.055C16.782 11.095-2.84 40.299 3.049 70.306s35.095 49.629 65.101 43.74c30.007-5.889 49.629-35.093 43.739-65.1-2.853-14.536-11.194-27.091-23.49-35.353-9.253-6.217-19.911-9.442-30.813-9.442z"/><path d="M49.02 78.247a1 1 0 0 1-.987-.848l-5.897-38.206a1.002 1.002 0 0 1 .49-1.02l28.638-16.455a1 1 0 0 1 1.485.705l6.42 39.099a.999.999 0 1 1-1.972.324L71.01 24.171 44.218 39.565l5.793 37.528a1.001 1.001 0 0 1-.989 1.153z"/><path d="M44.542 49.22a1 1 0 0 1-.501-1.866L72.746 30.76a1 1 0 1 1 1 1.731L45.041 49.085a.992.992 0 0 1-.499.134z"/></g><ellipse cx="38.744" cy="76.486" fill="#9797f7" rx="10.872" ry="8.215" transform="matrix(.98678511 -.1620344 .1620344 .98678511 -11.881 7.289)"/><path d="M37.747 85.784c-2.204 0-4.313-.489-6.113-1.435-2.562-1.348-4.197-3.457-4.604-5.939-.408-2.482.467-5.003 2.463-7.099 1.924-2.021 4.68-3.412 7.759-3.917 6.458-1.063 12.384 2.155 13.208 7.169.823 5.014-3.763 9.956-10.222 11.016-.836.137-1.67.205-2.491.205zm1.994-16.595c-.707 0-1.431.058-2.165.178-2.652.436-5.009 1.616-6.635 3.323-1.554 1.631-2.241 3.548-1.938 5.396.304 1.849 1.568 3.444 3.563 4.493 2.085 1.097 4.693 1.462 7.349 1.026 5.371-.882 9.216-4.793 8.573-8.718-.557-3.389-4.282-5.698-8.746-5.698z" fill="#112c41"/><ellipse cx="68.798" cy="65.675" fill="#9797f7" rx="10.872" ry="8.215" transform="matrix(.98678511 -.1620344 .1620344 .98678511 -9.732 12.016)"/><path d="M67.832 74.97c-5.442 0-10.031-3.003-10.748-7.371-.408-2.482.467-5.003 2.463-7.099 1.924-2.021 4.68-3.412 7.759-3.917 6.452-1.061 12.385 2.155 13.208 7.169.823 5.014-3.763 9.956-10.222 11.017a15.15 15.15 0 0 1-2.46.202zm1.963-16.592c-.707 0-1.431.058-2.165.178-2.652.436-5.009 1.616-6.635 3.323-1.554 1.631-2.241 3.548-1.938 5.396.645 3.925 5.529 6.403 10.911 5.52 5.371-.882 9.217-4.793 8.573-8.719-.557-3.389-4.282-5.698-8.746-5.698z" fill="#112c41"/></svg></g><g transform="translate(1355.0 863.0) rotate(0.0 42.0 38.5) scale(0.9883980890970276 0.995397900615337)"><svg width="84.986" height="77.356" viewBox="0 0 84.986 77.356"><ellipse cx="39.265" cy="38.462" fill="#dedffe" rx="37.458" ry="38.266" transform="matrix(.05984646 -.99820759 .99820759 .05984646 -1.478 75.355)"/><path d="M39.387 76.923c-.805 0-1.61-.024-2.424-.073C15.351 75.555-1.2 57.28.069 36.112 1.338 14.944 19.952-1.228 41.566.073 52.032.7 61.632 5.281 68.601 12.97c6.973 7.695 10.475 17.583 9.859 27.841-1.222 20.37-18.511 36.111-39.073 36.111zM2.065 36.231C.863 56.298 16.572 73.624 37.083 74.854c.771.046 1.541.069 2.304.069 19.517.001 35.92-14.919 37.078-34.231.582-9.716-2.736-19.084-9.346-26.378-6.614-7.3-15.731-11.648-25.672-12.244C20.93.852 3.269 16.165 2.065 36.232z" fill="#112c41"/><circle cx="46.527" cy="38.897" fill="#fff" r="37.458"/><path d="M46.552 77.356a38.62 38.62 0 0 1-2.325-.07c-10.254-.614-19.655-5.186-26.472-12.871S7.524 46.85 8.139 36.596c.614-10.254 5.186-19.655 12.87-26.471C28.696 3.309 38.577-.106 48.828.509c21.167 1.269 37.356 19.522 36.088 40.689-1.223 20.388-18.202 36.157-38.364 36.158zm-.074-74.918c-8.915 0-17.415 3.217-24.142 9.183-7.285 6.462-11.618 15.374-12.201 25.094-.583 9.721 2.655 19.087 9.116 26.373 6.462 7.286 15.374 11.619 25.095 12.202 20.09 1.195 37.37-14.144 38.574-34.211C84.122 21.013 68.775 3.708 48.709 2.505a37.896 37.896 0 0 0-2.231-.067z" fill="#112c41"/><circle cx="46.827" cy="38.694" fill="#fff" r="23.496"/><path d="M46.843 63.191c-.492 0-.984-.015-1.481-.044-6.531-.392-12.52-3.303-16.861-8.199s-6.518-11.188-6.125-17.72c.392-6.531 3.303-12.52 8.198-16.861 4.896-4.342 11.194-6.52 17.719-6.125a24.334 24.334 0 0 1 16.862 8.198c4.341 4.896 6.517 11.188 6.125 17.72-.778 12.986-11.594 23.03-24.437 23.031zm-.046-46.994c-5.502 0-10.746 1.985-14.896 5.667a22.344 22.344 0 0 0-7.529 15.485 22.349 22.349 0 0 0 5.625 16.272 22.35 22.35 0 0 0 15.484 7.53c6.009.355 11.777-1.64 16.273-5.625 4.496-3.987 7.17-9.487 7.529-15.485s-1.639-11.777-5.626-16.273a22.346 22.346 0 0 0-15.484-7.529c-.46-.027-.92-.041-1.376-.041z" fill="#112c41"/><g fill="#9797f7"><path d="M38.992 45.353V29.589c0-1.913 2.132-3.054 3.723-1.993l13.91 9.273c1.554 1.036 1.377 3.373-.316 4.163l-13.91 6.491c-1.588.741-3.408-.418-3.408-2.17z"/><path d="M41.386 48.75a3.377 3.377 0 0 1-1.822-.534 3.378 3.378 0 0 1-1.571-2.863V29.589a3.39 3.39 0 0 1 1.793-2.993 3.389 3.389 0 0 1 3.485.168l13.909 9.273a3.353 3.353 0 0 1 1.502 3.081 3.355 3.355 0 0 1-1.949 2.82l-13.909 6.491c-.46.214-.95.32-1.438.32zm.004-20.56c-.225 0-.45.056-.661.168a1.375 1.375 0 0 0-.736 1.23v15.764c0 .486.235.915.646 1.176.412.262.9.294 1.34.088l13.909-6.491c.463-.216.763-.649.801-1.159a1.378 1.378 0 0 0-.617-1.266l-13.909-9.273a1.388 1.388 0 0 0-.771-.238z"/></g></svg></g><g transform="translate(1194.0 740.0) rotate(0.0 -238.5 113.0) scale(-0.9289589816895759 0.9297427163297378)"><svg width="513.478" height="243.078" viewBox="0 0 513.478 243.078"><path d="M393.928 242.078H57.548a6.493 6.493 0 0 1-6.32-5l-3.07-13-46-194.72C-2.5 10.057 7.286 1.121 24.538 1.078c71.435-.176 285.74 0 285.74 0a36.931 36.931 0 0 1 35.91 28.42l2.66 11.25c.07.32.14.64.22.96l43.09 182.37 3.07 13 .61 2.59a1.959 1.959 0 0 1-1.91 2.41z" fill="#dedffe"/><path d="M393.928 243.078H57.548a7.464 7.464 0 0 1-7.294-5.77L1.184 29.588c-2.231-9.242-1.323-16.527 2.7-21.647S15.045.1 24.535.078c70.62-.175 283.6 0 285.744 0a37.932 37.932 0 0 1 36.882 29.191l2.661 11.249c.082.375.144.661.215.948l46.775 197.973a2.959 2.959 0 0 1-2.884 3.639zM130.179 2c-42.342 0-81.979.02-105.638.078C15.685 2.1 9.084 4.555 5.454 9.176S1.049 20.5 3.129 29.124L52.2 236.848a5.471 5.471 0 0 0 5.347 4.23h336.38a.959.959 0 0 0 .937-1.18l-3.681-15.59-43.089-182.369c-.073-.293-.14-.6-.207-.9l-2.673-11.307a35.932 35.932 0 0 0-34.936-27.65C308.852 2.077 214.2 2 130.179 2z" fill="#112c41"/><path d="M512.478 229.578v7a5.5 5.5 0 0 1-5.5 5.5H57.545a6.491 6.491 0 0 1-6.317-5l-3.07-13h458.82a5.5 5.5 0 0 1 5.5 5.5z" fill="#b2b0f7"/><path d="M506.978 243.078H57.545a7.464 7.464 0 0 1-7.291-5.77l-3.07-13a1 1 0 0 1 .974-1.23h458.82a6.508 6.508 0 0 1 6.5 6.5v7a6.508 6.508 0 0 1-6.5 6.5zm-457.557-18 2.78 11.77a5.47 5.47 0 0 0 5.344 4.23h449.433a4.5 4.5 0 0 0 4.5-4.5v-7a4.505 4.505 0 0 0-4.5-4.5z" fill="#112c41"/><path d="M395.228 237.078a4.066 4.066 0 0 1-3.957 5H57.548a6.493 6.493 0 0 1-6.32-5l-3.07-13h344z" fill="#cbc8ff"/><path d="M391.271 243.078H57.548a7.464 7.464 0 0 1-7.294-5.77l-3.07-13a1 1 0 0 1 .974-1.23h344a1 1 0 0 1 .973.77l3.07 13a5.067 5.067 0 0 1-4.93 6.229zm-341.85-18 2.78 11.77a5.471 5.471 0 0 0 5.347 4.23h333.723a3.065 3.065 0 0 0 2.983-3.77l-2.887-12.23z" fill="#112c41"/><circle cx="183.478" cy="118.078" fill="#fff" r="21.447"/></svg></g></svg>