<svg xmlns="http://www.w3.org/2000/svg" viewBox="0 0 3000 3000" width="3000" height="3000"><g transform="translate(236.66666666666669 2520.0) rotate(0.0 1104.1666666666667 40.0) scale(2.096619173890905 2.199796518822009)"><svg width="1053.283" height="36.367" viewBox="0 0 1053.283 36.367"><ellipse cx="526.641" cy="18.184" fill="#cbc8ff" rx="526.641" ry="18.184"/></svg></g><g transform="translate(266.6666666666667 700.0) rotate(0.0 1194.1666666666667 935.0) scale(2.037827076222981 2.037037037037037)"><svg width="1172" height="918" viewBox="0 0 1172 918"><path d="M688.3 876c1.81 13.75 4.45 27.44 7.91 41h-92.29c-57.426-7.146-114.853.302-172.279-5.55a11.848 11.848 0 0 1-10.236-8.705A342.847 342.847 0 0 1 418.71 892c-20.73-88.38-6.72-197.65 39.61-276.3l275.87 34.35A353.692 353.692 0 0 0 688.3 876z" fill="#cbc8ff"/><path d="M696.21 918h-92.29c-.041 0-.082-.003-.123-.008-29.982-3.731-60.499-3.47-90.007-3.219-26.948.228-54.815.467-82.251-2.328-5.27-.537-9.73-4.331-11.101-9.441a345.575 345.575 0 0 1-2.702-10.776c-21.36-91.067-5.769-199.811 39.723-277.035a.984.984 0 0 1 .985-.484l275.869 34.35a1.002 1.002 0 0 1 .737 1.5c-39.806 67.579-56.057 147.597-45.76 225.312a351.75 351.75 0 0 0 7.888 40.884.997.997 0 0 1-.969 1.247zm-92.228-2h90.942a353.868 353.868 0 0 1-7.616-39.869c-10.289-77.654 5.777-157.591 45.25-225.276l-273.709-34.081c-44.988 76.77-60.363 184.625-39.166 274.998a340.985 340.985 0 0 0 2.687 10.715c1.156 4.313 4.923 7.516 9.372 7.969 27.325 2.784 55.136 2.546 82.031 2.318 29.553-.251 60.116-.513 90.209 3.227z" fill="#112c41"/><path d="M737.66 701.43A353.64 353.64 0 0 0 716.3 877c.35 2.67.73 5.34 1.16 8 1.65 10.72 3.82 21.4 6.5 32H623.89c-56.18-6.99-112.36-13.99-168.54-20.99-1.25-.16-2.51-.31-3.76-.47-1.03-3.5-2-7.01-2.9-10.54-.7-2.66-1.36-5.33-1.98-8a353.734 353.734 0 0 1 39.61-260.3l275.87 34.35a354.272 354.272 0 0 0-24.53 50.38z" fill="#dedffe"/><path d="M723.96 918H623.89c-.041 0-.082-.003-.123-.008A945280.56 945280.56 0 0 1 457.3 897.261l-5.837-.729a.999.999 0 0 1-.832-.71 301.882 301.882 0 0 1-2.91-10.575 286.352 286.352 0 0 1-1.984-8.021c-10.359-44.164-12.161-89.308-5.357-134.176 6.821-44.977 21.988-87.658 45.08-126.858a.987.987 0 0 1 .985-.484l275.869 34.35a1.002 1.002 0 0 1 .737 1.5 354.698 354.698 0 0 0-24.46 50.237c-21.762 55.475-29.127 116.015-21.3 175.073.385 2.933.764 5.54 1.156 7.973a344.738 344.738 0 0 0 6.482 31.914 1 1 0 0 1-.97 1.245zm-100.008-2h98.726a346.915 346.915 0 0 1-6.206-30.848 268.154 268.154 0 0 1-1.163-8.022c-7.872-59.393-.465-120.276 21.421-176.065a356.574 356.574 0 0 1 23.829-49.21L486.85 617.774c-46.033 78.47-59.942 170.42-39.166 258.998.619 2.668 1.283 5.35 1.973 7.975a301.463 301.463 0 0 0 2.709 9.883l5.183.646c55.469 6.912 110.936 13.823 166.404 20.725z" fill="#112c41"/><path d="M762.19 651.05C752.63 667.28 735 701 732 719c-23-6-214-16-253 12-29.89 21.46-28 134-13 166-1.25-.16-13.16-1.3-14.41-1.46-1.03-3.5-2-7.01-2.9-10.54-.7-2.66-1.36-5.33-1.98-8a353.734 353.734 0 0 1 39.61-260.3l275.87 34.35z" fill="#cbc8ff"/><path d="M723.96 918H623.89c-.041 0-.082-.003-.123-.008A945280.56 945280.56 0 0 1 457.3 897.261l-5.837-.729a.999.999 0 0 1-.832-.71 301.882 301.882 0 0 1-2.91-10.575 286.352 286.352 0 0 1-1.984-8.021c-10.359-44.164-12.161-89.308-5.357-134.176 6.821-44.977 21.988-87.658 45.08-126.858a.987.987 0 0 1 .985-.484l275.869 34.35a1.002 1.002 0 0 1 .737 1.5 354.698 354.698 0 0 0-24.46 50.237c-21.762 55.475-29.127 116.015-21.3 175.073.385 2.933.764 5.54 1.156 7.973a344.738 344.738 0 0 0 6.482 31.914 1 1 0 0 1-.97 1.245zm-100.008-2h98.726a346.915 346.915 0 0 1-6.206-30.848 268.154 268.154 0 0 1-1.163-8.022c-7.872-59.393-.465-120.276 21.421-176.065a356.574 356.574 0 0 1 23.829-49.21L486.85 617.774c-46.033 78.47-59.942 170.42-39.166 258.998.619 2.668 1.283 5.35 1.973 7.975a301.463 301.463 0 0 0 2.709 9.883l5.183.646c55.469 6.912 110.936 13.823 166.404 20.725z" fill="#112c41"/><rect fill="#cbc8ff" height="688" rx="16.283" width="1134" x="1" y="1"/><path d="M1118.718 690H17.282C7.753 690 0 682.247 0 672.717V17.282C0 7.753 7.753 0 17.282 0h1101.436C1128.247 0 1136 7.753 1136 17.282v655.435c0 9.53-7.753 17.283-17.282 17.283zM17.282 2C8.855 2 2 8.856 2 17.282v655.435C2 681.144 8.855 688 17.282 688h1101.436c8.427 0 15.282-6.856 15.282-15.283V17.282C1134 8.855 1127.145 2 1118.718 2z" fill="#112c41"/><path d="M1171 17.28v655.44c0 3.63-1.18 6.97-3.18 9.67-2.97 4.01-7.73 6.61-13.1 6.61H53.28C44.29 689 37 681.71 37 672.72V17.28c0-8.9 7.14-16.13 16-16.271.09-.01.19-.01.28-.01h1101.44c8.99 0 16.28 7.29 16.28 16.28z" fill="#dedffe"/><path d="M1154.72 690H53.28C43.752 690 36 682.248 36 672.72V17.281C36 7.906 43.619.157 52.984.01c.032-.008.17-.01.296-.01h1101.44c9.528 0 17.28 7.752 17.28 17.28v655.44a17.12 17.12 0 0 1-3.376 10.265c-3.255 4.394-8.452 7.016-13.904 7.016zM53.209 2c-.034 0-.068 0-.101.004C44.736 2.141 38 8.99 38 17.28v655.44c0 8.426 6.854 15.28 15.28 15.28h1101.44c4.894 0 9.375-2.262 12.297-6.206a15.13 15.13 0 0 0 2.983-9.074V17.281c0-8.426-6.854-15.28-15.28-15.28H53.209z" fill="#112c41"/><rect fill="#fff" height="575.068" rx="9.729" width="1070" x="69" y="30.932"/><path d="M1129.271 607H78.729C72.813 607 68 602.187 68 596.271V40.661c0-5.916 4.813-10.729 10.729-10.729h1050.542c5.916 0 10.729 4.813 10.729 10.729v555.61c0 5.916-4.813 10.729-10.729 10.729zM78.729 31.933c-4.813 0-8.729 3.916-8.729 8.729v555.609c0 4.813 3.916 8.729 8.729 8.729h1050.542c4.813 0 8.729-3.916 8.729-8.729V40.661c0-4.813-3.916-8.729-8.729-8.729H78.729z" fill="#112c41"/><path d="M851 901c0 4.42-1.79 8.42-4.68 11.32-2.9 2.89-6.9 4.68-11.32 4.68H437c-8.84 0-16-7.16-16-16 0-4.42 1.79-8.42 4.68-11.32 2.9-2.89 6.9-4.68 11.32-4.68h398c8.84 0 16 7.16 16 16z" fill="#dedffe"/><path d="M835 918H437c-9.374 0-17-7.626-17-17 0-4.537 1.766-8.809 4.972-12.026A16.935 16.935 0 0 1 437 884h398c9.374 0 17 7.626 17 17 0 4.538-1.766 8.809-4.972 12.025A16.93 16.93 0 0 1 835 918zm-398-32a14.946 14.946 0 0 0-10.614 4.388A14.944 14.944 0 0 0 422 901c0 8.271 6.729 15 15 15h398c4.005 0 7.774-1.559 10.614-4.389A14.94 14.94 0 0 0 850 901c0-8.271-6.729-15-15-15z" fill="#112c41"/><path d="M633 901c0 4.42-1.79 8.42-4.68 11.32-2.9 2.89-6.9 4.68-11.32 4.68H437c-8.84 0-16-7.16-16-16 0-4.42 1.79-8.42 4.68-11.32 2.9-2.89 6.9-4.68 11.32-4.68h180c8.84 0 16 7.16 16 16z" fill="#cbc8ff"/><path d="M617 918H437c-9.374 0-17-7.626-17-17 0-4.537 1.766-8.809 4.972-12.026A16.935 16.935 0 0 1 437 884h180c9.374 0 17 7.626 17 17 0 4.538-1.766 8.809-4.972 12.025A16.93 16.93 0 0 1 617 918zm-180-32a14.946 14.946 0 0 0-10.614 4.388A14.944 14.944 0 0 0 422 901c0 8.271 6.729 15 15 15h180c4.005 0 7.774-1.559 10.614-4.389A14.94 14.94 0 0 0 632 901c0-8.271-6.729-15-15-15z" fill="#112c41"/><circle cx="610" cy="647" fill="#fff" r="23"/><g fill="#112c41"><path d="M1120.073 675c-6.576 0-11.927-5.351-11.927-11.927s5.351-11.927 11.927-11.927S1132 656.497 1132 663.073 1126.649 675 1120.073 675zm0-21.854c-5.474 0-9.927 4.453-9.927 9.927s4.453 9.927 9.927 9.927 9.927-4.453 9.927-9.927-4.453-9.927-9.927-9.927z"/><path d="M1120.073 661.976a1 1 0 0 1-1-1V648a1 1 0 1 1 2 0v12.976a1 1 0 0 1-1 1zM568 346h-15a1 1 0 1 1 0-2h14v-14a1 1 0 1 1 2 0v15a1 1 0 0 1-1 1zm-46.23 0h-31.23a1 1 0 1 1 0-2h31.23a1 1 0 1 1 0 2zm-62.462 0h-31.23a1 1 0 1 1 0-2h31.23a1 1 0 1 1 0 2zm-62.461 0h-31.231a1 1 0 1 1 0-2h31.231a1 1 0 1 1 0 2zm-62.462 0h-31.23a1 1 0 1 1 0-2h31.23a1 1 0 1 1 0 2zm-62.461 0h-31.231a1 1 0 1 1 0-2h31.231a1 1 0 1 1 0 2zm-62.462 0h-31.23a1 1 0 1 1 0-2h31.23a1 1 0 1 1 0 2zM147 346h-15a1 1 0 0 1-1-1v-15a1 1 0 1 1 2 0v14h14a1 1 0 1 1 0 2zm-15-46.857a1 1 0 0 1-1-1v-31.857a1 1 0 1 1 2 0v31.857a1 1 0 0 1-1 1zm0-63.714a1 1 0 0 1-1-1v-31.857a1 1 0 1 1 2 0v31.857a1 1 0 0 1-1 1zm0-63.715a1 1 0 0 1-1-1v-31.857a1 1 0 1 1 2 0v31.857a1 1 0 0 1-1 1zM132 108a1 1 0 0 1-1-1V92a1 1 0 0 1 1-1h15a1 1 0 1 1 0 2h-14v14a1 1 0 0 1-1 1zm389.769-15h-31.23a1 1 0 1 1 0-2h31.23a1 1 0 1 1 0 2zm-62.461 0h-31.231a1 1 0 1 1 0-2h31.231a1 1 0 1 1 0 2zm-62.462 0h-31.23a1 1 0 1 1 0-2h31.23a1 1 0 1 1 0 2zm-62.461 0h-31.231a1 1 0 1 1 0-2h31.231a1 1 0 1 1 0 2zm-62.462 0h-31.23a1 1 0 1 1 0-2h31.23a1 1 0 1 1 0 2zm-62.462 0h-31.23a1 1 0 1 1 0-2h31.23a1 1 0 1 1 0 2zM568 108a1 1 0 0 1-1-1V93h-14a1 1 0 1 1 0-2h15a1 1 0 0 1 1 1v15a1 1 0 0 1-1 1zm0 191.143a1 1 0 0 1-1-1v-31.857a1 1 0 1 1 2 0v31.857a1 1 0 0 1-1 1zm0-63.715a1 1 0 0 1-1-1v-31.857a1 1 0 1 1 2 0v31.857a1 1 0 0 1-1 1zm0-63.714a1 1 0 0 1-1-1v-31.857a1 1 0 1 1 2 0v31.857a1 1 0 0 1-1 1z"/></g><rect fill="#dedffe" height="168" rx="11.63" width="168" x="132" y="384"/><path d="M288.369 553H143.631c-6.965 0-12.631-5.666-12.631-12.631V395.63c0-6.964 5.666-12.63 12.631-12.63h144.738c6.965 0 12.631 5.666 12.631 12.63v144.739c0 6.965-5.666 12.631-12.631 12.631zM143.631 385c-5.862 0-10.631 4.769-10.631 10.63v144.739c0 5.862 4.769 10.631 10.631 10.631h144.738c5.862 0 10.631-4.769 10.631-10.631V395.63c0-5.861-4.769-10.63-10.631-10.63z" fill="#112c41"/><path d="M273 530a4.98 4.98 0 0 1-3.535-1.465l-114-114a4.998 4.998 0 0 1 0-7.07 4.998 4.998 0 0 1 7.07 0l114 114A4.998 4.998 0 0 1 273 530z" fill="#fff"/><path d="M159 530a4.98 4.98 0 0 1-3.535-1.465 4.998 4.998 0 0 1 0-7.07l114-114a4.998 4.998 0 0 1 7.07 0 4.998 4.998 0 0 1 0 7.07l-114 114A4.981 4.981 0 0 1 159 530z" fill="#fff"/><rect fill="#dedffe" height="168" rx="11.457" width="168" x="400" y="384"/><path d="M556.544 553H411.456c-6.868 0-12.456-5.588-12.456-12.457V395.456c0-6.868 5.588-12.456 12.456-12.456h145.088c6.868 0 12.456 5.588 12.456 12.456v145.087c0 6.869-5.588 12.457-12.456 12.457zM411.456 385C405.69 385 401 389.69 401 395.456v145.087c0 5.766 4.69 10.457 10.456 10.457h145.088c5.766 0 10.456-4.691 10.456-10.457V395.456c0-5.766-4.69-10.456-10.456-10.456z" fill="#112c41"/><path d="M541 530a4.98 4.98 0 0 1-3.535-1.465l-114-114a4.998 4.998 0 0 1 0-7.07 4.998 4.998 0 0 1 7.07 0l114 114A4.998 4.998 0 0 1 541 530z" fill="#fff"/><path d="M427 530a4.98 4.98 0 0 1-3.535-1.465 4.998 4.998 0 0 1 0-7.07l114-114a4.998 4.998 0 0 1 7.07 0 4.998 4.998 0 0 1 0 7.07l-114 114A4.981 4.981 0 0 1 427 530z" fill="#fff"/><path d="M1082 403H725a1 1 0 1 1 0-2h357a1 1 0 1 1 0 2zm.5 45.5h-357a1 1 0 1 1 0-2h357a1 1 0 1 1 0 2zm.5 45.5H726a1 1 0 1 1 0-2h357a1 1 0 1 1 0 2zm.5 45.5h-357a1 1 0 1 1 0-2h357a1 1 0 1 1 0 2z" fill="#112c41"/><path d="M1167.82 682.39c-2.97 4.01-7.73 6.61-13.1 6.61H53.28C44.29 689 37 681.71 37 672.72V17.28c0-8.9 7.14-16.13 16-16.271-5 29.11-1.796 559.936-1 590.99 2 78 88 78 199 78 102.37 0 800.93 12.76 916.82 12.39z" fill="#cbc8ff"/><path d="M1154.72 690H53.28C43.752 690 36 682.248 36 672.72V17.281C36 7.906 43.619.157 52.984.01c.032-.008.17-.01.296-.01h1101.44c9.528 0 17.28 7.752 17.28 17.28v655.44a17.12 17.12 0 0 1-3.376 10.265c-3.255 4.394-8.452 7.016-13.904 7.016zM53.209 2c-.034 0-.068 0-.101.004C44.736 2.141 38 8.99 38 17.28v655.44c0 8.426 6.854 15.28 15.28 15.28h1101.44c4.894 0 9.375-2.262 12.297-6.206a15.13 15.13 0 0 0 2.983-9.074V17.281c0-8.426-6.854-15.28-15.28-15.28H53.209z" fill="#112c41"/></svg></g><g transform="translate(951.6666666666667 2500.0) rotate(0.0 761.6666666666666 35.0) scale(2.036541889483066 2.0588235294117645)"><svg width="748" height="34" viewBox="0 0 748 34"><path d="M747 25.89c0 1.97-.8 3.74-2.08 5.03a7.113 7.113 0 0 1-5.03 2.08H8.11C4.18 33 1 29.82 1 25.89c0-6.87 2.78-13.1 7.29-17.6C12.79 3.78 19.02 1 25.89 1h696.22C735.86 1 747 12.14 747 25.89z" fill="#b2b0f7"/><path d="M739.89 34H8.11C3.638 34 0 30.361 0 25.89c0-6.926 2.693-13.428 7.584-18.308C12.462 2.694 18.964 0 25.89 0h696.22C736.385 0 748 11.614 748 25.89a8.1 8.1 0 0 1-8.11 8.11zm-714-32C19.499 2 13.5 4.484 8.998 8.996 4.484 13.5 2 19.499 2 25.89A6.117 6.117 0 0 0 8.11 32h731.78a6.103 6.103 0 0 0 6.11-6.11C746 12.717 735.283 2 722.11 2z" fill="#112c41"/><path d="M364 25.89c0 1.97-.8 3.74-2.08 5.03a7.113 7.113 0 0 1-5.03 2.08H8.11C4.18 33 1 29.82 1 25.89c0-6.87 2.78-13.1 7.29-17.6C12.79 3.78 19.02 1 25.89 1h313.22C352.86 1 364 12.14 364 25.89z" fill="#9797f7"/><path d="M356.89 34H8.11C3.638 34 0 30.361 0 25.89c0-6.926 2.693-13.428 7.584-18.308C12.462 2.694 18.964 0 25.89 0h313.22C353.385 0 365 11.614 365 25.89a8.1 8.1 0 0 1-8.11 8.11zm-331-32C19.499 2 13.5 4.484 8.998 8.996 4.484 13.5 2 19.499 2 25.89A6.117 6.117 0 0 0 8.11 32h348.78a6.103 6.103 0 0 0 6.11-6.11C363 12.717 352.283 2 339.11 2z" fill="#112c41"/></svg></g><g transform="translate(1571.6666666666667 520.0) rotate(0.0 650.0000000000001 471.66666666666674) scale(2.0361144045696675 2.0365045234867263)"><svg width="638.471" height="463.212" viewBox="0 0 638.471 463.212"><rect fill="#cbc8ff" height="437.787" rx="30.727" width="610.114" x="28.356" y="25.425"/><rect fill="#fff" height="437.787" rx="30.727" width="610.114" x="1" y="1"/><path d="M580.387 439.787H31.727C14.233 439.787 0 425.553 0 408.059V31.727C0 14.233 14.233 0 31.727 0h548.66c17.494 0 31.728 14.233 31.728 31.728v376.331c0 17.494-14.233 31.728-31.728 31.728zM31.727 2C15.336 2 2 15.336 2 31.727v376.332c0 16.392 13.336 29.728 29.728 29.728h548.659c16.392 0 29.728-13.336 29.728-29.728V31.727c0-16.392-13.336-29.728-29.728-29.728H31.727z" fill="#112c41"/><path d="M611.114 33.311V408.06c0 16.973-13.754 30.727-30.727 30.727H393.171V33.311z" fill="#dedffe"/><path d="M580.387 439.787H392.171V32.311h219.943v375.748c0 17.494-14.232 31.728-31.728 31.728zm-186.216-2h186.216c16.392 0 29.728-13.336 29.728-29.728V34.311H394.172v403.476z" fill="#112c41"/><path d="M580.387 439.787H31.727C14.233 439.787 0 425.553 0 408.059V31.727C0 14.233 14.233 0 31.727 0h548.66c17.494 0 31.728 14.233 31.728 31.728v376.331c0 17.494-14.233 31.728-31.728 31.728zM31.727 2C15.336 2 2 15.336 2 31.727v376.332c0 16.392 13.336 29.728 29.728 29.728h548.659c16.392 0 29.728-13.336 29.728-29.728V31.727c0-16.392-13.336-29.728-29.728-29.728H31.727z" fill="#112c41"/><path d="M611.114 31.727v25.659H1V31.727C1 14.754 14.754 1 31.727 1h548.66c16.973 0 30.727 13.754 30.727 30.727z" fill="#cbc8ff"/><path d="M611.114 58.386H1a1 1 0 0 1-1-1V31.727C0 14.232 14.233 0 31.727 0h548.66c17.494 0 31.728 14.232 31.728 31.728v25.659a1 1 0 0 1-1 1zM2 56.386h608.114V31.727c0-16.392-13.336-29.728-29.728-29.728H31.727C15.336 2 2 15.336 2 31.727z" fill="#112c41"/><path d="M422.315 82.729H580.07v157.755H422.315z" fill="#fff"/><path d="M581.07 241.484H421.314V81.728H581.07zm-157.756-2H579.07V83.728H423.314z" fill="#112c41"/><rect fill="#9797f7" height="29.777" rx="6.435" width="29.777" x="37.113" y="14.305"/><path d="M60.455 45.082H43.548c-4.1 0-7.435-3.335-7.435-7.435V20.74c0-4.1 3.335-7.436 7.435-7.436h16.907c4.1 0 7.435 3.336 7.435 7.436v16.907c0 4.1-3.335 7.435-7.435 7.435zM43.548 15.304a5.441 5.441 0 0 0-5.435 5.436v16.907a5.441 5.441 0 0 0 5.435 5.435h16.907a5.441 5.441 0 0 0 5.435-5.435V20.74a5.442 5.442 0 0 0-5.435-5.436z" fill="#112c41"/><path d="M113.155 28.681 99.291 14.817a1.752 1.752 0 0 0-2.435-.041L82.02 28.639c-1.161 1.085-.393 3.032 1.196 3.032h1.201v11.54c0 .481.39.871.871.871h7.848c.481 0 .871-.39.871-.871v-7.284c0-.481.39-.871.871-.871h5.592c.481 0 .871.39.871.871v7.284c0 .481.39.871.871.871h7.848c.481 0 .871-.39.871-.871v-11.54h.986c1.561 0 2.342-1.887 1.239-2.99z" fill="#dedffe"/><path d="M110.059 45.082h-7.849c-1.031 0-1.87-.84-1.87-1.871v-7.154h-5.333v7.154c0 1.031-.84 1.871-1.871 1.871h-7.849c-1.031 0-1.87-.84-1.87-1.871V32.672h-.201c-1.138 0-2.143-.684-2.56-1.742s-.149-2.244.682-3.02l14.836-13.864a2.738 2.738 0 0 1 3.824.065l13.863 13.863a2.711 2.711 0 0 1 .597 2.999 2.709 2.709 0 0 1-2.528 1.698V43.21c0 1.031-.84 1.871-1.871 1.871zm-7.719-2h7.59v-11.41a1 1 0 0 1 1-1h.986c.453 0 .637-.324.694-.464s.157-.499-.163-.819L98.584 15.526a.751.751 0 0 0-1.045-.019L82.703 29.371a.738.738 0 0 0-.187.825.737.737 0 0 0 .699.476h1.201a1 1 0 0 1 1 1v11.41h7.59v-7.155c0-1.031.839-1.87 1.87-1.87h5.592c1.031 0 1.871.839 1.871 1.87v7.155z" fill="#112c41"/><path d="m45.425 227.509 188.563-121.15 114.31 256.954z" fill="#ffe993"/><path d="M348.299 364.313a.981.981 0 0 1-.409-.088L45.016 228.421a.998.998 0 0 1-.131-1.754l188.563-121.15a1.002 1.002 0 0 1 1.454.436l114.311 256.954a1 1 0 0 1-.914 1.406zM47.519 227.351 346.322 361.33 233.548 107.831z" fill="#112c41"/><path d="M33.701 215.736h23.643v23.643H33.701z" fill="#fff"/><path d="M57.344 240.379H33.701a1 1 0 0 1-1-1v-23.643a1 1 0 0 1 1-1h23.643a1 1 0 0 1 1 1v23.643a1 1 0 0 1-1 1zm-22.643-2h21.643v-21.643H34.701z" fill="#112c41"/><path d="M222.057 94.157H245.7V117.8h-23.643z" fill="#fff"/><path d="M245.7 118.8h-23.643a1 1 0 0 1-1-1V94.157a1 1 0 0 1 1-1H245.7a1 1 0 0 1 1 1V117.8a1 1 0 0 1-1 1zm-22.643-2H244.7V95.157h-21.643z" fill="#112c41"/><path d="M336.38 351.159h23.643v23.643H336.38z" fill="#fff"/><path d="M360.022 375.802h-23.643a1 1 0 0 1-1-1v-23.644a1 1 0 0 1 1-1h23.643a1 1 0 0 1 1 1v23.644a1 1 0 0 1-1 1zm-22.643-2h21.643v-21.644h-21.643z" fill="#112c41"/><path d="M509.814 180.689a32.082 32.082 0 0 0-.679-6.974c11.819-2.822 21.136-12.158 23.89-24.042 13.966 3.666 24.193 16.453 24.023 31.545-.2 17.807-14.794 32.077-32.601 31.877-9.331-.105-17.691-4.161-23.502-10.563a32.103 32.103 0 0 0 8.868-21.845z" fill="#ffe993"/><path d="M492.57 180.496c.027-2.392.312-4.721.835-6.957 2.508.662 5.14 1.025 7.854 1.055s5.353-.274 7.876-.879c.473 2.247.706 4.582.679 6.974a32.11 32.11 0 0 1-8.868 21.845 32.102 32.102 0 0 1-8.376-22.038z" fill="#7bdaac"/><path d="M445.336 179.966c.169-15.092 10.681-27.647 24.725-30.999 2.487 11.943 11.591 21.486 23.344 24.572a31.992 31.992 0 0 0-.835 6.957 32.102 32.102 0 0 0 8.376 22.038c-5.953 6.269-14.402 10.137-23.733 10.033-17.807-.2-32.077-14.794-31.877-32.601z" fill="#9dd9f4"/><path d="M501.439 158.651c5.953-6.269 14.402-10.137 23.733-10.033 2.714.03 5.346.394 7.854 1.055-2.754 11.884-12.071 21.22-23.89 24.042a32.09 32.09 0 0 0-7.697-15.064z" fill="#ffd169"/><path d="M493.406 173.539a32.09 32.09 0 0 1 8.033-14.888 32.095 32.095 0 0 1 7.697 15.064c-2.523.605-5.162.909-7.876.879s-5.346-.394-7.854-1.055z" fill="#fff"/><path d="M470.061 148.967a32.213 32.213 0 0 1 7.876-.879c9.331.105 17.691 4.161 23.502 10.563a32.09 32.09 0 0 0-8.033 14.888c-11.753-3.086-20.858-12.629-23.344-24.572z" fill="#cbc8ff"/><path d="M469.382 141.994c.2-17.807 14.794-32.077 32.601-31.877s32.077 14.794 31.877 32.601a32.116 32.116 0 0 1-.835 6.957 32.136 32.136 0 0 0-7.854-1.055c-9.331-.105-17.78 3.763-23.733 10.033-5.811-6.401-14.171-10.458-23.502-10.563a32.213 32.213 0 0 0-7.876.879 32.076 32.076 0 0 1-.679-6.974z" fill="#ffa9dc"/><path d="M427.792 273.428h33.84v40.057h-33.84a6.22 6.22 0 0 1-6.217-6.217v-27.623a6.22 6.22 0 0 1 6.217-6.217z" fill="#ffe993"/><path d="M461.632 314.485h-33.84c-3.979 0-7.218-3.237-7.218-7.217v-27.623c0-3.979 3.238-7.217 7.218-7.217h33.84a1 1 0 0 1 1 1v40.057a1 1 0 0 1-1 1zm-33.84-40.057a5.223 5.223 0 0 0-5.218 5.217v27.623a5.223 5.223 0 0 0 5.218 5.217h32.84v-38.057z" fill="#112c41"/><path d="M461.632 273.428h40.057v40.057h-40.057z" fill="#ffd169"/><path d="M501.689 314.485h-40.058a1 1 0 0 1-1-1v-40.057a1 1 0 0 1 1-1h40.058a1 1 0 0 1 1 1v40.057a1 1 0 0 1-1 1zm-39.058-2h38.058v-38.057h-38.058z" fill="#112c41"/><path d="M501.689 273.428h40.057v40.057h-40.057z" fill="#fcaa51"/><path d="M541.747 314.485h-40.058a1 1 0 0 1-1-1v-40.057a1 1 0 0 1 1-1h40.058a1 1 0 0 1 1 1v40.057a1 1 0 0 1-1 1zm-39.058-2h38.058v-38.057h-38.058z" fill="#112c41"/><path d="M541.747 273.428h33.97a6.09 6.09 0 0 1 6.087 6.087v27.884a6.09 6.09 0 0 1-6.087 6.087h-33.97v-40.057z" fill="#ff9522"/><path d="M575.717 314.485h-33.97a1 1 0 0 1-1-1v-40.057a1 1 0 0 1 1-1h33.97a7.095 7.095 0 0 1 7.087 7.087v27.883a7.095 7.095 0 0 1-7.087 7.087zm-32.97-2h32.97a5.093 5.093 0 0 0 5.087-5.087v-27.883a5.093 5.093 0 0 0-5.087-5.087h-32.97z" fill="#112c41"/><path d="M427.792 329.118h33.84v40.057h-33.84a6.22 6.22 0 0 1-6.217-6.217v-27.623a6.22 6.22 0 0 1 6.217-6.217z" fill="#dedffe"/><path d="M461.632 370.175h-33.84c-3.979 0-7.218-3.238-7.218-7.218v-27.623c0-3.979 3.238-7.217 7.218-7.217h33.84a1 1 0 0 1 1 1v40.058a1 1 0 0 1-1 1zm-33.84-40.058a5.223 5.223 0 0 0-5.218 5.217v27.623a5.224 5.224 0 0 0 5.218 5.218h32.84v-38.058z" fill="#112c41"/><path d="M461.632 329.118h40.057v40.057h-40.057z" fill="#cbc8ff"/><path d="M501.689 370.175h-40.058a1 1 0 0 1-1-1v-40.058a1 1 0 0 1 1-1h40.058a1 1 0 0 1 1 1v40.058a1 1 0 0 1-1 1zm-39.058-2h38.058v-38.058h-38.058z" fill="#112c41"/><path d="M501.689 329.118h40.057v40.057h-40.057z" fill="#b2b0f7"/><path d="M541.747 370.175h-40.058a1 1 0 0 1-1-1v-40.058a1 1 0 0 1 1-1h40.058a1 1 0 0 1 1 1v40.058a1 1 0 0 1-1 1zm-39.058-2h38.058v-38.058h-38.058z" fill="#112c41"/><path d="M541.747 329.118h33.97a6.09 6.09 0 0 1 6.087 6.087v27.884a6.09 6.09 0 0 1-6.087 6.087h-33.97v-40.057z" fill="#9797f7"/><path d="M575.717 370.175h-33.97a1 1 0 0 1-1-1v-40.058a1 1 0 0 1 1-1h33.97a7.095 7.095 0 0 1 7.087 7.087v27.884a7.095 7.095 0 0 1-7.087 7.087zm-32.97-2h32.97a5.093 5.093 0 0 0 5.087-5.087v-27.884a5.093 5.093 0 0 0-5.087-5.087h-32.97z" fill="#112c41"/></svg></g><g transform="translate(480.0 395.0) rotate(0.0 328.33333333333337 330.0) scale(2.039337474120083 2.037037037037037)"><svg width="322" height="324" viewBox="0 0 322 324"><rect fill="#cbc8ff" height="303" rx="17.536" width="303" y="21"/><rect fill="#fff" height="303" rx="17.536" width="303" x="18" y="1"/><path d="M303.464 305H35.536C25.315 305 17 296.685 17 286.464V18.536C17 8.316 25.315 0 35.536 0h267.928C313.685 0 322 8.315 322 18.536v267.928c0 10.221-8.315 18.536-18.536 18.536zM35.536 2C26.418 2 19 9.418 19 18.536v267.928C19 295.582 26.418 303 35.536 303h267.928c9.118 0 16.536-7.418 16.536-16.536V18.536C320 9.418 312.582 2 303.464 2z" fill="#112c41"/><path d="M321 18.536v21.31H18v-21.31C18 8.858 25.858 1 35.536 1h267.928C313.142 1 321 8.858 321 18.536z" fill="#cbc8ff"/><g fill="#112c41"><path d="M321 40.846H18a1 1 0 0 1-1-1v-21.31C17 8.316 25.315 0 35.536 0h267.928C313.685 0 322 8.315 322 18.536v21.31a1 1 0 0 1-1 1zm-302-2h301v-20.31C320 9.418 312.582 2 303.464 2H35.536C26.418 2 19 9.418 19 18.536z"/><path d="M299.261 31.967a.997.997 0 0 1-.707-.293l-19.737-19.736a.999.999 0 1 1 1.414-1.414l19.737 19.736a.999.999 0 0 1-.707 1.707z"/><path d="M279.523 31.967a.999.999 0 0 1-.707-1.707l19.737-19.736a.999.999 0 1 1 1.414 1.414L280.23 31.674a.997.997 0 0 1-.707.293z"/></g><path d="M168.945 170.336v1.032h-96.56c0-26.937 10.966-51.322 28.691-68.902l67.87 67.87z" fill="#ff90d8"/><path d="M168.945 172.368h-96.56a1 1 0 0 1-1-1c0-26.351 10.294-51.072 28.986-69.612a.999.999 0 0 1 1.411.003l67.87 67.87a.997.997 0 0 1 .293.707v1.032a1 1 0 0 1-1 1zm-95.556-2h94.174l-66.487-66.487c-17.632 17.844-27.433 41.382-27.687 66.487z" fill="#112c41"/><path d="M168.945 74.264v96.072l-67.87-67.87c17.425-17.314 41.399-28.058 67.87-28.202z" fill="#fcaa51"/><path d="M168.945 171.336a1 1 0 0 1-.707-.293l-67.87-67.87a1 1 0 0 1 .002-1.416c18.35-18.233 42.702-28.352 68.569-28.493h.006a1.002 1.002 0 0 1 1 1v96.072a.999.999 0 0 1-1 1zm-66.45-68.864 65.45 65.45V75.275c-24.632.387-47.8 10.013-65.45 27.197z" fill="#112c41"/><path d="m238.247 102.788-68.425 68.425-.877-.877V74.264c.189-.011.366-.011.555-.011 26.859 0 51.177 10.91 68.747 28.535z" fill="#ffd169"/><path d="M169.822 172.212a.997.997 0 0 1-.707-.293l-.877-.876a.997.997 0 0 1-.293-.707V74.264a1 1 0 0 1 .943-.998c.208-.012.403-.013.611-.013 26.256 0 50.922 10.238 69.454 28.829a1 1 0 0 1 0 1.413l-68.424 68.424a.997.997 0 0 1-.707.293zm.123-96.958v94.421l66.884-66.884c-17.966-17.663-41.663-27.423-66.884-27.537z" fill="#112c41"/><path d="M266.615 171.368h-96.638l-.155-.156 68.425-68.425c17.525 17.559 28.369 41.809 28.369 68.58z" fill="#7bdaac"/><path d="M266.615 172.368h-96.638a.998.998 0 0 1-.709-.295l-.155-.156a1 1 0 0 1 .002-1.412l68.424-68.424a.997.997 0 0 1 1.415.001c18.482 18.518 28.661 43.124 28.661 69.286a1 1 0 0 1-1 1zm-94.535-2h93.53c-.252-24.923-9.939-48.343-27.368-66.161z" fill="#112c41"/><path d="M266.615 171.368c0 26.693-10.777 50.877-28.213 68.425l-68.425-68.425z" fill="#9dd9f4"/><path d="M238.402 240.793a.996.996 0 0 1-.707-.293l-68.425-68.425a1 1 0 0 1 .707-1.707h96.638a1 1 0 0 1 1 1c0 26.081-10.123 50.632-28.504 69.13-.188.189-.464.252-.709.295zm-66.011-68.425 66.005 66.005c17.327-17.797 26.962-41.164 27.214-66.005z" fill="#112c41"/><path d="M238.402 239.793c-17.581 17.725-41.965 28.691-68.902 28.691-.189 0-.366 0-.555-.011V172.09l.721-.721h.311l68.425 68.425z" fill="#6ecfea"/><path d="M169.5 269.484c-.208 0-.403 0-.611-.013a1 1 0 0 1-.943-.998v-96.384a1 1 0 0 1 .293-.708l.722-.721c.188-.187.442-.292.707-.292h.311c.266 0 .52.105.707.293l68.425 68.425a.999.999 0 0 1 .003 1.411c-18.541 18.692-43.263 28.986-69.612 28.986zm.445-96.733v94.732c25.313-.113 49.065-9.929 67.042-27.69z" fill="#112c41"/><path d="M168.945 172.089v96.383c-26.56-.145-50.6-10.955-68.036-28.358z" fill="#9797f7"/><path d="M168.945 269.473h-.006c-25.957-.142-50.368-10.316-68.736-28.65a1 1 0 0 1-.001-1.415l68.036-68.025a.999.999 0 0 1 1.707.707v96.384a.998.998 0 0 1-1 1zm-66.617-29.362c17.67 17.283 40.897 26.965 65.617 27.352v-92.959z" fill="#112c41"/><path d="M168.945 171.368v.721l-68.036 68.025c-17.625-17.58-28.524-41.887-28.524-68.747h96.56z" fill="#b2b0f7"/><path d="M100.909 241.115a.998.998 0 0 1-.706-.292c-18.584-18.536-28.818-43.202-28.818-69.454a1 1 0 0 1 1-1h96.561a1 1 0 0 1 1 1v.721c0 .266-.105.52-.293.707l-68.036 68.025a.997.997 0 0 1-.707.293zm-27.52-68.746c.254 25.01 9.996 48.491 27.522 66.329l66.34-66.329H73.39z" fill="#112c41"/><circle cx="169.5" cy="171.368" fill="#fff" r="59.934"/><path d="M169.5 232.302c-33.599 0-60.934-27.335-60.934-60.934s27.335-60.935 60.934-60.935 60.934 27.335 60.934 60.935-27.335 60.934-60.934 60.934zm0-119.868c-32.496 0-58.934 26.438-58.934 58.935s26.438 58.934 58.934 58.934 58.934-26.438 58.934-58.934-26.438-58.935-58.934-58.935z" fill="#112c41"/></svg></g><g transform="translate(131.66666666666669 1723.3333333333335) rotate(0.0 265.83333333333337 265.83333333333326) scale(2.037037037037037 2.0370370370370363)"><svg width="261" height="261" viewBox="0 0 261 261"><rect fill="#cbc8ff" height="240" rx="15.543" width="240" y="21"/><rect fill="#ffe993" height="240" rx="15.543" width="240" x="20" y="1"/><path d="M244.456 242H35.544C26.422 242 19 234.578 19 225.456V16.543C19 7.421 26.422 0 35.544 0h208.912C253.578 0 261 7.421 261 16.543v208.913c0 9.122-7.422 16.544-16.544 16.544zM35.544 2C27.524 2 21 8.524 21 16.543v208.913C21 233.476 27.524 240 35.544 240h208.912c8.02 0 14.544-6.524 14.544-14.544V16.543C259 8.524 252.476 2 244.456 2z" fill="#112c41"/><path d="M43.741 195.747h96.356c1.997 0 3.296-2.102 2.403-3.888L94.322 95.503c-.99-1.98-3.816-1.98-4.806 0l-48.178 96.356c-.893 1.786.406 3.888 2.403 3.888z" fill="#b2b0f7"/><path d="M140.097 196.747H43.741c-1.287 0-2.459-.653-3.136-1.748s-.737-2.436-.162-3.588l48.178-96.355c.629-1.257 1.893-2.038 3.298-2.038s2.669.781 3.298 2.038l48.178 96.355c.575 1.151.516 2.493-.161 3.588s-1.85 1.748-3.137 1.748zM91.919 95.018c-.653 0-1.217.349-1.509.933l-48.178 96.355c-.268.535-.24 1.133.074 1.642s.837.8 1.435.8h96.355c.598 0 1.121-.292 1.436-.8a1.655 1.655 0 0 0 .073-1.642L93.427 95.951a1.656 1.656 0 0 0-1.509-.933z" fill="#112c41"/><path d="M108.182 195.747h124.243c3.065 0 5.098-3.178 3.812-5.96L174.115 55.313c-1.502-3.251-6.122-3.251-7.624 0L104.37 189.787c-1.285 2.783.747 5.96 3.812 5.96z" fill="#9797f7"/><path d="M232.425 196.747H108.182a5.177 5.177 0 0 1-4.38-2.397 5.175 5.175 0 0 1-.341-4.981l62.122-134.475c.86-1.862 2.669-3.02 4.72-3.02s3.86 1.157 4.721 3.02l62.121 134.475a5.175 5.175 0 0 1-.341 4.981 5.175 5.175 0 0 1-4.379 2.397zM170.303 53.874c-1.28 0-2.366.694-2.903 1.857l-62.122 134.475c-.46.996-.382 2.142.209 3.065s1.599 1.476 2.695 1.476h124.243c1.097 0 2.104-.552 2.694-1.476s.669-2.069.209-3.065L173.207 55.732c-.537-1.163-1.623-1.857-2.904-1.857z" fill="#112c41"/><circle cx="124.646" cy="47.465" fill="#fff" r="18.182"/><path d="M124.646 66.647c-10.577 0-19.182-8.604-19.182-19.182s8.604-19.183 19.182-19.183 19.182 8.605 19.182 19.183-8.604 19.182-19.182 19.182zm0-36.364c-9.474 0-17.182 7.708-17.182 17.183s7.708 17.182 17.182 17.182 17.182-7.708 17.182-17.182-7.708-17.183-17.182-17.183z" fill="#112c41"/></svg></g><g transform="translate(1823.3333333333335 1753.3333333333335) rotate(0.0 238.33333333333326 374.16666666666674) scale(2.0287313761040973 2.0360983458174733)"><svg width="234.958" height="367.533" viewBox="0 0 234.958 367.533"><path d="m217.054 2.752 11.172 6.816c5.633 3.437 7.417 10.801 3.98 16.434l-9.918 16.257-31.586-19.27 9.918-16.257c3.437-5.633 10.802-7.417 16.435-3.98z" fill="#112c41"/><path d="M222.287 43.258a.997.997 0 0 1-.52-.146l-31.586-19.27a.998.998 0 0 1-.333-1.374l9.918-16.257c3.721-6.099 11.711-8.033 17.808-4.313l11.172 6.816a12.867 12.867 0 0 1 5.845 8.011 12.87 12.87 0 0 1-1.531 9.797l-9.918 16.257a.996.996 0 0 1-.854.479zm-30.211-20.603 29.879 18.229 9.397-15.403c1.523-2.499 1.983-5.44 1.295-8.285s-2.444-5.25-4.942-6.774l-11.172-6.816c-5.158-3.146-11.913-1.509-15.06 3.647l-9.397 15.403z" fill="#112c41"/><path d="M231.39 36.94 49.48 335.11 9.357 310.632l181.91-298.17a7.725 7.725 0 0 1 10.611-2.57l26.942 16.437a7.725 7.725 0 0 1 2.57 10.611z" fill="#b2b0f7"/><path d="M49.48 336.11c-.183 0-.362-.05-.521-.146L8.837 311.485a.999.999 0 0 1-.333-1.374L190.413 11.942c2.503-4.104 7.882-5.409 11.985-2.903l26.941 16.438a8.665 8.665 0 0 1 3.933 5.392 8.659 8.659 0 0 1-1.029 6.593L50.333 335.631a.995.995 0 0 1-.853.479zm-38.748-25.812 38.415 23.438L230.536 36.419a6.673 6.673 0 0 0 .792-5.081 6.68 6.68 0 0 0-3.029-4.155l-26.941-16.438c-3.164-1.928-7.308-.924-9.237 2.237L10.732 310.299z" fill="#112c41"/><path d="M49.48 335.11 14.903 359.7l-8.355 5.937-.397.285c-2.353 1.668-5.556-.321-5.11-3.164l1.671-10.496 6.644-41.631 40.123 24.478z" fill="#b2b0f7"/><path d="M4.27 367.535a4.268 4.268 0 0 1-2.249-.651c-1.483-.92-2.236-2.56-1.967-4.28l8.316-52.129a.997.997 0 0 1 1.507-.696l40.122 24.479a1 1 0 0 1 .059 1.668l-43.323 30.81a4.25 4.25 0 0 1-2.466.801zm5.84-55.272-8.08 50.653c-.171 1.088.428 1.885 1.045 2.268a2.2 2.2 0 0 0 2.499-.076l.391-.281 41.7-29.652-37.555-22.911z" fill="#112c41"/><path d="M231.39 36.94 49.48 335.11 14.903 359.7l-8.355 5.937c3.895-5.308 14.686-20.232 28.342-39.428 17.393-24.438 39.436-55.807 57.801-83.049 36.935-54.779 117.994-185.724 135.89-216.977l.239.146a7.725 7.725 0 0 1 2.57 10.611z" fill="#9797f7"/><g fill="#112c41"><path d="m50.776 229.303 9.39 5.729-37.499 61.464-9.39-5.73z"/><path d="M22.666 297.495a.997.997 0 0 1-.52-.146l-9.391-5.729a.998.998 0 0 1-.333-1.374l37.499-61.465a.997.997 0 0 1 1.374-.333l9.391 5.729a.999.999 0 0 1 .333 1.374L23.52 297.015a.996.996 0 0 1-.854.479zm-8.016-7.062 7.684 4.688 36.458-59.757-7.684-4.688-36.458 59.758zM4.27 367.535a4.268 4.268 0 0 1-2.249-.651c-1.483-.92-2.236-2.56-1.967-4.28l8.316-52.129a.997.997 0 0 1 1.507-.696l40.122 24.479a1 1 0 0 1 .059 1.668l-43.323 30.81a4.25 4.25 0 0 1-2.466.801zm5.84-55.272-8.08 50.653c-.171 1.088.428 1.885 1.045 2.268a2.2 2.2 0 0 0 2.499-.076l.391-.281 41.7-29.652-37.555-22.911z"/><path d="m14.903 359.7-8.752 6.223c-2.353 1.668-5.556-.321-5.11-3.164l1.671-10.496 12.19 7.437z"/><path d="M4.271 367.535a4.265 4.265 0 0 1-2.25-.651c-1.483-.92-2.236-2.56-1.967-4.28l1.672-10.498c.052-.329.266-.611.568-.751a.994.994 0 0 1 .939.055l12.19 7.438a1 1 0 0 1 .059 1.669L6.73 366.74a4.244 4.244 0 0 1-2.46.797zm-.805-13.642-1.437 9.022c-.171 1.088.428 1.885 1.045 2.268a2.2 2.2 0 0 0 2.499-.076l7.515-5.344z"/></g><path d="m9.357 310.633 56.769-93.05 40.122 24.478-56.769 93.05z" fill="#9797f7"/><path d="M49.48 336.11c-.183 0-.362-.05-.521-.146L8.837 311.485a.999.999 0 0 1-.333-1.374l56.769-93.05a.998.998 0 0 1 1.374-.333l40.122 24.478a.998.998 0 0 1 .333 1.374l-56.769 93.051a.995.995 0 0 1-.853.479zm-38.748-25.812 38.415 23.438 55.728-91.344-38.415-23.437-55.728 91.344z" fill="#112c41"/><path d="M49.48 336.11c-.183 0-.362-.05-.521-.146L8.837 311.485a.999.999 0 0 1-.333-1.374L190.415 11.94a8.661 8.661 0 0 1 5.39-3.933 8.645 8.645 0 0 1 6.592 1.03l26.946 16.439c4.104 2.504 5.404 7.879 2.901 11.981L50.333 335.631a.995.995 0 0 1-.853.479zm-38.748-25.812 38.415 23.438 181.39-297.319a6.726 6.726 0 0 0-2.235-9.233l-26.946-16.439a6.663 6.663 0 0 0-5.08-.794 6.676 6.676 0 0 0-4.153 3.03L10.732 310.299z" fill="#112c41"/></svg></g></svg>