<svg xmlns="http://www.w3.org/2000/svg" viewBox="0 0 1800 1800" width="1800" height="1800"><g transform="translate(984.0 584.0) rotate(0.0 207.5 156.5) scale(1.1144350217247694 1.1114819996733025)"><svg width="372.386" height="281.606" viewBox="0 0 372.386 281.606"><path d="M325.66 192.762c-2.528-2.644-2.663-6.777-.269-9.543C341.015 165.167 350 144.059 350 121.5 350 54.95 271.874 1 175.5 1S1 54.95 1 121.5 79.126 242 175.5 242c33.4 0 64.601-6.486 91.124-17.725a7.08 7.08 0 0 1 7.87 1.6 304.528 304.528 0 0 0 3.956 4.029c37.9 37.9 78.079 59.17 89.742 47.507 11.141-11.141-7.776-48.307-42.532-84.649z" fill="#fff"/><path d="M358.891 281.614c-17.671.002-49.786-19.64-81.147-51.002a300.489 300.489 0 0 1-3.969-4.042 6.045 6.045 0 0 0-6.761-1.374C239.527 236.844 207.881 243 175.5 243 78.729 243 0 188.495 0 121.5S78.729 0 175.5 0 351 54.505 351 121.5c0 22.019-8.594 43.587-24.854 62.374-2.059 2.379-1.957 5.904.236 8.198 35.829 37.464 54.106 74.457 42.516 86.047-2.364 2.365-5.774 3.494-10.007 3.495zm-89.471-58.912c2.143 0 4.231.858 5.794 2.479a315.195 315.195 0 0 0 3.943 4.016c30.296 30.296 63.055 50.395 79.871 50.396 3.618 0 6.497-.93 8.456-2.889 10.625-10.625-8.063-47.194-42.547-83.251-2.91-3.043-3.041-7.725-.303-10.888C340.575 164.147 349 143.032 349 121.5 349 55.607 271.168 2 175.5 2S2 55.607 2 121.5 79.832 241 175.5 241c32.115 0 63.491-6.102 90.733-17.646a8.165 8.165 0 0 1 3.187-.652z" fill="#112c41"/></svg></g><g transform="translate(337.0 1213.0) rotate(0.0 266.5 45.0) scale(1.3716044426602436 1.3719721337215505)"><svg width="388.596" height="65.599" viewBox="0 0 388.596 65.599"><ellipse cx="194.298" cy="32.799" fill="#cbc8ff" rx="194.298" ry="32.799"/></svg></g><g transform="translate(490.0 440.0) rotate(0.0 179.0 149.5) scale(1.1155289102715908 1.1179199958124735)"><svg width="320.924" height="267.461" viewBox="0 0 320.924 267.461"><circle cx="286.857" cy="168.331" fill="#ffd6c0" r="33.06"/><path d="M270.543 197.086c15.365 8.72 34.755 3.79 44.163-10.939-10.241 8.084-24.755 9.632-36.805 2.805-15.878-9.014-21.449-29.201-12.434-45.079.295-.513.6-1.015.916-1.506a32.856 32.856 0 0 0-8.274 9.651c-9.015 15.877-3.444 36.053 12.434 45.068z" fill="#f5b9ab"/><path d="M286.805 202.407c-5.816 0-11.562-1.504-16.758-4.453a34.155 34.155 0 0 1-16.369-21.929 1 1 0 1 1 1.947-.452 32.16 32.16 0 0 0 15.408 20.642c7.448 4.227 16.095 5.299 24.352 3.022 8.255-2.278 15.129-7.634 19.355-15.082 4.228-7.448 5.301-16.096 3.022-24.351-2.277-8.255-7.634-15.129-15.081-19.356-14.511-8.233-33.148-3.846-42.432 9.994a1 1 0 1 1-1.66-1.115c9.862-14.702 29.663-19.367 45.078-10.619 16.334 9.27 22.082 30.099 12.812 46.434-4.491 7.913-11.794 13.603-20.563 16.022a34.212 34.212 0 0 1-9.111 1.243z" fill="#112c41"/><path d="M268.798 168.861a1 1 0 0 1-.985-1.183c1.029-5.523 4.092-10.327 8.623-13.526 4.539-3.205 10.006-4.418 15.399-3.411 6.087 1.134 11.268 4.978 14.214 10.543a1 1 0 1 1-1.768.936c-2.659-5.023-7.329-8.49-12.813-9.513-4.853-.904-9.783.188-13.879 3.079-4.103 2.897-6.876 7.25-7.81 12.258a.997.997 0 0 1-.981.817z" fill="#112c41"/><circle cx="164.562" cy="147.849" fill="#ffd6c0" r="118.611"/><path d="M167.674 29.279c.4.01.794.041 1.193.056l7.347 14.642C114.394 42.533 63.777 88.43 62.179 149.329c-1.601 61.009 46.602 113.972 108.571 115.599a113.75 113.75 0 0 0 18.13-.96 119.04 119.04 0 0 1-27.43 2.452c-65.485-1.719-117.177-56.197-115.459-121.682C47.71 79.252 102.188 27.56 167.674 29.279z" fill="#f5b9ab"/><path d="M164.643 267.462c-1.072 0-2.143-.014-3.219-.042-65.931-1.73-118.162-56.777-116.433-122.708 1.703-64.865 55.02-116.474 119.527-116.474 1.06 0 2.115.014 3.182.042 31.938.838 61.639 14.063 83.629 37.24 21.991 23.176 33.641 53.529 32.803 85.468-.838 31.938-14.063 61.639-37.24 83.63-22.396 21.249-51.496 32.844-82.249 32.844zM45.992 144.738l1 .026C45.29 209.593 96.649 263.719 161.477 265.42c31.362.801 61.248-10.631 84.039-32.254 22.789-21.624 35.793-50.827 36.616-82.231.824-31.404-10.63-61.25-32.253-84.039-21.624-22.789-50.827-35.793-82.231-36.617-64.843-1.69-118.955 49.656-120.656 114.485z" fill="#112c41"/><ellipse cx="153.588" cy="123.324" fill="#112c41" rx="10.535" ry="7.901" transform="matrix(.0262 -.9997 .9997 .0262 26.2781 273.6239)"/><ellipse cx="235.034" cy="139.858" fill="#112c41" rx="9.868" ry="7.401" transform="matrix(.3805 -.9248 .9248 .3805 16.2727 304.0063)"/><path d="M169.523 146.433c-1.312 14.4 5.166 26.977 15.807 29.353 10.64 2.377 21.854-6.249 26.794-19.838z" fill="#112c41"/><path d="M188.892 177.179c-1.263 0-2.526-.136-3.78-.416-10.992-2.456-17.967-15.249-16.585-30.42a1 1 0 0 1 1.214-.885l42.601 9.516a.998.998 0 0 1 .721 1.318c-4.611 12.682-14.363 20.887-24.171 20.887zm-18.461-29.518c-.859 13.654 5.388 24.977 15.116 27.15 9.725 2.171 20.2-5.415 25.231-18.137z" fill="#112c41"/><path d="M194.354 174.731c-2.324-5.545-8.567-9.612-16.005-9.807a20.492 20.492 0 0 0-5.457.582c2.777 5.302 7.079 9.085 12.436 10.281 3.081.688 6.211.454 9.22-.562a9.912 9.912 0 0 0-.194-.494z" fill="#ffa6e0"/><path d="M188.903 177.182a17.4 17.4 0 0 1-3.791-.419c-5.441-1.216-10.096-5.049-13.104-10.794a1 1 0 0 1 .647-1.435 21.293 21.293 0 0 1 5.723-.61c7.58.199 14.372 4.386 16.9 10.42l.001.001c.073.176.143.354.209.532a1.001 1.001 0 0 1-.617 1.295c-1.996.673-3.991 1.01-5.968 1.01zm-14.474-10.978c2.723 4.568 6.631 7.604 11.118 8.607 2.503.56 5.071.484 7.65-.219-2.399-5.037-8.293-8.496-14.874-8.669a19.993 19.993 0 0 0-3.894.281z" fill="#112c41"/><circle cx="36.294" cy="117.28" fill="#ffd6c0" r="35.294"/><path d="M62.38 141.231c-2.382 1.381-5.429 2.467-8.184 3.269-18.727 5.43-38.377-6.03-43.805-24.746-3.565-12.28.141-24.089 8.194-32.858C4.77 94.789-2.675 110.52 1.953 126.491c5.416 18.719 24.997 29.504 43.724 24.074 6.436-1.863 12.48-4.717 16.703-9.334z" fill="#f5b9ab"/><path d="M36.166 153.572c-.275 0-.55-.003-.824-.011-20.005-.525-35.854-17.228-35.33-37.233.255-9.691 4.268-18.703 11.301-25.376 7.032-6.673 16.234-10.219 25.934-9.953 18.88.495 34.386 15.644 35.3 34.487a1 1 0 0 1-.95 1.047c-.55.003-1.021-.399-1.048-.951-.863-17.803-15.515-32.116-33.354-32.584-9.112-.222-17.859 3.099-24.505 9.405-6.645 6.305-10.437 14.821-10.677 23.978-.496 18.903 14.479 34.686 33.383 35.182 9.347.25 19.427-3.979 26.268-11.028a1 1 0 1 1 1.435 1.393c-7.019 7.229-17.268 11.644-26.933 11.644z" fill="#112c41"/><path d="M56.091 124.25a1.002 1.002 0 0 1-.996-1.103c1.165-11.192-6.735-21.219-17.61-22.351-5.948-.621-11.796 1.522-16.055 5.872a1 1 0 0 1-1.43-1.399c4.689-4.789 11.139-7.146 17.691-6.462 11.972 1.246 20.672 12.258 19.393 24.547a.999.999 0 0 1-.993.896z" fill="#112c41"/><path d="M60.598 77.345c28.977-12.019 65.41-17.465 104.267-13.806 16.57 1.558 32.405 4.67 47.142 9.051 2.661-10.973 2.913-21.894.928-31.832.1.165.212.329.3.494 6.278 10.016 10.609 22.307 12.268 35.825a215.471 215.471 0 0 1 8.136 3.177c19.581 8.131 36.518 18.646 49.756 30.743 1.39 1.275 3.65.293 3.619-1.595a103.662 103.662 0 0 0-7.092-35.863C263.824 32.312 222.127 2.347 172.466 1.044a125.867 125.867 0 0 0-24.691 1.771c-41.758 7.215-75.912 35.201-89.423 72.363-.5 1.389.888 2.733 2.246 2.167z" fill="#fcaa51"/><path d="M60.598 77.345c7.338-3.049 15.163-5.668 23.38-7.825 12.244-32.959 42.679-57.754 79.821-64.165a113.134 113.134 0 0 1 22.094-1.585 112.35 112.35 0 0 1 15.98 1.554c-9.368-2.538-19.215-4.012-29.406-4.279a125.867 125.867 0 0 0-24.691 1.771c-41.758 7.215-75.912 35.201-89.423 72.363-.501 1.388.887 2.732 2.245 2.166z" fill="#ff9522"/><g fill="#112c41"><path d="M285.001 112.582c-.853 0-1.728-.34-2.434-.982-15.014-13.682-34.865-25.296-57.408-33.586a.995.995 0 0 1-.647-.817c-1.396-11.381-4.749-22.122-9.767-31.379 1.029 8.694.433 17.928-1.771 27.009a.993.993 0 0 1-.474.631.988.988 0 0 1-.783.092c-14.989-4.458-30.783-7.491-46.942-9.014-36.877-3.474-73.535 1.318-103.214 13.495-1.242.509-2.586.308-3.424-.509-.812-.79-.995-1.987-.502-3.286 14.234-37.537 48.709-65.28 89.971-72.401A126.882 126.882 0 0 1 172.492.046c24.231.636 47.349 8.054 66.854 21.452 19.067 13.099 33.42 30.968 41.505 51.677 4.53 11.601 6.938 23.714 7.16 36.003.026 1.478-.612 2.622-1.754 3.139a3.071 3.071 0 0 1-1.256.265zM226.42 76.347c22.549 8.364 42.419 20.035 57.495 33.774.466.423 1.074.572 1.517.373.494-.224.588-.82.579-1.281-.217-12.051-2.58-23.932-7.023-35.312-7.938-20.334-22.038-37.885-40.774-50.756C219.029 9.967 196.285 2.67 172.44 2.044a124.975 124.975 0 0 0-24.493 1.761c-40.567 7.002-74.456 34.261-88.441 71.14-.115.305-.266.859.027 1.144.219.214.727.314 1.27.091 29.976-12.299 66.967-17.14 104.161-13.636 15.924 1.5 31.499 4.456 46.31 8.788 2.36-10.325 2.598-20.805.678-30.375a1 1 0 0 1 1.824-.734c6.556 10.293 10.924 22.772 12.644 36.124zM147.777 2.819h.01z"/><path d="M188.373 113.501c.52-19.873-22.522-36.598-51.468-37.358-28.956-.761-52.846 14.732-53.366 34.605s22.522 36.598 51.468 37.358c28.956.761 52.847-14.742 53.366-34.605zm-52.443 26.407c-18.992-2.209-33.303-13.418-31.953-25.02s17.85-19.216 36.842-17.007c19.002 2.211 33.304 13.408 31.954 25.01-1.349 11.602-17.841 19.228-36.843 17.017z"/><path d="M137.062 149.133c-.692 0-1.385-.009-2.081-.027-29.449-.773-52.976-17.992-52.442-38.383.261-9.951 6.112-19.132 16.477-25.853 10.245-6.644 23.691-10.099 37.917-9.726 29.449.773 52.975 17.992 52.441 38.384-.26 9.947-6.11 19.127-16.475 25.849-9.747 6.322-22.405 9.756-35.837 9.756zm-2.214-72.017c-13.051 0-25.32 3.319-34.745 9.431-9.794 6.351-15.322 14.955-15.564 24.228-.505 19.289 22.147 35.587 50.495 36.332 13.791.358 26.863-2.979 36.776-9.408 9.795-6.353 15.322-14.955 15.563-24.224.505-19.289-22.147-35.587-50.494-36.332a76.525 76.525 0 0 0-2.031-.027zm7.626 64.175c-2.188 0-4.416-.129-6.659-.39-19.515-2.27-34.242-13.991-32.83-26.128.694-5.97 5.091-11.111 12.379-14.475 7.123-3.288 16.203-4.5 25.571-3.409 19.515 2.27 34.243 13.987 32.832 26.119-.694 5.971-5.09 11.113-12.376 14.48-5.418 2.502-11.969 3.803-18.917 3.803zm-8.209-42.794c-6.653 0-12.906 1.236-18.063 3.616-6.631 3.061-10.619 7.639-11.23 12.891-1.284 11.042 12.655 21.768 31.074 23.911 9.013 1.047 17.712-.104 24.507-3.243 6.63-3.063 10.617-7.643 11.229-12.896 1.284-11.037-12.657-21.759-31.076-23.901a55.76 55.76 0 0 0-6.441-.378zm103.791 65.229c19.621 6.327 39.387-1.275 44.15-16.981 4.764-15.706-7.283-33.568-26.91-39.897-19.621-6.327-39.387 1.275-44.15 16.981-4.762 15.698 7.282 33.568 26.91 39.897zm-18.858-28.803c2.079-9.42 14.558-14.779 27.878-11.967 13.314 2.81 22.428 12.727 20.349 22.146s-14.566 14.785-27.88 11.975c-13.32-2.811-22.426-12.735-20.347-22.154z"/><path d="M251.978 166.962c-4.675 0-9.493-.757-14.229-2.284-20.111-6.485-32.476-24.94-27.561-41.139 2.022-6.668 6.845-12.281 13.577-15.805 9.094-4.76 20.696-5.429 31.837-1.837 20.11 6.484 32.474 24.939 27.561 41.139-2.022 6.668-6.845 12.282-13.577 15.806-5.228 2.735-11.286 4.12-17.608 4.12zm-10.608-61.351c-5.999 0-11.735 1.308-16.677 3.895-6.345 3.321-10.698 8.374-12.591 14.614-4.601 15.162 7.18 32.503 26.26 38.655 10.633 3.429 21.675 2.807 30.296-1.706 6.345-3.321 10.698-8.374 12.591-14.614 4.599-15.163-7.182-32.503-26.26-38.655-4.537-1.463-9.151-2.189-13.619-2.189zm5.185 53.208c-2.344 0-4.768-.247-7.216-.763-8.06-1.701-15.061-6.111-18.727-11.797-2.408-3.734-3.234-7.728-2.391-11.551 2.193-9.939 15.234-15.647 29.061-12.73 8.062 1.702 15.063 6.112 18.73 11.798 2.406 3.73 3.231 7.722 2.389 11.542-1.805 8.182-10.954 13.501-21.846 13.501zm-6.55-35.611c-9.942 0-18.229 4.681-19.83 11.931-.727 3.291.006 6.761 2.118 10.037 3.384 5.247 9.91 9.331 17.458 10.924 12.761 2.692 24.739-2.336 26.697-11.212.726-3.288-.006-6.755-2.116-10.027-3.384-5.247-9.912-9.331-17.462-10.925a33.193 33.193 0 0 0-6.865-.728z"/><path d="M186.888 104.026c8.192 19.26 22.059 18.822 33.426 6.909-8.086 12.2-4.887 22.162-7.555 30.33-3.695-11.504-23.33-15.802-35.412-7.14 2.487-11.14 3.72-14.668 3.72-14.668z"/><path d="M212.758 142.265h-.003a1 1 0 0 1-.949-.694c-1.388-4.319-5.391-7.855-10.983-9.703-7.74-2.556-16.728-1.352-22.894 3.07a.998.998 0 0 1-1.559-1.031c2.472-11.07 3.7-14.634 3.751-14.78l5.831-15.454c.145-.382.507-.638.915-.647.392.004.781.232.94.608 3.583 8.422 8.49 13.421 14.191 14.458 5.556 1.01 11.8-1.777 17.591-7.849a1 1 0 0 1 1.558 1.243c-5.11 7.711-5.589 14.555-6.012 20.593-.233 3.353-.455 6.519-1.428 9.496a.995.995 0 0 1-.949.69zm-20.294-13.716c3.037 0 6.094.465 8.985 1.42 5.012 1.655 8.891 4.586 11.033 8.251.358-1.984.506-4.091.658-6.279.343-4.898.721-10.304 3.427-16.31-4.978 3.739-10.144 5.297-14.926 4.43-5.857-1.065-10.896-5.692-14.667-13.432L182 119.81c-.003.01-1.062 3.092-3.145 12.169 3.997-2.254 8.778-3.43 13.609-3.43zm-105.3-23.043a.997.997 0 0 1-.734-.321c-6.887-7.453-15.418-11.624-26.084-12.75a1 1 0 1 1 .211-1.99c11.168 1.179 20.112 5.556 27.342 13.381a1 1 0 0 1-.735 1.68z"/></g></svg></g><g transform="translate(1095.0 620.0) rotate(0.0 69.0 99.0) scale(1.1205391579716617 1.1097224012599272)"><svg width="123.155" height="178.423" viewBox="0 0 123.155 178.423"><path d="M29.119 98.248a5.978 5.978 0 0 1-4.105-1.625C5.188 78.015-3.47 55.758 1.261 35.559 5.033 19.457 16.835 6.958 32.83 2.123c20.193-6.103 43.035.967 62.671 19.396a6 6 0 0 1-8.212 8.75C70.865 14.853 52.284 8.781 36.302 13.61c-11.843 3.579-20.574 12.808-23.356 24.686-3.728 15.912 3.664 33.982 20.281 49.577a6 6 0 0 1-4.108 10.375z" fill="#112c41"/><path d="M122.155 89.052v36.87c0 28.44-23.06 51.5-51.5 51.5-10.03 0-19.39-2.87-27.31-7.82-14.53-9.11-24.19-25.27-24.19-43.68v-36.87a5.63 5.63 0 0 1 5.63-5.63h91.74a5.63 5.63 0 0 1 5.63 5.63z" fill="#ffe993"/><path d="M70.656 178.422a52.474 52.474 0 0 1-27.841-7.972c-15.441-9.681-24.659-26.327-24.659-44.528v-36.87a6.638 6.638 0 0 1 6.63-6.63h91.739a6.638 6.638 0 0 1 6.631 6.63v36.87c0 28.949-23.552 52.5-52.5 52.5zm-45.871-94a4.635 4.635 0 0 0-4.63 4.63v36.87c0 17.508 8.867 33.521 23.721 42.833a50.467 50.467 0 0 0 26.779 7.667c27.846 0 50.5-22.654 50.5-50.5v-36.87a4.635 4.635 0 0 0-4.631-4.63z" fill="#112c41"/><path d="M122.155 89.052v36.87c0 28.44-23.06 51.5-51.5 51.5-10.03 0-19.39-2.87-27.31-7.82v-.02c28.81 10.84 52.81-6.16 58.81-25.16 5.259-16.654 1.57-61 1.57-61h12.8a5.63 5.63 0 0 1 5.63 5.63z" fill="#ffd169"/><g fill="#112c41"><path d="M70.656 178.422c-28.948 0-52.5-23.551-52.5-52.5v-36.87a6.639 6.639 0 0 1 6.63-6.631h91.739a6.639 6.639 0 0 1 6.631 6.631v36.87c0 28.949-23.552 52.5-52.5 52.5zm-45.871-94a4.636 4.636 0 0 0-4.63 4.631v36.87c0 27.846 22.654 50.5 50.5 50.5s50.5-22.654 50.5-50.5v-36.87a4.636 4.636 0 0 0-4.631-4.631z"/><circle cx="70.155" cy="118.423" r="8"/><path d="M70.156 127.422c-4.963 0-9-4.038-9-9s4.037-9 9-9 9 4.038 9 9-4.038 9-9 9zm0-16c-3.859 0-7 3.14-7 7s3.141 7 7 7 7-3.14 7-7-3.141-7-7-7z"/><path d="M76.155 140.423h-11l2-23h7z"/><path d="M76.156 141.422h-11a1.002 1.002 0 0 1-.996-1.086l2-23a1 1 0 0 1 .996-.914h7a1 1 0 0 1 .996.914l2 23a.997.997 0 0 1-.996 1.086zm-9.91-2h8.818l-1.826-21h-5.166z"/></g></svg></g><g transform="translate(272.0 755.0) rotate(0.0 657.0 281.5) scale(1.0989755440305304 1.0991907379025565)"><svg width="1195.659" height="512.195" viewBox="0 0 1195.659 512.195"><path d="M586.426 137.838c132 142 300 159 534 108-4.378 39.404 16.737 67.523-2 100-15 26-46.163 55.584-92 69-82 24-385 74-547-87-192.38-191.193 107-190 107-190z" fill="#ffd6c0"/><path d="M816.629 442.437a775.41 775.41 0 0 1-33.746-.725c-59.342-2.583-113.676-12.016-161.492-28.035-57.066-19.118-105.067-47.76-142.669-85.13-53.809-53.476-74.241-97.106-60.732-129.681 5.957-14.361 18.568-26.558 37.486-36.249 15.043-7.706 34.1-13.862 56.641-18.296 38.319-7.538 73.957-7.481 74.314-7.483a1 1 0 0 1 .729.319c64.043 68.895 138.686 110.134 228.192 126.071 82.826 14.748 179.698 8.911 304.862-18.367a.999.999 0 0 1 1.207 1.087c-1.75 15.742.585 29.544 2.843 42.892 3.288 19.438 6.394 37.798-4.971 57.498-18.412 31.914-53.023 57.88-92.585 69.46-36.048 10.551-117.123 26.638-210.079 26.639zM585.992 138.839c-4.159.019-37.663.394-73.521 7.451-35.026 6.893-79.53 21.743-92.635 53.344-13.168 31.752 7.118 74.646 60.295 127.495 37.382 37.15 85.121 65.632 141.894 84.651 47.64 15.96 101.79 25.358 160.945 27.934 106.443 4.631 202.941-14.06 243.175-25.836 39.08-11.438 73.254-37.061 91.415-68.54 11.005-19.076 8.098-36.264 4.731-56.165-2.215-13.094-4.503-26.621-3.003-42.064-80.206 17.41-148.839 26.004-209.613 26.006-33.77.001-65.103-2.651-94.674-7.917-89.813-15.993-164.725-57.325-229.009-126.359z" fill="#112c41"/><path d="M1179.575 31.838h-54.149l-157 413h65.606a15.072 15.072 0 0 0 14.087-9.715l145.542-382.859c3.75-9.863-3.535-20.426-14.086-20.426z" fill="#b2b0f7"/><path d="M1034.032 445.838h-65.606a.998.998 0 0 1-.934-1.356l157-413a1 1 0 0 1 .935-.645h54.148c5.362 0 10.185 2.532 13.229 6.946 3.045 4.415 3.698 9.822 1.793 14.835l-145.543 382.859c-2.355 6.197-8.392 10.361-15.022 10.361zm-64.155-2h64.155c5.805 0 11.09-3.646 13.152-9.071l145.543-382.859c1.668-4.389 1.096-9.123-1.569-12.988-2.666-3.865-6.888-6.082-11.583-6.082h-53.459z" fill="#112c41"/><path d="M959.1 444.838H575.752a6.326 6.326 0 0 1-6.326-6.326v-14.348a6.326 6.326 0 0 1 6.326-6.326H959.1a6.326 6.326 0 0 1 6.326 6.326v14.348a6.326 6.326 0 0 1-6.326 6.326z" fill="#cbc8ff"/><path d="M959.1 445.838H575.752c-4.039 0-7.325-3.286-7.325-7.326v-14.348c0-4.04 3.286-7.326 7.325-7.326H959.1c4.04 0 7.326 3.286 7.326 7.326v14.348c.001 4.04-3.286 7.326-7.326 7.326zm-383.348-27a5.332 5.332 0 0 0-5.325 5.326v14.348a5.332 5.332 0 0 0 5.325 5.326H959.1a5.332 5.332 0 0 0 5.326-5.326v-14.348a5.332 5.332 0 0 0-5.326-5.326z" fill="#112c41"/><path d="M947.898 438.335 1101.25 34.931a4.798 4.798 0 0 1 4.485-3.093h16.735c3.359 0 5.678 3.363 4.485 6.503L973.602 441.745a4.798 4.798 0 0 1-4.485 3.093h-16.734c-3.359 0-5.678-3.363-4.485-6.503z" fill="#cbc8ff"/><path d="M969.117 445.838h-16.734a5.797 5.797 0 0 1-5.418-7.859l153.353-403.404a5.827 5.827 0 0 1 5.419-3.738h16.734a5.798 5.798 0 0 1 5.419 7.858L974.537 442.101a5.83 5.83 0 0 1-5.42 3.737zm-20.284-7.147c-.45 1.185-.296 2.463.424 3.506s1.858 1.642 3.126 1.642h16.734a3.82 3.82 0 0 0 3.551-2.448L1126.02 37.986a3.751 3.751 0 0 0-.423-3.506 3.75 3.75 0 0 0-3.127-1.642h-16.734a3.818 3.818 0 0 0-3.55 2.448z" fill="#112c41"/><ellipse cx="1094.232" cy="231.467" fill="#fff" rx="32" ry="11.735" transform="matrix(.3386 -.9409 .9409 .3386 505.954 1182.7031)"/><path d="M6.336 176.884c30.704 37.6 141.4 88.473 190.621 88.268.592.006 1.176-.009 1.751-.024l.071.047c11.655 31.896 137.424 151.711 314.634 73.609a370.796 370.796 0 0 0 20.207-9.668c43.617-22.508 96.705-132.948 107.905-171.433.883-3.036.128-6.319-2.028-8.632a451.574 451.574 0 0 0-31.526-30.656C535.135 54.132 447.399 17.741 373.711 5.892c-8.014-1.286-15.736-2.473-23.159-3.22-10-1.002-20.643-1.584-31.766-1.659-88.35-.608-207.802 30.126-289.58 120.943a330.244 330.244 0 0 0-24.132 30.208c-7.07 10.004-3.81 18.492 1.262 24.72z" fill="#9dd9f4"/><path d="M477.426 345.838c6.659-2.942 49.39-13.211 56.193-16.721 43.352-22.371 96.061-131.61 107.697-170.724 1.044-3.508.098-7.294-2.404-9.966a451.106 451.106 0 0 0-30.942-30.03l-.401.303c1.279.604-49.376 95.885-69.144 124.138-5.999 21-16.999 61-60.999 103z" fill="#fff"/><path d="M162.867 224.498c8.587 89.015 79.095 158.211 171.44 167.005 104.736 9.974 197.728-66.846 207.701-171.583.477-5.006.755-9.986.842-14.93" fill="#9dd9f4"/><path d="M352.713 393.379c-6.141 0-12.309-.292-18.5-.882-44.822-4.268-86.634-23.338-117.733-53.698-31.032-30.295-50.426-70.854-54.607-114.205a.999.999 0 0 1 .899-1.091 1.009 1.009 0 0 1 1.091.899c4.137 42.881 23.319 83 54.015 112.965 30.773 30.043 72.156 48.914 116.525 53.14 50.386 4.799 99.631-10.312 138.655-42.55 39.023-32.238 63.157-77.742 67.956-128.132.47-4.94.752-9.938.837-14.854.011-.552.431-.981 1.018-.982a1 1 0 0 1 .982 1.018 194.708 194.708 0 0 1-.847 15.008c-4.849 50.921-29.237 96.906-68.673 129.483-34.641 28.618-77.255 43.881-121.618 43.881z" fill="#112c41"/><path d="M25.084 166.532c-7.167 10.632-3.574 19.441 1.882 25.851 3.796 4.45 8.702 9.067 14.497 13.738-15.147-9.911-27.564-19.977-35.124-29.238-5.077-6.227-8.332-14.715-1.268-24.717C85.882 37.845 221.284.348 318.782 1.009c6.41.044 12.649.257 18.707.63C236.672 6.32 103.797 49.981 25.084 166.532z" fill="#6ecfea"/><path d="M6.336 176.884c30.704 37.6 141.4 88.473 190.621 88.268-.401-2.329 12.846-6.109 11.469-9.315-9.168-21.345-2.255-52.002-2-57 .265-4.997-44.555-37.72-98.975-56.966-30.433-10.763-64.506-19.352-78.244-19.917a330.244 330.244 0 0 0-24.132 30.208c-7.071 10.006-3.811 18.494 1.261 24.722z" fill="#fff"/><path d="M536.797 328.411a.997.997 0 0 1-.873-.512.997.997 0 0 1 .384-1.36c12.459-6.979 32.961-25.026 59.878-71.368 17.765-30.585 34.114-66.646 43.733-96.464 1.145-3.542.229-7.408-2.386-10.091-42.561-43.645-89.524-78.037-139.585-102.222-38.581-18.638-79.277-31.564-124.415-39.517-7.852-1.378-15.617-2.459-23.08-3.213-10.179-1.021-20.837-1.578-31.678-1.655-54.356-.389-112.13 11.132-162.72 32.382C93.286 60.758 42.762 100.578 5.887 152.743c-5.524 7.823-5.112 15.732 1.228 23.508 14.288 17.507 48.248 39.957 88.625 58.588 40.381 18.633 79.238 29.799 101.418 29.096a1.01 1.01 0 0 1 1.031.969 1 1 0 0 1-.969 1.031c-22.803.711-61.057-10.24-102.318-29.279-41.252-19.035-74.648-41.144-89.337-59.141-6.977-8.557-7.417-17.279-1.311-25.926C41.347 99.113 92.161 59.061 155.281 32.547 206.115 11.194 264.195-.366 318.789.009c10.903.078 21.624.638 31.864 1.665 7.512.759 15.326 1.847 23.227 3.234 45.322 7.985 86.189 20.966 124.938 39.686 50.271 24.286 97.424 58.815 140.147 102.626 3.135 3.215 4.229 7.852 2.857 12.102-18.228 56.496-64.696 146.645-104.538 168.962a.998.998 0 0 1-.487.127z" fill="#112c41"/><path d="M389.006 20.984c-.714 10.026-21.6 16.705-46.66 14.921-25.061-1.774-44.8-11.35-44.096-21.376.433-6.168 8.529-11.074 20.533-13.52 11.13.079 21.767.656 31.772 1.66 7.416.75 15.16 1.821 23.153 3.224 9.717 4.041 15.698 9.493 15.298 15.091z" fill="#112c41"/><ellipse cx="559.194" cy="321.95" fill="#ffd6c0" rx="47.638" ry="24.099" transform="matrix(.7792 -.6268 .6268 .7792 -78.3218 421.5665)"/><path d="M535.747 358.234c-6.375 0-11.374-1.972-14.452-5.799-8.674-10.784 1.271-33.233 22.168-50.043 20.897-16.809 44.956-21.713 53.631-10.927 8.674 10.784-1.271 33.233-22.168 50.043-10.035 8.071-21.077 13.688-31.092 15.812-2.884.611-5.591.914-8.087.914zm8.97-54.283c-20.038 16.118-29.847 37.306-21.863 47.23 3.786 4.707 11.09 6.19 20.565 4.183 9.714-2.062 20.458-7.535 30.253-15.414 20.038-16.118 29.847-37.306 21.863-47.23-7.981-9.927-30.779-4.888-50.818 11.231zm-353.014-50.638c-4.125 8.468-48.266-4.558-98.586-29.077-32.167-15.682-59.069-32.256-73.224-44.402-7.994-6.843-11.915-12.274-10.428-15.326 1.304-2.683 6.647-3.215 14.94-1.89 17.825 2.845 49.295 14.223 83.646 30.967 42.56 20.728 75.901 43.056 82.69 54.573.099.18.208.361.307.541a.3.3 0 0 1 .04.08c.959 1.836 1.191 3.357.615 4.534z" fill="#112c41"/><path d="M184.217 256.919c-5.614 0-13.887-1.605-24.767-4.815-18.669-5.507-42.382-15.084-66.771-26.968-31.217-15.22-58.67-31.871-73.438-44.543-8.891-7.611-12.383-13.016-10.676-16.521 1.517-3.12 6.752-3.919 15.997-2.44 18.54 2.96 50.698 14.859 83.927 31.057 41.884 20.398 76.062 43 83.112 54.963l.383.688c1.118 2.145 1.325 3.965.618 5.413-1.029 2.111-3.834 3.166-8.385 3.166zM16.904 162.923c-4.884 0-6.191 1.306-6.54 2.022-.56 1.15-.688 4.826 10.179 14.129 14.646 12.567 41.939 29.114 73.013 44.264 24.292 11.836 47.895 21.371 66.46 26.848 20.696 6.106 29.475 5.393 30.788 2.69l.001-.002c.416-.85.213-2.071-.604-3.631l-.337-.603c-6.856-11.632-40.686-33.912-82.251-54.155-33.063-16.116-65.008-27.949-83.365-30.88-3.072-.489-5.471-.682-7.344-.682z" fill="#112c41"/><path d="M689.166 359.478c-4.2 9.86-18.69 16.7-50.14 7.82 28.78 24.7 22.27 52.03 11.45 54.97 10.8 22.62-13.2 32.62-36.89 30.93-19.29-1.38-34.87 3.83-59.85 13.14-.02.01-.04.01-.06.02-2.48.93-5.06 1.89-7.74 2.9-38.5 14.42-185.51 70.58-330.26 23.45-159.08-51.79-215.34-205.44-191.28-330.09 6.37 1.02 14.47 3.12 23.83 6.17 1.08.35 2.19.72 3.3 1.09v.01c16.24 5.49 35.86 13.62 56.53 23.69 19.89 9.69 37.89 19.68 52.06 28.76 16.14 10.34 42.98 22.21 46.31 28.5 27 95 105.73 109.17 164 108 50-1 98.15-18.88 123-29 54-22 87.75-25.8 133.65-15.05 42 9.85 65.35 37.05 62.09 44.69z" fill="#ffd6c0"/><path d="M553.676 466.358c-2.48.93-5.06 1.89-7.74 2.9-38.5 14.42-185.51 70.58-330.26 23.45-159.08-51.79-215.34-205.44-191.28-330.09 6.37 1.02 14.47 3.12 23.83 6.17 1.08.35 2.19.72 3.3 1.09 0 0 15.902 5.95 15.9 5.96-16 80 1 200 95 264 66.483 45.265 169 63 258 53 53.126-5.969 95.51-14.95 133.25-26.48z" fill="#f5b9ab"/><g fill="#112c41"><path d="M337.49 512.215c-43.305 0-84.156-6.192-122.121-18.552-73.921-24.066-130.942-71.861-164.899-138.217-15.171-29.646-25.162-61.882-29.697-95.811-4.376-32.741-3.486-65.444 2.646-97.202a.996.996 0 0 1 1.14-.798c6.449 1.031 14.516 3.118 23.975 6.202 17.407 5.665 38.7 14.489 59.958 24.846 19.679 9.587 37.719 19.55 52.17 28.813 5.992 3.84 13.473 7.893 20.707 11.812 12.726 6.896 23.716 12.851 25.943 17.062a.984.984 0 0 1 .078.194c11.957 42.069 35.427 72.162 69.76 89.442 25.326 12.746 55.83 18.585 93.259 17.831 36.034-.721 77.297-10.453 122.643-28.926 54.241-22.099 88.119-25.908 134.257-15.096 19.146 4.488 33.005 12.224 41.26 17.922 9.495 6.556 17.088 14.27 20.312 20.634 1.565 3.092 1.984 5.685 1.212 7.498-2.524 5.921-12.146 18.323-47.343 9.458 11.104 10.666 20.717 26.484 17.229 41.941-1.279 5.668-4.34 9.98-8.131 11.576 3.219 7.341 3.021 13.99-.588 19.284-5.831 8.55-20.632 13.291-37.744 12.064-20.599-1.472-36.58 4.515-65.584 15.385l-1.646.617-.351-.937.351.937-1.195.448c-19.948 7.479-66.663 24.996-126.082 34.707-28.002 4.579-55.217 6.866-81.519 6.866zM25.198 163.769c-5.924 31.244-6.747 63.404-2.443 95.602 4.505 33.703 14.429 65.721 29.495 95.164 33.711 65.875 90.331 113.328 163.738 137.227 60.715 19.768 128.91 23.675 202.696 11.617 59.224-9.68 105.81-27.147 125.702-34.606l1.196-.448 1.646-.616c28.305-10.608 45.388-17.012 66.428-15.507 16.399 1.169 30.512-3.224 35.949-11.197 3.398-4.985 3.389-11.146-.029-18.31a1.002 1.002 0 0 1 .639-1.396c3.579-.973 6.571-4.984 7.81-10.469 3.611-16.003-7.783-32.588-19.651-42.772a.998.998 0 0 1-.229-1.231.988.988 0 0 1 1.152-.489c36.95 10.425 46.543-1.597 48.953-7.25.526-1.235.115-3.298-1.156-5.81-5.197-10.262-26.148-29.521-60.244-37.513-45.672-10.703-79.245-6.918-133.046 15-45.572 18.566-87.076 28.349-123.356 29.074-2.036.04-4.069.061-6.07.061-84.905.005-138.335-36.538-158.882-108.68-2.081-3.689-13.772-10.024-25.081-16.152-7.266-3.937-14.778-8.008-20.833-11.887-14.388-9.222-32.357-19.146-51.967-28.698-21.177-10.318-42.379-19.105-59.701-24.742-8.898-2.903-16.532-4.909-22.716-5.972z"/><path d="M653.231 435.526h-.031a1.003 1.003 0 0 1-.97-1.029c.004-.123.229-12.505-10.465-23.118-11.33-11.245-30.229-16.466-56.199-15.532-.538.062-1.015-.41-1.035-.963a.998.998 0 0 1 .963-1.035c26.562-.96 45.984 4.474 57.719 16.148 11.299 11.243 11.034 24.022 11.018 24.562-.018.54-.463.967-1 .967zm-1.918-54.072a1 1 0 0 1-.843-.46c-.22-.341-22.356-33.986-63.465-27.334a.993.993 0 0 1-1.147-.827 1 1 0 0 1 .827-1.147c42.446-6.865 65.244 27.878 65.469 28.229a1 1 0 0 1-.841 1.539zM210.428 263.838a1 1 0 0 1-.918-.602c-10.459-24.056-6.725-59.466-.008-75.779a1 1 0 0 1 1.85.762c-6.582 15.984-10.247 50.671-.008 74.221a.998.998 0 0 1-.916 1.398z"/></g><ellipse cx="1089.045" cy="352.178" fill="#ffd6c0" rx="41.988" ry="23.243" transform="matrix(.9474 -.3201 .3201 .9474 -55.4312 367.0844)"/><path d="M1074.84 378.945c-13.244 0-23.695-4.642-26.521-13.008-4.278-12.665 10.511-29.14 32.967-36.727 22.46-7.586 44.209-3.455 48.486 9.208 4.278 12.665-10.511 29.14-32.967 36.727-7.622 2.574-15.163 3.8-21.965 3.8zm28.621-51.583c-6.625 0-14.03 1.208-21.535 3.743-21.412 7.233-35.639 22.572-31.713 34.191 3.926 11.62 24.542 15.187 45.951 7.954 21.412-7.233 35.639-22.572 31.713-34.191-2.55-7.547-12.142-11.697-24.416-11.697z" fill="#112c41"/><ellipse cx="1110.936" cy="310.719" fill="#ffd6c0" rx="42.446" ry="24.483" transform="matrix(.9474 -.3201 .3201 .9474 -41.0104 371.9102)"/><path d="M1097.53 338.574c-13.76 0-24.733-5.007-27.755-13.949-4.497-13.312 10.31-30.381 33.005-38.048 10.905-3.685 22.003-4.695 31.246-2.846 9.441 1.888 15.858 6.534 18.07 13.082 2.213 6.549-.072 14.135-6.434 21.361-6.229 7.076-15.666 13.003-26.57 16.687-7.45 2.516-14.838 3.713-21.562 3.713zm-25.86-14.59c4.143 12.267 25.13 16.296 46.782 8.982 10.578-3.573 19.708-9.296 25.71-16.113 5.869-6.667 8.014-13.557 6.04-19.399s-7.857-10.02-16.567-11.762c-8.907-1.782-19.637-.793-30.214 2.779-21.652 7.315-35.895 23.245-31.751 35.513z" fill="#112c41"/><ellipse cx="1117.829" cy="272.637" fill="#ffd6c0" rx="43.218" ry="24.483" transform="matrix(.9089 -.4169 .4169 .9089 -11.8776 490.8927)"/><path d="M1101.104 302.274c-1.332 0-2.64-.054-3.919-.163-9.723-.832-16.664-4.752-19.548-11.037-2.883-6.286-1.325-14.104 4.386-22.016 5.591-7.744 14.534-14.699 25.181-19.583 10.648-4.885 21.758-7.124 31.27-6.312 9.722.832 16.664 4.752 19.548 11.037 5.857 12.771-7.406 31.433-29.567 41.599-9.217 4.228-18.775 6.475-27.351 6.475zm33.44-57.275c-8.285 0-17.549 2.185-26.506 6.294-10.338 4.742-19.001 11.467-24.393 18.936-5.271 7.302-6.76 14.408-4.189 20.011 2.569 5.603 8.927 9.11 17.899 9.878 9.184.787 19.926-1.394 30.265-6.137 21.159-9.706 33.981-27.177 28.583-38.946-2.569-5.603-8.927-9.11-17.9-9.878a43.668 43.668 0 0 0-3.759-.158z" fill="#112c41"/></svg></g><g transform="translate(1228.0 619.0) rotate(0.0 24.5 42.0) scale(1.2630819198845182 1.2577486299523852)"><svg width="38.794" height="66.786" viewBox="0 0 38.794 66.786"><path d="m1.059 32.673 9.952-30.887a1.133 1.133 0 0 1 1.587-.665l13.55 6.799c.686.344.839 1.255.303 1.805L2.949 33.812c-.836.857-2.257.001-1.89-1.139z" fill="#ffe993"/><path d="M2.149 35.163c-.378 0-.761-.104-1.111-.315a2.102 2.102 0 0 1-.931-2.482L10.059 1.48A2.133 2.133 0 0 1 13.046.227l13.551 6.799a2.14 2.14 0 0 1 1.147 1.554 2.113 2.113 0 0 1-.577 1.843L3.665 34.511c-.419.43-.962.652-1.516.652zm-.138-2.183c-.014.042-.032.101.058.155.09.056.134.011.165-.021L25.736 9.026a.127.127 0 0 0 .036-.115.126.126 0 0 0-.071-.097L12.15 2.015a.121.121 0 0 0-.111-.004.124.124 0 0 0-.076.082z" fill="#112c41"/><path d="m7.932 40.522 27.534-16.07a.957.957 0 0 1 1.437.771l.89 15.606a.957.957 0 0 1-.939 1.011l-28.425.464c-.984.016-1.347-1.286-.497-1.782z" fill="#ffe993"/><path d="M8.412 43.304a1.93 1.93 0 0 1-1.882-1.43 1.933 1.933 0 0 1 .898-2.216l27.534-16.07a1.94 1.94 0 0 1 1.91-.034c.604.324.989.927 1.028 1.612l.89 15.607a1.957 1.957 0 0 1-1.92 2.068l-28.424.463h-.034zm27.493-18.023L8.436 41.386l-.007.004 28.408-.55zM7.932 40.522h.01z" fill="#112c41"/><path d="m9.05 55.094 12.255 10.385c.629.533 1.59.35 1.979-.377l4.843-9.049a1.295 1.295 0 0 0-1.041-1.902L9.989 52.814c-1.253-.098-1.897 1.467-.939 2.28z" fill="#ffe993"/><path d="M22.139 66.786a2.285 2.285 0 0 1-1.48-.544L8.404 55.856a2.262 2.262 0 0 1-.639-2.624 2.266 2.266 0 0 1 2.302-1.416l17.098 1.337c.774.061 1.461.504 1.834 1.186s.377 1.499.011 2.185l-4.843 9.049a2.284 2.284 0 0 1-2.028 1.213zM9.88 53.81c-.156 0-.23.098-.266.184-.037.09-.054.223.082.337l12.255 10.385c.096.08.197.076.246.064a.29.29 0 0 0 .205-.151l4.843-9.048a.29.29 0 0 0-.001-.281.288.288 0 0 0-.236-.152L9.911 53.811l-.031-.001z" fill="#112c41"/></svg></g></svg>