<svg xmlns="http://www.w3.org/2000/svg" viewBox="0 0 3000 3000" width="3000" height="3000"><g transform="translate(508.33333333333337 1918.3333333333335) rotate(0.0 255.0 33.33333333333326) scale(1.2434353925598678 1.2322631128198465)"><svg width="410.154" height="54.101" viewBox="0 0 410.154 54.101"><ellipse cx="205.077" cy="27.05" fill="#cbc8ff" rx="205.077" ry="27.05"/></svg></g><g transform="translate(1390.0 321.6666666666667) rotate(0.0 564.1666666666667 751.6666666666666) scale(1.666666666666667 1.6666666666666665)"><svg width="677" height="902" viewBox="0 0 677 902"><rect fill="#cbc8ff" height="871" rx="19.761" width="643" y="31"/><rect fill="#fff" height="871" rx="19.761" width="643" x="33" y="1"/><path d="M656.239 873H52.761C41.313 873 32 863.687 32 852.239V20.761C32 9.313 41.313 0 52.761 0h603.478C667.687 0 677 9.313 677 20.762v831.477c0 11.447-9.313 20.761-20.761 20.761zM52.761 2C42.416 2 34 10.416 34 20.762v831.477C34 862.584 42.416 871 52.761 871h603.478c10.345 0 18.761-8.416 18.761-18.761V20.761c0-10.346-8.416-18.762-18.761-18.762H52.761z" fill="#112c41"/><path d="m312.02 83.995 93.598 93.598-16.187 16.186-93.598-93.598z" fill="#badcee"/><path d="M389.432 194.78a.997.997 0 0 1-.707-.293l-93.599-93.599a.999.999 0 0 1 0-1.414l16.186-16.187a1.03 1.03 0 0 1 1.414 0l93.598 93.599a.999.999 0 0 1 0 1.414l-16.186 16.187a1 1 0 0 1-.707.293zm-92.184-94.599 92.184 92.185 14.772-14.772-92.184-92.185z" fill="#112c41"/><path d="M311.602 99.763c-9.525 9.525-24.958 9.525-34.484 0-6.927-6.927-8.812-16.966-5.671-25.594l12.95 12.95 14.56-14.56-12.95-12.95c8.629-3.142 18.667-1.257 25.594 5.671 9.525 9.525 9.525 24.958 0 34.484z" fill="#badcee"/><path d="M294.36 107.908c-6.779 0-13.153-2.642-17.949-7.438-6.949-6.949-9.266-17.407-5.903-26.644a1 1 0 0 1 1.646-.365l12.243 12.244 13.146-13.146L285.3 60.316a.999.999 0 0 1 .365-1.647c9.236-3.362 19.695-1.046 26.644 5.903 9.897 9.896 9.897 26.001 0 35.897-4.796 4.796-11.17 7.438-17.949 7.438zm-22.467-31.88c-2.337 8.118-.092 17.004 5.932 23.028 4.418 4.418 10.29 6.852 16.535 6.852s12.117-2.435 16.535-6.852c9.117-9.117 9.117-23.952 0-33.069-6.024-6.023-14.91-8.268-23.028-5.933l11.798 11.798a.999.999 0 0 1 0 1.414l-14.56 14.561a1.03 1.03 0 0 1-1.414 0z" fill="#112c41"/><path d="M387.105 175.266c-9.525 9.525-9.525 24.958 0 34.484 6.927 6.927 16.966 8.812 25.594 5.671l-12.95-12.95 14.56-14.56 12.95 12.95c3.142-8.629 1.257-18.667-5.671-25.594-9.525-9.525-24.958-9.525-34.484 0z" fill="#badcee"/><path d="M404.395 217.881c-6.636 0-13.165-2.592-17.997-7.425-9.897-9.896-9.897-26.001 0-35.897 4.796-4.796 11.17-7.438 17.949-7.438s13.153 2.642 17.949 7.438c6.949 6.949 9.266 17.407 5.903 26.644-.117.321-.39.561-.723.635a1.004 1.004 0 0 1-.923-.27l-12.243-12.243-13.146 13.146 12.243 12.243a.999.999 0 0 1-.365 1.647 25.262 25.262 0 0 1-8.646 1.521zm-16.583-41.908c-9.117 9.117-9.117 23.952 0 33.069 6.024 6.023 14.91 8.268 23.028 5.933l-11.798-11.798a.997.997 0 0 1 0-1.414l14.56-14.56a.999.999 0 0 1 1.414 0l11.798 11.798c2.337-8.118.092-17.004-5.932-23.028-4.418-4.418-10.29-6.852-16.535-6.852s-12.117 2.435-16.535 6.852z" fill="#112c41"/><rect fill="#ffe993" height="32.375" rx="2.293" transform="matrix(.70710678 -.70710678 .70710678 .70710678 4.032 289.023)" width="189.452" x="256.172" y="123.457"/><g fill="#112c41"><path d="M295.362 218.122c-.88 0-1.707-.343-2.329-.965l-19.648-19.648c-.622-.622-.965-1.449-.965-2.328s.343-1.707.965-2.329L404.104 62.131a3.3 3.3 0 0 1 4.658 0l19.649 19.649c.622.622.965 1.449.965 2.328s-.343 1.707-.965 2.329L297.692 217.156a3.272 3.272 0 0 1-2.329.965zM406.433 63.168a1.29 1.29 0 0 0-.915.378l-130.719 130.72c-.244.244-.379.569-.379.915s.135.67.379.914l19.649 19.648c.489.49 1.341.49 1.829 0L426.996 85.024l.707.707-.707-.707a1.295 1.295 0 0 0 0-1.829l-19.649-19.649a1.29 1.29 0 0 0-.915-.378z"/><path d="M290.297 190.296a.997.997 0 0 1-.707-.293l-5.972-5.972a.999.999 0 1 1 1.414-1.414l5.972 5.972a.999.999 0 0 1-.707 1.707zm18.569-18.569a.997.997 0 0 1-.707-.293l-5.972-5.972a.999.999 0 1 1 1.414-1.414l5.972 5.972a.999.999 0 0 1-.707 1.707zm18.57-18.569a.997.997 0 0 1-.707-.293l-5.972-5.972a.999.999 0 1 1 1.414-1.414l5.972 5.972a.999.999 0 0 1-.707 1.707zm18.569-18.571a.997.997 0 0 1-.707-.293l-5.972-5.972a.999.999 0 1 1 1.414-1.414l5.972 5.972a.999.999 0 0 1-.707 1.707zm18.57-18.569a.997.997 0 0 1-.707-.293l-5.972-5.972a.999.999 0 1 1 1.414-1.414l5.972 5.972a.999.999 0 0 1-.707 1.707zm18.57-18.569a.997.997 0 0 1-.707-.293l-5.972-5.972a.999.999 0 1 1 1.414-1.414l5.972 5.972a.999.999 0 0 1-.707 1.707zm18.569-18.57a.997.997 0 0 1-.707-.293l-5.972-5.973a.999.999 0 1 1 1.414-1.414l5.972 5.973a.999.999 0 0 1-.707 1.707zM164 373.174c-22.607 0-41-18.393-41-41s18.393-41 41-41 41 18.393 41 41-18.393 41-41 41zm0-80c-21.505 0-39 17.495-39 39s17.495 39 39 39 39-17.495 39-39-17.495-39-39-39z"/></g><path d="M164 352.239a3.5 3.5 0 0 1-3.5-3.5v-33.391a3.5 3.5 0 1 1 7 0v33.391a3.5 3.5 0 0 1-3.5 3.5zm415.261-62.565H294.913a2.5 2.5 0 1 1 0-5h284.348a2.5 2.5 0 1 1 0 5zm0 45H294.913a2.5 2.5 0 1 1 0-5h284.348a2.5 2.5 0 1 1 0 5zm0 45H294.913a2.5 2.5 0 1 1 0-5h284.348a2.5 2.5 0 1 1 0 5z" fill="#9797f7"/><path d="M164 569.174c-22.607 0-41-18.393-41-41s18.393-41 41-41 41 18.393 41 41-18.393 41-41 41zm0-80c-21.505 0-39 17.495-39 39s17.495 39 39 39 39-17.495 39-39-17.495-39-39-39z" fill="#112c41"/><path d="M173.5 548.239a3.5 3.5 0 0 1-3.5-3.5v-33.391a3.5 3.5 0 1 1 7 0v33.391a3.5 3.5 0 0 1-3.5 3.5zm-19 0a3.5 3.5 0 0 1-3.5-3.5v-33.391a3.5 3.5 0 1 1 7 0v33.391a3.5 3.5 0 0 1-3.5 3.5zm424.761-62.565H294.913a2.5 2.5 0 1 1 0-5h284.348a2.5 2.5 0 1 1 0 5zm0 45H294.913a2.5 2.5 0 1 1 0-5h284.348a2.5 2.5 0 1 1 0 5zm0 45H294.913a2.5 2.5 0 1 1 0-5h284.348a2.5 2.5 0 1 1 0 5z" fill="#9797f7"/><path d="M164 765.174c-22.607 0-41-18.393-41-41s18.393-41 41-41 41 18.393 41 41-18.393 41-41 41zm0-80c-21.505 0-39 17.495-39 39s17.495 39 39 39 39-17.495 39-39-17.495-39-39-39z" fill="#112c41"/><path d="M148 744.239a3.5 3.5 0 0 1-3.5-3.5v-33.391a3.5 3.5 0 1 1 7 0v33.391a3.5 3.5 0 0 1-3.5 3.5zm16 0a3.5 3.5 0 0 1-3.5-3.5v-33.391a3.5 3.5 0 1 1 7 0v33.391a3.5 3.5 0 0 1-3.5 3.5zm16 0a3.5 3.5 0 0 1-3.5-3.5v-33.391a3.5 3.5 0 1 1 7 0v33.391a3.5 3.5 0 0 1-3.5 3.5zm399.261-62.565H294.913a2.5 2.5 0 1 1 0-5h284.348a2.5 2.5 0 1 1 0 5zm0 45H294.913a2.5 2.5 0 1 1 0-5h284.348a2.5 2.5 0 1 1 0 5zm0 45H294.913a2.5 2.5 0 1 1 0-5h284.348a2.5 2.5 0 1 1 0 5z" fill="#9797f7"/></svg></g><g transform="translate(728.3333333333334 1476.6666666666667) rotate(0.0 499.1666666666667 604.1666666666666) scale(1.6714130332267982 1.6693030141856218)"><svg width="597.299" height="723.855" viewBox="0 0 597.299 723.855"><path d="M183.335 379.029a832.55 832.55 0 0 0 34.807-17.833l.197-.094c.074-.043.149-.076.205-.106 11.735-6.362 23.134-12.526 33.042-17.992 0 0 41.141 83.388 69.178 125.773-11.177 5.822-20.455 10.58-32.53 16.249-20.756 9.751-38.509 18.022-38.509 18.022z" fill="#ffd6c0"/><path d="m266.138 352.88-75.504 40.123c-4.127-2.252-12.176-6.532-14.66-8.489 30.051-16.184 80.415-43.341 80.415-43.341z" fill="#f5b9ab"/><path d="M249.727 504.048a1 1 0 0 1-.883-.528L182.453 379.5a1.003 1.003 0 0 1 .448-1.372c11.8-5.699 22.847-11.359 34.766-17.812l.248-.119a1 1 0 0 1 .127-.066l4.646-2.516c10.191-5.524 19.817-10.742 28.417-15.486a.997.997 0 0 1 1.38.434c.411.833 41.434 83.817 69.115 125.663a1 1 0 0 1-.372 1.439c-10.402 5.419-20.032 10.383-32.567 16.268-20.521 9.64-38.334 17.94-38.512 18.023a1.024 1.024 0 0 1-.422.092zm-65.019-124.573 65.453 122.268c3.797-1.771 19.685-9.184 37.648-17.622 12.104-5.684 21.5-10.509 31.51-15.719-26.13-39.787-63.569-114.765-68.164-124.018-8.372 4.612-17.681 9.657-27.517 14.988l-4.617 2.503-.104.053c-.026.016-.125.065-.152.079l-.192.091a826.757 826.757 0 0 1-33.865 17.377z" fill="#112c41"/><path d="M206.807 596.151c-35.968-36.38-62.924-94.889-77.593-147.897-4.272-15.454-7.511-30.434-9.613-44.267 0 0 40.082-14.88 63.735-24.958l5.335 10.032s60.818 113.723 61.056 113.987c-.305 11.176-4.349 63.266-42.92 93.103z" fill="#b2b0f7"/><path d="M206.807 597.151a1 1 0 0 1-.711-.297c-31.997-32.365-61.099-87.816-77.846-148.334-4.263-15.419-7.506-30.352-9.638-44.384a1 1 0 0 1 .641-1.088c.4-.148 40.33-14.987 63.69-24.94a1 1 0 0 1 1.274.45l5.335 10.032c.599 1.119 59.829 111.87 61.016 113.919.107.167.162.364.157.565-.28 10.297-3.684 63.215-43.307 93.867a.99.99 0 0 1-.611.21zM120.712 404.64c2.122 13.72 5.306 28.299 9.466 43.348 16.551 59.81 45.193 114.606 76.716 146.827 38.589-30.469 41.596-84.288 41.825-91.548-1.282-2.312-9.207-17.018-60.931-113.734l-4.905-9.225c-21.685 9.192-56.579 22.247-62.171 24.332z" fill="#360815"/><path d="M119.601 403.987s40.082-14.88 63.735-24.958l4.303 13.472c-19.375 11.384-49.917 28.71-61.225 45.831-.119.18-4.711-20.512-6.813-34.345z" fill="#9797f7"/><path d="M137.933 478.638a2.502 2.502 0 0 1-1.105-4.744c29.22-14.381 53.425-56.563 42.08-91.491a2.5 2.5 0 1 1 4.755-1.545c5.689 17.518 3.555 37.814-6.012 57.151-8.88 17.948-22.955 32.663-38.617 40.371a2.481 2.481 0 0 1-1.101.258z" fill="#fff"/><path d="M206.807 597.151a1 1 0 0 1-.711-.297c-31.997-32.365-61.099-87.816-77.846-148.334-4.263-15.419-7.506-30.352-9.638-44.384a1 1 0 0 1 .641-1.088c.4-.148 40.33-14.987 63.69-24.94a1 1 0 0 1 1.274.45l5.335 10.032c.599 1.119 59.829 111.87 61.016 113.919.107.167.162.364.157.565-.28 10.297-3.684 63.215-43.307 93.867a.99.99 0 0 1-.611.21zM120.712 404.64c2.122 13.72 5.306 28.299 9.466 43.348 16.551 59.81 45.193 114.606 76.716 146.827 38.589-30.469 41.596-84.288 41.825-91.548-1.282-2.312-9.207-17.018-60.931-113.734l-4.905-9.225c-21.685 9.192-56.579 22.247-62.171 24.332z" fill="#112c41"/><path d="M187.584 609.058c-1.432.706-2.954.84-4.555.062-29.161-14.172-83.316-124.699-89.28-187.729-.511-5.399 1.732-7.651 4.651-9.242l21.202-8.162c9.335 61.301 40.758 145.179 87.206 192.164-6.227 5.045-12.753 9.719-19.224 12.907z" fill="#fff"/><path d="M185.219 610.648c-.886 0-1.764-.21-2.628-.63-13.885-6.748-34.501-35.873-53.803-76.009-19.791-41.153-33.262-83.219-36.035-112.525-.587-6.198 2.282-8.642 5.167-10.214.038-.021.078-.039.119-.056l21.202-8.162a.998.998 0 0 1 1.347.783c8.989 59.027 40.025 144.167 86.929 191.612a1.001 1.001 0 0 1-.081 1.481c-7.339 5.946-13.688 10.207-19.411 13.026-.939.463-1.877.694-2.806.694zm2.365-1.59h.01zm-88.764-196c-2.773 1.525-4.522 3.522-4.077 8.239 6.158 65.065 61.099 173.498 88.723 186.923 1.202.585 2.404.566 3.677-.06 5.364-2.642 11.318-6.604 18.178-12.095-46.459-47.581-77.293-131.743-86.519-190.7z" fill="#112c41"/><path d="M183.34 379.027c11.027 41.481 40.472 94.348 66.386 124.02 0 0 14.57-6.874 32.758-15.32.631-.291 1.267-.592 1.902-.892.636-.3 1.271-.601 1.916-.897l1.933-.911c-23.561-27.83-50.822-78.657-69.432-124.155 0 0-.088.047-.256.124-.057.029-.137.058-.203.104-.071.033-.137.058-.199.095a831.31 831.31 0 0 1-34.805 17.832z" fill="#fff"/><path d="M249.726 504.048a.997.997 0 0 1-.753-.342c-27.476-31.462-56.107-84.951-66.6-124.422a1 1 0 0 1 .532-1.157c11.784-5.693 22.831-11.352 34.765-17.81.03-.021.113-.061.202-.1.071-.042.145-.078.213-.108.169-.077.237-.112.25-.119a1.003 1.003 0 0 1 1.394.505c20.224 49.443 47.414 98.072 69.271 123.888.2.238.279.556.213.859a.994.994 0 0 1-.552.692l-1.932.909c-.588.271-1.159.54-1.729.809l-.187.088c-.638.302-1.275.603-1.909.896-17.977 8.347-32.605 15.248-32.751 15.316a.995.995 0 0 1-.427.096zm-65.205-124.481c10.53 38.896 38.499 91.134 65.463 122.253a6843.09 6843.09 0 0 1 32.079-14.999c.629-.291 1.263-.59 1.896-.89l.188-.088c.576-.272 1.154-.545 1.739-.813l.749-.353c-21.685-26.024-48.351-73.775-68.346-122.422-11.598 6.27-22.351 11.784-33.768 17.312z" fill="#112c41"/><circle cx="218.803" cy="504.133" fill="#ffe993" r="8.5"/><path d="M217.019 506.484c6.84 13.691 21.421 24.805 27.52 27a2.832 2.832 0 1 0 1.918-5.33c-4.682-1.685-18.737-12.213-24.756-24.997a2.832 2.832 0 1 0-5.126 2.41c.144.306.292.613.444.917z" fill="#fff"/><path d="M245.501 534.653c-.438 0-.877-.076-1.301-.229-6.275-2.258-21.023-13.376-28.075-27.493a36.826 36.826 0 0 1-.455-.94c-.436-.924-.484-1.965-.137-2.928s1.048-1.733 1.974-2.169a3.842 3.842 0 0 1 5.099 1.837c5.901 12.534 19.631 22.842 24.19 24.481a3.84 3.84 0 0 1 2.309 4.904 3.819 3.819 0 0 1-1.975 2.17 3.818 3.818 0 0 1-1.629.367zm-26.367-32.123c-.261 0-.524.056-.775.174a1.819 1.819 0 0 0-.944 1.036c-.166.461-.143.958.066 1.4.14.3.284.599.433.895l.001.001c6.719 13.45 21.125 24.405 26.964 26.506a1.826 1.826 0 0 0 2.344-1.103 1.836 1.836 0 0 0-1.104-2.345c-4.792-1.724-19.188-12.482-25.321-25.511a1.844 1.844 0 0 0-1.664-1.053z" fill="#112c41"/><circle cx="207.487" cy="528.514" fill="#ffe993" r="8.5"/><path d="M205.773 530.917c7.242 13.482 24.381 24.242 30.542 26.255a2.832 2.832 0 1 0 1.759-5.385c-4.73-1.545-21.325-11.735-27.72-24.334a2.832 2.832 0 0 0-5.052 2.56c.152.302.31.604.471.904z" fill="#fff"/><path d="M237.19 558.311c-.394 0-.793-.061-1.187-.189-5.784-1.89-23.53-12.617-31.112-26.731a45.348 45.348 0 0 1-.483-.926c-.462-.913-.541-1.951-.223-2.924s.996-1.763 1.909-2.226a3.84 3.84 0 0 1 5.15 1.685c6.369 12.549 22.794 22.417 27.14 23.837a3.837 3.837 0 0 1 2.452 4.833 3.838 3.838 0 0 1-3.646 2.641zm-29.367-31.41a1.823 1.823 0 0 0-1.737 1.261c-.152.464-.114.961.106 1.397.15.296.304.591.461.883 7.315 13.619 24.405 23.959 29.972 25.778a1.837 1.837 0 0 0 2.312-1.173 1.838 1.838 0 0 0-1.173-2.312c-4.536-1.481-21.67-11.767-28.302-24.832a1.84 1.84 0 0 0-1.639-1.002z" fill="#112c41"/><path d="M415.412 570.722a832.78 832.78 0 0 0 8.905-38.082l.056-.211c.015-.084.039-.163.052-.225 2.735-13.065 5.405-25.746 7.643-36.838 0 0 91.116 21.702 141.576 27.724-2.787 12.29-6.063 23.285-9.547 36.161a14902.624 14902.624 0 0 1-11.155 41.028z" fill="#ffd6c0"/><path d="m449.011 490.652-18.219 83.539c-4.387 1.692-12.856 5.063-15.955 5.693 7.088-33.388 18.941-89.366 18.941-89.366z" fill="#f5b9ab"/><path d="m553.657 601.455-.925-.199-138.55-29.775.262-1.009c3.278-12.674 6.104-24.76 8.895-38.038l.067-.26c-.004 0 .015-.076.032-.145l1.086-5.177c2.376-11.344 4.621-22.059 6.562-31.685l.205-1.016 1.007.24c.911.217 91.64 21.758 141.464 27.703l1.103.132-.245 1.082c-2.039 8.991-4.344 17.308-6.784 26.113-.905 3.267-1.832 6.609-2.773 10.088-5.916 21.888-11.104 40.843-11.155 41.031zm-137.016-31.492 135.587 29.139c1.105-4.041 5.726-20.953 10.904-40.112.943-3.483 1.87-6.83 2.776-10.101 2.336-8.427 4.547-16.405 6.514-24.94-47.283-5.788-129.539-25.006-139.579-27.372-1.896 9.37-4.066 19.734-6.361 30.687l-1.197 5.632a831.045 831.045 0 0 1-8.644 37.067z" fill="#112c41"/><path d="M596.207 693.221c-51.009 3.91-113.07-13.363-162.989-36.452-14.551-6.735-28.072-13.951-39.983-21.293 0 0 14.569-40.196 22.177-64.755l11.102 2.418s126.074 27.148 126.429 27.138c8.329 7.46 45.447 44.228 43.264 92.944z" fill="#b2b0f7"/><path d="M581.804 694.753c-43.427 0-97.876-13.427-149.006-37.076-14.518-6.719-28.005-13.901-40.087-21.349a1.002 1.002 0 0 1-.416-1.192c.146-.401 14.647-40.455 22.162-64.71a1.007 1.007 0 0 1 1.168-.682l11.102 2.418c1.24.268 124.008 26.703 126.35 27.125.197.027.384.112.533.246 7.674 6.872 45.839 43.688 43.597 93.733a1 1 0 0 1-.923.952c-4.668.358-9.502.535-14.48.535zm14.403-1.531h.01zm-201.755-58.171c11.838 7.254 25.017 14.254 39.186 20.812 56.323 26.05 116.638 39.635 161.605 36.428 1.713-49.137-37.396-86.233-42.785-91.103-2.592-.517-18.934-3.981-126.155-27.07l-10.208-2.224c-7.011 22.485-19.617 57.543-21.643 63.157z" fill="#360815"/><path d="M393.235 635.477s14.569-40.196 22.177-64.755l13.058 5.43c-3.845 22.141-10.38 56.642-4.632 76.338.061.207-18.692-9.672-30.603-17.013z" fill="#9797f7"/><path d="M460.125 670.652a2.5 2.5 0 0 1-2.426-3.109c7.915-31.545-8.578-77.263-42.5-91.23a2.499 2.499 0 0 1-1.359-3.264 2.499 2.499 0 0 1 3.264-1.359c17.016 7.007 31.094 21.763 39.641 41.549 7.934 18.369 10.05 38.605 5.805 55.521a2.506 2.506 0 0 1-2.425 1.892z" fill="#fff"/><path d="M581.804 694.753c-43.427 0-97.876-13.427-149.006-37.076-14.518-6.719-28.005-13.901-40.087-21.349a1.002 1.002 0 0 1-.416-1.192c.146-.401 14.647-40.455 22.162-64.71a1.007 1.007 0 0 1 1.168-.682l11.102 2.418c1.24.268 124.008 26.703 126.35 27.125.197.027.384.112.533.246 7.674 6.872 45.839 43.688 43.597 93.733a1 1 0 0 1-.923.952c-4.668.358-9.502.535-14.48.535zm14.403-1.531h.01zm-201.755-58.171c11.838 7.254 25.017 14.254 39.186 20.812 56.323 26.05 116.638 39.635 161.605 36.428 1.713-49.137-37.396-86.233-42.785-91.103-2.592-.517-18.934-3.981-126.155-27.07l-10.208-2.224c-7.011 22.485-19.617 57.543-21.643 63.157z" fill="#112c41"/><path d="M593.621 716.23c-.388 1.549-1.269 2.796-2.899 3.515-29.667 13.079-148.995-17.086-200.93-53.294-4.449-3.102-4.716-6.269-4.042-9.524l7.485-21.451c52.796 32.52 137.097 62.791 202.972 57.745-.177 8.012-.832 16.012-2.586 23.009z" fill="#fff"/><path d="M569.745 723.822c-17.874 0-42.991-3.873-71.39-11.273-44.188-11.516-84.986-28.442-109.135-45.277-5.108-3.562-5.116-7.33-4.449-10.547.009-.043.021-.085.035-.126l7.484-21.451a1 1 0 0 1 1.468-.522c50.837 31.314 135.852 62.689 202.371 57.6a.999.999 0 0 1 1.076 1.019c-.21 9.441-1.065 17.04-2.616 23.229-.496 1.982-1.662 3.391-3.465 4.187-4.815 2.123-12.128 3.161-21.379 3.161zm-183.028-66.628c-.63 3.102-.239 5.727 3.648 8.437 44.878 31.289 135.053 56.154 179.723 56.157 8.693.001 15.653-.939 20.231-2.958 1.226-.541 1.988-1.471 2.332-2.843 1.453-5.803 2.282-12.906 2.528-21.688-66.327 4.676-150.472-26.234-201.409-57.322z" fill="#112c41"/><path d="M415.414 570.718c38.772 18.413 98.138 30.139 137.529 29.56 0 0 4.178-15.558 9.497-34.894.186-.67.368-1.349.55-2.028s.364-1.358.555-2.041c.182-.679.193-.784.38-1.477-36.099-1.683-92.687-12.685-139.427-27.911 0 0-.021.098-.071.275-.015.062-.045.142-.052.222-.02.076-.045.142-.056.213a833.882 833.882 0 0 1-8.905 38.081z" fill="#fff"/><path d="M550.029 601.3c-41.569 0-99.004-12.562-135.044-29.679a.998.998 0 0 1-.539-1.153 831.674 831.674 0 0 0 8.896-38.035 1.74 1.74 0 0 1 .055-.22 2.13 2.13 0 0 1 .056-.232c.048-.173.064-.247.068-.262a1 1 0 0 1 1.287-.742c45.086 14.688 102.312 26.146 139.164 27.863a1.003 1.003 0 0 1 .919 1.259c-.094.347-.142.542-.19.739s-.099.397-.189.736c-.192.689-.374 1.365-.555 2.041-.183.682-.365 1.363-.552 2.036a6560.154 6560.154 0 0 0-9.496 34.887 1 1 0 0 1-.951.74c-.967.014-1.944.022-2.929.022zm-133.44-31.133c36.48 17.12 94.454 29.59 135.584 29.121.89-3.304 4.688-17.393 9.304-34.169.185-.668.367-1.346.548-2.021.183-.682.366-1.363.558-2.051l.07-.27c-36.76-1.903-92.855-13.149-137.433-27.563a828.81 828.81 0 0 1-8.631 36.953z" fill="#112c41"/><circle cx="533.775" cy="624.567" fill="#ffe993" r="8.5"/><path d="M534.414 627.448c14.866 3.636 32.773-.299 38.391-3.532a2.833 2.833 0 0 0-2.826-4.91c-4.313 2.482-21.432 6.395-35.076 2.719a2.833 2.833 0 0 0-1.477 5.469c.328.088.658.173.988.254z" fill="#fff"/><path d="M547.556 629.92c-4.448 0-9.022-.435-13.379-1.5l-.001-.001c-.338-.083-.676-.17-1.011-.261-.987-.266-1.812-.901-2.322-1.789s-.644-1.921-.377-2.909a3.84 3.84 0 0 1 4.698-2.7c13.375 3.603 30.117-.204 34.316-2.62a3.836 3.836 0 0 1 5.232 1.409 3.836 3.836 0 0 1-1.409 5.234c-4.137 2.38-14.544 5.137-25.747 5.137zm-12.905-3.443c14.605 3.57 32.276-.333 37.654-3.428a1.833 1.833 0 0 0-1.827-3.176c-4.414 2.54-21.927 6.564-35.834 2.818a1.833 1.833 0 0 0-2.067 2.682 1.81 1.81 0 0 0 1.11.854c.321.088.643.17.964.25z" fill="#112c41"/><circle cx="545.055" cy="648.965" fill="#ffe993" r="8.5"/><path d="M545.779 651.826c14.967 3.194 34.257-2.921 39.777-6.319a2.833 2.833 0 0 0-2.97-4.824c-4.237 2.609-22.741 8.678-36.487 5.409a2.832 2.832 0 1 0-1.314 5.51c.329.078.661.153.994.224z" fill="#fff"/><path d="M554.967 653.726c-3.192 0-6.368-.275-9.396-.921a39.604 39.604 0 0 1-1.021-.23 3.838 3.838 0 0 1-2.837-4.616 3.842 3.842 0 0 1 4.615-2.839c13.683 3.255 31.838-2.89 35.732-5.287a3.838 3.838 0 0 1 5.272 1.254 3.836 3.836 0 0 1-1.255 5.272c-4.178 2.573-17.781 7.366-31.11 7.367zm-9.524-6.711c-.829 0-1.584.567-1.784 1.407a1.835 1.835 0 0 0 1.357 2.207c.322.077.646.15.969.219l.002.001c15.123 3.225 34.057-3.123 39.044-6.193a1.835 1.835 0 0 0 .6-2.521 1.837 1.837 0 0 0-2.521-.599c-4.063 2.501-22.986 8.92-37.243 5.529a1.812 1.812 0 0 0-.424-.05z" fill="#112c41"/><path d="M275.729 307.184c53.106-8.17 127.298 22.338 143.811 107.798 3.389 17.538 4.043 39.561.829 69.614-.459 4.295 1.668 8.422 5.775 9.772.887.3 1.853.607 2.879.919.43.129.87.269 1.32.399.264.084.517.167.782.231.909.282 1.878.559 2.876.849 29.11 8.27 92.942 21.778 139.987 27.753 9.212-37.13 16.308-91.649 6.592-146.357-12.503-70.398-63.319-169.277-212.19-210.638" fill="#ffa9dc"/><path d="M432.931 496.46c-.62-.18-1.23-.36-1.81-.54-.26-.07-.51-.15-.78-.23-.45-.13-.89-.27-1.32-.4-1.02-.31-1.99-.62-2.88-.92-4.1-1.35-6.23-5.48-5.77-9.77 3.21-30.06 2.56-52.08-.83-69.62-16.51-85.46-90.71-115.97-143.81-107.8l20.08-5.47c53.5-5 125.75 29.87 137.14 116.16 2.34 17.71 1.68 39.74-3.32 69.54-.589 3.52.6 7.04 3.3 9.05z" fill="#ff90d8"/><path d="M573.371 525.44c-.042 0-.084-.003-.127-.008-45.438-5.771-108.823-18.985-139.516-27.705l-.406-.117c-.863-.25-1.701-.492-2.493-.738a9.897 9.897 0 0 1-.707-.206c-.335-.099-.609-.184-.881-.267l-.505-.154a97.124 97.124 0 0 1-2.912-.93c-4.392-1.444-6.987-5.796-6.449-10.826 3.015-28.195 2.748-50.869-.816-69.318-9.414-48.725-36.594-74.941-57.736-88.355-25.566-16.22-56.526-23.016-84.94-18.644-.548.089-1.057-.29-1.141-.836s.29-1.057.836-1.141c28.889-4.443 60.347 2.457 86.316 18.932 21.475 13.624 49.079 40.239 58.628 89.665 3.604 18.646 3.879 41.515.842 69.91-.435 4.068 1.612 7.571 5.094 8.716.885.3 1.841.604 2.856.912l.517.157c.26.08.522.161.79.238l.108.034c.212.067.416.134.63.185.844.26 1.67.499 2.52.744l.402.116c30.42 8.643 93.05 21.713 138.333 27.531 7.195-29.308 17.403-86.325 6.982-144.999-5.257-29.599-19.02-73.704-54.734-115.734-37.322-43.924-90.058-75.589-156.738-94.114a1 1 0 0 1 .535-1.927c67.073 18.636 120.141 50.513 157.728 94.747 36.004 42.371 49.879 86.838 55.179 116.68 10.59 59.621.02 117.499-7.224 146.694-.113.45-.518.758-.971.758z" fill="#112c41"/><path d="M392.261 292.12c-14.723-14.248-27.417-30.074-40.437-45.552-35.99 37.641-78.67 62.282-101.838 79.181-3.502 2.548-4.946 7.039-3.084 10.943.068.156.152.324.24.52 1.095 2.292 2.401 5.043 3.894 8.171.322.674.658 1.361.991 2.069 13.705 28.683 41.329 84.905 68.41 121.562 57.572-29.797 119.4-65.6 170.257-112.816-2.067-1.771-4.195-3.48-6.433-5.078-32-20-66-33-92-59z" fill="#ffa9dc"/><path d="M520.301 325.87c-54.3 63.38-130.56 107.27-199.86 143.14-27.08-36.65-54.71-92.87-68.41-121.56-.34-.71-.67-1.39-.99-2.07-1.5-3.12-2.8-5.88-3.9-8.17-.09-.19-.17-.36-.24-.52-1.86-3.9-.42-8.39 3.09-10.94 7.43-5.43 16.88-11.65 27.47-18.84-8.08 1.28-16.19 2.3-24.29 3.05C126.001 321.83.521 269.03 1.001 158.08c.52-116.43 154.22-209.82 370.73-123.18 227.35 90.99 196.08 235.52 148.57 290.97z" fill="#ffa9dc"/><path d="M277.461 306.91c-8.08 1.28-16.19 2.3-24.29 3.05-120.25 11.22-238.98-35.37-251.14-134.28 19.145 98.057 155.22 135.16 285.25 115.05 8.88-1.36 17.75-3.01 26.57-4.92z" fill="#ff90d8"/><path d="M377.857 216.801c-4.596 54.638-81.496 93.229-121.056 115.669-6.13 3.47-6.7 8.39-5.93 12.18.05.25.11.5.17.73-1.5-3.12-2.8-5.88-3.9-8.17-.09-.19-.17-.36-.24-.52-1.86-3.9-.42-8.39 3.09-10.94 7.16-5.23 16.2-11.2 26.33-18.06.37-.25.75-.51 1.14-.78 26.84-18.02 83.56-51 82.01-101.34-1.49-48.52-68.42-88.34-150.12-99.07 107.995 7.407 173.342 52.807 168.506 110.301z" fill="#ff90d8"/><g fill="#112c41"><path d="M320.496 469.929c-.31 0-.611-.143-.806-.405-19.648-26.594-42.716-67.52-68.562-121.643l-.319-.665c-.229-.477-.453-.943-.673-1.409-.828-1.722-1.598-3.34-2.306-4.829-.57-1.198-1.101-2.313-1.591-3.335-.097-.205-.181-.382-.254-.548-2.012-4.218-.612-9.227 3.417-12.153 5.511-4.027 11.984-8.391 19.481-13.443 1.422-.958 2.871-1.936 4.346-2.932a379.773 379.773 0 0 1-19.968 2.39c-40.712 3.798-81.36.959-117.557-8.215-37.412-9.483-69.352-25.625-92.365-46.682-28.925-26.466-43.507-59.432-43.34-97.983.21-46.585 25.188-90.049 68.529-119.247C102.794 15.747 146.875 2.425 196.007.304c55.076-2.372 114.327 8.95 176.096 33.668 54.327 21.743 97.426 47.846 128.101 77.585 26.516 25.707 43.779 54.074 51.312 84.315 13.424 53.896-6.928 102.824-30.449 130.644-55.111 65.179-132.19 108.145-200.11 143.301a1.007 1.007 0 0 1-.461.112zM277.461 305.91a1 1 0 0 1 .562 1.827c-2.756 1.871-5.434 3.676-8.02 5.419-7.48 5.041-13.939 9.396-19.422 13.401-3.238 2.353-4.38 6.342-2.777 9.702.08.179.156.342.242.523.488 1.018 1.02 2.135 1.591 3.336a1196.56 1196.56 0 0 0 2.306 4.827c.221.469.443.932.67 1.403l.321.669c25.568 53.544 48.396 94.122 67.86 120.63 67.565-34.996 144.073-77.766 198.744-142.424l.764.646-.764-.646c23.202-27.441 43.277-75.706 30.035-128.869-7.44-29.873-24.52-57.92-50.763-83.363-30.486-29.557-73.367-55.519-127.45-77.163C309.857 11.217 250.888-.061 196.093 2.302 147.33 4.406 103.606 17.612 69.646 40.49 26.861 69.311 2.206 112.173 2.001 158.085c-.164 37.964 14.199 70.431 42.689 96.499 22.771 20.834 54.414 36.816 91.508 46.219 35.976 9.118 76.391 11.941 116.88 8.161a378.724 378.724 0 0 0 24.227-3.041.912.912 0 0 1 .156-.013z"/><path d="M276.322 308.69a1 1 0 0 1-.56-1.829c.367-.248.744-.506 1.13-.773a883.399 883.399 0 0 1 6.781-4.489c28.504-18.749 76.211-50.131 74.799-95.997-.705-22.961-16.1-44.709-44.521-62.896-27.211-17.413-64.405-29.919-104.729-35.215a.998.998 0 0 1-.861-1.121.998.998 0 0 1 1.121-.861c40.61 5.333 78.095 17.945 105.548 35.513 29.002 18.559 44.716 40.868 45.442 64.519 1.446 46.984-46.847 78.75-75.7 97.729-2.403 1.582-4.669 3.071-6.753 4.471-.382.264-.765.527-1.138.779-.172.115-.366.17-.559.17z"/></g></svg></g><g transform="translate(481.6666666666667 1123.3333333333335) rotate(0.0 542.5 271.66666666666663) scale(1.666088270431463 1.6644966939827932)"><svg width="651.226" height="326.425" viewBox="0 0 651.226 326.425"><path d="M531.252 150.38c-19 35-32 50-32 50l-73-15-200-19-79 23s-46.51-73.43-56.74-116.87c-2.86-12.13-2.88-21.93 1.74-27.13 14.6-16.42 104.06-44.34 209.67-44.38 1 0 2.01 0 3.01.01 9.17.03 18.45.28 27.81.78 15.61.82 30.59 2.22 44.89 4.07 100.7 13.01 167.48 47.96 178.75 55.23 12.87 8.29-6.13 54.29-25.13 89.29z" fill="#ffe993"/><path d="M499.252 201.38a.98.98 0 0 1-.201-.021l-72.947-14.989-199.756-18.977-78.816 22.946a.999.999 0 0 1-1.124-.425c-.466-.735-46.717-74.07-56.869-117.176-3.191-13.535-2.53-22.964 1.966-28.023C107.31 26.939 199.294.039 301.921 0c1.004 0 2.017 0 3.021.01 9.348.031 18.721.294 27.854.781a595.786 595.786 0 0 1 44.965 4.077c95.24 12.305 162.952 44.925 179.164 55.381 17.203 11.081-17.635 77.422-24.793 90.608-18.834 34.693-31.992 50.026-32.123 50.178a.999.999 0 0 1-.756.345zm-273-36c.031 0 .063.002.094.005l200 19a.951.951 0 0 1 .107.016l72.416 14.88c2.257-2.732 14.549-18.144 31.504-49.378 20.896-38.493 36.875-80.624 25.467-87.972-16.114-10.394-83.462-42.821-178.337-55.078a592.78 592.78 0 0 0-44.814-4.063 557.73 557.73 0 0 0-27.761-.779c-1.003-.01-2.01-.01-3.007-.01-109.877.042-195.65 29.117-208.923 44.044-4.038 4.545-4.547 13.372-1.514 26.236 9.572 40.646 51.642 108.621 56.212 115.929l78.275-22.789c.091-.026.185-.04.28-.04z" fill="#112c41"/><path d="m304.932 1.01-.5 4.85c-38.18 2.52-158.46 25.6-192.82 52.56-7.51 5.9-14.58 10.5-21.1 14.09-2.86-12.13-2.88-21.93 1.74-27.13 14.6-16.42 104.06-44.34 209.67-44.38 1 0 2.01 0 3.01.01z" fill="#ffd169"/><g fill="#112c41"><path d="M378.212 10.667c-.593 12.953-18.298 22.641-39.549 21.642-21.241-.988-37.989-12.294-37.396-25.237.099-2.128.652-4.155 1.609-6.072 10.013-.01 20.175.239 30.435.789a577.911 577.911 0 0 1 44.328 4.065 14.92 14.92 0 0 1 .573 4.814z"/><path d="M341.694 33.381c-1.02 0-2.045-.023-3.078-.072-21.762-1.013-38.965-12.803-38.348-26.282.104-2.226.68-4.402 1.714-6.473l.276-.554h.618c10.246.011 20.496.255 30.489.789a581.33 581.33 0 0 1 44.404 4.073l.653.085.18.634c.486 1.713.691 3.439.61 5.132-.21 4.583-2.451 8.945-6.48 12.618-7 6.379-18.441 10.049-31.037 10.049zM303.509 2a13.983 13.983 0 0 0-1.243 5.119c-.567 12.377 15.782 23.23 36.444 24.191 13.084.613 25.599-3.009 32.674-9.457 3.629-3.307 5.645-7.19 5.829-11.231v-.002a13.85 13.85 0 0 0-.371-3.861 579.942 579.942 0 0 0-43.583-3.971A560.074 560.074 0 0 0 303.509 2z"/><path d="M499.252 201.38a.98.98 0 0 1-.201-.021l-72.948-14.989-199.755-18.977-78.816 22.946a.994.994 0 0 1-1.124-.425c-3.126-4.935-76.307-121.123-54.903-145.199C107.31 26.939 199.295.039 301.921 0c10.371.012 20.76.257 30.874.791a595.691 595.691 0 0 1 44.965 4.077C473 17.173 540.712 49.793 556.924 60.249c17.203 11.081-17.635 77.422-24.793 90.608-18.834 34.693-31.992 50.026-32.123 50.178a.999.999 0 0 1-.756.345zm-273-36c.031 0 .063.002.094.005l200 19a.951.951 0 0 1 .107.016l72.416 14.88c2.258-2.734 14.55-18.146 31.504-49.378 20.896-38.493 36.875-80.623 25.467-87.972-16.114-10.394-83.462-42.821-178.337-55.078a592.78 592.78 0 0 0-44.814-4.063 571.526 571.526 0 0 0-30.767-.789c-109.878.042-195.651 29.117-208.924 44.044-19.635 22.086 48.784 132.706 54.698 142.165l78.275-22.789c.091-.026.185-.04.28-.04z"/><path d="M553.642 74.87c-.02.26-.05.53-.08.8a50.96 50.96 0 0 1-.78 5.07c-3.51 17.42-16.48 47.58-35.22 80.02-8.13 14.07-16.42 27.01-24.31 38.08-.64-.13-1.27-.28-1.91-.43-9.92-2.33-19.83-5.11-29.67-8.32 2.16-5.05 4.6-10.37 7.28-15.89 0 0 0-.01.01-.02 4.55-9.37 9.8-19.32 15.62-29.53.41-.72.84-1.45 1.27-2.2.59-1.03 1.19-2.05 1.78-3.07 18.39-31.39 37.43-56.63 50.36-67.82.01-.01.03-.02.04-.03 1.25-1.08 2.43-2.03 3.56-2.83 4.2-3.03 7.53-4.11 9.65-2.89 2.02 1.17 2.77 4.32 2.4 9.06z"/><path d="m493.689 199.949-.636-.129c-.611-.124-1.213-.266-1.822-.409l-.118-.027a367.047 367.047 0 0 1-29.751-8.343l-1.039-.34.43-1.005a369.238 369.238 0 0 1 7.199-15.726v-.192l.183-.184c4.621-9.507 9.861-19.41 15.578-29.439.224-.395.455-.791.688-1.193l.583-1.009c.355-.621.715-1.237 1.073-1.853l.709-1.221c17.803-30.389 37.159-56.449 50.531-68.04l.131-.106c1.365-1.178 2.525-2.098 3.586-2.85 4.661-3.361 8.273-4.354 10.727-2.939 2.336 1.353 3.31 4.718 2.898 10.003-.021.271-.052.553-.083.833a52.065 52.065 0 0 1-.793 5.157c-3.656 18.146-17.196 48.924-35.335 80.322-8.063 13.954-16.259 26.793-24.362 38.16l-.377.529zm-30.666-10.472a364.616 364.616 0 0 0 28.547 7.959l.118.027c.378.09.753.178 1.13.261 7.942-11.184 15.973-23.784 23.878-37.465 18.038-31.225 31.49-61.77 35.106-79.717.361-1.799.619-3.471.765-4.97.03-.272.059-.531.078-.78.343-4.391-.316-7.197-1.904-8.117-1.662-.955-4.704.05-8.564 2.835-1.04.736-2.179 1.643-3.491 2.776l-.072.058c-13.218 11.453-32.418 37.326-50.12 67.541l-.709 1.221c-.356.611-.713 1.225-1.066 1.841l-.588 1.019c-.23.397-.458.79-.68 1.18-5.725 10.043-10.97 19.959-15.589 29.472l-.077.158a372.071 372.071 0 0 0-6.76 14.702zM187.492 177.29c-9.85 3.17-19.78 5.91-29.7 8.2-.65.15-1.28.3-1.92.43-7.84-11.11-16.08-24.08-24.15-38.19-19.17-33.5-32.24-64.56-35.19-81.71-.27-1.56-.45-3-.55-4.32-.01-.21-.03-.42-.04-.63-.24-4.39.55-7.31 2.48-8.42 1.87-1.07 4.68-.34 8.2 1.94 1.27.81 2.63 1.84 4.08 3.05.3.25.6.51.91.78 13.29 11.59 33.07 38.22 51.89 71.14.42.74.85 1.48 1.25 2.2 1.9 3.36 3.73 6.68 5.5 9.97 6.82 12.65 12.64 24.72 17.24 35.56z"/><path d="m155.431 187.029-.376-.533c-8.096-11.472-16.238-24.348-24.201-38.27-18.693-32.666-32.222-64.101-35.308-82.036a46.94 46.94 0 0 1-.562-4.415l-.042-.657c-.268-4.901.735-8.044 2.98-9.335 2.186-1.249 5.295-.588 9.242 1.967 1.244.795 2.613 1.817 4.177 3.123.305.254.61.518.925.792 13.881 12.105 33.845 39.463 52.102 71.399l.435.761c.279.488.557.973.821 1.448 1.86 3.29 3.714 6.651 5.507 9.983 6.715 12.454 12.529 24.446 17.28 35.643l.427 1.008-1.042.335a367.778 367.778 0 0 1-29.781 8.223l-.281.065c-.56.13-1.109.257-1.665.37l-.639.129zM100.386 53.166c-.565 0-1.056.117-1.467.353-1.514.87-2.199 3.463-1.978 7.497l.04.637c.098 1.286.279 2.708.537 4.197 3.049 17.723 16.487 48.906 35.073 81.384 7.807 13.65 15.785 26.286 23.719 37.571.323-.072.647-.147.974-.223l.283-.066a364.792 364.792 0 0 0 28.575-7.843c-4.647-10.851-10.285-22.44-16.77-34.468a553.54 553.54 0 0 0-5.49-9.953c-.264-.475-.537-.952-.812-1.433l-.437-.765c-18.153-31.753-37.955-58.914-51.678-70.881-.303-.264-.598-.52-.893-.765-1.5-1.252-2.801-2.225-3.978-2.977-2.32-1.502-4.252-2.267-5.698-2.267z"/></g><path d="M467.082 183.19c-4.74 19.72-13.36 37.92-25.01 53.76-27.39 37.26-71.53 61.43-121.32 61.43-78.91 0-143.64-60.73-149.98-138v-.01c-.35-4.12-.52-8.28-.52-12.49z" fill="#ffe993"/><path d="M442.071 236.95c-27.39 37.26-71.53 61.43-121.32 61.43-78.91 0-143.64-60.73-149.98-138v-.01c5.48 1.01 27.48 1.01 30.48 7.01s36.35 80.26 89 98 100 9 150.3-27.48c.492-.357 1.02-.65 1.52-.95z" fill="#ffd169"/><path d="M320.752 299.38c-83.537 0-151.5-67.963-151.5-151.5a1 1 0 1 1 2 0c0 82.435 67.065 149.5 149.5 149.5 69.387 0 129.162-47.051 145.362-114.419a1 1 0 0 1 1.945.467c-7.815 32.499-26.589 61.947-52.865 82.921-27.072 21.609-59.729 33.031-94.441 33.031z" fill="#112c41"/><path d="M394.576 131.922c-12.132 1.333-24.784-1.709-35.431-9.567-21.682-16.005-26.884-46.632-11.713-68.905 15.864-23.294 47.655-29.036 70.643-12.9 14.693 10.314 22.199 27.048 21.389 43.743-.439 9.203-3.408 18.389-9.091 26.484-8.673 12.356-21.886 19.628-35.796 21.145z" fill="#6ecfea"/><path d="M393.912 126.413c-10.871 1.195-22.208-1.532-31.749-8.573-19.429-14.342-24.09-41.785-10.496-61.744 14.215-20.873 42.703-26.018 63.301-11.559 13.166 9.242 19.892 24.237 19.166 39.197-.393 8.247-3.054 16.478-8.146 23.732-7.772 11.072-19.611 17.588-32.076 18.948z" fill="#badcee"/><path d="M389.049 133.225c-10.929 0-21.585-3.488-30.498-10.066-10.695-7.895-17.822-19.521-20.069-32.739-2.246-13.216.639-26.546 8.123-37.533 7.814-11.475 19.632-19.164 33.276-21.653 13.647-2.485 27.415.528 38.768 8.498 14.519 10.192 22.674 26.869 21.813 44.61-.462 9.687-3.668 19.026-9.271 27.009a51.415 51.415 0 0 1-36.506 21.565c-1.882.207-3.763.31-5.636.31zm.177-100.842c-2.983 0-5.987.271-8.986.817-13.113 2.393-24.471 9.783-31.982 20.811-14.761 21.672-9.611 51.97 11.481 67.538 10.035 7.406 22.37 10.737 34.728 9.378a49.414 49.414 0 0 0 35.086-20.726c5.385-7.672 8.467-16.647 8.911-25.957.827-17.053-7.01-33.081-20.965-42.877-8.416-5.907-18.215-8.984-28.274-8.984z" fill="#112c41"/><path d="m347.645 122.233-91.271 86.11a6.187 6.187 0 0 1-7.476.779 6.01 6.01 0 0 1-1.273-1.032 6.189 6.189 0 0 1 .249-8.751l91.274-86.114a6.182 6.182 0 0 1 8.072-.361l.02.014a6.193 6.193 0 0 1 .404 9.355z" fill="#b2b0f7"/><path d="M252.117 211.03a7.146 7.146 0 0 1-3.743-1.055 6.914 6.914 0 0 1-1.482-1.204 7.136 7.136 0 0 1-1.956-5.137 7.144 7.144 0 0 1 2.25-5.021l91.275-86.115c2.576-2.432 6.608-2.61 9.379-.418a7.146 7.146 0 0 1 2.743 5.859 7.14 7.14 0 0 1-2.253 5.021l-91.271 86.11a7.198 7.198 0 0 1-4.942 1.959zm91.277-98.483a5.181 5.181 0 0 0-3.561 1.406l-91.274 86.114c-1.007.952-1.584 2.239-1.624 3.625s.463 2.704 1.416 3.711a4.95 4.95 0 0 0 1.054.858 5.197 5.197 0 0 0 6.282-.646l91.271-86.11a5.153 5.153 0 0 0 1.626-3.624 5.155 5.155 0 0 0-1.961-4.217 5.198 5.198 0 0 0-3.229-1.118z" fill="#112c41"/><path d="m347.645 122.233-91.271 86.11a6.187 6.187 0 0 1-7.476.779 5.238 5.238 0 0 1-.652-.597 6.215 6.215 0 0 1-1.022-1.449 6.177 6.177 0 0 0 6.335-1.326l90.712-87.174c2.044-1.93 2.593-5.927 2.95-5.712l.02.014a6.193 6.193 0 0 1 .404 9.355z" fill="#9797f7"/><path d="M252.117 211.03a7.146 7.146 0 0 1-3.743-1.055 6.914 6.914 0 0 1-1.482-1.204 7.136 7.136 0 0 1-1.956-5.137 7.144 7.144 0 0 1 2.25-5.021l91.275-86.115c2.576-2.432 6.608-2.61 9.379-.418a7.146 7.146 0 0 1 2.743 5.859 7.14 7.14 0 0 1-2.253 5.021l-91.271 86.11a7.198 7.198 0 0 1-4.942 1.959zm91.277-98.483a5.181 5.181 0 0 0-3.561 1.406l-91.274 86.114c-1.007.952-1.584 2.239-1.624 3.625s.463 2.704 1.416 3.711a4.95 4.95 0 0 0 1.054.858 5.197 5.197 0 0 0 6.282-.646l91.271-86.11a5.153 5.153 0 0 0 1.626-3.624 5.155 5.155 0 0 0-1.961-4.217 5.198 5.198 0 0 0-3.229-1.118z" fill="#112c41"/><path d="M449.586 84.792c.973-20.053-8.041-40.148-25.689-52.537-27.609-19.38-65.793-12.482-84.844 15.491-18.22 26.756-11.975 63.536 14.069 82.763 12.785 9.433 27.982 13.087 42.552 11.488 16.709-1.822 32.577-10.559 42.993-25.398 6.825-9.723 10.391-20.753 10.919-31.807zm-55.01 47.13c-12.132 1.333-24.784-1.709-35.431-9.567-21.682-16.005-26.884-46.632-11.713-68.905 15.864-23.294 47.655-29.036 70.643-12.9 14.693 10.314 22.199 27.048 21.389 43.743-.439 9.203-3.408 18.389-9.091 26.484-8.673 12.356-21.886 19.628-35.796 21.145z" fill="#b2b0f7" stroke="#112c41" stroke-linecap="round" stroke-linejoin="round" stroke-width="2"/><path d="M449.585 84.791c.862-17.781-6.125-35.589-20.02-48.036 11.687 12.197 17.499 28.527 16.709 44.835-.528 11.054-4.094 22.084-10.919 31.807-10.416 14.839-26.284 23.577-42.993 25.398-14.57 1.599-29.767-2.056-42.551-11.488a61.534 61.534 0 0 1-4.372-3.55 60.508 60.508 0 0 0 7.683 6.751c12.785 9.433 27.982 13.087 42.551 11.488 16.709-1.822 32.577-10.559 42.993-25.398 6.825-9.723 10.391-20.753 10.919-31.807zM347.43 53.448c15.864-23.294 47.655-29.036 70.643-12.9a50.678 50.678 0 0 1 4.428 3.487 50.579 50.579 0 0 0-7.739-6.687c-22.988-16.136-54.779-10.394-70.643 12.9-14.34 21.057-10.477 49.575 8.308 66.148-15.885-16.869-18.451-43.193-4.997-62.947z" fill="#9797f7"/><path d="M449.586 84.792c.973-20.053-8.041-40.148-25.689-52.537-27.609-19.38-65.793-12.482-84.844 15.491-18.22 26.756-11.975 63.536 14.069 82.763 12.785 9.433 27.982 13.087 42.552 11.488 16.709-1.822 32.577-10.559 42.993-25.398 6.825-9.723 10.391-20.753 10.919-31.807zm-55.01 47.13c-12.132 1.333-24.784-1.709-35.431-9.567-21.682-16.005-26.884-46.632-11.713-68.905 15.864-23.294 47.655-29.036 70.643-12.9 14.693 10.314 22.199 27.048 21.389 43.743-.439 9.203-3.408 18.389-9.091 26.484-8.673 12.356-21.886 19.628-35.796 21.145z" fill="none" stroke="#112c41" stroke-linecap="round" stroke-linejoin="round" stroke-width="2"/><path d="M306.702 163.5c7.54 10.49 4.76 33.11-5.58 40.01.07.8.08 1.58.05 2.33 0 .11-.01.21-.02.31-.01.22-.02.43-.05.64-.02.2-.04.4-.07.6-.02.16-.04.32-.08.48-.07.47-.18.94-.3 1.4-.05.2-.11.39-.17.59-.02.07-.05.14-.07.21-.16.48-.34.94-.54 1.4-.22.49-.46.97-.73 1.45-.13.23-.26.46-.41.69-.14.23-.29.46-.45.69-.62.91-1.33 1.78-2.14 2.64l-.02.02c-1.34 1.43-2.93 2.79-4.72 4.14-1.69 1.27-3.57 2.52-5.61 3.79-.29.18-.58.36-.88.54-.89.54-1.81 1.09-2.76 1.65-1.26.74-2.57 1.49-3.92 2.25-.83.48-1.68.96-2.55 1.45-1.45.82-2.94 1.66-4.47 2.53-.51.28-1.02.58-1.54.88-.67.38-1.35.77-2.04 1.18l-.06.03c-2.71 1.58-5.52 3.26-8.39 5.08-.39.24-.78.49-1.18.75-.79.5-1.57 1.01-2.36 1.54-.79.52-1.59 1.06-2.39 1.61-12.91 8.86-72.03 44.46-146 40-73.07-4.4-111.64-53.08-105.69-108.71.81-7.56 2.43-15.25 4.91-22.97 12.55-39.12 62.96-74.97 89.47-91.63 4.27-2.68 7.91-4.86 10.68-6.48 1.27.81 2.63 1.84 4.08 3.05.3.25.6.51.91.78 13.29 11.59 33.07 38.22 51.89 71.14.42.74.85 1.48 1.25 2.2 1.9 3.36 3.73 6.68 5.5 9.97 0 0 15-5.35 34.18-14.82 40.68-20.06 67.61-45.82 80.04-35.93 8.04 6.41-6.32 24.51-1.01 31.51 3.46 4.54 13.75-.63 24.48 14.27 5.62 7.82 3.18 19.88-1.24 26.74z" fill="#ffd6c0"/><path d="M267.572 235.4c-2.71 1.58-5.52 3.26-8.39 5.08-.39.24-.78.49-1.18.75-.78.5-1.57 1.01-2.36 1.54-.79.52-1.59 1.06-2.39 1.61-12.91 8.86-72.03 44.46-146 40-73.07-4.4-111.64-53.08-105.69-108.71 4.34 47.91 48.7 87.93 100.69 93.71 51.54 5.73 117.81-8.63 165.32-33.98zm8.11-4.62c.78-.44 1.56-.88 2.31-1.3-3.34 2.02-6.79 3.99-10.36 5.89.69-.41 1.37-.8 2.04-1.18.51-.3 1.03-.59 1.54-.88 1.53-.87 3.02-1.71 4.47-2.53zm20.44-13.82c-1.34 1.43-2.93 2.79-4.72 4.14-1.69 1.27-3.57 2.53-5.61 3.79-.29.18-.58.36-.88.54-.89.54-1.81 1.09-2.76 1.65-1.33.79-2.72 1.58-4.16 2.4l.24-.15c6.44-3.91 12.43-8.04 17.87-12.36q.01-.01.02-.01z" fill="#f5b9ab"/><path d="M120.109 285.725c-4.247 0-8.554-.124-12.915-.387-40.342-2.431-72.728-18.627-91.191-45.606C-.88 215.062-4.59 184.05 5.557 152.407c12.47-38.872 61.661-74.42 89.873-92.15a405.571 405.571 0 0 1 10.706-6.496.957.957 0 0 1 1.001.02c1.248.797 2.615 1.818 4.179 3.123.304.254.609.518.925.792 13.878 12.103 33.838 39.456 52.094 71.389l.435.762a550.956 550.956 0 0 1 5.933 10.697c3.308-1.224 16.833-6.362 33.304-14.494 14.019-6.913 26.303-14.445 37.141-21.091 20.471-12.551 35.261-21.623 43.922-14.729 4.828 3.849 2.584 11.006.414 17.928-1.681 5.36-3.418 10.902-1.257 13.753 1.002 1.313 2.84 1.656 5.384 2.131 5.048.941 11.961 2.229 19.11 12.157 5.588 7.777 3.742 19.697-.87 27.276 3.724 5.614 5.034 14.513 3.414 23.436-1.394 7.679-4.713 13.86-9.146 17.075.034.615.039 1.249.013 1.893 0 .105-.011.234-.024.365a6.859 6.859 0 0 1-.055.683c-.017.175-.039.391-.071.606a4.767 4.767 0 0 1-.098.57c-.048.35-.146.813-.303 1.41-.042.169-.093.339-.146.515l-.033.109a2.265 2.265 0 0 1-.051.152c-.189.6-.397 1.102-.598 1.563a18.692 18.692 0 0 1-1.683 2.996 22.868 22.868 0 0 1-2.239 2.76c-.287.299-.536.557-.803.814-.235.235-.489.473-.748.715l-.987.877c-.247.216-.507.435-.777.652-.23.188-.464.371-.704.56l-.126.1c-.217.177-.47.367-.712.547-4.374 3.283-9.887 6.394-16.27 9.994-4.857 2.741-10.362 5.847-16.007 9.425l-.458.288a33.31 33.31 0 0 0-.704.449 163.56 163.56 0 0 0-4.739 3.142c-6.347 4.356-61.297 40.555-133.687 40.555zM106.594 55.718c-3.283 1.928-6.692 4-10.142 6.165-27.99 17.59-76.782 52.819-89.066 91.11-9.962 31.065-6.339 61.485 10.202 85.654 18.121 26.479 49.985 42.38 89.722 44.774 78.047 4.707 138.736-35.261 145.399-39.834a165.342 165.342 0 0 1 4.778-3.167c.231-.154.483-.313.734-.469l.443-.28c5.691-3.606 11.219-6.726 16.095-9.477 6.324-3.568 11.786-6.65 16.066-9.862.223-.166.451-.336.659-.506l.142-.112c.23-.18.454-.355.678-.538.254-.206.495-.407.725-.609l.939-.833c.243-.228.481-.449.714-.683.263-.253.494-.494.725-.734a20.955 20.955 0 0 0 2.081-2.559c.154-.222.294-.436.424-.648a17.03 17.03 0 0 0 1.084-2.033 13.21 13.21 0 0 0 .547-1.436l.054-.171c.044-.146.087-.286.124-.433.141-.539.227-.939.282-1.31.048-.213.062-.334.077-.455.031-.209.049-.394.067-.579.031-.22.038-.399.046-.588.011-.123.019-.191.019-.267.031-.798.015-1.541-.046-2.246a.96.96 0 0 1 .424-.883c4.234-2.825 7.437-8.709 8.786-16.144 1.583-8.718.26-17.342-3.453-22.507a.96.96 0 0 1-.027-1.081c4.58-7.106 6.306-18.648 1.267-25.659-6.699-9.303-13.175-10.51-17.903-11.392-2.742-.511-5.11-.952-6.561-2.856-2.762-3.642-.958-9.396.953-15.489 1.977-6.305 4.021-12.823.222-15.852-7.607-6.055-21.917 2.722-41.721 14.864-10.873 6.667-23.197 14.224-37.296 21.176-19.01 9.386-34.131 14.81-34.282 14.863a.958.958 0 0 1-1.168-.449 541.355 541.355 0 0 0-5.49-9.953c-.264-.475-.538-.953-.813-1.434l-.437-.764c-18.155-31.757-37.96-58.922-51.686-70.892-.304-.264-.598-.52-.894-.766-1.296-1.081-2.445-1.956-3.493-2.659z" fill="#112c41"/><path d="M301.118 203.506c-.707-4.912-9.36-9.728-13.029-10.552" fill="#ffd6c0"/><path d="M301.117 204.466a.96.96 0 0 1-.949-.823c-.637-4.421-8.95-9.003-12.289-9.753a.96.96 0 0 1-.726-1.147.953.953 0 0 1 1.147-.726c3.639.817 12.97 5.808 13.769 11.353a.96.96 0 0 1-.951 1.097z" fill="#112c41"/><path d="M306.549 163.332c-2.744-3.023-8.26-5.399-11.757-5.917" fill="#ffd6c0"/><path d="M306.549 164.292a.955.955 0 0 1-.711-.314c-2.561-2.822-7.801-5.111-11.187-5.613a.96.96 0 1 1 .282-1.901c3.794.563 9.443 3.044 12.327 6.223a.96.96 0 0 1-.711 1.605z" fill="#112c41"/><path d="M579.282 288.3c-68.03 19.08-137.53 5-159.03 1.08-32.18-5.86-64.73-20.09-82.25-24.54-19.9-5.06-25.17-14.75-18.51-21.37 1.23-1.25 2.89-2.37 4.94-3.35 5.01-2.37 13.22-4.53 17.69-4.93.23-.02.45-.03.66-.04-13.5-10.84-20.94-20.43-24.3-28.24-5.59-13 .1-20.99 7.83-21.41-19.06-25.21-7.26-43.16 16.61-28.9 7 4.18 14.25 8.21 20.9 11.19 11.23 5.03 20.74 7.08 24.38 1.8.17-.25.33-.53.48-.82 1.3-2.57 1.49-6.51.25-12.17-.08-.38-.16-.75-.24-1.11-.23-1.15-.42-2.23-.57-3.27-.57-3.94-.55-7.12-.03-9.59.15-.79.36-1.49.61-2.13v-.01c1.65-4.19 5.26-5.43 9.95-4.11 3.77 1.06 8.26 3.8 12.99 7.99 2.07 1.83 4.19 3.95 6.31 6.31 8.95 9.99 23.23 19.43 40.3 23.7 8 2 10.7-.18 10.7-.18s0-.01.01-.02c4.55-9.37 9.8-19.32 15.62-29.53.41-.72.84-1.45 1.27-2.2.59-1.03 1.19-2.05 1.78-3.07 18.39-31.39 37.43-56.63 50.36-67.82.01-.01.03-.02.04-.03 1.25-1.08 2.43-2.03 3.56-2.83 2.46 1.38 6.65 3.77 11.97 6.97 24.96 15.01 70.69 39.71 87.69 79.71 21.369 50.28 6.06 113.84-61.97 132.92z" fill="#ffd6c0"/><path d="M503.012 299.104c-35.587 0-65.349-5.495-80.287-8.253l-2.653-.488c-20.784-3.784-41.768-11.063-58.629-16.913-9.381-3.255-17.483-6.065-23.688-7.641-12.163-3.093-20.069-8.275-21.693-14.22-.848-3.104.12-6.239 2.725-8.828 1.292-1.313 3.049-2.509 5.213-3.544 4.683-2.215 11.671-4.116 16.289-4.81-11.411-9.45-19.052-18.561-22.726-27.103-2.97-6.907-3.102-13.137-.37-17.54 1.64-2.645 4.244-4.423 7.304-5.041-8.977-12.487-11.227-24.368-5.682-30.553 4.804-5.357 14.007-4.77 24.619 1.57 8.206 4.899 15.009 8.542 20.796 11.136 12.485 5.592 20.273 6.312 23.148 2.145.145-.213.284-.458.415-.711 1.24-2.451 1.295-6.322.162-11.497-.081-.384-.16-.75-.239-1.107a62.13 62.13 0 0 1-.584-3.344c-.571-3.943-.577-7.288-.019-9.939a12.75 12.75 0 0 1 .631-2.219.702.702 0 0 1 .028-.081c1.793-4.554 5.754-6.223 11.151-4.707 3.949 1.111 8.577 3.948 13.382 8.204 2.096 1.854 4.247 4.004 6.391 6.392 9.865 11.011 24.371 19.538 39.799 23.397 6.253 1.562 9.021.446 9.684.095 4.61-9.479 9.836-19.353 15.534-29.35.224-.395.455-.791.688-1.193l.583-1.009c.355-.621.715-1.237 1.073-1.853l.709-1.221c17.822-30.42 37.198-56.503 50.572-68.075a1.08 1.08 0 0 1 .087-.068c1.366-1.18 2.527-2.101 3.589-2.853a.998.998 0 0 1 1.067-.056 467.968 467.968 0 0 1 11.996 6.984c1.88 1.131 3.877 2.316 5.971 3.559 26.393 15.662 66.277 39.331 82.124 76.617 12.147 28.583 12.136 59.504-.03 84.836-11.578 24.106-33.221 41.202-62.59 49.438-26.322 7.382-52.734 9.842-76.54 9.842zM327.813 152.575c-3.155 0-5.748.969-7.508 2.932-4.163 4.644-3.674 15.531 6.804 29.39a.999.999 0 0 1-.744 1.602c-3.198.173-5.853 1.708-7.473 4.32-2.377 3.832-2.197 9.406.508 15.695 3.688 8.574 11.99 18.206 24.007 27.856a.999.999 0 0 1-.579 1.778c-.215.01-.412.019-.618.037-4.155.371-12.303 2.449-17.351 4.838-1.951.933-3.518 1.992-4.655 3.147-2.11 2.097-2.872 4.477-2.213 6.891 1.408 5.153 8.98 9.941 20.256 12.809 6.287 1.597 14.426 4.42 23.85 7.689 16.796 5.827 37.7 13.079 58.333 16.836l2.657.488c24.806 4.58 90.701 16.745 155.923-1.548 28.799-8.077 50.006-24.806 61.327-48.379 11.917-24.813 11.915-55.134-.008-83.187-15.591-36.685-55.136-60.151-81.304-75.68a1331.603 1331.603 0 0 1-5.981-3.564 465.992 465.992 0 0 0-11.387-6.642 50.144 50.144 0 0 0-2.974 2.401.994.994 0 0 1-.063.05c-13.218 11.45-32.423 37.328-50.128 67.549l-.709 1.221c-.356.611-.713 1.225-1.066 1.841l-.588 1.019c-.23.397-.458.79-.68 1.18-5.725 10.043-10.97 19.959-15.589 29.472a.988.988 0 0 1-.281.361c-.316.256-3.326 2.434-11.571.371-15.806-3.953-30.678-12.701-40.802-24.002-2.093-2.329-4.188-4.425-6.228-6.229-4.582-4.058-8.938-6.747-12.598-7.776-4.374-1.231-7.308-.07-8.723 3.45a.719.719 0 0 1-.024.07 10.86 10.86 0 0 0-.559 1.953c-.513 2.44-.5 5.55.037 9.261.144.997.327 2.05.561 3.217.077.343.157.717.238 1.101 1.251 5.708 1.141 9.906-.336 12.827a9.282 9.282 0 0 1-.545.931c-3.555 5.155-11.933 4.681-25.616-1.449-5.859-2.626-12.73-6.304-21.004-11.244-5.42-3.238-10.486-4.884-14.596-4.884z" fill="#112c41"/><path d="M365.52 212.794c-.117 0-.236-.021-.352-.064-15.09-5.675-30.639-16.106-39.614-26.576a1 1 0 1 1 1.518-1.301c6.661 7.77 20.82 19.243 38.8 26.006a1 1 0 0 1-.352 1.935zm-2.084 34.968a.985.985 0 0 1-.363-.068c-5.049-1.97-14.87-7.277-20.889-11.744a1 1 0 1 1 1.192-1.605c5.892 4.372 15.493 9.563 20.424 11.486a1 1 0 0 1-.364 1.932zm108.785-71.312c-3.505 0-7.037-.138-10.626-.411a1 1 0 1 1 .152-1.994c20.859 1.587 39.919-1.453 61.798-9.859a1 1 0 0 1 .717 1.867c-18.411 7.074-34.866 10.397-52.041 10.397z" fill="#112c41"/><path d="m522.252 50.38-10-8-86 52-.057.22-164.943-62.22-14 8 124.395 275.466 2.83-11.034z" fill="#fff"/><path d="M371.647 316.846c-.39 0-.748-.229-.911-.589L246.34 40.791a1 1 0 0 1 .415-1.279l14-8a.99.99 0 0 1 .849-.067l164.3 61.977 85.83-51.896a1.003 1.003 0 0 1 1.142.074l10 8a1 1 0 0 1 .24 1.283L375.411 305.196l-2.795 10.899a.998.998 0 0 1-.969.752zM248.537 40.797l122.849 272.041 2.122-8.274c.023-.089.058-.175.104-.254L520.954 50.623l-8.782-7.026-85.078 51.442a1.003 1.003 0 0 1-1.252.496L261.339 33.481l-12.802 7.315z" fill="#112c41"/><path d="M418.252 102.38s3.056-7.785 8-8c5.056-.22 4 7 4 7s-5 8-12 1z" fill="#112c41"/><path d="M423.993 106.252c-2.18 0-4.346-1.062-6.449-3.165a1 1 0 0 1-.224-1.072c.135-.343 3.357-8.394 8.887-8.634 1.48-.06 2.72.416 3.598 1.389 2.062 2.283 1.461 6.573 1.435 6.755a.99.99 0 0 1-.142.386c-.098.157-2.451 3.855-6.341 4.298-.255.029-.51.044-.765.044zm-4.546-4.113c1.726 1.567 3.432 2.264 5.073 2.084 2.522-.281 4.31-2.561 4.768-3.206.122-1.132.14-3.684-.969-4.909-.479-.528-1.14-.769-2.025-.729-3.494.152-6.047 5.023-6.848 6.76z" fill="#112c41"/><path d="m418.252 102.38-1.23 4.78-55.77 217.22-172.38-64.1a3.966 3.966 0 0 1-2.45-4.69l1.69-6.58 53.35-208.06c.58-2.28 3.01-3.54 5.22-2.72z" fill="#cbc8ff"/><path d="M361.252 325.38a1 1 0 0 1-.349-.063l-172.38-64.1a4.961 4.961 0 0 1-3.071-5.875l1.69-6.582 53.351-208.058a4.938 4.938 0 0 1 2.491-3.153 4.99 4.99 0 0 1 4.046-.256l171.572 64.15c.479.179.746.69.618 1.186l-1.23 4.78-55.77 217.22a.998.998 0 0 1-.968.751zM245.293 38.98c-.476 0-.951.114-1.38.339a2.903 2.903 0 0 0-1.482 1.877L187.39 255.839a2.96 2.96 0 0 0 1.833 3.505l171.336 63.712 56.5-220.054-170.727-63.835a3.003 3.003 0 0 0-1.039-.187z" fill="#112c41"/><path d="m417.022 107.16-55.77 217.22-172.38-64.1a3.966 3.966 0 0 1-2.45-4.69l1.69-6.58c139.14 15.37 185.07-39.72 229.14-141.63 0 0-1.32-.03-.23-.22z" fill="#b2b0f7"/><path d="M361.252 325.38a1 1 0 0 1-.349-.063l-172.381-64.102a4.949 4.949 0 0 1-3.067-5.873l55.038-214.639a4.966 4.966 0 0 1 2.506-3.162 4.967 4.967 0 0 1 4.028-.249l171.575 64.151c.479.179.746.69.618 1.186l-57 222a.998.998 0 0 1-.968.751zM245.288 38.975a2.93 2.93 0 0 0-1.364.339 2.92 2.92 0 0 0-1.494 1.885l-55.037 214.64a2.95 2.95 0 0 0 1.828 3.503l171.338 63.714 56.5-220.054-170.732-63.837a2.96 2.96 0 0 0-1.038-.189z" fill="#112c41"/><path d="m372.252 324.38 95.215-56.331a5.966 5.966 0 0 0 2.752-3.647L526.945 45.94a.563.563 0 0 0-.83-.627l-95.863 56.067z" fill="#b2b0f7"/><path d="M372.252 325.38a.997.997 0 0 1-.968-1.252l58-223a.998.998 0 0 1 .463-.611l95.863-56.066a1.56 1.56 0 0 1 1.732.102c.506.383.73 1.026.57 1.641l-56.726 218.461a6.932 6.932 0 0 1-3.213 4.258l-95.212 56.329a.994.994 0 0 1-.509.14zm58.863-223.347L373.83 322.284l93.127-55.096a4.948 4.948 0 0 0 2.294-3.037l56.462-217.444z" fill="#112c41"/><path d="M449.609 119.059a.999.999 0 0 1-.506-1.863l44.94-26.283a1 1 0 0 1 1.01 1.726l-44.94 26.283a.996.996 0 0 1-.504.137zm-6 18a.999.999 0 0 1-.506-1.863l44.94-26.283a1 1 0 0 1 1.01 1.726l-44.94 26.283a.996.996 0 0 1-.504.137z" fill="#112c41"/><path d="M361.252 324.38c3.924 1.285 7.634 1.498 11 0l58-223c-3.985 1.605-7.984 2.06-12 1z" fill="#9797f7"/><path d="M367.178 326.429c-1.93 0-4-.366-6.237-1.099a1 1 0 0 1-.657-1.199l57-222a.997.997 0 0 1 1.223-.717c3.654.962 7.374.649 11.371-.961a1 1 0 0 1 1.342 1.18l-58 223a1.003 1.003 0 0 1-.561.662c-1.701.757-3.519 1.135-5.481 1.135zm-4.72-2.725c3.43.98 6.371.962 8.951-.055l57.399-220.689c-3.367 1.062-6.662 1.269-9.831.617z" fill="#112c41"/><path d="M416.603 149.445c-.891 0-1.799-.044-2.718-.135-10.992-1.085-18.969-8.347-18.161-16.533.357-3.616 2.44-6.897 5.866-9.24a3.5 3.5 0 0 1 3.951 5.779c-1.194.816-2.658 2.198-2.85 4.148-.401 4.066 5.151 8.215 11.882 8.879 6.732.664 12.987-2.32 13.388-6.386.094-.955-.132-1.931-.673-2.902a3.5 3.5 0 0 1 6.114-3.408c1.231 2.209 1.759 4.629 1.525 6.998-.74 7.501-8.563 12.8-18.323 12.8z" fill="#fff"/><path d="M416.603 150.445c-.931 0-1.878-.047-2.817-.14-11.549-1.14-19.921-8.883-19.058-17.627.386-3.915 2.623-7.454 6.296-9.966a4.469 4.469 0 0 1 3.371-.708c1.181.222 2.206.891 2.884 1.883s.929 2.189.708 3.37a4.47 4.47 0 0 1-1.883 2.884c-1.019.696-2.265 1.855-2.419 3.422-.156 1.58.89 3.336 2.87 4.815 2.125 1.588 5.083 2.671 8.115 2.97 3.034.298 6.145-.185 8.539-1.326 2.23-1.064 3.599-2.581 3.755-4.163.074-.748-.112-1.528-.552-2.316-.585-1.051-.727-2.266-.398-3.422s1.088-2.115 2.138-2.7a4.469 4.469 0 0 1 3.421-.398 4.476 4.476 0 0 1 2.701 2.138c1.331 2.39 1.9 5.012 1.647 7.583-.783 7.939-8.908 13.702-19.318 13.702zm-13.043-26.519a2.48 2.48 0 0 0-1.406.437c-3.177 2.173-5.108 5.195-5.435 8.513-.752 7.628 6.831 14.409 17.264 15.439.873.086 1.755.13 2.62.13 9.36 0 16.648-5.004 17.328-11.898.213-2.164-.272-4.382-1.404-6.413a2.487 2.487 0 0 0-1.5-1.188 2.472 2.472 0 0 0-1.9.222 2.483 2.483 0 0 0-1.188 1.5 2.48 2.48 0 0 0 .221 1.9c.642 1.152.909 2.326.795 3.488-.226 2.295-2.007 4.398-4.885 5.771-2.714 1.296-6.212 1.849-9.597 1.512-3.384-.334-6.707-1.558-9.116-3.358-2.554-1.908-3.89-4.319-3.663-6.614.23-2.333 1.911-3.938 3.281-4.875.551-.377.923-.946 1.046-1.603s-.016-1.321-.393-1.872a2.485 2.485 0 0 0-2.069-1.09z" fill="#112c41"/><path d="M403.603 200.445c-.891 0-1.799-.044-2.718-.135-10.992-1.085-18.969-8.347-18.161-16.533.357-3.616 2.44-6.897 5.866-9.24a3.5 3.5 0 0 1 3.951 5.779c-1.194.816-2.658 2.198-2.85 4.148-.401 4.066 5.151 8.215 11.882 8.879 6.732.664 12.987-2.32 13.388-6.386.094-.955-.132-1.931-.673-2.902a3.5 3.5 0 0 1 6.114-3.408c1.231 2.209 1.759 4.629 1.525 6.998-.74 7.501-8.563 12.8-18.323 12.8z" fill="#fff"/><path d="M403.603 201.445c-.931 0-1.878-.047-2.817-.14-11.549-1.14-19.921-8.883-19.058-17.627.386-3.915 2.623-7.454 6.296-9.966a4.463 4.463 0 0 1 3.371-.708c1.181.222 2.206.891 2.884 1.883s.929 2.189.708 3.37a4.47 4.47 0 0 1-1.883 2.884c-1.019.696-2.265 1.855-2.419 3.422-.156 1.58.89 3.336 2.87 4.815 2.125 1.588 5.083 2.671 8.115 2.97 3.033.3 6.145-.185 8.539-1.326 2.23-1.064 3.599-2.581 3.755-4.163.074-.748-.112-1.528-.552-2.316-.585-1.051-.727-2.266-.398-3.422s1.088-2.115 2.138-2.7a4.464 4.464 0 0 1 3.421-.398 4.476 4.476 0 0 1 2.701 2.138c1.331 2.39 1.9 5.012 1.647 7.583-.783 7.939-8.908 13.702-19.318 13.702zm-13.043-26.519a2.48 2.48 0 0 0-1.406.437c-3.177 2.173-5.108 5.195-5.435 8.513-.752 7.628 6.831 14.409 17.264 15.439.873.086 1.755.13 2.62.13 9.36 0 16.648-5.004 17.328-11.898.213-2.164-.272-4.382-1.404-6.413a2.487 2.487 0 0 0-1.5-1.188 2.472 2.472 0 0 0-1.9.222 2.483 2.483 0 0 0-1.188 1.5 2.48 2.48 0 0 0 .221 1.9c.642 1.152.909 2.326.795 3.488-.226 2.295-2.007 4.398-4.885 5.771-2.714 1.296-6.212 1.849-9.597 1.512-3.384-.334-6.707-1.558-9.116-3.358-2.554-1.908-3.89-4.319-3.663-6.614.23-2.333 1.911-3.938 3.281-4.875.551-.377.923-.946 1.046-1.603s-.016-1.321-.393-1.872a2.485 2.485 0 0 0-2.069-1.09z" fill="#112c41"/><path d="M390.603 251.445c-.891 0-1.799-.044-2.718-.135-10.992-1.085-18.969-8.347-18.161-16.533.357-3.616 2.44-6.897 5.866-9.24a3.5 3.5 0 0 1 3.951 5.779c-1.194.816-2.658 2.198-2.85 4.148-.401 4.066 5.151 8.215 11.882 8.879 6.732.664 12.987-2.32 13.388-6.386.094-.955-.132-1.931-.673-2.902a3.5 3.5 0 0 1 6.114-3.408c1.231 2.209 1.759 4.629 1.525 6.998-.74 7.501-8.563 12.8-18.323 12.8z" fill="#fff"/><path d="M390.603 252.445c-.931 0-1.878-.047-2.817-.14-11.549-1.14-19.921-8.883-19.058-17.627.386-3.915 2.623-7.454 6.296-9.966a4.463 4.463 0 0 1 3.371-.708c1.181.222 2.206.891 2.884 1.883s.929 2.189.708 3.37a4.47 4.47 0 0 1-1.883 2.884c-1.019.696-2.265 1.855-2.419 3.422-.156 1.58.89 3.336 2.87 4.815 2.125 1.588 5.083 2.671 8.115 2.97 3.034.299 6.145-.185 8.539-1.326 2.23-1.064 3.599-2.581 3.755-4.163.074-.748-.112-1.528-.552-2.316-.585-1.051-.727-2.266-.398-3.422s1.088-2.115 2.138-2.7a4.469 4.469 0 0 1 3.421-.398 4.476 4.476 0 0 1 2.701 2.138c1.331 2.39 1.9 5.012 1.647 7.583-.783 7.939-8.908 13.702-19.318 13.702zm-13.043-26.519a2.48 2.48 0 0 0-1.406.437c-3.177 2.173-5.108 5.195-5.435 8.513-.752 7.628 6.831 14.409 17.264 15.439.873.086 1.755.13 2.62.13 9.36 0 16.648-5.004 17.328-11.898.213-2.164-.272-4.382-1.404-6.413a2.487 2.487 0 0 0-1.5-1.188 2.476 2.476 0 0 0-1.9.222 2.483 2.483 0 0 0-1.188 1.5 2.48 2.48 0 0 0 .221 1.9c.642 1.152.909 2.326.795 3.488-.226 2.295-2.007 4.398-4.885 5.771-2.714 1.296-6.212 1.849-9.597 1.512-3.384-.334-6.707-1.558-9.116-3.358-2.554-1.908-3.89-4.319-3.663-6.614.23-2.333 1.911-3.938 3.281-4.875.551-.377.923-.946 1.046-1.603s-.016-1.321-.393-1.872a2.485 2.485 0 0 0-2.069-1.09z" fill="#112c41"/><path d="M377.603 302.445c-.891 0-1.799-.044-2.718-.135-10.992-1.085-18.969-8.347-18.161-16.533.357-3.616 2.44-6.897 5.866-9.24a3.5 3.5 0 0 1 3.951 5.779c-1.194.816-2.658 2.198-2.85 4.148-.401 4.066 5.151 8.215 11.882 8.879 6.732.664 12.987-2.32 13.388-6.386.094-.955-.132-1.931-.673-2.902a3.5 3.5 0 0 1 6.114-3.408c1.231 2.209 1.759 4.629 1.525 6.998-.74 7.501-8.563 12.8-18.323 12.8z" fill="#fff"/><path d="M377.603 303.445c-.931 0-1.878-.047-2.817-.14-11.549-1.14-19.921-8.883-19.058-17.627.386-3.915 2.623-7.454 6.296-9.966a4.477 4.477 0 0 1 3.371-.708c1.181.222 2.206.891 2.884 1.883s.929 2.189.708 3.37a4.47 4.47 0 0 1-1.883 2.884c-1.019.696-2.265 1.855-2.419 3.422-.156 1.58.89 3.336 2.87 4.815 2.125 1.588 5.083 2.671 8.115 2.97 3.034.296 6.145-.185 8.539-1.326 2.23-1.064 3.599-2.581 3.755-4.163.074-.748-.112-1.528-.552-2.316-.585-1.051-.727-2.266-.398-3.422s1.088-2.115 2.138-2.7a4.464 4.464 0 0 1 3.421-.398 4.476 4.476 0 0 1 2.701 2.138c1.331 2.39 1.9 5.012 1.647 7.583-.783 7.939-8.908 13.702-19.318 13.702zm-13.043-26.519a2.48 2.48 0 0 0-1.406.437c-3.177 2.173-5.108 5.195-5.435 8.513-.752 7.628 6.831 14.409 17.264 15.439.873.086 1.755.13 2.62.13 9.36 0 16.648-5.004 17.328-11.898.213-2.164-.272-4.382-1.404-6.413a2.487 2.487 0 0 0-1.5-1.188 2.476 2.476 0 0 0-1.9.222 2.483 2.483 0 0 0-1.188 1.5 2.48 2.48 0 0 0 .221 1.9c.642 1.152.909 2.326.795 3.488-.226 2.295-2.007 4.398-4.885 5.771-2.714 1.296-6.213 1.85-9.597 1.512-3.384-.334-6.707-1.558-9.116-3.358-2.554-1.908-3.89-4.319-3.663-6.614.23-2.333 1.911-3.938 3.281-4.875.551-.377.923-.946 1.046-1.603s-.016-1.321-.393-1.872a2.485 2.485 0 0 0-2.069-1.09z" fill="#112c41"/><path d="m359.51 179.531-107.782-39.416a1.99 1.99 0 0 1-1.245-2.362l13.684-53.596a1.99 1.99 0 0 1 2.613-1.377l107.782 39.416a1.99 1.99 0 0 1 1.245 2.362l-13.684 53.596a1.99 1.99 0 0 1-2.613 1.377z" fill="#dedffe"/><path d="M579.282 288.3c-68.03 19.08-137.53 5-159.03 1.08-12.37-2.25-24.8-5.74-36.41-9.45h-.02c-18.57-5.91-35.04-12.35-45.82-15.09-19.9-5.06-25.17-14.75-18.51-21.37 1.23-1.25 2.89-2.37 4.94-3.35 5.01-2.37 13.22-4.53 17.69-4.93.23-.02.45-.03.66-.04-13.5-10.84-20.94-20.43-24.3-28.24-5.59-13 .1-20.99 7.83-21.41-19.06-25.21-7.26-43.16 16.61-28.9 7 4.18 14.25 8.21 20.9 11.19 11.23 5.03 20.74 7.08 24.38 1.8.17-.25.33-.53.48-.82 1.3-2.57 1.49-6.51.25-12.17-.08-.38-.16-.75-.24-1.11-.23-1.15-.42-2.23-.57-3.27-.57-3.94-.55-7.12-.03-9.59.15-.79.36-1.49.61-2.13v-.01c1.65-4.19 5.26-5.43 9.95-4.11 3.77 1.06 8.26 3.8 12.99 7.99 2.07 1.83 4.19 3.95 6.31 6.31 8.95 9.99 23.45 18.64 40.3 23.7 10 3 26 1 26 1l155.24-15.01c1.81 3.27 3.39 6.68 4.73 10.19v.01c16.3 42.57-2.09 100.1-64.94 117.73z" fill="#ffd6c0"/><path d="M579.282 288.3c-68.03 19.08-137.53 5-159.03 1.08-12.37-2.25-24.8-5.74-36.41-9.45 62.43 7.45 131.234 15.131 192.41-6.55 40.97-14.52 73-50 69-106 14 50-3.12 103.29-65.97 120.92z" fill="#f5b9ab"/><path d="M503.012 299.104c-35.587 0-65.349-5.495-80.287-8.253l-2.653-.488c-20.784-3.784-41.768-11.063-58.629-16.913-9.381-3.255-17.483-6.065-23.688-7.642-12.162-3.092-20.069-8.274-21.693-14.219-.848-3.104.119-6.24 2.724-8.829 1.293-1.314 3.05-2.509 5.214-3.543 4.683-2.216 11.672-4.117 16.29-4.81-11.269-9.348-19.107-18.687-22.728-27.103-2.97-6.907-3.101-13.137-.37-17.54 1.64-2.645 4.244-4.423 7.304-5.041-8.977-12.487-11.227-24.368-5.682-30.553 4.803-5.357 14.007-4.771 24.619 1.569 8.203 4.899 15.005 8.542 20.796 11.137 12.485 5.592 20.274 6.313 23.148 2.145.145-.213.284-.458.415-.711 1.24-2.451 1.295-6.322.162-11.498-.081-.384-.16-.75-.24-1.105a61.01 61.01 0 0 1-.583-3.346c-.571-3.943-.577-7.287-.019-9.938.145-.764.353-1.496.631-2.22a.758.758 0 0 1 .028-.08c1.793-4.554 5.753-6.223 11.151-4.707 3.951 1.111 8.579 3.949 13.383 8.205 2.095 1.853 4.246 4.002 6.391 6.39 8.921 9.958 23.443 18.491 39.843 23.41 9.678 2.902 25.43.984 25.589.966a1 1 0 1 1 .248 1.984c-.662.083-16.326 1.99-26.411-1.034-16.743-5.022-31.598-13.767-40.757-23.991-2.093-2.329-4.188-4.425-6.228-6.228-4.58-4.058-8.936-6.746-12.599-7.776-4.374-1.234-7.308-.07-8.723 3.45a.846.846 0 0 1-.024.071 10.92 10.92 0 0 0-.559 1.952c-.514 2.44-.5 5.55.038 9.26.144.996.327 2.049.561 3.218.076.342.157.716.238 1.1 1.25 5.709 1.141 9.907-.336 12.828a9.282 9.282 0 0 1-.545.931c-3.555 5.154-11.933 4.68-25.616-1.449-5.863-2.627-12.733-6.306-21.004-11.245-9.581-5.724-18.051-6.471-22.104-1.951-4.163 4.644-3.674 15.531 6.804 29.39a.999.999 0 0 1-.744 1.602c-3.198.173-5.853 1.708-7.473 4.32-2.377 3.832-2.197 9.406.508 15.695 3.689 8.574 11.99 18.207 24.008 27.856a.999.999 0 0 1-.579 1.778c-.215.01-.412.019-.618.037-4.155.371-12.303 2.449-17.351 4.838-1.95.932-3.517 1.99-4.655 3.146-2.11 2.098-2.872 4.478-2.213 6.892 1.408 5.153 8.98 9.941 20.256 12.809 6.287 1.597 14.426 4.42 23.851 7.689 16.796 5.827 37.699 13.079 58.332 16.836l2.657.488c24.806 4.581 90.701 16.744 155.924-1.548 28.639-8.032 49.706-24.243 60.923-46.882 11.989-24.194 12.13-55.069.387-84.707a1 1 0 1 1 1.859-.736c11.951 30.163 11.786 61.63-.454 86.332-11.476 23.159-32.976 39.729-62.175 47.919-26.322 7.382-52.734 9.841-76.54 9.842z" fill="#112c41"/><path d="M365.52 212.794c-.117 0-.236-.021-.352-.064-15.09-5.675-30.639-16.106-39.614-26.576a1 1 0 1 1 1.518-1.301c6.661 7.77 20.82 19.243 38.8 26.006a1 1 0 0 1-.352 1.935zm-2.084 34.968a.985.985 0 0 1-.363-.068c-5.049-1.97-14.87-7.277-20.889-11.744a1 1 0 1 1 1.192-1.605c5.892 4.372 15.493 9.563 20.424 11.486a1 1 0 0 1-.364 1.932zm109.928-70.78c-5.564 0-10.707-.539-15.342-1.629a1 1 0 1 1 .458-1.947c16.424 3.867 39.531.591 65.064-9.221a1 1 0 0 1 .717 1.867c-18.763 7.209-36.279 10.93-50.898 10.93zm-330.433-30.49c-9.224 0-18.703-1.236-27.012-4.169a1 1 0 0 1 .666-1.886c15.605 5.509 39.508 5.298 55.601-.49a1 1 0 0 1 .676 1.883c-7.88 2.833-18.716 4.663-29.931 4.663z" fill="#112c41"/><path d="M440.532 303.401a4.57 4.57 0 0 1-.782-.067c-3.174-.54-5.575-4.358-7.136-11.35a1 1 0 1 1 1.952-.435c1.328 5.948 3.288 9.434 5.52 9.814 2.758.467 6.437-3.751 10.104-11.578 5.936-12.647 11.454-33.758 14.761-56.473 3.633-24.922 4.179-48.056 1.461-61.882-1.328-6.802-3.391-10.773-5.809-11.186-2.73-.469-6.376 3.685-10 11.391a1 1 0 1 1-1.81-.852c4.213-8.958 8.3-13.165 12.147-12.51 3.391.577 5.893 4.874 7.435 12.771 2.76 14.035 2.219 37.421-1.445 62.556-3.334 22.897-8.916 44.218-14.93 57.032-3.973 8.479-7.827 12.767-11.469 12.768z" fill="#112c41"/><path d="M475.319 308.343h-.072c-3.161-.048-6.671-4.22-8.938-10.629a.999.999 0 1 1 1.885-.668c2.123 6.001 5.235 9.27 7.085 9.297h.036c1.934 0 4.088-2.634 6.071-7.426 5.13-12.323 8.569-36.724 8.976-63.679.356-23.528-1.694-45.651-5.485-59.181-2.2-7.817-4.911-12.321-7.438-12.356h-.041c-2.096 0-4.415 3.047-6.54 8.591a56.825 56.825 0 0 0-.74 2.057 1.001 1.001 0 0 1-1.894-.643c.25-.738.506-1.447.767-2.129 2.512-6.555 5.338-9.877 8.401-9.877h.08c3.624.05 6.765 4.698 9.331 13.816 3.84 13.704 5.918 36.041 5.559 59.75-.411 27.193-3.909 51.876-9.128 64.416-2.378 5.746-5.041 8.659-7.914 8.659z" fill="#112c41"/><path d="M416.603 149.445c-.891 0-1.799-.044-2.718-.135-10.992-1.085-18.969-8.347-18.161-16.533.357-3.616 2.44-6.897 5.866-9.24a3.5 3.5 0 0 1 3.951 5.779c-1.194.816-2.658 2.198-2.85 4.148-.401 4.066 5.151 8.215 11.882 8.879 6.732.664 12.987-2.32 13.388-6.386.094-.955-.132-1.931-.673-2.902a3.5 3.5 0 0 1 6.114-3.408c1.231 2.209 1.759 4.629 1.525 6.998-.74 7.501-8.563 12.8-18.323 12.8z" fill="#fff"/><path d="M416.603 150.445c-.931 0-1.878-.047-2.817-.14-11.549-1.14-19.921-8.883-19.058-17.627.386-3.915 2.623-7.454 6.296-9.966a4.469 4.469 0 0 1 3.371-.708c1.181.222 2.206.891 2.884 1.883s.929 2.189.708 3.37a4.47 4.47 0 0 1-1.883 2.884c-1.019.696-2.265 1.855-2.419 3.422-.156 1.58.89 3.336 2.87 4.815 2.125 1.588 5.083 2.671 8.115 2.97 3.034.298 6.145-.185 8.539-1.326 2.23-1.064 3.599-2.581 3.755-4.163.074-.748-.112-1.528-.552-2.316-.585-1.051-.727-2.266-.398-3.422s1.088-2.115 2.138-2.7a4.469 4.469 0 0 1 3.421-.398 4.476 4.476 0 0 1 2.701 2.138c1.331 2.39 1.9 5.012 1.647 7.583-.783 7.939-8.908 13.702-19.318 13.702zm-13.043-26.519a2.48 2.48 0 0 0-1.406.437c-3.177 2.173-5.108 5.195-5.435 8.513-.752 7.628 6.831 14.409 17.264 15.439.873.086 1.755.13 2.62.13 9.36 0 16.648-5.004 17.328-11.898.213-2.164-.272-4.382-1.404-6.413a2.487 2.487 0 0 0-1.5-1.188 2.472 2.472 0 0 0-1.9.222 2.483 2.483 0 0 0-1.188 1.5 2.48 2.48 0 0 0 .221 1.9c.642 1.152.909 2.326.795 3.488-.226 2.295-2.007 4.398-4.885 5.771-2.714 1.296-6.212 1.849-9.597 1.512-3.384-.334-6.707-1.558-9.116-3.358-2.554-1.908-3.89-4.319-3.663-6.614.23-2.333 1.911-3.938 3.281-4.875.551-.377.923-.946 1.046-1.603s-.016-1.321-.393-1.872a2.485 2.485 0 0 0-2.069-1.09z" fill="#112c41"/></svg></g><g transform="translate(1483.3333333333335 710.0) rotate(0.0 400.83333333333326 380.0) scale(1.6645349545419308 1.664246939209001)"><svg width="481.616" height="456.663" viewBox="0 0 481.616 456.663"><path d="m353.975 312.812-24.37 26.5-14.83-13.64-150.36-138.28-18.82-17.31 24.37-26.5z" fill="#9dd9f4"/><path d="M329.605 340.312c-.25 0-.492-.094-.677-.264l-184.01-169.23a1 1 0 0 1-.059-1.413l24.37-26.5a.995.995 0 0 1 .694-.322.973.973 0 0 1 .719.263l184.01 169.23a1 1 0 0 1 .059 1.413l-24.37 26.5a.995.995 0 0 1-.694.322h-.042zm-182.597-170.29 182.538 167.877 23.016-25.027-182.538-167.877z" fill="#112c41"/><path d="M324.025 317.032s-3.64 3.46-9.25 8.64l-150.36-138.28 5.13-12.19z" fill="#6ecfea"/><path d="M329.607 340.311c-.25 0-.492-.094-.677-.264l-184.014-169.23a1.003 1.003 0 0 1-.059-1.413l24.369-26.498a1 1 0 0 1 1.413-.06l184.013 169.23a1 1 0 0 1 .059 1.413l-24.369 26.498a.996.996 0 0 1-.694.322h-.042zm-182.601-170.29 182.542 167.877 23.015-25.025-182.542-167.877z" fill="#112c41"/><path d="M474.285 447.912c-8.979 9.75-24.16 10.39-33.92 1.42l-162.1-149.09a5.748 5.748 0 0 1-.34-8.14l5.41-5.89.01-.01h.01l19.26-20.95a5.766 5.766 0 0 1 8.14-.34l162.11 149.08c1.22 1.13 2.31 2.36 3.24 3.66 6.52 9.05 6.02 21.73-1.82 30.26z" fill="#b2b0f7"/><path d="M456.601 456.649c-6.052 0-12.119-2.176-16.913-6.581l-162.1-149.09a6.694 6.694 0 0 1-2.183-4.688 6.712 6.712 0 0 1 1.785-4.866l5.409-5.888a.894.894 0 0 1 .089-.085l19.191-20.876c2.521-2.742 6.806-2.924 9.553-.399l162.11 149.08a25.32 25.32 0 0 1 3.376 3.814c6.893 9.567 6.095 22.823-1.897 31.519-4.926 5.348-11.664 8.06-18.42 8.06zM284.003 286.963l-5.342 5.815a4.72 4.72 0 0 0-1.258 3.427c.054 1.27.6 2.44 1.537 3.298l162.102 149.092c9.332 8.576 23.915 7.966 32.507-1.36 7.353-8 8.087-20.195 1.745-28.998a23.23 23.23 0 0 0-3.108-3.512L310.079 265.648a4.77 4.77 0 0 0-6.727.28l-19.26 20.95c-.028.03-.057.059-.088.085z" fill="#112c41"/><path d="M474.285 447.912c-8.979 9.75-24.16 10.39-33.92 1.42l-162.1-149.09a5.748 5.748 0 0 1-.34-8.14l5.41-5.89.01-.01.68-.17c1.26-.17 96.476 90.461 135 125 29 26 61 39 57.08 6.62 6.52 9.05 6.02 21.73-1.82 30.26z" fill="#9797f7"/><path d="M456.59 456.663c-6.281 0-12.246-2.321-16.897-6.599L277.585 300.979c-2.744-2.524-2.923-6.81-.4-9.553l24.693-26.851c2.524-2.743 6.809-2.923 9.553-.4L473.539 413.26c4.915 4.521 7.776 10.685 8.055 17.356.279 6.672-2.057 13.053-6.577 17.968-4.52 4.916-10.684 7.776-17.356 8.056-.358.016-.715.022-1.071.022zm-149.734-192.27a4.75 4.75 0 0 0-3.506 1.536l-24.693 26.851a4.767 4.767 0 0 0 .282 6.727l162.108 149.085c4.522 4.158 10.393 6.299 16.531 6.051a22.852 22.852 0 0 0 15.968-7.411 22.846 22.846 0 0 0 6.051-16.53 22.848 22.848 0 0 0-7.411-15.968L310.078 265.649a4.743 4.743 0 0 0-3.221-1.255z" fill="#112c41"/><path d="M252.725 244.152c-54.21 58.95-145.93 62.79-204.88 8.58-58.94-54.21-62.78-145.94-8.57-204.89 17.87-19.43 39.82-32.87 63.32-40.21.03-.01.05-.02.07-.02 47.78-14.92 102-4.66 141.49 31.66 30.32 27.89 46.06 65.72 46.81 103.9.71 36.02-11.92 72.37-38.24 100.98z" fill="#6ecfea"/><path d="M145.938 291.934c-35.339 0-70.768-12.716-98.77-38.466-59.252-54.497-63.123-147.045-8.629-206.302 17.368-18.884 39.415-32.885 63.758-40.488l.071-.021C152.01-8.846 206.599 3.372 244.833 38.535c29.604 27.23 46.343 64.385 47.133 104.617.744 37.768-12.93 73.877-38.504 101.676-28.742 31.256-68.076 47.105-107.523 47.105zM102.875 8.589c-24.047 7.532-45.757 21.329-62.863 39.93-53.748 58.447-49.93 149.727 8.51 203.477 27.614 25.395 62.566 37.937 97.417 37.939 38.911.002 77.698-15.629 106.051-46.46 25.223-27.419 38.71-63.033 37.976-100.283-.78-39.682-17.289-76.326-46.487-103.184-37.71-34.683-91.553-46.73-140.515-31.442a.554.554 0 0 1-.089.023z" fill="#112c41"/><path d="M290.965 143.172c-.89 32.63-13.11 65.09-36.91 91-52.36 57-140.96 60.71-197.89 8.29-56.93-52.42-60.64-141.13-8.28-198.13 15.611-17 34.45-29.26 54.71-36.7.03-.01.05-.02.07-.02 47.78-14.92 102-4.66 141.49 31.66 30.32 27.89 46.06 65.72 46.81 103.9z" fill="#9dd9f4"/><path d="M78.909 47.686C111.025 14.032 194.396 7.45 241.025 60.032c47 53 38.503 124.859-.248 157.93C202.025 251.032 78.909 47.686 78.909 47.686z" fill="#6ecfea"/><path d="M145.943 291.934c-35.339 0-70.772-12.719-98.773-38.469-59.255-54.496-63.129-147.039-8.633-206.295C64.936 18.465 100.932 1.759 139.896.128c38.961-1.628 76.23 12.01 104.935 38.408 59.256 54.496 63.128 147.039 8.633 206.295-28.744 31.255-68.074 47.103-107.522 47.103zm.204-289.937c-2.051 0-4.105.043-6.167.129-38.43 1.608-73.934 18.086-99.971 46.397-53.749 58.445-49.929 149.721 8.515 203.47 27.613 25.395 62.569 37.938 97.42 37.941 38.911.004 77.695-15.626 106.049-46.456 53.749-58.444 49.929-149.72-8.515-203.469-26.793-24.64-61.151-38.011-97.331-38.011z" fill="#112c41"/><path d="M233.595 226.552c-8.58 9.33-18.3 16.97-28.75 22.91-43.77 24.91-100.35 20.04-139.4-15.87-30.27-27.84-42.83-67.75-37.08-105.57 3.43-22.61 13.4-44.48 30.05-62.58 44.48-48.37 119.76-51.52 168.14-7.03 48.37 44.49 51.52 119.77 7.04 168.14z" fill="#dedffe"/><path d="M146.162 266.011c-4.281 0-8.581-.227-12.892-.683-25.719-2.722-49.407-13.441-68.502-31-29.432-27.07-43.411-66.868-37.392-106.457 3.585-23.632 14.063-45.453 30.303-63.106 44.783-48.7 120.844-51.881 169.553-7.09 48.695 44.79 51.874 120.854 7.099 169.554-8.466 9.207-18.22 16.979-28.992 23.103-18.18 10.347-38.419 15.68-59.177 15.68zm-.121-237.957c-31.881 0-63.662 12.805-86.89 38.064-15.969 17.359-26.272 38.816-29.798 62.054-5.919 38.931 7.826 78.064 36.768 104.684 37.93 34.879 93.48 41.203 138.228 15.737 10.591-6.021 20.183-13.664 28.509-22.718 44.037-47.889 40.906-122.683-6.98-166.728-22.633-20.813-51.276-31.094-79.837-31.094z" fill="#112c41"/><path d="M225.605 231.652a115.538 115.538 0 0 1-20.76 17.81c-43.77 24.91-100.35 20.04-139.4-15.87-30.27-27.84-42.83-67.75-37.08-105.57 4.3-18.96 13.46-37.08 27.56-52.42 43.09-46.85 116.01-49.9 162.86-6.81 46.86 43.09 49.91 116 6.82 162.86z" fill="#fff"/><path d="M145.953 265.946c-29.046 0-58.169-10.453-81.183-31.618-23.593-21.697-37.324-51.284-38.664-83.31-1.34-32.025 9.871-62.655 31.569-86.248s51.283-37.324 83.308-38.664c32.024-1.356 62.655 9.87 86.248 31.568 23.593 21.697 37.324 51.284 38.664 83.309s-9.871 62.655-31.568 86.248c-23.625 25.689-55.952 38.714-88.375 38.715zm.167-237.948c-1.681 0-3.364.035-5.053.106-31.491 1.317-60.584 14.82-81.92 38.02s-32.36 53.319-31.042 84.812c1.318 31.491 14.82 60.584 38.02 81.92 22.628 20.81 51.272 31.089 79.83 31.092 31.886.002 63.667-12.806 86.901-38.069 21.336-23.2 32.36-53.319 31.042-84.811s-14.82-60.585-38.02-81.92c-21.955-20.191-50.11-31.149-79.758-31.149z" fill="#112c41"/><path d="M144.254 211.572c-4.798 0-9.46-1.804-13.026-5.109l-52.76-48.902c-7.621-7.064-8.619-19.007-1.83-26.874 7.127-8.259 19.615-8.9 27.548-1.548l34.559 38.617a2.642 2.642 0 0 0 4.3-.517l41.466-77.622c5.632-9.234 17.825-12.014 26.93-6.006 8.673 5.723 10.962 17.487 5.551 26.358l-56.377 92.419a19.161 19.161 0 0 1-16.361 9.184z" fill="#7bdaac"/><path d="M144.254 212.572a20.1 20.1 0 0 1-13.706-5.376l-52.76-48.901c-8.055-7.467-8.911-20.145-1.907-28.261 3.615-4.189 8.642-6.665 14.154-6.973 5.513-.299 10.781 1.591 14.83 5.345l34.625 38.684c.363.404.881.597 1.42.535a1.62 1.62 0 0 0 1.253-.857l41.466-77.621c2.904-4.764 7.456-8.023 12.847-9.229 5.387-1.203 10.898-.188 15.516 2.858 8.948 5.905 11.573 18.338 5.854 27.714l-56.377 92.418a20.088 20.088 0 0 1-14.444 9.473c-.92.127-1.852.191-2.771.191zM91.188 125.03c-.346 0-.693.009-1.041.028-4.965.277-9.494 2.508-12.751 6.282-6.309 7.311-5.523 18.744 1.752 25.487l52.76 48.901a18.165 18.165 0 0 0 14.843 4.671 18.096 18.096 0 0 0 13.01-8.533l56.377-92.418c5.166-8.469 2.812-19.685-5.248-25.003-4.161-2.747-9.125-3.662-13.979-2.576-4.856 1.085-8.957 4.021-11.547 8.268l-41.438 77.572a3.64 3.64 0 0 1-5.927.713l-34.56-38.617c-3.331-3.082-7.667-4.776-12.253-4.776z" fill="#112c41"/></svg></g><g transform="translate(1330.0 511.6666666666667) rotate(16.908951667594458 -233.33333333333331 298.33333333333337) scale(-1.6578210074341428 1.6579232057380817)"><svg width="281.494" height="359.888" viewBox="0 0 281.494 359.888"><circle cx="29.577" cy="244.952" fill="#ffd6c0" r="28.57"/><path d="M36.463 272.68c-14.816 3.682-29.807-4.933-34.21-19.38 6.642 9.111 18.361 13.776 29.979 10.899 15.312-3.807 24.646-19.312 20.838-34.624a29.814 29.814 0 0 0-.412-1.466 28.386 28.386 0 0 1 4.64 9.957c3.808 15.312-5.524 30.807-20.836 34.614z" fill="#f5b9ab"/><path d="M29.524 274.534c-5.307 0-10.533-1.44-15.197-4.248C7.56 266.212 2.784 259.747.88 252.082c-3.932-15.824 5.743-31.896 21.567-35.828 14.935-3.708 30.399 4.818 35.208 19.417a1 1 0 1 1-1.9.626c-4.484-13.61-18.902-21.561-32.826-18.101C8.176 221.862-.845 236.847 2.821 251.6c1.776 7.147 6.229 13.174 12.538 16.973 6.309 3.797 13.719 4.912 20.867 3.135a27.653 27.653 0 0 0 17.541-13.527 1 1 0 0 1 1.754.96 29.655 29.655 0 0 1-25.997 15.392z" fill="#112c41"/><path d="M44.718 249.764a1 1 0 0 1-.997-1.088c.385-4.35-.9-8.584-3.618-11.922-2.712-3.33-6.526-5.37-10.741-5.743-4.762-.421-9.414 1.362-12.767 4.894a1.001 1.001 0 0 1-1.451-1.377c3.776-3.977 9.024-5.984 14.394-5.509 4.758.421 9.06 2.72 12.116 6.472 3.049 3.744 4.49 8.489 4.059 13.361a1 1 0 0 1-.995.912z" fill="#112c41"/><circle cx="136.632" cy="256.185" fill="#ffd6c0" r="102.5"/><path d="M161.124 156.96c-.335-.084-.67-.15-1.006-.231l-9.522 10.476c51.785 13.183 83.231 63.159 70.391 114.214-12.864 51.147-65.305 84.01-117.258 70.943a98.466 98.466 0 0 1-14.865-5.017 102.846 102.846 0 0 0 22.258 8.423c54.9 13.808 110.597-19.503 124.405-74.403s-19.503-110.597-74.403-124.405z" fill="#f5b9ab"/><path d="M136.305 359.906c-8.472 0-16.998-1.048-25.427-3.168-26.811-6.743-49.391-23.523-63.581-47.25s-18.291-51.559-11.548-78.37c13.92-55.346 70.27-89.048 125.619-75.129 26.811 6.743 49.391 23.523 63.581 47.25s18.291 51.559 11.548 78.37-23.523 49.391-47.25 63.581c-16.267 9.729-34.468 14.716-52.942 14.716zm-.173-205.054c-45.417 0-86.874 30.753-98.444 76.755-6.613 26.292-2.591 53.587 11.325 76.854 13.916 23.268 36.06 39.724 62.353 46.337s53.587 2.592 76.855-11.325c23.268-13.916 39.724-36.06 46.337-62.353 6.613-26.292 2.591-53.587-11.325-76.854-13.916-23.268-36.06-39.724-62.353-46.337a101.388 101.388 0 0 0-24.748-3.077z" fill="#112c41"/><ellipse cx="150.963" cy="238.506" fill="#112c41" rx="9.104" ry="6.828" transform="matrix(.24391969 -.96979543 .96979543 .24391969 -117.161 326.735)"/><ellipse cx="162.305" cy="210.108" fill="#112c41" rx="9.336" ry="14.13" transform="matrix(.38287692 -.92379936 .92379936 .38287692 -93.936 279.601)"/><ellipse cx="69.418" cy="262.078" fill="#ffa6e0" rx="8.009" ry="12.121" transform="matrix(.34428245 -.93886612 .93886612 .34428245 -200.537 237.025)"/><ellipse cx="162.622" cy="264.886" fill="#ffa6e0" rx="12.121" ry="8.009" transform="matrix(.97751537 -.21086418 .21086418 .97751537 -52.2 40.249)"/><g fill="#112c41"><ellipse cx="73.616" cy="206.032" rx="13.016" ry="8.6" transform="matrix(.93672108 -.35007659 .35007659 .93672108 -67.468 38.808)"/><path d="M76.988 198.775c3.501 0 6.164 1.303 6.947 3.4 1.252 3.351-2.415 7.948-8.009 10.039-1.881.703-3.846 1.074-5.682 1.074-3.501 0-6.164-1.303-6.947-3.4-1.252-3.351 2.415-7.948 8.009-10.039 1.881-.703 3.846-1.075 5.683-1.075m0-2c-2.018 0-4.204.387-6.383 1.201-6.734 2.517-10.845 8.163-9.182 12.612 1.125 3.01 4.604 4.7 8.821 4.7 2.018 0 4.203-.387 6.383-1.201 6.734-2.517 10.845-8.164 9.182-12.613-1.125-3.009-4.604-4.7-8.821-4.7z"/><ellipse cx="81.532" cy="234.343" rx="6.828" ry="9.104" transform="matrix(.99308691 -.11738141 .11738141 .99308691 -26.945 11.191)"/><path d="M133.088 253.959c-2.259 12.289-10.577 21.249-19.985 20.751s-16.734-10.286-17.683-22.745l37.669 1.993z"/><path d="M113.846 275.73a15.2 15.2 0 0 1-.797-.021c-9.788-.518-17.622-10.472-18.627-23.667a1 1 0 0 1 1.05-1.075l37.668 1.993a.998.998 0 0 1 .931 1.179c-2.328 12.662-10.757 21.59-20.225 21.59zm-17.325-22.705c1.265 11.611 8.137 20.237 16.634 20.687 8.492.443 16.24-7.403 18.724-18.815l-35.358-1.871z"/></g><path d="M105.837 271.732c3.224-4.074 9.366-6.006 15.602-4.438 1.592.4 3.071.999 4.406 1.754-3.545 3.767-8.006 5.914-12.743 5.663-2.725-.144-5.275-1.067-7.543-2.613.09-.124.182-.246.277-.366z" fill="#ffa6e0"/><path d="M113.837 275.73c-.263 0-.525-.007-.788-.021-2.853-.151-5.563-1.088-8.053-2.785a.997.997 0 0 1-.246-1.414c.098-.135.198-.267.302-.398 3.541-4.475 10.225-6.4 16.63-4.788a18.761 18.761 0 0 1 4.654 1.853 1 1 0 0 1 .237 1.556c-3.659 3.888-8.154 5.997-12.736 5.997zm-6.794-3.878c1.923 1.122 3.975 1.747 6.112 1.86 3.867.203 7.739-1.351 11.01-4.402a16.95 16.95 0 0 0-2.971-1.046c-5.406-1.36-10.995.081-14.152 3.589z" fill="#112c41"/><circle cx="249.987" cy="260.77" fill="#ffd6c0" r="30.5"/><path d="M222.704 274.633c1.661 1.703 3.944 3.316 6.05 4.625 14.322 8.877 33.343 3.912 42.215-10.401 5.824-9.39 5.488-20.081.827-29.253 9.661 9.784 12.197 24.608 4.629 36.823-8.863 14.319-27.669 18.738-41.991 9.861-4.923-3.048-9.289-6.83-11.729-11.655z" fill="#f5b9ab"/><path d="M249.985 292.273c-2.536 0-5.111-.309-7.681-.955-8.337-2.096-16.184-8.307-20.479-16.208a1 1 0 0 1 1.757-.955c4.036 7.426 11.397 13.259 19.209 15.224 15.777 3.969 31.837-5.638 35.805-21.414 3.967-15.775-5.639-31.837-21.414-35.804-14.887-3.746-30.34 4.719-35.179 19.268a.999.999 0 1 1-1.897-.631c5.167-15.537 21.667-24.576 37.565-20.577 16.844 4.236 27.102 21.387 22.865 38.231-3.59 14.275-16.458 23.82-30.551 23.82z" fill="#112c41"/><path d="M232.124 262.132a1 1 0 0 1-.987-1.168c1.809-10.599 11.684-17.787 22.008-16.028 5.655.965 10.509 4.451 13.316 9.563a1 1 0 0 1-1.753.963c-2.512-4.575-6.85-7.693-11.899-8.555-9.247-1.577-18.078 4.881-19.701 14.392a1 1 0 0 1-.985.832z" fill="#112c41"/><path d="M204.361 152.512a104.848 104.848 0 0 0-18.83-12.078 108.568 108.568 0 0 0-19.984-7.631c-41.409-11.317-83.39 3.067-106.995 33.155-6.399 8.156-11.466 17.459-14.768 27.73-.664 2.066 1.169 3.052 2.703 2.319 15.452-7.388 44.875-13.07 65.935-13.871 14.05-.535 28.805 1.241 43.81 4.268a219.7 219.7 0 0 1 18.443 4.555c1.18-9.712.293-19.135-2.433-27.474 6.554 8.019 11.608 19.829 14.45 31.446 19.734 7.211 37.996 17.25 51.938 28.579 1.153.937 2.929.604 2.787-1.429-1.867-26.849-15.37-52.113-37.058-69.567z" fill="#b2b0f7"/><path d="M239.054 223.853c-5.31-4.354-16.452-11.672-22.712-15.508-1.736-23.958-15.572-55.237-44.7-69.812a97.75 97.75 0 0 0-17.883-6.826 96.954 96.954 0 0 0-13.609-2.703 107.907 107.907 0 0 1 25.397 3.8 108.803 108.803 0 0 1 19.986 7.629c32.747 16.393 54.018 48.071 55.92 82.19.067 1.273-1.417 2.039-2.399 1.231z" fill="#9797f7"/><path d="M239.951 225.009c-.669 0-1.364-.248-1.951-.724-13.76-11.182-32.104-21.273-51.65-28.416a1.001 1.001 0 0 1-.628-.702c-2.475-10.115-6.41-19.54-11.071-26.678 1.603 7.146 1.958 14.854 1.018 22.589a1.001 1.001 0 0 1-1.275.839 219.596 219.596 0 0 0-18.359-4.534c-16.578-3.345-30.833-4.738-43.575-4.249-19.617.747-49.496 6.103-65.542 13.774-1.169.559-2.495.422-3.378-.348-.846-.739-1.111-1.927-.708-3.179 3.254-10.125 8.279-19.56 14.933-28.042 11.875-15.136 28.232-26.354 47.304-32.439 19.506-6.224 40.51-6.591 60.742-1.063a109.922 109.922 0 0 1 20.167 7.702 106.003 106.003 0 0 1 19.009 12.193c21.907 17.63 35.549 43.245 37.429 70.277.087 1.253-.39 2.246-1.309 2.723a2.496 2.496 0 0 1-1.156.275zm-52.415-30.835c19.563 7.206 37.915 17.336 51.725 28.559.344.279.732.325.924.226.253-.132.249-.61.235-.81-1.841-26.479-15.213-51.576-36.688-68.857a104.083 104.083 0 0 0-18.65-11.963 107.79 107.79 0 0 0-19.8-7.561c-40.121-10.966-81.707 1.912-105.945 32.807-6.508 8.295-11.42 17.52-14.603 27.419-.089.278-.193.787.12 1.06.272.238.766.258 1.199.05 16.279-7.782 46.508-13.213 66.328-13.968 12.904-.49 27.312.911 44.046 4.287a222.073 222.073 0 0 1 17.385 4.244c.939-9.011.072-17.932-2.523-25.872a1 1 0 0 1 1.725-.943c6.134 7.505 11.412 18.897 14.52 31.323z" fill="#112c41"/><circle cx="243.778" cy="292.99" fill="#fff" r="11.5"/><path d="M243.789 305.491c-5.156 0-9.993-3.215-11.802-8.347a12.421 12.421 0 0 1 .516-9.553 12.419 12.419 0 0 1 7.12-6.391 12.43 12.43 0 0 1 9.553.516 12.422 12.422 0 0 1 6.391 7.12c2.291 6.5-1.135 13.653-7.635 15.944a12.455 12.455 0 0 1-4.143.711zm-.004-23.006c-1.176 0-2.355.2-3.497.603a10.427 10.427 0 0 0-5.981 5.368 10.432 10.432 0 0 0-.433 8.024c1.924 5.461 7.934 8.337 13.393 6.414 5.461-1.924 8.338-7.932 6.414-13.392a10.427 10.427 0 0 0-5.368-5.981 10.456 10.456 0 0 0-4.527-1.036z" fill="#112c41"/><circle cx="24.678" cy="279.006" fill="#fff" r="11.5"/><path d="M24.69 291.507c-5.156 0-9.993-3.215-11.801-8.347a12.412 12.412 0 0 1 .516-9.553 12.419 12.419 0 0 1 7.12-6.391c3.149-1.109 6.542-.926 9.553.516s5.281 3.971 6.39 7.12c2.291 6.501-1.135 13.653-7.636 15.944a12.453 12.453 0 0 1-4.142.711zm-.003-23.006c-1.176 0-2.356.2-3.498.603a10.428 10.428 0 0 0-5.98 5.368 10.432 10.432 0 0 0-.433 8.024c1.924 5.46 7.932 8.337 13.393 6.414 5.461-1.924 8.338-7.932 6.414-13.392a10.427 10.427 0 0 0-5.368-5.981 10.456 10.456 0 0 0-4.527-1.036zm188.578-139.665c-5.821 0-11.686-.66-17.467-2.001a1 1 0 1 1 .452-1.948c19.369 4.495 39.712 1.137 55.813-9.209 13.835-8.891 23.132-22.037 26.177-37.017 6.612-32.531-18.817-65.881-56.687-74.343a1 1 0 0 1 .436-1.952c38.925 8.698 65.038 43.102 58.21 76.693-3.153 15.514-12.762 29.116-27.056 38.301-11.742 7.545-25.674 11.476-39.879 11.477z" fill="#112c41"/><path d="M190.675 125.115c-33.743-8.487-54.217-42.721-45.731-76.464 8.487-33.743 42.721-54.217 76.464-45.731 33.743 8.487 54.217 42.721 45.731 76.464-8.487 33.743-42.721 54.217-76.464 45.731" fill="#9797f7"/><path d="M249.434 67.527c-8.214 32.688-41.37 52.513-74.048 44.295-6.54-1.65-12.569-4.287-17.96-7.731-12.275-14.919-17.559-35.27-12.484-55.442 8.49-33.74 42.72-54.219 76.468-45.731a63.11 63.11 0 0 1 7.24 2.284c17.882 14.491 26.767 38.535 20.783 62.326z" fill="#b2b0f7"/><path d="M206.03 128.027a63.876 63.876 0 0 1-15.602-1.94c-13.373-3.367-25.052-10.753-33.776-21.361-12.876-15.648-17.616-36.704-12.681-56.322 8.613-34.223 43.46-55.061 77.683-46.456a64.334 64.334 0 0 1 7.354 2.32c30.185 11.57 46.996 43.969 39.103 75.363-7.299 29.003-33.446 48.394-62.081 48.397zm.021-126.019c-27.742 0-53.069 18.786-60.14 46.885-4.781 19.005-.188 39.402 12.286 54.563 8.45 10.275 19.764 17.43 32.719 20.692 33.152 8.336 66.912-11.853 75.255-45.005 7.646-30.413-8.638-61.799-37.879-73.007a62.386 62.386 0 0 0-7.126-2.248 61.925 61.925 0 0 0-15.115-1.879z" fill="#112c41"/></svg></g></svg>