<svg enable-background="new 0 0 1552.232 537.747" height="538" viewBox="0 0 1552.232 537.747" width="1553" xmlns="http://www.w3.org/2000/svg" xmlns:xlink="http://www.w3.org/1999/xlink"><clipPath id="a"><path d="m1514.382 220.188c6.47 0 12.06 3.796 14.67 9.281 2.86 6.018 10.04 8.603 16.08 5.789 3.52-1.645 6.1-3.475 6.1-3.475s-9.49 25.545-36.85 20.871c-8.83-1.509-16.23-7.274-16.23-16.233 0-8.96 7.27-16.233 16.23-16.233z"/></clipPath><path d="m1300.177 376.877c-24.399 29.241-159.979 113.794-341.232 30.214-.799 2.967-1.733 6.048-2.813 9.225-3.954 11.638-9.255 22.803-15.818 33.28-42.491 68.094-124.614 98.252-201.977 83.291-13.971-3.41-27.628-7.933-40.83-13.526-58.858-24.936-98.752-73.364-112.852-127.977.004-.01-.013-.026-.01-.036-.062-.227-.105-.439-.155-.663-1.467-5.21-2.536-10.517-3.197-15.876-228.35 68.487-343.103-137.06-350.495-160.218-7.79-24.391 111.532-98.476 126.291-83.967 38.444 46.384 74.64 108.316 206.781 72.785 74.653-20.066 131.36-25.087 177.469-23.49 6.81.225 13.388.603 19.757 1.097h.013c4.302.341 8.513.726 12.634 1.156 14.186 1.491 26.826 3.366 37.786 5.148 14.543 2.478 28.912 5.84 43.023 10.066 5.729 1.666 11.539 3.467 17.405 5.374 1.891.612 3.789 1.237 5.694 1.875 40.156 13.392 82.833 31.369 121.826 46.76 46.404 18.328 87.859 29.404 113.4 30.099 56.445 1.529 86.643-20.685 105.514-29.318 22.849-10.453 98.682 104.461 81.786 124.701z" fill="#fff"/><path d="m1246.862 413.614c-60.139 28.9-163.218 50.983-287.917-6.523 2.731-9.885 4.354-20.026 4.861-30.251 96.374 68.028 229.501 64.421 283.056 36.774z" fill="#dddefd"/><path d="m963.881 369.702c.13 4.671.294 22.946-7.75 46.621-3.953 11.634-9.255 22.795-15.812 33.272-42.498 68.091-124.622 98.256-201.98 83.29-13.972-3.402-27.63-7.925-40.828-13.522-58.869-24.938-98.759-73.37-112.861-127.984.003-.01-.008-.022-.006-.032-.062-.222-.112-.442-.164-.661-.124-.444-9.835-31.529-1.581-81.067" fill="#fff"/><path d="m721.806 529.387c-8.394-2.62-16.647-5.646-24.728-9.066-28.481-11.939-53.693-30.145-73.611-53.158-19.005-21.97-32.633-47.795-39.861-75.538-.006-.022-.011-.044-.015-.066-.057-.206-.106-.412-.153-.618-1.005-3.372-9.512-34.022-1.602-81.495.009-.059.023-.117.041-.173.182-.546.796-.85 1.362-.674.515.161.832.67.735 1.183-7.835 47.026.555 77.26 1.536 80.555.006.018.028.096.032.119.053.227.099.422.153.617.009.032.016.064.022.095 7.149 27.422 20.622 52.947 39.407 74.663 19.704 22.762 44.646 40.769 72.819 52.575 13.143 5.571 26.742 10.075 40.656 13.464 38.057 7.467 77.537 3.829 113.386-10.449 36.45-14.405 67.11-39.788 87.41-72.369 6.512-10.411 11.783-21.501 15.715-33.059 7.499-22.092 7.872-39.714 7.691-46.266-.006-.119.017-.235.049-.348.179-.546.795-.85 1.367-.673.431.136.74.526.744.969.197 6.661-.186 24.57-7.799 46.974-3.984 11.706-9.316 22.939-15.911 33.485-20.538 32.962-51.558 58.643-88.436 73.215-36.261 14.442-76.197 18.117-114.69 10.556-5.462-1.322-10.902-2.829-16.319-4.518z" fill="#112c41"/><path d="m799.633 536.226c-22.956 1.455-49.055 2.2-90.997-12.155-16.295-5.563-31.783-13.135-46.08-22.524-.006-.006-.014-.008-.023-.007-62.604-42.282-93.836-115.012-80.764-185.234.008-.008.012-.02.01-.032l.476-2.281.872-4.231c1.11-4.909 2.442-9.798 3.998-14.668l.027-.564c.458-1.38.942-2.752 1.441-4.131 4.867-13.341 17.201-35.358 17.201-35.358 5.815 5.682 10.946 26.735 9.245 33.929-23.017 97.331 21.088 200.213 120.882 234.383 22.134 7.569 48.383 13.07 63.712 12.873z" fill="#dddefd"/><path d="m721.847 529.397c-8.409-2.624-16.677-5.653-24.773-9.077-28.478-11.937-53.689-30.14-73.608-53.149-19.003-21.965-32.629-47.786-39.858-75.523l-.011-.04c-.053-.185-.09-.357-.129-.54l-.029-.131c-.015-.043-.03-.094-.047-.152l-.082-.287c-.064-.232-.118-.429-.188-.655-.009-.031-.017-.061-.022-.093-.007-.021-.014-.043-.016-.055-.098-.391-.187-.751-.297-1.162-.041-.135-.081-.315-.121-.496-.084-.339-.172-.703-.262-1.101-.045-.171-.098-.39-.144-.618l-.023-.097c-.042-.181-.086-.37-.121-.565-.044-.161-.092-.41-.145-.659-.125-.573-.251-1.2-.383-1.877-.043-.211-.08-.414-.122-.618-.061-.309-.111-.551-.155-.802l-.27-1.504c-.042-.288-.085-.531-.129-.777l-.112-.694c-.033-.216-.067-.435-.105-.656l-.028-.178c-.015-.081-.03-.163-.039-.246l-.079-.507c-.061-.395-.123-.797-.182-1.21-.03-.22-.061-.426-.093-.636l-.049-.339c-1.887-13.727-3.168-36.049 1.451-64.488l.163-1.004c.008-.053.021-.106.038-.158.181-.545.796-.85 1.362-.673.506.158.821.652.739 1.159l-.162 1.004c-4.581 28.193-3.313 50.301-1.446 63.883l.047.321c.039.226.068.444.096.664.056.391.118.787.179 1.175l.108.701c.013.081.028.162.038.244.032.18.069.412.104.64l.05.315c.033.192.047.283.058.371.045.233.092.505.13.771.056.297.116.629.173.953l.093.52c.044.233.089.467.134.693.058.285.101.503.138.71.127.644.25 1.257.375 1.828.049.235.091.454.142.652.039.224.08.379.114.525l.031.13c.042.215.089.402.134.577.09.416.179.765.259 1.092.04.183.07.316.104.432.12.45.213.821.293 1.139.018.055.032.111.044.167.07.233.127.435.17.595l.127.445c.016.041.028.084.038.127l.039.172c.033.151.066.297.106.451.005.016.01.032.014.048 7.149 27.435 20.627 52.973 39.421 74.698 19.704 22.76 44.642 40.766 72.813 52.572 13.146 5.567 26.746 10.072 40.658 13.469 38.058 7.465 77.538 3.826 113.388-10.45 36.448-14.403 67.105-39.786 87.401-72.367 6.516-10.411 11.786-21.503 15.719-33.065l.347-1.06c.409-1.214.78-2.417 1.141-3.598.064-.207.127-.398.18-.573.404-1.35.779-2.652 1.124-3.932 2.7-9.814 4.32-19.881 4.826-30.031.11-2.458.131-4.836.072-7.066-.006-.118.017-.234.049-.347.188-.546.795-.85 1.367-.673.431.135.74.526.754.97.057 2.278.034 4.704-.077 7.21-.51 10.299-2.154 20.512-4.897 30.471-.346 1.292-.73 2.611-1.134 3.955-.044.186-.118.415-.191.631-.361 1.175-.742 2.395-1.152 3.627l-.348 1.066c-3.984 11.714-9.326 22.952-15.926 33.5-20.532 32.962-51.547 58.643-88.423 73.214-36.262 14.44-76.198 18.116-114.692 10.558-5.451-1.323-10.88-2.83-16.281-4.516z" fill="#112c41"/><path d="m880.823 256.027c-16.258 7.831-50.18-16.021-56.684-26.619-8.433 7.439-19.199 35.017-46.35 30.938-22.516-3.383-49.893-37.622-34.682-80.37 6.811.225 11.62.544 17.988 1.039h.013c4.302.341 8.513.726 12.634 1.156 14.186 1.491 26.826 3.366 37.786 5.148 14.543 2.478 28.912 5.84 43.023 10.066 5.729 1.666 11.539 3.467 17.405 5.374 10.59 18.424 23.401 46.27 8.867 53.268z" fill="#dddefd"/><path d="m880.822 256.031c-16.445 6.646-42.459-27.919-50.834-39.135-2.572 9.596-26.216 52.109-52.198 43.445-20.288-6.767-31.154-45.047-16.695-79.326l.013-.009c4.302.341 8.514.726 12.635 1.165 14.186 1.491 26.825 3.357 37.785 5.139 14.543 2.487 28.913 5.849 43.024 10.071 7.574 2.209 15.292 4.639 23.099 7.248-.002.005 26.072 42.148 3.171 51.402z" fill="#fff"/><g fill="#112c41"><path d="m761.806 182.118c-8.143 19.84-8.297 43.421-.353 60.295 4.099 8.707 10.021 14.723 16.687 16.946 5.882 1.976 12.105 1.282 18.487-2.02 17.374-8.987 30.513-33.989 32.312-40.702.005-.018.011-.037.017-.055.181-.546.796-.85 1.362-.674.219.069.411.204.546.384 22.391 29.963 39.058 43.005 49.539 38.775 3.726-1.407 6.593-4.374 7.789-8.063 4.742-13.968-9.416-38.399-11.274-41.51-7.787-2.599-15.414-4.992-22.678-7.109-14.068-4.207-28.392-7.564-42.889-10.04-13.832-2.246-25.818-3.882-37.723-5.136-3.935-.405-7.907-.773-11.822-1.091zm16.084 79.363c-.152-.047-.303-.094-.455-.141-7.231-2.412-13.608-8.825-17.956-18.061-8.4-17.841-8.166-41.848.61-62.657.092-.215.259-.399.474-.515.192-.098.409-.147.628-.131 4.185.337 8.445.724 12.661 1.166 11.947 1.256 23.974 2.893 37.849 5.15 14.586 2.498 29.001 5.871 43.156 10.098 7.405 2.162 15.191 4.603 23.14 7.262.242.081.446.242.578.454.698 1.128 17.022 27.794 11.671 43.559-1.38 4.269-4.695 7.706-9.007 9.337-16.609 6.714-41.223-24.937-50.88-37.808-3.398 8.952-16.199 31.453-32.711 39.996-6.768 3.498-13.415 4.27-19.758 2.291z"/><path d="m808.367 216.407c-22.481-4.86-38.345-19.086-35.444-31.763.19-.846.464-1.679.819-2.472 14.186 1.491 26.826 3.366 37.786 5.148 14.543 2.478 28.912 5.84 43.023 10.066.221 1.619.15 3.261-.211 4.854-2.912 12.675-23.478 19.019-45.973 14.167z"/><path d="m585.706 391.133c7.149 27.435 20.627 52.973 39.421 74.699 19.704 22.759 44.642 40.765 72.813 52.571 13.146 5.567 26.745 10.072 40.658 13.469 38.058 7.465 77.538 3.827 113.388-10.45 36.448-14.403 67.105-39.786 87.4-72.366 6.511-10.412 11.791-21.504 15.714-33.066 1.028-3.039 1.973-6.122 2.793-9.165.01-.019.011-.037.021-.055.179-.545.795-.85 1.357-.673.047.014.094.032.14.051 96.777 44.626 177.779 39.384 228.706 27.13 58.39-14.055 98.504-41.822 111.221-57.057 9.878-11.835-15.429-62.074-42.967-95.779-16.563-20.275-30.589-30.487-37.51-27.319-3.163 1.444-6.583 3.243-10.543 5.327-19.222 10.103-48.263 25.373-95.467 24.093-25.503-.693-66.979-11.692-113.785-30.179-9.159-3.617-18.317-7.293-28.007-11.183-39.086-15.688-79.504-31.918-116.818-42.788-14.069-4.207-28.393-7.56-42.891-10.036-13.832-2.256-25.818-3.882-37.723-5.136-64.065-6.735-130.625.006-209.464 21.196-51.087 13.736-87.938 12.968-116.129 4.177-39.423-12.296-61.917-40.275-82.797-66.244-2.937-3.657-5.972-7.431-8.954-11.032-5.185-4.953-27.342 2.44-55.194 18.44-18.705 10.754-36.871 23.561-49.83 35.146-14.451 12.92-21.35 23.356-19.429 29.382 2.221 6.959 14.915 31.885 38.166 60.6 20.267 25.035 54.352 59.943 101.635 84.07 63.589 32.445 134.019 37.443 209.335 14.855.212-.064.441-.063.654.004.398.124.688.46.743.861.662 5.294 1.715 10.537 3.152 15.688.008.024.023.08.029.103l.031.144c.036.158.07.313.115.475l.013.048zm136.141 138.264c-8.409-2.624-16.677-5.653-24.773-9.077-28.478-11.937-53.689-30.14-73.608-53.149-19.002-21.965-32.629-47.786-39.858-75.523l-.011-.04c-.049-.194-.094-.378-.136-.568l-.03-.137c-1.36-4.839-2.374-9.759-3.038-14.73-75.424 22.339-145.992 17.165-209.766-15.368-47.625-24.298-81.935-59.437-102.33-84.632-23.434-28.949-36.272-54.2-38.53-61.276-5.229-16.375 40.292-49.749 70.214-66.94 11.292-6.482 48.837-26.944 57.885-18.067.026.02.05.049.073.078 3.007 3.621 6.058 7.424 9.011 11.091 35.39 44.02 75.502 93.906 196.633 61.335 79.114-21.273 145.931-28.024 210.28-21.271 11.947 1.265 23.974 2.903 37.849 5.16 14.587 2.489 29.001 5.862 43.156 10.095 37.42 10.903 77.89 27.149 117.019 42.869 9.69 3.889 18.847 7.563 27.997 11.179 46.572 18.395 87.766 29.338 113.024 30.023 46.626 1.264 75.359-13.842 94.369-23.84 3.999-2.096 7.448-3.909 10.649-5.381 10.988-5.022 29.867 15.336 40.151 27.918 25.836 31.62 54.668 84.345 42.947 98.388-12.894 15.455-53.466 43.593-112.38 57.773-51.05 12.288-132.139 17.577-228.984-26.731-.751 2.686-1.589 5.396-2.501 8.069-3.975 11.712-9.317 22.948-15.917 33.493-20.532 32.962-51.547 58.643-88.423 73.215-36.262 14.44-76.199 18.116-114.693 10.558-5.45-1.322-10.878-2.828-16.279-4.514z"/><path d="m1293.435 371.161c-1.767 1.041-4.94-.367-9.07-3.73-.047-.028-.093-.06-.129-.095-9.247-7.562-23.185-24.736-36.705-45.985-13.386-21.008-22.889-40.587-25.807-52.004-.009-.027-.017-.055-.026-.085-1.349-5.319-1.26-8.859.555-9.93 1.709-1.014 4.762.289 8.72 3.445.083.069.166.128.249.209 9.241 7.45 23.308 24.739 36.927 46.152 13.403 21.069 22.952 40.682 25.842 52.093.017.069.034.132.05.201 1.295 5.215 1.181 8.672-.606 9.729z"/><path d="m1222.74 268.964.043.136c2.993 11.743 12.829 31.555 25.666 51.706 13.007 20.443 26.99 37.967 36.486 45.733l.129.095c5.44 4.43 7.351 3.906 7.805 3.635.463-.27 1.827-1.705.113-8.593l-.057-.284c-2.941-11.574-12.786-31.42-25.694-51.707-13.142-20.654-27.208-38.244-36.698-45.896l-.276-.232c-5.166-4.117-7.001-3.592-7.427-3.332-.483.273-1.866 1.724-.09 8.739zm67.516 103.275c-2.412-.924-4.631-2.269-6.544-3.967-.056-.039-.102-.077-.157-.122-9.68-7.917-23.828-25.633-36.952-46.253-12.909-20.257-22.825-40.237-25.905-52.188l-.05-.201c-1.559-6.116-1.222-9.737 1.038-11.069 2.144-1.267 5.401-.112 9.976 3.531l.102.081c.074.058.138.117.221.188 9.591 7.737 23.832 25.518 37.09 46.353 13.016 20.458 22.967 40.534 25.965 52.394.042.15.059.22.066.293 1.471 5.906 1.117 9.462-1.104 10.772-1.156.604-2.531.673-3.746.188z"/><path d="m1230.038 421.884c-.075-.023-.15-.053-.215-.09-20.658-11.509-41.072-34.435-55.992-62.899-14.519-27.686-22.268-57.126-21.251-80.768.003-.088.025-.175.056-.259.179-.546.795-.85 1.357-.674.459.143.767.562.752 1.026-.996 23.297 6.661 52.359 21.01 79.735 14.742 28.112 34.844 50.719 55.149 62.031.437.246.638.759.49 1.225-.177.542-.793.846-1.356.673z"/></g><path clip-rule="evenodd" d="m1250.151 377.341c3.599 1.12 5.578 4.845 4.431 8.312-1.156 3.467-5.006 5.372-8.605 4.251-3.589-1.121-5.568-4.846-4.422-8.313 1.157-3.465 5.007-5.371 8.596-4.25z" fill="#fff" fill-rule="evenodd"/><path d="m1249.825 378.336c-3.008-.937-6.271.678-7.238 3.579-.967 2.9.718 6.06 3.727 6.997 3.008.938 6.271-.677 7.238-3.578 0-.001 0-.001 0-.001.957-2.901-.728-6.057-3.727-6.997zm-4.174 12.564c-4.142-1.291-6.451-5.638-5.126-9.631 1.325-3.992 5.82-6.216 9.962-4.925 4.133 1.291 6.451 5.638 5.126 9.631-1.334 3.99-5.828 6.211-9.962 4.925z" fill="#112c41"/><path clip-rule="evenodd" d="m845.333 328.269c3.593 1.121 5.576 4.846 4.425 8.313-1.15 3.467-5.002 5.372-8.596 4.251-3.593-1.12-5.576-4.845-4.425-8.312 1.151-3.468 5.003-5.373 8.596-4.252z" fill="#fff" fill-rule="evenodd"/><path d="m845.003 329.264c-.001 0-.001 0 0 0-3.007-.938-6.274.677-7.237 3.578-.963 2.9.718 6.06 3.725 6.998 3.006.937 6.273-.678 7.236-3.579v-.001c.959-2.9-.721-6.056-3.724-6.996zm-4.172 12.565c-.001 0-.001-.001 0 0-4.139-1.292-6.454-5.638-5.128-9.631 1.326-3.992 5.822-6.216 9.959-4.925 4.138 1.29 6.453 5.637 5.127 9.63-1.33 3.989-5.82 6.21-9.958 4.926z" fill="#112c41"/><path clip-rule="evenodd" d="m840.477 410.219c3.593 1.121 5.576 4.846 4.426 8.313-1.151 3.466-5.003 5.372-8.596 4.251-3.594-1.12-5.577-4.845-4.426-8.312 1.151-3.468 5.003-5.372 8.596-4.252z" fill="#fff" fill-rule="evenodd"/><path d="m840.136 411.208c-3.007-.933-6.27.683-7.233 3.583-.964 2.902.718 6.063 3.727 7.002 3.008.938 6.277-.678 7.24-3.58.387-1.165.365-2.421-.064-3.574-.512-1.39-1.578-2.527-2.961-3.156-.229-.107-.467-.198-.709-.275zm-4.151 12.57c-.003-.001-.006-.002-.008-.003-4.138-1.29-6.451-5.636-5.125-9.628 1.325-3.992 5.82-6.214 9.956-4.923 2.343.731 4.206 2.474 5.038 4.711.59 1.587.622 3.317.09 4.921-1.325 3.988-5.817 6.209-9.951 4.922z" fill="#112c41"/><path d="m791.462 537.141c-.566-.177-.883-.771-.702-1.317.102-.305.343-.548.653-.659 33.321-11.888 68.076-64.001 77.473-116.173 6.514-36.289 6.208-73.433-.904-109.652-7.097-35.527-20.666-67.163-39.234-91.488-.207-.271-.266-.621-.16-.941.181-.546.796-.85 1.362-.674.216.068.405.199.541.376 18.759 24.574 32.455 56.502 39.619 92.336 7.16 36.468 7.469 73.866.912 110.403-4.879 25.969-14.872 50.782-29.436 73.091-14.923 22.766-32.471 38.628-49.414 44.676-.227.085-.477.092-.71.022z" fill="#112c41"/><path d="m620.914 360.57c-2.827 1.183-5.653 2.322-8.458 3.434-.014.007-.028.014-.038.011-7.212 2.834-14.32 5.401-21.324 7.701-.805.265-1.61.53-2.425.791-.815.262-1.62.527-2.418.772-.775.241-1.549.483-2.31.718-.839.265-1.675.52-2.508.766-228.438 68.614-343.244-137.015-350.635-160.173-.05-.158-.096-.326-.136-.514-.029-.127-.051-.254-.066-.384-.212-1.129-.21-2.286.006-3.413 1.082-6.24 7.387-14.398 16.654-23.147 1.438-1.352 2.948-2.722 4.528-4.111 33.316-29.248 94.966-62.567 105.305-52.398 38.444 46.384 74.64 108.316 206.781 72.785 22.979-6.175 44.257-10.925 64.053-14.501" fill="#fff"/><path d="m412.651 377.981c-14.477-4.531-28.52-10.27-41.971-17.153-47.642-24.296-81.967-59.438-102.373-84.64-23.445-28.955-36.288-54.214-38.544-61.29-.061-.191-.116-.389-.163-.612-.03-.125-.061-.307-.081-.473-.226-1.227-.221-2.482.014-3.706 1.06-6.114 6.767-14.093 16.964-23.72 1.418-1.333 2.953-2.723 4.56-4.135 16.178-14.204 39.74-29.967 61.489-41.132 13.92-7.143 38.318-18.107 45.319-11.229.026.029.049.049.073.078 3.007 3.631 6.06 7.424 9.015 11.101 35.388 44.017 75.498 93.901 196.628 61.331 22.117-5.939 43.694-10.826 64.145-14.521.186-.038.379-.029.561.027.565.177.882.771.701 1.317-.124.374-.457.649-.859.711-20.389 3.684-41.91 8.56-63.961 14.48-51.087 13.736-87.94 12.97-116.13 4.179-39.422-12.296-61.915-40.277-82.793-66.246-2.938-3.657-5.975-7.431-8.958-11.032-9.058-8.678-68.127 21.194-103.768 52.481-1.587 1.398-3.101 2.772-4.501 4.087-9.723 9.177-15.373 16.983-16.343 22.574-.195 1.005-.199 2.035-.011 3.042.022.165.037.261.055.346.039.184.078.321.119.45 2.223 6.953 14.918 31.886 38.178 60.611 20.276 25.041 54.373 59.956 101.675 84.079 63.617 32.441 134.075 37.419 209.422 14.788.831-.244 1.659-.498 2.492-.76l2.315-.72c.795-.245 1.603-.505 2.402-.768.82-.263 1.622-.526 2.424-.79 6.946-2.281 14.101-4.863 21.266-7.68.037-.015.076-.027.115-.038 3.25-1.292 5.887-2.364 8.359-3.398.231-.085.485-.092.72-.019.566.177.883.771.701 1.316-.089.272-.29.495-.555.619-2.525 1.058-5.22 2.151-8.477 3.443l-.089.031c-7.188 2.824-14.366 5.415-21.336 7.702-.806.265-1.614.532-2.432.795-.818.264-1.626.529-2.432.778l-2.309.717c-.838.266-1.678.523-2.52.771-59.719 17.927-116.413 18.642-169.106 2.208z" fill="#112c41"/><path d="m612.423 364.016c-7.213 2.834-14.321 5.401-21.324 7.701-.805.265-1.61.53-2.425.792s-1.62.527-2.419.771c-.774.241-1.549.484-2.309.718-.839.266-1.675.521-2.508.767-228.438 68.613-343.244-137.016-350.635-160.174-.05-.159-.096-.327-.136-.515-.029-.127-.051-.254-.066-.384-.143-1.133-.142-2.28.007-3.413 1.082-6.24 7.386-14.398 16.653-23.147 24.085 69.281 155.166 239.862 365.162 176.884z" fill="#dddefd"/><path d="m412.651 377.981c-14.477-4.531-28.52-10.27-41.971-17.153-47.642-24.296-81.967-59.438-102.373-84.64-23.445-28.955-36.288-54.214-38.544-61.29-.061-.191-.116-.389-.163-.612-.03-.125-.061-.307-.081-.473-.226-1.227-.221-2.482.014-3.706 1.06-6.114 6.767-14.093 16.964-23.72 1.418-1.333 2.953-2.723 4.56-4.135 16.178-14.204 39.74-29.967 61.489-41.132 13.92-7.143 38.318-18.107 45.319-11.229.026.029.049.049.073.078 3.007 3.631 6.06 7.424 9.015 11.101 35.388 44.017 75.498 93.901 196.628 61.331 22.117-5.939 43.694-10.826 64.145-14.521.186-.038.379-.029.561.027.565.177.882.771.701 1.317-.124.374-.457.649-.859.711-20.389 3.684-41.91 8.56-63.961 14.48-51.087 13.736-87.94 12.97-116.13 4.179-39.422-12.296-61.915-40.277-82.793-66.246-2.938-3.657-5.975-7.431-8.958-11.032-9.058-8.678-68.127 21.194-103.768 52.481-1.587 1.398-3.101 2.772-4.501 4.087-9.723 9.177-15.373 16.983-16.343 22.574-.195 1.005-.199 2.035-.011 3.042.022.165.037.261.055.346.039.184.078.321.119.45 2.223 6.953 14.918 31.886 38.178 60.611 20.276 25.041 54.373 59.956 101.675 84.079 63.617 32.441 134.075 37.419 209.422 14.788.831-.244 1.659-.498 2.492-.76l2.315-.72c.795-.245 1.603-.505 2.402-.768.82-.263 1.622-.526 2.424-.79 6.946-2.281 14.101-4.863 21.266-7.68.037-.015.076-.027.115-.038 3.25-1.292 5.887-2.364 8.359-3.398.231-.085.485-.092.72-.019.566.177.883.771.701 1.316-.089.272-.29.495-.555.619-2.525 1.058-5.22 2.151-8.477 3.443l-.089.031c-7.188 2.824-14.366 5.415-21.336 7.702-.806.265-1.614.532-2.432.795-.818.264-1.626.529-2.432.778l-2.309.717c-.838.266-1.678.523-2.52.771-59.719 17.927-116.413 18.642-169.106 2.208z" fill="#112c41"/><path d="m279.337 288.927c-.002 0-.004-.001-.006-.001-.566-.177-.883-.771-.701-1.316.119-.358.428-.626.808-.702 22.11-4.452 49.271-18.609 74.518-38.842 25.122-20.133 44.283-42.971 52.564-62.657.219-.493.797-.746 1.327-.581.565.177.882.77.701 1.316-.006.019-.014.037-.021.055-17.824 42.375-81.543 93.27-128.641 102.757-.182.035-.371.026-.549-.029z" fill="#112c41"/><path d="m348.76 146.964c-.297.378-.61.775-.937 1.181-7.746 9.373-24.446 23.337-45.131 37.105-11.006 7.406-22.485 14.135-34.368 20.147-5.546 2.841-11.31 5.269-17.241 7.262-.382.123-.76.235-1.122.33-5.559 1.627-9.308 1.743-10.544.017-1.157-1.623.052-4.683 3.185-8.735.131-.19.273-.376.425-.56 3.586-4.331 7.534-8.369 11.805-12.075 10.679-9.368 22.025-17.997 33.957-25.831 20.19-13.441 39.189-23.39 51.101-27.248.33-.112.661-.215.979-.309 5.917-1.812 9.918-2.002 11.199-.208 1.18 1.649-.084 4.77-3.308 8.924z" fill="#112c41"/><path d="m350.236 138.046c-1.18-.361-3.701-.444-9.04 1.198l-.966.299c-12.301 3.987-31.303 14.125-50.827 27.124-11.884 7.807-23.189 16.408-33.833 25.736-4.229 3.665-8.138 7.661-11.685 11.948-.146.174-.27.34-.384.505-4.145 5.365-3.494 7.147-3.193 7.562.318.448 1.939 1.74 9.335-.425.375-.103.734-.211 1.097-.323 5.879-1.976 11.592-4.385 17.087-7.205 11.843-5.992 23.282-12.698 34.249-20.079 19.754-13.147 36.959-27.283 44.9-36.896.318-.397.626-.784.919-1.153 4.244-5.475 3.586-7.286 3.281-7.712-.24-.281-.57-.491-.94-.579zm-109.682 76.938c-.818-.228-1.533-.716-2.029-1.385-1.45-2.034-.4-5.286 3.207-9.956.115-.17.275-.381.447-.586 3.616-4.373 7.602-8.45 11.915-12.189 10.721-9.395 22.108-18.056 34.077-25.926 19.68-13.098 38.884-23.334 51.37-27.381l.989-.308c6.786-2.077 10.85-2.018 12.426.192 1.466 2.056.379 5.371-3.328 10.154-.301.378-.62.784-.951 1.19-8.069 9.77-25.452 24.07-45.367 37.321-11.042 7.432-22.559 14.186-34.484 20.219-5.596 2.868-11.413 5.316-17.399 7.325-.395.127-.791.244-1.171.345-4.436 1.296-7.647 1.626-9.702.985z" fill="#112c41"/><path clip-rule="evenodd" d="m280.275 239.312c3.593 1.12 5.576 4.845 4.425 8.312s-5.003 5.372-8.596 4.251c-3.593-1.12-5.576-4.845-4.425-8.312s5.002-5.372 8.596-4.251z" fill="#fff" fill-rule="evenodd"/><path d="m279.944 240.307c-3.007-.938-6.273.677-7.236 3.578s.718 6.06 3.725 6.998c3.006.937 6.272-.678 7.235-3.579l.001-.001c.956-2.899-.723-6.052-3.726-6.992zm-4.17 12.565c-.001 0-.001 0-.002 0-4.138-1.291-6.452-5.638-5.126-9.631 1.326-3.992 5.822-6.216 9.959-4.925 4.139 1.291 6.452 5.638 5.127 9.631-1.329 3.989-5.822 6.211-9.958 4.925z" fill="#112c41"/><path d="m347.823 148.145c-7.746 9.373-24.446 23.337-45.131 37.105-11.006 7.406-22.485 14.135-34.368 20.147-5.546 2.841-11.31 5.269-17.241 7.262-.382.123-.76.235-1.122.33-2.427-2.975-4.87-5.867-7.36-8.719-.09-.105-.191-.214-.281-.319-15.49-17.722-29.481-31.318-43.419-42.543-1.466-1.166-2.936-2.331-4.405-3.459s-2.935-2.237-4.407-3.317c-1.472-1.09-2.951-2.152-4.429-3.185-1.292-.904-2.587-1.809-3.899-2.685-3.906-2.638-7.853-5.145-11.884-7.569-2.932-1.763-5.718-3.512-8.358-5.237-.881-.569-1.75-1.137-2.597-1.705-1.36-.907-2.665-1.811-3.936-2.715-1.89-1.331-3.691-2.669-5.374-3.974-.56-.435-1.113-.86-1.65-1.304-1.079-.859-2.103-1.717-3.086-2.564-5.604-4.891-9.536-9.499-11.493-13.786-.172-.375-.321-.749-.462-1.114l-.192-.546c-.24-.709-.426-1.434-.556-2.168-.063-.362-.105-.714-.136-1.065-.032-.342-.043-.693-.044-1.034s.022-.681.055-1.021c.034-.34.088-.679.166-1.017.138-.687.336-1.362.588-2.007.04-.122.087-.234.136-.346 1.184-2.707 3.063-5.078 5.461-6.883-14.638-10.481-7.698-30.94 13.529-33.96-12.657-11.211-.621-36.151 50.742-24.902 27.979 6.121 42.062 15.78 60.357 25.113 1.505-7.79 15.733-31.89 30.351-25.764 14.53 6.075 1.493 47.882 46.508 105.362 2.461 3.15 5.106 6.343 7.937 9.589z" fill="#ffd5c0"/><path d="m216.699 38.617c-4.348-1.355-9.06-2.609-14.264-3.756-31.611-6.914-47.912-.057-52.627 8.659-2.705 4.834-1.507 10.905 2.854 14.457.312.275.429.705.301 1.089-.126.384-.465.657-.872.719-10.227 1.452-17.845 7.26-19.88 15.156-1.638 6.356.916 12.689 6.835 16.927.372.268.529.737.387 1.158-.063.197-.182.363-.343.491-2.254 1.696-4.025 3.92-5.141 6.458-.051.121-.085.196-.112.28-.239.617-.425 1.245-.557 1.894-.077.329-.115.64-.154.942-.028.283-.039.614-.049.926.001.284.021.607.041.92.02.323.067.646.125.979.122.676.295 1.345.517 2.005l.189.546c.125.307.261.662.425 1.018 1.83 4.018 5.608 8.526 11.23 13.437.968.827 1.982 1.675 3.051 2.534.421.355.842.672 1.268 1.007l.372.287c1.665 1.295 3.456 2.623 5.332 3.944 1.264.894 2.561 1.789 3.911 2.695.847.568 1.71 1.136 2.585 1.704 2.67 1.736 5.47 3.494 8.327 5.208 4.227 2.554 8.129 5.04 11.93 7.599 1.316.886 2.617 1.791 3.916 2.705 1.482 1.034 2.97 2.105 4.449 3.196 1.48 1.09 2.95 2.199 4.424 3.327 1.475 1.138 2.948 2.303 4.423 3.479 14.213 11.443 28.459 25.398 43.557 42.672l.283.321c2.392 2.739 4.661 5.424 6.925 8.187.126-.039.254-.08.382-.122 5.88-1.973 11.593-4.381 17.09-7.199 11.843-5.992 23.282-12.698 34.249-20.079 19.304-12.849 36.173-26.637 44.345-36.233-2.633-3.041-5.12-6.058-7.397-8.974-27.792-35.495-33.506-64.656-37.28-83.944-2.241-11.426-3.713-18.964-8.791-21.092-3.363-1.399-6.96-1.148-10.693.764-9.281 4.759-17.036 18.402-18.166 24.245-.009.047-.02.085-.034.131-.182.543-.796.845-1.362.665-.06-.011-.118-.042-.173-.063-3.482-1.781-6.849-3.587-10.105-5.342-10.863-5.827-21.257-11.416-35.723-15.927zm32.93 175.369c-.205-.064-.386-.186-.519-.349-2.4-2.945-4.801-5.788-7.338-8.693l-.287-.325c-15.013-17.173-29.167-31.046-43.282-42.409-1.457-1.165-2.921-2.321-4.385-3.44-1.463-1.128-2.924-2.227-4.39-3.307-1.467-1.08-2.933-2.142-4.412-3.166-1.293-.914-2.576-1.808-3.883-2.675-3.773-2.548-7.646-5.015-11.836-7.549-2.877-1.723-5.701-3.493-8.391-5.248-.883-.578-1.759-1.147-2.616-1.724-1.364-.907-2.678-1.812-3.957-2.725-1.898-1.341-3.718-2.689-5.412-3.994l-.374-.287c-.441-.346-.877-.692-1.301-1.037-1.079-.869-2.112-1.727-3.104-2.583-5.938-5.176-9.786-9.801-11.765-14.145-.18-.385-.336-.778-.484-1.162l-.206-.594c-.256-.756-.456-1.53-.597-2.311-.069-.391-.114-.78-.149-1.15-.025-.417-.048-.769-.047-1.128.011-.388.025-.757.06-1.125.052-.405.102-.773.189-1.149.149-.733.359-1.446.629-2.147.031-.094.084-.224.141-.355 1.061-2.474 2.692-4.693 4.771-6.47-5.878-4.729-8.336-11.495-6.581-18.301 2.111-8.196 9.549-14.342 19.636-16.376-3.897-4.285-4.639-10.492-1.857-15.513 5.086-9.404 22.212-16.906 55.021-9.726 22.82 5.004 36.295 12.238 50.562 19.904 2.859 1.534 5.804 3.117 8.832 4.675 1.977-6.733 9.751-19.627 18.94-24.342 4.342-2.224 8.57-2.501 12.568-.825 6.135 2.57 7.698 10.546 10.062 22.62 3.74 19.098 9.393 47.972 36.879 83.069 2.419 3.1 5.076 6.312 7.9 9.549.328.38.335.939.016 1.326-8.064 9.761-25.446 24.061-45.362 37.31-11.042 7.433-22.559 14.187-34.483 20.22-5.597 2.868-11.413 5.315-17.399 7.324-.395.127-.792.244-1.171.346-.199.053-.415.049-.618-.013z" fill="#112c41"/><path d="m251.433 212.735c1.115-.344 2.312-.728 3.55-1.165-1.24.448-2.427.835-3.55 1.165z" fill="#f4b8aa"/><path d="m268.323 205.397c-5.546 2.841-11.31 5.269-17.241 7.262-.382.123-.76.235-1.122.33-2.427-2.975-4.87-5.867-7.36-8.719-.09-.105-.191-.214-.281-.319-15.49-17.722-29.481-31.318-43.419-42.543-1.466-1.166-2.936-2.331-4.405-3.459s-2.935-2.237-4.407-3.317c-1.472-1.09-2.951-2.152-4.429-3.185-1.292-.904-2.587-1.809-3.899-2.685-3.902-2.647-7.847-5.164-11.88-7.578-2.932-1.763-5.72-3.512-8.361-5.228-.881-.569-1.75-1.137-2.597-1.705-1.36-.907-2.665-1.811-3.936-2.715-1.89-1.331-3.691-2.669-5.374-3.974-.56-.435-1.113-.86-1.65-1.304-1.079-.859-2.103-1.717-3.086-2.564-5.604-4.891-9.536-9.499-11.493-13.786-.172-.375-.321-.749-.462-1.114l-.192-.546c-.24-.709-.426-1.434-.556-2.168-.063-.362-.105-.714-.136-1.065-.032-.342-.043-.693-.044-1.034s.022-.681.055-1.021c.034-.34.088-.679.156-1.017.142-.686.342-1.362.598-2.006.04-.122.087-.234.136-.346 5.27 9.737 20.667 20.707 42.741 32.485 26.566 14.142 50.672 31.592 79.149 59.559 1.935 1.887 3.891 3.834 5.87 5.839 2.57 2.58 5.112 5.221 7.625 7.923z" fill="#f4b8aa"/><path d="m138.399 92.699c14.241-9.945 41.294-2.85 65.35 12.648" fill="#ffd5c0"/><path d="m138.068 93.702c-.563-.18-.876-.777-.695-1.32.071-.215.209-.4.395-.527 13.7-9.565 39.836-4.612 66.585 12.622.4.259.574.748.428 1.188-.182.543-.796.845-1.362.675-.094-.031-.182-.072-.264-.122-25.589-16.486-51.355-21.578-64.115-12.664-.281.199-.643.244-.972.148z" fill="#112c41"/><path d="m151.924 58.748c12.723-2.203 33.538-.105 57.563 14.01" fill="#ffd5c0"/><path d="m151.595 59.741c-.566-.18-.882-.768-.701-1.32.122-.365.444-.639.836-.701 7.952-1.375 29.553-2.755 58.317 14.148.42.251.609.749.458 1.208-.182.543-.796.845-1.362.665-.076-.021-.149-.052-.218-.092-28.13-16.522-49.098-15.207-56.808-13.871-.173.031-.353.016-.522-.037z" fill="#112c41"/><path d="m217.771 58.242c-8.736 10.96-16.079 42.852-14.34 60.454" fill="#ffd5c0"/><path d="m203.102 119.689c-.411-.127-.708-.478-.749-.896-1.797-18.21 5.821-50.235 14.558-61.195.277-.341.756-.486 1.189-.349.566.17.883.768.702 1.311-.038.122-.096.224-.173.326-8.49 10.646-15.88 41.902-14.12 59.713.014.143-.002.284-.047.415-.132.403-.499.684-.929.727-.145.004-.291-.01-.431-.052z" fill="#112c41"/><path d="m263.029 58.969c-5.414 18.151-3.241 30.333-3.241 30.333" fill="#ffd5c0"/><path d="m259.457 90.295c-.383-.126-.668-.439-.737-.829-.09-.505-3.15-12.616 2.271-30.796.164-.553.769-.874 1.34-.713.567.17.898.749.741 1.303-5.272 17.673-2.239 29.746-2.216 29.86.029.171.017.341-.036.501-.123.365-.451.638-.849.71-.172.022-.348.007-.514-.036z" fill="#112c41"/><path d="m216.699 38.617c-4.348-1.355-9.06-2.609-14.264-3.756-31.611-6.914-47.912-.057-52.627 8.659-2.705 4.834-1.507 10.905 2.854 14.457.312.275.429.705.301 1.089-.126.384-.465.657-.872.719-10.227 1.452-17.845 7.26-19.88 15.156-1.638 6.356.916 12.689 6.835 16.927.372.268.529.737.387 1.158-.063.197-.182.363-.343.491-2.254 1.696-4.025 3.92-5.141 6.458-.051.121-.085.196-.112.28-.239.617-.425 1.245-.557 1.894-.077.329-.115.64-.154.942-.028.283-.039.614-.049.926.001.284.021.607.041.92.02.323.067.646.125.979.122.676.295 1.345.517 2.005l.189.546c.125.307.261.662.425 1.018 1.83 4.018 5.608 8.526 11.23 13.437.968.827 1.982 1.675 3.051 2.534.421.355.842.672 1.268 1.007l.372.287c1.665 1.295 3.456 2.623 5.332 3.944 1.264.894 2.561 1.789 3.911 2.695.847.568 1.71 1.136 2.585 1.704 2.67 1.736 5.47 3.494 8.327 5.208 4.227 2.554 8.129 5.04 11.93 7.599 1.316.886 2.617 1.791 3.916 2.705 1.482 1.034 2.97 2.105 4.449 3.196 1.48 1.09 2.95 2.199 4.424 3.327 1.475 1.138 2.948 2.303 4.423 3.479 14.213 11.443 28.459 25.398 43.557 42.672l.283.321c2.392 2.739 4.661 5.424 6.925 8.187.126-.039.254-.08.382-.122 5.88-1.973 11.593-4.381 17.09-7.199 11.843-5.992 23.282-12.698 34.249-20.079 19.304-12.849 36.173-26.637 44.345-36.233-2.633-3.041-5.12-6.058-7.397-8.974-27.792-35.495-33.506-64.656-37.28-83.944-2.241-11.426-3.713-18.964-8.791-21.092-3.363-1.399-6.96-1.148-10.693.764-9.281 4.759-17.036 18.402-18.166 24.245-.009.047-.02.085-.034.131-.182.543-.796.845-1.362.665-.06-.011-.118-.042-.173-.063-3.482-1.781-6.849-3.587-10.105-5.342-10.863-5.827-21.257-11.416-35.723-15.927zm32.93 175.369c-.205-.064-.386-.186-.519-.349-2.4-2.945-4.801-5.788-7.338-8.693l-.287-.325c-15.013-17.173-29.167-31.046-43.282-42.409-1.457-1.165-2.921-2.321-4.385-3.44-1.463-1.128-2.924-2.227-4.39-3.307-1.467-1.08-2.933-2.142-4.412-3.166-1.293-.914-2.576-1.808-3.883-2.675-3.773-2.548-7.646-5.015-11.836-7.549-2.877-1.723-5.701-3.493-8.391-5.248-.883-.578-1.759-1.147-2.616-1.724-1.364-.907-2.678-1.812-3.957-2.725-1.898-1.341-3.718-2.689-5.412-3.994l-.374-.287c-.441-.346-.877-.692-1.301-1.037-1.079-.869-2.112-1.727-3.104-2.583-5.938-5.176-9.786-9.801-11.765-14.145-.18-.385-.336-.778-.484-1.162l-.206-.594c-.256-.756-.456-1.53-.597-2.311-.069-.391-.114-.78-.149-1.15-.025-.417-.048-.769-.047-1.128.011-.388.025-.757.06-1.125.052-.405.102-.773.189-1.149.149-.733.359-1.446.629-2.147.031-.094.084-.224.141-.355 1.061-2.474 2.692-4.693 4.771-6.47-5.878-4.729-8.336-11.495-6.581-18.301 2.111-8.196 9.549-14.342 19.636-16.376-3.897-4.285-4.639-10.492-1.857-15.513 5.086-9.404 22.212-16.906 55.021-9.726 22.82 5.004 36.295 12.238 50.562 19.904 2.859 1.534 5.804 3.117 8.832 4.675 1.977-6.733 9.751-19.627 18.94-24.342 4.342-2.224 8.57-2.501 12.568-.825 6.135 2.57 7.698 10.546 10.062 22.62 3.74 19.098 9.393 47.972 36.879 83.069 2.419 3.1 5.076 6.312 7.9 9.549.328.38.335.939.016 1.326-8.064 9.761-25.446 24.061-45.362 37.31-11.042 7.433-22.559 14.187-34.483 20.22-5.597 2.868-11.413 5.315-17.399 7.324-.395.127-.792.244-1.171.346-.199.053-.415.049-.618-.013z" fill="#112c41"/><path d="m1221.545 269.306c.145.783.344 1.636.589 2.532.085.29.17.589.245.895 3.155 10.827 12.062 28.677 24.469 48.076 7.271 11.501 15.351 22.563 24.196 33.109 1.869 2.18 3.659 4.184 5.361 5.973 1.966 2.1 4.049 4.105 6.24 6.004.175.158.359.309.544.452.967.826 1.992 1.6 3.057 2.315.214-.163.428-.335.632-.501.7-.568 1.391-1.128 2.073-1.691 1.032-.858 2.064-1.717 3.058-2.58.351-.297.692-.588 1.023-.887.175-.145.341-.29.516-.435.166-.144.332-.299.498-.445 1.033-.901 2.048-1.806 3.044-2.713.586-.535 1.162-1.062 1.738-1.599.635-.586 1.27-1.181 1.895-1.771.117-.11.235-.229.352-.34.674-.641 1.33-1.275 1.985-1.91.059-.061.127-.119.176-.179.616-.599 1.214-1.2 1.811-1.794.803-.809 1.596-1.611 2.371-2.418 1.137-1.17 2.245-2.335 3.316-3.498.068-.067.127-.135.196-.21.285-.299.569-.606.835-.916 2.436-2.658 4.739-5.309 6.918-7.951.542-.654 1.075-1.31 1.599-1.966.642-.793 1.264-1.573 1.877-2.361.485-.629.979-1.256 1.454-1.886 2.613-3.424 5.034-6.795 7.255-10.116.448-.66.877-1.324 1.315-1.987.02-.028.04-.056.06-.085.409-.625.808-1.249 1.208-1.875.05-.078.1-.157.15-.226.36-.58.72-1.151 1.079-1.724.08-.116.15-.243.22-.36.33-.526.64-1.044.961-1.562.391-.644.771-1.273 1.142-1.912.371-.638.733-1.261 1.094-1.884.914-1.586 1.78-3.148 2.607-4.685.172-.327.343-.644.515-.97 1.574-2.946 2.985-5.798 4.249-8.527.254-.528.499-1.058.734-1.581.398-.876.777-1.73 1.145-2.576.123-.282.246-.564.359-.838.246-.556.472-1.106.698-1.648s.452-1.075.659-1.61c.658-1.586 1.239-3.105 1.769-4.555.177-.489.354-.961.521-1.434.23-.645.449-1.274.668-1.886.168-.508.345-.998.503-1.481.105-.319.21-.63.305-.934l.105-.32c.085-.278.179-.549.254-.821.063-.18.125-.359.169-.534.095-.312.191-.617.286-.92.49-1.638.907-3.098 1.233-4.366.325-1.243.578-2.298.767-3.156.345-1.567.68-3.102.984-4.579.101-.467.192-.936.292-1.394.203-.987.386-1.949.569-2.895.538-2.831.985-5.469 1.333-7.977 5.68 7.183 12.628 11.266 18.175 10.153.381-.075.763-.176 1.137-.305.172-.059.345-.126.508-.202.509-.215.981-.475 1.427-.776.61-.407 1.156-.882 1.637-1.416.777-.885 1.416-1.874 1.886-2.937.174-.386.339-.791.495-1.215.083-.228.157-.466.232-.713.95-3.546 1.139-7.253.569-10.918v-.011c-.145-1.068-.336-2.161-.583-3.272-.238-1.111-.541-2.248-.882-3.383 0-.001-.009-.006-.009-.011-.273-.908-.583-1.831-.931-2.76s-.724-1.864-1.138-2.803c-1.865-4.309-4.401-8.363-7.537-12.029-.438-.512-.885-1.001-1.334-1.471-5.538-5.764-11.825-8.623-16.758-6.911-.623.226-1.219.509-1.761.86-.2-.527-.41-1.055-.62-1.602 0 0 22.461-19.577 11.699-29.164-15.278-13.589-62.051 15.695-86.289 36.909-11.602 10.154-27.719 30.295-50.34 48.697-2.216 1.819-4.5 3.615-6.859 5.393z" fill="#ffd5c0"/><path d="m1337.847 267.397c4.699.77 9.722-1.373 14.223-6.097 4.6-4.834 8.164-11.835 10.015-19.72 3.402-14.438-.524-29.15-8.921-33.496-.103-.051-.215-.092-.328-.106-.499-.083-.974.233-1.046.695-.059.358.146.724.51.897 7.568 3.921 11.153 18.087 7.971 31.59-1.785 7.613-5.208 14.355-9.621 18.984-4.276 4.488-8.951 6.417-13.16 5.442-8.908-2.065-13.188-16.388-9.531-31.925.818-3.556 2.058-7.008 3.672-10.298.04-.073.062-.149.074-.23.072-.462-.282-.912-.791-.995-.405-.066-.809.123-.972.464-1.674 3.399-2.957 6.964-3.807 10.638-3.866 16.451 1.055 31.706 10.959 34.006.254.06.499.109.753.151z" fill="#112c41"/><path d="m1321.29 229.18c.188.031.379.007.552-.068 8.714-3.817 21.534-12.17 31.921-20.771.156-.127.256-.304.291-.492.063-.471-.292-.919-.791-1.001-.283-.038-.56.029-.764.202-10.27 8.505-22.926 16.752-31.505 20.513-.269.118-.457.35-.494.625-.073.46.281.909.79.992z" fill="#112c41"/><path d="m1276.405 359.892c1.966 2.1 4.04 4.104 6.24 6.004.165.158.35.309.534.451.976.827 2.002 1.6 3.067 2.316.214-.164.428-.336.632-.501.7-.568 1.391-1.128 2.073-1.691 1.032-.858 2.064-1.718 3.058-2.581.351-.297.682-.587 1.023-.886s.682-.588 1.014-.879c1.033-.901 2.048-1.806 3.044-2.713.586-.535 1.162-1.062 1.738-1.599.635-.587 1.27-1.181 1.886-1.772.127-.109.244-.228.352-.339.674-.641 1.339-1.276 1.995-1.911.059-.06.118-.118.176-.178.616-.6 1.214-1.2 1.801-1.794.813-.808 1.606-1.611 2.381-2.417 1.127-1.171 2.245-2.336 3.316-3.498.068-.067.127-.135.196-.21.275-.3.56-.607.835-.916 2.436-2.658 4.739-5.309 6.909-7.952.542-.654 1.075-1.309 1.608-1.966.642-.793 1.254-1.572 1.877-2.36.485-.629.979-1.256 1.454-1.887 2.613-3.423 5.034-6.794 7.255-10.115.448-.66.877-1.324 1.306-1.988.029-.026.049-.055.069-.085.399-.624.808-1.249 1.207-1.874.05-.079.1-.157.15-.226.36-.58.72-1.151 1.07-1.724.089-.116.15-.243.23-.361.32-.525.64-1.043.951-1.562.391-.644.771-1.273 1.142-1.911.371-.639.742-1.26 1.104-1.884.914-1.586 1.78-3.148 2.607-4.686.172-.326.343-.643.515-.969 1.574-2.947 2.985-5.798 4.249-8.527.254-.528.489-1.059.734-1.581.398-.876.777-1.73 1.145-2.576.123-.282.246-.565.359-.839.245-.555.472-1.105.698-1.647s.443-1.075.659-1.611c.649-1.586 1.229-3.106 1.769-4.555.177-.488.354-.961.521-1.434.239-.643.458-1.272.668-1.885.168-.508.336-.998.503-1.481.105-.319.21-.63.296-.935l.105-.319c.094-.279.179-.549.264-.821.063-.18.116-.361.169-.534.096-.313.181-.617.277-.922.499-1.637.917-3.097 1.242-4.365-9.555 21.864-28.69 53.419-65.849 81.709-3.992 3.043-8.2 6.039-12.624 8.987z" fill="#f4b8aa"/><path d="m1358.955 248.352c-.509-.083-.983.23-1.055.691v.011c-.336 2.443-.772 5.039-1.323 7.94l-.045.207c-.161.877-.342 1.767-.524 2.677l-.282 1.385c-.314 1.478-.648 3.01-.994 4.574-.18.852-.442 1.905-.756 3.128-.326 1.271-.743 2.728-1.232 4.335l-.286.921c-.044.18-.096.337-.149.492-.085.279-.159.509-.233.744l-.137.423c-.084.268-.169.528-.263.795l-.042.136c-.116.347-.231.698-.357 1.054l-.805 2.295c-.125.346-.25.688-.375 1.037l-.146.393c-.593 1.612-1.172 3.09-1.759 4.528-.166.428-.34.851-.525 1.277l-.206.508c-.196.479-.401.963-.616 1.454l-.062.153c-.102.224-.195.451-.297.678-.369.857-.747 1.705-1.136 2.577l-.133.291c-.203.423-.397.851-.601 1.278-1.345 2.895-2.765 5.75-4.229 8.493l-.524.972c-.767 1.438-1.613 2.962-2.587 4.661l-.161.275c-.302.529-.613 1.063-.933 1.594-.372.646-.752 1.27-1.142 1.91-.311.516-.63 1.031-.951 1.556l-.09.147c-.03.057-.061.114-.1.167-.29.47-.559.886-.819 1.307l-.29.459c-.03.044-.08.124-.13.207-.399.626-.798 1.232-1.187 1.838-.01.016-.05.078-.06.09-.469.713-.897 1.362-1.335 2.011-2.281 3.401-4.712 6.79-7.235 10.079-.307.419-.633.829-.95 1.241l-.495.645c-.613.778-1.225 1.555-1.867 2.345-.523.656-1.056 1.308-1.598 1.956-2.209 2.682-4.522 5.348-6.88 7.923-.285.313-.56.616-.835.908l-.177.196c-1.09 1.179-2.198 2.337-3.325 3.504-.775.804-1.558 1.602-2.371 2.405-.588.594-1.185 1.195-1.792 1.791l-.205.202c-.626.607-1.281 1.239-1.956 1.878-.108.117-.225.222-.342.328-.626.598-1.261 1.189-1.895 1.773-.41.388-.83.767-1.24 1.147l-.488.451c-.995.9-2 1.799-3.034 2.699l-.156.14c-.107.099-.215.199-.331.291l-.517.462c-.165.131-.341.284-.516.434l-.497.421c-1.004.868-2.026 1.727-3.058 2.578-.681.561-1.363 1.121-2.063 1.685l-.078.062c-.722-.506-1.506-1.115-2.382-1.849-.194-.15-.36-.284-.516-.424-2.172-1.885-4.237-3.873-6.185-5.956-1.62-1.704-3.409-3.701-5.333-5.94-8.809-10.519-16.871-21.547-24.115-33.007-12.001-18.769-21.116-36.659-24.373-47.856-.066-.286-.16-.599-.245-.904-.186-.678-.353-1.342-.475-1.968 2.175-1.65 4.362-3.364 6.484-5.101 14.04-11.426 25.7-23.645 35.076-33.464 5.836-6.125 10.896-11.408 15.283-15.252 26.743-23.399 71.159-49.249 85.012-36.937 1.703 1.486 2.656 3.563 2.615 5.691.141 9.492-14.193 22.113-14.339 22.231-.254.228-.341.576-.219.892l.619 1.602c.113.307.399.534.738.583.245.046.483-.003.677-.129.484-.306 1.013-.563 1.568-.753 4.377-1.522 10.251.963 15.724 6.656.43.454.869.932 1.297 1.433 3.072 3.603 5.563 7.584 7.393 11.814.432.977.8 1.881 1.13 2.758.33.892.641 1.804.914 2.71.009.026.017.052.026.076.332 1.132.618 2.226.849 3.256.222 1.028.414 2.092.558 3.161-.001.019-.001.037.008.056.555 3.553.37 7.146-.548 10.584-.064.232-.138.459-.212.677-.146.408-.31.792-.474 1.16-.43.986-1.029 1.903-1.747 2.724-.432.482-.929.911-1.472 1.278-.407.272-.841.509-1.292.707-.134.054-.297.112-.441.165-.335.115-.679.21-1.032.282-5.013 1.005-11.602-2.749-17.183-9.807-.151-.191-.365-.32-.61-.362zm-72.831 121.154c.264.044.531-.021.735-.176.214-.169.437-.344.642-.514.71-.576 1.401-1.133 2.082-1.699 1.042-.86 2.074-1.724 3.077-2.592.156-.134.331-.28.497-.428.175-.148.341-.295.516-.438l.517-.459c.117-.097.244-.211.37-.324l.137-.125c1.033-.898 2.057-1.805 3.063-2.718l.488-.451c.42-.385.84-.768 1.25-1.156.635-.586 1.279-1.183 1.896-1.776.117-.106.254-.232.371-.351.665-.63 1.329-1.266 1.985-1.904l.206-.204c.587-.578 1.194-1.182 1.782-1.78.813-.808 1.616-1.618 2.39-2.427 1.137-1.172 2.245-2.343 3.326-3.514.039-.038.088-.096.147-.157.334-.354.619-.668.894-.983 2.367-2.587 4.709-5.274 6.938-7.974.542-.656 1.075-1.315 1.609-1.976.641-.793 1.264-1.574 1.877-2.368l.504-.648c.326-.418.643-.835.96-1.253 2.533-3.31 4.984-6.727 7.285-10.151.438-.652.867-1.312 1.305-1.972.03-.05.07-.102.1-.156.399-.608.798-1.22 1.187-1.836l.439-.688c.27-.425.53-.848.79-1.271.039-.043.09-.141.15-.235l.07-.112c.33-.536.65-1.057.961-1.577.4-.65.781-1.282 1.152-1.926.32-.53.641-1.071.943-1.611l.161-.275c.984-1.712 1.84-3.254 2.617-4.709l.515-.97c1.483-2.767 2.913-5.649 4.269-8.564.203-.426.407-.86.601-1.29l.133-.293c.408-.884.786-1.742 1.155-2.592.102-.225.205-.463.307-.698l.062-.143c.215-.492.421-.987.626-1.476l.206-.507c.175-.433.36-.861.526-1.295.597-1.445 1.177-2.945 1.779-4.575l.146-.393c.125-.356.25-.704.375-1.052l.815-2.314c.126-.363.241-.717.357-1.069l.052-.134c.085-.277.179-.549.264-.813l.137-.415c.074-.247.158-.493.223-.74.062-.155.125-.359.179-.555l.254-.822c.511-1.702.929-3.182 1.265-4.473.325-1.242.588-2.312.768-3.183.355-1.569.68-3.107.994-4.588l.292-1.391c.182-.927.354-1.821.525-2.702l.045-.21c.412-2.154.752-4.141 1.042-6.025 5.758 6.561 12.445 9.929 17.773 8.856.438-.089.859-.206 1.271-.348.182-.064.383-.138.566-.213.557-.24 1.087-.529 1.581-.863.668-.446 1.263-.968 1.793-1.552.836-.948 1.515-2.006 2.026-3.142.174-.39.349-.813.506-1.261.083-.234.167-.483.242-.738.982-3.639 1.183-7.444.597-11.207.001-.021.001-.042-.007-.061-.152-1.13-.352-2.252-.591-3.337-.229-1.084-.541-2.248-.9-3.442-.008-.03-.017-.059-.025-.087-.282-.914-.593-1.835-.932-2.736-.33-.902-.716-1.838-1.156-2.847-1.9-4.388-4.481-8.517-7.672-12.252-.447-.519-.904-1.02-1.361-1.502-6.023-6.26-12.676-8.942-17.8-7.16-.316.113-.633.235-.931.386l-.026-.077c2.489-2.247 14.616-13.701 14.481-23.079.019-2.594-1.147-5.122-3.227-6.942-8.986-7.994-27.188-1.551-40.877 5.26-18.02 8.958-35.935 22.21-46.689 31.625-4.455 3.894-9.516 9.207-15.391 15.355-9.346 9.783-20.968 21.962-34.92 33.321-2.248 1.831-4.542 3.634-6.843 5.366-.243.188-.366.485-.31.783.153.811.351 1.687.605 2.604.094.293.17.58.246.872 3.308 11.375 12.492 29.431 24.575 48.328 7.298 11.532 15.406 22.628 24.269 33.21 1.969 2.294 3.732 4.26 5.397 6.011 1.984 2.123 4.095 4.15 6.304 6.071.165.154.377.321.581.482.995.842 2.039 1.63 3.122 2.358.12.076.25.13.392.154z" fill="#112c41"/><path clip-rule="evenodd" d="m1409.212 224.811c57.64 0 104.44 5.377 104.44 12s-46.8 12-104.44 12c-57.65 0-104.45-5.377-104.45-12s46.8-12 104.45-12z" fill="#ffa8db" fill-rule="evenodd"/><path d="m1409.211 249.81c-27.919 0-54.184-1.251-73.958-3.522-31.492-3.618-31.492-8.028-31.492-9.478s0-5.859 31.492-9.478c19.774-2.271 46.039-3.522 73.958-3.522 27.915 0 54.177 1.251 73.949 3.522 31.491 3.618 31.491 8.028 31.491 9.478s0 5.859-31.491 9.478c-19.772 2.271-46.034 3.522-73.949 3.522zm0-24c-27.845 0-54.029 1.246-73.729 3.51-29.383 3.376-29.721 7.324-29.721 7.49s.338 4.114 29.721 7.49c19.7 2.264 45.885 3.51 73.729 3.51 27.841 0 54.022-1.246 73.722-3.51 29.381-3.376 29.719-7.324 29.719-7.49s-.338-4.114-29.719-7.49c-19.699-2.263-45.881-3.51-73.722-3.51z" fill="#112c41"/><path clip-rule="evenodd" d="m1502.792 230.908c-17.4-2.644-33.04-3.993-47.87-4.737v21.138c15.89-.95 31.82-2.348 47.87-4.675z" fill="#dddefd" fill-rule="evenodd"/><path d="m1454.921 248.308c-.254 0-.5-.097-.686-.272-.201-.188-.314-.452-.314-.728v-21.138c0-.273.112-.536.311-.725s.468-.287.739-.274c17.045.855 32.288 2.364 47.971 4.748.488.074.85.494.85.988v11.726c0 .497-.365.918-.856.989-14.555 2.11-29.792 3.599-47.954 4.684-.021.002-.041.002-.061.002zm1-21.084v19.022c17.285-1.054 31.915-2.482 45.87-4.479v-9.999c-14.994-2.251-29.624-3.7-45.87-4.544z" fill="#112c41"/><path clip-rule="evenodd" d="m1514.382 220.188c6.47 0 12.06 3.796 14.67 9.281 2.86 6.018 10.04 8.603 16.08 5.789 3.52-1.645 6.1-3.475 6.1-3.475s-9.49 25.545-36.85 20.871c-8.83-1.509-16.23-7.274-16.23-16.233 0-8.96 7.27-16.233 16.23-16.233z" fill="#fba952" fill-rule="evenodd"/><path clip-path="url(#a)" clip-rule="evenodd" d="m1500.762 226.751s7 23.231 26 18c19-5.23 24.47-14 24.47-14s-5.47 11-10.47 14-8 7-22 7c-5 0-14-2-18-8-2.99-4.481-5-8 0-17z" fill="#ff9321" fill-rule="evenodd"/><path d="m1520.843 254.222c-2.088 0-4.296-.183-6.63-.582-10.364-1.771-17.062-8.53-17.062-17.219 0-9.503 7.729-17.233 17.229-17.233 6.613 0 12.726 3.867 15.573 9.852 2.613 5.502 9.231 7.883 14.755 5.312 3.388-1.583 5.919-3.366 5.944-3.384.356-.254.839-.244 1.188.022.348.268.48.73.328 1.142-.089.241-8.494 22.09-31.325 22.09zm-6.462-33.035c-8.397 0-15.229 6.834-15.229 15.233 0 9.312 8.295 14.033 15.398 15.248 20.896 3.564 30.961-10.786 34.368-17.256-.953.547-2.097 1.159-3.364 1.751-6.515 3.034-14.321.224-17.406-6.266-2.518-5.291-7.921-8.71-13.767-8.71z" fill="#112c41"/><path clip-rule="evenodd" d="m1348.432 238.258c34.95 2.882 69.05 2.835 105.46 1.135v7.26s-52.62 1.548-62.32 1.269c-9.73-.279-47.89-2.382-47.83-2.768 1.96-2.369 3.32-4.631 4.69-6.896z" fill="#ff8fd7" fill-rule="evenodd"/><path clip-rule="evenodd" d="m1455.962 239.667c13.2.084 26.84-.124 41.37-.781l.97 3.448c-14.07 1.765-28.19 2.976-42.34 3.887z" fill="#b1aff6" fill-rule="evenodd"/><path d="m1292.213 231.488c29.283-15.731 43.954-10.702 46.429-3.077 3.008 9.252-9.265 24.251-33.613 35.896 1.776 10.751-1.353 27.499-9.12 37.639" fill="#ffd5c0"/><path d="m1295.347 302.901c.348.059.703-.07.901-.331 7.886-10.287 10.91-27.043 9.366-37.654 23.121-11.195 36.872-26.201 33.494-36.608-1.084-3.019-3.626-5.446-6.866-6.538-5.255-2.004-17.543-3.484-40.946 9.088-.231.126-.39.343-.427.594-.072.462.282.91.791.993.217.036.436 0 .619-.099 22.719-12.21 34.378-10.874 39.306-8.998 2.697.893 4.828 2.897 5.739 5.4 2.665 8.191-7.873 22.813-33.173 34.914-.337.162-.528.507-.464.861 1.688 10.24-1.2 26.89-8.967 37.03-.089.106-.14.229-.154.359-.072.462.282.91.781.992z" fill="#112c41"/><path clip-rule="evenodd" d="m285.33 65.816c20.903 3.27 36.558 14.34 34.936 24.7-1.621 10.36-19.908 16.12-40.811 12.85-20.903-3.28-36.557-14.34-34.936-24.7s19.908-16.12 40.811-12.85zm-96.099-63c99.349 9.6 176.406 54.67 171.968 100.58-4.437 45.91-88.699 75.39-188.048 65.79-99.349-9.61-176.406-54.68-171.969-100.59s88.699-75.39 188.049-65.78z" fill="#ffe892" fill-rule="evenodd"/><path d="m210.096 171.989c-12.022 0-24.407-.587-37.041-1.808-48.192-4.661-92.695-17.736-125.312-36.814-32.853-19.216-49.742-42.252-47.556-64.867 2.186-22.614 23.174-41.99 59.098-54.558 35.67-12.476 81.85-16.783 130.043-12.121h-.001c48.191 4.656 92.695 17.728 125.313 36.806 32.852 19.215 49.74 42.251 47.554 64.866-3.917 40.54-69.149 68.494-152.098 68.496zm-58.231-170.001c-34.075 0-65.84 4.719-91.92 13.843-35.146 12.294-55.661 31.067-57.768 52.861-4.379 45.315 72.362 89.95 171.07 99.499 12.646 1.222 25.062 1.81 37.084 1.81 81.822.003 146.054-27.188 149.872-66.7 2.106-21.794-14.434-44.149-46.573-62.947-32.373-18.935-76.587-31.913-124.495-36.543-.001 0-.001 0-.001 0-12.614-1.219-25.09-1.823-37.269-1.823zm138.979 103.282c-3.697 0-7.575-.296-11.543-.916-21.428-3.362-37.474-14.954-35.77-25.842 1.704-10.898 20.525-17.033 41.954-13.685 10.259 1.605 19.612 5.108 26.338 9.863 6.928 4.898 10.277 10.574 9.432 15.979-1.39 8.882-14.143 14.601-30.411 14.601zm-17.16-39.379c-15.163 0-26.941 5.033-28.177 12.931-1.533 9.799 13.765 20.366 34.104 23.557 20.337 3.184 38.134-2.207 39.667-12.016.723-4.616-2.335-9.602-8.61-14.038-6.479-4.58-15.531-7.962-25.491-9.52-3.961-.621-7.827-.914-11.493-.914z" fill="#112c41"/><path clip-rule="evenodd" d="m55.612 52.962c16.694 0 30.248 6.16 30.248 13.75 0 7.58-13.554 13.74-30.248 13.74s-30.248-6.16-30.248-13.74c.001-7.59 13.554-13.75 30.248-13.75z" fill="#ffa8db" fill-rule="evenodd"/><path d="m55.613 81.452c-17.522 0-31.248-6.475-31.248-14.74 0-8.271 13.726-14.75 31.248-14.75 17.521 0 31.247 6.479 31.247 14.75 0 8.265-13.726 14.74-31.247 14.74zm0-27.49c-15.854 0-29.248 5.839-29.248 12.75 0 6.906 13.394 12.74 29.248 12.74s29.247-5.834 29.247-12.74c0-6.911-13.394-12.75-29.247-12.75z" fill="#112c41"/><path clip-rule="evenodd" d="m122.4 18.897c16.694 0 30.248 6.16 30.248 13.75 0 7.58-13.554 13.74-30.248 13.74s-30.248-6.16-30.248-13.74c0-7.59 13.553-13.75 30.248-13.75z" fill="#fff" fill-rule="evenodd"/><path d="m122.4 47.387c-17.522 0-31.248-6.475-31.248-14.739 0-8.271 13.726-14.75 31.248-14.75 17.521 0 31.247 6.479 31.247 14.75 0 8.264-13.726 14.739-31.247 14.739zm0-27.49c-15.854 0-29.248 5.839-29.248 12.75 0 6.905 13.394 12.739 29.248 12.739s29.247-5.834 29.247-12.739c0-6.911-13.394-12.75-29.247-12.75z" fill="#112c41"/><path clip-rule="evenodd" d="m189.576 121.03c16.694 0 30.248 6.16 30.248 13.75 0 7.58-13.554 13.74-30.248 13.74s-30.248-6.16-30.248-13.74c0-7.59 13.554-13.75 30.248-13.75z" fill="#9695f6" fill-rule="evenodd"/><path d="m189.577 149.519c-17.522 0-31.248-6.475-31.248-14.739 0-8.271 13.726-14.75 31.248-14.75 17.521 0 31.247 6.479 31.247 14.75 0 8.265-13.726 14.739-31.247 14.739zm0-27.489c-15.854 0-29.248 5.839-29.248 12.75 0 6.905 13.394 12.739 29.248 12.739s29.247-5.834 29.247-12.739c0-6.911-13.394-12.75-29.247-12.75z" fill="#112c41"/><path clip-rule="evenodd" d="m103.945 100.391c16.694 0 30.248 6.16 30.248 13.75 0 7.58-13.554 13.74-30.248 13.74s-30.248-6.16-30.248-13.74c0-7.59 13.554-13.75 30.248-13.75z" fill="#ffd069" fill-rule="evenodd"/><path d="m103.945 128.881c-17.522 0-31.248-6.475-31.248-14.74 0-8.271 13.726-14.75 31.248-14.75s31.248 6.479 31.248 14.75c0 8.265-13.726 14.74-31.248 14.74zm0-27.49c-15.854 0-29.248 5.839-29.248 12.75 0 6.906 13.394 12.74 29.248 12.74s29.248-5.834 29.248-12.74c0-6.912-13.394-12.75-29.248-12.75z" fill="#112c41"/><path d="m310.935 87.681c-.626-1.681-5.812-12.614-8.496-43.138-.452-5.139-.966-10.134-2.078-15.255-.043-.2-.149-.374-.238-.557-.212-.471-.451-.924-.716-1.359-.01 0-.01 0 0-.009-.819-1.324-1.944-2.431-3.279-3.214-.232-.131-.465-.252-.718-.374-.183-.082-.375-.173-.569-.237-.065-.04-.133-.071-.202-.092-.06-.021-.121-.042-.184-.063-.465-.176-.946-.306-1.436-.398-9.109-1.74-20.726 9.92-27.483 26.039 0 .009-.004.019-.01.019-.191.467-.381.934-.572 1.42-3.716 9.184-4.805 20.028-4.704 30.001" fill="#ffd5c0"/><path d="m309.935 87.681 2.366.021c-5.946-21.357-7.86-35.736-8.438-42.108-.638-7.027-.866-12.612-2.553-16.71-.077-.201-.164-.412-.264-.615-.213-.461-.451-.924-.715-1.359-.017-.038-.036-.077-.059-.106-.905-1.469-2.152-2.684-3.629-3.547-.26-.151-.512-.282-.786-.414l-.179-.082c-.16-.071-.325-.143-.49-.205-.073-.04-.148-.071-.226-.093-.061-.021-.129-.052-.203-.064-.504-.196-1.026-.337-1.556-.44-9.338-1.785-21.372 9.416-28.597 26.627-.01.019-.019.037-.028.065-.192.467-.385.944-.577 1.43-3.787 9.324-6.717 20.377-6.153 30.432.036.531.468.953.991.97.564.019 1.044-.439 1.062-1.006.001-.038.001-.076-.002-.114-.544-9.742 2.338-20.484 6.01-29.509.185-.467.369-.925.553-1.374.008-.019.015-.037.02-.047 6.739-16.082 18.06-27.013 26.345-25.423.43.071.852.189 1.258.354.056.021.113.032.172.044l.158.081c.203.073.325.124.444.176l.149.071c.187.091.404.203.613.323 1.149.672 2.122 1.613 2.842 2.745.032.077.072.135.119.203.223.377.427.762.609 1.166.075.145.142.298.199.461 1.579 3.839 1.744 9.27 2.422 16.109 1.536 15.466 3.757 25.698 8.123 41.938z" fill="#112c41"/></svg>