<svg xmlns="http://www.w3.org/2000/svg" viewBox="0 0 3000 2333" width="3000" height="2333"><g transform="translate(560.0 975.0) rotate(0.0 953.3333333333335 569.1666666666667) scale(1.666666666666667 1.666666666666667)"><svg width="1144" height="683" viewBox="0 0 1144 683"><path d="M120.391 1h903.218C1056.388 1 1083 27.612 1083 60.391V626H61V60.391C61 27.612 87.612 1 120.391 1z" fill="#cbc8ff"/><path d="M1083 627H61a1 1 0 0 1-1-1V60.392C60 27.092 87.091 0 120.391 0h903.218c33.3 0 60.391 27.092 60.391 60.392V626a1 1 0 0 1-1 1zM62 625h1020V60.392C1082 28.195 1055.806 2 1023.609 2H120.391C88.194 2 62 28.194 62 60.392z" fill="#112c41"/><rect fill="#fff" height="542" rx="19.565" width="938" x="103" y="48"/><path d="M1021.435 591h-898.87c-11.34 0-20.565-9.226-20.565-20.565V67.566c0-11.34 9.226-20.565 20.565-20.565h898.87c11.34 0 20.565 9.226 20.565 20.565v502.869c0 11.34-9.226 20.565-20.565 20.565zM122.565 49C112.328 49 104 57.328 104 67.565v502.869c0 10.237 8.329 18.565 18.565 18.565h898.87c10.237 0 18.565-8.328 18.565-18.565V67.566c0-10.237-8.329-18.565-18.565-18.565h-898.87z" fill="#112c41"/><circle cx="572.5" cy="23.5" fill="#fff" r="11.5"/><g fill="#112c41"><path d="M572.5 36c-6.893 0-12.5-5.607-12.5-12.5S565.607 11 572.5 11 585 16.607 585 23.5 579.393 36 572.5 36zm0-23c-5.79 0-10.5 4.71-10.5 10.5S566.71 34 572.5 34 583 29.29 583 23.5 578.29 13 572.5 13z"/><circle cx="536.5" cy="23.5" r="5.5"/><path d="M536.5 30c-3.584 0-6.5-2.916-6.5-6.5s2.916-6.5 6.5-6.5 6.5 2.916 6.5 6.5-2.916 6.5-6.5 6.5zm0-11c-2.481 0-4.5 2.019-4.5 4.5s2.019 4.5 4.5 4.5 4.5-2.019 4.5-4.5-2.019-4.5-4.5-4.5z"/><circle cx="608.5" cy="23.5" r="5.5"/><path d="M608.5 30c-3.584 0-6.5-2.916-6.5-6.5s2.916-6.5 6.5-6.5 6.5 2.916 6.5 6.5-2.916 6.5-6.5 6.5zm0-11c-2.481 0-4.5 2.019-4.5 4.5s2.019 4.5 4.5 4.5 4.5-2.019 4.5-4.5-2.019-4.5-4.5-4.5z"/></g><rect fill="#9797f7" height="62" rx="21.891" width="1142" x="1" y="620"/><path d="M1121.109 683H22.891C10.269 683 0 672.73 0 660.108v-18.217c0-12.622 10.269-22.892 22.891-22.892h1098.218c12.622 0 22.891 10.27 22.891 22.892v18.217c0 12.622-10.269 22.892-22.891 22.892zM22.891 621C11.371 621 2 630.372 2 641.892v18.217c0 11.52 9.372 20.892 20.891 20.892h1098.218c11.52 0 20.891-9.372 20.891-20.892v-18.217c0-11.52-9.372-20.892-20.891-20.892z" fill="#112c41"/><rect fill="#dedffe" height="461" rx="22.5" width="693" x="273" y="89"/></svg></g><g transform="translate(283.33333333333337 1140.0) rotate(0.0 518.3333333333333 375.0) scale(1.66445631150059 1.6646210323757693)"><svg width="622.826" height="450.553" viewBox="0 0 622.826 450.553"><rect fill="#cbc8ff" height="430.979" rx="43.963" width="601.883" x="20.944" y="19.575"/><rect fill="#fff" height="430.979" rx="43.963" width="601.883" x="1" y="1"/><path d="M558.92 432.978H44.963A45.013 45.013 0 0 1 0 388.016V44.963A45.014 45.014 0 0 1 44.963 0H558.92a45.014 45.014 0 0 1 44.963 44.963v343.053a45.013 45.013 0 0 1-44.963 44.962zM44.963 2A43.012 43.012 0 0 0 2 44.963v343.053a43.011 43.011 0 0 0 42.963 42.962H558.92a43.011 43.011 0 0 0 42.963-42.962V44.963A43.012 43.012 0 0 0 558.92 2z" fill="#112c41"/><rect fill="#ffbbe3" height="307.66" rx="3" width="67.42" x="483.118" y="62.957"/><path d="M547.537 371.617h-61.419a4 4 0 0 1-4-4V65.958a4 4 0 0 1 4-4h61.419a4 4 0 0 1 4 4v301.659a4 4 0 0 1-4 4zM486.118 63.958a2 2 0 0 0-2 2v301.659a2 2 0 0 0 2 2h61.419a2 2 0 0 0 2-2V65.958a2 2 0 0 0-2-2z" fill="#112c41"/><rect fill="#cbc8ff" height="257.872" rx="3" width="67.42" x="374.457" y="112.745"/><path d="M438.876 371.617h-61.419a4 4 0 0 1-4-4V115.745a4 4 0 0 1 4-4h61.419a4 4 0 0 1 4 4v251.872a4 4 0 0 1-4 4zm-61.419-257.872a2 2 0 0 0-2 2v251.872a2 2 0 0 0 2 2h61.419a2 2 0 0 0 2-2V115.745a2 2 0 0 0-2-2z" fill="#112c41"/><rect fill="#ffbbe3" height="294.086" rx="3" width="67.42" x="265.796" y="76.532"/><path d="M330.215 371.617H268.8a4 4 0 0 1-4-4V79.531a4 4 0 0 1 4-4h61.419a4 4 0 0 1 4 4v288.086a4 4 0 0 1-4.004 4zM268.8 77.531a2 2 0 0 0-2 2v288.086a2 2 0 0 0 2 2h61.419a2 2 0 0 0 2-2V79.531a2 2 0 0 0-2-2z" fill="#112c41"/><rect fill="#ffbbe3" height="245.617" rx="3" width="67.42" x="157.135" y="125"/><path d="M221.555 371.617h-61.42a4 4 0 0 1-4-4V128a4 4 0 0 1 4-4h61.42a4 4 0 0 1 4 4v239.617a4 4 0 0 1-4 4zM160.135 126a2 2 0 0 0-2 2v239.617a2 2 0 0 0 2 2h61.42a2 2 0 0 0 2-2V128a2 2 0 0 0-2-2z" fill="#112c41"/><rect fill="#cbc8ff" height="177.447" rx="3" width="67.42" x="48.474" y="193.17"/><path d="M112.894 371.617h-61.42a4 4 0 0 1-4-4V196.17a4 4 0 0 1 4-4h61.42a4 4 0 0 1 4 4v171.447a4 4 0 0 1-4 4zM51.474 194.17a2 2 0 0 0-2 2v171.447a2 2 0 0 0 2 2h61.42a2 2 0 0 0 2-2V196.17a2 2 0 0 0-2-2z" fill="#112c41"/></svg></g><g transform="translate(1455.0 380.0) rotate(0.0 651.6666666666667 816.6666666666667) scale(1.5970167237467403 1.5976560755110951)"><svg width="816.105" height="1022.331" viewBox="0 0 816.105 1022.331"><path d="m815.102 145.872-2.963-135.066c-.169-7.704-8.615-12.336-15.202-8.338l-115.49 70.099c-7.983 4.846-5.57 17.016 3.658 18.449l29.534 4.587-304.295 592.533-195.426-26.448a36.925 36.925 0 0 0-37.744 19.608L1 1021.331h83.188l146.603-282.959 195.533 26.463c15.515 2.096 30.664-5.809 37.811-19.736l314.988-613.373 18.455 20.978c6.168 7.011 17.729 2.505 17.524-6.832z" fill="#ffa9dc"/><path d="M84.188 1022.331H1a1 1 0 0 1-.887-1.459l176.174-340.035c7.351-14.189 22.933-22.276 38.766-20.14l194.725 26.354 303.34-590.673-28.165-4.374c-4.624-.718-8.2-4.148-9.111-8.739-.91-4.59 1.087-9.125 5.087-11.553l115.49-70.1c3.402-2.065 7.517-2.156 11.007-.241 3.49 1.914 5.626 5.433 5.713 9.412l2.963 135.066c.103 4.679-2.648 8.8-7.009 10.5-4.36 1.7-9.175.528-12.266-2.985l-17.486-19.876-314.318 612.067c-7.324 14.273-22.931 22.418-38.834 20.271l-194.835-26.369-146.278 282.334a1 1 0 0 1-.888.54zm-81.543-2H83.58l146.323-282.418a.993.993 0 0 1 1.022-.531l195.533 26.462c15.064 2.036 29.848-5.682 36.787-19.202l314.988-613.373a1.001 1.001 0 0 1 1.64-.204l18.456 20.978c3.07 3.49 7.198 3.55 10.038 2.443s5.838-3.946 5.736-8.593L811.14 10.827c-.071-3.257-1.819-6.136-4.675-7.703-2.856-1.566-6.223-1.492-9.008.198l-115.49 70.099c-3.973 2.412-4.756 6.465-4.163 9.455s2.863 6.438 7.456 7.151l29.534 4.586a1 1 0 0 1 .737 1.445L411.234 688.593a.996.996 0 0 1-1.024.534l-195.426-26.448c-15.003-2.033-29.76 5.637-36.722 19.077L2.644 1020.331z" fill="#112c41"/></svg></g><g transform="translate(498.33333333333337 373.33333333333337) rotate(24.553632336503036 692.5 465.8333333333333) scale(2.187969485329546 2.191517455299316)"><svg width="633.007" height="425.124" viewBox="0 0 633.007 425.124"><ellipse cx="44.718" cy="147.563" fill="#ffd169" rx="43.998" ry="42.031" transform="matrix(.9214 -.3886 .3886 .9214 -53.8291 28.9757)"/><path d="M43.352 190.895c-17.177 0-33.265-9.652-40.096-25.846-9.22-21.862 1.878-47.493 24.74-57.135 22.864-9.644 48.963.3 58.185 22.162 9.22 21.862-1.878 47.493-24.74 57.135-5.928 2.5-12.077 3.684-18.089 3.684zm2.737-84.666c-5.756 0-11.638 1.133-17.315 3.527C6.928 118.97-3.692 143.426 5.1 164.272c8.792 20.847 33.719 30.31 55.563 21.097 21.846-9.213 32.466-33.669 23.674-54.515-6.507-15.429-21.855-24.625-38.248-24.625z" fill="#112c41"/><ellipse cx="48.934" cy="145.549" fill="#ffe993" rx="41.853" ry="41.945"/><path d="M48.935 188.494c-23.629 0-42.853-19.265-42.853-42.945s19.224-42.945 42.853-42.945 42.853 19.265 42.853 42.945-19.224 42.945-42.853 42.945zm0-83.89c-22.526 0-40.853 18.368-40.853 40.945s18.326 40.945 40.853 40.945 40.853-18.368 40.853-40.945-18.327-40.945-40.853-40.945z" fill="#112c41"/><ellipse cx="48.934" cy="145.549" fill="#ffe993" rx="32.474" ry="32.403" transform="matrix(.8892 -.4575 .4575 .8892 -61.1651 38.5109)"/><g fill="#112c41"><path d="M48.932 178.962c-12.135 0-23.851-6.606-29.764-18.1-4.081-7.934-4.822-16.986-2.087-25.489 2.736-8.502 8.621-15.437 16.572-19.527 7.95-4.09 17.014-4.846 25.522-2.129 8.509 2.717 15.442 8.583 19.524 16.518s4.823 16.986 2.087 25.489c-2.736 8.501-8.621 15.437-16.572 19.527a33.32 33.32 0 0 1-15.282 3.711zm.026-64.846c-4.948 0-9.861 1.179-14.391 3.509-7.476 3.846-13.01 10.367-15.582 18.361-2.572 7.993-1.876 16.503 1.962 23.961 7.922 15.398 26.922 21.465 42.354 13.525 7.476-3.846 13.01-10.367 15.582-18.361s1.876-16.503-1.962-23.961c-3.837-7.458-10.354-12.973-18.354-15.527a31.532 31.532 0 0 0-9.609-1.507zm14.8 60.246h.01z"/><path d="m30.139 153.198 25.19-25.19 1.414 1.415-25.19 25.19z"/><path d="M56.943 151.811h-.014a9.815 9.815 0 0 1-6.974-2.896l-6.686-6.687a.999.999 0 1 1 1.414-1.414l6.686 6.687a7.832 7.832 0 0 0 5.562 2.311h.011a7.786 7.786 0 0 0 5.542-2.293 7.943 7.943 0 0 0 2.31-5.609 7.981 7.981 0 0 0-2.353-5.606l-9.63-9.535a1 1 0 1 1 1.406-1.421l9.63 9.535a9.991 9.991 0 0 1 2.946 7.02 9.952 9.952 0 0 1-2.896 7.031 9.77 9.77 0 0 1-6.954 2.877z"/><path d="M45.077 165.837c-2.33 0-4.468-.863-6.062-2.458l-11.464-11.466a.999.999 0 1 1 1.414-1.414l11.464 11.466c1.292 1.292 3.056 1.953 5.003 1.863 1.969-.093 3.861-.952 5.327-2.417 3.221-3.22 3.486-8.195.593-11.089l-6.651-6.652a.999.999 0 1 1 1.414-1.414l6.651 6.652c3.674 3.674 3.407 9.918-.593 13.917-1.819 1.819-4.18 2.885-6.647 3.001a8.41 8.41 0 0 1-.449.011zm13.405-34.451a.999.999 0 0 1-.707-1.707l4.265-4.264a.999.999 0 1 1 1.414 1.414l-4.265 4.264a.995.995 0 0 1-.707.293zm4.951 4.952a.999.999 0 0 1-.707-1.707l4.265-4.264a.999.999 0 1 1 1.414 1.414l-4.265 4.264a.993.993 0 0 1-.707.293z"/><path d="M28.499 161.363a.999.999 0 0 1-.707-1.707l4.388-4.386a.999.999 0 1 1 1.414 1.414l-4.388 4.386a.997.997 0 0 1-.707.293zm4.951 4.952a.999.999 0 0 1-.707-1.707l4.388-4.386a.999.999 0 1 1 1.414 1.414l-4.388 4.386a.997.997 0 0 1-.707.293z"/></g><ellipse cx="206.79" cy="51.487" fill="#ffd169" rx="50.532" ry="48.273" transform="matrix(.9214 -.3886 .3886 .9214 -3.7554 84.4067)"/><path d="M205.22 101.107c-19.668 0-38.092-11.052-45.912-29.594-5.118-12.135-4.984-25.626.376-37.989 5.354-12.347 15.283-22.091 27.958-27.437 26.184-11.042 56.073.341 66.631 25.375s-2.153 54.384-28.335 65.426c-6.79 2.863-13.831 4.219-20.718 4.219zm3.144-97.24c-6.63 0-13.405 1.305-19.944 4.062-12.199 5.145-21.752 14.517-26.9 26.39-5.141 11.857-5.271 24.79-.367 36.417 10.128 24.018 38.845 34.922 64.009 24.309 25.166-10.614 37.398-38.789 27.269-62.806-7.499-17.778-25.181-28.372-44.067-28.372z" fill="#112c41"/><ellipse cx="211.632" cy="49.174" fill="#ffe993" rx="48.068" ry="48.174"/><path d="M211.632 98.348c-27.057 0-49.068-22.059-49.068-49.174S184.575 0 211.632 0 260.7 22.06 260.7 49.174s-22.011 49.174-49.068 49.174zm0-96.348c-25.953 0-47.068 21.162-47.068 47.174s21.115 47.174 47.068 47.174S258.7 75.186 258.7 49.174 237.585 2 211.632 2z" fill="#112c41"/><ellipse cx="211.632" cy="49.174" fill="#ffe993" rx="37.215" ry="37.297" transform="matrix(.9998 -.02 .02 .9998 -.9424 4.2486)"/><path d="M211.615 87.471c-9.917 0-19.285-3.776-26.458-10.682-7.361-7.087-11.527-16.623-11.732-26.85s3.576-19.921 10.647-27.298 16.587-11.552 26.792-11.757c10.241-.186 19.881 3.586 27.242 10.674 7.361 7.087 11.527 16.623 11.732 26.85.205 10.227-3.576 19.921-10.647 27.298s-16.587 11.552-26.792 11.757c-.261.005-.523.008-.784.008zm.033-74.594c-.248 0-.494.002-.742.008-9.672.193-18.688 4.15-25.39 11.141-6.701 6.992-10.285 16.18-10.091 25.874.193 9.694 4.143 18.731 11.119 25.449s16.169 10.33 25.814 10.115c9.672-.193 18.688-4.15 25.39-11.141 6.701-6.992 10.285-16.18 10.091-25.874-.193-9.693-4.143-18.731-11.119-25.449-6.797-6.544-15.676-10.123-25.072-10.123z" fill="#112c41"/><path d="m196.912 33.672 1.893-.649 13.265 38.706-1.893.648z" fill="#112c41"/><path d="M204.974 53.254a1 1 0 0 1-.324-1.946l10.273-3.521c2.322-.796 4.196-2.446 5.276-4.646s1.238-4.686.444-7a9.265 9.265 0 0 0-4.695-5.3 9.322 9.322 0 0 0-7.085-.41l-14.698 5.121a1 1 0 1 1-.658-1.888l14.698-5.121a11.335 11.335 0 0 1 8.616.499 11.276 11.276 0 0 1 5.715 6.452 11.08 11.08 0 0 1-.541 8.53 11.123 11.123 0 0 1-6.424 5.656l-10.273 3.52a.992.992 0 0 1-.324.054z" fill="#112c41"/><path d="M207.031 74.359a1 1 0 0 1-.324-1.946l17.615-6.037c2.026-.695 3.637-2.222 4.536-4.302.913-2.112.983-4.536.199-6.824-1.723-5.026-6.807-7.851-11.329-6.302l-10.22 3.502a1 1 0 1 1-.649-1.892l10.22-3.502c5.563-1.907 11.788 1.476 13.87 7.545.946 2.76.855 5.695-.256 8.266-1.125 2.603-3.158 4.521-5.724 5.4l-17.615 6.037a.954.954 0 0 1-.323.055zm-6.22-41.689a1 1 0 0 1-.946-.676l-2.245-6.552a1 1 0 0 1 1.893-.648l2.245 6.552a1 1 0 0 1-.947 1.324zm7.608-2.607a1 1 0 0 1-.946-.676l-2.245-6.552a1 1 0 0 1 1.893-.648l2.245 6.552a1 1 0 0 1-.947 1.324z" fill="#112c41"/><path d="M216.597 78.734a1 1 0 0 1-.946-.676l-2.31-6.74a1 1 0 0 1 1.893-.648l2.31 6.74a1 1 0 0 1-.947 1.324zm7.608-2.607a1 1 0 0 1-.946-.676l-2.31-6.74a1 1 0 0 1 1.893-.648l2.31 6.74a1 1 0 0 1-.947 1.324z" fill="#112c41"/><ellipse cx="408.17" cy="121.335" fill="#ffd169" rx="60.015" ry="57.331" transform="matrix(.9214 -.3886 .3886 .9214 -15.071 168.1541)"/><path d="M406.236 180.111a61.162 61.162 0 0 1-21.769-3.997c-14.91-5.67-26.458-16.704-32.517-31.068-6.058-14.364-5.899-30.335.447-44.971 6.339-14.62 18.096-26.157 33.104-32.487 30.996-13.074 66.388.399 78.888 30.036 6.058 14.364 5.899 30.335-.447 44.971-6.339 14.62-18.096 26.157-33.104 32.487-7.941 3.349-16.294 5.029-24.602 5.029zm3.803-115.519c-7.897 0-15.972 1.555-23.76 4.839-14.532 6.129-25.914 17.294-32.047 31.44-6.127 14.129-6.283 29.541-.438 43.397 5.844 13.856 16.989 24.502 31.384 29.976 14.412 5.481 30.353 5.123 44.883-1.006 14.532-6.129 25.914-17.294 32.047-31.44 6.127-14.129 6.283-29.541.438-43.397-8.934-21.185-30.003-33.809-52.507-33.809z" fill="#112c41"/><ellipse cx="413.921" cy="118.588" fill="#ffe993" rx="57.088" ry="57.214"/><path d="M413.921 176.802c-32.029 0-58.088-26.115-58.088-58.214s26.059-58.214 58.088-58.214 58.088 26.115 58.088 58.214-26.059 58.214-58.088 58.214zm0-114.428c-30.927 0-56.088 25.217-56.088 56.214s25.161 56.214 56.088 56.214 56.088-25.217 56.088-56.214-25.161-56.214-56.088-56.214z" fill="#112c41"/><ellipse cx="413.921" cy="118.588" fill="#ffe993" rx="44.198" ry="44.296" transform="matrix(.8892 -.4575 .4575 .8892 -8.397 202.4994)"/><path d="M414.049 163.886c-4.655 0-9.333-.729-13.896-2.196-11.505-3.702-20.889-11.666-26.424-22.424-11.426-22.209-2.691-49.554 19.47-60.955 22.16-11.4 49.487-2.609 60.913 19.601 11.426 22.209 2.691 49.553-19.47 60.955-6.478 3.331-13.508 5.019-20.593 5.019zm-.279-88.568a42.848 42.848 0 0 0-19.656 4.771c-21.18 10.897-29.526 37.033-18.604 58.262 5.29 10.284 14.26 17.896 25.257 21.436 10.995 3.539 22.702 2.58 32.963-2.699 21.18-10.897 29.526-37.033 18.604-58.261-7.678-14.922-22.864-23.509-38.564-23.509z" fill="#112c41"/><path d="m390.262 109.624 1.415-1.414 34.355 34.365-1.414 1.414z" fill="#112c41"/><path d="M408.426 126.35a.999.999 0 0 1-.707-1.707l9.121-9.119c4.328-4.328 4.339-11.36.023-15.676-2.081-2.081-4.96-3.279-7.909-3.257a11.259 11.259 0 0 0-7.905 3.317l-13.006 13.136a1 1 0 0 1-1.422-1.407L399.627 98.5a13.273 13.273 0 0 1 9.319-3.91h.049c3.459 0 6.84 1.399 9.282 3.843 5.095 5.096 5.085 13.397-.023 18.504l-9.121 9.119a.994.994 0 0 1-.707.294z" fill="#112c41"/><path d="M421.639 147.789a.999.999 0 0 1-.707-1.707l15.64-15.636c1.837-1.836 2.777-4.357 2.648-7.098-.131-2.777-1.34-5.443-3.404-7.507-2.209-2.209-5.062-3.504-8.034-3.645-2.95-.148-5.639.868-7.606 2.836l-9.074 9.072a.999.999 0 1 1-1.414-1.414l9.074-9.072c2.372-2.372 5.611-3.582 9.115-3.42 3.471.165 6.792 1.667 9.354 4.229 2.417 2.417 3.833 5.552 3.987 8.827.156 3.311-.991 6.367-3.231 8.606l-15.64 15.636a1.001 1.001 0 0 1-.708.293zm-28.399-41.224a.997.997 0 0 1-.707-.293l-5.816-5.817a.999.999 0 1 1 1.414-1.414l5.816 5.817a.999.999 0 0 1-.707 1.707zm6.754-6.754a.997.997 0 0 1-.707-.293l-5.816-5.817a.999.999 0 1 1 1.414-1.414l5.816 5.817a.999.999 0 0 1-.707 1.707z" fill="#112c41"/><path d="M434.128 147.462a.997.997 0 0 1-.707-.293l-5.983-5.984a.999.999 0 1 1 1.414-1.414l5.983 5.984a.999.999 0 0 1-.707 1.707zm6.755-6.754a.997.997 0 0 1-.707-.293l-5.983-5.984a.999.999 0 1 1 1.414-1.414l5.983 5.984a.999.999 0 0 1-.707 1.707z" fill="#112c41"/><ellipse cx="550.552" cy="349.253" fill="#ffd169" rx="77.795" ry="74.317" transform="matrix(.9214 -.3886 .3886 .9214 -92.4507 241.3978)"/><path d="M548.133 425.104c-30.07 0-58.231-16.891-70.185-45.23-16.138-38.267 3.302-83.134 43.335-100.018 19.383-8.176 40.652-8.65 59.889-1.334 19.251 7.321 34.16 21.566 41.982 40.111 7.821 18.545 7.616 39.165-.578 58.061-8.187 18.88-23.371 33.781-42.756 41.957-10.384 4.379-21.155 6.453-31.687 6.453zm4.927-149.744c-10.469 0-20.99 2.117-30.999 6.338-39.017 16.455-57.979 60.147-42.269 97.397s60.237 54.164 99.251 37.711c18.908-7.975 33.717-22.503 41.698-40.909 7.975-18.391 8.177-38.452.569-56.488-7.606-18.037-22.114-31.894-40.85-39.019a77.005 77.005 0 0 0-27.4-5.03z" fill="#112c41"/><ellipse cx="558.006" cy="345.692" fill="#ffe993" rx="74.001" ry="74.165"/><path d="M558.006 420.856c-41.355 0-75.001-33.719-75.001-75.165s33.646-75.165 75.001-75.165 75.001 33.719 75.001 75.165-33.645 75.165-75.001 75.165zm0-148.329c-40.253 0-73.001 32.821-73.001 73.165s32.748 73.165 73.001 73.165 73.001-32.821 73.001-73.165-32.748-73.165-73.001-73.165z" fill="#112c41"/><ellipse cx="558.006" cy="345.692" fill="#ffe993" rx="57.419" ry="57.292" transform="matrix(.8892 -.4575 .4575 .8892 -96.3313 293.575)"/><path d="M557.968 404.04a58.558 58.558 0 0 1-17.836-2.797c-14.849-4.742-26.949-14.979-34.073-28.825-7.123-13.846-8.416-29.643-3.642-44.481s15.046-26.94 28.922-34.079c13.876-7.138 29.693-8.458 44.541-3.716 14.849 4.743 26.949 14.979 34.073 28.826 7.123 13.846 8.416 29.643 3.642 44.481-4.774 14.837-15.046 26.94-28.922 34.079-8.404 4.323-17.522 6.512-26.705 6.512zm.078-114.695c-8.869 0-17.675 2.114-25.793 6.291-13.4 6.895-23.32 18.583-27.932 32.914-4.611 14.329-3.362 29.583 3.517 42.954 6.878 13.37 18.563 23.255 32.902 27.835 14.34 4.58 29.616 3.305 43.019-3.589 13.4-6.895 23.32-18.583 27.932-32.913 4.611-14.329 3.362-29.583-3.517-42.954-6.878-13.37-18.563-23.256-32.902-27.835a56.527 56.527 0 0 0-17.226-2.703z" fill="#112c41"/><path d="m525.312 359.764 44.54-44.54 1.414 1.415-44.54 44.54z" fill="#112c41"/><path d="M572.165 355.988c-4.274 0-8.553-1.63-11.811-4.888l-11.82-11.824a.999.999 0 1 1 1.414-1.414l11.82 11.824c5.725 5.726 15.029 5.739 20.739.03a14.811 14.811 0 0 0 4.309-10.464 14.898 14.898 0 0 0-4.388-10.457l-17.027-16.858a1 1 0 1 1 1.406-1.421l17.027 16.858a16.904 16.904 0 0 1 4.981 11.87 16.824 16.824 0 0 1-4.895 11.886c-3.238 3.239-7.494 4.858-11.755 4.858z" fill="#112c41"/><path d="M551.2 380.788c-3.773 0-7.437-1.358-10.189-4.112l-20.269-20.273a.999.999 0 1 1 1.414-1.414l20.269 20.273c5.062 5.064 13.744 4.625 19.353-.979 5.994-5.994 6.464-15.277 1.047-20.694l-11.76-11.762a.999.999 0 1 1 1.414-1.414l11.76 11.762c6.196 6.197 5.727 16.749-1.047 23.522-3.378 3.377-7.755 5.091-11.992 5.091zm23.688-60.906a.999.999 0 0 1-.707-1.707l7.54-7.539a.999.999 0 1 1 1.414 1.414l-7.54 7.539a.993.993 0 0 1-.707.293zm8.754 8.757a.999.999 0 0 1-.707-1.707l7.54-7.539a.999.999 0 1 1 1.414 1.414l-7.54 7.539a.997.997 0 0 1-.707.293z" fill="#112c41"/><path d="M521.874 372.885a.999.999 0 0 1-.707-1.707l7.757-7.756a.999.999 0 1 1 1.414 1.414l-7.757 7.756a.993.993 0 0 1-.707.293zm8.754 8.757a.999.999 0 0 1-.707-1.707l7.758-7.756a.999.999 0 1 1 1.414 1.414l-7.758 7.756a.997.997 0 0 1-.707.293z" fill="#112c41"/></svg></g></svg>