<svg xmlns="http://www.w3.org/2000/svg" viewBox="0 0 1800 1800" width="1800" height="1800"><g transform="translate(1175.0 1565.0) rotate(0.0 152.5 27.0) scale(0.49836601307189543 0.5)"><svg width="612" height="108" viewBox="0 0 612 108"><ellipse cx="306" cy="54" fill="#cbc8ff" rx="306" ry="54"/></svg></g><g transform="translate(312.0 1552.0) rotate(0.0 174.5 31.0) scale(0.5702614379084967 0.5740740740740741)"><svg width="612" height="108" viewBox="0 0 612 108"><ellipse cx="306" cy="54" fill="#cbc8ff" rx="306" ry="54"/></svg></g><g transform="translate(1160.0 801.0) rotate(0.0 197.0 407.0) scale(0.9991555360570887 0.9990757935226995)"><svg width="394.333" height="814.753" viewBox="0 0 394.333 814.753"><path d="M233.015 603.209a833.215 833.215 0 0 1-16.995-35.224l-.1-.194c-.033-.079-.073-.151-.1-.208-5.518-12.154-10.889-23.948-15.492-34.285 0 0-83.125 41.67-131.058 58.55 5.4 11.387 9.927 20.78 16.135 32.587a14623.975 14623.975 0 0 0 19.833 37.608z" fill="#ffd6c0"/><path d="m182.765 532.393 35.997 77.556c4.65.695 13.651 2.138 16.813 2.077-14.197-31.039-37.971-83.085-37.971-83.085l-14.838 3.452z" fill="#f5b9ab"/><path d="M105.239 663.044a.998.998 0 0 1-.884-.532c-.092-.173-9.288-17.541-19.834-37.611-6.444-12.257-11.128-22.026-16.154-32.624a1.005 1.005 0 0 1-.02-.813c.109-.261.324-.464.591-.559 47.324-16.666 130.111-58.085 130.941-58.501a.998.998 0 0 1 1.362.488c4.021 9.03 8.581 19.069 13.409 29.699l2.08 4.58c.049.097.083.166.112.237l.063.115c5.643 12.402 11.037 23.582 16.999 35.232a1.002 1.002 0 0 1-.471 1.364l-127.777 58.834a.987.987 0 0 1-.418.092zm-34.59-70.622c4.838 10.195 9.418 19.712 15.642 31.548a15331.938 15331.938 0 0 0 19.389 36.77l125.971-58.002a829.372 829.372 0 0 1-16.541-34.337l-.046-.085a2.984 2.984 0 0 1-.068-.139l-.085-.176-2.082-4.583c-4.66-10.259-9.07-19.97-12.989-28.757-9.248 4.605-84.346 41.802-129.191 57.762z" fill="#112c41"/><path d="M83.282 762.184c50.634-7.306 107.435-37.697 151.119-71.115 12.732-9.746 24.354-19.737 34.378-29.499 0 0-22.983-36.052-35.763-58.361l-10.307 4.781s-117.121 53.986-117.469 54.053c-6.502 9.096-34.71 53.073-21.956 100.141z" fill="#ffe993"/><path d="M83.281 763.184a.999.999 0 0 1-.964-.738c-13.101-48.352 16.118-92.604 22.108-100.984a.999.999 0 0 1 .466-.356c2.185-.918 116.244-53.491 117.398-54.023l10.305-4.78a1.001 1.001 0 0 1 1.289.41c12.621 22.033 35.508 57.96 35.738 58.32a1 1 0 0 1-.146 1.254c-10.167 9.902-21.763 19.853-34.467 29.577-49.873 38.153-106.54 64.811-151.584 71.311a.996.996 0 0 1-.144.01zm22.628-100.359c-4.194 5.923-34.277 50.657-21.89 98.24 44.579-6.671 100.484-33.083 149.774-70.79 12.399-9.49 23.734-19.195 33.704-28.854-3.201-5.036-23.148-36.503-34.893-56.918l-9.476 4.395c-99.595 45.907-114.798 52.856-117.219 53.928z" fill="#360815"/><path d="M268.778 661.57s-22.983-36.052-35.763-58.361l-11.56 8.146c8.581 20.769 22.481 53.015 21.166 73.491-.014.215 16.134-13.514 26.157-23.277z" fill="#9797f7"/><path d="M210.627 710.544a2.5 2.5 0 0 1-2.236-1.378c-7.838-15.597-10.183-35.824-6.433-55.496 4.04-21.192 14.584-38.665 29.692-49.201a2.5 2.5 0 1 1 2.86 4.102c-30.123 21.007-36.276 69.25-21.652 98.35a2.5 2.5 0 0 1-2.232 3.623z" fill="#fff"/><path d="M83.281 763.184a.999.999 0 0 1-.964-.738c-13.101-48.352 16.118-92.604 22.108-100.984a.999.999 0 0 1 .466-.356c2.185-.918 116.244-53.491 117.398-54.023l10.305-4.78a1.001 1.001 0 0 1 1.289.41c12.621 22.033 35.508 57.96 35.738 58.32a1 1 0 0 1-.146 1.254c-10.167 9.902-21.763 19.853-34.467 29.577-49.873 38.153-106.54 64.811-151.584 71.311a.996.996 0 0 1-.144.01zm22.628-100.359c-4.194 5.923-34.277 50.657-21.89 98.24 44.579-6.671 100.484-33.083 149.774-70.79 12.399-9.49 23.734-19.195 33.704-28.854-3.201-5.036-23.148-36.503-34.893-56.918l-9.476 4.395c-99.595 45.907-114.798 52.856-117.219 53.928z" fill="#112c41"/><path d="M90.822 784.076c.716 1.427 1.848 2.452 3.595 2.798 31.805 6.295 141.684-49.163 184.474-95.825 3.665-3.997 3.236-7.146 1.868-10.176l-11.982-19.302c-44.435 43.25-120.106 91.175-185.496 100.614 1.92 7.78 4.304 15.445 7.541 21.891z" fill="#fff"/><path d="M99.923 788.349c-2.12 0-4.024-.163-5.7-.495-1.932-.382-3.376-1.502-4.294-3.33-2.863-5.703-5.355-12.932-7.618-22.101a.997.997 0 0 1 .828-1.229c66.031-9.531 142.155-58.695 184.942-100.341a1.001 1.001 0 0 1 1.547.189l11.982 19.302a.991.991 0 0 1 .062.116c1.352 2.995 2.166 6.674-2.043 11.263-19.895 21.696-56.021 47.111-96.636 67.985-35.228 18.105-66.032 28.64-83.069 28.64zm-8.208-4.722c.635 1.265 1.583 2.006 2.896 2.266 30.132 5.962 139.371-47.352 183.543-95.52 3.202-3.492 3.011-6.14 1.72-9.029l-11.292-18.191c-42.933 41.446-118.306 89.953-184.063 99.86 2.154 8.516 4.512 15.269 7.196 20.615z" fill="#112c41"/><path d="M233.012 603.206c-33.824 26.424-89.204 50.813-127.774 58.838 0 0-7.47-14.273-16.878-31.983-.328-.613-.653-1.236-.979-1.859s-.651-1.246-.987-1.871l-.992-1.893c35.582-7.975 87.99-32.056 130.285-57.107 0 0 .042.091.129.253.029.057.074.129.099.205.036.069.075.129.101.196a834.58 834.58 0 0 0 16.995 35.221z" fill="#fff"/><path d="M105.238 663.044a1 1 0 0 1-.885-.536c-.075-.143-7.577-14.473-16.875-31.978-.309-.579-.618-1.168-.926-1.758l-.056-.107c-.324-.62-.648-1.24-.982-1.861l-.996-1.9a.998.998 0 0 1 .667-1.441c33.008-7.398 84.033-29.769 129.994-56.992a1 1 0 0 1 1.42.445c.005.01.038.079.1.193.052.097.094.179.127.257.056.103.093.175.123.252a829.336 829.336 0 0 0 16.955 35.132 1 1 0 0 1-.274 1.244c-32.185 25.144-87.293 50.521-128.186 59.029a1.01 1.01 0 0 1-.204.021zm-18.346-37.92.39.743c.332.619.66 1.245.987 1.871l.056.107c.305.584.61 1.168.918 1.744a6872.846 6872.846 0 0 1 16.53 31.32c40.279-8.544 94.104-33.322 125.972-57.985a829.487 829.487 0 0 1-16.481-34.181c-45.295 26.724-95.377 48.713-128.372 56.381z" fill="#112c41"/><circle cx="129.241" cy="681.568" fill="#ffe993" r="8.5"/><path d="M129.246 684.519c-13.715 6.79-32.049 6.854-38.237 4.924a2.833 2.833 0 0 1 1.686-5.408c4.75 1.482 22.311 1.567 34.825-4.994a2.832 2.832 0 0 1 2.634 5.014c-.3.158-.603.313-.908.463z" fill="#fff"/><path d="M101.12 691.548c-4.481 0-8.185-.456-10.41-1.15-2.017-.629-3.146-2.782-2.517-4.799s2.782-3.149 4.799-2.518c4.626 1.441 21.793 1.508 34.063-4.925a3.84 3.84 0 0 1 5.174 1.611c.476.906.57 1.943.266 2.92s-.971 1.778-1.877 2.253c-.306.161-.617.32-.929.474-9.2 4.555-20.23 6.133-28.569 6.133zm-9.267-6.641c-.781 0-1.506.503-1.751 1.287-.3.964.239 1.994 1.204 2.295 5.923 1.847 24.021 1.805 37.496-4.866.297-.147.593-.298.886-.452.434-.228.752-.61.897-1.078a1.815 1.815 0 0 0-.127-1.396 1.837 1.837 0 0 0-2.475-.77c-12.753 6.687-30.725 6.58-35.586 5.063a1.838 1.838 0 0 0-.544-.083z" fill="#112c41"/><circle cx="123.553" cy="707.839" fill="#ffe993" r="8.5"/><path d="M123.47 710.789c-13.911 6.381-34.07 4.619-40.198 2.506a2.833 2.833 0 0 1 1.846-5.356c4.704 1.622 24.086 3.511 36.789-2.678a2.831 2.831 0 1 1 2.484 5.09 36.94 36.94 0 0 1-.921.436z" fill="#fff"/><path d="M99.591 716.22c-7.472 0-13.833-1.01-16.645-1.979a3.837 3.837 0 0 1-2.374-4.872 3.838 3.838 0 0 1 4.872-2.375c4.324 1.492 23.376 3.532 36.025-2.631a3.841 3.841 0 0 1 5.125 1.764c.449.92.512 1.959.179 2.927s-1.023 1.749-1.943 2.197c-.312.152-.626.302-.943.447-7.447 3.416-16.479 4.522-24.295 4.522zm-15.393-7.435c-.761 0-1.474.477-1.735 1.235-.329.955.18 2 1.135 2.33 5.536 1.909 25.401 3.977 39.455-2.47.301-.139.602-.281.899-.426.44-.215.77-.588.929-1.05a1.82 1.82 0 0 0-.086-1.4 1.835 1.835 0 0 0-2.451-.842c-13.169 6.416-33.04 4.279-37.552 2.724a1.817 1.817 0 0 0-.595-.1z" fill="#112c41"/><path d="M317.18 694.831a833.475 833.475 0 0 1-.173-39.109l-.007-.218c.004-.085-.001-.168 0-.231.253-13.346.484-26.303.78-37.615 0 0-92.967 1.819-143.497-3.584-.029 12.602.013 23.029.532 36.359.887 22.916 1.707 42.483 1.707 42.483z" fill="#ffd6c0"/><path d="m302.318 609.279-.904 85.498c3.898 2.629 11.4 7.807 14.28 9.114.55-34.128 1.502-91.339 1.502-91.339l-14.879-3.273z" fill="#f5b9ab"/><path d="M317.18 695.831h-.014l-140.658-1.916a1 1 0 0 1-.985-.958c-.008-.196-.831-19.831-1.708-42.486-.539-13.841-.561-24.673-.533-36.4a.998.998 0 0 1 1.107-.992c49.889 5.334 142.442 3.597 143.371 3.578a1.001 1.001 0 0 1 1.019 1.026c-.258 9.857-.465 20.854-.683 32.495l-.096 5.113a4.4 4.4 0 0 1 0 .258l.007.139c-.247 13.62-.192 26.033.173 39.115a1.002 1.002 0 0 1-1 1.028zm-139.698-3.902 138.67 1.888c-.34-12.732-.386-24.875-.145-38.113l-.006-.167v-.28l.095-5.116c.211-11.236.411-21.87.657-31.465-10.329.175-94.125 1.413-141.473-3.492-.023 11.283.014 21.843.534 35.209.768 19.832 1.494 37.349 1.668 41.535z" fill="#112c41"/><path d="M113.588 773.845c48.846 15.207 113.198 12.234 167.013.881 15.688-3.314 30.479-7.327 43.729-11.823 0 0-5.221-42.435-7.15-68.073l-11.361-.123s-128.953-1.703-129.296-1.792c-9.785 5.41-54.179 32.957-62.934 80.929z" fill="#ffe993"/><path d="M192.334 785.191c-29.552 0-56.804-3.468-79.043-10.392a1.001 1.001 0 0 1-.687-1.134c8.994-49.281 54.42-76.641 63.435-81.625a1.01 1.01 0 0 1 .575-.121c2.367.112 127.948 1.772 129.219 1.789l11.359.123a1 1 0 0 1 .986.925c1.905 25.321 7.093 67.602 7.146 68.026a1 1 0 0 1-.671 1.069c-13.438 4.559-28.189 8.548-43.844 11.854-29.996 6.328-60.282 9.486-88.474 9.486zm-77.599-12.039c43.108 13.173 104.939 13.406 165.659.595 15.278-3.227 29.688-7.105 42.844-11.531-.721-5.923-5.176-42.913-6.986-66.396l-10.444-.113c-109.648-1.448-126.369-1.723-129.017-1.798-6.336 3.54-52.749 30.962-62.056 79.243z" fill="#360815"/><path d="M324.33 762.904s-5.221-42.435-7.15-68.073l-13.941 2.375c-1.198 22.44-2.537 57.529-12.539 75.444-.105.188 20.38-5.251 33.63-9.746z" fill="#ffd169"/><path d="M251.832 782.31a2.5 2.5 0 0 1-2.499-2.449c-.358-17.452 6.234-36.718 18.089-52.857 12.771-17.388 29.812-28.619 47.983-31.623a2.498 2.498 0 0 1 2.874 2.059 2.499 2.499 0 0 1-2.059 2.874c-36.232 5.99-62.558 46.884-61.889 79.445a2.501 2.501 0 0 1-2.448 2.551h-.052z" fill="#fff"/><path d="M192.334 785.191c-29.552 0-56.804-3.468-79.043-10.392a1.001 1.001 0 0 1-.687-1.134c8.994-49.281 54.42-76.641 63.435-81.625a1.01 1.01 0 0 1 .575-.121c2.367.112 127.948 1.772 129.219 1.789l11.359.123a1 1 0 0 1 .986.925c1.905 25.321 7.093 67.602 7.146 68.026a1 1 0 0 1-.671 1.069c-13.438 4.559-28.189 8.548-43.844 11.854-29.996 6.328-60.282 9.486-88.474 9.486zm-77.599-12.039c43.108 13.173 104.939 13.406 165.659.595 15.278-3.227 29.688-7.105 42.844-11.531-.721-5.923-5.176-42.913-6.986-66.396l-10.444-.113c-109.648-1.448-126.369-1.723-129.017-1.798-6.336 3.54-52.749 30.962-62.056 79.243z" fill="#112c41"/><path d="M110.968 796.85c.032 1.596.613 3.009 2.04 4.073 25.996 19.376 149.047 16.632 207.758-7.059 5.029-2.029 5.997-5.057 6.068-8.38l-2.503-22.58c-58.727 19.904-147.659 30.577-210.742 10.941-1.617 7.848-2.766 15.793-2.62 23.005z" fill="#fff"/><path d="M190.609 814.755c-37.822 0-67.152-4.797-78.198-13.03-1.579-1.177-2.401-2.811-2.442-4.855-.129-6.381.734-13.979 2.64-23.227a1 1 0 0 1 1.277-.753c63.699 19.828 153.576 8.231 210.124-10.934.287-.095.602-.059.858.104.255.163.423.433.457.733l2.503 22.581c.004.044.006.088.006.131-.07 3.285-.919 6.956-6.693 9.286-27.298 11.016-70.847 18.399-116.492 19.752-4.79.142-9.479.212-14.04.212zm-76.261-39.63c-1.722 8.613-2.501 15.722-2.38 21.705.028 1.415.564 2.491 1.638 3.292 24.625 18.355 146.179 17.271 206.786-7.185 4.393-1.773 5.361-4.245 5.44-7.409l-2.359-21.28c-56.594 18.922-145.508 30.25-209.125 10.878z" fill="#112c41"/><path d="M317.179 694.827c-41.905 9.286-102.391 7.453-140.657-1.911 0 0-.597-16.099-1.462-36.133-.032-.695-.057-1.397-.083-2.1s-.051-1.405-.085-2.113l-.081-2.136c35.548 8.122 93.218 8.953 142.178 4.554 0 0-.001.1.008.284.001.064.012.148 0 .228.003.078.012.148.007.22a834.86 834.86 0 0 0 .174 39.107z" fill="#fff"/><path d="M252.615 701.919c-27.02 0-54.564-2.706-76.331-8.033a1 1 0 0 1-.762-.934c-.006-.161-.607-16.325-1.462-36.127a199.8 199.8 0 0 1-.078-1.962l-.01-.268c-.024-.657-.048-1.315-.08-1.979l-.081-2.145a.998.998 0 0 1 1.222-1.013c32.976 7.534 88.662 9.313 141.866 4.533a.998.998 0 0 1 1.09 1.011c0 .011 0 .088.006.219.006.111.008.203.004.288.006.118.008.201.001.285a830.313 830.313 0 0 0 .177 39.004 1 1 0 0 1-.783 1.004c-18.482 4.096-41.437 6.117-64.78 6.117zm-75.122-9.797c40.031 9.631 99.28 10.442 138.663 1.905a830.678 830.678 0 0 1-.159-37.947c-52.388 4.618-107.058 2.9-140.138-4.386l.032.839c.031.66.056 1.325.08 1.989l.01.269c.024.651.048 1.303.078 1.946a6865.903 6865.903 0 0 1 1.435 35.386z" fill="#112c41"/><circle cx="189.779" cy="720.873" fill="#ffe993" r="8.5"/><path d="M188.513 723.538c-15.303.223-31.878-7.613-36.631-12.019a2.833 2.833 0 0 1 3.851-4.155c3.649 3.383 19.462 11.021 33.582 10.487a2.832 2.832 0 1 1 .218 5.66 43.17 43.17 0 0 1-1.019.027z" fill="#fff"/><path d="M187.858 724.544c-15.579 0-31.835-7.822-36.657-12.291a3.837 3.837 0 0 1-.206-5.416 3.839 3.839 0 0 1 5.416-.206c3.554 3.294 19.014 10.753 32.865 10.221 2.072-.07 3.894 1.573 3.976 3.682.04 1.023-.322 2-1.017 2.751a3.808 3.808 0 0 1-2.665 1.226 44.988 44.988 0 0 1-1.711.033zm-34.051-16.933c-.493 0-.984.197-1.344.585a1.835 1.835 0 0 0 .098 2.59c4.551 4.218 20.916 11.973 35.937 11.753.332-.005.664-.014.995-.026.49-.019.942-.227 1.274-.586s.505-.826.487-1.315a1.827 1.827 0 0 0-1.903-1.76c-14.38.549-30.563-7.291-34.299-10.753a1.826 1.826 0 0 0-1.245-.487z" fill="#112c41"/><circle cx="173.334" cy="742.135" fill="#ffe993" r="8.5"/><path d="M171.99 744.762c-15.302-.23-32.739-10.5-37.36-15.045a2.832 2.832 0 1 1 3.972-4.038c3.548 3.489 20.227 13.539 34.357 13.423a2.832 2.832 0 0 1 .05 5.664c-.339.003-.68.002-1.019-.003z" fill="#fff"/><path d="M172.613 745.767c-.213 0-.426-.001-.639-.005-16.021-.241-33.708-11.066-38.045-15.333a3.837 3.837 0 0 1-.046-5.419 3.838 3.838 0 0 1 5.42-.045c3.242 3.188 19.393 13.137 33.406 13.137h.271a3.84 3.84 0 0 1 3.836 3.798c.009 1.023-.381 1.989-1.098 2.719s-1.676 1.138-2.7 1.146l-.405.002zm-35.997-19.901a1.83 1.83 0 0 0-1.285 3.137c4.175 4.106 21.214 14.525 36.673 14.758.331.005.663.006.994.003.491-.004.949-.199 1.292-.548s.529-.811.525-1.3a1.836 1.836 0 0 0-1.835-1.816c-.09-.004-.177 0-.265 0-14.59 0-31.431-10.383-34.814-13.711a1.828 1.828 0 0 0-1.285-.525z" fill="#112c41"/><path d="M384.132 231.063c-20 61-34 96-45 186-8.76 71.64-10.54 156.58-10.91 188.26-.08 7.64-5.41 14.23-12.87 15.89-2.03.45-4.27.93-6.69 1.42-16.16 3.27-40.35 7-64.53 6.43-42-1-69.86-10.7-69.86-10.7-.85-31.69-.14-69.3-.14-69.3s-20.63 13.65-42 23c-32 14-61.59 22.47-61.59 22.47s-54.41-85.47-67.41-210.47c-12.33-118.58 29-289 120-352 37.21-25.76 84.18-36.26 128.71-28.62 18.84 3.23 37.24 9.69 54.29 19.62 91 53 98 147 78 208z" fill="#9dd9f4"/><path d="M249.129 630.121c-1.673 0-3.345-.019-5.021-.059-41.675-.992-69.885-10.657-70.165-10.755a1 1 0 0 1-.671-.917c-.734-27.345-.3-59.46-.172-67.469-5.248 3.359-22.744 14.26-40.567 22.058-31.695 13.867-61.419 22.431-61.715 22.516a1.003 1.003 0 0 1-1.119-.424c-.545-.857-54.686-87.102-67.561-210.904C-10.437 263.236 32.029 93.918 122.562 31.241c37.515-25.97 84.699-36.46 129.449-28.783 19.492 3.342 37.87 9.984 54.624 19.741 41.072 23.921 69.11 59.052 81.084 101.593 9.581 34.038 8.619 73.25-2.637 107.583a4520.76 4520.76 0 0 1-6.424 19.407c-16.698 50.194-28.763 86.46-38.534 166.403-8.686 71.036-10.518 155.244-10.902 188.15-.085 8.153-5.7 15.084-13.653 16.854-2.036.451-4.282.933-6.708 1.424-14.997 3.035-37.108 6.508-59.731 6.508zm-73.876-12.486c4.434 1.433 31.05 9.527 68.903 10.429 24.149.566 48.303-3.172 64.308-6.41a382.72 382.72 0 0 0 6.672-1.416c7.041-1.567 12.011-7.704 12.086-14.924.385-32.941 2.219-117.236 10.917-188.372 9.795-80.141 21.886-116.487 38.622-166.792 2.069-6.221 4.208-12.651 6.421-19.398 20.53-62.616 12.538-154.354-77.553-206.824-16.547-9.637-34.7-16.197-53.955-19.498-44.24-7.59-90.884 2.782-127.972 28.456-41.513 28.738-76.446 83.654-98.364 154.63C5.542 251.62-2.189 323.221 4.126 383.96c12.243 117.719 61.913 201.318 66.865 209.4 4.735-1.396 31.918-9.604 60.74-22.213 21.048-9.208 41.644-22.782 41.849-22.918a.998.998 0 0 1 1.552.854c-.007.373-.69 37.392.121 68.553z" fill="#112c41"/><path d="M384.132 231.063c-20 61-34 96-45 186-8.76 71.64-10.54 156.58-10.91 188.26-.08 7.64-5.41 14.23-12.87 15.89-2.03.45-4.27.93-6.69 1.42 9.47-16.57 7.47-97.343 7.47-152.57 0-71 13.169-152.514 42-240 29-88-24-202-106.29-226.62 18.84 3.23 37.24 9.69 54.29 19.62 91 53 98 147 78 208z" fill="#6ecfea"/><g fill="#112c41"><path d="M249.105 630.122c-1.665 0-3.331-.019-4.997-.059-41.675-.992-69.88-10.653-70.16-10.75a1 1 0 0 1-.671-.917c-.739-27.35-.304-59.464-.177-67.473-5.249 3.359-22.745 14.26-40.567 22.057-31.695 13.867-61.415 22.432-61.711 22.517a1.002 1.002 0 0 1-1.119-.424c-.545-.857-54.69-87.103-67.565-210.905C-10.44 263.238 32.026 93.919 122.562 31.241c26.533-18.369 57.78-29.071 90.362-30.95 33.388-1.925 65.797 5.651 93.71 21.908 41.072 23.921 69.11 59.052 81.084 101.593 9.581 34.038 8.619 73.25-2.637 107.583a4567.364 4567.364 0 0 1-6.424 19.407c-16.698 50.194-28.763 86.46-38.534 166.403-8.703 71.209-10.521 155.3-10.899 188.148-.094 8.154-5.709 15.085-13.656 16.855-13.654 3.042-39.773 7.934-66.464 7.934zm-73.848-12.483c4.433 1.433 31.046 9.523 68.898 10.425 28.165.669 56.563-4.616 70.979-7.828 7.036-1.567 12.008-7.705 12.091-14.927.378-32.881 2.198-117.06 10.914-188.367 9.795-80.142 21.887-116.487 38.622-166.792 2.069-6.221 4.208-12.65 6.421-19.398 20.53-62.616 12.538-154.354-77.553-206.824-54.895-31.972-128.006-28.372-181.928 8.957-41.512 28.739-76.445 83.655-98.364 154.631C5.541 251.621-2.19 323.222 4.126 383.96c12.246 117.746 61.917 201.322 66.869 209.402 4.735-1.396 31.914-9.605 60.735-22.214 21.041-9.205 41.644-22.782 41.849-22.918a.999.999 0 0 1 1.552.854c-.007.373-.691 37.391.125 68.557z"/><path d="M173.943 564.563h-.004a1 1 0 0 1-.996-1.004c.059-14.211-.496-29.091-1.082-44.845-1.338-35.918-2.854-76.628 1.273-133.723 1.486-20.549 3.715-41.492 5.872-61.746 6.509-61.13 12.656-118.871-3.75-148.7a.999.999 0 1 1 1.752-.964c16.709 30.38 10.53 88.424 3.987 149.875-2.154 20.237-4.382 41.163-5.865 61.679-4.12 56.985-2.605 97.638-1.27 133.504.587 15.775 1.143 30.676 1.083 44.927a1 1 0 0 1-1 .996z"/></g></svg></g><g transform="translate(213.0 781.0) rotate(0.0 295.0 417.0) scale(0.9995171823780039 0.9991637694112122)"><svg width="590.285" height="834.698" viewBox="0 0 590.285 834.698"><path d="M70.993 720.88a834.077 834.077 0 0 0-1.863-39.065l-.004-.218c-.009-.085-.007-.167-.011-.231-.947-13.315-1.852-26.242-2.737-37.523 0 0 92.936-3.022 143.116-11.048.685 12.584 1.186 22.999 1.361 36.337.307 22.931.506 42.514.506 42.514z" fill="#ffd6c0"/><path d="m81.382 634.671 5.352 85.335c-3.756 2.829-10.978 8.39-13.786 9.845-2.326-34.053-6.254-91.137-6.254-91.137z" fill="#f5b9ab"/><path d="M70.993 721.88a1.001 1.001 0 0 1-1-.976c-.317-13.086-.908-25.484-1.861-39.019l-.007-.269s-.006-.076-.008-.144l-.36-5.091c-.826-11.631-1.605-22.617-2.377-32.461a1.002 1.002 0 0 1 .964-1.078c.929-.03 93.447-3.112 142.991-11.036a1.001 1.001 0 0 1 1.157.933c.638 11.713 1.18 22.535 1.362 36.378.303 22.67.504 42.321.506 42.517a1 1 0 0 1-.935 1.008l-140.367 9.234a1.368 1.368 0 0 1-.065.002zm-3.538-77.074c.746 9.583 1.5 20.208 2.297 31.434l.359 5.055.005.119.009.163.004.218a827.097 827.097 0 0 1 1.837 38.019l138.383-9.103c-.044-4.189-.23-21.72-.496-41.565-.176-13.369-.689-23.919-1.299-35.189-47.028 7.362-130.774 10.487-141.1 10.85z" fill="#112c41"/><path d="M278.422 789.19c-47.988 17.729-112.407 18.11-166.741 9.573-15.839-2.493-30.819-5.731-44.285-9.531 0 0 3.005-42.649 3.597-68.352l11.34-.714s128.689-8.412 129.028-8.519c10.053 4.893 55.821 30.092 67.061 77.544z" fill="#b2b0f7"/><path d="M179.775 805.149c-22.125 0-45.218-1.779-68.249-5.398-15.805-2.487-30.744-5.702-44.402-9.556a1 1 0 0 1-.726-1.033c.03-.426 3.011-42.92 3.596-68.305a1 1 0 0 1 .937-.975l11.339-.714c1.266-.083 126.591-8.276 128.949-8.511a.998.998 0 0 1 .58.091c9.262 4.508 56.051 29.468 67.597 78.212a1 1 0 0 1-.626 1.168c-26.841 9.916-61.526 15.021-98.994 15.021zM68.45 788.49c13.37 3.735 27.962 6.857 43.387 9.285 61.307 9.634 123.04 6.184 165.404-9.217-11.808-47.729-59.585-72.7-66.097-75.905-2.638.213-19.315 1.356-128.746 8.51l-10.427.657c-.585 23.545-3.11 60.716-3.521 66.669z" fill="#360815"/><path d="M67.396 789.232s3.005-42.649 3.597-68.352l14.046 1.646c2.364 22.347 5.527 57.319 16.449 74.689.115.182-20.626-4.183-34.092-7.983z" fill="#9797f7"/><path d="M140.673 804.842a2.5 2.5 0 0 1-2.497-2.421c-1.026-32.551-29.444-72.019-65.939-76.115a2.5 2.5 0 0 1 .557-4.969c18.304 2.055 35.906 12.383 49.564 29.082 12.678 15.501 20.265 34.397 20.815 51.845a2.499 2.499 0 0 1-2.42 2.577l-.08.001z" fill="#fff"/><path d="M179.775 805.149c-22.125 0-45.218-1.779-68.249-5.398-15.805-2.487-30.744-5.702-44.402-9.556a1 1 0 0 1-.726-1.033c.03-.426 3.011-42.92 3.596-68.305a1 1 0 0 1 .937-.975l11.339-.714c1.266-.083 126.591-8.276 128.949-8.511a.998.998 0 0 1 .58.091c9.262 4.508 56.051 29.468 67.597 78.212a1 1 0 0 1-.626 1.168c-26.841 9.916-61.526 15.021-98.994 15.021zM68.45 788.49c13.37 3.735 27.962 6.857 43.387 9.285 61.307 9.634 123.04 6.184 165.404-9.217-11.808-47.729-59.585-72.7-66.097-75.905-2.638.213-19.315 1.356-128.746 8.51l-10.427.657c-.585 23.545-3.11 60.716-3.521 66.669z" fill="#112c41"/><path d="M282.236 812.028c.051 1.596-.455 3.037-1.826 4.174-24.952 20.703-147.979 24.367-207.843 3.764-5.128-1.765-6.252-4.737-6.495-8.053l1.325-22.68c59.683 16.82 149.051 22.85 211.026-.042 2.023 7.754 3.584 15.627 3.814 22.838z" fill="#fff"/><path d="M178.072 834.702c-41.429 0-80.347-5.021-105.831-13.791-5.888-2.027-6.927-5.649-7.167-8.925a.954.954 0 0 1 0-.131l1.324-22.68a1 1 0 0 1 1.27-.904c57.469 16.196 147.827 23.099 210.408-.018a1.001 1.001 0 0 1 1.314.685c2.384 9.138 3.642 16.68 3.845 23.059.065 2.043-.67 3.717-2.186 4.975-11.881 9.857-46.921 16.602-91.446 17.602-3.856.087-7.708.129-11.531.129zM67.073 811.904c.244 3.155 1.339 5.573 5.819 7.116 61.797 21.267 183.243 16.022 206.879-3.588 1.03-.855 1.509-1.958 1.464-3.373-.19-5.979-1.338-13.039-3.507-21.551-62.521 22.656-151.904 15.972-209.408.021l-1.248 21.375z" fill="#112c41"/><path d="M70.994 720.875c42.332 7.092 102.64 2.114 140.367-9.229 0 0-.242-16.108-.42-36.161-.004-.695-.015-1.398-.026-2.101s-.022-1.406-.025-2.115l-.031-2.137c-35.077 9.962-92.626 13.793-141.749 11.948 0 0 .007.1.007.284.002.064-.004.149.011.228.001.078-.004.149.005.22a833.177 833.177 0 0 1 1.861 39.063z" fill="#fff"/><path d="M115.557 725.134c-16.132 0-31.517-1.059-44.729-3.272a.999.999 0 0 1-.834-.962c-.317-13.096-.908-25.494-1.859-39.017a1.925 1.925 0 0 1-.007-.228 2.348 2.348 0 0 1-.011-.232c0-.19-.005-.268-.005-.282-.017-.282.086-.558.284-.759s.456-.312.752-.301c53.38 2.006 108.899-2.669 141.438-11.91a1 1 0 0 1 1.273.948l.031 2.134c.003.717.014 1.415.025 2.114.011.708.022 1.414.026 2.112.177 19.817.418 35.991.42 36.152.006.447-.284.844-.712.973-26.88 8.082-63.042 12.531-96.091 12.531zm-43.584-5.11c39.773 6.476 98.899 2.582 138.376-9.12a6829.49 6829.49 0 0 1-.41-35.41 210.52 210.52 0 0 0-.026-2.093c-.011-.709-.021-1.414-.025-2.126l-.012-.829c-32.658 8.998-87.161 13.559-139.722 11.674a829.075 829.075 0 0 1 1.818 37.904z" fill="#112c41"/><circle cx="199.577" cy="740.255" fill="#ffe993" r="8.5"/><path d="M200.98 742.851c15.293-.574 31.438-9.262 35.956-13.91a2.832 2.832 0 1 0-4.062-3.948c-3.468 3.568-18.862 12.019-32.99 12.22a2.83 2.83 0 1 0 .077 5.663c.339-.004.679-.013 1.019-.026z" fill="#fff"/><path d="M199.92 743.878a3.807 3.807 0 0 1-2.67-1.086 3.81 3.81 0 0 1-1.159-2.694 3.839 3.839 0 0 1 3.779-3.884c13.853-.197 28.911-8.442 32.288-11.917a3.838 3.838 0 0 1 5.419-.077c.734.713 1.146 1.67 1.161 2.693s-.371 1.992-1.084 2.726c-4.647 4.781-20.864 13.619-36.634 14.211-.348.014-.698.022-1.045.027h-.054zm34.986-18.741a1.83 1.83 0 0 0-1.314.554c-3.549 3.652-19.294 12.318-33.693 12.523a1.836 1.836 0 0 0-1.808 1.856c.007.489.204.947.554 1.289.351.341.825.518 1.302.519.331-.004.663-.012.994-.025h.001c15.025-.564 30.952-9.158 35.276-13.607.342-.351.526-.814.519-1.303s-.204-.947-.555-1.288a1.826 1.826 0 0 0-1.276-.517z" fill="#112c41"/><circle cx="217.106" cy="760.633" fill="#ffe993" r="8.5"/><path d="M218.586 763.186c15.27-1.026 32.148-12.19 36.526-16.97a2.833 2.833 0 0 0-4.177-3.827c-3.361 3.669-19.495 14.574-33.612 15.193a2.832 2.832 0 1 0 .245 5.659c.339-.014.679-.033 1.018-.056z" fill="#fff"/><path d="M217.44 764.245a3.8 3.8 0 0 1-2.584-1.008 3.808 3.808 0 0 1-1.238-2.659 3.839 3.839 0 0 1 3.662-3.994c14.056-.617 29.83-11.498 32.919-14.869a3.837 3.837 0 0 1 5.414-.237 3.836 3.836 0 0 1 .237 5.414c-4.109 4.486-21.208 16.218-37.197 17.292-.347.024-.695.042-1.043.057-.057.002-.113.004-.169.004zm35.584-21.772c-.496 0-.991.2-1.352.594-3.224 3.519-19.671 14.874-34.305 15.516a1.835 1.835 0 0 0-1.752 1.909c.021.489.231.94.592 1.271.36.331.82.498 1.317.48.332-.014.663-.032.994-.054 15.426-1.037 31.9-12.33 35.856-16.647a1.835 1.835 0 0 0-.114-2.589 1.826 1.826 0 0 0-1.236-.48z" fill="#112c41"/><path d="M363.725 710.176a833.569 833.569 0 0 0-9.787-37.865l-.049-.213c-.026-.082-.041-.162-.058-.223-3.641-12.842-7.162-25.314-10.328-36.178 0 0 90.368-21.903 137.859-39.989 3.236 12.18 5.849 22.274 8.739 35.297 4.975 22.387 9.162 41.518 9.162 41.518l-135.538 37.652z" fill="#ffd6c0"/><path d="m356.323 623.659 22.635 82.452c-3.1 3.535-9.038 10.452-11.49 12.448-9.218-32.864-24.7-87.948-24.7-87.948l13.556-6.952z" fill="#f5b9ab"/><path d="M363.725 711.176a.994.994 0 0 1-.973-.773c-2.977-12.744-6.083-24.761-9.775-37.821l-.062-.264s-.021-.073-.037-.139l-1.417-5.007c-3.169-11.182-6.162-21.744-8.916-31.195a.998.998 0 0 1 .725-1.252c.903-.219 90.851-22.095 137.739-39.951a.996.996 0 0 1 1.322.677c3.011 11.333 5.748 21.815 8.749 35.336 4.918 22.133 9.121 41.33 9.163 41.521a1 1 0 0 1-.709 1.177l-135.539 37.652a1.019 1.019 0 0 1-.268.037zm-18.97-74.755c2.676 9.2 5.57 19.415 8.628 30.207l1.41 4.975.029.113c.009.027.037.135.043.162l.047.205a827.626 827.626 0 0 1 9.549 36.852l133.623-37.121c-.897-4.092-4.653-21.217-8.958-40.591-2.898-13.058-5.551-23.28-8.445-34.186-44.54 16.793-125.891 36.924-135.925 39.384z" fill="#112c41"/><path d="M580.723 734.77c-43.367 27.138-106.356 40.642-161.289 43.36-16.015.788-31.34.672-45.298-.303 0 0-5.751-42.367-10.411-67.651l10.956-3.011s124.273-34.468 124.582-34.642c10.839 2.741 60.783 18.082 81.46 62.246z" fill="#b2b0f7"/><path d="M398.711 779.651c-8.517 0-16.754-.276-24.645-.827a1 1 0 0 1-.921-.863c-.058-.424-5.802-42.632-10.404-67.604a1.001 1.001 0 0 1 .718-1.146l10.956-3.011c1.223-.339 122.262-33.911 124.507-34.618.187-.068.392-.078.586-.029 9.986 2.525 60.879 17.422 82.12 62.792a1 1 0 0 1-.375 1.271c-38.58 24.143-99.055 40.409-161.77 43.512-7.073.348-14.011.522-20.772.522zm-23.694-2.767c13.849.932 28.771 1.015 44.368.247 61.981-3.066 121.716-19.028 160.052-42.739-21.289-44.321-73.152-59.028-80.18-60.838-2.538.746-18.626 5.263-124.309 34.575l-10.074 2.768c4.227 23.17 9.333 60.076 10.143 65.987z" fill="#360815"/><path d="M374.136 777.827s-5.751-42.367-10.411-67.651l14.087-1.251c6.87 21.396 17.095 54.989 31.328 69.768.149.155-21.046.109-35.004-.866z" fill="#9797f7"/><path d="M448.547 778.225a2.5 2.5 0 0 1-2.428-1.914c-7.641-31.659-43.51-64.506-80.071-61.076a2.5 2.5 0 1 1-.467-4.979c18.335-1.719 37.676 4.803 54.452 18.369 15.572 12.591 26.851 29.544 30.946 46.513a2.5 2.5 0 0 1-2.432 3.087z" fill="#fff"/><path d="M398.711 779.651c-8.517 0-16.754-.276-24.645-.827a1 1 0 0 1-.921-.863c-.058-.424-5.802-42.632-10.404-67.604a1.001 1.001 0 0 1 .718-1.146l10.956-3.011c1.223-.339 122.262-33.911 124.507-34.618.187-.068.392-.078.586-.029 9.986 2.525 60.879 17.422 82.12 62.792a1 1 0 0 1-.375 1.271c-38.58 24.143-99.055 40.409-161.77 43.512-7.073.348-14.011.522-20.772.522zm-23.694-2.767c13.849.932 28.771 1.015 44.368.247 61.981-3.066 121.716-19.028 160.052-42.739-21.289-44.321-73.152-59.028-80.18-60.838-2.538.746-18.626 5.263-124.309 34.575l-10.074 2.768c4.227 23.17 9.333 60.076 10.143 65.987z" fill="#112c41"/><path d="M589.112 756.351c.375 1.552.174 3.066-.936 4.458-20.208 25.354-139.905 54.019-202.712 46.051-5.38-.683-7.087-3.364-8.001-6.56l-3.326-22.474c61.859 4.301 150.579-8.012 206.587-43.057 3.561 7.178 6.694 14.569 8.389 21.581z" fill="#fff"/><path d="M409.504 809.217c-8.818 0-16.943-.448-24.167-1.365-6.177-.784-7.933-4.119-8.836-7.277a1.123 1.123 0 0 1-.028-.128l-3.326-22.474a1 1 0 0 1 1.058-1.144c59.569 4.143 149.431-7.519 205.987-42.907a.999.999 0 0 1 1.426.403c4.197 8.458 6.966 15.586 8.465 21.79.48 1.987.101 3.776-1.126 5.316-9.622 12.073-42.552 25.818-85.938 35.873-33.481 7.759-66.688 11.913-93.516 11.913zm-31.062-9.129c.881 3.04 2.447 5.184 7.147 5.78 64.833 8.228 182.661-21.665 201.804-45.682.835-1.047 1.079-2.225.747-3.601-1.406-5.816-3.969-12.493-7.827-20.384-56.59 34.925-145.457 46.602-205.006 42.706z" fill="#112c41"/><path d="M363.725 710.172c42.889-1.685 100.916-18.852 135.539-37.648 0 0-3.52-15.72-7.783-35.316-.146-.68-.3-1.366-.454-2.052s-.308-1.372-.456-2.065l-.466-2.086c-32.31 16.903-87.87 32.384-136.337 40.591 0 0 .027.096.065.277.015.062.026.146.057.221.017.076.026.146.05.215a835.01 835.01 0 0 1 9.785 37.863z" fill="#fff"/><path d="M363.724 711.172a1 1 0 0 1-.973-.772c-2.98-12.757-6.086-24.774-9.774-37.819a1.84 1.84 0 0 1-.053-.22 2.592 2.592 0 0 1-.058-.226 5.552 5.552 0 0 0-.062-.272 1.005 1.005 0 0 1 .797-1.252c52.67-8.918 106.069-24.812 136.041-40.492a1.001 1.001 0 0 1 1.44.668l.465 2.084c.147.691.298 1.364.449 2.037l.042.188c.143.636.285 1.271.42 1.901 4.213 19.365 7.746 35.15 7.781 35.307a1 1 0 0 1-.499 1.098c-36.708 19.928-95.166 36.165-135.977 37.768h-.04zm-8.72-38.77a830.46 830.46 0 0 1 9.506 36.737c40.258-1.767 97.349-17.631 133.612-37.134-.746-3.339-3.92-17.581-7.619-34.583-.135-.627-.276-1.256-.417-1.885l-.036-.16c-.159-.708-.312-1.388-.458-2.076l-.181-.809c-30.137 15.467-82.563 31.041-134.408 39.91z" fill="#112c41"/><circle cx="493.558" cy="702.935" fill="#ffe993" r="8.5"/><path d="M495.462 705.19c14.855-3.679 28.89-15.476 32.366-20.947a2.832 2.832 0 1 0-4.781-3.037c-2.668 4.2-16.016 15.612-29.807 18.688a2.833 2.833 0 0 0 1.229 5.529c.331-.073.663-.151.992-.233z" fill="#fff"/><path d="M493.854 706.491a3.838 3.838 0 0 1-3.74-3.001 3.84 3.84 0 0 1 2.907-4.572c13.521-3.017 26.583-14.159 29.181-18.249a3.84 3.84 0 0 1 5.29-1.18 3.837 3.837 0 0 1 1.18 5.29c-3.576 5.629-17.651 17.588-32.97 21.382a45.3 45.3 0 0 1-1.016.239 3.833 3.833 0 0 1-.832.091zm31.586-25.598c-.606 0-1.201.3-1.55.849-2.73 4.299-16.378 15.992-30.433 19.128a1.836 1.836 0 0 0-1.391 2.186c.106.478.392.886.805 1.148.412.263.902.35 1.381.243.323-.072.646-.148.969-.228 14.594-3.614 28.435-15.275 31.762-20.513a1.834 1.834 0 0 0-1.543-2.814z" fill="#112c41"/><circle cx="514.873" cy="719.311" fill="#ffe993" r="8.5"/><path d="M516.843 721.509c14.74-4.118 28.988-18.487 32.3-24.059a2.833 2.833 0 0 0-4.869-2.895c-2.543 4.277-16.115 18.242-29.809 21.726a2.834 2.834 0 0 0 1.393 5.491 42 42 0 0 0 .985-.262z" fill="#fff"/><path d="M515.155 722.86a3.818 3.818 0 0 1-1.954-.541 3.81 3.81 0 0 1-1.754-2.351 3.838 3.838 0 0 1 2.771-4.657c13.635-3.469 26.86-17.337 29.197-21.268a3.836 3.836 0 0 1 5.252-1.335 3.837 3.837 0 0 1 1.336 5.252c-3.109 5.23-17.458 20.2-32.891 24.511-.335.094-.672.184-1.009.269-.314.08-.632.119-.948.119zm31.558-28.689c-.626 0-1.236.32-1.579.896-2.438 4.102-16.226 18.572-30.422 22.184a1.837 1.837 0 0 0-1.326 2.227c.12.475.418.874.838 1.124a1.82 1.82 0 0 0 1.388.202c.322-.081.643-.167.962-.256 14.891-4.16 28.717-18.573 31.71-23.607a1.836 1.836 0 0 0-.639-2.512 1.815 1.815 0 0 0-.932-.256z" fill="#112c41"/><path d="M483.32 603.14S447 621.1 409 631.1c-18.17 4.78-38.17 8.19-54.09 10.45-4.85.69-9.33 1.27-13.26 1.75-9.26 1.13-17.8-5.17-19.41-14.37-4.72-26.86-15.38-84.63-31.24-153.83-21.27-92.8-53.75-178.13-90.22-228.88v-.01s-.01 0-.02-.02c-1.25-1.74-2.5-3.44-3.76-5.09.02.34.05.68.07 1.02v.01C201.1 298.66 209 344.83 209 465.1c0 121 .9 175.48.9 175.48S182 648.1 133 649.1c-25.76.53-46.56-.61-60.48-1.8-2.23-.19-4.28-.38-6.15-.57a16.157 16.157 0 0 1-14.48-14.71C48.85 596.5 40.1 495.65 32 417.1c-7.54-73.16-31-165-31-247C1 107.96 45.12 26.43 130.09 5.87 149.04 1.28 170.02-.27 193 2.1c140.85 14.53 200 211 234 339s56.32 262.04 56.32 262.04z" fill="#ffa9dc"/><path d="M120.182 650.233c-20.366 0-36.837-1.003-47.747-1.936-2.236-.19-4.291-.381-6.166-.571-8.208-.828-14.675-7.397-15.375-15.621-3.335-38.968-11.949-137.916-19.888-214.902-2.784-27.01-7.692-56.285-12.889-87.278C9.21 276.804 0 221.874 0 170.1c0-32.827 11.978-68.65 32.864-98.283C49.706 47.92 80.205 16.912 129.855 4.898c19.82-4.8 41.1-6.076 63.247-3.792 33.226 3.428 64.097 17.336 91.755 41.338 23.94 20.776 46.175 49.753 66.088 86.125 35.228 64.346 57.836 140.05 77.021 212.274 33.624 126.582 56.117 260.792 56.34 262.133.072.435-.148.865-.543 1.061-.364.18-36.847 18.12-74.509 28.031-15.218 4.003-33.455 7.527-54.204 10.473-4.31.613-8.777 1.203-13.279 1.752-9.807 1.194-18.817-5.477-20.516-15.19-4.93-28.051-15.542-85.332-31.23-153.779-22.072-96.299-54.896-179.591-90.057-228.52-.009-.013-.018-.025-.026-.039-.589-.82-1.154-1.598-1.703-2.343.96 13.072 2.118 25.601 3.338 38.822 3.948 42.75 8.422 91.204 8.422 181.856 0 119.605.891 174.919.9 175.463a1 1 0 0 1-.74.982c-.28.076-28.58 7.563-77.14 8.555-4.43.091-8.714.132-12.838.132zM172.043 2.005c-14.454 0-28.42 1.616-41.718 4.836C46.975 27.01 2 106.009 2 170.1c0 51.607 9.196 106.454 18.089 159.494 5.202 31.025 10.116 60.331 12.906 87.404C40.935 494 49.551 592.962 52.887 631.935c.619 7.266 6.332 13.07 13.583 13.801 1.866.189 3.911.379 6.135.568 13.072 1.117 34.158 2.336 60.375 1.797 43.926-.897 71.139-7.121 75.909-8.296-.108-7.159-.888-62.797-.888-174.705 0-90.56-4.47-138.965-8.414-181.672-1.295-14.025-2.519-27.273-3.513-41.226l-.071-1.043a1 1 0 0 1 1.793-.665 217.34 217.34 0 0 1 3.738 5.059.986.986 0 0 1 .118.167c35.289 49.148 68.208 132.663 90.324 229.158 15.698 68.491 26.317 125.81 31.25 153.881 1.517 8.666 9.56 14.617 18.304 13.55a671.103 671.103 0 0 0 13.24-1.748c20.673-2.935 38.833-6.443 53.976-10.427 34.672-9.124 68.344-25.09 73.464-27.564-1.844-10.908-23.87-139.588-56.176-261.211-19.152-72.103-41.717-147.668-76.842-211.828C306.72 51.951 254.135 9.412 192.897 3.095a203.238 203.238 0 0 0-20.854-1.089z" fill="#112c41"/><path d="M30 210.1c1 65 24 233 29 309 4.007 60.901 2.03 114.4 13.52 128.2-2.23-.19-4.28-.38-6.15-.57a16.157 16.157 0 0 1-14.48-14.71C48.85 596.5 40.1 495.65 32 417.1c-7.54-73.16-31-165-31-247C1 107.96 45.12 26.43 130.09 5.87 49 47.1 28.568 117.052 30 210.1zm324.91 431.45c-4.85.69-9.33 1.27-13.26 1.75-9.26 1.13-17.8-5.17-19.41-14.37-4.72-26.86-15.38-84.63-31.24-153.83-21.27-92.8-53.75-178.13-90.22-228.88v-.01s-.01 0-.02-.02c-.24-.15-2.36-1.62-3.69-4.06v-.01c-.62-1.14-1.07-2.49-1.07-4.02 0-5-.82-28.94 1.09-33.97 0 0 52.91 39.97 81.91 146.97 24.94 92.022 43 192 50 231s8.54 55.12 24.77 59.06c.43.1.81.23 1.14.39z" fill="#ff90d8"/><g fill="#112c41"><path d="M120.027 650.233c-23.363 0-41.769-1.307-53.756-2.509-8.208-.823-14.675-7.391-15.378-15.617-3.313-38.75-11.882-137.262-19.887-214.904-2.784-27.008-7.692-56.278-12.888-87.267C9.21 276.812 0 221.878 0 170.1c0-21.472 5.128-44.429 14.829-66.388 10.361-23.454 25.57-44.631 43.982-61.241 25.058-22.606 68.7-48.135 134.291-41.365 33.226 3.428 64.097 17.336 91.755 41.339 23.94 20.776 46.175 49.752 66.088 86.125 35.227 64.346 57.836 140.05 77.02 212.274 33.624 126.582 56.122 260.796 56.345 262.137.072.435-.148.865-.543 1.061-.364.18-36.852 18.115-74.514 28.026-23.333 6.14-49.575 10.035-67.482 12.221-9.801 1.196-18.813-5.473-20.519-15.183-4.915-27.986-15.506-85.179-31.228-153.782-22.545-98.379-55.903-182.225-91.784-230.896.96 13.089 2.12 25.644 3.341 38.875 3.946 42.743 8.417 91.188 8.417 181.797 0 119.605.895 174.917.904 175.462a1 1 0 0 1-.74.982c-.28.076-28.584 7.564-77.144 8.556-4.483.091-8.818.133-12.994.133zM171.979 1.998c-53.348 0-89.835 22.117-111.829 41.958C24.282 76.315 2 124.65 2 170.1c0 51.612 9.196 106.461 18.09 159.505 5.201 31.021 10.114 60.322 12.904 87.393C41 494.656 49.572 593.181 52.885 631.936c.621 7.268 6.334 13.071 13.584 13.798 14.075 1.412 37.041 2.969 66.509 2.366 43.926-.896 71.142-7.122 75.913-8.296-.108-7.159-.892-62.796-.892-174.704 0-90.517-4.467-138.914-8.409-181.613-1.327-14.383-2.582-27.968-3.588-42.317a1 1 0 0 1 1.794-.675c36.819 48.446 71.146 133.875 94.178 234.381 15.732 68.647 26.331 125.878 31.249 153.883 1.521 8.662 9.564 14.613 18.307 13.543 17.845-2.179 43.992-6.059 67.215-12.17 34.665-9.122 68.346-25.086 73.469-27.56-1.845-10.908-23.875-139.592-56.181-261.216-19.152-72.102-41.717-147.668-76.842-211.827C306.721 51.952 254.136 9.413 192.897 3.095a203.789 203.789 0 0 0-20.918-1.097z"/><path d="M198.998 265.1a1 1 0 0 1-.988-.854c-6.296-42.812-4.02-70.365 7.164-86.71a1 1 0 1 1 1.651 1.129c-10.882 15.905-13.054 43.006-6.836 85.29a1 1 0 0 1-.991 1.146z"/></g></svg></g><g transform="translate(195.0 219.0) rotate(29.998102506316037 175.5 151.5) scale(1.0101998526432123 1.0108659751854088)"><svg width="347.456" height="299.743" viewBox="0 0 347.456 299.743"><circle cx="313.794" cy="133.433" fill="#ffd6c0" r="28.57"/><path d="M321.584 160.92a28.567 28.567 0 0 0 20.071-33.809 28.572 28.572 0 0 1-55.89 4.64q-.2-.739-.37-1.478a28.59 28.59 0 0 0 36.189 30.647z" fill="#f5b9ab"/><path d="M313.817 163a29.653 29.653 0 0 1-15.5-4.365 1 1 0 0 1 1.047-1.705 27.568 27.568 0 1 0-12.594-18.009 1 1 0 0 1-1.959.4 29.678 29.678 0 0 1 20.92-34.335A29.569 29.569 0 1 1 313.817 163z" fill="#112c41"/><path d="M302.546 145.26a1 1 0 0 1-.823-.429 18.122 18.122 0 0 1 4.192-25.247 17.645 17.645 0 0 1 15.229-2.366 1 1 0 0 1-.574 1.916 15.646 15.646 0 0 0-13.513 2.092 16.118 16.118 0 0 0-3.691 22.463 1 1 0 0 1-.82 1.571z" fill="#112c41"/><circle cx="226.446" cy="196.341" fill="#ffd6c0" r="102.5"/><path d="M155.917 122.373c.249-.239.507-.463.758-.7l13.467 4.366c-38.4 37.156-40.885 96.151-4.388 134.091 36.563 38.009 98.4 40.494 137.007 3.356a98.234 98.234 0 0 0 10.412-11.736 102.51 102.51 0 1 1-157.256-129.377z" fill="#f5b9ab"/><path d="M227 299.694a103.45 103.45 0 1 1 71.733-28.86A103.206 103.206 0 0 1 227 299.694zm-73.173-33.084a101.5 101.5 0 1 0 2.783-143.516 101.616 101.616 0 0 0-2.783 143.516z" fill="#112c41"/><ellipse cx="205.228" cy="188.111" fill="#112c41" rx="6.828" ry="9.104" transform="matrix(.72068422 -.69326348 .69326348 .72068422 -73.087 194.819)"/><ellipse cx="181.282" cy="169.093" fill="#112c41" rx="14.13" ry="9.336" transform="matrix(.61176177 -.79104205 .79104205 .61176177 -63.379 209.051)"/><ellipse cx="287.714" cy="168.082" fill="#ffa6e0" rx="12.121" ry="8.009" transform="matrix(.64400347 -.76502257 .76502257 .64400347 -26.161 279.944)"/><ellipse cx="208.206" cy="216.799" fill="#ffa6e0" rx="12.121" ry="8.009" transform="matrix(.95320122 -.30233662 .30233662 .95320122 -55.802 73.094)"/><g fill="#112c41"><ellipse cx="256.241" cy="121.518" rx="13.016" ry="8.6" transform="matrix(.98691207 -.16125933 .16125933 .98691207 -16.242 42.911)"/><path d="M257.99 114.772c4.816 0 8.653 2.09 9.124 4.969.348 2.135-1.207 3.94-2.165 4.825a14.849 14.849 0 0 1-7.643 3.465 17.461 17.461 0 0 1-2.813.232c-4.816 0-8.654-2.09-9.124-4.969-.349-2.135 1.207-3.939 2.165-4.825a14.846 14.846 0 0 1 7.643-3.469 17.566 17.566 0 0 1 2.813-.232m0-2a19.623 19.623 0 0 0-3.135.258c-7.094 1.159-12.225 5.9-11.459 10.587.651 3.983 5.348 6.646 11.1 6.646a19.489 19.489 0 0 0 3.135-.258c7.1-1.159 12.225-5.9 11.459-10.586-.65-3.983-5.348-6.647-11.1-6.647z"/><ellipse cx="263.428" cy="150.022" rx="6.828" ry="9.104" transform="matrix(.92030014 -.39121305 .39121305 .92030014 -37.695 115.014)"/><path d="M228.417 192.649c8.063 9.545 19.732 13.193 27.651 8.089s9.418-17.237 4.056-28.523z"/><path d="M247.916 204.046c-6.836 0-14.4-3.816-20.263-10.752a1 1 0 0 1 .222-1.486l31.707-20.434a1 1 0 0 1 1.445.412c5.68 11.953 3.822 24.483-4.417 29.792a15.868 15.868 0 0 1-8.694 2.468zm-17.986-11.184c7.824 8.674 18.447 11.643 25.6 7.035s8.834-15.507 4.167-26.215z"/></g><path d="M260.9 194.544c-4.822-1.935-11.112-.562-15.747 3.895a17.791 17.791 0 0 0-2.953 3.71c4.947 1.51 9.885 1.158 13.872-1.411a14.684 14.684 0 0 0 5.25-6.014q-.213-.094-.422-.18z" fill="#ffa6e0"/><path d="M247.921 204.04a20.637 20.637 0 0 1-6.017-.934 1 1 0 0 1-.567-1.467 18.67 18.67 0 0 1 3.119-3.92c4.761-4.579 11.52-6.229 16.812-4.1h.005q.229.093.453.193a1 1 0 0 1 .492 1.35 15.6 15.6 0 0 1-5.609 6.417 15.868 15.868 0 0 1-8.688 2.461zm-4.137-2.5a15.024 15.024 0 0 0 11.742-1.646 13.427 13.427 0 0 0 4.383-4.649c-4.482-1.478-10.05.047-14.066 3.912a16.9 16.9 0 0 0-2.059 2.386z" fill="#112c41"/><circle cx="130.328" cy="256.606" fill="#ffd6c0" r="30.5"/><path d="M160.894 255.092a33.246 33.246 0 0 1-2.955 7.019c-8.024 14.817-27 19.952-41.808 11.933-9.718-5.259-14.734-14.706-15.242-24.981-3.528 13.289 1.631 27.416 14.266 34.261a30.493 30.493 0 0 0 41.345-12.291c2.76-5.09 4.671-10.541 4.394-15.941z" fill="#f5b9ab"/><path d="M130.345 288.106c-.209 0-.417 0-.627-.006a31.5 31.5 0 0 1-21.228-54.2 31.618 31.618 0 0 1 42.824-.792 1 1 0 0 1-1.334 1.491 29.606 29.606 0 0 0-40.1.743 29.5 29.5 0 1 0 40.9 42.52 31.456 31.456 0 0 0 9.115-22.753 1 1 0 0 1 2-.043 33.52 33.52 0 0 1-9.728 24.238 31.286 31.286 0 0 1-21.822 8.802z" fill="#112c41"/><path d="M113.915 260.325a1 1 0 0 1-1-.982 18.676 18.676 0 0 1 20.826-19.038 19.639 19.639 0 0 1 13.046 7.109 1 1 0 0 1-1.545 1.272 17.643 17.643 0 0 0-11.721-6.393 16.678 16.678 0 0 0-18.606 17.015 1 1 0 0 1-.983 1.017z" fill="#112c41"/><path d="M116.179 139.982a104.786 104.786 0 0 1 10.347-19.834 108.554 108.554 0 0 1 13.557-16.548c30.324-30.385 73.906-38.744 109.335-24.349a88.937 88.937 0 0 1 26.588 16.739c1.6 1.464.5 3.229-1.195 3.354-17.081 1.261-45.442 10.938-64.12 20.7-12.461 6.512-24.387 15.38-35.909 25.459q-7.269 6.358-13.747 13.111a63.913 63.913 0 0 1-11.53-25.056c-1.708 10.215-.23 22.976 3.071 34.471-13.549 16.058-24.416 33.839-30.892 50.6-.536 1.385-2.243 1.978-3.129.143-11.712-24.237-12.536-52.872-2.376-78.79z" fill="#b2b0f7"/><path d="M121.487 219.133c2.448-6.416 8.485-18.3 12.014-24.739-10.389-21.658-13.911-55.679 4.136-82.793a98.047 98.047 0 0 1 22.6-23.909 109.117 109.117 0 0 0-33.718 32.455c-20.285 30.489-23.019 68.548-7.729 99.108a1.477 1.477 0 0 0 2.697-.122z" fill="#9797f7"/><path d="M120.044 220.918a2.7 2.7 0 0 1-2.39-1.715c-11.791-24.4-12.668-53.406-2.406-79.587a106.068 106.068 0 0 1 10.446-20.022 109.871 109.871 0 0 1 13.681-16.7 106.771 106.771 0 0 1 53.252-29.239 97.235 97.235 0 0 1 57.173 4.67 89.9 89.9 0 0 1 26.886 16.926 2.9 2.9 0 0 1 .963 3.11 3.091 3.091 0 0 1-2.758 1.981c-17.737 1.309-46.332 11.5-63.732 20.588-11.3 5.9-22.981 14.187-35.714 25.324a219.196 219.196 0 0 0-13.684 13.052 1.015 1.015 0 0 1-.784.3 1 1 0 0 1-.739-.4A66.874 66.874 0 0 1 149.9 139.1a88.366 88.366 0 0 0 3.637 28.653 1 1 0 0 1-.2.921c-13.421 15.907-24.333 33.774-30.725 50.312a2.869 2.869 0 0 1-2.474 1.932h-.094zm93.863-147.536a99.744 99.744 0 0 0-20.861 2.229 104.786 104.786 0 0 0-52.255 28.7 108.014 108.014 0 0 0-13.433 16.389 104.115 104.115 0 0 0-10.249 19.646c-10.058 25.663-9.2 54.088 2.346 77.985.086.178.313.586.594.586h.011a.944.944 0 0 0 .691-.655c6.415-16.6 17.314-34.5 30.718-50.473-3.472-12.328-4.548-24.837-2.951-34.4a1 1 0 0 1 .967-.835h.02a1 1 0 0 1 .979.8 62.887 62.887 0 0 0 10.656 23.71 222.508 222.508 0 0 1 12.984-12.317c12.853-11.242 24.663-19.613 36.1-25.592 17.579-9.186 46.516-19.481 64.51-20.808a1.142 1.142 0 0 0 1.017-.641c.129-.373-.159-.738-.423-.979a87.911 87.911 0 0 0-26.289-16.549 93.136 93.136 0 0 0-35.132-6.796z" fill="#112c41"/><circle cx="151.717" cy="281.49" fill="#fff" r="11.5"/><path d="M151.69 293.994a12.5 12.5 0 0 1-12.268-10.256 12.474 12.474 0 1 1 12.268 10.256zm.049-23.007a10.671 10.671 0 0 0-1.911.174 10.514 10.514 0 0 0-8.44 12.218 10.5 10.5 0 1 0 10.351-12.392z" fill="#112c41"/><circle cx="334.954" cy="160.56" fill="#fff" r="11.5"/><path d="M334.928 173.064a12.508 12.508 0 0 1-12.27-10.256 12.5 12.5 0 1 1 14.542 10.048 12.715 12.715 0 0 1-2.272.208zm-10.3-10.616a10.5 10.5 0 1 0 8.44-12.217 10.432 10.432 0 0 0-8.44 12.217zM59.964 133.784q-1.794 0-3.585-.092c-16.968-.875-32.062-7.912-42.5-19.812C-8.73 88.113-3.147 45.283 26.322 18.405a1 1 0 0 1 1.348 1.479C-1 46.032-6.513 87.608 15.381 112.562c10.081 11.49 24.677 18.286 41.1 19.132 19.1.987 38.44-6.2 53.02-19.719a1 1 0 1 1 1.359 1.467 75.455 75.455 0 0 1-50.896 20.342z" fill="#112c41"/><path d="M114.454 109.405a63 63 0 1 0-89.079-1.728 63 63 0 0 0 89.079 1.728" fill="#9797f7"/><path d="M34.856 88.594a61.054 61.054 0 0 0 98.02-13.948A63.027 63.027 0 0 0 21.948 24.175a61.029 61.029 0 0 0 12.908 64.419z" fill="#b2b0f7"/><path d="M70.792 127.972a63.975 63.975 0 0 1-49.618-104.43 64.754 64.754 0 0 1 5.231-5.665 64 64 0 1 1 44.387 110.1zM70.765 2.03a61.791 61.791 0 0 0-42.972 17.288 62.7 62.7 0 0 0-5.07 5.489A62.079 62.079 0 1 0 70.765 2.03z" fill="#112c41"/></svg></g><g transform="translate(836.0 254.0) rotate(0.0 120.5 362.5) scale(1.0 1.0)"><svg width="241" height="725" viewBox="0 0 241 725"><path d="M118 725a1 1 0 0 1-1-1V296a1 1 0 0 1 2 0v428a1 1 0 0 1-1 1z" fill="#112c41"/><path d="m114 286-13.314 29.956c-1.263 2.843.817 6.044 3.928 6.044h26.113c3.381 0 5.611-3.519 4.167-6.576L120.999 286" fill="#ff90d8"/><path d="M130.727 323h-26.113a5.28 5.28 0 0 1-4.443-2.411 5.283 5.283 0 0 1-.399-5.04l13.314-29.956a1 1 0 1 1 1.827.813L101.6 316.362c-.462 1.04-.371 2.183.249 3.137s1.628 1.501 2.766 1.501h26.113c1.243 0 2.383-.627 3.048-1.677s.745-2.348.214-3.472l-13.895-29.424a1 1 0 1 1 1.809-.853l13.895 29.423c.825 1.748.7 3.765-.334 5.397S132.66 323 130.728 323z" fill="#112c41"/><path d="M240 148.5c0 81.46-53.5 147.5-119.5 147.5-11.35 0-22.34-1.95-32.75-5.61C37.68 272.82 1 215.95 1 148.5 1 67.04 54.5 1 120.5 1c26.66 0 51.29 10.78 71.17 29C221 56.88 240 99.95 240 148.5z" fill="#ffa9dc"/><path d="M120.5 297a99.478 99.478 0 0 1-33.082-5.667c-24.711-8.671-46.968-27.372-62.669-52.656C8.558 212.605 0 181.422 0 148.5 0 66.617 54.056 0 120.5 0c26.113 0 50.957 10.119 71.846 29.263C222.811 57.184 241 101.759 241 148.5c0 81.883-54.056 148.5-120.5 148.5zm0-295C55.159 2 2 67.72 2 148.5c0 65.202 35.398 123.162 86.081 140.947C98.562 293.132 109.469 295 120.5 295c65.341 0 118.5-65.72 118.5-146.5 0-46.19-17.946-90.214-48.005-117.763C170.481 11.937 146.104 2 120.5 2z" fill="#112c41"/><path d="M240 148.5c0 81.46-53.5 147.5-119.5 147.5-11.35 0-22.34-1.95-32.75-5.61C231 288 240 93 191.66 30h.01C221 56.88 240 99.95 240 148.5z" fill="#ff90d8"/><path d="M120.5 297C54.056 297 0 230.383 0 148.5S54.056 0 120.5 0 241 66.617 241 148.5 186.944 297 120.5 297zm0-295C55.159 2 2 67.72 2 148.5S55.159 295 120.5 295 239 229.28 239 148.5 185.841 2 120.5 2z" fill="#112c41"/><path d="M25.004 114.001a5 5 0 0 1-4.874-6.137c7.786-33.368 29.226-67.109 52.138-82.052a5 5 0 0 1 5.462 8.376c-20.6 13.435-40.729 45.375-47.862 75.948a5.002 5.002 0 0 1-4.865 3.865z" fill="#fff"/></svg></g><g transform="translate(498.0 875.0) rotate(0.0 464.0 170.5) scale(1.0 0.998261093578927)"><svg width="928" height="341.594" viewBox="0 0 928 341.594"><path d="M430.051 201.348c-6.281 0-12.565-.078-18.806-.235-55.817-1.429-109.604-9.362-159.867-23.577-17.025-4.805-33.833-10.389-49.958-16.599-51.173-19.68-98.649-46.846-137.295-78.56C35.359 58.791 11.432 32.337.122 11.612a1 1 0 1 1 1.756-.958c11.193 20.51 34.938 46.745 63.516 70.176 38.483 31.581 85.769 58.636 136.745 78.24 16.067 6.188 32.816 11.753 49.783 16.541 50.103 14.17 103.724 22.078 159.374 23.503a753.9 753.9 0 0 0 36.681.02c7.61-.183 15.04-.492 22.083-.918 53.345-3.104 105.029-13.096 153.617-29.698a.682.682 0 0 1 .077-.023c20.619-7.054 41.265-15.5 61.365-25.103 51.413-24.571 92.916-53.399 130.107-80.892a4302.625 4302.625 0 0 0 14.966-11.132C871.703 20.399 901.694-1.981 927.083.137a1.001 1.001 0 0 1-.166 1.994c-24.632-2.049-54.37 20.133-95.529 50.841a4307.115 4307.115 0 0 1-14.973 11.137c-37.271 27.551-78.87 56.444-130.434 81.088-20.192 9.647-40.933 18.13-61.647 25.214a.715.715 0 0 1-.079.023c-48.739 16.646-100.58 26.666-154.077 29.779-7.065.428-14.52.738-22.154.921a750.28 750.28 0 0 1-17.973.215z" fill="#112c41"/><path d="m201.78 160.004-133.91 92.31c-3.85 2.66-9.09-.21-8.93-4.89l5.82-165.82c33.45 27.45 79.06 56.11 137.02 78.4z" fill="#cbc8ff"/><path d="M64.641 254.327c-1.1 0-2.204-.273-3.215-.826a6.67 6.67 0 0 1-3.485-6.112l5.82-165.821a1 1 0 0 1 1.634-.738c38.485 31.581 85.771 58.636 136.745 78.239a1 1 0 0 1 .208 1.757L68.437 253.137a6.663 6.663 0 0 1-3.796 1.19zm1.047-170.674-5.749 163.806c-.062 1.813.852 3.417 2.445 4.288 1.589.867 3.426.774 4.917-.255l132.353-91.237c-49.81-19.356-96.052-45.797-133.966-76.601z" fill="#112c41"/><path d="m411.27 200.114-93.19 137.97c-2.62 3.88-8.55 3.12-10.1-1.3l-56.33-160.21c46.71 13.21 99.89 22.01 159.62 23.54z" fill="#ffe993"/><path d="M313.371 341.594c-.289 0-.581-.019-.873-.056a6.66 6.66 0 0 1-5.461-4.423l-56.33-160.21a1 1 0 0 1 1.215-1.294c50.103 14.17 103.724 22.078 159.373 23.503a1.001 1.001 0 0 1 .803 1.56l-93.19 137.97a6.661 6.661 0 0 1-5.538 2.951zm-60.139-163.537 55.692 158.396c.6 1.71 2.032 2.87 3.83 3.102 1.801.235 3.482-.526 4.498-2.03l92.17-136.46c-54.482-1.535-107.005-9.271-156.189-23.007z" fill="#112c41"/><path d="m624 169.464-38.84 155.54c-1.14 4.54-6.96 5.85-9.93 2.23l-105.11-128.02c58.26-3.39 109.16-14.47 153.88-29.75z" fill="#cbc8ff"/><path d="M579.617 330.32a6.655 6.655 0 0 1-5.16-2.452l-105.11-128.02a1 1 0 0 1 .715-1.634c53.343-3.104 105.026-13.096 153.615-29.698a.999.999 0 0 1 1.293 1.189l-38.84 155.54a6.666 6.666 0 0 1-5.034 4.909 6.735 6.735 0 0 1-1.48.165zM472.138 200.095l103.865 126.504c1.149 1.401 2.889 2 4.656 1.605 1.769-.397 3.089-1.684 3.531-3.444L622.585 171c-47.659 16.107-98.251 25.89-150.448 29.095z" fill="#112c41"/><path d="m819.04 228.754-133.49-84.46c52.77-25.22 95.22-55.08 130.27-80.99l11.95 160.21c.34 4.67-4.78 7.74-8.73 5.24z" fill="#ffe993"/><path d="M822.081 230.641a6.68 6.68 0 0 1-3.576-1.042l-133.49-84.46a.998.998 0 0 1 .104-1.747c51.414-24.572 92.917-53.4 130.107-80.892a1 1 0 0 1 1.591.73l11.95 160.21a6.672 6.672 0 0 1-3.243 6.243 6.693 6.693 0 0 1-3.443.958zm-134.47-86.227 131.964 83.494c1.527.967 3.367.989 4.922.059 1.557-.933 2.408-2.57 2.276-4.38L814.959 65.184c-36.503 26.935-77.201 55.079-127.347 79.23z" fill="#112c41"/></svg></g><g transform="translate(109.0 426.0) rotate(0.0 341.0 258.0) scale(0.9998519280868963 0.9994228139562811)"><svg width="682.101" height="516.298" viewBox="0 0 682.101 516.298"><path d="M524.345 216.298c0 9-10 44-46 81s-61 40-61 40-21-19-37-17-224.43 7.96-224.43 7.96l-90.57-12.96-47-40c-.84-.42-1.64-.84-2.4-1.26-15.6-8.66-15.55-18.02-14.6-23.74.95-5.69 54.08-98.45 243.74-111.58.26-.02.51-.04.77-.05 10.1-.7 20.6-1.16 31.49-1.37 10.49-.2 20.55-.21 30.2-.03 180.75 3.36 216.8 70.49 216.8 79.03z" fill="#ffe993"/><path d="M417.345 338.298a1 1 0 0 1-.671-.258c-.207-.187-20.844-18.673-36.205-16.75-15.865 1.983-216.013 7.724-224.525 7.967a.976.976 0 0 1-.17-.01l-90.57-12.96a.992.992 0 0 1-.506-.228L17.79 276.137a66.875 66.875 0 0 1-2.327-1.224C-.31 266.158-.712 256.578.359 250.134c.699-4.186 15.985-29.199 51.523-53.66 33.442-23.019 94.096-51.897 193.134-58.754.317-.024.554-.042.799-.051a634.413 634.413 0 0 1 31.51-1.371 809.962 809.962 0 0 1 30.238-.03c95.16 1.769 148.594 21.481 176.663 37.707 31.374 18.135 41.118 37.369 41.118 42.323 0 10.691-11.654 46.106-46.283 81.697-35.834 36.83-60.563 40.171-61.598 40.295a.961.961 0 0 1-.119.007zm-34.552-19.148c14.8 0 32.069 14.631 34.861 17.085 3.45-.622 27.24-5.992 59.974-39.634 34.205-35.155 45.717-69.866 45.717-80.303 0-4.46-9.877-23.11-40.119-40.592-27.865-16.107-80.966-35.677-175.699-37.438a803.816 803.816 0 0 0-30.163.03c-10.762.208-21.34.667-31.439 1.368-.251.01-.464.027-.683.043-98.675 6.832-158.989 35.535-192.226 58.413-37.384 25.731-50.294 49.998-50.685 52.34-.971 5.846-.565 14.561 14.099 22.701a65.33 65.33 0 0 0 2.362 1.24c.072.036.14.081.201.133l46.78 39.813 90.2 12.907c5.188-.149 208.601-5.994 224.249-7.95a20.7 20.7 0 0 1 2.572-.156z" fill="#112c41"/><path d="m245.855 138.668-2.87 4.37s-55.64 2.26-139.64 43.26c-44.87 21.901-82.06 54.1-86.03 75.55-.61 3.29-1.01 7.51-1.37 12.19-15.6-8.66-15.55-18.02-14.6-23.74.95-5.69 54.08-98.45 243.74-111.58.26-.02.51-.04.77-.05z" fill="#ffd169"/><path d="M417.345 338.298a1 1 0 0 1-.671-.258c-.207-.187-20.844-18.673-36.205-16.75-15.865 1.983-216.013 7.724-224.525 7.967a.976.976 0 0 1-.17-.01l-90.57-12.96a.992.992 0 0 1-.506-.228L17.79 276.137c-18-9.038-18.571-19.166-17.431-26.004.699-4.185 15.985-29.198 51.523-53.659 33.442-23.019 94.096-51.897 193.134-58.754 10.238-.723 21.109-1.201 32.309-1.422a812.12 812.12 0 0 1 30.238-.03c95.16 1.769 148.594 21.481 176.663 37.707 31.374 18.135 41.118 37.369 41.118 42.323 0 10.691-11.654 46.106-46.283 81.697-35.834 36.83-60.563 40.171-61.598 40.295a.961.961 0 0 1-.119.007zm-34.552-19.148c14.8 0 32.069 14.631 34.861 17.085 3.45-.622 27.24-5.992 59.974-39.634 34.205-35.155 45.717-69.866 45.717-80.303 0-4.46-9.877-23.11-40.119-40.592-27.865-16.107-80.966-35.677-175.699-37.438a803.816 803.816 0 0 0-30.163.03c-11.166.22-22.002.697-32.208 1.417-98.589 6.825-158.903 35.529-192.14 58.406-37.384 25.732-50.294 49.999-50.685 52.341-1.038 6.226-.46 15.48 16.461 23.941.072.036.14.081.201.133l46.78 39.813 90.2 12.907c5.188-.149 208.601-5.994 224.249-7.95a20.7 20.7 0 0 1 2.572-.156z" fill="#112c41"/><path d="M419.295 287.618c-7.72 26.31-22.46 49.61-42.05 67.75-26.75 24.78-62.55 39.93-101.9 39.93-61.08 0-113.63-36.51-137.03-88.89-1.04-2.33-2.03-4.7-2.95-7.09z" fill="#ffe993"/><path d="M377.245 355.368c-26.75 24.78-62.55 39.93-101.9 39.93-61.08 0-113.63-36.51-137.03-88.89.37.32 16.776-17.545 17.03-17.11 77 132 193 83 221.9 66.07z" fill="#ffd169"/><path d="M168.853 306.013c-2.283 0-4.575-.261-6.725-.739a1 1 0 1 1 .434-1.952c7.836 1.741 17.671.474 20.747-6.424.738-1.656 1.489-3.767 2.284-6.001 2.61-7.337 5.859-16.469 12.223-20.446a1.001 1.001 0 0 1 1.06 1.696c-5.772 3.608-8.892 12.375-11.398 19.42-.808 2.272-1.572 4.418-2.341 6.146-2.65 5.943-9.429 8.301-16.283 8.301z" fill="#112c41"/><path d="M177.345 292.298c-.75 3.3-4.77 6.15-14.06 6.74-16.48 1.03-40.11-.13-70.75-7.17-34.36-7.89-63.17-18.54-75.94-27.3-5.04-3.46-7.58-6.62-6.99-9.21.6-2.62 4.36-4.37 10.55-5.27 15.4-2.23 45.82.79 80 8.64 27.95 6.42 48.23 12.66 63.19 20.24 10.68 5.4 14.87 9.52 14 13.33z" fill="#112c41"/><path d="M152.596 300.358c-14.403 0-34.598-1.614-60.285-7.516-33.626-7.722-62.856-18.24-76.282-27.45-5.586-3.835-8.075-7.286-7.399-10.257.689-3.009 4.518-5.04 11.381-6.038 16.146-2.337 46.942.978 80.368 8.655 29.487 6.773 49.046 13.041 63.418 20.322 11.198 5.663 15.542 9.982 14.523 14.445-.691 3.039-3.85 6.81-14.971 7.516-3.124.195-6.71.322-10.753.322zM31.877 250.381c-4.441 0-8.342.228-11.579.696-5.794.842-9.246 2.442-9.718 4.503-.462 2.032 1.875 4.931 6.581 8.163 13.032 8.94 42.706 19.597 75.598 27.15 32.663 7.505 56.347 8.028 70.464 7.146 7.715-.49 12.384-2.608 13.147-5.964.755-3.304-3.527-7.186-13.476-12.216-14.222-7.206-33.64-13.422-62.962-20.158-25.946-5.959-50.987-9.321-68.054-9.321z" fill="#112c41"/><path d="M275.345 396.298c-31.094 0-60.955-9.376-86.355-27.114-24.826-17.337-43.692-41.372-54.557-69.506a1 1 0 0 1 1.866-.721c22.022 57.026 77.9 95.34 139.045 95.34 65.703 0 124.501-43.983 142.987-106.959a.999.999 0 1 1 1.919.563c-9 30.66-28.044 58.251-53.624 77.691-26.431 20.087-57.996 30.705-91.283 30.705zm238.78-167.02c-5.84 15.44-20.38 39.66-39.8 65.07-9.86 12.9-19.74 24.51-28.85 34.08-6.64 7-12.88 12.91-18.36 17.44-.72-.58-1.43-1.16-2.14-1.74-.7-.58-1.4-1.16-2.09-1.75-1.44-1.21-2.84-2.43-4.22-3.66-.53-.47-1.06-.94-1.58-1.42-.3-.26-.59-.53-.88-.8-.28-.25-.56-.51-.83-.76-.18-.16-.35-.33-.53-.5-.61-.56-1.21-1.13-1.81-1.69-.67-.64-1.34-1.27-1.99-1.92 3.35-7.17 8-15.58 13.72-24.73 6.41-10.26 14.16-21.47 22.91-32.91 20.21-26.46 40.56-47.47 53.93-56.64 6.47-4.44 11.31-6.1 13.71-4.27 2.6 1.98 1.99 7.79-1.19 16.2z" fill="#112c41"/><path d="M427.115 346.868a1 1 0 0 1-.627-.221 403.867 403.867 0 0 1-2.145-1.745 176.89 176.89 0 0 1-2.107-1.764 187.026 187.026 0 0 1-4.236-3.674c-.533-.472-1.068-.947-1.593-1.432a31.799 31.799 0 0 1-.883-.803c-.241-.214-.497-.452-.746-.682l-.082-.076c-.117-.104-.245-.227-.375-.351l-.163-.156c-.401-.368-.808-.75-1.214-1.131l-.972-.917c-.551-.524-1.1-1.046-1.634-1.581a1 1 0 0 1-.199-1.13c3.433-7.348 8.069-15.705 13.778-24.837 6.708-10.736 14.433-21.834 22.963-32.987 19.504-25.535 40.256-47.322 54.159-56.857 7.14-4.9 12.147-6.325 14.882-4.241 2.936 2.236 2.646 8.073-.861 17.349-6.125 16.194-21.057 40.615-39.941 65.324-9.596 12.554-19.597 24.367-28.92 34.162-6.623 6.981-12.83 12.877-18.447 17.521a.997.997 0 0 1-.637.229zm-14.864-15.455c.363.354.731.703 1.1 1.054l.963.908c.4.376.801.753 1.208 1.125l.187.178c.11.106.218.21.331.31l.099.091c.24.222.486.451.733.671.297.276.579.538.869.79.539.497 1.063.962 1.588 1.427a189.7 189.7 0 0 0 4.2 3.643c.692.592 1.389 1.168 2.085 1.746.494.404.991.81 1.493 1.217 5.39-4.51 11.322-10.17 17.644-16.834 9.276-9.745 19.228-21.501 28.781-34 18.773-24.563 33.599-48.794 39.659-64.817 3.024-7.997 3.578-13.482 1.52-15.05-1.11-.846-4.215-1.414-12.538 4.299-13.74 9.423-34.317 31.043-53.701 56.422-8.493 11.104-16.183 22.15-22.856 32.833-5.501 8.8-9.995 16.865-13.362 23.985z" fill="#112c41"/><ellipse cx="404.357" cy="404.415" fill="#ffd6c0" rx="42.809" ry="18.742" transform="matrix(.95194782 -.30626026 .30626026 .95194782 -104.426 143.272)"/><path d="M384.918 427.525a53.68 53.68 0 0 1-5.416-.263c-9.186-.935-15.158-4.287-16.815-9.44-1.658-5.153 1.239-11.358 8.157-17.474 6.71-5.933 16.469-11.15 27.479-14.692 11.009-3.542 21.979-4.993 30.891-4.086 9.186.935 15.158 4.288 16.815 9.44s-1.239 11.359-8.157 17.475c-6.71 5.932-16.469 11.15-27.479 14.692-8.869 2.853-17.713 4.35-25.475 4.35zm13.995-40.033c-10.761 3.462-20.276 8.541-26.792 14.301-6.308 5.577-9.006 11.059-7.598 15.438s6.797 7.259 15.174 8.111c8.651.882 19.343-.542 30.104-4.003 10.761-3.462 20.276-8.541 26.792-14.301 6.308-5.577 9.006-11.06 7.598-15.438s-6.797-7.259-15.174-8.111c-8.653-.881-19.343.542-30.104 4.003z" fill="#112c41"/><path d="M474.465 437.118c-1.43 8.03-10.35 10.62-21.94 6.69 20.07 17.38 17.52 42.68.77 41.44 4.61 16.9-6.68 27.62-33.95 22.05-20.04-4.1-64.6 5.43-98.83 7.58h-.02c-4.23.27-8.3.42-12.15.42-97.05 0-191.08-25.93-257-103-47.54-55.58-43.07-114.29-34.92-147.02.05-.21.11-.45.17-.71.74-2.98 2.14-8.74 3.56-14.48 15.4-2.23 45.82.79 80 8.64 27.95 6.42 52.23 14.66 67.19 22.24-.57 6.77-.6 13.5-.06 20.07 1.38 16.72 6.49 32.41 16.06 45.26 35 47 123.68 63.8 170 53 81.87-19.09 124.77 17.27 121.12 37.82z" fill="#ffd6c0"/><path d="M308.345 516.298c-112.38 0-199.103-34.772-257.76-103.35C2.091 356.251 7.759 295.94 15.455 265.036l.166-.691c.348-1.401.833-3.384 1.397-5.686.651-2.656 1.406-5.736 2.167-8.811.098-.395.425-.691.827-.75 16.146-2.336 46.942.979 80.367 8.655 27.158 6.238 51.73 14.374 67.418 22.322.363.184.579.57.544.976-.569 6.762-.589 13.459-.06 19.904 1.444 17.494 6.782 32.548 15.865 44.745 15.723 21.114 44.21 38.092 80.214 47.807 31.285 8.442 65.295 10.288 88.757 4.817 56.104-13.082 94.648-.153 112.011 16.308 7.803 7.398 11.565 15.657 10.321 22.661-.575 3.23-2.313 5.785-5.024 7.388-3.537 2.09-8.496 2.494-14.23 1.204 10.917 11.144 13.496 24.443 10.152 32.491-2.092 5.035-6.334 7.866-11.758 7.915 1.638 7.119.453 13.054-3.458 17.226-5.813 6.202-16.875 7.849-31.986 4.762-12.542-2.566-34.854.281-58.476 3.296-13.535 1.727-27.531 3.513-40.091 4.302-4.405.28-8.514.422-12.233.422zM20.963 250.986c-.705 2.853-1.398 5.684-2.002 8.149-.565 2.304-1.051 4.289-1.395 5.674l-.168.702c-7.604 30.54-13.205 90.122 34.707 146.137 58.26 68.113 144.471 102.65 256.24 102.65 3.676 0 7.743-.141 12.087-.418 12.517-.785 26.48-2.567 39.984-4.29 23.791-3.037 46.261-5.905 59.129-3.271 14.19 2.899 24.889 1.418 30.127-4.17 3.646-3.891 4.566-9.644 2.658-16.637a1.003 1.003 0 0 1 .193-.899 1.01 1.01 0 0 1 .846-.361c5.242.389 9.19-1.971 11.131-6.643 3.357-8.079.097-22.024-12.63-33.044a1 1 0 0 1 .976-1.703c6.755 2.292 12.792 2.326 16.562.098 2.226-1.315 3.596-3.34 4.073-6.016 1.124-6.33-2.421-13.933-9.728-20.86-16.985-16.103-54.847-28.712-110.181-15.811-23.764 5.541-58.147 3.689-89.732-4.833-36.435-9.832-65.307-27.071-81.297-48.543-9.31-12.501-14.779-27.902-16.254-45.775-.521-6.341-.52-12.918.005-19.562-15.573-7.782-39.701-15.731-66.363-21.855-32.243-7.405-63.084-10.799-78.968-8.717z" fill="#112c41"/><path d="M320.495 514.878c-4.23.27-8.3.42-12.15.42-97.05 0-191.08-25.93-257-103-47.54-55.58-43.07-114.29-34.92-147.02 1.4-5.68 2.93-10.58 4.31-14.54 5.36-.14 12.75-2.76 20.61-1.44-9.12 46.35-14.163 118.166 51 182 49 48 163.31 84.15 228.15 83.58z" fill="#f5b9ab"/><path d="M308.345 516.298c-112.38 0-199.103-34.772-257.76-103.35C2.091 356.251 7.759 295.94 15.455 265.036l.166-.691c.348-1.401.833-3.384 1.397-5.686.651-2.656 1.406-5.736 2.167-8.811.098-.395.425-.691.827-.75 16.146-2.336 46.942.979 80.367 8.655 27.158 6.238 51.73 14.374 67.418 22.322.363.184.579.57.544.976-.569 6.762-.589 13.459-.06 19.904 1.444 17.494 6.782 32.548 15.865 44.745 15.723 21.114 44.21 38.092 80.214 47.807 31.285 8.442 65.295 10.288 88.757 4.817 56.104-13.082 94.648-.153 112.011 16.308 7.803 7.398 11.565 15.657 10.321 22.661-.575 3.23-2.313 5.785-5.024 7.388-3.537 2.09-8.496 2.494-14.23 1.204 10.917 11.144 13.496 24.443 10.152 32.491-2.092 5.035-6.334 7.866-11.758 7.915 1.638 7.119.453 13.054-3.458 17.226-5.813 6.202-16.875 7.849-31.986 4.762-12.542-2.566-34.854.281-58.476 3.296-13.535 1.727-27.531 3.513-40.091 4.302-4.405.28-8.514.422-12.233.422zM20.963 250.986c-.705 2.853-1.398 5.684-2.002 8.149-.565 2.304-1.051 4.289-1.395 5.674l-.168.702c-7.604 30.54-13.205 90.122 34.707 146.137 58.26 68.113 144.471 102.65 256.24 102.65 3.676 0 7.743-.141 12.087-.418 12.517-.785 26.48-2.567 39.984-4.29 23.791-3.037 46.261-5.905 59.129-3.271 14.19 2.899 24.889 1.418 30.127-4.17 3.646-3.891 4.566-9.644 2.658-16.637a1.003 1.003 0 0 1 .193-.899 1.01 1.01 0 0 1 .846-.361c5.242.389 9.19-1.971 11.131-6.643 3.357-8.079.097-22.024-12.63-33.044a1 1 0 0 1 .976-1.703c6.755 2.292 12.792 2.326 16.562.098 2.226-1.315 3.596-3.34 4.073-6.016 1.124-6.33-2.421-13.933-9.728-20.86-16.985-16.103-54.847-28.712-110.181-15.811-23.764 5.541-58.147 3.689-89.732-4.833-36.435-9.832-65.307-27.071-81.297-48.543-9.31-12.501-14.779-27.902-16.254-45.775-.521-6.341-.52-12.918.005-19.562-15.573-7.782-39.701-15.731-66.363-21.855-32.243-7.405-63.084-10.799-78.968-8.717z" fill="#112c41"/><path d="M452.533 443.806c-15.102-11.792-25.774-14.986-35.376-17.584" fill="#ffd6c0"/><path d="M452.532 444.806a.996.996 0 0 1-.615-.212c-14.373-11.223-24.364-14.523-35.021-17.407a1 1 0 0 1 .523-1.931c8.385 2.27 19.869 5.377 35.729 17.762a.999.999 0 0 1-.616 1.788z" fill="#112c41"/><path d="M453.292 485.25c-9.654-17.929-30.859-24.791-43.996-26.756" fill="#ffd6c0"/><path d="M453.293 486.25a.997.997 0 0 1-.881-.526c-10.743-19.95-35.83-25.129-43.263-26.241a1 1 0 1 1 .296-1.978c7.666 1.146 33.545 6.502 44.728 27.271a1 1 0 0 1-.879 1.474z" fill="#112c41"/><path d="M562.035 376.908c-13.74 4.09-26.89 5.89-39.42 5.89-1.04 0-2.07-.01-3.1-.04-.01.01-.03.01-.06 0-1-.02-2-.06-2.99-.11-.04.01-.08 0-.12 0-.86-.04-1.71-.09-2.56-.15-.31-.02-.62-.04-.94-.07-1.71-.13-3.4-.29-5.08-.49-.95-.1-1.9-.22-2.84-.35-.39-.05-.77-.11-1.16-.17-.82-.11-1.65-.24-2.46-.38-.87-.14-1.74-.3-2.6-.46-.29-.05-.58-.1-.87-.17-.7-.12-1.39-.26-2.08-.41-.21-.04-.42-.09-.63-.13-.85-.19-1.7-.38-2.55-.58-.95-.22-1.9-.46-2.85-.7-.91-.23-1.82-.48-2.72-.73l-.1-.03c-.94-.26-1.87-.53-2.8-.82-1.85-.56-3.69-1.16-5.5-1.79-.91-.31-1.82-.64-2.71-.97-1.79-.66-3.57-1.36-5.33-2.1-.88-.36-1.76-.73-2.62-1.11-.77-.34-1.54-.68-2.3-1.02-.23-.11-.46-.22-.7-.33-.72-.33-1.44-.67-2.16-1.02-.55-.26-1.1-.53-1.64-.8a161.14 161.14 0 0 1-6.39-3.34c-.64-.35-1.28-.7-1.91-1.06-.05-.03-.11-.06-.16-.09-.71-.4-1.4-.81-2.1-1.21-.21-.13-.43-.25-.64-.38-.63-.38-1.26-.75-1.89-1.14-4.32-2.63-8.48-5.42-12.49-8.32-.78-.56-1.56-1.13-2.33-1.71-.45-.33-.9-.67-1.34-1.01a225.561 225.561 0 0 1-6.92-5.48c-.7-.58-1.4-1.16-2.09-1.75-.57-.48-1.13-.95-1.68-1.44-.86-.73-1.71-1.47-2.54-2.22-.53-.47-1.06-.94-1.58-1.42-.76-.68-1.5-1.36-2.24-2.06-.64-.59-1.27-1.19-1.9-1.78-.64-.61-1.28-1.21-1.9-1.83 3.35-7.17 8-15.58 13.72-24.73 6.41-10.26 14.16-21.47 22.91-32.91 20.21-26.46 40.56-47.47 53.93-56.64 3.94 4.18 8.17 8.3 12.52 11.93 3.25 2.74 6.56 5.2 9.85 7.2 13.61-16.12 15.14-65.46 10.57-88-9.89-48.83-30.49-64.47-24.93-76.7 2.65-5.84 13.99-9.76 31.9 4.93-23.65-41.27-14.23-56.65-9.29-60.59 7.01-5.56 17.9-.49 24.35 6.93-.6-5.8 2.75-19.58 12.38-21.82 6.6-1.52 20.01 4.41 27.03 22.53 4.4-18.92 25.48-13.11 38.04 17.19 11.2 27.01 21.59 71.38 27.96 107.51 2.54 14.43 5.04 34.53 5.22 56.98.51 63.35-17.48 145.38-105.17 171.47z" fill="#ffd6c0"/><path d="M562.035 376.908c-13.74 4.09-26.89 5.89-39.42 5.89-1.04 0-2.07-.01-3.1-.04-.01.01-.03.01-.06 0-1-.02-2-.06-2.99-.11-.04.01-.08 0-.12 0-.86-.04-1.71-.09-2.56-.15-.31-.02-.62-.04-.94-.07-1.71-.13-3.4-.29-5.08-.49-.95-.1-1.9-.22-2.84-.35-.39-.05-.77-.11-1.16-.17-.82-.11-1.65-.24-2.46-.38-.87-.14-1.74-.3-2.6-.46-.29-.05-.58-.1-.87-.17-.7-.12-1.39-.26-2.08-.41-.21-.04-.42-.09-.63-.13-.85-.19-1.7-.38-2.55-.58-.95-.22-1.9-.46-2.85-.7-.91-.23-1.82-.48-2.72-.73l-.1-.03c-.94-.26-1.87-.53-2.8-.82-1.85-.56-3.69-1.16-5.5-1.79-.91-.31-1.82-.64-2.71-.97-1.8-.67-3.58-1.37-5.33-2.1-.88-.36-1.76-.73-2.62-1.11-.77-.34-1.54-.68-2.3-1.02-.23-.11-.46-.22-.7-.33-.72-.33-1.44-.67-2.16-1.02-.55-.26-1.1-.53-1.64-.8a161.14 161.14 0 0 1-6.39-3.34c-.64-.35-1.28-.7-1.91-1.06-.05-.03-.11-.06-.16-.09-.71-.4-1.4-.81-2.1-1.21-.21-.13-.43-.25-.64-.38-.63-.38-1.26-.75-1.89-1.14-4.32-2.63-8.48-5.42-12.49-8.32-.78-.56-1.56-1.13-2.33-1.71-.45-.33-.9-.67-1.34-1.01-1.62-1.23-3.22-2.47-4.78-3.74-.72-.58-1.43-1.16-2.14-1.74-.7-.58-1.4-1.16-2.09-1.75-.57-.48-1.13-.95-1.68-1.44-.86-.73-1.71-1.47-2.54-2.22-.53-.47-1.06-.94-1.58-1.42-.76-.68-1.5-1.36-2.24-2.06-.64-.59-1.27-1.19-1.9-1.78-.64-.61-1.28-1.21-1.9-1.83 3.35-7.17 8-15.58 13.72-24.73 6.14 7.78 13.11 15 20.71 21.53 70.86 60.86 200.87 57.87 221.73-122.99.51 63.35-17.48 145.38-105.17 171.47z" fill="#f5b9ab"/><g fill="#112c41"><path d="M522.608 383.787c-12.333 0-24.581-1.729-36.667-5.189-20.36-5.828-40.363-16.578-59.454-31.951a403.867 403.867 0 0 1-2.145-1.745c-.709-.588-1.413-1.171-2.107-1.764a187.026 187.026 0 0 1-4.236-3.674c-.533-.472-1.068-.947-1.593-1.432a33.299 33.299 0 0 1-.883-.803c-.241-.214-.497-.452-.746-.682l-.082-.076c-.117-.104-.245-.227-.375-.351l-.163-.156c-.401-.368-.808-.75-1.214-1.131l-.972-.917c-.551-.524-1.1-1.046-1.634-1.581a1 1 0 0 1-.199-1.13c3.433-7.348 8.069-15.705 13.778-24.837 6.708-10.736 14.433-21.834 22.963-32.987 19.504-25.535 40.256-47.322 54.159-56.857a.999.999 0 0 1 1.293.139c4.318 4.581 8.501 8.566 12.433 11.848 3.113 2.625 6.131 4.859 8.987 6.654 12.416-15.962 14.561-63.069 9.813-86.488-5.173-25.542-13.186-41.744-19.036-53.574-5.213-10.542-8.658-17.506-5.824-23.739 1.212-2.67 3.836-4.651 7.201-5.436 3.676-.856 11.206-.913 22.384 7.047-22.635-41.802-9.618-55.302-6.688-57.639 6.906-5.479 17.013-1.606 23.926 5.146.361-7.205 4.43-18.189 13.201-20.229 6.772-1.557 19.663 3.997 27.093 20.52 1.939-5.348 5.49-8.458 10.191-8.846 8.221-.677 20.347 7.916 28.936 28.638 11.581 27.929 22.068 73.957 28.021 107.719 7.847 44.5 23.781 192.569-100.649 229.583-13.267 3.946-26.539 5.92-39.713 5.92zm-110.356-52.374c.363.354.731.703 1.1 1.054l.963.908c.4.376.801.753 1.208 1.125l.187.178c.11.106.218.21.331.31l.099.091c.24.222.486.451.733.671.297.276.579.538.869.79.539.497 1.063.962 1.588 1.427a189.7 189.7 0 0 0 4.2 3.643c.692.592 1.388 1.168 2.085 1.746.703.574 1.411 1.153 2.129 1.731 42.556 34.27 87.644 44.653 134.008 30.86l.285.958-.285-.958c122.845-36.542 107.025-183.23 99.25-227.318-5.934-33.658-16.38-79.521-27.899-107.301-8.204-19.791-19.417-28.033-26.924-27.41-4.521.373-7.795 3.947-9.218 10.064a1.001 1.001 0 0 1-1.907.135C588.047 6.032 574.741.918 569.181 2.2c-8.691 2.021-12.229 14.763-11.61 20.742a1 1 0 0 1-1.75.76c-6.33-7.282-16.655-11.815-22.974-6.802-2.801 2.233-15.513 15.598 9.536 59.309a1.001 1.001 0 0 1-1.502 1.27c-12.655-10.379-20.795-10.473-24.521-9.604-2.754.642-4.881 2.214-5.834 4.314-2.441 5.37.66 11.639 5.796 22.025 5.899 11.929 13.979 28.266 19.204 54.063 4.384 21.625 3.62 71.782-10.786 88.844a1 1 0 0 1-1.284.209c-3.16-1.921-6.517-4.374-9.975-7.29-3.809-3.179-7.848-7.006-12.011-11.383-13.732 9.667-33.942 30.984-53 55.935-8.493 11.104-16.183 22.15-22.856 32.833-5.501 8.8-9.995 16.865-13.362 23.985z"/><path d="M572.666 65.886a1 1 0 0 1-.992-.882c-2.254-18.999-6.551-30.196-15.855-41.313a1.001 1.001 0 0 1 1.534-1.284c9.459 11.302 14.032 23.179 16.308 42.36a1.001 1.001 0 0 1-.994 1.118zm33.758 4.188h-.041a1 1 0 0 1-.958-1.041c.526-12.945-2.865-27.626-10.366-44.884a1 1 0 1 1 1.834-.796c7.624 17.54 11.069 32.509 10.53 45.762a1 1 0 0 1-.999.959zm-2.442 42.12a.998.998 0 0 1-.732-.318c-15.984-17.17-43.328-16.544-43.601-16.536a.976.976 0 0 1-.835-.405c-.048-.064-4.901-6.547-17.941-17.462a1 1 0 1 1 1.283-1.533c11.543 9.661 16.683 15.794 17.95 17.397 3.935 0 29.242.672 44.608 17.177a1.001 1.001 0 0 1-.732 1.682z"/><path d="M624.278 77.656a.999.999 0 0 1-.468-.117c-15.719-8.356-47.132-14.45-67.072-9.836a1 1 0 1 1-.451-1.949c20.373-4.716 52.43 1.496 68.461 10.019a1 1 0 0 1-.47 1.883zM507.93 256.249a.998.998 0 0 1-.677-1.736c5.527-5.079 15.55-15.268 20.583-26.44a.999.999 0 1 1 1.823.821c-4.921 10.922-14.165 20.761-21.053 27.091a1 1 0 0 1-.676.264zM314.345 146.798c0 9.11-16.57 16.5-37 16.5s-37-7.39-37-16.5c0-2.94 1.72-5.7 4.74-8.08 10.34-.73 21.09-1.2 32.26-1.42 10.49-.2 20.55-.21 30.2-.03 4.29 2.69 6.8 5.98 6.8 9.53z"/><path d="M277.345 164.298c-21.309 0-38-7.687-38-17.5 0-3.159 1.771-6.225 5.121-8.865a.995.995 0 0 1 .549-.212c10.239-.723 21.11-1.201 32.311-1.422a812.12 812.12 0 0 1 30.238-.03.992.992 0 0 1 .513.153c4.755 2.981 7.269 6.57 7.269 10.377 0 9.813-16.691 17.5-38 17.5zm-31.878-24.604c-2.698 2.199-4.122 4.651-4.122 7.104 0 8.402 16.486 15.5 36 15.5s36-7.098 36-15.5c0-3.792-3.262-6.712-6.099-8.535a808.482 808.482 0 0 0-29.882.035c-11.053.218-21.782.687-31.897 1.396zm406.656 80.509c-17.357 0-39.752-2.55-59.99-6.928-20.015-4.33-38.749-10.582-52.75-17.604-8.033-4.028-21.288-11.807-19.809-18.643.996-4.601 6.304-7.057 16.705-7.729a1 1 0 1 1 .129 1.997c-9.245.597-14.112 2.611-14.879 6.156-.846 3.912 6.338 10.208 18.75 16.433 13.855 6.948 32.42 13.141 52.276 17.436 44.222 9.567 85.65 8.456 87.291.868.68-3.141-4.164-7.708-13.289-12.531a1 1 0 0 1 .935-1.769c10.417 5.506 15.231 10.459 14.309 14.723-1.141 5.271-13.117 7.592-29.679 7.592zm-68.322-48.585c-15.027 0-28.885-.993-40.069-2.91-10.929-1.873-24.017-5.467-24.301-11.949-.175-3.984 4.515-7.749 13.938-11.188a1 1 0 1 1 .685 1.879c-8.15 2.975-12.752 6.336-12.626 9.221.171 3.903 8.635 7.666 22.641 10.066 14.868 2.549 34.542 3.447 55.396 2.532 20.853-.915 41.621-3.604 56.977-7.379 14.981-3.682 23.824-8.17 23.656-12.006-.119-2.726-6.839-6.984-19.057-9.505a1 1 0 1 1 .405-1.959c9.381 1.936 20.419 6.077 20.651 11.376.282 6.417-13.535 11.175-25.176 14.036-15.479 3.805-36.388 6.515-57.367 7.435-5.346.235-10.619.351-15.752.351z"/></g></svg></g><g transform="translate(917.0 558.0) rotate(0.0 399.5 240.5) scale(1.000087617187989 0.9980122749285207)"><svg width="798.93" height="481.958" viewBox="0 0 798.93 481.958"><path d="m365.681 177.636-.27 1.92-4.73 33.08s-60 86-88 125-72.87 83.88-112 107c-13.95 8.24-25.97 12.76-34.94 15.08-.01 0-.01.01-.02.01-5.17 1.34-9.33 1.96-12.26 2.16-30.16 30.01-52.9 18.49-50.65 6.65-30.99 6.94-35.16-.45-33.44-10.36-35.55 4.64-32.36-32.88-12.96-50.32 17.27-6.22.96-11.57 29.27-33.22 17-13 48-23 91-84 43.97-62.38 81-145 111-171s118 58 118 58z" fill="#ffd6c0"/><path d="M77.477 481.914c-3.733 0-6.898-.792-9.364-2.101-4.231-2.245-6.604-5.984-6.45-10-16.586 3.583-26.42 3.26-30.895-1.002-2.267-2.16-3.098-5.197-2.577-9.49-12.318 1.278-21.181-2.578-25.024-10.936-5.376-11.691.266-30.206 12.576-41.272.096-.086.208-.153.33-.197 7.453-2.685 8.18-4.936 9.5-9.023 1.653-5.12 3.918-12.133 19.501-24.05 3.632-2.777 7.841-5.385 12.716-8.406 17.633-10.924 44.279-27.434 78.074-75.376 18.446-26.168 35.343-55.343 51.685-83.558 22.512-38.867 41.954-72.435 59.478-87.622 30.339-26.29 115.726 54.577 119.345 58.033a.998.998 0 0 1 .3.862l-.27 1.92-4.73 33.083c-.022.155-.08.302-.169.431-.6.86-60.324 86.452-88.008 125.011-30.521 42.511-75.652 85.623-112.304 107.278-15.098 8.918-27.426 13.171-35.129 15.169a.74.74 0 0 1-.088.027c-5.521 1.432-9.56 1.969-12.069 2.163-14.299 14.132-27.125 19.057-36.426 19.058zm-14.665-14.378a1 1 0 0 1 .982 1.186c-.696 3.662 1.318 7.234 5.256 9.324 8.05 4.27 24.325 2.416 43.706-16.87.171-.17.397-.272.638-.289 2.378-.162 6.389-.661 12.009-2.112a.995.995 0 0 1 .088-.028c7.575-1.959 19.74-6.147 34.682-14.973 36.435-21.527 81.322-64.416 111.696-106.722 27.034-37.655 84.64-120.185 87.856-124.794l4.894-34.25c-6.254-5.874-88.279-81.887-116.283-57.617-17.271 14.968-36.635 48.401-59.057 87.113-16.363 28.252-33.284 57.466-51.781 83.708-34.03 48.275-60.885 64.914-78.655 75.924-4.83 2.993-9.001 5.577-12.555 8.294-15.087 11.538-17.24 18.207-18.813 23.076-1.354 4.191-2.334 7.228-10.54 10.223C5.328 419.266-.033 436.64 4.983 447.548c3.632 7.901 12.02 11.232 24.258 9.635a1.003 1.003 0 0 1 1.115 1.163c-.743 4.28-.174 7.145 1.791 9.016 3.956 3.769 14.198 3.835 30.445.198a.96.96 0 0 1 .219-.024z" fill="#112c41"/><path d="m365.411 179.556-4.73 33.08s-60 86-88 125-72.87 83.88-112 107c-13.95 8.24-25.97 12.76-34.94 15.08 46.04-20.91 84.94-64.09 116.94-103.08 32-39 80.25-134.87 80.25-134.87l-.25-2.13 23-53s8.74 5.58 19.73 12.92z" fill="#f5b9ab"/><path d="M77.478 481.915c-3.734 0-6.9-.793-9.367-2.103-4.229-2.245-6.599-5.982-6.445-9.995-16.591 3.583-26.428 3.258-30.902-1.007-2.266-2.161-3.095-5.195-2.571-9.485-12.327 1.278-21.186-2.584-25.029-10.945-5.375-11.692.267-30.206 12.577-41.27.096-.086.208-.153.33-.197 7.454-2.684 8.182-4.935 9.501-9.022 1.654-5.12 3.919-12.132 19.501-24.049 3.632-2.777 7.841-5.385 12.716-8.406 17.633-10.924 44.279-27.434 78.074-75.376 18.45-26.172 35.349-55.351 51.692-83.568 22.509-38.862 41.948-72.425 59.47-87.611 30.339-26.29 115.726 54.577 119.345 58.033a1 1 0 0 1 .299.865l-5 35c-.022.155-.08.302-.169.431-.6.86-60.324 86.452-88.008 125.011-30.518 42.507-75.649 85.619-112.304 107.278l-.509-.861.509.861c-24.562 14.514-41.983 16.956-47.291 17.361-14.298 14.132-27.121 19.057-36.421 19.057zM62.816 467.54a1 1 0 0 1 .983 1.187c-.697 3.658 1.315 7.229 5.25 9.318 8.048 4.273 24.323 2.419 43.704-16.868.171-.17.398-.273.64-.289 4.706-.311 21.985-2.462 46.78-17.114 36.438-21.531 81.325-64.42 111.696-106.722 27.034-37.655 84.64-120.185 87.856-124.794l4.893-34.251c-6.264-5.883-88.282-81.888-116.282-57.616-17.269 14.967-36.63 48.395-59.049 87.102-16.365 28.256-33.288 57.473-51.789 83.718-34.03 48.275-60.885 64.914-78.656 75.924-4.83 2.993-9 5.577-12.554 8.294-15.086 11.537-17.24 18.206-18.813 23.075-1.354 4.191-2.334 7.228-10.541 10.222C5.328 419.26-.034 436.634 4.981 447.544c3.633 7.903 12.025 11.24 24.264 9.644a1.002 1.002 0 0 1 1.115 1.164c-.745 4.275-.178 7.139 1.785 9.01 3.955 3.772 14.201 3.839 30.453.202.072-.016.146-.024.218-.024z" fill="#112c41"/><ellipse cx="90.609" cy="459.726" fill="#ffd6c0" rx="30.67" ry="16.977" transform="matrix(.86716633 -.49801863 .49801863 .86716633 -216.918 106.194)"/><path d="M77.316 481.94c-6.758 0-11.779-2.278-14.17-6.442-2.448-4.262-1.801-9.909 1.822-15.899 3.513-5.808 9.439-11.299 16.688-15.462 15.142-8.696 31.478-8.777 36.416-.183 2.448 4.262 1.801 9.909-1.822 15.899-3.513 5.808-9.439 11.3-16.688 15.462-7.249 4.163-14.978 6.515-21.765 6.622l-.481.003zm26.62-42.461c-6.247 0-13.89 2.146-21.284 6.392-6.959 3.997-12.632 9.24-15.972 14.763-3.229 5.34-3.869 10.265-1.799 13.868 2.069 3.603 6.676 5.539 12.885 5.435 6.454-.102 13.841-2.359 20.8-6.356s12.632-9.24 15.972-14.763c3.229-5.34 3.869-10.266 1.799-13.869-2.101-3.658-6.662-5.47-12.401-5.47z" fill="#112c41"/><ellipse cx="57.328" cy="451.657" fill="#ffd6c0" rx="31.004" ry="17.883" transform="matrix(.86716633 -.49801863 .49801863 .86716633 -217.32 88.547)"/><path d="M44.718 474.497c-6.894 0-12.504-2.307-15.144-6.901-5.185-9.029 3.046-23.525 18.349-32.313 7.331-4.21 15.166-6.496 22.12-6.509 7.132.013 12.473 2.48 15.038 6.945 2.564 4.465 2.003 10.321-1.58 16.488-3.482 5.995-9.438 11.615-16.769 15.826-7.515 4.316-15.362 6.465-22.014 6.465zm25.268-43.724c-6.575 0-14.053 2.216-21.066 6.244-14.347 8.24-22.247 21.51-17.611 29.583 4.637 8.072 20.081 7.937 34.427-.302 7.032-4.039 12.727-9.399 16.036-15.096 3.208-5.523 3.768-10.668 1.574-14.488-2.193-3.819-6.919-5.929-13.307-5.941h-.054z" fill="#112c41"/><path d="M17.058 425.768c2.334-1.518 6.106-3.892 8.848-5.107 15.94-7.062 32.106-5.467 36.106 3.564 4.001 9.03-5.679 22.075-21.619 29.137s-31.561 6.426-36.015-4.94" fill="#ffd6c0"/><path d="M21.163 458.965c-3.422 0-6.533-.541-9.199-1.637-4.089-1.682-6.955-4.555-8.517-8.542a1 1 0 0 1 1.862-.73c1.355 3.458 3.85 5.955 7.415 7.421 6.732 2.769 16.668 1.664 27.264-3.031 15.411-6.828 24.881-19.307 21.11-27.818-3.771-8.512-19.376-9.882-34.787-3.055-2.024.897-4.954 2.589-8.708 5.031a1 1 0 0 1-1.091-1.677c3.843-2.5 6.867-4.243 8.988-5.183 16.42-7.275 33.208-5.447 37.426 4.072 4.218 9.52-5.709 23.183-22.128 30.457-7.003 3.103-13.774 4.69-19.635 4.69z" fill="#112c41"/><path d="M49.771 372.088s-61.068 33.817-46.535 48.846c14.534 15.029 38.118-.024 48.687-5.881 14.273 2.877 35.518 8.902 55.52-.059" fill="#ffd6c0"/><path d="M18.922 428.437c-5.895 0-11.598-1.836-16.405-6.807-2.03-2.099-2.838-4.641-2.403-7.555 2.516-16.847 47.269-41.806 49.172-42.861a1 1 0 0 1 .968 1.75c-.458.253-45.793 25.529-48.163 41.406-.343 2.298.266 4.218 1.863 5.869 13.004 13.448 33.907 1.616 45.136-4.74.839-.475 1.624-.919 2.348-1.32a.996.996 0 0 1 .683-.106c1.451.292 2.975.618 4.561.956 13.791 2.942 32.678 6.971 50.353-.947a.999.999 0 1 1 .817 1.825c-18.272 8.185-37.527 4.077-51.587 1.078a468.232 468.232 0 0 0-4.178-.878c-.628.351-1.3.731-2.011 1.133-7.705 4.361-19.784 11.197-31.153 11.197z" fill="#112c41"/><path d="M726.461 66.866c-8.66 30.55-37.91 71.47-50.78 85.77-18 20-42.5 31.42-42.5 31.42s-27.5-28.42-51.5-21.42c-24.48 7.14-219 51-219 51l-17.48 21.15s-31.52-17.15-69.52-44.15-55-53-58-63c-2.85-9.5 62.89-79.47 187.79-109.58 6.57-1.59 13.31-3.07 20.21-4.42 14.12-2.76 27.98-5.02 41.52-6.81.4-.06.79-.11 1.18-.16 135.6-17.78 239.07 10.11 256.3 30.97 5.41 6.55 5.23 17.07 1.78 29.23z" fill="#fff"/><path d="M345.201 235.786a1 1 0 0 1-.478-.122c-.315-.172-32.008-17.488-69.621-44.213-36.664-26.051-55-52.264-58.379-63.528-.417-1.393.157-3.424 1.758-6.211 6.098-10.616 25.795-30.101 56.053-49.701 26.269-17.016 70.268-40.358 130.703-54.928a472.615 472.615 0 0 1 20.252-4.429 687.434 687.434 0 0 1 41.581-6.82c.391-.059.788-.11 1.185-.161 76.487-10.029 136.202-4.992 172.827 1 41.668 6.817 74.785 18.72 84.371 30.325 5.197 6.292 5.86 16.433 1.971 30.14-8.627 30.434-37.473 71.137-50.999 86.166-17.929 19.921-42.574 31.542-42.821 31.657a1 1 0 0 1-1.141-.211c-.271-.279-27.358-27.901-50.501-21.155-23.753 6.928-209.598 48.881-218.727 50.94l-17.262 20.887a1.002 1.002 0 0 1-.771.363zM553.963 1.987c-26.424 0-55.092 1.69-85.452 5.671-.387.049-.77.099-1.163.157a685.925 685.925 0 0 0-41.475 6.802 468.662 468.662 0 0 0-20.167 4.411c-111.533 26.888-174.994 85.406-185.491 103.68-1.81 3.15-1.664 4.348-1.576 4.641 3.3 10.999 21.368 36.713 57.621 62.472 34.372 24.422 63.775 40.961 68.698 43.69l16.952-20.512a1 1 0 0 1 .551-.338c1.945-.438 194.769-43.935 218.94-50.984 22.776-6.646 47.984 17.189 51.987 21.168 3.941-1.942 25.493-13.037 41.549-30.877 13.418-14.909 42.024-55.256 50.562-85.374 3.699-13.037 3.164-22.565-1.589-28.32-12.959-15.689-77.729-36.286-169.947-36.286z" fill="#112c41"/><path d="M726.461 66.866c-5-3.54-10.313-8.512-16.63-14.47-42.15-39.76-199.15-45.76-236.58-40.1l-6.05-5.47c.4-.06.79-.11 1.18-.16 135.6-17.78 239.07 10.11 256.3 30.97 5.41 6.55 5.23 17.07 1.78 29.23z" fill="#dedffe"/><path d="M345.201 235.786a1 1 0 0 1-.478-.122c-.315-.172-32.007-17.488-69.621-44.213-36.664-26.051-55-52.264-58.379-63.528-.417-1.393.157-3.424 1.758-6.211 6.098-10.616 25.795-30.101 56.053-49.701 26.269-17.016 70.268-40.358 130.703-54.928a472.615 472.615 0 0 1 20.252-4.429 690.318 690.318 0 0 1 42.763-6.98c76.492-10.03 136.205-4.992 172.83 1 41.668 6.817 74.785 18.72 84.371 30.325 19.973 24.177-33.007 98.505-49.028 116.306-17.929 19.921-42.574 31.542-42.821 31.657a1 1 0 0 1-1.141-.211c-.271-.279-27.358-27.901-50.501-21.155-23.753 6.928-209.598 48.881-218.727 50.94l-17.262 20.887a1.002 1.002 0 0 1-.771.363zM553.963 1.987c-26.424 0-55.092 1.69-85.452 5.671a688.53 688.53 0 0 0-42.638 6.959 468.662 468.662 0 0 0-20.167 4.411c-111.533 26.888-174.994 85.406-185.491 103.68-1.81 3.15-1.664 4.348-1.576 4.641 3.3 10.999 21.368 36.713 57.621 62.472 34.372 24.422 63.775 40.961 68.698 43.69l16.952-20.512a1 1 0 0 1 .551-.338c1.945-.438 194.769-43.935 218.94-50.984 22.776-6.646 47.984 17.189 51.987 21.168 3.941-1.942 25.493-13.037 41.549-30.877 20.52-22.799 66.655-92.289 48.972-113.694C710.95 22.585 646.18 1.988 553.962 1.988z" fill="#112c41"/><path d="M606.051 127.446c-.2 2.24-.46 4.46-.76 6.66v.01c-9.99 73.16-72.71 129.52-148.61 129.52-16.85 0-33.04-2.78-48.15-7.9-.04-.01-.06-.02-.06-.02-39.05-13.24-70.87-42.13-88.01-79.2z" fill="#fff"/><path d="M605.291 134.106v.01c-9.99 73.16-72.71 129.52-148.61 129.52-16.85 0-33.04-2.78-48.15-7.9-.04-.01-.06-.02-.06-.02 41.21 4.92 91.21-2.08 129.21-41.08 31.163-31.983 35-70 40-75s28.22-10.07 27.61-5.53z" fill="#dedffe"/><path d="M456.681 264.636c-58.671 0-112.499-34.425-137.132-87.701a1.001 1.001 0 0 1 1.815-.84c24.307 52.571 77.421 86.54 135.316 86.54 77.547 0 141.335-58.156 148.377-135.277a1.01 1.01 0 0 1 1.086-.905 1 1 0 0 1 .905 1.087c-3.41 37.34-20.563 71.922-48.301 97.377-27.911 25.613-64.159 39.718-102.067 39.718zm260.99-206.5c-4.79 15.11-20.06 41.13-41.01 68.55-17.64 23.09-35.39 42.04-48.51 52.58a96.71 96.71 0 0 0-16.42-11.63c6.61-15.46 20.37-37.87 38.28-61.31 20.72-27.12 41.58-48.52 54.92-57.3 5.98-3.94 10.44-5.35 12.72-3.61 2.22 1.69 2.1 6.19.02 12.72z" fill="#112c41"/><path d="M628.151 180.266a.995.995 0 0 1-.661-.25 95.825 95.825 0 0 0-16.25-11.51 1 1 0 0 1-.429-1.264c6.946-16.247 20.944-38.672 38.405-61.524 20.116-26.329 41.254-48.373 55.165-57.528 6.701-4.415 11.239-5.582 13.877-3.569 2.546 1.938 2.669 6.587.366 13.818-5.003 15.783-20.778 42.167-41.168 68.854-17.153 22.453-34.895 41.68-48.678 52.753a1 1 0 0 1-.626.22zm-15.146-13.056a97.822 97.822 0 0 1 15.171 10.75c13.568-11.054 30.901-29.904 47.691-51.881 20.259-26.516 35.913-52.666 40.852-68.246 1.962-6.162 2.079-10.289.327-11.622-1.801-1.374-5.907-.079-11.564 3.649-13.736 9.041-34.687 30.909-54.676 57.072-16.816 22.009-30.884 44.452-37.801 60.277z" fill="#112c41"/><path d="M631.151 402.476c-32.21 13.4-58.99 14.57-75.51 16.07-22 24.33-59.61 5.29-54.95-15.4-16.95-1.35-24.89-15.02-22.08-32.97-7.07-5.17-12.09-17.17-9.46-27.16 5.03-19.06 19.22-18.99 20.25-25.04 1.49-8.88-14.04-23.25-8.43-32.77 8.65-14.69 39.89 18.66 79.71 8.43 7.75-1.99 15.59-4.55 23.25-7.59q.01-.01.02-.01c28.91-11.45 55.24-29.64 64.73-49.4 8.16-16.99-.78-39.99-20.53-57.37a96.71 96.71 0 0 0-16.42-11.63c2.74-6.39 6.69-13.97 11.65-22.32 7.05-11.85 16.12-25.24 26.63-38.99 20.72-27.12 41.58-48.52 54.92-57.3 3.17 2.13 7.59 5.21 12.74 9.11 18.27 13.82 45.68 37.94 59.01 66.5 69.42 148.76-45 236-145.53 277.84z" fill="#ffd6c0"/><path d="M530.471 430.923c-6.012 0-11.802-1.514-16.659-4.033-10.171-5.274-15.677-14.144-14.308-22.854-7.099-.806-12.896-3.837-16.817-8.806-4.753-6.024-6.575-14.748-5.153-24.617-6.741-5.294-12.15-17.215-9.35-27.852 3.275-12.412 10.507-17.079 15.292-20.167 2.69-1.736 4.634-2.991 4.939-4.787.588-3.504-1.846-8.175-4.423-13.121-3.614-6.934-7.35-14.104-3.882-19.989 4.379-7.438 13.396-3.991 25.876.781 13.979 5.346 33.125 12.665 54.446 7.188 7.705-1.978 15.478-4.515 23.104-7.54l.047-.02c31.479-12.469 55.479-30.75 64.197-48.905 7.74-16.116-.413-38.695-20.289-56.186a95.825 95.825 0 0 0-16.25-11.51 1 1 0 0 1-.428-1.265c2.786-6.498 6.726-14.047 11.709-22.437 7.307-12.282 16.538-25.797 26.695-39.087 20.116-26.329 41.254-48.372 55.165-57.528a1.001 1.001 0 0 1 1.107.005 279.298 279.298 0 0 1 12.786 9.143c19.815 14.989 46.19 38.758 59.313 66.875 24.084 51.61 27.781 99.74 10.987 143.053-11.723 30.235-33.433 58.153-64.524 82.979-25.428 20.304-56.555 38.188-92.514 53.154-29.39 12.227-54.425 14.333-70.991 15.728-1.546.13-3.022.254-4.426.38-7.516 8.15-16.819 11.416-25.647 11.417zm-42.35-148.493c-2.776 0-4.904.934-6.288 3.283-2.905 4.929.571 11.599 3.933 18.05 2.736 5.251 5.321 10.211 4.622 14.378-.454 2.666-2.825 4.196-5.827 6.133-4.796 3.096-11.365 7.335-14.442 18.997-2.569 9.758 2.623 21.373 9.083 26.097a.998.998 0 0 1 .397.962c-1.496 9.556.158 17.958 4.658 23.661 3.769 4.776 9.479 7.597 16.514 8.158a1.001 1.001 0 0 1 .896 1.216c-1.835 8.146 3.293 16.683 13.065 21.749 11.395 5.909 28.233 5.96 40.168-7.24.168-.186.401-.302.651-.325 1.522-.138 3.132-.273 4.825-.416 16.441-1.383 41.292-3.477 70.391-15.581 56.353-23.454 129.152-65.916 155.942-135.01 16.589-42.785 12.911-90.387-10.935-141.484-12.949-27.744-39.072-51.273-58.707-66.125a279.114 279.114 0 0 0-12.141-8.704c-13.741 9.255-34.399 30.889-54.122 56.703-10.112 13.229-19.297 26.679-26.565 38.895-4.73 7.963-8.507 15.151-11.235 21.383a97.671 97.671 0 0 1 15.807 11.305c20.557 18.089 28.903 41.62 20.771 58.553-8.927 18.589-33.312 37.236-65.23 49.884a195.255 195.255 0 0 1-23.423 7.652c-21.938 5.637-41.428-1.815-55.658-7.257-7.021-2.685-12.859-4.917-17.151-4.917z" fill="#112c41"/><path d="M665.681 229.636c-16.594 37.929-61.47 49.81-81.73 56.4 28.91-11.45 55.24-29.64 64.73-49.4 8.16-16.99-.78-39.99-20.53-57.37a96.71 96.71 0 0 0-16.42-11.63c2.74-6.39 6.69-13.97 11.65-22.32 31.3 18.32 56.3 52.32 42.3 84.32z" fill="#f5b9ab"/><g fill="#112c41"><path d="M530.471 430.923c-6.012 0-11.802-1.514-16.659-4.033-10.171-5.274-15.677-14.144-14.308-22.854-7.099-.806-12.896-3.837-16.817-8.806-4.753-6.024-6.575-14.748-5.153-24.617-6.741-5.294-12.15-17.215-9.35-27.852 3.275-12.412 10.507-17.079 15.292-20.167 2.69-1.736 4.634-2.991 4.939-4.787.588-3.504-1.846-8.175-4.423-13.121-3.614-6.934-7.35-14.104-3.882-19.989 4.379-7.438 13.396-3.991 25.876.781 13.979 5.346 33.125 12.665 54.446 7.188 40.458-10.39 76.377-33.609 87.348-56.464 7.74-16.116-.413-38.696-20.289-56.187a95.825 95.825 0 0 0-16.25-11.51 1 1 0 0 1-.429-1.264c6.946-16.247 20.944-38.672 38.405-61.524 20.116-26.329 41.254-48.373 55.165-57.528a1.001 1.001 0 0 1 1.107.005 279.298 279.298 0 0 1 12.786 9.143c19.815 14.989 46.19 38.758 59.313 66.875 24.084 51.61 27.781 99.74 10.987 143.053-11.723 30.235-33.433 58.153-64.524 82.979-25.428 20.304-56.555 38.188-92.514 53.154-29.39 12.227-54.425 14.333-70.991 15.728-1.546.13-3.022.254-4.426.38-7.516 8.15-16.819 11.416-25.647 11.417zm-42.35-148.493c-2.776 0-4.904.934-6.288 3.283-2.905 4.929.571 11.599 3.933 18.05 2.736 5.251 5.321 10.211 4.622 14.378-.454 2.666-2.825 4.196-5.827 6.133-4.796 3.096-11.365 7.335-14.442 18.997-2.569 9.758 2.623 21.373 9.083 26.097a.998.998 0 0 1 .397.962c-1.496 9.556.158 17.958 4.658 23.661 3.769 4.776 9.479 7.597 16.514 8.158a1.001 1.001 0 0 1 .896 1.216c-1.835 8.146 3.293 16.683 13.065 21.749 11.395 5.909 28.233 5.96 40.168-7.24.168-.186.401-.302.651-.325 1.522-.138 3.132-.273 4.825-.416 16.441-1.383 41.292-3.477 70.391-15.581 56.353-23.454 129.152-65.916 155.942-135.01 16.589-42.785 12.911-90.387-10.935-141.484-12.949-27.744-39.072-51.273-58.707-66.125a279.114 279.114 0 0 0-12.141-8.704c-13.741 9.255-34.399 30.889-54.122 56.703-16.816 22.009-30.884 44.452-37.801 60.277a97.615 97.615 0 0 1 15.807 11.306c20.557 18.089 28.903 41.62 20.771 58.553-13.079 27.247-55.123 48.925-88.653 57.536-21.938 5.637-41.428-1.815-55.658-7.257-7.021-2.685-12.859-4.917-17.151-4.917z"/><path d="M478.426 381.306a1 1 0 0 1-.994-.899c-1.118-11.083 4.46-21.395 13.566-25.078a1 1 0 0 1 .75 1.854c-8.287 3.351-13.355 12.818-12.326 23.022a1 1 0 0 1-.997 1.101zm80.03 37.703c-9.23 0-20.371-.859-21.829-.975a1 1 0 0 1 .153-1.994c1.734.138 17.173 1.33 26.664.862a1.009 1.009 0 0 1 1.048.95 1 1 0 0 1-.95 1.048 105.14 105.14 0 0 1-5.085.109zm-58.251-11.129a1 1 0 0 1-.995-1.107c.751-6.995 6.499-15.109 17.344-16.396a1.008 1.008 0 0 1 1.111.875 1.001 1.001 0 0 1-.875 1.111c-9.757 1.158-14.921 8.392-15.591 14.624a1 1 0 0 1-.993.893zM441.761 38.716c-19.37 2.94-36.33-2.96-37.88-13.18-.38-2.51.2-5.04 1.59-7.48 6.57-1.59 13.31-3.07 20.21-4.42a686.92 686.92 0 0 1 42.7-6.97c3.14 2.23 5.15 5.01 5.64 8.23 1.55 10.21-12.89 20.88-32.26 23.82z"/><path d="M431.906 40.475c-5.876 0-11.393-.833-16.096-2.469-7.522-2.617-12.109-6.992-12.917-12.319-.406-2.686.169-5.419 1.709-8.125.137-.24.366-.413.634-.478a472.993 472.993 0 0 1 20.253-4.429 691.07 691.07 0 0 1 42.763-6.98c.25-.031.503.031.708.176 3.444 2.446 5.536 5.522 6.05 8.895.808 5.324-2.274 10.86-8.68 15.591-6.222 4.595-14.896 7.922-24.419 9.368-3.393.515-6.754.77-10.005.77zm-25.772-21.55c-1.158 2.18-1.583 4.353-1.264 6.462.691 4.558 4.81 8.368 11.597 10.729 7.005 2.438 15.936 3.009 25.144 1.611 9.208-1.397 17.565-4.594 23.531-9 5.78-4.268 8.582-9.127 7.891-13.682-.421-2.764-2.074-5.231-4.916-7.336a688.152 688.152 0 0 0-42.244 6.908 469.346 469.346 0 0 0-19.739 4.307zm-228.51 434.524c-5.934 0-15.447-6.741-23.043-13.042-12.564-10.424-26.871-25.544-39.25-41.483-12.604-16.228-23.086-32.559-29.518-45.984-4.688-9.785-9.221-22.268-4.198-26.168 3.334-2.593 9.641-.521 18.74 6.154a1 1 0 1 1-1.182 1.612c-7.941-5.824-13.893-8.081-16.331-6.187-3.007 2.335-1.222 11.205 4.775 23.725 6.372 13.3 16.775 29.502 29.293 45.621 12.294 15.83 26.49 30.836 38.948 41.171 13.997 11.612 21.478 13.813 23.808 12.002 2.473-1.921 1.708-8.376-2.097-17.711a1 1 0 0 1 1.851-.755c4.354 10.678 4.85 17.422 1.472 20.045-.889.69-1.997 1-3.269 1zm46.292-32.245c-5.011 0-13.467-3.267-25.274-9.776-14.308-7.888-32.396-19.979-49.626-33.175-16.313-12.493-30.602-25.624-40.234-36.974-7.02-8.273-14.577-19.194-10.71-24.243 2.377-3.105 8.263-2.984 17.497.359a1 1 0 1 1-.681 1.881c-7.967-2.885-13.518-3.259-15.229-1.024-2.315 3.023 1.665 11.148 10.647 21.733 9.542 11.245 23.721 24.271 39.925 36.68 17.155 13.137 35.152 25.169 49.376 33.011 22.035 12.147 26.389 9.642 27.2 8.585 1.617-2.112-.747-9.511-8.313-19.063a1 1 0 1 1 1.568-1.242c5.82 7.348 11.496 17.394 8.334 21.521-.882 1.152-2.378 1.727-4.479 1.727z"/></g></svg></g><g transform="translate(1481.0 293.0) rotate(-26.425335718265178 -149.0 149.0) scale(-0.9933333333333333 0.9933333333333333)"><svg width="300" height="300" viewBox="0 0 300 300"><path d="M51.314 158.691c1.598 22.007 14.142 97.056 16.264 109.663a1.945 1.945 0 0 0 2.135 1.616c16.507-1.79 140.867-17.19 217.782-82.03a1.968 1.968 0 0 0 .448-2.456l-53.83-97.331a1.96 1.96 0 0 0-2.423-.879L52.562 156.731a1.952 1.952 0 0 0-1.248 1.96z" fill="#b2b0f7"/><path d="m52.558 156.729 2.456-.95c5.845 26.727 25.531 94.799 30.561 112.095-7.677 1.151-13.191 1.806-15.866 2.092a1.944 1.944 0 0 1-2.134-1.611c-2.117-12.603-14.665-87.651-16.263-109.664a1.961 1.961 0 0 1 1.246-1.962z" fill="#9797f7"/><path d="M69.501 270.98a2.954 2.954 0 0 1-2.908-2.461c-2.438-14.48-14.684-87.82-16.275-109.757a2.935 2.935 0 0 1 1.885-2.964L231.33 86.34a2.969 2.969 0 0 1 3.66 1.328l53.83 97.33a2.972 2.972 0 0 1-.68 3.704c-77.516 65.347-204.136 80.722-218.318 82.26a2.692 2.692 0 0 1-.321.018zM232.396 88.142a.974.974 0 0 0-.345.064L52.924 157.664a.946.946 0 0 0-.612.954c1.586 21.847 13.817 95.105 16.254 109.569a.94.94 0 0 0 1.04.787c14.121-1.531 140.184-16.836 217.245-81.801a.967.967 0 0 0 .219-1.206l-53.831-97.331a.964.964 0 0 0-.843-.494z" fill="#112c41"/><circle cx="252.068" cy="108.927" fill="#ffd6c0" r="28.57"/><path d="M278.757 115.809a26.846 26.846 0 0 1-1.273 3.792 10.52 10.52 0 0 1 1.804.867 28.264 28.264 0 0 0 1.327-3.852 14.952 14.952 0 0 0-1.858-.807z" fill="#ffd6c0"/><path d="M253.618 137.454c15.244-.826 27.048-13.459 27.02-28.563-3.678 10.659-13.512 18.556-25.463 19.213-15.755.852-29.226-11.233-30.078-26.988a31.14 31.14 0 0 1-.037-1.523 28.41 28.41 0 0 0-1.516 10.88c.852 15.757 14.319 27.833 30.074 26.981z" fill="#f5b9ab"/><path d="M252.082 138.497a29.668 29.668 0 0 1-20.654-8.396 1 1 0 1 1 1.396-1.432c5.508 5.364 13.067 8.192 20.737 7.787 15.179-.824 26.859-13.843 26.036-29.023-.823-15.179-13.863-26.895-29.023-26.036-14.325.776-25.777 12.607-26.071 26.934a1.012 1.012 0 0 1-1.021.979 1.001 1.001 0 0 1-.979-1.021c.315-15.366 12.599-28.057 27.964-28.89 16.264-.909 30.244 11.646 31.127 27.926.884 16.28-11.644 30.244-27.925 31.127-.529.03-1.059.044-1.587.045z" fill="#112c41"/><path d="M238.712 118.012a1 1 0 0 1-.927-.623c-1.841-4.531-1.854-9.49-.038-13.965 1.82-4.483 5.26-7.942 9.684-9.741 4.995-2.028 10.6-1.648 15.376 1.045a1 1 0 0 1-.982 1.742c-4.242-2.394-9.216-2.734-13.64-.934-3.921 1.593-6.969 4.661-8.585 8.641-1.619 3.988-1.605 8.413.039 12.458a1.002 1.002 0 0 1-.927 1.377z" fill="#112c41"/><circle cx="153.017" cy="151.069" fill="#ffd6c0" r="102.5"/><path d="M100.496 63.393c.296-.179.597-.34.894-.516l12.176 7.222c-45.64 27.794-61.043 84.796-33.791 129.838 27.301 45.124 87.076 61.157 132.91 33.426a98.414 98.414 0 0 0 12.74-9.157 102.822 102.822 0 0 1-18.808 14.582c-48.435 29.305-111.453 13.797-140.758-34.637S52.061 92.698 100.496 63.393z" fill="#f5b9ab"/><path d="M153.743 254.632c-8.298 0-16.653-1.006-24.918-3.039-26.846-6.606-49.511-23.271-63.822-46.925C35.46 155.84 51.15 92.08 99.978 62.537c48.825-29.542 112.586-13.854 142.131 34.976 29.542 48.829 13.853 112.588-34.976 142.131-16.37 9.905-34.734 14.988-53.39 14.988zm-87.029-50.999c14.035 23.196 36.263 39.539 62.589 46.018 26.328 6.479 53.6 2.316 76.796-11.718 47.884-28.972 63.271-91.5 34.3-139.385-28.973-47.885-91.499-63.271-139.385-34.3-47.885 28.972-63.272 91.5-34.3 139.385z" fill="#112c41"/><ellipse cx="134.131" cy="138.371" fill="#112c41" rx="6.828" ry="9.104" transform="matrix(.8556 -.5177 .5177 .8556 -52.259 89.4168)"/><ellipse cx="114.957" cy="114.55" fill="#112c41" rx="14.13" ry="9.336" transform="matrix(.7708 -.637 .637 .7708 -46.6279 99.4788)"/><ellipse cx="219.002" cy="136.986" fill="#ffa6e0" rx="12.121" ry="8.009" transform="matrix(.7966 -.6045 .6045 .7966 -38.2632 160.2611)"/><ellipse cx="130.722" cy="167.011" fill="#ffa6e0" rx="12.121" ry="8.009" transform="matrix(.9964 -.0851 .0851 .9964 -13.7458 11.7371)"/><g fill="#112c41"><ellipse cx="198.549" cy="84.637" rx="8.6" ry="13.016" transform="matrix(.0599 -.9982 .9982 .0599 102.1716 277.7607)"/><path d="M197.873 78.017c.354 0 .714.011 1.071.032 5.961.358 10.816 3.677 10.602 7.248-.197 3.287-4.826 5.96-10.319 5.96-.355 0-.716-.011-1.073-.032-5.961-.358-10.816-3.677-10.602-7.248.197-3.286 4.827-5.96 10.321-5.96m-.002-2c-6.641 0-12.047 3.365-12.316 7.841-.284 4.741 5.302 8.933 12.478 9.364.402.024.799.036 1.192.036 6.641 0 12.047-3.365 12.316-7.841.284-4.741-5.302-8.934-12.478-9.364a19.94 19.94 0 0 0-1.192-.036z"/><ellipse cx="199.286" cy="114.024" rx="6.828" ry="9.104" transform="matrix(.9838 -.1791 .1791 .9838 -17.1985 37.533)"/><path d="M155.752 147.901c5.765 11.086 16.345 17.212 25.193 13.976s12.981-14.742 10.233-26.931z"/><path d="M176.025 163.739c-7.885 0-16.185-5.808-21.161-15.377a.998.998 0 0 1 .544-1.4l35.428-12.955a1 1 0 0 1 1.319.72c2.909 12.91-1.66 24.724-10.866 28.09a15.288 15.288 0 0 1-5.264.922zm-18.843-15.296c5.725 10.184 15.433 15.42 23.42 12.494 7.991-2.922 12.031-13.183 9.835-24.655z"/></g><path d="M187.018 156.898c-4.278-2.949-10.716-2.995-16.218.334a17.747 17.747 0 0 0-3.698 2.969c4.494 2.561 9.388 3.305 13.843 1.676 2.562-.937 4.729-2.568 6.445-4.711a10.958 10.958 0 0 0-.372-.268z" fill="#ffa6e0"/><path d="M176.035 163.734c-3.104 0-6.328-.897-9.428-2.664a1 1 0 0 1-.23-1.557 18.726 18.726 0 0 1 3.906-3.137c5.65-3.421 12.604-3.541 17.302-.302h.001c.137.095.272.191.405.292a1 1 0 0 1 .18 1.424c-1.884 2.354-4.199 4.045-6.882 5.025-1.68.616-3.446.919-5.254.919zm-7.25-3.775c4.022 1.958 8.176 2.312 11.816.979 2.01-.734 3.788-1.934 5.298-3.569-4.045-2.429-9.81-2.166-14.581.72a16.874 16.874 0 0 0-2.533 1.87z" fill="#112c41"/><circle cx="45.993" cy="188.703" fill="#ffd6c0" r="30.5"/><circle cx="45.993" cy="188.703" fill="#ffd6c0" r="30.5"/><path d="M76.143 193.953c-1.088 2.116-2.798 4.327-4.427 6.197-11.088 12.688-30.728 13.521-43.409 2.439-8.322-7.269-11.137-17.588-9.371-27.723-6.366 12.187-4.442 27.103 6.376 36.561 12.674 11.089 31.949 9.797 43.037-2.891 3.812-4.357 6.876-9.254 7.794-14.583z" fill="#f5b9ab"/><path d="M46.046 220.196c-10.67.001-21.089-5.411-27.004-15.187-8.991-14.86-4.216-34.266 10.646-43.257 14.023-8.488 32.449-4.687 41.947 8.651a1 1 0 0 1-1.629 1.161c-8.895-12.49-26.149-16.05-39.283-8.101-6.742 4.079-11.492 10.539-13.375 18.19s-.674 15.578 3.405 22.32c8.421 13.917 26.594 18.39 40.512 9.969 6.893-4.171 12.218-11.906 13.897-20.189a1 1 0 0 1 1.961.399c-1.788 8.812-7.468 17.052-14.823 21.502a31.328 31.328 0 0 1-16.254 4.542z" fill="#112c41"/><path d="M29.384 188.744a1 1 0 0 1-.98-1.204c1.186-5.712 4.804-10.468 9.926-13.049 4.538-2.284 9.715-2.621 14.581-.938 4.856 1.676 8.819 5.159 11.161 9.806.248.493.05 1.095-.443 1.344a1.004 1.004 0 0 1-1.344-.443c-2.104-4.18-5.666-7.311-10.026-8.816-4.352-1.503-8.979-1.206-13.028.836-4.575 2.304-7.807 6.557-8.867 11.668-.1.472-.516.796-.98.796z" fill="#112c41"/><path d="M57.857 71.824a104.829 104.829 0 0 1 14.459-17.07 108.596 108.596 0 0 1 16.866-13.157c36.268-22.966 80.622-21.529 112.014.31 8.51 5.92 16.083 13.328 22.252 22.178 1.241 1.781-.222 3.261-1.904 3.01-16.94-2.53-46.735.669-67.103 6.08-13.589 3.61-27.174 9.636-40.631 16.932a219.756 219.756 0 0 0-16.296 9.764c-3.977-8.938-5.893-18.207-5.733-26.979-3.914 9.589-5.281 22.362-4.59 34.301-16.751 12.683-31.264 27.636-41.27 42.557-.827 1.234-2.623 1.437-3.084-.548-6.093-26.216-.595-54.33 15.02-77.378z" fill="#b2b0f7"/><path d="M45.616 150.203c3.799-5.72 12.304-15.984 17.164-21.488-5.369-23.413-1.317-57.375 22.255-79.853a97.703 97.703 0 0 1 15.094-11.771 97.066 97.066 0 0 1 12.217-6.576 107.892 107.892 0 0 0-23.165 11.082 108.766 108.766 0 0 0-16.869 13.156c-26.497 25.278-37.54 61.802-29.351 94.978.31 1.235 1.953 1.532 2.655.472z" fill="#9797f7"/><path d="M44.345 151.687c-.146 0-.29-.013-.435-.039-1.018-.188-1.764-.996-2.048-2.22-6.134-26.394-.605-54.884 15.166-78.164l.828.561-.828-.561a105.986 105.986 0 0 1 14.597-17.233 109.904 109.904 0 0 1 17.021-13.278c17.72-11.222 37.914-16.999 58.381-16.803 20.018.224 38.946 6.15 54.739 17.137 8.85 6.158 16.42 13.703 22.501 22.427.752 1.079.847 2.293.255 3.247-.618.996-1.847 1.516-3.127 1.324-17.59-2.628-47.724 1.017-66.698 6.058-12.322 3.272-25.541 8.782-40.412 16.844a219.754 219.754 0 0 0-16.222 9.721 1.004 1.004 0 0 1-1.465-.429c-3.168-7.12-5.089-14.592-5.653-21.895-2.362 8.192-3.358 18.356-2.758 28.753a.996.996 0 0 1-.395.854C71.2 120.554 56.624 135.582 46.75 150.307c-.583.869-1.493 1.38-2.405 1.38zM145.863 25.943c-19.695 0-39.083 5.692-56.146 16.498a107.852 107.852 0 0 0-16.711 13.036 104.027 104.027 0 0 0-14.321 16.907c-15.461 22.821-20.882 50.737-14.875 76.59.046.195.182.654.462.706.216.028.57-.119.818-.488 9.909-14.778 24.481-29.846 41.072-42.475-.675-12.79 1.028-25.229 4.691-34.204a1 1 0 0 1 1.926.396c-.151 8.351 1.636 17.134 5.178 25.474a221.997 221.997 0 0 1 15.375-9.156c15.012-8.139 28.374-13.705 40.852-17.02 19.171-5.093 49.665-8.768 67.507-6.103.483.077.943-.093 1.133-.399.219-.354-.029-.81-.196-1.05-5.945-8.528-13.348-15.906-22.003-21.928-15.463-10.758-34.004-16.56-53.618-16.779-.382-.003-.764-.005-1.144-.005zM273.626 145.54a14.774 14.774 0 0 1-13.486-8.763 1 1 0 1 1 1.828-.812 12.771 12.771 0 0 0 11.658 7.575c7.032 0 12.753-5.722 12.753-12.754s-5.721-12.753-12.753-12.753a12.706 12.706 0 0 0-8.725 3.451 1.001 1.001 0 0 1-1.369-1.459 14.7 14.7 0 0 1 10.094-3.992c8.135 0 14.753 6.618 14.753 14.753 0 8.136-6.618 14.754-14.753 14.754zM45.815 236.962c-8.135 0-14.753-6.618-14.753-14.754 0-8.135 6.618-14.753 14.753-14.753a1 1 0 1 1 0 2c-7.032 0-12.753 5.721-12.753 12.753s5.721 12.754 12.753 12.754 12.754-5.722 12.754-12.754c0-1.799-.366-3.537-1.09-5.168a.999.999 0 1 1 1.828-.81 14.654 14.654 0 0 1 1.262 5.979c0 8.135-6.618 14.753-14.754 14.753z" fill="#112c41"/></svg></g></svg>