<svg xmlns="http://www.w3.org/2000/svg" viewBox="0 0 1800 1800" width="1800" height="1800"><g transform="translate(268.0 1276.0) rotate(0.0 231.5 39.0) scale(1.1914687747686543 1.1890425158920104)"><svg width="388.596" height="65.599" viewBox="0 0 388.596 65.599"><ellipse cx="194.298" cy="32.799" fill="#cbc8ff" rx="194.298" ry="32.799"/></svg></g><g transform="translate(583.0 950.0) rotate(0.0 435.5 208.5) scale(0.9981092075860883 0.999534988518531)"><svg width="872.65" height="417.194" viewBox="0 0 872.65 417.194"><path d="M225.857 104C95.857 52 1.488 148.581.636 234.709a137.579 137.579 0 0 0 1.586 22.175c.727 4.753.6 11.672 1.635 16.114 9.192 39.407 31.04 64.2 57.34 82.19a160.063 160.063 0 0 0 36.15 18.265s0-.01.01 0a196.16 196.16 0 0 0 24.843 7.113c31.278 6.859 63.793 6.636 91.232 2.581" fill="#ffa9dc"/><path d="M761.483 363.88v.04h-.01c-.29.017-.58.024-.869.042-7.743.372-23.482 1.035-38.859 1.758-16.126.742-31.841 1.553-37.5 2.144 0 0-.016-.25-.058-.729-.126-1.847-.5-7.15-1.1-14.807-2.191-28.124-7.383-87.983-14.322-125.2 8.409.27 23.521-.266 38.167-.981 18.454-.89 36.161-2.041 38.778-2.186.41-.02.759-.039 1.019-.046l1.889-.076.04.4 11.38 123.975 1.317 14.311z" fill="#ffd6c0"/><path d="M674.956 352.763 760.2 348.2c2.925 3.681 8.671 10.757 10.2 13.526-33.981 3.207-91.019 5.611-91.019 5.611z" fill="#f5b9ab"/><path d="M824.4 154.79c18.965 47.514 21.012 111.9 13.884 166.438a384.817 384.817 0 0 1-8.382 44.517s-42.713-1.9-68.422-1.828l-1.008-11.317s-11.739-128.429-11.855-128.765c4.632-10.176 28.639-56.58 75.783-69.045z" fill="#b2b0f7"/><path d="M829.9 366.745h-.045c-.427-.019-42.994-1.9-68.375-1.827a1 1 0 0 1-1-.911l-1.008-11.318c-.115-1.263-11.55-126.35-11.844-128.685a1 1 0 0 1 .075-.582c4.268-9.375 28.006-56.793 76.438-69.6a1 1 0 0 1 1.184.6c16.875 42.266 22.088 104.678 13.951 166.935a384.483 384.483 0 0 1-8.4 44.634 1 1 0 0 1-.976.754zm-66.967-3.83c23.578 0 60.28 1.54 66.2 1.795a384.059 384.059 0 0 0 8.159-43.612c8.043-61.535 3-123.159-13.493-165.11-47.409 13.039-71.134 61.446-74.169 68.038.281 2.632 1.856 19.274 11.838 128.483l.926 10.406z" fill="#360815"/><path d="M829.9 365.745s-42.713-1.9-68.422-1.828l1.282-14.084c22.279-2.942 57.157-7.008 74.238-18.376.182-.119-3.646 20.728-7.098 34.288z" fill="#9797f7"/><path d="M764.41 364.527c-.077 0-.153 0-.23-.01a2.5 2.5 0 0 1-2.263-2.717c1.666-18.288 11.567-36.078 27.878-50.094 15.146-13.015 33.8-21.052 51.174-22.051a2.5 2.5 0 0 1 .287 4.992c-32.364 1.86-71.04 31.167-74.36 67.607a2.5 2.5 0 0 1-2.486 2.273z" fill="#fff"/><path d="M829.9 366.745h-.045c-.427-.019-42.994-1.9-68.375-1.827a1 1 0 0 1-1-.911l-1.008-11.318c-.115-1.263-11.55-126.35-11.844-128.685a1 1 0 0 1 .075-.582c4.268-9.375 28.006-56.793 76.438-69.6a1 1 0 0 1 1.184.6c16.875 42.266 22.088 104.678 13.951 166.935a384.483 384.483 0 0 1-8.4 44.634 1 1 0 0 1-.976.754zm-66.967-3.83c23.578 0 60.28 1.54 66.2 1.795a384.059 384.059 0 0 0 8.159-43.612c8.043-61.535 3-123.159-13.493-165.11-47.409 13.039-71.134 61.446-74.169 68.038.281 2.632 1.856 19.274 11.838 128.483l.926 10.406z" fill="#112c41"/><path d="M847.132 150.387a4.929 4.929 0 0 1 4.219 1.717c21.342 24.408 28.188 147.3 9.14 207.676-1.631 5.172-4.574 6.373-7.882 6.7l-22.707-.737c15.271-60.1 18.987-149.592-5.5-210.955 7.698-2.221 15.528-3.988 22.73-4.401z" fill="#fff"/><path d="M852.609 367.482h-.032l-22.707-.738a1 1 0 0 1-.937-1.246c14.7-57.868 19.267-148.373-5.461-210.337a1 1 0 0 1 .651-1.331c9.072-2.62 16.58-4.073 22.951-4.441a5.915 5.915 0 0 1 5.03 2.057c10.162 11.622 17.811 46.475 19.962 90.959 2.2 45.612-1.765 89.6-10.621 117.676-1.874 5.938-5.468 7.071-8.737 7.4a.821.821 0 0 1-.099.001zm-21.434-2.7 21.4.695c3.148-.325 5.537-1.483 6.962-6 19.663-62.328 11.278-183.6-8.938-206.718a3.95 3.95 0 0 0-3.41-1.377l-.057-1 .057 1a102.209 102.209 0 0 0-21.453 4.064c24.264 61.917 19.897 151.444 5.439 209.339zm-146.927 4.082a1 1 0 0 1-1-.933c0-.007-.017-.249-.057-.708-.1-1.455-.468-6.763-1.1-14.817-1.946-24.976-7.236-87.163-14.308-125.1a1 1 0 0 1 1.015-1.183c7.2.232 20.017-.1 38.087-.979 14.716-.71 28.717-1.571 35.445-1.985 1.647-.1 2.8-.172 3.326-.2l.187-.01c.341-.017.635-.031.862-.037l1.874-.077a1 1 0 0 1 1.04 1l.035.294 12.822 139.658v.106a1 1 0 0 1-.974 1.024l-.845.041c-3.551.171-8.76.4-14.843.671-7.224.32-15.679.7-24.028 1.088-20.1.924-32.7 1.644-37.441 2.14a.566.566 0 0 1-.097.007zm-14.272-140.7c6.978 38.126 12.184 99.348 14.112 124.091.6 7.583.957 12.738 1.079 14.52 5.419-.494 17.692-1.183 36.534-2.049 8.349-.393 16.806-.768 24.032-1.088 5.987-.265 11.129-.493 14.663-.662l-12.68-138.1-.942.039c-.23.006-.507.02-.828.036l-.182.009c-.523.029-1.667.1-3.308.2-6.733.414-20.742 1.276-35.471 1.986-17.134.834-29.571 1.175-37.009 1.013z" fill="#112c41"/><path d="M762.973 349.808c-.046.572-.082 1.143-.128 1.7-.306 3.769-.694 7.44-1.176 10.983-.05.431-.109.853-.169 1.274-.009.04-.008.07-.017.111v.01a.036.036 0 0 0-.009.03c-.29.017-.58.024-.869.042-7.743.372-23.482 1.035-38.859 1.758.006-.17 0-.35.008-.521.037-4.9.013-9.893-.082-14.932-.782-44.214-6.787-92.96-14.736-124.122 18.454-.89 36.161-2.041 38.778-2.186.41-.02.759-.039 1.019-.046l1.889-.076c11.006 33.44 17.393 85.047 14.351 125.975z" fill="#fff"/><path d="M721.746 366.72a1 1 0 0 1-1-1.035l.007-.517c.038-4.96.011-9.975-.082-14.882-.764-43.237-6.536-91.868-14.7-123.893a1 1 0 0 1 .92-1.247c14.716-.709 28.717-1.57 35.445-1.984 1.647-.1 2.8-.172 3.326-.2l.187-.01c.341-.017.635-.031.862-.037l1.874-.077a1.014 1.014 0 0 1 .99.687C761 258.24 766.92 310.2 763.97 349.882v.006l-.128 1.705a204.629 204.629 0 0 1-1.183 11.037c-.045.4-.1.811-.161 1.222 0 .025-.013.09-.02.126a1.083 1.083 0 0 1-.026.151 1 1 0 0 1-.918.789l-.87.042c-3.551.171-8.76.4-14.843.671-7.224.32-15.679.7-24.028 1.088zm-13.541-139.635c8.045 32.168 13.709 80.316 14.467 123.164.089 4.748.118 9.6.085 14.422 8-.374 16.054-.731 22.976-1.038 6.079-.269 11.286-.5 14.824-.67h.046c.025-.19.049-.384.072-.58.469-3.447.863-7.124 1.174-10.95l.127-1.7c2.912-39.177-2.869-90.378-14.069-124.867l-1.133.046c-.23.006-.507.02-.828.036l-.182.009c-.523.029-1.667.1-3.308.2-6.546.404-19.973 1.23-34.251 1.928zm54.154 137.275a.989.989 0 0 1-.154.216.989.989 0 0 0 .161-.218z" fill="#112c41"/><circle cx="777.522" cy="234.875" fill="#ffe993" r="8.5"/><path d="M780.081 233.405c-.97-15.273-10.072-31.188-14.836-35.584a2.832 2.832 0 1 0-3.842 4.162c3.657 3.375 12.5 18.545 13.07 32.663a2.832 2.832 0 1 0 5.66-.223c-.013-.339-.033-.679-.052-1.018z" fill="#fff"/><path d="M777.3 238.367a3.84 3.84 0 0 1-3.827-3.68c-.556-13.842-9.188-28.682-12.749-31.969a3.832 3.832 0 1 1 5.2-5.632c4.9 4.522 14.155 20.506 15.155 36.256.022.347.04.695.053 1.042a3.832 3.832 0 0 1-3.678 3.98q-.076.003-.154.003zm-13.976-40.3a1.831 1.831 0 0 0-1.243 3.178c3.743 3.454 12.813 18.97 13.39 33.357a1.832 1.832 0 0 0 3.662-.143 49.24 49.24 0 0 0-.051-1c-.953-15-9.956-30.7-14.516-34.912a1.822 1.822 0 0 0-1.241-.476z" fill="#112c41"/><circle cx="797.439" cy="216.825" fill="#ffe993" r="8.5"/><path d="M799.953 215.279c-1.421-15.238-13.018-31.821-17.909-36.075a2.832 2.832 0 0 0-3.717 4.275c3.755 3.265 15.073 19.112 16.058 33.207a2.832 2.832 0 1 0 5.65-.391c-.023-.338-.05-.678-.082-1.016z" fill="#fff"/><path d="M797.208 220.323a3.841 3.841 0 0 1-3.821-3.567c-.98-14.035-12.266-29.522-15.716-32.523a3.832 3.832 0 1 1 5.03-5.783c4.59 3.992 16.76 20.782 18.248 36.736q.048.52.084 1.04a3.837 3.837 0 0 1-3.558 4.088 3.902 3.902 0 0 1-.267.009zm-17.021-40.813a1.832 1.832 0 0 0-1.2 3.214c3.6 3.132 15.379 19.279 16.4 33.892a1.832 1.832 0 1 0 3.656-.252c-.023-.33-.05-.661-.081-.991-1.435-15.394-13.15-31.57-17.569-35.413a1.824 1.824 0 0 0-1.206-.45z" fill="#112c41"/><path d="M228.541 100.229a435.858 435.858 0 0 1 47.283 14.726C409.316 164.64 470.4 216.142 669.03 227.156c9.779 42.813 15.218 140.708 15.218 140.708-106.157 5.978-222.944-.173-283.037 2.048-82.949 3.067-153.847 4.632-187.777 9.579z" fill="#ffa9dc"/><path d="M684.248 367.864c-106.154 5.975-222.943-.169-283.037 2.048-82.949 3.067-153.842 4.633-187.779 9.579l-.109-42.911c38.111-2.439 109.24 11.064 189.4 12.058 60.127.743 174.1 12.189 281.118 12.464.266 4.305.407 6.762.407 6.762z" fill="#ff90d8"/><path d="M213.433 380.491a1 1 0 0 1-.143-1.99q.816-.118 1.66-.235a1 1 0 1 1 .272 1.981q-.836.115-1.643.233a1.036 1.036 0 0 1-.146.011z" fill="#112c41"/><path d="M215.084 380.257a1 1 0 0 1-.135-1.991c27.957-3.855 80.176-5.656 140.641-7.742 14.652-.5 29.9-1.031 45.584-1.611 23.436-.867 55.262-.464 92.114 0 55.91.708 125.418 1.587 189.9-1.994-.606-10.385-5.951-98.529-14.972-138.809-148.784-8.341-220.376-39.427-303.236-75.41-27.661-12.013-56.265-24.435-89.5-36.806A436.62 436.62 0 0 0 228.3 101.2a1 1 0 0 1 .481-1.941 438.537 438.537 0 0 1 47.391 14.759c33.29 12.39 61.918 24.823 89.6 36.846 82.826 35.97 154.356 67.034 303.308 75.294a1 1 0 0 1 .92.776c9.686 42.405 15.187 139.9 15.242 140.875a1 1 0 0 1-.942 1.054c-64.837 3.65-134.814 2.765-191.042 2.053-36.826-.466-68.629-.869-92.015 0-15.683.579-30.936 1.106-45.588 1.611-60.411 2.084-112.582 3.883-140.437 7.724a.938.938 0 0 1-.134.006z" fill="#112c41"/><path d="M567.808 293.4 422.2 310.131c-1.72-11.41-5.177-29.281-8.757-45.546-2.438-11.111-4.931-21.464-6.966-28.494 0 0 97.371-10.427 147.381-19.464 1.994 7.388 4.282 18.85 6.418 30.674 3.165 17.554 6 35.93 7.08 43.035.051.333.093.636.137.919.048.374.1.7.144.97.027.212.057.394.078.546.007.05.014.1.022.141.051.314.071.488.071.488z" fill="#ffd6c0"/><path d="M636.423 369.571c-47.62 18.695-112.018 20.378-166.513 12.942a384.965 384.965 0 0 1-44.469-8.634s.238-37.5-4.008-67.8l17.546-1.554s128.493-11.013 128.829-11.125c10.15 4.687 56.418 28.956 68.615 76.171z" fill="#b2b0f7"/><path d="M459.692 381.17c.064.1-7.042-1.2-15.671-3.016-.317-.068-.643-.127-.96-.2-5.4-1.146-11.305-2.471-16.369-3.758-.425-.1-.839-.219-1.254-.323 0 0 .262-34.083-3.242-63.356v-.39l13.918 1.812c2.8 22.2 12.277 51.841 23.447 69.02a2.322 2.322 0 0 0 .131.211z" fill="#9797f7"/><path d="M498.968 388.005a2.5 2.5 0 0 1-2.494-2.371c-.831-16.024-9.062-32.862-22.586-46.2-14.05-13.854-31.647-22.083-49.549-23.172a2.5 2.5 0 1 1 .3-4.99c19.109 1.161 37.845 9.9 52.755 24.6 14.4 14.2 23.175 32.243 24.069 49.5A2.5 2.5 0 0 1 499.1 388q-.066.005-.132.005z" fill="#fff"/><path d="m417.39 216.963 18.116 84.85c-3.7 2.905-10.806 8.611-13.584 10.122-3.014-34-19.135-90.633-19.135-90.633z" fill="#f5b9ab"/><path d="m421.354 311.234-.144-.954c-1.67-11.083-5.1-28.935-8.745-45.48-2.586-11.785-5.053-21.881-6.949-28.431l-.33-1.139 1.179-.132c.983-.111 98.909-11.156 148.315-20.084l1.039-.188.131 1.047c.75 6 2.242 14.065 3.822 22.606.524 2.83 1.06 5.727 1.587 8.645 3.013 16.711 5.732 34.152 7.085 43.062l.136.918c.051.384.1.7.143.962l.1.683c.056.342.078.53.078.53l.117 1-1 .116zm-13.592-74.282c1.86 6.591 4.207 16.254 6.656 27.418 3.549 16.118 6.9 33.482 8.624 44.657l143.626-16.5-.024-.166a30.393 30.393 0 0 1-.144-.971l-.134-.9c-1.351-8.9-4.067-26.321-7.075-43.008-.527-2.915-1.063-5.809-1.586-8.636-1.5-8.086-2.914-15.749-3.705-21.675-46.807 8.371-135.03 18.506-146.238 19.781z" fill="#112c41"/><path d="M529.651 387.606a445.213 445.213 0 0 1-59.875-4.1 421.695 421.695 0 0 1-10.374-1.558 384.28 384.28 0 0 1-15.58-2.816l-.973-.2c-5.582-1.137-11.1-2.4-16.406-3.767-.229-.057-.465-.119-.7-.18l-.551-.142a1 1 0 0 1-.756-.978c0-.34.221-34.357-3.234-63.229-.224-1.829-.458-3.64-.7-5.422a1 1 0 0 1 .959-1.137l17.492-.554c1.213-.1 126.384-10.841 128.7-11.117a1 1 0 0 1 .579.079c9.352 4.318 56.634 28.312 69.166 76.836a1 1 0 0 1-.6 1.181c-28.636 11.24-66.443 17.104-107.147 17.104zm-103.21-14.5c.162.042.325.085.491.125a330.814 330.814 0 0 0 16.329 3.749l.971.2c4.914 1 10.13 1.94 15.49 2.8 3.179.522 6.555 1.029 10.327 1.551 61.488 8.385 123.141 3.688 165.182-12.559-12.773-47.5-61.039-71.485-67.619-74.558-2.609.261-19.21 1.738-128.544 11.114l-16.436.522q.289 2.154.557 4.355c3.18 26.559 3.263 57.431 3.252 62.695z" fill="#112c41"/><path d="M640.7 392.326a4.931 4.931 0 0 1-1.741 4.21C614.429 417.74 491.5 423.89 431.232 404.5c-5.162-1.661-6.346-4.61-6.657-7.919l.866-22.7c60.011 15.61 149.483 19.832 210.982-4.308 2.177 7.709 3.899 15.55 4.277 22.753z" fill="#fff"/><path d="M526.722 417.207c-37.533 0-72.278-4.188-95.8-11.754-5.927-1.907-7.039-5.507-7.346-8.778a.97.97 0 0 1 0-.132l.865-22.7a1 1 0 0 1 1.251-.93c57.785 15.031 148.262 20.106 210.365-4.271a1 1 0 0 1 1.328.659c2.568 9.088 3.979 16.6 4.311 22.975a5.915 5.915 0 0 1-2.086 5.019c-11.679 10.1-46.575 17.547-91.071 19.447-7.334.311-14.628.465-21.817.465zm-101.144-20.654c.307 3.15 1.451 5.546 5.96 7 62.216 20.015 183.529 12.316 206.766-7.769a3.957 3.957 0 0 0 1.4-3.4 102.156 102.156 0 0 0-3.943-21.475c-62.05 23.915-151.55 19.04-209.364 4.255z" fill="#112c41"/><path d="M567.808 293.4c-37.487 12.1-103.14 22.973-145.609 16.734-1.72-11.41-5.177-29.281-8.757-45.546 31.711 1.923 112.309-8.588 146.833-17.288 3.165 17.554 6 35.93 7.08 43.035.051.333.093.636.137.919.059.364.1.688.144.97.027.212.057.394.078.546.007.05.014.1.022.141.052.315.072.489.072.489z" fill="#fff"/><path d="M449.791 312.9a193.613 193.613 0 0 1-27.738-1.781 1 1 0 0 1-.843-.84c-1.67-11.083-5.1-28.935-8.745-45.48a1 1 0 0 1 1.037-1.214c31.192 1.894 111.545-8.441 146.529-17.254a1 1 0 0 1 1.228.792c3.013 16.711 5.732 34.152 7.085 43.062l.136.918c.036.218.066.429.094.624l.13.9.019.119c.056.342.078.53.078.53a1 1 0 0 1-.686 1.07c-31.773 10.26-79.675 18.554-118.324 18.554zm-26.715-3.654c39.978 5.643 104-3.9 143.618-16.542l-.1-.694c-.027-.184-.055-.383-.09-.6l-.138-.928c-1.323-8.713-3.954-25.594-6.886-41.957-35.144 8.665-112.86 18.657-144.78 17.124 3.466 15.862 6.707 32.726 8.376 43.598z" fill="#112c41"/><circle cx="556.605" cy="322.24" fill="#ffe993" r="8.5"/><path d="M558.061 324.807c15.278-.883 31.244-9.9 35.667-14.634a2.832 2.832 0 1 0-4.14-3.865c-3.4 3.637-18.616 12.4-32.737 12.884a2.832 2.832 0 1 0 .191 5.661q.509-.016 1.019-.046z" fill="#fff"/><path d="M556.944 325.855a3.832 3.832 0 0 1-.128-7.662c13.845-.477 28.734-9.025 32.04-12.568a3.833 3.833 0 0 1 5.6 5.231c-4.55 4.874-20.587 14.039-36.341 14.949-.347.02-.7.036-1.042.048zm34.715-19.446a1.831 1.831 0 0 0-1.341.582c-3.475 3.722-19.042 12.705-33.432 13.2a1.832 1.832 0 1 0 .123 3.662c.331-.011.663-.026.994-.045 15.01-.868 30.76-9.782 34.994-14.318a1.831 1.831 0 0 0-1.338-3.082z" fill="#112c41"/><circle cx="574.543" cy="342.259" fill="#ffe993" r="8.5"/><path d="M576.074 344.782c15.246-1.335 31.9-12.838 36.175-17.7a2.832 2.832 0 1 0-4.249-3.746c-3.286 3.736-19.2 14.965-33.3 15.869a2.832 2.832 0 0 0 .359 5.653c.341-.021.676-.047 1.015-.076z" fill="#fff"/><path d="M574.872 345.864a3.832 3.832 0 0 1-.238-7.657c14.041-.9 29.591-12.1 32.611-15.532a3.833 3.833 0 0 1 5.755 5.063c-4.018 4.568-20.876 16.642-36.839 18.04-.347.03-.695.056-1.041.078a4.134 4.134 0 0 1-.248.008zm35.252-22.489a1.83 1.83 0 0 0-1.378.622c-3.151 3.583-19.365 15.268-33.983 16.206a1.832 1.832 0 1 0 .231 3.657q.5-.032.992-.075c15.4-1.348 31.645-12.971 35.512-17.368a1.831 1.831 0 0 0-1.374-3.042z" fill="#112c41"/><path d="M139.857 189c32-105 80.392-147.644 147-175 56-23 153-21 208 46 50.537 61.563 60 159 60 159-31.263 7.815-118.01 17.828-151 21-6.025.579-11.748-5.684-12.494-11.691-4.158-33.46-3.583-60.706-23.506-61.309-33-1-31.03 68.613-55 138-19 55-88 110-214 67" fill="#ffa9dc"/><path d="M58.857 358a140.247 140.247 0 0 0 48 26c46 14 96 8 130-4 34.186-12.066 61.5-34.091 73-66s24-101 28-120c3.059-14.53 8.9-21 22-21 13 0 17.94 10.326 22 28s4.29 29.237 7 33 7.538 6.785 15 6 20-2 20-2-14-8-20-29c-4.868-17.039-5.943-57.052-48-55-41 2-41 63-48 96s-21 70-56 90c-33.906 19.374-74 21-118 16-47.951-5.449-81.842-24.985-112-40 4 7 9.514 15.566 14 20 10.687 10.559 23 22 23 22z" fill="#ff90d8"/><g fill="#112c41"><path d="M257.858 372a1 1 0 0 1-.512-1.86c44.343-26.417 52.752-56.518 59.508-80.7q.525-1.881 1.041-3.709c6.7-23.636 10.453-44.9 13.466-61.978 5.692-32.271 9.128-51.749 25.5-51.749 22.395 0 27.84 28.744 31.5 58.185a10.122 10.122 0 0 0 11.066 8.885c37.307-3.587 123.511-13.343 154.335-20.829-1.259-9.814-13.881-99.667-59.683-157.621-30.658-38.79-73.148-52.143-103.396-56.515-36.584-5.288-75.744-.62-107.436 12.809-63.732 27.006-109.79 65.26-142.433 172.371a1 1 0 1 1-1.913-.583c32.87-107.855 79.3-146.4 143.566-173.629C314.486 1.509 354.035-3.209 390.97 2.13c30.607 4.424 73.612 17.947 104.672 57.248 48.614 61.512 60.1 158.534 60.209 159.507a1 1 0 0 1-.751 1.083c-30.161 7.54-117.78 17.465-155.487 21.091a12.115 12.115 0 0 1-13.243-10.629C382.041 195.59 375.6 174 356.857 174c-14.69 0-18.016 18.856-23.527 50.1-3.021 17.127-6.78 38.442-13.511 62.176q-.516 1.824-1.039 3.7c-6.852 24.53-15.38 55.058-60.411 81.885a1 1 0 0 1-.511.139z"/><path d="M166.928 393.222c-37.63 0-73.738-9.071-95.644-24.4-23.169-16.222-40.975-35.09-52.921-56.08C3.528 286.677-2.36 257.122.862 224.9c3.18-31.8 15.08-59.576 35.371-82.562C51.93 124.553 72.188 110 96.447 99.086c39.838-17.928 87.145-8.167 87.618-8.067a1 1 0 0 1-.416 1.957c-.467-.1-47.152-9.719-86.382 7.933-24 10.8-44.027 25.183-59.535 42.75C17.725 166.325 5.99 193.724 2.852 225.1c-3.18 31.8 2.623 60.958 17.249 86.656 11.8 20.73 29.405 39.378 52.33 55.425 19.852 13.9 52.7 22.824 87.88 23.882 38.78 1.166 74.737-7.149 101.222-23.415a1 1 0 0 1 1.046 1.705c-27.008 16.584-61.941 23.868-95.651 23.869z"/></g></svg></g><g transform="translate(891.0 362.0) rotate(0.0 337.0 235.0) scale(0.9947487890335588 0.9919839256391965)"><svg width="677.558" height="473.798" viewBox="0 0 677.558 473.798"><rect fill="#cbc8ff" height="445.899" rx="34.773" width="647.559" x="28.999" y="26.899"/><path d="M641.785 473.8H63.772A35.814 35.814 0 0 1 28 438.025V61.672A35.813 35.813 0 0 1 63.772 25.9h578.013a35.813 35.813 0 0 1 35.773 35.773v376.352a35.814 35.814 0 0 1-35.773 35.775zM63.772 27.9A33.811 33.811 0 0 0 30 61.672v376.353A33.811 33.811 0 0 0 63.772 471.8h578.013a33.811 33.811 0 0 0 33.773-33.773V61.672A33.811 33.811 0 0 0 641.785 27.9z" fill="#cbc8ff"/><rect fill="#fff" height="445.899" rx="34.773" width="647.559" x="1" y="1"/><path d="M613.786 447.9H35.773A35.814 35.814 0 0 1 0 412.126V35.773A35.814 35.814 0 0 1 35.773 0h578.013a35.814 35.814 0 0 1 35.773 35.773v376.353a35.814 35.814 0 0 1-35.773 35.774zM35.773 2A33.812 33.812 0 0 0 2 35.773v376.353A33.811 33.811 0 0 0 35.773 445.9h578.013a33.811 33.811 0 0 0 33.773-33.773V35.773A33.811 33.811 0 0 0 613.786 2z" fill="#112c41"/><path d="M648.559 35.773V76.7H1V35.773A34.776 34.776 0 0 1 35.773 1h578.013a34.776 34.776 0 0 1 34.773 34.773z" fill="#b2b0f7"/><path d="M649.559 77.7H0V35.773A35.814 35.814 0 0 1 35.773 0h578.013a35.814 35.814 0 0 1 35.773 35.773zM2 75.7h645.559V35.773A33.811 33.811 0 0 0 613.786 2H35.773A33.811 33.811 0 0 0 2 35.773z" fill="#112c41"/><circle cx="45.649" cy="36.187" fill="#dedffe" r="15.672"/><path d="M45.649 52.859a16.672 16.672 0 1 1 16.672-16.672 16.69 16.69 0 0 1-16.672 16.672zm0-31.344a14.672 14.672 0 1 0 14.672 14.672 14.688 14.688 0 0 0-14.672-14.672z" fill="#112c41"/><circle cx="94.142" cy="36.187" fill="#cbc8ff" r="15.672"/><path d="M94.142 52.859a16.672 16.672 0 1 1 16.672-16.672 16.691 16.691 0 0 1-16.672 16.672zm0-31.344a14.672 14.672 0 1 0 14.672 14.672 14.689 14.689 0 0 0-14.672-14.672z" fill="#112c41"/><circle cx="144.409" cy="36.187" fill="#9797f7" r="15.672"/><path d="M144.409 52.859a16.672 16.672 0 1 1 16.672-16.672 16.691 16.691 0 0 1-16.672 16.672zm0-31.344a14.672 14.672 0 1 0 14.672 14.672 14.688 14.688 0 0 0-14.672-14.672z" fill="#112c41"/></svg></g><g transform="translate(1271.0 473.0) rotate(0.0 115.0 135.0) scale(0.9989923207894645 0.9975652019700065)"><svg width="230.232" height="270.659" viewBox="0 0 230.232 270.659"><path d="M84.523 101.305a5 5 0 0 1-4.988-4.733c-.2-3.7-4.348-90.569 39.678-93a29.03 29.03 0 0 1 22.052 8.215c9.792 9.12 16.83 25.629 20.917 49.067a226.664 226.664 0 0 1 3.237 31.925 5 5 0 0 1-10 .161 221.032 221.032 0 0 0-3.115-30.508c-3.655-20.873-9.832-35.857-17.862-43.332a19.125 19.125 0 0 0-14.68-5.543c-28.352 1.567-31.443 60.07-30.241 82.48A5 5 0 0 1 84.8 101.3c-.1 0-.187.005-.277.005z" fill="#112c41"/><circle cx="168.41" cy="101.986" fill="#ffe993" r="4.933"/><circle cx="116.405" cy="101.548" fill="#ffe993" r="4.933"/><path d="M176.132 81.373a1.717 1.717 0 0 0-1.973-1.178c-4.19.817-8.427 1.537-12.679 2.171-52.264 7.8-107.331 2.434-116.924 1.392a1.7 1.7 0 0 0-1.837 1.268C39.259 98.378 12.557 201.651 1.042 253a1.72 1.72 0 0 0 1.158 2.019 299.159 299.159 0 0 0 49.765 10.756c50.325 6.794 104.172 3.768 140.749-2.128 15.374-2.476 27.693-5.462 35.425-8.437a1.719 1.719 0 0 0 1.017-2.113z" fill="#9797f7"/><path d="M112.936 270.687a459.341 459.341 0 0 1-61.106-3.921A300.21 300.21 0 0 1 1.9 255.973a2.705 2.705 0 0 1-1.831-3.19C11.631 201.209 38.7 96.541 41.751 84.776a2.687 2.687 0 0 1 2.913-2.012c10.38 1.127 64.785 6.353 116.669-1.387a290.575 290.575 0 0 0 12.634-2.163 2.715 2.715 0 0 1 3.121 1.864L230.11 252.8a2.725 2.725 0 0 1-1.613 3.341c-7.937 3.054-20.589 6.07-35.625 8.491a522.747 522.747 0 0 1-79.936 6.055zM44.369 84.748a.7.7 0 0 0-.682.529c-3.048 11.762-30.111 116.4-41.669 167.944a.723.723 0 0 0 .482.844 298.146 298.146 0 0 0 49.6 10.719c64.274 8.676 123.756.568 140.456-2.124 14.9-2.4 27.413-5.378 35.224-8.384a.719.719 0 0 0 .421-.884L175.177 81.668a.721.721 0 0 0-.827-.492 291.566 291.566 0 0 1-12.722 2.179c-52.126 7.776-106.758 2.528-117.18 1.4a.713.713 0 0 0-.079-.007z" fill="#112c41"/><path d="M192.713 263.647c-36.577 5.9-90.424 8.922-140.749 2.128A299.159 299.159 0 0 1 2.2 255.019 1.72 1.72 0 0 1 1.042 253C12.557 201.651 39.259 98.378 42.719 85.026a1.7 1.7 0 0 1 1.837-1.268c9.492 1.031 63.5 6.292 115.267-1.149a1.719 1.719 0 0 1 1.942 1.408z" fill="#b2b0f7"/><path d="M112.936 270.687a459.341 459.341 0 0 1-61.106-3.921A300.21 300.21 0 0 1 1.9 255.973a2.705 2.705 0 0 1-1.831-3.19C11.631 201.208 38.7 96.541 41.751 84.776a2.687 2.687 0 0 1 2.913-2.012c10.186 1.106 63.606 6.245 115.017-1.145a2.7 2.7 0 0 1 3.069 2.228l30.95 179.63a1 1 0 0 1-.826 1.157 522.747 522.747 0 0 1-79.938 6.053zM44.369 84.748a.7.7 0 0 0-.682.529c-3.048 11.762-30.111 116.4-41.669 167.944a.723.723 0 0 0 .482.844 298.146 298.146 0 0 0 49.6 10.719c63.054 8.512 121.495.87 139.458-1.965L160.779 84.186a.716.716 0 0 0-.814-.588c-51.648 7.426-105.289 2.265-115.517 1.155a.713.713 0 0 0-.079-.005z" fill="#112c41"/><circle cx="63.177" cy="101.416" fill="#ffe993" r="6.834"/><circle cx="146.124" cy="99.651" fill="#ffe993" r="6.834"/><path d="M62.784 104.425a5 5 0 0 1-5-4.905C57.711 95.5 56.476.98 104.158.007c8.94-.187 16.812 3.07 23.419 9.665C151.664 33.719 150.782 96 150.733 98.637a5 5 0 0 1-10-.186c.011-.6.857-60.667-20.229-81.706a21.331 21.331 0 0 0-16.144-6.74c-19.053.389-28.005 23.911-32.16 43.575a232.6 232.6 0 0 0-4.415 45.751 5 5 0 0 1-4.9 5.093z" fill="#112c41"/></svg></g><g transform="translate(199.0 512.0) rotate(0.0 453.5 417.5) scale(0.999322399916264 0.9995881936064662)"><svg width="907.615" height="835.344" viewBox="0 0 907.615 835.344"><path d="M883.469 114.648c-15.589 21.577-8.953 45.8-22.953 110.8a460.983 460.983 0 0 1-21 68c-21.155 51.945-56.51 94.214-102 119-37.725 20.56-65 27.788-99.47 28.618a289.179 289.179 0 0 1-36.716-1.726l-5.2-44.7-5.476-12.45s4.657-77 36.257-77.714c32.132-.72 53.46-4.914 84.934-40.09 33.97-37.952 50.545-97.508 64.326-136.785s28.654-77.644 55.141-108.957 41.854-15.534 41.355 2.576c22.18-10.888 27.492 4.733 23.26 26.156 23.173 1.079 3.728 44.85-12.458 67.272z" fill="#ffd6c0"/><path d="M855.061 63.824a1 1 0 0 1-.8-1.594c12.6-17.075 15.954-23.341 17.413-41.094a1 1 0 1 1 1.993.164c-1.5 18.263-4.929 24.678-17.8 42.118a1 1 0 0 1-.806.406z" fill="#112c41"/><path d="M882.3 89.651a1 1 0 0 1-.94-.658c-5.522-15.155-22.642-29.486-48.473-27.331a1 1 0 0 1-.166-1.993 56.259 56.259 0 0 1 29.451 5.468 41.624 41.624 0 0 1 21.067 23.171 1 1 0 0 1-.939 1.343z" fill="#112c41"/><path d="M877.4 79.021a1 1 0 0 1-.653-1.757c10.147-8.757 16.054-21.3 18.2-30.124a1 1 0 0 1 1.944.473c-1.077 4.426-5.617 19.756-18.837 31.165a1 1 0 0 1-.654.243z" fill="#112c41"/><path d="M800.918 99.448s40.362-38.009 53.148-24.5c13.2 13.951-8.968 36.872-19.431 43.765 4.65 7.64 2.159 25.91-6.228 33.634" fill="#ffd6c0"/><path d="M828.408 153.348a1 1 0 0 1-.678-1.736c8.188-7.541 10.423-25.194 6.05-32.378a1 1 0 0 1 .3-1.355c8.46-5.573 21.605-19.229 22.948-30.839a13.607 13.607 0 0 0-3.692-11.4c-6.123-6.469-19.732.408-30.07 7.316a192.06 192.06 0 0 0-21.666 17.22 1 1 0 1 1-1.371-1.456c1.678-1.579 41.242-38.532 54.56-24.459a15.526 15.526 0 0 1 4.227 13.009c-.837 7.234-5.658 14.373-9.555 19.088a72.03 72.03 0 0 1-13.513 12.672c4.21 8.348 1.789 26.083-6.867 34.053a.994.994 0 0 1-.673.265zm-4.273 32.204c-3.375 0-6.766-.058-10.148-.175-18.836-.651-36.5-2.937-49.732-6.434-9.664-2.555-21.14-6.887-20.927-13.02.165-4.759 10.985-10.175 23.155-11.592a1 1 0 1 1 .231 1.987c-12.262 1.427-21.287 6.769-21.387 9.674-.127 3.648 7.141 7.766 19.44 11.017 13.093 3.461 30.6 5.723 49.289 6.369 41.424 1.433 69.517-5.355 69.767-12.595.122-3.522-4.12-6.679-12.61-9.383a1 1 0 0 1 .607-1.906c9.581 3.052 14.161 6.767 14 11.358-.33 9.608-30.112 14.7-61.685 14.7zM860.9 232.65c-14.414 0-35.834-4.1-56.15-10.305-18.026-5.5-34.494-12.285-46.371-19.089-8.673-4.969-18.637-12.124-16.844-17.994 1.127-3.688 6.482-5.632 15.916-5.776a1.026 1.026 0 0 1 1.015.985 1 1 0 0 1-.985 1.015c-8.109.124-13.225 1.713-14.033 4.36-1.066 3.491 4.887 9.351 15.925 15.675 11.751 6.732 28.074 13.448 45.961 18.911 39.639 12.108 68.533 12.823 70.649 5.9.951-3.114-2.4-9.144-11.992-15.027a1 1 0 1 1 1.045-1.705c9.286 5.693 14.334 12.49 12.86 17.316-1.221 4.003-7.629 5.734-16.996 5.734z" fill="#112c41"/><path d="M840.516 291.447c-21 59-60 99-108 123-38.428 19.214-66.525 26.869-101 27l6.258-27.156s32.717 5.642 78.742-13.844c50.858-21.531 89.351-50.023 124-109z" fill="#f5b9ab"/><path d="M632.774 442.337a308.223 308.223 0 0 1-31.522-1.8 1 1 0 0 1-.891-.879l-5.186-44.549-5.415-12.309a.985.985 0 0 1-.083-.463c.192-3.182 5.082-77.933 37.233-78.653 29.981-.672 52.04-3.8 84.211-39.757 29.063-32.47 45.17-80.342 58.111-118.808 2.1-6.233 4.079-12.12 6.016-17.642 13.878-39.524 28.552-77.622 55.321-109.27 7.1-8.4 20.768-21.81 32.506-17.327 6.354 2.427 10.425 9.778 10.618 18.967 8.232-3.742 14.578-3.968 18.876-.668 5.458 4.189 7.07 13.93 4.572 27.5 4.279.475 7.294 2.473 8.972 5.95 6.432 13.333-9.211 45.365-21.808 62.817-8.594 11.895-10.329 26.55-12.956 48.733-2.125 17.946-4.769 40.281-11.858 70.5-9.534 40.645-23.666 75.866-42 104.683-18.561 29.167-41.593 52.028-68.459 67.948C712.4 429.014 673 441.431 638.1 442.272q-2.62.065-5.326.065zm-30.519-3.7a286.323 286.323 0 0 0 35.791 1.64c34.57-.833 73.622-13.152 109.961-34.686 26.592-15.759 49.4-38.4 67.791-67.3 18.217-28.627 32.263-63.64 41.745-104.066 7.063-30.111 9.7-52.384 11.819-70.28 2.663-22.494 4.423-37.354 13.321-49.669 12.8-17.736 27.443-48.725 21.629-60.777-1.5-3.111-4.252-4.717-8.41-4.91a1 1 0 0 1-.934-1.193c2.6-13.161 1.281-22.865-3.616-26.625-3.893-2.989-10.024-2.464-18.224 1.561a1 1 0 0 1-1.439-.925c.25-9.072-3.412-16.393-9.328-18.653-7.845-3-18.593 2.953-30.264 16.75-26.551 31.389-41.149 69.3-54.962 108.643-1.933 5.509-3.912 11.39-6.007 17.617-13 38.639-29.18 86.727-58.516 119.5-32.712 36.553-55.152 39.736-85.657 40.42-29.467.661-34.939 71.825-35.266 76.536l5.377 12.226a.987.987 0 0 1 .079.287z" fill="#112c41"/><path d="M631.516 441.447s-60.35 5.58-81-3-200.37 77.22-200.37 77.22l-18.46-22.92-12.17 26.7s-30.07 4.75-77-7c-49.08-12.3-87-23-75-55 11.78-31.4 49-117 189-157 .03-.01.43-.13 1.04-.3.44-.13.98-.28 1.56-.45 1.96-.56 4.32-1.23 4.4-1.25 3.47-1.07 8.52-1.62 12.99-2.3 1.42-.21 2.78-.44 4.01-.7a459.569 459.569 0 0 1 55.47-8.27c1.16-.1 2.31-.2 3.44-.29 1.74-.15 3.43-.3 5.09-.44 3.01-.26 6.01-.5 8.97-.73 88.59-6.88 156.16-.95 190.03 8.73 4.68 1.34 4.43 8.16 5 13 7 59-17 134-17 134z" fill="#ffe993"/><path d="M285.516 328.447s-26.25 26.582-59 68c-34 43-42.329 73.552-42.329 73.552l4.329 28.448s-27-15-23-35c3.355-16.773 33-89 120-135z" fill="#ffd169"/><path d="M240.072 516.443c-39.742-15.477-68.936-38.219-64.831-48.672 4.278-10.9 46.616-5.183 80.275 8.676" fill="#112c41"/><path d="M240.072 517.443a1.01 1.01 0 0 1-.363-.068c-32.081-12.494-59.355-30.676-64.852-43.233-1.116-2.551-1.3-4.818-.547-6.737a8.2 8.2 0 0 1 4.768-4.319c12.413-5.293 47.592.4 76.819 12.436a1 1 0 0 1-.761 1.85c-28.807-11.861-63.278-17.561-75.274-12.446a6.315 6.315 0 0 0-3.69 3.21 6.8 6.8 0 0 0 .518 5.2c5.218 11.921 32.623 30.051 63.745 42.171a1 1 0 0 1-.363 1.932z" fill="#112c41"/><path d="M330.516 496.447c34 42 84 65 131.836 63.169C551.6 556.2 605 489.464 602.2 409.156a144.168 144.168 0 0 0-2.777-23.559" fill="#ffe993"/><path d="M330.516 496.447c-1.9-2.53 11-19 12-19 0 0 16 27 58 53 56.6 35.041 123 15 123 15s-33.111 15.193-64.162 14.273-58.028-7.128-88.838-27.273c-26-17-37-32-40-36z" fill="#ffd169"/><path d="M292.9 523.331a219.224 219.224 0 0 1-52.627-6.914c-32.452-8.128-63.764-18.2-73.058-36.688-3.888-7.735-3.761-16.706.378-26.666C189.106 401.3 248.734 311.2 406.38 289.457c132.749-18.311 218.249-.612 234.041 3.122a11.316 11.316 0 0 1 8.576 10.2c6.46 77.916-16.316 138.428-16.547 139.03a1 1 0 0 1-.88.641c-.1 0-10.238.539-31.031 1a1 1 0 0 1-.045-2c17.794-.395 27.765-.842 30.312-.966 2.356-6.513 22.273-64.27 16.2-137.54a9.319 9.319 0 0 0-7.043-8.415c-15.731-3.72-100.911-21.35-233.308-3.088-156.661 21.605-215.866 111.016-237.215 162.39-3.96 9.53-4.1 17.707-.438 25 8.932 17.77 39.767 27.634 71.757 35.646 46.158 11.561 73.678 4.956 73.95 4.888a1 1 0 1 1 .485 1.94c-4.183 1.045-11.868 2.026-22.294 2.026z" fill="#112c41"/><path d="M460 560.744c-49.73 0-98.272-23.682-130.264-63.672a1 1 0 1 1 1.561-1.25c32.111 40.139 81.11 63.651 131.022 62.9 38.729-.582 74.1-15.663 99.6-42.464 26.744-28.111 40.688-66.1 39.264-106.962a143.584 143.584 0 0 0-2.757-23.395 1 1 0 0 1 1.961-.4 145.7 145.7 0 0 1 2.795 23.723c1.443 41.4-12.7 79.906-39.814 108.409-25.871 27.194-61.746 42.5-101.017 43.085-.782.02-1.571.026-2.351.026z" fill="#112c41"/><path d="M188.516 462.447s30.272-2.828 68 10c50 17 65.5 37.367 66 38s-47.294 98.26-76 150-50.82 74.086-53 96c-1.6 16.045 12 57-2 63-11.106 4.76-18.729-3.754-30-14-11-10-18-17-47 3-33.791 23.3-99 43-94.114 3.963-19.994.5-24.471-18.389-13.727-28.663-12.45-17.692 6.066-37.164 54.7-52.395s69.558-97.783 95.685-172.466 31.456-96.439 31.456-96.439z" fill="#ffd6c0"/><path d="M189.516 463.447s15.075-.378 23 0c-11.337 29.873-16.706 46.472-38.363 100.035-28.474 70.418-51.327 119.193-81.637 146.965 15-21 23.836-36.809 36-70 15.912-43.415 28.464-77.879 35.111-97.706 12.173-36.319 25.889-79.294 25.889-79.294z" fill="#f5b9ab"/><g fill="#112c41"><path d="M44.024 835.334c-6.651 0-12.162-1.18-16.23-3.544-6.234-3.621-9.085-9.8-8.483-18.37-12.373-.106-16.744-7.343-18.065-10.52-2.63-6.324-.962-13.965 4.136-19.274C1.835 778.236 1 772.671 2.9 767.072c4.582-13.509 24.7-26.19 58.175-36.674 41.585-13.024 62.512-75.365 84.667-141.367 3.366-10.028 6.846-20.4 10.372-30.475 25.8-73.736 31.379-96.13 31.432-96.347a1 1 0 0 1 .93-.761c.34-.015 34.365-1.3 67.341 9.045 47.459 14.889 64.491 35.309 67.423 39.252l.061.081c.52.653.587.737-7.041 16.7-5.026 10.515-11.561 23.9-18.4 37.7-10.665 21.509-31.014 62.026-47.466 91.71-11.38 20.532-22.383 37.216-31.224 50.622-13.6 20.62-23.425 35.518-24.655 48.984-.483 5.294.6 13.511 1.748 22.21 2.326 17.628 4.962 37.609-4.269 42.579-11.066 5.958-18.76-1.743-30.409-13.4l-.773-.773c-13.137-13.136-21.155-14.422-45.712 3.107A160.15 160.15 0 0 1 68.884 831.3c-9.341 2.686-17.752 4.034-24.86 4.034zM20.4 811.41a1 1 0 0 1 .995 1.1c-.848 8.3 1.642 14.2 7.4 17.549 7.939 4.613 21.978 4.369 39.531-.688a158.065 158.065 0 0 0 45.605-21.74c24-17.133 33.48-17.7 48.288-2.893l.774.773c11.407 11.415 18.292 18.3 28.045 13.054 8.017-4.317 5.477-23.57 3.235-40.557-1.162-8.813-2.26-17.137-1.756-22.654 1.275-13.966 11.217-29.04 24.976-49.9 8.823-13.377 19.8-30.025 31.145-50.491 28.474-51.375 70.1-137.524 72.772-144.316-3.433-4.482-20.408-23.88-66.2-38.245-29.963-9.4-60.8-9.1-65.92-8.977-1.161 4.4-8 29.2-31.3 95.793-3.522 10.066-7 20.429-10.364 30.45-22.322 66.5-43.406 129.311-85.966 142.64C29.3 742.445 9.1 755.02 4.793 767.714c-1.765 5.2-.856 10.4 2.7 15.458a1 1 0 0 1-.127 1.3c-4.972 4.754-6.689 11.852-4.273 17.661 2.541 6.11 8.838 9.494 17.284 9.28zm301.3-300.38.03.04z"/><path d="M20.4 813.411a1.141 1.141 0 0 1-.141-.01 1 1 0 0 1-.85-1.13c1.648-11.7 17.033-21.836 39.2-25.82a1 1 0 0 1 .354 1.969c-20.97 3.769-36.068 13.466-37.57 24.13a1 1 0 0 1-.993.861zM6.675 784.747a1 1 0 0 1-.725-1.689c3.858-4.057 18.005-17.506 38.1-20.253a1 1 0 1 1 .271 1.981c-19.45 2.659-33.177 15.714-36.921 19.65a1 1 0 0 1-.725.311zm311.841-264.3a1 1 0 0 1-.9-1.429c.779-1.64 19.189-40.271 29.2-50.278a1 1 0 0 1 1.414 1.414c-9.764 9.764-28.614 49.324-28.8 49.722a1 1 0 0 1-.914.571zm100.73-202.78c-21.5 2.95-37.42-5.16-41.91-16.45a15.885 15.885 0 0 1-.83-5.07c1.42-.21 2.78-.44 4.01-.7a459.569 459.569 0 0 1 55.47-8.27c1.16-.1 2.31-.2 3.44-.29 1.74-.15 3.43-.3 5.09-.44 3.01-.26 6.01-.5 8.97-.73a12.708 12.708 0 0 1 1.7 4.82c1.65 12.04-14.44 24.18-35.94 27.13z"/><path d="M410.733 319.258c-16.443 0-29.97-6.719-34.326-17.671a17.145 17.145 0 0 1-.9-5.409 1 1 0 0 1 .853-1.02 65.938 65.938 0 0 0 3.95-.689 458.328 458.328 0 0 1 55.59-8.288l.257-.022c1.075-.093 2.141-.185 3.19-.269l5.085-.439c3.011-.26 6.014-.5 8.977-.731a1 1 0 0 1 .937.487 13.723 13.723 0 0 1 1.832 5.2c1.72 12.558-14.786 25.234-36.8 28.254a63.736 63.736 0 0 1-8.645.597zM377.549 297a13.215 13.215 0 0 0 .715 3.843c4.761 11.971 21.558 18.481 40.846 15.833 20.918-2.87 36.657-14.535 35.086-26a11.648 11.648 0 0 0-1.268-3.909c-2.751.214-5.534.438-8.325.679l-5.091.44c-1.051.084-2.112.176-3.183.268l-.257.022a456.607 456.607 0 0 0-55.347 8.252c-.932.194-1.977.383-3.176.572z"/></g></svg></g><g transform="translate(1007.0 500.0) rotate(0.0 96.0 58.0) scale(1.004904141565871 1.004207282234188)"><svg width="191.063" height="115.514" viewBox="0 0 191.063 115.514"><rect fill="#ffd169" height="113.4" rx="9.483" width="189" x="1.032" y="1.057"/><g fill="#112c41"><path d="M10.546 115.514A10.493 10.493 0 0 1 .064 105.039L0 10.6A10.483 10.483 0 0 1 10.476.114L180.51 0h.008A10.482 10.482 0 0 1 191 10.475l.063 94.435a10.482 10.482 0 0 1-10.475 10.49l-170.035.114zM180.518 2h-.006l-170.035.114A8.484 8.484 0 0 0 2 10.6l.064 94.435a8.481 8.481 0 0 0 8.482 8.477h.006l170.034-.114a8.483 8.483 0 0 0 8.477-8.488L189 10.477A8.492 8.492 0 0 0 180.518 2z"/><path d="M1.016 21.457h189v27h-189z"/><path d="M1.025 49.521a1 1 0 0 1-1-1l-.018-27a1 1 0 0 1 1-1l189-.127a1 1 0 0 1 1 1l.018 27a1 1 0 0 1-1 1l-189 .127zm.983-27 .017 25 187-.126-.017-25z"/></g><circle cx="161.983" cy="82.592" fill="#fcaa51" r="16"/><path d="M162 99.593c-.2 0-.393 0-.591-.01a16.981 16.981 0 1 1 .591.01zm-.022-32a15 15 0 1 0 15 15.508 15 15 0 0 0-14.483-15.5c-.176-.001-.348-.009-.519-.009z" fill="#112c41"/><circle cx="139.72" cy="84.169" fill="#ffe993" r="16"/><path d="M139.719 101.169a17 17 0 0 1-.019-34h.02a17 17 0 0 1 17 16.981 17 17 0 0 1-16.981 17.019zm0-32h-.019a15 15 0 0 0 .016 30h.017a15 15 0 0 0 14.987-15.017 15 15 0 0 0-15-14.983z" fill="#112c41"/></svg></g><g transform="translate(1231.0 656.0) rotate(0.0 54.0 54.0) scale(1.0034004125090585 1.0034004125090585)"><svg width="107.634" height="107.634" viewBox="0 0 107.634 107.634"><circle cx="53.817" cy="53.817" fill="#ffa9dc" r="52.807"/><path d="M53.9 107.649a54.017 54.017 0 0 1-14.8-2.079 53.807 53.807 0 1 1 61.732-77.936A53.849 53.849 0 0 1 53.9 107.649zm-.171-105.63a51.8 51.8 0 1 0 .175 103.6 51.8 51.8 0 1 0-.175-103.6z" fill="#112c41"/><path d="M44.407 81.06h-.086a5 5 0 0 1-4.221-2.455l-16.66-28.18a5 5 0 1 1 8.608-5.09l12.524 21.18 22.861-35.781a5 5 0 1 1 8.426 5.384L48.621 78.752a5 5 0 0 1-4.214 2.308z" fill="#fff"/></svg></g><g transform="translate(1117.0 642.0) rotate(0.0 23.5 23.5) scale(0.9504934476621906 0.9497251859036534)"><svg width="49.448" height="49.488" viewBox="0 0 49.448 49.488"><g fill="#cbc8ff"><path d="M25.458 1.616c2.318 10.152 12.587 20.537 22.364 22.713a.422.422 0 0 1 0 .83c-9.777 2.176-20.046 12.561-22.364 22.713a.416.416 0 0 1-.818-.012c-2.05-9.942-12.693-20.48-23.023-22.707a.417.417 0 0 1 0-.818C11.947 22.107 22.59 11.57 24.64 1.628a.416.416 0 0 1 .818-.012z"/><path d="M25.052 49.488h-.019a1.7 1.7 0 0 1-1.648-1.369c-1.95-9.456-12.249-19.6-22.039-21.713a1.7 1.7 0 0 1 0-3.325c9.791-2.11 20.09-12.256 22.04-21.712a1.7 1.7 0 0 1 3.322-.039c2.215 9.7 12.012 19.66 21.393 21.748a1.7 1.7 0 0 1 0 3.332c-9.382 2.09-19.179 12.047-21.394 21.747a1.691 1.691 0 0 1-1.655 1.331zM4.846 24.744c8.816 3.114 17.187 11.367 20.228 19.937 3.148-8.6 11.281-16.854 19.648-19.937-8.367-3.083-16.5-11.335-19.648-19.938-3.041 8.57-11.412 16.823-20.228 19.938z"/></g></svg></g><g transform="translate(927.0 466.0) rotate(0.0 24.0 24.0) scale(0.970716712506067 0.9699321047526673)"><svg width="49.448" height="49.488" viewBox="0 0 49.448 49.488"><path d="M25.458 1.616c2.318 10.152 12.587 20.537 22.364 22.713a.422.422 0 0 1 0 .83c-9.777 2.176-20.046 12.561-22.364 22.713a.416.416 0 0 1-.818-.012c-2.05-9.942-12.693-20.48-23.023-22.707a.417.417 0 0 1 0-.818C11.947 22.107 22.59 11.57 24.64 1.628a.416.416 0 0 1 .818-.012z" fill="#fff"/><path d="M25.052 49.488h-.018a1.7 1.7 0 0 1-1.649-1.368c-1.95-9.457-12.249-19.6-22.038-21.714a1.7 1.7 0 0 1 0-3.324c9.789-2.111 20.088-12.257 22.038-21.713a1.7 1.7 0 0 1 3.322-.039c2.216 9.7 12.012 19.659 21.394 21.747a1.7 1.7 0 0 1 0 3.332C38.72 28.5 28.923 38.457 26.707 48.157a1.691 1.691 0 0 1-1.655 1.331zM4.846 24.744c8.816 3.114 17.187 11.367 20.228 19.937 3.148-8.6 11.281-16.854 19.648-19.937-8.367-3.083-16.5-11.335-19.648-19.937-3.041 8.569-11.411 16.822-20.228 19.937z" fill="#cbc8ff"/></svg></g><g transform="translate(997.0 582.0) rotate(0.0 30.5 42.5) scale(1.029918281893699 1.0327691578678784)"><svg width="59.228" height="82.303" viewBox="0 0 59.228 82.303"><path d="M1 28.4s40.362-38 53.148-24.5c13.2 13.951-8.967 36.872-19.431 43.765 4.651 7.645 2.16 25.915-6.227 33.635" fill="#ffd6c0"/><path d="M28.49 82.3a1 1 0 0 1-.678-1.735C36 73.027 38.236 55.373 33.863 48.19a1 1 0 0 1 .3-1.356c8.46-5.573 21.6-19.228 22.947-30.839a13.6 13.6 0 0 0-3.692-11.4C47.3-1.878 33.691 5 23.352 11.907A192.006 192.006 0 0 0 1.685 29.132a1 1 0 0 1-1.371-1.456C1.992 26.1 41.557-10.856 54.875 3.216A15.526 15.526 0 0 1 59.1 16.225c-.837 7.234-5.657 14.374-9.554 19.089a71.985 71.985 0 0 1-13.512 12.671c4.21 8.349 1.788 26.084-6.867 34.054a1 1 0 0 1-.677.261z" fill="#112c41"/></svg></g><g transform="translate(374.0 469.0) rotate(18.628196689117775 174.5 150.5) scale(1.0044437281267269 1.0041935925109178)"><svg width="347.456" height="299.743" viewBox="0 0 347.456 299.743"><circle cx="313.794" cy="133.433" fill="#ffd6c0" r="28.57"/><path d="M321.584 160.92a28.567 28.567 0 0 0 20.071-33.809 28.572 28.572 0 0 1-55.89 4.64q-.2-.739-.37-1.478a28.59 28.59 0 0 0 36.189 30.647z" fill="#f5b9ab"/><path d="M313.817 163a29.653 29.653 0 0 1-15.5-4.365 1 1 0 0 1 1.047-1.705 27.568 27.568 0 1 0-12.594-18.009 1 1 0 0 1-1.959.4 29.678 29.678 0 0 1 20.92-34.335A29.569 29.569 0 1 1 313.817 163z" fill="#112c41"/><path d="M302.546 145.26a1 1 0 0 1-.823-.429 18.122 18.122 0 0 1 4.192-25.247 17.645 17.645 0 0 1 15.229-2.366 1 1 0 0 1-.574 1.916 15.646 15.646 0 0 0-13.513 2.092 16.118 16.118 0 0 0-3.691 22.463 1 1 0 0 1-.82 1.571z" fill="#112c41"/><circle cx="226.446" cy="196.341" fill="#ffd6c0" r="102.5"/><path d="M155.917 122.373c.249-.239.507-.463.758-.7l13.467 4.366c-38.4 37.156-40.885 96.151-4.388 134.091 36.563 38.009 98.4 40.494 137.007 3.356a98.234 98.234 0 0 0 10.412-11.736 102.51 102.51 0 1 1-157.256-129.377z" fill="#f5b9ab"/><path d="M227 299.694a103.45 103.45 0 1 1 71.733-28.86A103.206 103.206 0 0 1 227 299.694zm-73.173-33.084a101.5 101.5 0 1 0 2.783-143.516 101.616 101.616 0 0 0-2.783 143.516z" fill="#112c41"/><ellipse cx="205.228" cy="188.111" fill="#112c41" rx="6.828" ry="9.104" transform="matrix(.72068422 -.69326348 .69326348 .72068422 -73.087 194.819)"/><ellipse cx="181.282" cy="169.093" fill="#112c41" rx="14.13" ry="9.336" transform="matrix(.61176177 -.79104205 .79104205 .61176177 -63.379 209.051)"/><ellipse cx="287.714" cy="168.082" fill="#ffa6e0" rx="12.121" ry="8.009" transform="matrix(.64400347 -.76502257 .76502257 .64400347 -26.161 279.944)"/><ellipse cx="208.206" cy="216.799" fill="#ffa6e0" rx="12.121" ry="8.009" transform="matrix(.95320122 -.30233662 .30233662 .95320122 -55.802 73.094)"/><g fill="#112c41"><ellipse cx="256.241" cy="121.518" rx="13.016" ry="8.6" transform="matrix(.98691207 -.16125933 .16125933 .98691207 -16.242 42.911)"/><path d="M257.99 114.772c4.816 0 8.653 2.09 9.124 4.969.348 2.135-1.207 3.94-2.165 4.825a14.849 14.849 0 0 1-7.643 3.465 17.461 17.461 0 0 1-2.813.232c-4.816 0-8.654-2.09-9.124-4.969-.349-2.135 1.207-3.939 2.165-4.825a14.846 14.846 0 0 1 7.643-3.469 17.566 17.566 0 0 1 2.813-.232m0-2a19.623 19.623 0 0 0-3.135.258c-7.094 1.159-12.225 5.9-11.459 10.587.651 3.983 5.348 6.646 11.1 6.646a19.489 19.489 0 0 0 3.135-.258c7.1-1.159 12.225-5.9 11.459-10.586-.65-3.983-5.348-6.647-11.1-6.647z"/><ellipse cx="263.428" cy="150.022" rx="6.828" ry="9.104" transform="matrix(.92030014 -.39121305 .39121305 .92030014 -37.695 115.014)"/><path d="M228.417 192.649c8.063 9.545 19.732 13.193 27.651 8.089s9.418-17.237 4.056-28.523z"/><path d="M247.916 204.046c-6.836 0-14.4-3.816-20.263-10.752a1 1 0 0 1 .222-1.486l31.707-20.434a1 1 0 0 1 1.445.412c5.68 11.953 3.822 24.483-4.417 29.792a15.868 15.868 0 0 1-8.694 2.468zm-17.986-11.184c7.824 8.674 18.447 11.643 25.6 7.035s8.834-15.507 4.167-26.215z"/></g><path d="M260.9 194.544c-4.822-1.935-11.112-.562-15.747 3.895a17.791 17.791 0 0 0-2.953 3.71c4.947 1.51 9.885 1.158 13.872-1.411a14.684 14.684 0 0 0 5.25-6.014q-.213-.094-.422-.18z" fill="#ffa6e0"/><path d="M247.921 204.04a20.637 20.637 0 0 1-6.017-.934 1 1 0 0 1-.567-1.467 18.67 18.67 0 0 1 3.119-3.92c4.761-4.579 11.52-6.229 16.812-4.1h.005q.229.093.453.193a1 1 0 0 1 .492 1.35 15.6 15.6 0 0 1-5.609 6.417 15.868 15.868 0 0 1-8.688 2.461zm-4.137-2.5a15.024 15.024 0 0 0 11.742-1.646 13.427 13.427 0 0 0 4.383-4.649c-4.482-1.478-10.05.047-14.066 3.912a16.9 16.9 0 0 0-2.059 2.386z" fill="#112c41"/><circle cx="130.328" cy="256.606" fill="#ffd6c0" r="30.5"/><path d="M160.894 255.092a33.246 33.246 0 0 1-2.955 7.019c-8.024 14.817-27 19.952-41.808 11.933-9.718-5.259-14.734-14.706-15.242-24.981-3.528 13.289 1.631 27.416 14.266 34.261a30.493 30.493 0 0 0 41.345-12.291c2.76-5.09 4.671-10.541 4.394-15.941z" fill="#f5b9ab"/><path d="M130.345 288.106c-.209 0-.417 0-.627-.006a31.5 31.5 0 0 1-21.228-54.2 31.618 31.618 0 0 1 42.824-.792 1 1 0 0 1-1.334 1.491 29.606 29.606 0 0 0-40.1.743 29.5 29.5 0 1 0 40.9 42.52 31.456 31.456 0 0 0 9.115-22.753 1 1 0 0 1 2-.043 33.52 33.52 0 0 1-9.728 24.238 31.286 31.286 0 0 1-21.822 8.802z" fill="#112c41"/><path d="M113.915 260.325a1 1 0 0 1-1-.982 18.676 18.676 0 0 1 20.826-19.038 19.639 19.639 0 0 1 13.046 7.109 1 1 0 0 1-1.545 1.272 17.643 17.643 0 0 0-11.721-6.393 16.678 16.678 0 0 0-18.606 17.015 1 1 0 0 1-.983 1.017z" fill="#112c41"/><path d="M116.179 139.982a104.786 104.786 0 0 1 10.347-19.834 108.554 108.554 0 0 1 13.557-16.548c30.324-30.385 73.906-38.744 109.335-24.349a88.937 88.937 0 0 1 26.588 16.739c1.6 1.464.5 3.229-1.195 3.354-17.081 1.261-45.442 10.938-64.12 20.7-12.461 6.512-24.387 15.38-35.909 25.459q-7.269 6.358-13.747 13.111a63.913 63.913 0 0 1-11.53-25.056c-1.708 10.215-.23 22.976 3.071 34.471-13.549 16.058-24.416 33.839-30.892 50.6-.536 1.385-2.243 1.978-3.129.143-11.712-24.237-12.536-52.872-2.376-78.79z" fill="#b2b0f7"/><path d="M121.487 219.133c2.448-6.416 8.485-18.3 12.014-24.739-10.389-21.658-13.911-55.679 4.136-82.793a98.047 98.047 0 0 1 22.6-23.909 109.117 109.117 0 0 0-33.718 32.455c-20.285 30.489-23.019 68.548-7.729 99.108a1.477 1.477 0 0 0 2.697-.122z" fill="#9797f7"/><path d="M120.044 220.918a2.7 2.7 0 0 1-2.39-1.715c-11.791-24.4-12.668-53.406-2.406-79.587a106.068 106.068 0 0 1 10.446-20.022 109.871 109.871 0 0 1 13.681-16.7 106.771 106.771 0 0 1 53.252-29.239 97.235 97.235 0 0 1 57.173 4.67 89.9 89.9 0 0 1 26.886 16.926 2.9 2.9 0 0 1 .963 3.11 3.091 3.091 0 0 1-2.758 1.981c-17.737 1.309-46.332 11.5-63.732 20.588-11.3 5.9-22.981 14.187-35.714 25.324a219.196 219.196 0 0 0-13.684 13.052 1.015 1.015 0 0 1-.784.3 1 1 0 0 1-.739-.4A66.874 66.874 0 0 1 149.9 139.1a88.366 88.366 0 0 0 3.637 28.653 1 1 0 0 1-.2.921c-13.421 15.907-24.333 33.774-30.725 50.312a2.869 2.869 0 0 1-2.474 1.932h-.094zm93.863-147.536a99.744 99.744 0 0 0-20.861 2.229 104.786 104.786 0 0 0-52.255 28.7 108.014 108.014 0 0 0-13.433 16.389 104.115 104.115 0 0 0-10.249 19.646c-10.058 25.663-9.2 54.088 2.346 77.985.086.178.313.586.594.586h.011a.944.944 0 0 0 .691-.655c6.415-16.6 17.314-34.5 30.718-50.473-3.472-12.328-4.548-24.837-2.951-34.4a1 1 0 0 1 .967-.835h.02a1 1 0 0 1 .979.8 62.887 62.887 0 0 0 10.656 23.71 222.508 222.508 0 0 1 12.984-12.317c12.853-11.242 24.663-19.613 36.1-25.592 17.579-9.186 46.516-19.481 64.51-20.808a1.142 1.142 0 0 0 1.017-.641c.129-.373-.159-.738-.423-.979a87.911 87.911 0 0 0-26.289-16.549 93.136 93.136 0 0 0-35.132-6.796z" fill="#112c41"/><circle cx="151.717" cy="281.49" fill="#fff" r="11.5"/><path d="M151.69 293.994a12.5 12.5 0 0 1-12.268-10.256 12.474 12.474 0 1 1 12.268 10.256zm.049-23.007a10.671 10.671 0 0 0-1.911.174 10.514 10.514 0 0 0-8.44 12.218 10.5 10.5 0 1 0 10.351-12.392z" fill="#112c41"/><circle cx="334.954" cy="160.56" fill="#fff" r="11.5"/><path d="M334.928 173.064a12.508 12.508 0 0 1-12.27-10.256 12.5 12.5 0 1 1 14.542 10.048 12.715 12.715 0 0 1-2.272.208zm-10.3-10.616a10.5 10.5 0 1 0 8.44-12.217 10.432 10.432 0 0 0-8.44 12.217zM59.964 133.784q-1.794 0-3.585-.092c-16.968-.875-32.062-7.912-42.5-19.812C-8.73 88.113-3.147 45.283 26.322 18.405a1 1 0 0 1 1.348 1.479C-1 46.032-6.513 87.608 15.381 112.562c10.081 11.49 24.677 18.286 41.1 19.132 19.1.987 38.44-6.2 53.02-19.719a1 1 0 1 1 1.359 1.467 75.455 75.455 0 0 1-50.896 20.342z" fill="#112c41"/><path d="M114.454 109.405a63 63 0 1 0-89.079-1.728 63 63 0 0 0 89.079 1.728" fill="#9797f7"/><path d="M34.856 88.594a61.054 61.054 0 0 0 98.02-13.948A63.027 63.027 0 0 0 21.948 24.175a61.029 61.029 0 0 0 12.908 64.419z" fill="#b2b0f7"/><path d="M70.792 127.972a63.975 63.975 0 0 1-49.618-104.43 64.754 64.754 0 0 1 5.231-5.665 64 64 0 1 1 44.387 110.1zM70.765 2.03a61.791 61.791 0 0 0-42.972 17.288 62.7 62.7 0 0 0-5.07 5.489A62.079 62.079 0 1 0 70.765 2.03z" fill="#112c41"/></svg></g></svg>