<svg xmlns="http://www.w3.org/2000/svg" viewBox="0 0 1800 1800" width="1800" height="1800"><g transform="translate(866.0 1575.0) rotate(0.0 196.5 21.0) scale(0.9974619289340102 1.0)"><svg width="394" height="42" viewBox="0 0 394 42"><ellipse cx="197" cy="21" fill="#cbc8ff" rx="197" ry="21"/></svg></g><g transform="translate(402.0 824.0) rotate(0.0 452.0 389.0) scale(0.999580927907437 0.9994270636627332)"><svg width="904.379" height="778.446" viewBox="0 0 904.379 778.446"><path d="M693.613 610.419a838.109 838.109 0 0 0 12.6-37.025l.076-.205c.023-.082.055-.158.074-.219 4-12.733 7.9-25.092 11.219-35.911 0 0 88.324 31.306 137.951 42.247-3.979 11.958-8.093 21.8-12.823 34.277a14885.245 14885.245 0 0 1-15.124 39.736z" fill="#ffd6c0"/><path d="m734.9 534.03-26.324 81.35c-4.531 1.254-13.291 3.778-16.437 4.1 10.328-32.532 27.613-87.078 27.613-87.078z" fill="#f5b9ab"/><path d="M827.583 654.319a.981.981 0 0 1-.3-.048l-133.97-42.9a1 1 0 0 1-.634-1.3c4.508-12.294 8.506-24.045 12.582-36.982l.093-.252a1 1 0 0 1 .044-.135l1.58-5.018c3.481-11.068 6.77-21.523 9.649-30.922a1 1 0 0 1 .507-.6.987.987 0 0 1 .784-.049c.882.312 88.834 31.41 137.832 42.213a1 1 0 0 1 .733 1.292c-2.8 8.421-5.7 15.87-8.765 23.756-1.311 3.371-2.664 6.849-4.071 10.56-8.033 21.2-15.055 39.556-15.125 39.739a1 1 0 0 1-.939.646zM694.91 609.784l132.076 42.295c1.5-3.914 7.754-20.291 14.786-38.85 1.41-3.717 2.764-7.2 4.077-10.576 2.929-7.532 5.7-14.664 8.38-22.612-46.474-10.405-126.222-38.254-136-41.692-2.808 9.146-5.988 19.256-9.348 29.94l-1.567 4.981c0 .013-.034.1-.039.113l-.051.154-.077.2a824.469 824.469 0 0 1-12.237 36.047z" fill="#112c41"/><path d="M861.524 750.058c-51.147-1.111-111.215-24.387-158.629-52.26a385.008 385.008 0 0 1-37.7-25.111s18.441-38.574 28.42-62.268l10.811 3.5s122.8 39.381 123.159 39.4c7.555 8.24 40.889 48.472 33.939 96.739z" fill="#ffa9dc"/><path d="M665.193 672.687s18.441-38.574 28.42-62.268l12.463 6.684c-6 21.657-15.884 55.351-12.1 75.516.044.212-17.649-11.458-28.783-19.932z" fill="#ff90d8"/><path d="M861.524 751.058h-.024c-45.5-.988-104.982-20.576-159.114-52.4a384.707 384.707 0 0 1-37.8-25.178 1 1 0 0 1-.3-1.227c.184-.386 18.545-38.824 28.4-62.225a1 1 0 0 1 1.23-.564l10.811 3.5c1.208.388 120.8 38.738 123.081 39.384a1 1 0 0 1 .507.3c6.962 7.591 41.333 47.973 34.194 97.556a1 1 0 0 1-.985.854zm-195.078-78.675a384.194 384.194 0 0 0 36.954 24.554c53.5 31.449 112.195 50.885 157.254 52.1 6.524-48.733-28.763-89.489-33.645-94.859-2.534-.77-18.473-5.825-122.892-39.311l-9.941-3.214c-9.176 21.689-25.164 55.347-27.73 60.73z" fill="#112c41"/><path d="M775.278 735.156a2.5 2.5 0 0 1-2.5-2.431c-.337-12.367-4.1-28.24-29.455-52.2-21.823-20.625-27.139-38.159-19.623-64.692a2.5 2.5 0 1 1 4.811 1.363c-7 24.72-2.226 40.341 18.25 59.693 21.225 20.059 30.5 36.717 31.019 55.7a2.5 2.5 0 0 1-2.431 2.567z" fill="#fff"/><path d="M856.694 772.7a4.931 4.931 0 0 1-3.229 3.213c-30.807 10.107-146.6-31.614-194.735-72.741-4.123-3.523-4.079-6.7-3.089-9.874l9.552-20.613c49.353 37.541 130.278 75.933 196.331 77.371-.962 7.957-2.399 15.854-4.83 22.644z" fill="#fff"/><path d="M841.519 778.416c-17.912 0-46.529-6.652-79.27-18.72C719.4 743.9 680.46 723.057 658.08 703.935c-4.734-4.045-4.372-7.8-3.394-10.933a.859.859 0 0 1 .048-.122l9.552-20.613a1 1 0 0 1 1.512-.376c47.522 36.149 129.048 75.715 195.748 77.167a1 1 0 0 1 .971 1.12c-1.134 9.375-2.73 16.853-4.881 22.861a5.916 5.916 0 0 1-3.859 3.827 40.353 40.353 0 0 1-12.258 1.55zM656.576 693.66c-.931 3.025-.8 5.676 2.8 8.754 44.611 38.117 141.8 73.99 182.311 73.993a37.739 37.739 0 0 0 11.462-1.442 3.951 3.951 0 0 0 2.6-2.6 102.231 102.231 0 0 0 4.651-21.335c-66.474-1.858-147.175-40.864-194.817-76.8z" fill="#112c41"/><path d="M693.615 610.415c36.779 22.126 94.71 39.618 133.968 42.9 0 0 5.684-15.073 12.873-33.794.251-.648.5-1.306.746-1.964s.5-1.315.753-1.976.5-1.329.755-2c-36.286-3.6-91.229-21.146-136.25-40.882 0 0-.03.1-.1.267a1.471 1.471 0 0 0-.073.216 2.187 2.187 0 0 0-.076.207 829.362 829.362 0 0 1-12.596 37.026z" fill="#fff"/><g fill="#112c41"><path d="M827.583 654.319h-.084c-41.623-3.485-99.4-21.99-134.4-43.044a1 1 0 0 1-.424-1.2 828.31 828.31 0 0 0 12.583-36.979 1.71 1.71 0 0 1 .077-.214 2.1 2.1 0 0 1 .077-.224c.066-.17.091-.243.1-.257a1 1 0 0 1 1.354-.61c48.924 21.447 102.286 37.464 135.947 40.8a1 1 0 0 1 .836 1.349l-.754 2c-.258.663-.5 1.312-.748 1.962-.253.675-.5 1.336-.754 1.987-7.105 18.5-12.814 33.635-12.871 33.786a1 1 0 0 1-.939.644zm-132.744-44.337c34.625 20.615 91.057 38.681 132.075 42.276 1.209-3.2 6.371-16.848 12.609-33.091.251-.648.5-1.3.744-1.958.252-.671.5-1.327.756-1.987l.293-.775c-33.683-3.609-86.058-19.359-134.264-40.394a828.767 828.767 0 0 1-12.213 35.929z"/><path d="M693.615 611.416a1.012 1.012 0 0 1-.344-.062 1 1 0 0 1-.595-1.283 828.31 828.31 0 0 0 12.583-36.979 1.71 1.71 0 0 1 .077-.214 2.1 2.1 0 0 1 .077-.224c.066-.172.091-.245.1-.259a1 1 0 0 1 1.9.613s-.037.116-.119.326a1.544 1.544 0 0 1-.069.205l-.963-.286.911.416a832.634 832.634 0 0 1-12.619 37.09 1 1 0 0 1-.939.657zm133.967 42.904a1 1 0 0 1-.933-1.358s5.744-15.02 12.872-33.792c.253-.651.5-1.306.746-1.961.252-.671.5-1.327.756-1.987l.752-1.991a1 1 0 0 1 1.87.708l-.754 2c-.258.663-.5 1.312-.748 1.962-.253.675-.5 1.336-.754 1.987-7.127 18.769-12.872 33.791-12.872 33.791a1 1 0 0 1-.935.641z"/></g><circle cx="806.125" cy="675.612" fill="#ffe993" r="8.5"/><path d="M806.479 678.541c14.438 5.077 32.644 2.917 38.552.25a2.832 2.832 0 1 0-2.33-5.163c-4.536 2.047-21.956 4.262-35.173-.733a2.832 2.832 0 1 0-2.006 5.3c.316.117.636.234.957.346z" fill="#fff"/><path d="M826.411 682.633a62.179 62.179 0 0 1-20.264-3.148q-.492-.174-.98-.358a3.832 3.832 0 0 1 2.714-7.168c12.959 4.9 29.992 2.751 34.408.757a3.833 3.833 0 0 1 3.154 6.987c-3.411 1.539-10.68 2.93-19.032 2.93zm-19.6-5.035c14.183 4.986 32.153 2.834 37.809.281a1.832 1.832 0 1 0-1.508-3.339c-4.642 2.1-22.468 4.381-35.938-.71a1.832 1.832 0 1 0-1.3 3.427c.309.117.622.231.935.341z" fill="#112c41"/><circle cx="814.958" cy="700.999" fill="#ffe993" r="8.5"/><path d="M815.4 703.917c14.582 4.646 34.378.452 40.2-2.388a2.832 2.832 0 1 0-2.482-5.092c-4.473 2.181-23.483 6.406-36.842 1.8a2.832 2.832 0 0 0-1.848 5.355c.323.114.646.222.972.325z" fill="#fff"/><path d="M830.443 707a51.121 51.121 0 0 1-15.349-2.126 45.812 45.812 0 0 1-.989-.329 3.833 3.833 0 0 1 2.5-7.246c13.3 4.583 31.968.247 36.078-1.757a3.833 3.833 0 1 1 3.359 6.89C852.3 704.25 841.672 707 830.443 707zm-14.743-4.036c14.732 4.693 34.2.231 39.463-2.334a1.832 1.832 0 1 0-1.606-3.294c-4.288 2.092-23.754 6.623-37.605 1.851a1.832 1.832 0 0 0-2.246 2.533 1.817 1.817 0 0 0 1.05.93c.313.109.63.213.946.314z" fill="#112c41"/><path d="M126.548 285.89c-1.212-88.517 65.4-124.063 65.4-124.063a833.774 833.774 0 0 0 34.281 18.825l.188.11c.077.037.147.081.2.111 11.847 6.15 22.331 11.306 32.412 16.447 0 0-41.538 83.92-60.915 130.9l-1.023-.555c-10.834-5.883-22.993-12.937-34.106-19.548-19.712-11.72-36.145-22.05-36.145-22.05z" fill="#ffd6c0"/><path d="m258.906 215.471-75.678-39.792c-.464-4.679-1.46-13.74-1.243-16.9 30.3 15.717 81.107 40.631 81.107 40.631z" fill="#f5b9ab"/><path d="M126.82 284.814v.071c-.092.337-.185.674-.271 1.019-9.425 6.015-54.9 32.3-101.231 17.088 12.863-64.8 64.7-137.849 110.23-179.948 0 0 34.794 24.848 56.4 38.783" fill="#ffa9dc"/><path d="M134.145 123.168s34.871 24.74 56.519 38.609l-8.709 11.143c-20.319-9.6-51.837-25.078-72.353-24.779-.215.003 14.298-15.441 24.543-24.973z" fill="#ff90d8"/><path d="M55.287 308.67A96.676 96.676 0 0 1 25 303.942a1 1 0 0 1-.669-1.145C37.41 236.923 90.8 163.061 134.867 122.31a1 1 0 0 1 1.26-.08c.348.249 35.022 24.994 56.361 38.757a1 1 0 0 1-1.084 1.681c-19.741-12.732-50.851-34.83-55.775-38.336C92.1 164.8 39.7 237.4 26.472 302.314c45.5 14.45 89.859-11.138 99.205-17.042.055-.208.112-.414.168-.62a1.033 1.033 0 0 1 1-.8.97.97 0 0 1 .978.986v.071a1.04 1.04 0 0 1-.035.242c-.091.33-.181.66-.265 1a1 1 0 0 1-.433.6c-6.86 4.371-36.577 21.919-71.803 21.919z" fill="#112c41"/><path d="M65.161 227.4a58.276 58.276 0 0 1-7.61-.506 2.5 2.5 0 1 1 .654-4.957c12.265 1.617 28.532.4 56.193-20.857 23.807-18.3 41.959-20.785 66.975-9.181a2.5 2.5 0 0 1-2.1 4.537c-23.307-10.812-39.486-8.559-61.824 8.609C97.424 220.432 81.322 227.4 65.161 227.4z" fill="#fff"/><path d="M3.851 294.311a4.935 4.935 0 0 1-2.6-3.738c-4.613-32.092 56.547-138.9 105.4-179.179 4.184-3.45 7.306-2.855 10.26-1.33l18.645 12.98c-45.527 42.1-97.365 115.145-110.23 179.948-7.678-2.326-15.207-5.11-21.475-8.681z" fill="#fff"/><path d="M25.316 303.992a1 1 0 0 1-.291-.043c-9.036-2.741-16.124-5.61-21.669-8.77a5.915 5.915 0 0 1-3.1-4.464c-2.2-15.28 10.362-48.68 32.775-87.166 22.982-39.46 50.262-74.2 72.974-92.926 4.8-3.961 8.436-2.955 11.355-1.448a.983.983 0 0 1 .112.068l18.646 12.981a1 1 0 0 1 .107 1.555C92.387 164.315 39.288 237.748 26.3 303.187a1 1 0 0 1-.981.805zm87.289-194.136a8.37 8.37 0 0 0-5.328 2.31C56.852 153.743-2.134 260.03 2.236 290.431a3.953 3.953 0 0 0 2.11 3.011 102.167 102.167 0 0 0 20.208 8.271c13.352-65.146 65.756-137.864 109.4-178.557l-17.572-12.233a8.268 8.268 0 0 0-3.777-1.067z" fill="#112c41"/><path d="M226.874 181.023c-27.249 40.908-54.055 91.986-63.89 127.1a1960.013 1960.013 0 0 1-36.138-22.052c-.016-.4-.024-.831-.022-1.253 10.67-41.078 36.78-90.387 65.111-122.978l.009-.011a830.654 830.654 0 0 0 34.284 18.823 1.959 1.959 0 0 0 .191.114c.074.034.138.078.2.113.042.026.074.043.106.061.097.06.149.083.149.083z" fill="#fff"/><path d="M162.984 309.12a1 1 0 0 1-.512-.141 1973.979 1973.979 0 0 1-36.158-22.065 1 1 0 0 1-.468-.808 30.617 30.617 0 0 1-.022-1.3 1.07 1.07 0 0 1 .032-.246c10.687-41.147 36.939-90.73 65.324-123.383a1.015 1.015 0 0 1 1.266-.22c11.285 6.548 22.166 12.522 34.244 18.8a.985.985 0 0 1 .107.065.9.9 0 0 0 .1.059 1.667 1.667 0 0 1 .166.093c.023.012.18.1.2.118a1.055 1.055 0 0 1 .549.651 1.019 1.019 0 0 1-.112.83c-29.6 44.439-54.629 94.216-63.76 126.812a1 1 0 0 1-.962.731zm-35.155-23.62c2.722 1.7 17.354 10.84 34.549 21.091 9.4-32.571 34-81.424 63.066-125.227-11.721-6.1-22.329-11.92-33.286-18.264-27.986 32.449-53.769 81.261-64.334 121.84 0 .191.002.379.005.56z" fill="#112c41"/><path d="M198.115 329.223a1 1 0 0 1-.476-.12c-9.771-5.289-21.6-12.06-35.166-20.124-19.493-11.6-36-21.961-36.159-22.065a1 1 0 0 1-.468-.808 30.617 30.617 0 0 1-.022-1.3 1.07 1.07 0 0 1 .032-.246c10.687-41.147 36.939-90.73 65.324-123.383a1.015 1.015 0 0 1 1.266-.22c11.285 6.548 22.166 12.522 34.244 18.8a.985.985 0 0 1 .107.065.9.9 0 0 0 .1.059 1.667 1.667 0 0 1 .166.093l-.34.958.46-.888c7.3 3.785 14.051 7.179 20.581 10.461 4 2.011 7.886 3.965 11.713 5.916a1 1 0 0 1 .442 1.334c-.415.839-41.738 84.431-60.883 130.845a1 1 0 0 1-.589.562 1.017 1.017 0 0 1-.332.061zM127.829 285.5a1998.133 1998.133 0 0 0 35.666 21.756c13.092 7.784 24.565 14.359 34.12 19.554 18.267-44.06 55.608-120 60.077-129.055-3.54-1.8-7.134-3.608-10.824-5.463-6.535-3.285-13.292-6.682-20.6-10.473l-.273-.156a3.358 3.358 0 0 1-.272-.155C213.89 175.359 203.2 169.5 192.158 163.1c-27.986 32.449-53.769 81.261-64.334 121.84 0 .191.002.379.005.56z" fill="#112c41"/><circle cx="108.237" cy="261.337" fill="#ffe993" r="8.5"/><path d="M105.291 261.177c-7.5 13.339-8.531 31.644-6.929 37.925a2.832 2.832 0 1 0 5.489-1.4c-1.23-4.822-.392-22.362 6.819-34.514a2.832 2.832 0 0 0-4.87-2.888c-.172.286-.343.581-.509.877z" fill="#fff"/><path d="M101.108 302.234a3.839 3.839 0 0 1-3.715-2.885c-1.648-6.461-.71-24.908 7.026-38.662q.257-.456.523-.9a3.832 3.832 0 0 1 6.588 3.915c-7.069 11.914-7.908 29.062-6.71 33.757a3.832 3.832 0 0 1-3.712 4.779zm5.054-40.567c-7.37 13.1-8.364 31.176-6.831 37.188a1.832 1.832 0 0 0 3.551-.906c-1.259-4.935-.42-22.888 6.928-35.271a1.836 1.836 0 0 0-.638-2.511 1.832 1.832 0 0 0-2.511.638q-.255.427-.5.862z" fill="#112c41"/><circle cx="81.704" cy="265.635" fill="#ffe993" r="8.5"/><path d="M78.753 265.562c-7.1 13.556-6.4 33.78-4.617 40.01a2.832 2.832 0 1 0 5.445-1.561c-1.372-4.784-2.239-24.238 4.609-36.6a2.832 2.832 0 0 0-4.953-2.749q-.246.449-.484.9z" fill="#fff"/><path d="M76.861 308.624a3.84 3.84 0 0 1-3.686-2.776C71.5 300 70.43 279.291 77.868 265.1c.161-.308.327-.616.5-.918a3.832 3.832 0 0 1 6.7 3.718c-6.819 12.308-5.783 31.442-4.522 35.837a3.834 3.834 0 0 1-3.682 4.889zm4.855-44.417a1.834 1.834 0 0 0-1.6.944q-.242.433-.473.875c-7.176 13.695-6.156 33.64-4.542 39.269a1.832 1.832 0 1 0 3.523-1.01c-1.316-4.586-2.4-24.543 4.695-37.357a1.833 1.833 0 0 0-1.6-2.722z" fill="#112c41"/><path d="M404.092 381.415c114-14 168.85-99.73 205.83-195.57.369.18.74.36 1.109.55 173.871 85.67 106.8 298.38 94.76 333.97 0 .01-.01.01-.01.02-1.02 3.02-1.649 4.76-1.689 5.03-.71 4.44-.01 7.96 4.87 10.57.87.47 1.739.97 2.67 1.4.139.07.28.13.429.2a.035.035 0 0 1 .021.01c1.07.49 2.159.99 3.27 1.48 34.679 15.46 91.74 33.34 139.74 41.34 58-138 71-288-1.46-407.05-52.071-85.55-112.72-130.15-169.411-151.79a347.689 347.689 0 0 0-39.16-12.5 257.878 257.878 0 0 0-78.969-7.66c-56 3.03-108 29-135 82-10.16 19.94-25.48 63.22-36 87-26.16 59.11-72.98 34.65-116.551 17.63-1.389-.55-2.78-1.08-4.169-1.61-4.04-1.54-8.581-.46-10.91 3.19-12.627 19.805-51.37 90.79-66.37 138.039-.076.236 101.491 66.708 207 53.751z" fill="#b2b0f7"/><path d="M645.061 9.075c-18.969-2.66-91.969-14.66-142.969 25.34-74.855 58.71-66 146-114 176-37.235 23.272-86.38-2.62-117.041-15.8-3.649-1.56-7.03-.81-11.919 3.32.649-.98 4.47-7.13 5.06-7.96a8.638 8.638 0 0 1 11.069-2.6 5.378 5.378 0 0 0 3.28.67c43.571 17.02 90.391 41.48 116.551-17.63 10.52-23.78 25.84-67.06 36-87 27-53 79-78.97 135-82a257.878 257.878 0 0 1 78.969 7.66zm70.291 530a12.107 12.107 0 0 1-2.24-12.18c91.98-241.48-41.02-343.48-90.02-368.48-5 9-10 20-13 27 173.87 85.67 107.74 299.36 95.7 334.95 0 .01-.01.01-.01.02a410.83 410.83 0 0 1-.97 4.6c-.929 4.39-.04 8.23 4.7 11.09.341.21 1.381.82 2.55 1.51a.035.035 0 0 1 .021.01c1.74 1.02 3.76 2.2 4.29 2.5a9.6 9.6 0 0 1-1.021-1.02z" fill="#9797f7"/><path d="M855.092 581.415a.919.919 0 0 1-.165-.014c-51.667-8.611-108.781-27.5-139.983-41.412a227.323 227.323 0 0 1-3.088-1.4l-.191-.088-.041-.019-.13-.06c-.105-.048-.207-.094-.309-.145-.726-.335-1.433-.723-2.117-1.1l-.582-.317c-5.875-3.142-6.018-7.632-5.382-11.608a21.9 21.9 0 0 1 .763-2.36c.261-.759.587-1.707.967-2.832a.646.646 0 0 1 .026-.069c9.672-28.6 25.408-85.794 22.268-147.786-1.958-38.649-11.083-72.971-27.122-102.012-19.56-35.415-49.644-63.309-89.417-82.906l-.13-.066c-32.25 83.263-84.919 180.282-206.247 195.182-54.633 6.711-108.05-8.182-143.239-21.856-37.947-14.745-64.124-31.611-64.65-32.245a1.007 1.007 0 0 1-.186-.945c15.1-47.574 53.678-118.193 66.48-138.275a9.931 9.931 0 0 1 12.11-3.587c1.393.532 2.787 1.064 4.181 1.615 3.283 1.282 6.588 2.608 9.9 3.938 20.023 8.034 40.725 16.344 59.082 15.752 20.479-.658 35.619-12.694 46.285-36.8 4.371-9.88 9.485-22.912 14.9-36.709 7.459-19.006 15.171-38.658 21.123-50.34a143.592 143.592 0 0 1 57.016-60.15C509.882 9.724 537.137 1.98 566.038.416A258.427 258.427 0 0 1 645.3 8.105a346.759 346.759 0 0 1 39.273 12.536c66.789 25.5 123.954 76.7 169.908 152.2 65.987 108.415 66.53 253.3 1.527 407.957a1 1 0 0 1-.916.617zm-142.578-44.722.174.08c1 .46 2.027.928 3.068 1.388 30.934 13.79 87.433 32.5 138.72 41.137 64.437-153.777 63.842-297.732-1.7-405.413C807.06 98.772 750.23 47.842 683.865 22.509a344.78 344.78 0 0 0-39.047-12.464 256.475 256.475 0 0 0-78.672-7.631c-28.588 1.546-55.535 9.2-77.93 22.128a141.631 141.631 0 0 0-56.233 59.327c-5.909 11.6-13.6 31.2-21.044 50.163-5.423 13.817-10.545 26.868-14.933 36.788-12.731 28.765-30.241 38.07-49.855 38.072-18.254 0-38.33-8.056-58.086-15.983a1151.726 1151.726 0 0 0-9.887-3.932c-1.39-.55-2.777-1.079-4.163-1.607a7.948 7.948 0 0 0-9.711 2.793c-12.7 19.92-50.832 89.708-66.034 137.1 8.027 5.216 105.136 65.513 205.7 53.161l.121.993-.121-.993c52.619-6.462 95.53-28.306 131.185-66.782 28.5-30.759 51.966-71.481 73.834-128.155a1 1 0 0 1 1.37-.539c.376.182.753.366 1.129.559 40.132 19.774 70.508 47.946 90.27 83.726 16.187 29.31 25.395 63.923 27.368 102.878 3.159 62.357-12.671 119.854-22.387 148.577-.008.022-.016.045-.026.068a464.167 464.167 0 0 1-.954 2.794c-.345 1-.643 1.869-.683 2.047-.633 3.96-.136 7.105 4.358 9.508l.6.325c.655.359 1.332.73 2.022 1.05l.433.2z" fill="#112c41"/><path d="M478.453 134.229a77.73 77.73 0 0 1-20.573-2.842 1 1 0 0 1 .529-1.929c40.508 11.108 67.144-13.04 75.569-27.36a1 1 0 0 1 1.724 1.014c-6.041 10.268-16.416 19.337-28.464 24.881a68.5 68.5 0 0 1-28.785 6.236zm131.638 52.187a1 1 0 0 1-.928-1.373 305.133 305.133 0 0 1 16.06-34.124 1 1 0 0 1 1.737.992 302.857 302.857 0 0 0-15.94 33.876 1 1 0 0 1-.929.629z" fill="#112c41"/></svg></g><g transform="translate(302.0 287.0) rotate(0.0 582.0 306.5) scale(0.999349221039907 0.9990758955419702)"><svg width="1164.758" height="613.567" viewBox="0 0 1164.758 613.567"><path d="M867.388 378.376a1.878 1.878 0 0 1 .129.182 319.015 319.015 0 0 0 11.816-4.149l1.007-.373c.533-.206 1.089-.411 1.653-.62.393-.152.809-.3 1.22-.462.686-.255 1.377-.524 2.091-.793.149-.059.307-.122.47-.176.379-.156.763-.3 1.161-.445.388-.16.781-.311 1.188-.457 59.444-22.894 207.732-89.833 272.022-281.754 10.419-31.106-3.462-52.088-19.2-40.71 6.611-18.264.382-31.546-5.6-34.73-8.736-4.64-20.31 3.56-23.66 8.333 0-9.841-4.876-20.808-13.812-21.212-6.319-.284-23.526 5.134-32.785 51.788-3.867-22.827-14.987-27.321-20.821-24.663-12.218 5.575-6.519 31.155-31.55 74.227-50.334 86.615-124.388 116.768-162.75 131.038l-.32.117c-6.892 2.569-12.286 4.3-15.648 5.283a80.88 80.88 0 0 0-.5 5.646c-.638 15.387 2.076 38.91 8.039 64.676a339.1 339.1 0 0 0 12.187 41.369c.151.416.31.827.466 1.229 4.433 11.713 9.009 20.985 13.197 26.656z" fill="#ffd6c0"/><path d="M867.517 379.558a1 1 0 0 1-.834-.448l-.058-.088-.042-.052c-4.229-5.732-8.837-15.034-13.328-26.9-.177-.459-.328-.849-.47-1.242a341.011 341.011 0 0 1-12.221-41.485c-5.8-25.05-8.736-48.72-8.064-64.942.118-2.1.288-4.021.507-5.732a1 1 0 0 1 .712-.833c2.514-.733 7.881-2.391 15.578-5.26l.329-.12c22.272-8.283 48.805-19.31 76.665-38.273a281.976 281.976 0 0 0 85.566-92.325c13.253-22.8 17.778-40.416 21.083-53.275 2.871-11.172 4.767-18.553 10.917-21.359a10.194 10.194 0 0 1 9 .633c3.334 1.769 9.049 6.668 12.255 20.007 4-17.9 9.613-31.082 16.725-39.221s13.613-8.752 16.085-8.632c6.7.3 13.788 7.228 14.675 19.572 5-5.2 15.269-10.8 23.222-6.577 6.142 3.271 12.227 15.939 6.951 33.3 4.826-2.554 9.7-2.4 13.672.523 7.341 5.4 11.927 21.1 4.651 42.822-27.739 82.808-74.216 151.684-138.138 204.715-39.159 32.486-83.145 57.887-134.473 77.655-.412.148-.791.294-1.167.449-.426.154-.8.3-1.161.445-.2.07-.337.124-.464.174l-.97.369c-.389.148-.775.3-1.159.438l-1.341.507c-.519.192-1.029.382-1.52.571l-1.022.378a321.31 321.31 0 0 1-11.848 4.161.994.994 0 0 1-.313.045zm-32.605-139.987a83.2 83.2 0 0 0-.414 4.928c-.665 16.036 2.256 39.512 8.015 64.394a339.1 339.1 0 0 0 12.149 41.246c.141.389.287.765.429 1.133 4.356 11.509 8.766 20.489 12.808 26.107a322.904 322.904 0 0 0 11.085-3.907l1.009-.373c.486-.188 1-.381 1.531-.576l1.327-.5c.392-.146.772-.291 1.156-.438l.945-.358c.162-.065.331-.131.5-.189.33-.139.729-.29 1.141-.438.358-.149.765-.306 1.185-.457 51.1-19.681 94.906-44.975 133.895-77.32 63.631-52.79 109.9-121.362 137.518-203.81 6.958-20.773 2.836-35.6-3.939-40.577-3.948-2.9-8.823-2.549-13.726.995a1 1 0 0 1-1.526-1.152c3.257-9 5.1-28.063-5.124-33.507-7.89-4.191-18.917 3.1-22.371 8.025a1 1 0 0 1-1.819-.574c0-9.651-4.807-19.85-12.858-20.214-3.581-.156-21.946 1.54-31.758 50.984a.985.985 0 0 1-1 .8 1 1 0 0 1-.972-.833c-2.733-16.132-8.81-21.547-12.19-23.34a8.221 8.221 0 0 0-7.23-.58c-5.281 2.409-6.986 9.044-9.81 20.037-3.334 12.972-7.9 30.739-21.291 53.782a283.946 283.946 0 0 1-86.17 92.973c-28.037 19.083-54.708 30.17-77.1 38.5l-.329.12c-7.146 2.67-12.316 4.301-15.066 5.119z" fill="#112c41"/><path d="M854.191 351.717c4.433 11.716 9.013 20.988 13.2 26.659a1.878 1.878 0 0 1 .129.182 319.015 319.015 0 0 0 11.816-4.149l1.007-.373c.533-.206 1.089-.411 1.653-.62.393-.152.809-.3 1.22-.462.686-.255 1.377-.524 2.091-.793.149-.059.307-.122.47-.176.379-.156.763-.3 1.161-.445.388-.16.781-.311 1.188-.457 47.738-18.509 157.618-68.289 232.035-194.238-75.9 103.088-184.832 150.046-238.374 167.223-6.914 2.215-12.9 3.939-17.775 5.221a329.968 329.968 0 0 1-9.821 2.428z" fill="#f5b9ab"/><g fill="#112c41"><path d="M867.518 379.558a1 1 0 0 1-.835-.448l-.058-.088-.042-.052c-4.229-5.732-8.837-15.034-13.328-26.9-.177-.459-.328-.849-.47-1.242a341.011 341.011 0 0 1-12.221-41.485c-5.777-24.981-8.715-48.592-8.064-64.785v-.135c.119-2.119.289-4.043.508-5.754a1 1 0 0 1 .712-.833c2.514-.733 7.881-2.391 15.578-5.26l.329-.12c22.272-8.283 48.805-19.31 76.664-38.273a281.969 281.969 0 0 0 85.567-92.325c13.253-22.8 17.778-40.416 21.083-53.275 2.871-11.172 4.767-18.553 10.917-21.359a10.194 10.194 0 0 1 9 .633c3.334 1.769 9.049 6.668 12.255 20.007 4-17.9 9.613-31.082 16.725-39.221s13.612-8.752 16.084-8.632c6.7.3 13.788 7.228 14.675 19.572 5-5.2 15.268-10.8 23.222-6.577 6.142 3.271 12.227 15.939 6.951 33.3 4.826-2.554 9.7-2.4 13.672.523 7.34 5.4 11.927 21.1 4.651 42.822-28.583 85.319-76.993 155.772-143.886 209.4-51.888 41.6-101.819 62.9-134.862 75.3l-1.048.393c-.551.207-1.092.411-1.62.6a322.43 322.43 0 0 1-11.847 4.16.993.993 0 0 1-.312.054zM834.5 244.493a1.042 1.042 0 0 1 0 .112c-.65 16.024 2.27 39.456 8.013 64.288a339.1 339.1 0 0 0 12.149 41.246c.141.389.287.765.429 1.133 4.356 11.509 8.766 20.489 12.808 26.107a322.904 322.904 0 0 0 11.085-3.907c.529-.194 1.064-.395 1.609-.6l1.051-.394c68.724-25.8 109.568-55.154 134.312-74.991C1082.545 244.1 1130.738 173.96 1159.2 89.011c6.958-20.772 2.836-35.595-3.939-40.576-3.948-2.9-8.823-2.549-13.726.995a1 1 0 0 1-1.535-1.151c3.257-9 5.1-28.063-5.124-33.507-7.89-4.191-18.917 3.1-22.371 8.025a1 1 0 0 1-1.819-.574c0-9.651-4.807-19.85-12.858-20.214-3.581-.156-21.946 1.54-31.758 50.984a1.018 1.018 0 0 1-1 .8 1 1 0 0 1-.972-.833c-2.733-16.132-8.81-21.547-12.19-23.34a8.221 8.221 0 0 0-7.23-.58c-5.281 2.409-6.986 9.044-9.81 20.037-3.334 12.972-7.9 30.739-21.291 53.782a283.946 283.946 0 0 1-86.17 92.973c-28.037 19.083-54.708 30.17-77.1 38.5l-.329.12c-7.155 2.668-12.325 4.3-15.075 5.117a92.01 92.01 0 0 0-.403 4.924z"/><path d="M1092.922 62.22a.985.985 0 0 1-.234-.028 1 1 0 0 1-.74-1.2 125.178 125.178 0 0 1 18.937-39.349 1 1 0 1 1 1.618 1.174 122.9 122.9 0 0 0-18.61 38.641 1 1 0 0 1-.971.762zm25.187 27.103a1 1 0 0 1-.949-1.318c4.338-12.941 10.886-29.2 23.117-40.134a1 1 0 1 1 1.333 1.491c-11.881 10.624-18.294 26.572-22.553 39.279a1 1 0 0 1-.948.682zm-23.876 52.077a1 1 0 0 1-1-.98c-.733-36.679-21.787-57.3-26-61.065A3.033 3.033 0 0 1 1066.22 77c.084-2.713.045-10.487-2.11-24.043a1 1 0 1 1 1.976-.314c2.181 13.724 2.219 21.648 2.133 24.418a1.024 1.024 0 0 0 .347.806c4.321 3.859 25.918 25.009 26.668 62.517a1 1 0 0 1-.98 1.02z"/><path d="M1127.557 108.1a1 1 0 0 1-.934-.642c-6.647-17.347-24.386-40.745-45.431-51.9a1 1 0 1 1 .936-1.766c21.48 11.387 39.582 35.258 46.362 52.953a1 1 0 0 1-.933 1.358z"/></g><path d="M856.707 224.814c-3.92-3-8.72-5.55-17.72-4.55-3.65.41-9.96 2.1-17 5-57.99 23.85-109.36 42.12-162.29 57.11a1272.99 1272.99 0 0 1-44.38 11.71q-13.575 3.33-27.51 6.46c-55.27 12.38-115.58 22.55-188.82 32.72l-1.3.18c-34.85 4.95-40.81 10.07-44.7 18.82-12.42 27.94 1 101 18.52 140.46a1.844 1.844 0 0 1 .109.21c8.6 17.05 18.611 30.07 29.141 30.74 11.21.72 23.94-1.83 33.45-4.39 0 0 36.78-8.02 55.54-14.31 28.88 67.58 99.42 112.86 179.15 107.1 87.98-6.35 160.48-70.06 166.949-164.73.81-17.04-.96-29.04-2.059-34.59 7.7-2.4 25.25-7.41 41.32-15.19a98.287 98.287 0 0 0 19.88-12.3c29.919-24.93-9.72-138.48-38.28-160.45z" fill="#ffe993"/><path d="M655.434 613.56c-72.261 0-137.854-41.868-166.243-107.349-18.847 6.192-54.409 13.971-54.771 14.05-8.973 2.416-22.154 5.153-33.727 4.411-9.726-.619-19.81-11.146-29.969-31.288l.816-.605-.879.478c-.013-.024-.058-.1-.068-.128-18.406-41.453-30.771-113.713-18.52-141.272 4.332-9.743 11.608-14.593 45.473-19.4l1.305-.181c77.746-10.8 135.955-20.882 188.737-32.705 9.3-2.089 18.545-4.261 27.49-6.455 14.9-3.649 29.821-7.586 44.346-11.7 51.3-14.527 102.83-32.663 162.182-57.073a71.606 71.606 0 0 1 17.269-5.069c9.389-1.044 14.41 1.666 18.439 4.75 22.224 17.1 48.491 84.393 49.308 126.33.337 17.315-3.363 29.32-11 35.681a98.8 98.8 0 0 1-20.085 12.432c-14.354 6.95-30.093 11.763-38.549 14.35l-2.055.63a148.9 148.9 0 0 1 1.907 33.947c-3.127 45.77-21.529 85.93-53.217 116.161-30.159 28.773-70.88 46.359-114.659 49.519q-6.792.488-13.53.486zM489.747 503.974a1 1 0 0 1 .919.606c29.6 69.259 101.194 112.057 178.159 106.5 43.317-3.126 83.6-20.518 113.423-48.971 31.32-29.88 49.509-69.587 52.6-114.83.8-16.853-.936-28.742-2.043-34.327a1 1 0 0 1 .683-1.149c.857-.267 1.835-.566 2.919-.9 8.4-2.571 24.047-7.355 38.263-14.237a96.813 96.813 0 0 0 19.677-12.166c7.044-5.869 10.6-17.663 10.277-34.105-.874-44.89-28.526-109.4-48.527-124.784-3.7-2.829-8.316-5.314-17-4.349-3.163.356-9.22 1.838-16.73 4.931-59.425 24.441-111.028 42.6-162.4 57.148a1283.066 1283.066 0 0 1-44.414 11.719c-8.958 2.2-18.22 4.372-27.529 6.464-52.838 11.836-111.1 21.932-188.9 32.735l-1.3.18C362.167 339.5 357.443 344.7 353.9 352.67c-5.63 12.665-6.3 35.876-1.892 65.356 4 26.715 11.617 54.461 20.388 74.235.031.055.061.114.092.177 9.839 19.509 19.364 29.667 28.332 30.238 11.3.723 24.253-1.969 33.127-4.358.414-.092 36.988-8.092 55.482-14.293a1 1 0 0 1 .318-.051z" fill="#112c41"/><path d="M894.987 385.264a98.287 98.287 0 0 1-19.88 12.3l-.12-.3c9-76-24.74-145-53-172 7.04-2.9 13.35-4.59 17-5 9-1 13.8 1.55 17.72 4.55 28.56 21.97 68.199 135.52 38.28 160.45z" fill="#fff"/><path d="M759.463 581.368c-18.1 11.132-39.077 23.017-79.7 28.95a185.2 185.2 0 0 1-47.634.8.034.034 0 0 0-.022 0C562.2 602.313 504.377 554.2 483.853 489.1a.036.036 0 0 0 0-.031l-.625-2.137-1.168-3.958q-1.914-6.955-3.254-14.145l-.229-.489a151.708 151.708 0 0 1-.658-4.119c-1.953-13.4-1.664-37.358-1.664-37.358 7.272 2.3 20.815 17.917 22.623 24.743 24.454 92.341 106.18 160.436 202.848 146.334 21.431-3.133 45.309-9.794 57.737-16.572z" fill="#ffd169"/><path d="M446.9 326.321a3844.224 3844.224 0 0 1-47.91 6.943c-36 5-42.06 10.14-46 19-12.42 27.94 1 101 18.52 140.46a1.844 1.844 0 0 1 .109.21c8.6 17.05 18.611 30.07 29.141 30.74 11.21.72 23.94-1.83 33.45-4.39 0 0 36.78-8.02 55.54-14.31a277.852 277.852 0 0 0 40.24-16.71" fill="#ffe993"/><path d="M615.317 294.084c-51.34 18.21-162.33 51.18-203.42 60.62-3.27-4.1-8.75-12.91-14.21-21.26l1.3-.18c73.24-10.17 133.55-20.34 188.82-32.72q13.95-3.135 27.51-6.46z" fill="#ffd169"/><path d="M489.747 504.974c17.24-5.71 37.24-13.71 37.24-13.71" fill="#ffe993"/><path d="M489.746 505.974a1 1 0 0 1-.314-1.95c17.015-5.635 36.983-13.609 37.183-13.689a1 1 0 1 1 .743 1.857c-.2.08-20.226 8.077-37.3 13.731a1.013 1.013 0 0 1-.312.051z" fill="#112c41"/><path d="M434.207 519.284c-9.51 2.56-22.24 5.11-33.45 4.39-10.53-.67-20.54-13.69-29.141-30.74a1.844 1.844 0 0 0-.109-.21c-17.52-39.46-30.94-112.52-18.52-140.46 3.94-8.86 10-14 46-19 13.76 17.99 23.72 46.44 31.71 77.41 10.459 40.526 12.03 85.56 3.51 108.61z" fill="#fff"/><path d="M404.406 502.414a1.884 1.884 0 0 0-.04.22c-.049.22-.1.43-.139.63-.01.03-.01.06-.02.09-1.111 4.94-2.89 7.92-5.321 8.45-2.659.56-5.839-1.91-9.23-6.82l-.239-.36c-.12-.16-.23-.33-.34-.5 0-.01-.01-.01-.01-.02-3.98-6.01-8.21-15.23-12.26-26.64-.12-.32-.23-.65-.35-.98a342.258 342.258 0 0 1-11.22-40.62c-6.391-29.76-8.55-56.44-6.41-71.16.01-.13.03-.26.05-.39.02-.15.05-.31.07-.46.01-.04.01-.09.02-.13 1.05-6.41 2.98-10.32 5.79-10.93 3.01-.65 6.649 2.58 10.52 8.78.1.15.19.3.29.45.049.09.11.18.16.27.83 1.36 1.659 2.85 2.5 4.47a.536.536 0 0 1 .05.11c7.1 13.67 14.6 36.07 20.129 61.86a339.11 339.11 0 0 1 6.531 42.63c.04.44.07.88.1 1.31.963 12.49.75 22.826-.631 29.74z" fill="#112c41"/><path d="M398.125 512.882c-2.811 0-5.929-2.46-9.291-7.33l-.249-.373a9.994 9.994 0 0 1-.348-.512l-.033-.054c-3.989-6.038-8.256-15.309-12.34-26.815a20.45 20.45 0 0 1-.2-.563l-.145-.409a344.981 344.981 0 0 1-11.258-40.752c-6.186-28.809-8.647-56.212-6.422-71.515 0-.087.028-.243.051-.4l.067-.44a1.034 1.034 0 0 1 .021-.111.436.436 0 0 1 .02-.13c1.147-7.02 3.356-10.971 6.549-11.664 3.4-.739 7.3 2.369 11.58 9.227l.476.765a74.054 74.054 0 0 1 2.513 4.494 1.77 1.77 0 0 1 .082.171c7.46 14.386 14.816 37 20.188 62.05a341.05 341.05 0 0 1 6.549 42.758c.038.41.067.829.1 1.24.978 12.724.754 23.1-.641 30.088 0 .022-.01.045-.016.067l-.015.1-.052.243-.1.438-.011.049a2.036 2.036 0 0 1-.04.159c-1.21 5.4-3.256 8.5-6.056 9.113a4.76 4.76 0 0 1-.979.106zm-8.183-9.26c.089.137.178.273.275.4l.271.4c3.154 4.568 6.067 6.844 8.192 6.4 1.939-.423 3.515-3.082 4.551-7.69l.016-.068c.032-.158.069-.321.108-.491l.037-.163a1.615 1.615 0 0 1 .041-.224c1.354-6.808 1.565-16.987.608-29.439a63.572 63.572 0 0 0-.1-1.3 339.262 339.262 0 0 0-6.512-42.511c-5.344-24.922-12.648-47.378-20.04-61.609a.988.988 0 0 1-.047-.1 72.392 72.392 0 0 0-2.469-4.415l-.428-.686c-3.7-5.921-7.056-8.881-9.477-8.358-2.245.487-4.026 4.08-5.015 10.114-.007.054-.014.1-.022.146l-.063.415c-.019.125-.036.23-.044.334-2.2 15.151.251 42.282 6.39 70.874a342.969 342.969 0 0 0 11.186 40.5l.15.42c.063.182.126.362.193.539 4.046 11.4 8.248 20.536 12.157 26.44l.042.072z" fill="#112c41"/><path d="M655.434 613.56c-72.261 0-137.854-41.868-166.243-107.349-18.847 6.192-54.409 13.971-54.771 14.05-8.973 2.416-22.154 5.153-33.727 4.411-9.726-.619-19.81-11.146-29.969-31.288l.816-.605-.879.478c-.013-.024-.058-.1-.068-.128-18.406-41.453-30.771-113.713-18.52-141.272 4.332-9.743 11.608-14.593 45.473-19.4l1.305-.181c77.746-10.8 135.955-20.882 188.737-32.705 9.3-2.089 18.545-4.261 27.49-6.455 14.9-3.649 29.821-7.586 44.346-11.7 51.3-14.527 102.83-32.663 162.182-57.073a71.606 71.606 0 0 1 17.269-5.069c9.389-1.044 14.41 1.666 18.439 4.75 22.224 17.1 48.491 84.393 49.308 126.33.337 17.315-3.363 29.32-11 35.681a98.8 98.8 0 0 1-20.085 12.432c-14.354 6.95-30.093 11.763-38.549 14.35l-2.055.63a148.9 148.9 0 0 1 1.907 33.947c-3.127 45.77-21.529 85.93-53.217 116.161-30.159 28.773-70.88 46.359-114.659 49.519q-6.792.488-13.53.486zM489.747 503.974a1 1 0 0 1 .919.606c29.6 69.259 101.194 112.057 178.159 106.5 43.317-3.126 83.6-20.518 113.423-48.971 31.32-29.88 49.509-69.587 52.6-114.83.8-16.853-.936-28.742-2.043-34.327a1 1 0 0 1 .683-1.149c.857-.267 1.835-.566 2.919-.9 8.4-2.571 24.047-7.355 38.263-14.237a96.813 96.813 0 0 0 19.677-12.166c7.044-5.869 10.6-17.663 10.277-34.105-.874-44.89-28.526-109.4-48.527-124.784-3.7-2.829-8.316-5.314-17-4.349-3.163.356-9.22 1.838-16.73 4.931-59.425 24.441-111.028 42.6-162.4 57.148a1283.066 1283.066 0 0 1-44.414 11.719c-8.958 2.2-18.22 4.372-27.529 6.464-52.838 11.836-111.1 21.932-188.9 32.735l-1.3.18C362.167 339.5 357.443 344.7 353.9 352.67c-5.63 12.665-6.3 35.876-1.892 65.356 4 26.715 11.617 54.461 20.388 74.235.031.055.061.114.092.177 9.839 19.509 19.364 29.667 28.332 30.238 11.3.723 24.253-1.969 33.127-4.358.414-.092 36.988-8.092 55.482-14.293a1 1 0 0 1 .318-.051z" fill="#112c41"/><path d="M655.434 613.56c-72.572 0-138.417-42.229-166.607-108.193a1 1 0 0 1 1.839-.787c29.6 69.259 101.194 112.057 178.159 106.5 43.317-3.126 83.6-20.518 113.423-48.971 31.32-29.88 49.509-69.587 52.6-114.83a150.542 150.542 0 0 0-2.047-34.347c-3.677-20.792-13.293-41.1-16.688-47.177a1 1 0 1 1 1.745-.975c3.441 6.154 13.188 26.739 16.912 47.8a152.528 152.528 0 0 1 2.074 34.811c-3.127 45.77-21.529 85.931-53.217 116.161-30.159 28.773-70.88 46.359-114.659 49.519q-6.796.491-13.534.489zm8.14-323.23c2.768 12.11-11.782 25.774-32.51 30.52s-39.78-1.246-42.547-13.356a14 14 0 0 1 .206-6.907c17-4.052 33.517-7.981 49.01-11.77q11.619-2.849 21.887-5.457a14.428 14.428 0 0 1 3.954 6.97z" fill="#112c41"/><path d="M404.406 502.414a1.884 1.884 0 0 0-.04.22c-2.639.32-6.859.8-12.46 1.26l-1.069.09c-.57.04-1.16.09-1.76.14-.421.03-.86.07-1.3.1-.73.06-1.47.11-2.23.17-.161.01-.33.02-.5.04-.411.02-.82.05-1.24.09-.421.02-.84.05-1.27.09-63.54 4.51-226.22 6.86-365.91-139.61-22.64-23.74-18.98-48.63.1-45.01-13.74-13.73-13.74-28.4-9.68-33.82 5.94-7.91 19.9-5.4 24.96-2.5-4.18-8.91-4.42-20.91 3.5-25.07 5.6-2.94 23.48-5.34 51.67 32.97-6.19-22.31 1.97-31.1 8.38-31.17 13.43-.14 19.13 25.44 60.079 53.81 82.351 57.05 162.2 52.91 202.991 49.54l.34-.03c7.33-.6 12.95-1.32 16.41-1.86.94 1.48 1.89 3.12 2.85 4.9 7.11 13.66 14.639 36.11 20.179 61.97a339.11 339.11 0 0 1 6.531 42.63c.04.44.07.88.1 1.31.963 12.49.75 22.826-.631 29.74z" fill="#ffd6c0"/><path d="M344.418 506.991a459.148 459.148 0 0 1-116.531-14.6C147.5 471.519 76.175 428.891 15.9 365.694.093 349.116-2.422 332.951 1.933 324.948c2.357-4.333 6.7-6.537 12.156-6.278-12.145-13.47-12.014-27.527-7.843-33.096 3.54-4.714 9.35-5.7 13.6-5.7h.008a30.057 30.057 0 0 1 10.216 1.819c-4.45-11.563-.97-20.851 4.969-23.97 3.319-1.743 20.921-8.222 50.025 29.4-2.76-13.439.334-20.3 2.6-23.32a10.19 10.19 0 0 1 7.877-4.393c6.76-.071 11.611 5.807 18.953 14.7 8.452 10.24 20.026 24.264 41.707 39.285a281.981 281.981 0 0 0 116.669 47.262c33.276 5.341 61.98 4.06 85.669 2.1l.33-.029c8.195-.67 13.76-1.448 16.349-1.853a1 1 0 0 1 1 .453 81.371 81.371 0 0 1 2.886 4.961c7.5 14.415 14.891 37.094 20.277 62.235a341.05 341.05 0 0 1 6.549 42.758c.038.41.067.829.1 1.24.978 12.724.754 23.1-.641 30.088 0 .022-.01.045-.016.067l-.015.1a1 1 0 0 1-.869.847c-4.089.5-8.177.909-12.5 1.265l-1.067.089c-.558.039-1.119.087-1.69.135l-3.606.276c-.164.01-.314.019-.464.036-.46.025-.855.054-1.259.092a30.76 30.76 0 0 0-1.273.09q-19.442 1.382-38.212 1.384zM13.176 320.642c-4.3 0-7.608 1.809-9.486 5.261-4.019 7.387-1.459 22.557 13.66 38.411 60.011 62.923 131.015 105.364 211.039 126.144 49.034 12.733 99.433 17.039 154.077 13.158.423-.039.858-.07 1.293-.091.388-.038.813-.07 1.239-.091.121-.015.307-.027.482-.038l3.526-.27c.638-.053 1.209-.1 1.761-.14l1.055-.089c4.043-.332 7.877-.715 11.7-1.169 1.274-6.8 1.454-16.8.519-28.978a63.572 63.572 0 0 0-.1-1.3 339.262 339.262 0 0 0-6.512-42.511c-5.35-24.974-12.673-47.469-20.089-61.718a82.014 82.014 0 0 0-2.461-4.274c-2.838.427-8.214 1.145-15.831 1.768l-.328.029c-23.82 1.968-52.675 3.254-86.162-2.12a283.963 283.963 0 0 1-117.491-47.593c-21.908-15.178-33.585-29.326-42.11-39.656-7.184-8.7-11.536-13.977-17.291-13.977h-.1a8.217 8.217 0 0 0-6.3 3.6c-2.3 3.058-5.5 10.541-1.128 26.307a1 1 0 0 1-1.769.86c-29.875-40.6-47.225-34.343-50.4-32.677-7.134 3.747-7.158 15.023-3.059 23.76a1 1 0 0 1-1.4 1.292c-5.217-2.989-18.3-4.912-23.663 2.233-6.942 9.268 2.819 25.748 9.587 32.512a1 1 0 0 1-.893 1.69 18.116 18.116 0 0 0-3.365-.333z" fill="#112c41"/><path d="M405.037 472.674c.96 12.49.75 22.83-.631 29.74a1.884 1.884 0 0 0-.04.22c-2.639.32-6.859.8-12.46 1.26l-1.069.09c-.57.04-1.16.09-1.76.14-.421.03-.86.07-1.3.1-.73.06-1.47.11-2.23.17-.161.01-.33.02-.5.04-.411.02-.82.05-1.24.09-.421.02-.84.05-1.27.09-51.08 3.51-171.7 5.09-292.55-77.35 112.49 61.11 231.05 57.38 286.82 50.2 7.2-.93 13.349-1.91 18.309-2.82 4.091-.75 7.421-1.43 9.921-1.97z" fill="#f5b9ab"/><path d="M344.137 507.021A461.747 461.747 0 0 1 235.08 494.2c-83.334-20.156-157.075-63.39-219.177-128.5-15.81-16.584-18.325-32.749-13.97-40.752 2.357-4.333 6.7-6.537 12.156-6.278-12.145-13.47-12.014-27.527-7.843-33.096 3.54-4.714 9.35-5.7 13.6-5.7h.007a30.057 30.057 0 0 1 10.216 1.819c-4.45-11.563-.97-20.851 4.969-23.97 3.319-1.743 20.921-8.222 50.025 29.4-2.76-13.439.334-20.3 2.6-23.32a10.19 10.19 0 0 1 7.877-4.393c6.76-.071 11.611 5.806 18.953 14.7 8.452 10.24 20.026 24.265 41.707 39.285a281.994 281.994 0 0 0 116.669 47.262c33.276 5.341 61.98 4.061 85.669 2.1l.33-.029c8.195-.67 13.76-1.448 16.349-1.852a1 1 0 0 1 1 .452 81.371 81.371 0 0 1 2.886 4.961 2.023 2.023 0 0 1 .088.184c7.46 14.387 14.817 37 20.189 62.051a341.05 341.05 0 0 1 6.549 42.758c.038.41.067.829.1 1.24.978 12.724.754 23.1-.641 30.088 0 .022-.01.045-.016.067l-.015.1a1 1 0 0 1-.869.847c-4.089.5-8.177.909-12.5 1.265-.546.047-1.113.092-1.689.138l-1.14.092c-12.669 1.009-27.816 1.902-45.022 1.902zM13.176 320.642c-4.3 0-7.608 1.809-9.486 5.261-4.019 7.387-1.459 22.557 13.66 38.411 61.833 64.83 135.246 107.875 218.2 127.939 64.363 15.567 118.4 13.662 153.45 10.874l1.144-.092c.571-.045 1.132-.089 1.678-.137 4.046-.333 7.88-.716 11.7-1.17 1.274-6.8 1.454-16.8.519-28.978a63.572 63.572 0 0 0-.1-1.3 339.262 339.262 0 0 0-6.512-42.511c-5.344-24.922-12.648-47.378-20.04-61.609a.988.988 0 0 1-.045-.1q-1.28-2.372-2.465-4.283c-2.838.427-8.214 1.145-15.831 1.768l-.328.029c-23.82 1.968-52.675 3.254-86.162-2.12a283.963 283.963 0 0 1-117.491-47.593c-21.908-15.178-33.585-29.326-42.11-39.656-7.184-8.7-11.536-13.977-17.291-13.977h-.1a8.217 8.217 0 0 0-6.3 3.6c-2.3 3.058-5.5 10.541-1.128 26.307a1 1 0 0 1-1.769.86c-29.875-40.6-47.225-34.343-50.4-32.677-7.134 3.747-7.158 15.023-3.059 23.76a1 1 0 0 1-1.4 1.292c-5.217-2.989-18.3-4.912-23.663 2.233-6.942 9.268 2.819 25.748 9.587 32.512a1 1 0 0 1-.893 1.69 18.116 18.116 0 0 0-3.365-.333z" fill="#112c41"/><path d="M65.558 312.013a1 1 0 0 1-.783-.376 123.015 123.015 0 0 0-33.254-27.084 1 1 0 0 1 .966-1.751 125.131 125.131 0 0 1 33.851 27.587 1 1 0 0 1-.78 1.624zm-11.299 35.233a1 1 0 0 1-.724-.31c-9.251-9.7-21.828-21.413-37.1-25.988a1 1 0 0 1 .575-1.916c15.717 4.71 28.547 16.649 37.968 26.523a1 1 0 0 1-.723 1.691zm43.728 37.018a1 1 0 0 1-.914-.594c-15.614-35.1-3.976-64.31-2.2-68.365-.953-1.806-4.486-8.986-8.659-23.451a1 1 0 0 1 1.922-.554c4.713 16.339 8.682 23.4 8.721 23.468a1 1 0 0 1 .031.933c-.145.3-14.344 30.378 2.014 67.156a1 1 0 0 1-.913 1.407z" fill="#112c41"/><path d="M53.677 368.262a1 1 0 0 1-1-.928c-1.316-18.108 5.96-49.943 18.506-66.67a1 1 0 1 1 1.6 1.2c-12.281 16.374-19.4 47.57-18.111 65.325a1 1 0 0 1-.925 1.07.785.785 0 0 1-.07.003z" fill="#112c41"/></svg></g><g transform="translate(1096.0 280.0) rotate(0.0 57.0 32.5) scale(0.9933515157324224 0.996794920946495)"><svg width="114.763" height="65.209" viewBox="0 0 114.763 65.209"><path d="M14.146 1c0 16.125 11.4 29.313 27.666 28.646C60.045 28.9 67.978 5.7 56.194 3.223 71.947 6.2 69.161 31.912 47.52 40.436 24.2 49.619 1.129 32.632 1 9.437z" fill="#ff90d8"/><path d="M34.439 43.973a34.044 34.044 0 0 1-19.195-5.9A34.764 34.764 0 0 1 0 9.443 1 1 0 0 1 .46 8.6L13.606.158a1 1 0 0 1 1.54.842 28.95 28.95 0 0 0 8.433 20.918 24.254 24.254 0 0 0 18.192 6.729c11.477-.471 18.379-10.188 18.948-17.02.158-1.9.014-6.427-4.731-7.425a1 1 0 0 1 .392-1.961C62.5 3.4 66.514 7.962 67.128 14.457c.872 9.261-5.452 21.478-19.242 26.909a36.651 36.651 0 0 1-13.447 2.607zM2.007 9.979a32.627 32.627 0 0 0 45.146 29.526c12.871-5.069 18.79-16.343 17.984-24.859a12.115 12.115 0 0 0-2.765-6.935 11.42 11.42 0 0 1 .34 4.082 20.777 20.777 0 0 1-6.052 12.249 22 22 0 0 1-14.807 6.6 26.493 26.493 0 0 1-19.659-7.284 30.677 30.677 0 0 1-9-20.561z" fill="#112c41"/><path d="M96.491 21.353c-2.039 14.57-16.364 30.1-32.032 28.679C47.522 48.5 37.29 25.907 44.041 11.784c1.359-2.853 4.215-9.551 12.153-8.561-7.938-.99-12.364 2.518-14.759 5.213-12.9 14.515-6.742 46.293 17.108 53.884 29.419 9.364 55.891-17.8 55.207-43.853 0 0-17.489 2.857-17.259 2.886z" fill="#ffa9dc"/><path d="M70.547 65.218a40.515 40.515 0 0 1-12.307-1.944C47.015 59.7 38.645 50.617 35.276 38.352c-3.17-11.537-1.1-23.255 5.411-30.58 3.976-4.472 9.235-6.336 15.631-5.541a1 1 0 0 1 .876.992.87.87 0 0 1-.008.124 1 1 0 0 1-1.116.869c-6.93-.862-9.557 4.684-10.97 7.666l-.158.334c-3.271 6.843-2.462 16.4 2.063 24.355 4.148 7.288 10.542 11.829 17.544 12.465C79.564 50.4 93.484 35.265 95.487 21.305c-.012-.818.075-.833 3.531-1.417 1.619-.274 3.778-.632 5.937-.989 4.317-.714 8.633-1.419 8.633-1.419a1 1 0 0 1 1.161.961c.37 14.07-7.2 29.034-19.3 38.122a41.211 41.211 0 0 1-24.902 8.655zM46.83 5.5a15.051 15.051 0 0 0-4.647 3.6c-6.064 6.825-7.971 17.83-4.979 28.722C40.391 49.423 48.279 58 58.846 61.367c12.18 3.877 24.753 1.6 35.406-6.4 11.261-8.463 18.435-22.217 18.51-35.322-5.676.929-13.165 2.164-15.39 2.557a37.585 37.585 0 0 1-11.1 20.213c-6.546 6.242-14.327 9.3-21.907 8.616-7.664-.694-14.626-5.6-19.1-13.468-4.839-8.5-5.675-18.79-2.13-26.207l.156-.327A20.293 20.293 0 0 1 46.83 5.5z" fill="#112c41"/></svg></g><g transform="translate(497.0 372.0) rotate(0.0 49.0 52.5) scale(0.9860543738554727 0.9924385633270322)"><svg width="99.386" height="105.8" viewBox="0 0 99.386 105.8"><path d="M34.052 17.543C23.546 27.841 12.846 56 28.024 71.348c11.959 12.092 35.549 7.512 42.9-6.31 1.484-2.792 5.177-9.066-.338-14.862 5.515 5.8 5.324 11.44 4.579 14.968-4.009 19-32.436 31.78-53.5 18.265C-10.154 63-2.154 20 24.846 1c0 0 9.366 16.71 9.206 16.543z" fill="#6ecfea"/><path d="M41.07 90.011a36.858 36.858 0 0 1-19.953-5.76C7.837 75.73.341 62.547.011 47.128-.371 29.249 9.151 10.822 24.271.182a1 1 0 0 1 1.447.329s2.314 4.128 4.622 8.26c1.154 2.067 2.307 4.135 3.169 5.689 1.822 3.285 1.859 3.353 1.184 3.855-6.343 6.26-13.115 19.835-13.215 32.755-.063 8.056 2.379 14.642 7.257 19.575 5.245 5.3 13.185 7.62 21.788 6.359 8.633-1.266 16.109-6.031 19.513-12.435l.174-.325c1.558-2.908 4.46-8.32-.353-13.378a1 1 0 1 1 1.448-1.379c4.443 4.669 6.07 10.006 4.834 15.863-1.928 9.136-9.294 17.191-19.7 21.546a39.848 39.848 0 0 1-15.369 3.115zM24.521 2.466C10.455 12.821 1.65 30.211 2.011 47.085 2.326 61.817 9.495 74.418 22.2 82.567a36.128 36.128 0 0 0 33.466 2.484c9.8-4.1 16.727-11.62 18.519-20.114a15.05 15.05 0 0 0 .136-5.878 20.311 20.311 0 0 1-2.346 6.13l-.17.318c-3.7 6.955-11.738 12.119-20.988 13.476s-17.8-1.171-23.5-6.932c-5.192-5.25-7.9-12.51-7.835-21 .1-13.293 6.706-26.83 13.347-33.695-1.173-2.135-5.244-9.421-8.308-14.89z" fill="#112c41"/><path d="M97.359 82.671c-12.97 9.581-30.351 8.253-39.48-5.225-10.235-15.108 3.706-35.274 12.7-27.27C58.828 39.274 39.8 56.8 45.809 79.268c6.471 24.21 33.847 32.671 52.577 18.99z" fill="#9dd9f4"/><path d="M78.409 105.792a34.576 34.576 0 0 1-33.566-26.266c-3.828-14.318 2.237-26.668 10.2-31.467 5.589-3.365 11.65-2.849 16.213 1.384a1 1 0 0 1-1.345 1.48c-3.622-3.224-7.349-.649-8.782.608-5.157 4.519-8.87 15.844-2.427 25.354a24.206 24.206 0 0 0 16.227 10.632 28.958 28.958 0 0 0 21.836-5.65 1 1 0 0 1 1.592.738l1.027 15.587a1 1 0 0 1-.408.873 34.861 34.861 0 0 1-20.567 6.727zM62.5 47.843a12.44 12.44 0 0 0-6.417 1.929c-7.328 4.414-12.877 15.874-9.3 29.238a32.626 32.626 0 0 0 50.569 18.76l-.874-13.263a30.674 30.674 0 0 1-21.886 4.981 26.507 26.507 0 0 1-17.541-11.481 22 22 0 0 1-3.49-15.832 20.771 20.771 0 0 1 6.255-12.148 11.385 11.385 0 0 1 3.484-2.152q-.4-.031-.8-.032z" fill="#112c41"/></svg></g><g transform="translate(865.0 626.0) rotate(0.0 120.0 127.0) scale(0.9959952690224722 0.9989656379418161)"><svg width="240.965" height="254.263" viewBox="0 0 240.965 254.263"><path d="M238.731 199.307c-35.57 22.457-131.124 50.267-180.235 53.949a2.655 2.655 0 0 1-2.81-2.172C40.975 170.767 18.39 102.491 1.175 57.208A2.647 2.647 0 0 1 3 53.694C61.633 38.943 134.658 17.8 183.71 1.147a2.562 2.562 0 0 1 3.252 1.387c18.149 48.884 43.149 133.884 52.973 194.256a2.544 2.544 0 0 1-1.204 2.517z" fill="#fff"/><path d="M58.293 254.264a3.651 3.651 0 0 1-3.591-3C43.039 187.585 24.207 120.6.241 57.564a3.646 3.646 0 0 1 2.516-4.84C62.6 37.667 135.2 16.56 183.389.2a3.56 3.56 0 0 1 4.51 1.986c18.453 49.7 43.308 134.744 53.023 194.443a3.526 3.526 0 0 1-1.658 3.524c-34.74 21.933-129.309 50.247-180.693 54.1a3.711 3.711 0 0 1-.278.011zM184.6 2a1.749 1.749 0 0 0-.564.091C135.792 18.469 63.139 39.6 3.245 54.663a1.648 1.648 0 0 0-1.135 2.19C26.118 120.005 44.985 187.107 56.669 250.9a1.656 1.656 0 0 0 1.753 1.355c51.147-3.835 145.235-31.99 179.775-53.8a1.55 1.55 0 0 0 .751-1.51c-9.7-59.575-34.5-144.453-52.924-194.069A1.468 1.468 0 0 0 184.6 2z" fill="#112c41"/><path d="M179.484 196.754c-8.184-40.622-30.461-113.265-42.061-146.689a2.981 2.981 0 0 0-3.516-1.926c-10.169 2.44-32.069 9.186-37.476 10.861a2.984 2.984 0 0 0-1.8 1.536L57.86 135.068a3 3 0 0 0 1.363 4.017l27.426 13.534a2.994 2.994 0 0 0 4.02-1.367c3.613-7.4 13.673-27.967 17.758-36.128a1.6 1.6 0 0 1 2.955.213c7.673 23.313 18.5 59.677 26.583 92.994a2.993 2.993 0 0 0 3.708 2.183c7.76-2.145 28.4-8.161 35.72-10.3a2.985 2.985 0 0 0 2.091-3.46z" fill="#cbc8ff"/></svg></g><g transform="translate(752.0 336.0) rotate(-12.214098463741227 138.5 115.5) scale(0.9991739680913614 0.9979694992871646)"><svg width="277.229" height="231.47" viewBox="0 0 277.229 231.47"><circle cx="247.656" cy="102.004" fill="#ffd6c0" r="28.57"/><path d="M244.644 130.414a28.567 28.567 0 0 0 31.223-23.9A28.572 28.572 0 0 1 222.273 90q.086-.762.207-1.509a28.589 28.589 0 0 0 22.164 41.924z" fill="#f5b9ab"/><path d="M247.678 131.575a29.589 29.589 0 0 1-23.77-11.952 1 1 0 0 1 1.606-1.193 27.569 27.569 0 1 0-4.976-21.4 1 1 0 0 1-1.968-.358 29.571 29.571 0 1 1 29.108 34.907z" fill="#112c41"/><path d="M233.182 108.859a1 1 0 0 1-.973-.776 18.452 18.452 0 0 1 2.185-13.792A17.56 17.56 0 0 1 260.52 89.7a1 1 0 1 1-1.248 1.563 15.56 15.56 0 0 0-23.168 4.07 16.466 16.466 0 0 0-1.946 12.306 1 1 0 0 1-.751 1.2.966.966 0 0 1-.225.02z" fill="#112c41"/><circle cx="143.688" cy="127.943" fill="#ffd6c0" r="102.5"/><path d="M105.269 32.916c.32-.13.643-.241.964-.367l10.867 9.069c-49.479 20.172-73.762 73.994-54.03 122.8 19.768 48.9 76.227 74.243 125.891 54.164A98.268 98.268 0 0 0 203 211.57a102.51 102.51 0 1 1-97.731-178.654z" fill="#f5b9ab"/><path d="M143.675 231.5a103.747 103.747 0 1 1 38.807-7.6 103.3 103.3 0 0 1-38.807 7.6zm.025-205.112a101.729 101.729 0 1 0 39.626 8.112 101.38 101.38 0 0 0-39.626-8.112z" fill="#112c41"/><ellipse cx="126.535" cy="112.293" fill="#112c41" rx="6.828" ry="9.104" transform="matrix(.92709884 -.37481696 .37481696 .92709884 -32.865 55.614)"/><ellipse cx="111.4" cy="85.723" fill="#112c41" rx="14.13" ry="9.336" transform="matrix(.86245184 -.50613914 .50613914 .86245184 -28.065 68.176)"/><ellipse cx="210.167" cy="121.3" fill="#ffa9dc" rx="12.121" ry="8.009" transform="matrix(.88267705 -.46998003 .46998003 .88267705 -32.351 113.007)"/><ellipse cx="118.423" cy="139.798" fill="#ffa9dc" rx="8.009" ry="12.121" transform="matrix(.07459583 -.99721385 .99721385 .07459583 -29.819 247.463)"/><g fill="#112c41"><ellipse cx="198.688" cy="69.502" rx="8.6" ry="13.016" transform="matrix(.21807511 -.97593199 .97593199 .21807511 87.53 248.252)"/><path d="M196.394 62.64a17.19 17.19 0 0 1 3.733.421 14.84 14.84 0 0 1 7.43 3.9c.905.939 2.354 2.83 1.882 4.942-.587 2.626-4.064 4.46-8.456 4.46a17.133 17.133 0 0 1-3.734-.422c-5.828-1.3-10.092-5.352-9.313-8.843.587-2.626 4.065-4.46 8.458-4.46m0-2c-5.269 0-9.583 2.33-10.408 6.024-1.037 4.638 3.814 9.666 10.826 11.238a19.128 19.128 0 0 0 4.171.47c5.269 0 9.583-2.33 10.408-6.024 1.036-4.635-3.812-9.664-10.828-11.232a19.178 19.178 0 0 0-4.17-.469z"/><ellipse cx="194.736" cy="98.632" rx="6.828" ry="9.104" transform="matrix(.99979717 -.02013974 .02013974 .99979717 -1.947 3.943)"/><path d="M147.13 125.111c3.926 11.862 13.4 19.595 22.647 17.809s15.162-12.487 14.391-24.958z"/><path d="M167.105 144.175c-8.685 0-17.177-7.428-20.924-18.75a1 1 0 0 1 .76-1.3l37.037-7.149a1 1 0 0 1 1.188.92c.817 13.209-5.576 24.144-15.2 26a15.132 15.132 0 0 1-2.861.279zm-18.65-18.3c4.029 10.963 12.781 17.678 21.132 16.064s13.976-11.1 13.635-22.775z"/></g><path d="M176.564 138.971c-3.753-3.592-10.1-4.662-16.064-2.252a17.713 17.713 0 0 0-4.123 2.342c4.029 3.244 8.742 4.758 13.4 3.859a14.683 14.683 0 0 0 7.112-3.625q-.159-.165-.325-.324z" fill="#ffa6e0"/><path d="M167.121 144.173a18.217 18.217 0 0 1-11.371-4.333 1 1 0 0 1 .02-1.574 18.818 18.818 0 0 1 4.355-2.475c6.124-2.476 13.008-1.487 17.13 2.458.121.116.239.233.354.354a1 1 0 0 1-.05 1.434 15.613 15.613 0 0 1-7.594 3.865 15.025 15.025 0 0 1-2.844.271zm-9.044-5.083a15.015 15.015 0 0 0 11.51 2.848 13.441 13.441 0 0 0 5.8-2.681c-3.609-3.042-9.343-3.7-14.511-1.611a16.92 16.92 0 0 0-2.799 1.444z" fill="#112c41"/><circle cx="31.508" cy="147.949" fill="#ffd6c0" r="30.5"/><path d="M60.437 157.932a33.178 33.178 0 0 1-5.358 5.413c-12.966 10.761-32.489 8.455-43.243-4.5-7.059-8.505-8.194-19.14-4.836-28.866-8.226 11.018-8.7 26.05.473 37.11a30.492 30.492 0 0 0 42.948 4c4.457-3.696 8.261-8.042 10.016-13.157z" fill="#f5b9ab"/><path d="M31.5 179.466a31.508 31.508 0 1 1 28.232-45.5 1 1 0 0 1-1.793.886A29.6 29.6 0 0 0 20.451 120.6a29.5 29.5 0 0 0 22.114 54.7A31.46 31.46 0 0 0 59.5 157.58a1 1 0 0 1 1.872.7 33.523 33.523 0 0 1-18.058 18.867 31.464 31.464 0 0 1-11.814 2.319z" fill="#112c41"/><path d="M49.253 146.854a1 1 0 0 1-.954-.7 17.277 17.277 0 0 0-21.49-11.55A16.764 16.764 0 0 0 16.2 144.713a1 1 0 0 1-1.872-.713 18.755 18.755 0 0 1 11.877-11.3 19.277 19.277 0 0 1 24 12.853 1 1 0 0 1-.953 1.3z" fill="#112c41"/><path d="M37 107.924c18.817-19.516 45.809-36.393 77.86-46.892a213.323 213.323 0 0 1 40.476-9.084 64.009 64.009 0 0 0-10.241-25.543c.136.1.282.188.408.288a75.849 75.849 0 0 1 22.07 24.157 187.56 187.56 0 0 1 7.542-.288c18.32-.309 35.367 2.184 50.027 7.2a1.861 1.861 0 0 0 2.318-2.511 89.573 89.573 0 0 0-17.986-25.972C182.5 2.165 139.131-7.2 99.331 8.89a108.729 108.729 0 0 0-18.955 9.918c-30.6 20.116-48.015 54.068-45.907 88.174a1.477 1.477 0 0 0 2.531.942z" fill="#fcaa51"/><path d="M37 107.924a155.9 155.9 0 0 1 15.824-14.263c-1.663-30.338 13.9-60.48 41.124-78.367a98.089 98.089 0 0 1 30.159-13.153 109.121 109.121 0 0 0-43.731 16.667c-30.6 20.116-48.015 54.068-45.907 88.174a1.477 1.477 0 0 0 2.531.942z" fill="#ff9522"/><path d="M35.93 109.2a2.435 2.435 0 0 1-.87-.157 2.671 2.671 0 0 1-1.619-2.551c-1.667-34.7 16.108-68.616 46.388-88.514A109.848 109.848 0 0 1 98.956 7.963 106.761 106.761 0 0 1 159.4 1.9a97.232 97.232 0 0 1 50.778 26.675 89.845 89.845 0 0 1 18.115 26.1 2.9 2.9 0 0 1-.331 3.24 3.092 3.092 0 0 1-3.314.741c-16.6-5.658-36.317-8.015-57.02-6.81a1.015 1.015 0 0 1-.92-.491 76.832 76.832 0 0 0-17.971-21.022 66.817 66.817 0 0 1 7.574 21.444 1 1 0 0 1-.864 1.164 212.386 212.386 0 0 0-40.28 9.038C84.77 71.937 57.4 88.362 38.093 108.229a3.06 3.06 0 0 1-2.163.971zm44.449-90.39.549.836C51.236 39.156 33.806 72.4 35.439 106.392c.01.2.061.675.328.776a.941.941 0 0 0 .891-.333c19.526-20.095 47.188-36.7 77.891-46.755a214.7 214.7 0 0 1 39.607-8.992 62.841 62.841 0 0 0-9.888-24.109 1 1 0 0 1 1.38-1.4 76.631 76.631 0 0 1 22.476 24.236c20.738-1.134 40.5 1.263 57.173 6.95a1.147 1.147 0 0 0 1.186-.191c.279-.308.116-.8 0-1.067a87.881 87.881 0 0 0-17.714-25.52 95.246 95.246 0 0 0-49.746-26.121 104.778 104.778 0 0 0-59.318 5.951 107.879 107.879 0 0 0-18.777 9.829z" fill="#112c41"/></svg></g><g transform="translate(760.0 1311.0) rotate(0.0 123.5 33.0) scale(1.0164609053497942 1.0153846153846153)"><svg width="243" height="65" viewBox="0 0 243 65"><g fill="#112c41"><path d="M21.936 65H1a1 1 0 0 1 0-2h20.936a1 1 0 1 1 0 2zM168 65H46.787a1 1 0 0 1 0-2H168a1 1 0 0 1 0 2zm74-63H139a1 1 0 0 1 0-2h103a1 1 0 0 1 0 2z"/></g></svg></g><g transform="translate(1364.0 880.0) rotate(0.0 39.0 52.5) scale(0.9728111748565726 0.9641696203926466)"><svg width="80.18" height="108.902" viewBox="0 0 80.18 108.902"><path d="M79.18 17.364c-15.462-4.577-31.345 2.6-35.325 18.388-4.463 17.7 15.524 31.891 21.248 21.3-7.326 14.26-31.19 4.283-33.215-18.888C29.706 13.2 52.549-4.1 74.824 2.363z" fill="#ffd169"/><path d="M54.366 64.655a16.369 16.369 0 0 1-3.14-.314C42.1 62.55 32.182 53.012 30.892 38.247A34.627 34.627 0 0 1 75.1 1.4a1 1 0 0 1 .682.681l4.355 15a1 1 0 0 1-1.237 1.242 28.95 28.95 0 0 0-22.452 2.143A24.21 24.21 0 0 0 44.824 36c-2.809 11.135 4.547 20.512 10.936 23 1.777.692 6.159 1.841 8.463-2.426a1 1 0 0 1 1.769.932 12.661 12.661 0 0 1-11.626 7.149zM65.349 2.013a32.6 32.6 0 0 0-32.465 36.06c1.2 13.781 10.332 22.658 18.727 24.305a12.11 12.11 0 0 0 7.434-.681 11.418 11.418 0 0 1-4.01-.834 20.78 20.78 0 0 1-10.026-9.282 22 22 0 0 1-2.124-16.073 26.511 26.511 0 0 1 12.568-16.78 30.683 30.683 0 0 1 22.272-2.788L74.019 3.175a32.993 32.993 0 0 0-8.67-1.162z" fill="#112c41"/><path d="M36.273 90.534c-13.39-6.093-24.21-24.239-18.4-38.859 6.282-15.8 30.849-19.195 42.472-8.712 2.348 2.118 7.961 6.755 4.756 14.085 3.205-7.33 1.1-12.57-.8-15.632C54.044 24.928 21.827 21.8 7.773 42.512-9.561 68.059 8.967 101.159 34.137 107.9c0 0 2.229-17.577 2.136-17.366z" fill="#ffe993"/><path d="M34.137 108.9a1 1 0 0 1-.259-.034c-13.6-3.642-25.791-15.155-31.069-29.331C-2.073 66.426-.6 53.077 6.946 41.951c6.614-9.751 17.691-15.19 30.417-14.939 11.964.239 22.61 5.556 27.784 13.877 3.161 5.082 3.454 10.654.872 16.559a1 1 0 1 1-1.832-.8c2.8-6.4-1.777-10.494-4.235-12.695l-.275-.247c-5.632-5.08-15.028-7.018-23.938-4.941-8.165 1.906-14.339 6.746-16.939 13.28-5.565 14.011 4.988 31.655 17.8 37.541.788.221.778.308.356 3.788-.2 1.631-.467 3.8-.738 5.974-.543 4.341-1.093 8.68-1.093 8.68a1 1 0 0 1-.992.874zM36.518 29C24.83 29 14.688 34.1 8.6 43.074 1.425 53.65.033 66.352 4.683 78.84c4.915 13.2 16.065 23.987 28.608 27.781.722-5.7 1.665-13.237 1.92-15.481a37.594 37.594 0 0 1-16.228-16.382c-4.126-8.049-4.849-16.378-2.037-23.452 2.842-7.151 9.527-12.432 18.339-14.488 9.529-2.224 19.628-.1 25.732 5.4l.27.242a20.436 20.436 0 0 1 4.261 4.9 14.929 14.929 0 0 0-2.1-5.418c-4.82-7.752-14.831-12.708-26.124-12.933Q36.919 29 36.518 29z" fill="#112c41"/></svg></g><g transform="translate(236.0 477.0) rotate(0.0 638.0 254.0) scale(0.9822940723633564 0.9809638935770039)"><svg width="1299" height="517.858" viewBox="0 0 1299 517.858"><path d="M1153 233c44.957-88.809 121-149 143-168-1-31 2-64 2-64-59 54-116.809 155.7-145 232z" fill="#ff90d8"/><path d="M1153 234a1 1 0 0 1-.937-1.347C1178.8 160.289 1235.663 56.7 1297.325.262a1 1 0 0 1 1.675.828c-.03.33-2.983 33.3-2 63.878a1 1 0 0 1-.345.789c-1.7 1.471-3.731 3.189-6.042 5.147-28.526 24.175-95.33 80.788-136.72 162.548a1 1 0 0 1-.893.548zM1296.789 3.48c-56.462 52.642-108.674 144.488-136.919 214.528 41.732-74.3 102.551-125.835 129.449-148.629 2.145-1.818 4.044-3.427 5.666-4.825-.791-25.613 1.14-52.754 1.804-61.074z" fill="#112c41"/><path d="M868 475c153-43 251-143 308-296-70 125-194 207-300 228a17.592 17.592 0 0 1 2 11c-1 6-4.264 7.584-5 12-1 6 2 7.288 2 13 0 5-5 8-3 15a17.543 17.543 0 0 1-4 17z" fill="#ffa9dc"/><path d="M868 476a1 1 0 0 1-.692-1.722 16.4 16.4 0 0 0 3.73-16c-1.3-4.56.146-7.595 1.424-10.273A11.689 11.689 0 0 0 874 443a14.587 14.587 0 0 0-1.112-5.479 13.445 13.445 0 0 1-.874-7.685 14.176 14.176 0 0 1 2.3-5.377 16.893 16.893 0 0 0 2.7-6.623 15.921 15.921 0 0 0-1.71-9.95A1.871 1.871 0 0 1 875 407a1 1 0 0 1 .806-.981c53.745-10.648 111.67-37.221 163.1-74.826 56.181-41.076 103.284-93.873 136.217-152.682a1 1 0 0 1 1.81.838c-58.763 157.732-159.729 254.756-308.666 296.614A1.011 1.011 0 0 1 868 476zm9.455-68.271a17.582 17.582 0 0 1 1.531 10.436 18.8 18.8 0 0 1-2.968 7.338 12.442 12.442 0 0 0-2.032 4.662 11.47 11.47 0 0 0 .785 6.681A16.686 16.686 0 0 1 876 443a13.384 13.384 0 0 1-1.733 5.863c-1.235 2.587-2.4 5.031-1.305 8.862a18.409 18.409 0 0 1-2.25 15.465c142.935-41.06 241.149-133.662 299.858-282.807-32.659 54.681-77.56 103.733-130.48 142.424-51.263 37.481-108.964 64.055-162.635 74.922z" fill="#112c41"/><path d="M342 423c-53-39-126-112-341-94 15 15 31 31 43 45 99-22 223-6 298 49z" fill="#ff90d8"/><path d="M342 424a1 1 0 0 1-.59-.193c-35.794-26.247-84.052-44.639-139.555-53.189-52.559-8.1-108.54-6.545-157.631 4.363a1 1 0 0 1-.976-.325C31.266 360.68 15.52 344.934.293 329.707A1 1 0 0 1 .917 328c197-16.492 275.581 43.7 327.58 83.53 4.922 3.77 9.571 7.331 14.1 10.66A1 1 0 0 1 342 424zm-207.793-60.5a448.062 448.062 0 0 1 67.945 5.14c44.937 6.921 85.167 20.271 117.957 39.006-51.679-39.265-131.036-92.924-316.876-77.827 14.61 14.612 29.564 29.629 41.135 43.075a420.871 420.871 0 0 1 89.839-9.394z" fill="#112c41"/><path d="M313.581 403.151Q300.458 393.59 287 383c142 87 314 79 451 65-.137.253-5.765 3.845-7.818 9.827-1.975 5.753.143 8.7-1.311 12.933-1.974 5.754-5.226 5.46-7.943 10.484-2.379 4.4.592 9.415-4.5 14.621A17.778 17.778 0 0 0 712 513c-113.812 10.433-237.518 7.373-398.419-109.849z" fill="#ffa9dc"/><path d="M637.5 517.838c-33.433 0-69.438-2.736-107.259-10.915-72.646-15.709-143.708-49.39-217.246-102.964a894.649 894.649 0 0 1-26.611-20.173 1 1 0 0 1 1.141-1.638c63.869 39.13 138.1 62.1 226.944 70.231 79.431 7.268 157.52 1.362 223.432-5.373a1 1 0 0 1 .981 1.47c-.12.223-.263.335-.687.665-1.341 1.047-5.424 4.233-7.064 9.01a16.864 16.864 0 0 0-.774 7.111 14.219 14.219 0 0 1-.537 5.823 13.452 13.452 0 0 1-4.425 6.344 14.6 14.6 0 0 0-3.585 4.29 11.691 11.691 0 0 0-1.026 5.132c-.15 2.963-.32 6.322-3.635 9.713a16.847 16.847 0 0 0-4.2 16.124 1 1 0 0 1-.859 1.308c-22.963 2.104-47.964 3.842-74.59 3.842zM314.17 402.342c73.308 53.408 144.122 86.977 216.49 102.626 67.174 14.526 128.673 11.812 180.083 7.143a18.589 18.589 0 0 1 4.973-16.945c2.786-2.85 2.923-5.554 3.068-8.417a13.389 13.389 0 0 1 1.264-5.981 16.664 16.664 0 0 1 4.009-4.828 11.479 11.479 0 0 0 3.869-5.5 12.458 12.458 0 0 0 .43-5.067 18.8 18.8 0 0 1 .88-7.867 20.514 20.514 0 0 1 5.629-8.178c-65.321 6.6-142.278 12.212-220.581 5.047-82.918-7.587-153.181-28.073-214.2-62.513a895.055 895.055 0 0 0 14.086 10.48z" fill="#112c41"/></svg></g></svg>