<svg xmlns="http://www.w3.org/2000/svg" viewBox="0 0 1800 1800" width="1800" height="1800"><g transform="translate(805.0 1138.0) rotate(0.0 224.0 37.5) scale(1.152868274506171 1.1433101114346254)"><svg width="388.596" height="65.599" viewBox="0 0 388.596 65.599"><ellipse cx="194.298" cy="32.799" fill="#cbc8ff" rx="194.298" ry="32.799"/></svg></g><g transform="translate(1265.0 273.0) rotate(0.0 95.0 45.0) scale(1.0059509943031406 1.0087424344317417)"><svg width="188.876" height="89.22" viewBox="0 0 188.876 89.22"><path d="m37.938 54.022-6.605-47.31a1.25 1.25 0 0 0-1.316-1.075L2.175 7.355a1.25 1.25 0 0 0-.92 2.002l34.448 45.592c.777 1.029 2.414.35 2.235-.927z" fill="#ffe993"/><path d="M36.685 56.451a2.22 2.22 0 0 1-1.781-.899L.457 9.959a2.249 2.249 0 0 1 1.656-3.603l27.843-1.719c1.164-.081 2.206.778 2.367 1.935l6.604 47.311a2.224 2.224 0 0 1-1.367 2.391 2.276 2.276 0 0 1-.875.177zm-6.59-49.817h-.015L2.237 8.353a.237.237 0 0 0-.212.146.236.236 0 0 0 .028.255L36.5 54.346c.029.038.117.154.296.08s.159-.219.152-.266L30.344 6.85a.253.253 0 0 0-.249-.216z" fill="#112c41"/><path d="M85.953 58.999 102.1 1.649a.891.891 0 0 1 1.578-.283l17.355 23.837a.89.89 0 0 1-.09 1.154L87.44 59.871c-.649.648-1.736.011-1.487-.872z" fill="#ffe993"/><path d="M86.817 61.137c-.328 0-.659-.087-.962-.266a1.866 1.866 0 0 1-.864-2.143v-.001l16.146-57.35a1.879 1.879 0 0 1 1.487-1.349 1.866 1.866 0 0 1 1.861.749l17.355 23.837a1.88 1.88 0 0 1-.192 2.45L88.147 60.578a1.877 1.877 0 0 1-1.33.559zM85.953 59l.962.271zm17.048-56.863-15.972 56.73 33.139-33.15z" fill="#112c41"/><path d="m161.594 57.481-30.559 29.171c-.678.648-.049 1.773.858 1.535l55.306-14.529c.78-.205.926-1.249.232-1.66l-24.746-14.642a.91.91 0 0 0-1.091.125z" fill="#ffe993"/><path d="M131.647 89.219a1.882 1.882 0 0 1-1.651-.979 1.886 1.886 0 0 1 .348-2.312l30.56-29.171-.001.001a1.915 1.915 0 0 1 2.29-.263l24.747 14.642a1.903 1.903 0 0 1 .918 1.906 1.9 1.9 0 0 1-1.404 1.581l-55.306 14.529a1.944 1.944 0 0 1-.501.066zm30.587-30.967-30.251 28.877 54.749-14.383zm.052-.048c-.001 0-.001 0 0 0zm-.692-.723h.01z" fill="#112c41"/></svg></g><g transform="translate(1118.0 349.0) rotate(0.0 101.5 75.5) scale(1.0065450218167393 1.00265604249668)"><svg width="201.68" height="150.6" viewBox="0 0 201.68 150.6"><path d="M1 97.18V1h59.94c2.71 0 4.91 2.2 4.91 4.91-.02 1.64-.42 2.82-1.12 3.71-.69.88-1.68 1.45-2.87 1.88-9.85 3.54-16.6 10.78-16.6 19.14 0 11.84 13.56 21.44 30.3 21.44 16.73 0 30.29-9.6 30.29-21.44 0-8.36-6.82-15.41-16.6-19.14-2.59-.98-3.99-2.07-3.99-5.59 0-1.36.55-2.58 1.44-3.47.89-.89 2.11-1.44 3.47-1.44h59.43v59.42c0 1.36.55 2.59 1.44 3.48s2.11 1.44 3.47 1.44c3.52 0 4.61-1.41 5.59-3.99 3.73-9.78 10.78-16.61 19.14-16.61 11.84 0 21.44 13.57 21.44 30.29 0 16.75-9.6 30.31-21.44 30.31-8.36 0-15.6-6.76-19.14-16.61-.85-2.37-2.31-3.95-5.59-3.99-2.71 0-4.91 2.2-4.91 4.92v59.94H53.42c-24.2 0-44.56-16.41-50.59-38.71A52.077 52.077 0 0 1 1 97.18z" fill="#ffa9dc"/><path d="M149.6 150.6H53.42c-24.074 0-45.274-16.222-51.555-39.449A53.17 53.17 0 0 1 0 97.18V1a1 1 0 0 1 1-1h59.94c3.259 0 5.91 2.65 5.91 5.909-.021 1.803-.458 3.215-1.334 4.328-.747.954-1.801 1.654-3.314 2.203-9.835 3.534-15.942 10.507-15.942 18.2 0 11.271 13.144 20.439 29.3 20.439 16.15 0 29.29-9.169 29.29-20.439 0-7.477-6.114-14.452-15.956-18.205C85.96 11.324 84.26 9.9 84.26 5.91c0-1.577.615-3.061 1.733-4.177A5.873 5.873 0 0 1 90.17 0h59.43a1 1 0 0 1 1 1v59.42a3.89 3.89 0 0 0 1.147 2.772 3.882 3.882 0 0 0 2.763 1.147c3.051 0 3.792-1.071 4.655-3.345 4.06-10.645 11.752-17.256 20.075-17.256 12.373 0 22.439 14.037 22.439 31.29 0 17.265-10.066 31.311-22.439 31.311-8.558 0-16.253-6.618-20.082-17.272-.707-1.973-1.77-3.293-4.66-3.328-2.145 0-3.898 1.759-3.898 3.92v59.94a1 1 0 0 1-1 1.001zM2 2v95.18c0 4.551.604 9.075 1.795 13.447C9.841 132.986 30.247 148.6 53.42 148.6h95.18V89.66c0-3.265 2.651-5.92 5.91-5.92 3.336.041 5.408 1.52 6.531 4.652 3.535 9.837 10.509 15.948 18.199 15.948 11.271 0 20.439-13.148 20.439-29.311 0-16.15-9.169-29.29-20.439-29.29-7.474 0-14.45 6.118-18.206 15.967-1.114 2.935-2.539 4.634-6.524 4.634a5.867 5.867 0 0 1-4.177-1.733 5.876 5.876 0 0 1-1.733-4.187V2H90.17c-1.042 0-2.023.407-2.763 1.146S86.26 4.867 86.26 5.909c0 3.055 1.071 3.795 3.345 4.655 10.638 4.057 17.245 11.749 17.245 20.075 0 12.373-14.037 22.439-31.29 22.439-17.259 0-31.3-10.066-31.3-22.439 0-8.561 6.614-16.255 17.263-20.081 1.144-.414 1.913-.908 2.42-1.556.595-.757.892-1.771.907-3.105C64.85 3.754 63.096 2 60.94 2z" fill="#112c41"/></svg></g><g transform="translate(1217.0 567.0) rotate(0.0 101.5 76.0) scale(1.0065450218167393 1.0092961487383798)"><svg width="201.68" height="150.6" viewBox="0 0 201.68 150.6"><path d="M1 97.18V1h59.94c2.71 0 4.91 2.2 4.91 4.91-.02 1.64-.42 2.82-1.12 3.71-.69.88-1.68 1.45-2.87 1.88-9.85 3.54-16.6 10.78-16.6 19.14 0 11.84 13.56 21.44 30.3 21.44 16.73 0 30.29-9.6 30.29-21.44 0-8.36-6.82-15.41-16.6-19.14-2.59-.98-3.99-2.07-3.99-5.59 0-1.36.55-2.58 1.44-3.47.89-.89 2.11-1.44 3.47-1.44h59.43v59.42c0 1.36.55 2.59 1.44 3.48s2.11 1.44 3.47 1.44c3.52 0 4.61-1.41 5.59-3.99 3.73-9.78 10.78-16.61 19.14-16.61 11.84 0 21.44 13.57 21.44 30.29 0 16.75-9.6 30.31-21.44 30.31-8.36 0-15.6-6.76-19.14-16.61-.85-2.37-2.31-3.95-5.59-3.99-2.71 0-4.91 2.2-4.91 4.92v59.94H53.42c-24.2 0-44.56-16.41-50.59-38.71A52.077 52.077 0 0 1 1 97.18z" fill="#9dd9f4"/><path d="M149.6 150.599H53.42c-24.074 0-45.274-16.222-51.555-39.449A53.202 53.202 0 0 1 0 97.18V1a1 1 0 0 1 1-1h59.94a5.916 5.916 0 0 1 5.91 5.91c-.022 1.805-.459 3.216-1.334 4.328-.75.956-1.804 1.656-3.316 2.202-9.833 3.534-15.94 10.507-15.94 18.199 0 11.271 13.145 20.44 29.301 20.44 16.15 0 29.29-9.17 29.29-20.44 0-7.476-6.114-14.451-15.957-18.205-2.934-1.109-4.634-2.533-4.634-6.524 0-1.576.615-3.059 1.733-4.177A5.864 5.864 0 0 1 90.17 0h59.43a1 1 0 0 1 1 1v59.42c0 1.048.407 2.033 1.146 2.773a3.887 3.887 0 0 0 2.763 1.146c3.051 0 3.792-1.071 4.656-3.346 4.059-10.643 11.751-17.254 20.074-17.254 12.374 0 22.44 14.037 22.44 31.29 0 17.264-10.066 31.31-22.44 31.31-8.558 0-16.252-6.618-20.081-17.271-.708-1.973-1.771-3.293-4.661-3.328-2.144 0-3.897 1.759-3.897 3.92v59.939a1 1 0 0 1-1 1zM2 2v95.18c0 4.548.604 9.072 1.795 13.447C9.841 132.985 30.247 148.6 53.42 148.6h95.18V89.66c0-3.265 2.65-5.92 5.909-5.92 3.336.041 5.407 1.519 6.532 4.652 3.535 9.837 10.509 15.947 18.198 15.947 11.271 0 20.44-13.148 20.44-29.31 0-16.15-9.17-29.29-20.44-29.29-7.474 0-14.449 6.118-18.205 15.966-1.115 2.935-2.541 4.634-6.525 4.634a5.874 5.874 0 0 1-4.177-1.732 5.885 5.885 0 0 1-1.732-4.188V2H90.17c-1.042 0-2.023.407-2.763 1.147S86.26 4.869 86.26 5.91c0 3.056 1.071 3.795 3.344 4.654 10.64 4.059 17.247 11.75 17.247 20.075 0 12.374-14.037 22.44-31.29 22.44-17.26 0-31.301-10.066-31.301-22.44 0-8.56 6.614-16.254 17.263-20.081 1.143-.412 1.912-.907 2.421-1.556.594-.755.891-1.77.907-3.105A3.913 3.913 0 0 0 60.94 2z" fill="#112c41"/></svg></g><g transform="translate(1367.0 516.0) rotate(0.0 75.5 101.0) scale(1.00265604249668 1.001586671955573)"><svg width="150.6" height="201.68" viewBox="0 0 150.6 201.68"><path d="M97.18 200.68H1v-59.94c0-2.71 2.2-4.91 4.91-4.91 1.64.02 2.82.42 3.71 1.12.88.69 1.45 1.68 1.88 2.87 3.54 9.85 10.78 16.6 19.14 16.6 11.84 0 21.44-13.56 21.44-30.3 0-16.73-9.6-30.29-21.44-30.29-8.36 0-15.41 6.82-19.14 16.6-.98 2.59-2.07 3.99-5.59 3.99-1.36 0-2.58-.55-3.47-1.44A4.881 4.881 0 0 1 1 111.51V52.08h59.42c1.36 0 2.59-.55 3.48-1.44s1.44-2.11 1.44-3.47c0-3.52-1.41-4.61-3.99-5.59-9.78-3.73-16.61-10.78-16.61-19.14C44.74 10.6 58.31 1 75.03 1c16.75 0 30.31 9.6 30.31 21.44 0 8.36-6.76 15.6-16.61 19.14-2.37.85-3.95 2.31-3.99 5.59 0 2.71 2.2 4.91 4.92 4.91h59.94v96.18c0 24.2-16.41 44.56-38.71 50.59a52.077 52.077 0 0 1-13.71 1.83z" fill="#ffe993"/><path d="M97.18 201.68H1a1 1 0 0 1-1-1v-59.94c0-3.259 2.65-5.91 5.909-5.91 1.805.022 3.216.459 4.328 1.334.954.748 1.655 1.802 2.203 3.315 3.533 9.834 10.506 15.941 18.199 15.941 11.271 0 20.439-13.145 20.439-29.301 0-16.15-9.169-29.29-20.439-29.29-7.477 0-14.452 6.114-18.205 15.957-1.111 2.934-2.535 4.634-6.525 4.634a5.869 5.869 0 0 1-4.177-1.733A5.869 5.869 0 0 1 0 111.51V52.08a1 1 0 0 1 1-1h59.42a3.893 3.893 0 0 0 2.772-1.146 3.886 3.886 0 0 0 1.147-2.763c0-3.051-1.071-3.792-3.346-4.656-10.644-4.059-17.255-11.75-17.255-20.074C43.739 10.066 57.776 0 75.029 0c17.265 0 31.311 10.066 31.311 22.44 0 8.558-6.618 16.252-17.272 20.081-1.973.708-3.293 1.771-3.328 4.661 0 2.144 1.759 3.897 3.92 3.897h59.94a1 1 0 0 1 1 1v96.181c0 24.074-16.222 45.274-39.449 51.555a53.226 53.226 0 0 1-13.971 1.865zm-95.18-2h95.18c4.547 0 9.071-.604 13.447-1.795 22.358-6.046 37.973-26.452 37.973-49.625V53.08H89.66c-3.265 0-5.92-2.65-5.92-5.909.041-3.336 1.519-5.407 4.652-6.532 9.837-3.535 15.948-10.509 15.948-18.198C104.34 11.17 91.191 2 75.029 2c-16.15 0-29.29 9.17-29.29 20.44 0 7.474 6.118 14.45 15.967 18.205 2.935 1.115 4.634 2.541 4.634 6.525a5.874 5.874 0 0 1-1.733 4.177 5.881 5.881 0 0 1-4.187 1.732H2v58.431c0 1.042.407 2.023 1.146 2.763a3.882 3.882 0 0 0 2.763 1.147c3.055 0 3.795-1.071 4.655-3.345C14.622 101.437 22.313 94.83 30.64 94.83c12.373 0 22.439 14.037 22.439 31.29 0 17.26-10.066 31.301-22.439 31.301-8.561 0-16.255-6.614-20.081-17.263-.414-1.144-.908-1.913-1.557-2.421-.755-.595-1.77-.891-3.105-.907-2.143 0-3.896 1.754-3.896 3.91v58.94z" fill="#112c41"/></svg></g><g transform="translate(1316.0 419.0) rotate(0.0 100.5 75.0) scale(0.996628322094407 0.9960159362549801)"><svg width="201.68" height="150.6" viewBox="0 0 201.68 150.6"><path d="M200.68 53.42v96.18h-59.94c-2.71 0-4.91-2.2-4.91-4.91.02-1.64.42-2.82 1.12-3.71.69-.88 1.68-1.45 2.87-1.88 9.85-3.54 16.6-10.78 16.6-19.14 0-11.84-13.56-21.44-30.3-21.44-16.73 0-30.29 9.6-30.29 21.44 0 8.36 6.82 15.41 16.6 19.14 2.59.98 3.99 2.07 3.99 5.59 0 1.36-.55 2.58-1.44 3.47s-2.11 1.44-3.47 1.44H52.08V90.18c0-1.36-.55-2.59-1.44-3.48s-2.11-1.44-3.47-1.44c-3.52 0-4.61 1.41-5.59 3.99-3.73 9.78-10.78 16.61-19.14 16.61C10.6 105.86 1 92.29 1 75.57c0-16.75 9.6-30.31 21.44-30.31 8.36 0 15.6 6.76 19.14 16.61.85 2.37 2.31 3.95 5.59 3.99 2.71 0 4.91-2.2 4.91-4.92V1h96.18c24.2 0 44.56 16.41 50.59 38.71 1.19 4.37 1.83 8.96 1.83 13.71z" fill="#cbc8ff"/><path d="M200.68 150.6h-59.94a5.916 5.916 0 0 1-5.91-5.91c.021-1.803.458-3.215 1.334-4.328.749-.956 1.804-1.656 3.316-2.202 9.832-3.534 15.939-10.507 15.939-18.199 0-11.271-13.144-20.44-29.3-20.44-16.15 0-29.29 9.17-29.29 20.44 0 7.475 6.114 14.451 15.956 18.205 2.934 1.109 4.634 2.533 4.634 6.524a5.87 5.87 0 0 1-1.732 4.177 5.871 5.871 0 0 1-4.178 1.733H52.08a1 1 0 0 1-1-1V90.18a3.894 3.894 0 0 0-1.147-2.773 3.884 3.884 0 0 0-2.763-1.146c-3.051 0-3.792 1.071-4.655 3.345-4.06 10.644-11.752 17.255-20.074 17.255C10.066 106.86 0 92.822 0 75.57c0-17.264 10.066-31.31 22.44-31.31 8.558 0 16.252 6.618 20.081 17.271.707 1.973 1.77 3.293 4.66 3.328 2.145 0 3.898-1.759 3.898-3.92V1a1 1 0 0 1 1-1h96.18c24.075 0 45.275 16.222 51.556 39.449a53.2 53.2 0 0 1 1.864 13.971v96.18a.998.998 0 0 1-.999 1zm-74.56-53.08c17.259 0 31.3 10.066 31.3 22.44 0 8.56-6.614 16.254-17.262 20.081-1.143.412-1.913.907-2.421 1.556-.595.756-.892 1.771-.907 3.104 0 2.145 1.754 3.898 3.91 3.898h58.939V53.42c0-4.552-.604-9.076-1.795-13.447C191.84 17.614 171.434 2 148.26 2H53.08v58.94c0 3.265-2.651 5.92-5.91 5.92-3.336-.041-5.408-1.52-6.531-4.652C37.104 52.37 30.13 46.26 22.44 46.26 11.17 46.26 2 59.408 2 75.57c0 16.15 9.17 29.29 20.44 29.29 7.473 0 14.448-6.118 18.205-15.966 1.114-2.935 2.539-4.634 6.524-4.634a5.87 5.87 0 0 1 4.177 1.732 5.879 5.879 0 0 1 1.733 4.188v58.42h58.43a3.887 3.887 0 0 0 2.764-1.147 3.884 3.884 0 0 0 1.146-2.763c0-3.056-1.071-3.795-3.344-4.654-10.639-4.059-17.246-11.75-17.246-20.075.001-12.375 14.038-22.441 31.291-22.441z" fill="#112c41"/></svg></g><g transform="translate(237.0 889.0) rotate(0.0 398.0 374.5) scale(1.0011243783847688 1.000694741342454)"><svg width="795.106" height="748.48" viewBox="0 0 795.106 748.48"><path d="M484.104 559.005a833.584 833.584 0 0 1-18.151-34.642l-.107-.19c-.036-.078-.078-.148-.107-.205-5.917-11.965-11.675-23.575-16.618-33.754 0 0-82.447 44.541-129.795 62.997 5.773 11.202 11.356 20.297 17.951 31.892a14737.92 14737.92 0 0 0 21.066 36.931z" fill="#ffd6c0"/><path d="m431.538 489.89 38.543 76.322c4.671.541 13.714 1.685 16.872 1.52-15.217-30.552-40.7-81.783-40.7-81.783z" fill="#f5b9ab"/><path d="M358.344 623.034a1 1 0 0 1-.868-.503c-.098-.17-9.863-17.224-21.068-36.934-1.965-3.456-3.841-6.689-5.658-9.822-4.242-7.314-8.25-14.224-12.312-22.106a1 1 0 0 1 .525-1.39c46.749-18.224 128.859-62.5 129.683-62.945a1.003 1.003 0 0 1 1.375.444c4.309 8.873 9.188 18.734 14.353 29.176l2.262 4.571c.051.095.086.159.118.229l.071.12c6.047 12.203 11.808 23.198 18.153 34.647a1.002 1.002 0 0 1-.426 1.378l-125.76 63.029a.999.999 0 0 1-.448.106zm-37.619-69.297c3.867 7.435 7.703 14.049 11.755 21.034 1.82 3.139 3.698 6.377 5.667 9.838a15345.328 15345.328 0 0 0 20.595 36.106l123.982-62.138c-6.163-11.15-11.79-21.908-17.667-33.771l-.083-.146a18.803 18.803 0 0 1-.129-.247l-2.263-4.575c-4.986-10.078-9.705-19.616-13.904-28.252-9.132 4.905-83.637 44.709-127.953 62.151z" fill="#112c41"/><path d="M339.713 722.847c50.365-8.978 106.129-41.231 148.683-76.076 12.403-10.162 23.688-20.532 33.383-30.62 0 0-24.164-35.272-37.675-57.146l-10.144 5.119s-115.27 57.831-115.616 57.91c-6.198 9.307-32.935 54.193-18.631 100.813z" fill="#ffa9dc"/><path d="M521.778 616.151s-24.164-35.272-37.675-57.146l-11.284 8.524c9.263 20.474 24.222 52.242 23.586 72.751-.006.216 15.678-14.041 25.373-24.129z" fill="#ff90d8"/><path d="M339.712 723.847a1 1 0 0 1-.955-.707c-14.694-47.89 13.045-93.086 18.754-101.66.112-.167.271-.296.455-.371 2.171-.998 114.409-57.309 115.545-57.878l10.141-5.118a1 1 0 0 1 1.301.367c13.345 21.604 37.408 56.753 37.649 57.105.268.392.224.917-.104 1.259-9.832 10.23-21.092 20.56-33.47 30.7-48.582 39.782-104.335 68.301-149.141 76.287a.942.942 0 0 1-.175.016zm19.328-101.054c-3.997 6.059-32.583 51.766-18.628 98.911 44.335-8.143 99.335-36.391 147.349-75.707 12.081-9.897 23.089-19.972 32.731-29.954-3.365-4.928-24.343-35.717-36.757-55.732l-9.325 4.706c-97.994 49.165-112.979 56.623-115.37 57.776z" fill="#112c41"/><path d="M422.244 694.865a2.501 2.501 0 0 1-2.477-2.183c-2.414-18.835 4.186-36.723 22.066-59.812 17.25-22.276 19.562-38.446 8.835-61.792a2.498 2.498 0 0 1 1.228-3.315 2.498 2.498 0 0 1 3.315 1.228c11.513 25.058 8.959 43.2-9.425 66.94-21.36 27.584-22.633 43.847-21.061 56.117a2.499 2.499 0 0 1-2.481 2.817z" fill="#fff"/><path d="M347.973 744.477c.763 1.402 1.929 2.39 3.686 2.677 31.996 5.239 139.98-53.824 181.202-101.876 3.531-4.116 2.997-7.249 1.53-10.232l-12.614-18.895c-42.979 44.697-117.023 95.099-182.066 106.696 2.178 7.712 4.814 15.294 8.262 21.63z" fill="#fff"/><path d="M355.932 748.469c-1.614 0-3.095-.108-4.434-.327-1.944-.318-3.425-1.39-4.403-3.187-3.052-5.607-5.782-12.75-8.345-21.837a1 1 0 0 1 .787-1.256c65.68-11.711 140.136-63.366 181.52-106.405a.988.988 0 0 1 .809-.303.995.995 0 0 1 .743.44l12.614 18.896c.024.037.046.075.066.114 1.45 2.948 2.385 6.599-1.669 11.325-19.167 22.342-54.431 48.938-94.333 71.145-35.495 19.754-66.601 31.394-83.355 31.395zm-14.955-24.835c2.434 8.438 5.014 15.108 7.875 20.366.676 1.242 1.647 1.951 2.969 2.167 1.243.204 2.621.304 4.113.304 34.904.005 135.36-54.274 176.169-101.844 3.084-3.596 2.806-6.236 1.42-9.081l-11.888-17.808c-41.537 42.844-115.263 93.819-180.658 105.896z" fill="#112c41"/><path d="M484.101 559.002c-32.931 27.529-87.474 53.737-125.757 63.033 0 0-7.939-14.018-17.927-31.407-.348-.602-.694-1.214-1.04-1.826s-.692-1.224-1.048-1.837l-1.054-1.859c35.298-9.148 86.881-34.95 128.324-61.387 0 0 .045.089.138.249.03.056.079.126.106.202.038.068.079.126.107.192a833.508 833.508 0 0 0 18.151 34.64z" fill="#fff"/><g fill="#112c41"><path d="M358.344 623.034a.999.999 0 0 1-.87-.507c-.08-.141-8.051-14.215-17.924-31.401a234.71 234.71 0 0 1-1.043-1.832c-.344-.609-.688-1.217-1.042-1.827l-1.059-1.868a.998.998 0 0 1 .619-1.461c32.744-8.485 83.001-32.532 128.038-61.262a1 1 0 0 1 1.434.4c.005.011.04.077.104.187.056.097.101.178.136.254.059.1.098.172.131.248 5.997 12.101 11.757 23.095 18.108 34.553a1 1 0 0 1-.233 1.252c-31.336 26.195-85.574 53.382-126.163 63.237a1.062 1.062 0 0 1-.236.027zm-19.559-37.292.415.731c.352.606.7 1.221 1.048 1.837.345.608.689 1.218 1.036 1.817a6894.642 6894.642 0 0 1 17.558 30.755c39.974-9.872 92.949-36.417 123.984-62.121a830.107 830.107 0 0 1-17.604-33.617c-44.388 28.21-93.714 51.843-126.437 60.598z"/><path d="M484.102 560.002a.997.997 0 0 1-.875-.516c-6.367-11.487-12.142-22.508-18.173-34.68a22.698 22.698 0 0 1-.079-.14.982.982 0 0 1-.075-.165 4.436 4.436 0 0 1-.197-.34 1.002 1.002 0 0 1 .457-1.338.997.997 0 0 1 1.334.448c.007.014.042.08.106.189.055.095.1.176.136.254.059.1.098.172.131.248a830.9 830.9 0 0 0 18.108 34.554 1 1 0 0 1-.873 1.486zm-125.757 63.032c-.347 0-.684-.181-.869-.503 0 0-7.991-13.957-17.928-31.408-.346-.601-.694-1.214-1.042-1.829-.349-.616-.69-1.222-1.042-1.827l-1.059-1.868a1 1 0 0 1 1.739-.986l1.055 1.86c.35.603.695 1.214 1.041 1.824.352.622.697 1.231 1.043 1.831 9.938 17.454 17.928 31.409 17.928 31.409a1.001 1.001 0 0 1-.866 1.497z"/></g><circle cx="382.979" cy="640.755" fill="#ffe993" r="8.5"/><path d="M383.081 643.704c-13.483 7.24-31.805 7.911-38.053 6.187a2.833 2.833 0 0 1 1.507-5.461c4.797 1.324 22.351.828 34.64-6.144a2.831 2.831 0 1 1 2.798 4.924c-.294.168-.592.333-.892.494z" fill="#fff"/><path d="M353.126 651.694c-3.547 0-6.475-.318-8.364-.84a3.833 3.833 0 0 1 2.038-7.389c4.672 1.289 21.831.787 33.881-6.05a3.842 3.842 0 0 1 5.225 1.439c.505.89.635 1.923.363 2.91a3.801 3.801 0 0 1-1.801 2.314c-.302.171-.606.34-.912.505h-.001c-9.817 5.274-21.908 7.111-30.429 7.111zm-7.343-6.367a1.834 1.834 0 0 0-.489 3.6c5.979 1.65 24.067 1.009 37.314-6.104.292-.157.584-.319.872-.482.425-.241.73-.634.86-1.105.13-.473.068-.966-.173-1.392a1.839 1.839 0 0 0-2.5-.688c-12.524 7.104-30.49 7.596-35.399 6.237a1.845 1.845 0 0 0-.485-.066zm37.298-1.623h.01z" fill="#112c41"/><circle cx="378.164" cy="667.199" fill="#ffe993" r="8.5"/><path d="M378.179 670.15c-13.692 6.838-33.898 5.744-40.093 3.835a2.833 2.833 0 0 1 1.668-5.414c4.755 1.465 24.189 2.712 36.68-3.893a2.832 2.832 0 0 1 2.651 5.005c-.3.16-.602.316-.906.467z" fill="#fff"/><path d="M351.739 676.414c-6.262 0-11.463-.707-13.948-1.473a3.838 3.838 0 0 1-2.534-4.791c.301-.979.965-1.78 1.87-2.259s1.943-.574 2.92-.275c4.371 1.349 23.482 2.755 35.918-3.821a3.842 3.842 0 0 1 5.18 1.593c.479.904.577 1.941.276 2.92s-.965 1.781-1.87 2.26c-.305.162-.616.322-.927.478-8.208 4.099-18.498 5.368-26.885 5.368zm-12.822-6.969a1.82 1.82 0 0 0-.854.214 1.834 1.834 0 0 0 .318 3.37c5.595 1.727 25.519 3.135 39.351-3.773.296-.147.591-.3.883-.455.434-.229.751-.613.896-1.081a1.82 1.82 0 0 0-.132-1.396 1.837 1.837 0 0 0-2.478-.761c-12.947 6.849-32.879 5.372-37.441 3.966a1.814 1.814 0 0 0-.543-.084z" fill="#112c41"/><path d="M177.433 88.019c-8.633 8.801-18.19 19.109-26.876 28.688-15.409 16.984-28.092 31.678-28.092 31.678l-.228.254c24.793 84.983 98.897 99.438 98.897 99.438a832.293 832.293 0 0 1 27.256-28.047l.148-.161c.063-.058.116-.12.161-.165 9.523-9.353 18.035-17.357 26.166-25.227 0 0-64.316-68.054-96.616-107.288-.272.275-.543.552-.816.83z" fill="#ffd6c0"/><path d="M208.738 237.391c.928 4.609 2.633 13.564 3.766 16.517 24.359-23.909 65.63-62.625 65.63-62.625l-8.709-14.124z" fill="#f5b9ab"/><path d="m122.812 149.589-.022-.067c-.187-.295-.375-.591-.558-.895-10.774-2.987-61.957-14.784-101.793 13.342 31.297 58.185 102.275 112.822 158.144 139.723 0 0 25.98-33.957 42.55-53.614" fill="#ffa9dc"/><path d="M177.207 301.984s26.084-33.876 42.716-53.482l-11.593-8.1c-16.612 15.134-42.207 39.174-61.909 44.903-.207.059 18.197 10.574 30.786 16.679z" fill="#ff90d8"/><path d="M178.582 302.691c-.146 0-.294-.032-.434-.099-54.081-26.041-126.777-81.006-158.591-140.15a1.001 1.001 0 0 1 .304-1.291c40.597-28.662 92.62-16.265 102.637-13.489a.997.997 0 0 1 .59.449c.179.297.362.586.545.874.045.07.081.146.107.227.171.524-.104 1.123-.63 1.294-.504.166-1.036-.063-1.228-.548-.1-.156-.199-.313-.297-.473-10.668-2.904-60.577-14.361-99.842 12.792 31.676 58.188 103.061 112.23 156.542 138.159 3.682-4.799 26.945-35.045 42.084-53.004a1 1 0 0 1 1.529 1.289c-16.366 19.414-42.261 53.238-42.521 53.577a.997.997 0 0 1-.795.393z" fill="#112c41"/><path d="M163.868 239.329c-8.469 0-17.7-2.052-28.383-6.045-32.677-12.214-48.586-8.605-59.839-3.465a2.499 2.499 0 1 1-2.078-4.546c17.272-7.893 36.313-6.897 63.668 3.328 26.391 9.866 42.519 7.275 61.631-9.894a2.5 2.5 0 1 1 3.342 3.718c-12.723 11.431-24.513 16.904-38.341 16.904z" fill="#fff"/><path d="M2.463 176.562c-1.095 1.163-1.669 2.577-1.395 4.337 4.998 32.035 94.786 116.22 153.295 140.405 5.012 2.072 7.822.588 10.199-1.736l14.02-17.876c-55.869-26.901-126.845-81.539-158.144-139.723-6.648 4.472-13.03 9.341-17.975 14.593z" fill="#fff"/><path d="M158.735 323.293c-1.363.001-2.928-.311-4.753-1.065-27.205-11.245-63.47-36.459-97.011-67.448C24.259 224.557 2.46 196.306.08 181.053c-.303-1.947.253-3.688 1.655-5.177 4.376-4.648 10.312-9.469 18.146-14.737a.998.998 0 0 1 1.439.356c31.605 58.753 103.9 113.392 157.697 139.295a1 1 0 0 1 .352 1.519l-14.021 17.876a1.15 1.15 0 0 1-.087.098c-1.603 1.568-3.593 3.01-6.526 3.01zM20.085 163.415c-7.258 4.943-12.792 9.475-16.895 13.832-.97 1.03-1.341 2.174-1.135 3.497 4.736 30.346 92.292 114.669 152.69 139.636 4.379 1.809 6.801.721 9.072-1.482l13.213-16.847c-53.659-26.11-125.08-80.269-156.945-138.636zM2.463 176.562h.01z" fill="#112c41"/><path d="M150.554 116.705c-15.403 16.991-28.085 31.678-28.085 31.678.103.387.221.802.347 1.204 22.244 36.145 61.663 75.633 98.305 98.485l.012.008a831.343 831.343 0 0 1 27.259-28.048c.049-.062.099-.113.149-.165.06-.054.109-.115.159-.167.033-.037.058-.063.083-.089.074-.087.116-.127.116-.127-38.045-31.12-78.648-72.095-98.345-102.779z" fill="#fff"/><path d="M221.132 249.08a.994.994 0 0 1-.554-.168c-36.697-22.887-76.332-62.596-98.613-98.801a1.019 1.019 0 0 1-.103-.225 30.193 30.193 0 0 1-.36-1.248 1 1 0 0 1 .21-.909c.127-.147 12.866-14.892 28.101-31.696a.966.966 0 0 1 .824-.324c.31.025.59.194.758.456 18.286 28.486 56.808 68.737 98.138 102.545a1 1 0 0 1 .053 1.502 2.473 2.473 0 0 1-.082.093l-.086.093a2.942 2.942 0 0 1-.209.215c.022-.02-.005.007-.033.042a1.161 1.161 0 0 1-.082.091c-9.699 9.537-18.35 18.439-27.227 28.015-.196.21-.464.319-.735.319zm-97.398-99.91c22.006 35.711 60.986 74.834 97.229 97.623 8.622-9.283 17.057-17.957 26.468-27.219-40.636-33.356-78.474-72.851-97.01-101.233a1995.567 1995.567 0 0 0-26.846 30.292c.05.179.104.358.159.537z" fill="#112c41"/><path d="M221.132 249.08a.994.994 0 0 1-.554-.168c-36.697-22.887-76.332-62.596-98.613-98.801a1.019 1.019 0 0 1-.103-.225 30.193 30.193 0 0 1-.36-1.248 1 1 0 0 1 .21-.909c.127-.147 12.866-14.892 28.101-31.696 10.584-11.667 19.912-21.609 27.722-29.55.199-.202.479-.311.757-.298.283.013.548.145.728.363 31.912 38.762 95.926 106.565 96.569 107.246a1 1 0 0 1-.032 1.405c-3.086 2.986-6.229 5.993-9.46 9.086-5.282 5.054-10.743 10.28-16.613 16.039l-.786-.623.692.725a2.642 2.642 0 0 1-.182.186c.022-.02-.005.007-.033.042a1.161 1.161 0 0 1-.082.091c-9.699 9.537-18.35 18.439-27.227 28.015a.997.997 0 0 1-.734.32zm-97.398-99.91c22.006 35.711 60.986 74.834 97.229 97.623 8.689-9.356 17.189-18.094 26.69-27.438.056-.066.113-.126.17-.186l.821.59-.745-.668.082-.089.071-.076c5.908-5.797 11.374-11.027 16.66-16.085 2.982-2.854 5.888-5.635 8.743-8.393-6.928-7.353-64.891-69.003-95.273-105.771-7.63 7.787-16.672 17.438-26.889 28.699a1992.24 1992.24 0 0 0-27.719 31.256c.051.18.105.359.16.538z" fill="#112c41"/><circle cx="111.929" cy="177.483" fill="#ffe993" r="8.5"/><path d="M109.159 178.499c-11.083-10.554-17.433-27.753-17.743-34.227a2.833 2.833 0 0 1 5.659-.271c.238 4.97 6.182 21.495 16.638 30.998a2.832 2.832 0 0 1-3.806 4.194 35.083 35.083 0 0 1-.748-.694z" fill="#fff"/><path d="M111.807 180.927c-.919 0-1.84-.328-2.573-.993-.257-.232-.513-.47-.765-.71-11.429-10.884-17.733-28.243-18.052-34.904a3.812 3.812 0 0 1 .992-2.761 3.81 3.81 0 0 1 2.653-1.25 3.84 3.84 0 0 1 4.011 3.644c.231 4.841 6.061 20.989 16.312 30.307a3.838 3.838 0 0 1 .262 5.412 3.832 3.832 0 0 1-2.84 1.255zm-17.56-38.622c-.03 0-.06 0-.089.002-.489.023-.939.235-1.269.598s-.498.83-.474 1.319c.296 6.197 6.545 23.183 17.433 33.551.24.229.483.456.729.678.75.681 1.91.623 2.589-.125a1.836 1.836 0 0 0-.126-2.588c-10.655-9.686-16.721-26.604-16.964-31.69a1.835 1.835 0 0 0-1.829-1.745z" fill="#112c41"/><circle cx="85.301" cy="181.153" fill="#ffe993" r="8.5"/><path d="M82.502 182.087c-10.766-10.877-16.027-30.418-16.145-36.898a2.832 2.832 0 0 1 5.663-.103c.09 4.975 4.965 23.829 15.136 33.637a2.833 2.833 0 0 1-3.929 4.079 48.812 48.812 0 0 1-.725-.715z" fill="#fff"/><path d="M85.19 184.595c-.996 0-1.937-.38-2.656-1.073a39.168 39.168 0 0 1-.742-.73l-.001-.001c-11.271-11.389-16.323-31.5-16.434-37.583a3.839 3.839 0 0 1 3.762-3.902c2.107-.055 3.863 1.648 3.902 3.762.083 4.572 4.702 23.169 14.83 32.937a3.838 3.838 0 0 1 .101 5.418 3.812 3.812 0 0 1-2.688 1.173l-.074-.001zm-1.977-3.211c.233.234.469.468.707.696.354.341.799.548 1.307.514a1.818 1.818 0 0 0 1.285-.561c.7-.727.678-1.889-.05-2.591-10.544-10.169-15.354-29.567-15.441-34.339-.019-1.01-.885-1.792-1.866-1.799a1.834 1.834 0 0 0-1.798 1.865c.107 5.856 4.98 25.226 15.856 36.215z" fill="#112c41"/><path d="M513.645 140.423C380.368 158.734 316.771 240.499 293.815 285.7c-52.406 103.188-8.901 196.478 25.322 267.624 40.066-12.045 109.081-44.983 133.981-59.346 2.376-1.365 4.341-2.564 5.852-3.562 4.27-2.823 5.084-6.318 3.001-10.733-22.623-47.939-35.649-165.386 120.866-192.45z" fill="#b2b0f7"/><path d="M461.972 479.683c2.08 4.41 1.27 7.91-3 10.73-1.51 1-3.48 2.2-5.85 3.56-1.73 1-3.67 2.08-5.8 3.25.87-.59 1.66-1.13 2.34-1.62 4.15-2.99 4.83-6.51 2.57-10.84-24.5-47.01-43.61-178.46 111.71-211.7l18.9 14.17c-156.52 27.059-143.49 144.51-120.87 192.45z" fill="#9797f7"/><path d="M319.327 554.211a.999.999 0 0 1-.878-.522c-56.047-103.131-64.633-193.451-25.519-268.452 19.508-37.406 80.054-126.496 220.58-145.804a.993.993 0 0 1 1.041.563l69.191 146.809a1.001 1.001 0 0 1-.735 1.412c-60.182 10.406-100.722 34.971-120.493 73.012-21.407 41.188-13.185 89.321.361 118.025 2.333 4.944 1.205 8.98-3.354 11.994-1.558 1.029-3.544 2.239-5.905 3.596-24.301 14.018-93.637 47.19-134.001 59.325a1.03 1.03 0 0 1-.288.042zm193.727-412.696c-139.093 19.384-199.02 107.579-218.352 144.647-38.697 74.201-30.248 163.644 25.114 265.855 40.333-12.281 108.725-45.019 132.802-58.907 2.326-1.337 4.277-2.524 5.8-3.53 3.752-2.481 4.569-5.402 2.648-9.473-13.741-29.117-22.072-77.964-.327-119.802 19.933-38.351 60.513-63.188 120.634-73.833z" fill="#112c41"/><path d="M752.372 284.163c-40.41 35.36-107.61 47.67-179.72 13.92-1.99-.94-3.98-1.9-5.98-2.9-2.22-1.12-4.44-2.28-6.67-3.48-91.78-49.55-135.12-125.15-202.7-124.05-34.34.55-50.96 22.08-67.33 36.45-3.25 2.85-8.12 2.83-11.37-.02-.09-.08-.37-.35-.84-.8-.09-.1-.19-.19-.29-.29-.75-.73-1.83-1.81-3.21-3.18-.19-.2-.4-.4-.61-.61s-.42-.43-.64-.64l-.66-.66c-.01-.01-.01-.02-.02-.02-19.69-19.74-80.187-81.593-96.426-108.303 28.719-29.582 90.056-75.547 161.826-84.987 65.36-8.6 140.93-6.55 247.47 81.58 43.08-23.11 135.51-31.28 185.55 37.14a110.9 110.9 0 0 1 2.46 3.49c35.84 52.579 23.42 118.639-20.84 157.36z" fill="#b2b0f7"/><path d="M752.372 284.163c-40.41 35.36-107.61 47.67-179.72 13.92-1.99-.93-3.98-1.9-5.98-2.9-2.22-1.12-4.44-2.28-6.67-3.48-91.78-49.55-135.12-125.15-202.7-124.05-34.34.55-50.96 22.08-67.33 36.45-3.25 2.85-8.12 2.83-11.37-.02-.09-.08-.37-.35-.84-.8l-.29-.29c-.75-.73-1.83-1.81-3.21-3.18-.19-.2-.4-.4-.61-.61-.2-.21-.42-.42-.64-.64-.21-.22-.43-.44-.66-.66 3.38 2.54 8.1 2.2 11.06-.84 15.08-15.49 35.686-39.4 69.467-41.065 82.856-4.085 118.842 70.945 211.062 117.065 143.89 71.96 256.06-40.69 209.27-146.26 35.841 52.579 23.421 118.639-20.839 157.36z" fill="#9797f7"/><path d="M656.635 319.016c-25.557 0-54.025-5.808-84.407-20.028a290.907 290.907 0 0 1-6.003-2.91 289.992 289.992 0 0 1-6.697-3.494c-37.427-20.206-66.963-44.854-93.022-66.602-38.813-32.392-69.468-57.956-109.188-57.329-28.623.458-44.738 15.662-58.956 29.076-2.662 2.512-5.177 4.884-7.73 7.126-3.611 3.166-9.066 3.158-12.688-.021a28.313 28.313 0 0 1-.632-.6l-.24-.229c-.097-.104-.147-.151-.198-.2l-.106-.104c-.537-.522-1.254-1.236-2.134-2.11l-1.075-1.068c-.14-.147-.268-.273-.399-.402l-.424-.424a17.711 17.711 0 0 0-.412-.41l-.677-.677-.017-.018-.004-.004c-13.091-13.124-79.271-80.033-96.573-108.489a1 1 0 0 1 .137-1.216c16.946-17.456 40.799-35.65 65.442-49.919 32.567-18.856 65.463-30.789 97.775-35.468 62.361-9.032 140.442-6.401 246.917 81.479 19.212-10.13 52.774-19.442 90.148-15.551 28.202 2.939 67.765 14.572 96.088 53.298a109.05 109.05 0 0 1 2.481 3.521c17.131 25.133 24.156 55.174 19.778 84.585-4.239 28.474-18.724 54.786-40.788 74.088-21.885 19.149-55.393 34.1-96.396 34.1zM358.731 166.641c39.791 0 71.92 26.813 109.057 57.806 25.987 21.687 55.44 46.267 92.689 66.376 2.264 1.219 4.5 2.386 6.645 3.468 1.826.912 3.775 1.857 5.957 2.888 30.089 14.083 58.278 19.834 83.56 19.836 40.467.002 73.502-14.728 95.075-33.604 21.707-18.989 35.958-44.871 40.127-72.877 4.304-28.911-2.605-58.447-19.455-83.167a109.541 109.541 0 0 0-2.44-3.461c-27.891-38.136-66.883-49.594-94.683-52.491-37.311-3.883-70.742 5.529-89.589 15.64a1.004 1.004 0 0 1-1.11-.11C478.431-.852 400.715-3.505 338.692 5.475c-32.059 4.643-64.715 16.492-97.06 35.22-24.229 14.029-47.679 31.865-64.467 49.024 17.778 28.606 82.817 94.365 95.847 107.429a.918.918 0 0 1 .082.083l.626.627c.138.13.289.283.438.435l.403.403c.147.146.291.287.426.429l1.055 1.048c.874.869 1.586 1.577 2.127 2.104l.093.092c.084.081.166.161.242.245l.19.179c.311.298.501.48.571.543 2.867 2.513 7.187 2.522 10.047.017 2.526-2.218 5.028-4.578 7.677-7.077 14.482-13.663 30.897-29.15 60.296-29.621.482-.01.966-.014 1.446-.014z" fill="#112c41"/><path d="M609.645 106.954a.998.998 0 0 1-.662-.251c-.081-.071-8.254-7.276-24.393-19.74a.999.999 0 1 1 1.223-1.582c16.198 12.509 24.414 19.752 24.495 19.824a.999.999 0 0 1-.663 1.749zm146.844 76.339c-22.855 0-42.514-13.928-49.497-35.413a1 1 0 1 1 1.902-.617c7.01 21.57 27.343 35.2 50.569 33.949.537-.057 1.023.392 1.053.943a1 1 0 0 1-.944 1.053 55.955 55.955 0 0 1-3.083.085z" fill="#112c41"/></svg></g><g transform="translate(848.0 457.0) rotate(-29.32504453361102 139.5 115.5) scale(0.9989044274022041 0.997594544755719)"><svg width="279.306" height="231.557" viewBox="0 0 279.306 231.557"><circle cx="249.73" cy="141.181" fill="#ffd6c0" r="28.57"/><path d="M236.717 166.615a28.567 28.567 0 0 0 37.721-11.09 28.572 28.572 0 0 1-44.087-34.662q.353-.681.734-1.335a28.592 28.592 0 0 0 5.632 47.087z" fill="#f5b9ab"/><path d="M249.7 170.766a29.617 29.617 0 0 1-28.46-21.666 1 1 0 1 1 1.926-.535 27.569 27.569 0 1 0 3.042-21.764 1 1 0 0 1-1.707-1.041 29.677 29.677 0 0 1 38.7-10.9 29.57 29.57 0 0 1-4.385 54.462 29.675 29.675 0 0 1-9.116 1.444z" fill="#112c41"/><path d="M234.121 142.449a.978.978 0 0 1-.142-.01 1 1 0 0 1-.849-1.131 18.126 18.126 0 0 1 20.262-15.634 17.634 17.634 0 0 1 12.763 8.639 1 1 0 0 1-1.725 1.012 15.641 15.641 0 0 0-11.319-7.67 16.114 16.114 0 0 0-18 13.934 1 1 0 0 1-.99.86z" fill="#112c41"/><circle cx="143.381" cy="128.057" fill="#ffd6c0" r="102.5"/><path d="M141.648 25.571c.346-.005.687.007 1.032 0l6.889 12.368C96.143 39 54.153 80.513 55.043 133.15c.892 52.733 44.483 96.663 98.045 95.757a98.341 98.341 0 0 0 15.617-1.5 102.511 102.511 0 1 1-27.057-201.836z" fill="#f5b9ab"/><path d="M143.356 231.557a103.526 103.526 0 1 1 1.776-.015c-.593.01-1.186.015-1.776.015zM41.9 129.774a101.5 101.5 0 1 0 28.507-72.265A101.6 101.6 0 0 0 41.9 129.774z" fill="#112c41"/><ellipse cx="132.993" cy="107.291" fill="#112c41" rx="6.828" ry="9.104" transform="matrix(.99985699 -.01691143 .01691143 .99985699 -1.795 2.264)"/><ellipse cx="128.408" cy="77.058" fill="#112c41" rx="14.13" ry="9.336" transform="matrix(.987 -.163 .163 .987 -10.826 21.917)"/><ellipse cx="207.812" cy="145.729" fill="#ffa9dc" rx="12.121" ry="8.009" transform="matrix(.99256953 -.12167879 .12167879 .99256953 -16.188 26.369)"/><ellipse cx="115.545" cy="130.048" fill="#ffa9dc" rx="8.009" ry="12.121" transform="matrix(.42770497 -.90391839 .90391839 .42770497 -51.427 178.869)"/><g fill="#112c41"><ellipse cx="215.699" cy="93.264" rx="8.6" ry="13.016" transform="matrix(.5539729 -.8325347 .8325347 .5539729 18.562 221.174)"/><path d="M211.366 85.1a15.023 15.023 0 0 1 7.989 2.667c4.971 3.308 7.5 8.619 5.516 11.6-1.192 1.791-3.543 2.058-4.839 2.058a16.09 16.09 0 0 1-13.522-8.976c-.508-1.2-1.181-3.487.017-5.288s3.543-2.059 4.839-2.059m0-2c-2.805 0-5.194.983-6.5 2.951-2.631 3.954.088 10.388 6.073 14.371a16.862 16.862 0 0 0 9.1 3c2.806 0 5.194-.983 6.5-2.95 2.631-3.955-.088-10.389-6.073-14.371a16.861 16.861 0 0 0-9.1-3z"/><ellipse cx="201.551" cy="119.031" rx="9.104" ry="6.828" transform="matrix(.34021543 -.94034752 .94034752 .34021543 21.049 268.063)"/><path d="M181.025 146.913a2.935 2.935 0 0 1-3.44 3.07l-17.46-3.11-12.76-2.28a2.923 2.923 0 0 1-2.18-4.03 32.737 32.737 0 0 1 2.07-4c4.65-7.58 11.87-12 19.05-10.72 8.35 1.49 14.095 10.24 14.72 21.07z"/><path d="M178.1 151.029a3.968 3.968 0 0 1-.693-.062l-30.222-5.39a3.924 3.924 0 0 1-2.922-5.412 33.864 33.864 0 0 1 2.133-4.122c5.037-8.211 12.73-12.494 20.08-11.184 8.621 1.538 14.867 10.378 15.543 22a3.939 3.939 0 0 1-3.919 4.173zm-14.259-24.4c-5.811 0-11.677 3.839-15.738 10.459a31.861 31.861 0 0 0-2 3.875 1.892 1.892 0 0 0 .072 1.657 1.927 1.927 0 0 0 1.366.992L177.76 149a1.936 1.936 0 0 0 2.267-2.027c-.621-10.676-6.206-18.771-13.9-20.144a13.1 13.1 0 0 0-2.282-.203z"/></g><path d="m160.125 146.873-12.76-2.28a2.923 2.923 0 0 1-2.18-4.03 32.737 32.737 0 0 1 2.07-4 20.807 20.807 0 0 1 12.87 10.31z" fill="#ffa6e0"/><path d="M160.125 147.873a1.055 1.055 0 0 1-.176-.015l-12.76-2.281a3.924 3.924 0 0 1-2.922-5.412 33.864 33.864 0 0 1 2.133-4.122 1 1 0 0 1 1.141-.438 21.74 21.74 0 0 1 13.481 10.827 1 1 0 0 1-.9 1.441zm-12.414-10.117a31.755 31.755 0 0 0-1.609 3.2 1.892 1.892 0 0 0 .072 1.657 1.927 1.927 0 0 0 1.366.992l10.652 1.9a20.149 20.149 0 0 0-10.481-7.749z" fill="#112c41"/><circle cx="31.5" cy="106.445" fill="#ffd6c0" r="30.5"/><path d="M54.915 126.151a33.19 33.19 0 0 1-6.944 3.128c-15.966 5.387-33.359-3.775-38.742-19.732-3.535-10.469-.776-20.8 5.849-28.673C3.445 88.2-2.4 102.061 2.194 115.678a30.493 30.493 0 0 0 38.647 19.155c5.488-1.848 10.599-4.538 14.074-8.682z" fill="#f5b9ab"/><path d="M31.485 137.946a31.5 31.5 0 0 1-.518-63 31.61 31.61 0 0 1 31.9 28.582 1 1 0 0 1-1.992.183A29.5 29.5 0 0 0 2 106.945a29.5 29.5 0 0 0 29.995 29 31.465 31.465 0 0 0 22.169-10.454 1 1 0 1 1 1.494 1.33 33.527 33.527 0 0 1-23.629 11.124c-.179-.001-.362.001-.544.001z" fill="#112c41"/><path d="M48.815 111.862h-.062a1 1 0 0 1-.938-1.059 17.274 17.274 0 0 0-15.91-18.5 16.759 16.759 0 0 0-13.533 5.623 1 1 0 0 1-1.488-1.336 18.735 18.735 0 0 1 15.143-6.283 19.277 19.277 0 0 1 17.785 20.613 1 1 0 0 1-.997.942z" fill="#112c41"/><path d="M50.994 71.061C75.564 59.6 106.816 53.544 140.5 55.255a213.343 213.343 0 0 1 41.038 6.057 64.009 64.009 0 0 0-.385-27.517c.092.138.2.276.277.415a75.841 75.841 0 0 1 11.927 30.473c2.423.769 4.8 1.589 7.143 2.439 17.208 6.29 32.223 14.738 44.1 24.688a1.861 1.861 0 0 0 3.065-1.512 89.559 89.559 0 0 0-7.46-30.7C224.774 24.606 187.657.29 144.734 1.016a108.758 108.758 0 0 0-21.252 2.45C87.7 11.252 59.254 36.686 48.974 69.275a1.477 1.477 0 0 0 2.02 1.786z" fill="#fcaa51"/><path d="M50.994 71.061a155.865 155.865 0 0 1 19.894-7.628c9.343-28.912 34.695-51.454 66.523-58.373a98.06 98.06 0 0 1 32.87-1.446 109.117 109.117 0 0 0-46.8-.148C87.7 11.252 59.254 36.686 48.974 69.275a1.477 1.477 0 0 0 2.02 1.786z" fill="#ff9522"/><path d="M245.93 93.257a3.306 3.306 0 0 1-2.105-.792c-13.46-11.241-31.016-20.519-50.771-26.832a1 1 0 0 1-.682-.788 76.824 76.824 0 0 0-9.224-26.073 66.81 66.81 0 0 1-.631 22.733 1 1 0 0 1-1.225.777 212.238 212.238 0 0 0-40.838-6.028c-31.948-1.624-63.4 3.875-88.546 15.486a2.872 2.872 0 0 1-3.121-.333 2.674 2.674 0 0 1-.595-2.962C59.1 35.461 87.865 10.189 123.271 2.491A109.98 109.98 0 0 1 144.717.016a106.715 106.715 0 0 1 58.592 16.05A97.233 97.233 0 0 1 241.122 59.2a89.886 89.886 0 0 1 7.535 30.862 2.9 2.9 0 0 1-1.473 2.9 2.774 2.774 0 0 1-1.254.295zm-51.688-29.343c19.763 6.386 37.34 15.72 50.866 27.016a1.137 1.137 0 0 0 1.174.248c.371-.187.4-.7.379-1A87.885 87.885 0 0 0 239.292 60a95.24 95.24 0 0 0-37.043-42.24 104.611 104.611 0 0 0-57.5-15.746A107.764 107.764 0 0 0 123.7 4.446c-34.718 7.547-62.922 32.311-73.6 64.626-.063.19-.185.652.028.842a.937.937 0 0 0 .951.009c25.44-11.742 57.219-17.306 89.485-15.667a214.687 214.687 0 0 1 40.195 5.83 62.871 62.871 0 0 0-.571-26.051 1 1 0 0 1 1.79-.812 76.634 76.634 0 0 1 12.264 30.691z" fill="#112c41"/></svg></g><g transform="translate(557.0 371.0) rotate(0.0 380.5 417.0) scale(1.0000551935849284 1.0007007304875355)"><svg width="760.958" height="833.416" viewBox="0 0 760.958 833.416"><path d="M340.341 304.18c-66.168-21.942-134.221-49.706-147.101-52.274-6.63-1.32-10.71 2.7-14.51 6.98-22.552 25.339-43.966 112.057-37.277 150.468 1.399 8.035 4.299 12.31 9.106 16.596 15.778 14.064 51.244 26.976 51.34 27.01-8.857 81.322 42.091 161.074 126.981 188 88.832 28.176 182.197-11.686 219.148-89.878l.162.158c2.24 2.22 12.68 12.26 22.97 17.36 9.78 4.84 20.11-.68 30.72-7.02 24.42-14.58 67.57-52.31 91.74-89.93 9.08-14.13 10.906-26.546 4.98-33.96-27.955-34.974-210.429-84.489-358.259-133.51z" fill="#ffe993"/><path d="M693.621 471.65c-4.91 7.64-10.6 15.29-16.76 22.74.48-.65.96-1.31 1.44-1.96 10.09-13.87 12.8-26.48 7.38-34.49-21.32-31.49-149.51-80.69-275.42-131.18 130.34 41.32 264.68 81.33 288.34 110.93 5.93 7.41 4.1 19.83-4.98 33.96z" fill="#ffd169"/><path d="M563.699 491.075a166.868 166.868 0 0 1-7.442 39.048c-29.12 91.808-130.92 141.432-227.376 110.837S179.79 511.569 208.91 419.76a167.533 167.533 0 0 1 9.172-22.923" fill="#ffe993"/><path d="M179.961 349.429c-7.96 38.41-7.791 73.144-.512 93.994-11.196-4.907-20.164-9.963-30.038-17.985-24.172-19.636 1.769-135.595 29.039-166.235 3.8-4.28 8.417-8.192 15.046-6.872 4.75.95 14.369 3.953 25.359 8.093-14.82 16.382-31.003 50.936-38.894 89.005zm513.66 122.221c-24.17 37.62-67.32 75.35-91.74 89.93-10.61 6.34-20.94 11.86-30.72 7.02-10.29-5.1-20.73-15.14-22.97-17.36 1.51-21.16 19.09-53.21 47.29-82.94 27.31-28.79 54.784-46.41 75.774-49.959 10.624 5.63 21.206 12.159 27.346 19.349 6.16 7.22 4.1 19.83-4.98 33.96z" fill="#fff"/><path d="M556.516 529.144c-30.002 93.646-131.761 141.679-226.599 112.435-39.859-12.29-55.279-27.626-71.647-41.495 11.382 8.668 30.566 19.3 51.594 25.784 94.838 29.243 188.036-12.502 234.943-117.748 2.887-6.478 11.498-16.106 19.18-17.236-.001 0-3.33 25.334-7.471 38.26z" fill="#ffd169"/><g fill="#112c41"><path d="M201.898 453.959a1 1 0 0 1-.995-1.109 172.49 172.49 0 0 1 7.055-33.394 169.317 169.317 0 0 1 9.227-23.06 1 1 0 1 1 1.796.879 167.18 167.18 0 0 0-9.117 22.786 170.331 170.331 0 0 0-6.973 33.005c-.056.513-.49.893-.993.893zm346.131 98.123a1 1 0 0 1-.904-1.428 167.46 167.46 0 0 0 8.18-20.835 166.277 166.277 0 0 0 7.397-38.813c.038-.552.511-.943 1.066-.93a1 1 0 0 1 .929 1.066 168.291 168.291 0 0 1-7.486 39.282 169.476 169.476 0 0 1-8.277 21.085c-.171.361-.53.573-.905.573zm143.653-94.458c-.02.03-.03.07-.05.1-6.64 13.56-23.34 34.9-45.17 56.67-19.31 19.26-38.29 34.52-51.82 42.36-.35.2-.7.4-1.04.59-8.66 4.88-14.95 6.54-17.43 4.06-2.07-2.06-1.26-6.73 1.87-13.2.15-.31.31-.63.47-.95 3.86-7.64 10.77-17.62 19.89-28.7 1.87-2.28 3.85-4.6 5.91-6.96 1.11-1.29 2.26-2.59 3.45-3.9.58-.65 1.18-1.31 1.77-1.96 4.29-4.73 8.91-9.57 13.78-14.43 1.19-1.19 2.38-2.36 3.57-3.5 4.6-4.5 9.17-8.74 13.63-12.7 7.09-6.28 13.9-11.84 20.15-16.48 1.63-1.2 3.21-2.34 4.76-3.43 1.13-.79 2.22-1.53 3.3-2.24.98-.65 1.94-1.27 2.88-1.87.53-.33 1.06-.66 1.58-.97.95-.58 1.88-1.12 2.79-1.64.88-.49 1.73-.96 2.56-1.39.03-.01.05-.03.08-.04 7.4-3.84 12.75-4.99 15-2.74 2.07 2.07 1.25 6.791-1.93 13.32z"/><path d="M579.535 563.545c-1.756 0-3.115-.478-4.071-1.434-2.356-2.344-1.792-7.17 1.677-14.343.152-.313.314-.638.476-.961 3.917-7.752 10.836-17.74 20.013-28.889a293.78 293.78 0 0 1 5.929-6.981 195.215 195.215 0 0 1 3.463-3.915c.507-.568 1.035-1.15 1.558-1.727l.212-.233a404.263 404.263 0 0 1 13.814-14.466 245.12 245.12 0 0 1 3.584-3.515 389.22 389.22 0 0 1 13.658-12.726c7.058-6.251 13.86-11.814 20.218-16.535a268.146 268.146 0 0 1 4.781-3.445 142.45 142.45 0 0 1 3.326-2.258c.981-.65 1.946-1.273 2.891-1.877l.088-.055c.509-.316 1.018-.633 1.518-.931.95-.58 1.889-1.125 2.807-1.649a97.432 97.432 0 0 1 2.594-1.41l.125-.062c8.156-4.226 13.581-5.079 16.124-2.537 2.368 2.367 1.784 7.233-1.738 14.464l-.058.117c-6.911 14.104-24.288 35.914-45.355 56.924-18.81 18.761-37.772 34.258-52.024 42.518l-1.053.597c-6.297 3.549-11.166 5.328-14.557 5.329zm99.412-115.55c-.807.42-1.633.877-2.488 1.354-.893.509-1.814 1.044-2.755 1.619-.499.298-.998.607-1.497.918a203.47 203.47 0 0 0-2.933 1.902 132.44 132.44 0 0 0-3.279 2.226 275.464 275.464 0 0 0-4.74 3.416c-6.309 4.685-13.066 10.211-20.08 16.424a385.873 385.873 0 0 0-13.594 12.666 232.94 232.94 0 0 0-3.562 3.492 402.023 402.023 0 0 0-13.747 14.395l-.212.233c-.52.573-1.044 1.151-1.553 1.721a191.947 191.947 0 0 0-3.437 3.887 293.327 293.327 0 0 0-5.895 6.941c-9.085 11.038-15.922 20.898-19.771 28.518a80.24 80.24 0 0 0-.462.934c-2.971 6.143-3.704 10.424-2.064 12.056 2.002 2.003 7.92.463 16.234-4.222l1.036-.588c13.895-8.053 33.19-23.829 51.608-42.199 20.928-20.87 38.162-42.482 44.978-56.401l.027-.056.035-.069c3.009-6.187 3.758-10.5 2.109-12.148-1.782-1.782-6.823-.717-13.833 2.921zM452.21 354.633c-2.906 9.487-21.572 12.163-41.693 5.994-20.111-6.168-34.061-18.86-31.146-28.336 1.598-5.204 7.924-8.355 16.638-9.128a714.735 714.735 0 0 0 23.57 7.373c8.113 2.38 16.048 4.737 23.784 7.069 6.909 5.559 10.458 11.785 8.847 17.028z"/><path d="M386.58 650.93c-19.208 0-38.763-2.915-58-9.017-40.854-12.958-76.076-39.239-99.176-74.001-22.585-33.986-32.72-74.542-28.579-114.284-5.209-1.949-36.361-13.945-50.929-26.932-4.704-4.193-7.921-8.528-9.426-17.17-3.167-18.186-.293-48.298 7.687-80.549 7.993-32.301 19.143-58.752 29.828-70.757 4.124-4.645 8.408-8.698 15.452-7.295 6.22 1.239 24.594 8.077 50.026 17.54 27.887 10.376 62.594 23.291 97.195 34.765 34.563 11.462 71.368 23.06 106.961 34.275 118.36 37.298 230.156 72.526 251.765 99.56 6.218 7.78 4.425 20.582-4.92 35.125-25.362 39.476-69.107 76.539-92.068 90.248-11.386 6.804-21.629 12.027-31.676 7.058-9.487-4.702-19.099-13.551-22.388-16.723-29.625 61.354-93.495 98.156-161.752 98.157zM190.735 252.649c-4.7 0-7.912 3.133-11.257 6.9-22.195 24.937-43.656 111.64-37.039 149.633 1.406 8.071 4.404 12.114 8.787 16.021 15.665 13.963 50.661 26.688 51.013 26.814l.74.268-.084.782c-4.305 39.526 5.701 79.919 28.174 113.737 22.849 34.383 57.693 60.38 98.115 73.201 87.118 27.633 180.812-10.781 217.941-89.353l.604-1.276 1.155 1.141c2.006 1.988 12.477 12.107 22.721 17.186 9.146 4.523 18.89-.485 29.764-6.982 22.794-13.609 66.224-50.409 91.411-89.612 8.852-13.775 10.689-25.729 5.04-32.796-21.228-26.557-132.742-61.697-250.803-98.9-35.601-11.218-72.413-22.818-106.99-34.284-34.634-11.485-69.36-24.406-97.262-34.789-24.391-9.076-43.656-16.244-49.719-17.453a11.85 11.85 0 0 0-2.311-.238z"/></g><path d="M515.368 695.365c-29.878 3.529-72.696 12.024-71.765 31.477.812 16.951 46.331 22.664 46.331 22.664z" fill="#ffd6c0"/><path d="M489.935 750.507c-.042 0-.083-.003-.125-.008-1.893-.237-46.364-6.021-47.206-23.609-.52-10.859 11.662-25.315 72.647-32.518a1 1 0 0 1 1.022 1.418l-25.433 54.142a1 1 0 0 1-.905.575zm23.76-53.933c-27.021 3.32-69.987 11.548-69.093 30.22.391 8.173 12.584 13.633 22.744 16.774 9.64 2.98 19.327 4.472 21.996 4.849z" fill="#112c41"/><path d="M755.412 628.595c-19.88 84.17-110.3 139.23-157.79 160.17 25.02 2.04 34.94 24.45 5.62 37.79-34.04 15.48-58.72-4.6-58.72-4.6-18.13 6.38-40.98-1.54-50.76-20.09-26.69-4.43-40.87-34.81-20.56-69.45 25.83-44.09 122.38-64.17 140.76-114.55 11.13-30.51-5.85-49.71-19.87-60.16-.16-.12-.33-.24-.49-.36-5.92-4.34-11.71-7.27-15.56-9.14.15-.31.31-.63.47-.95 3.86-7.64 10.77-17.62 19.89-28.7 1.87-2.28 3.85-4.6 5.91-6.96 1.12-1.29 2.27-2.59 3.45-3.9.58-.65 1.18-1.31 1.77-1.96 4.19-4.61 8.67-9.3 13.39-14.02 1.32-1.32 2.64-2.62 3.96-3.91 4.61-4.49 9.17-8.74 13.63-12.7 7.09-6.28 13.9-11.84 20.15-16.48 1.63-1.21 3.22-2.35 4.76-3.43 1.13-.79 2.22-1.53 3.3-2.24.98-.66 1.94-1.28 2.88-1.87.53-.33 1.06-.66 1.58-.97.95-.59 1.88-1.13 2.79-1.64.87-.5 1.72-.96 2.55-1.39h.01c3.73 2.55 8.2 6.14 13.1 10.64l.03.03c30.91 28.46 84.18 84.369 63.75 170.84z" fill="#ffd6c0"/><path d="M625.161 609.52c-11.238 29.858-41.33 47.48-72.96 64.65 27.53-15.85 53.17-32.76 61.76-56.31 11.13-30.51-5.85-49.71-19.87-60.16-6.17-4.6-12.26-7.66-16.22-9.58 2.13-4.22 5.17-9.15 9.01-14.59 6.44 3.81 14.3 8.69 18.07 11.65 14.02 11.01 30.971 35.749 20.21 64.34zm-100.56 80.35c8.71-5.43 18.01-10.49 27.32-15.54-9.09 5.23-18.38 10.35-27.32 15.54z" fill="#f5b9ab"/><path d="M577.475 833.368c-18.139.001-30.645-8.467-33.132-10.295-19.187 6.46-41.5-2.379-51.233-20.307-11.938-2.134-21.65-9.501-26.696-20.274-6.698-14.301-4.539-32.738 5.925-50.584 12.071-20.604 38.648-35.593 66.785-51.462 31.532-17.782 64.137-36.171 73.898-62.925 8.461-23.194 1.891-43.05-19.528-59.016l-.493-.362c-5.596-4.103-11.168-6.986-15.396-9.04a1 1 0 0 1-.463-1.335c.151-.313.313-.638.475-.961 3.917-7.752 10.836-17.74 20.013-28.889a293.78 293.78 0 0 1 5.929-6.981 292.165 292.165 0 0 1 3.46-3.912 287.16 287.16 0 0 1 1.561-1.729l.212-.233a409.73 409.73 0 0 1 13.424-14.055 485.35 485.35 0 0 1 3.968-3.918 406.857 406.857 0 0 1 13.665-12.733c7.058-6.251 13.86-11.814 20.218-16.535a211.2 211.2 0 0 1 4.782-3.445 140.353 140.353 0 0 1 3.325-2.258c.98-.659 1.949-1.285 2.897-1.881.591-.367 1.1-.684 1.6-.981a72.152 72.152 0 0 1 2.814-1.653 68.069 68.069 0 0 1 2.578-1.406 1.029 1.029 0 0 1 1.035.062c3.917 2.679 8.486 6.389 13.212 10.729 16.3 15.011 36.838 35.815 51.37 63.974 17.383 33.685 21.659 69.975 12.707 107.862-8.792 37.227-31.96 72.326-68.859 104.322-33.748 29.263-69.531 47.446-86.234 55.067 11.185 1.884 19.329 8.072 20.721 16.046.722 4.137.379 14.681-18.356 23.205-9.537 4.335-18.383 5.902-26.184 5.903zm-32.954-12.414a1 1 0 0 1 .631.224c.243.196 24.629 19.491 57.676 4.467 17.465-7.946 17.856-17.362 17.214-21.041-1.377-7.893-10.42-13.857-22.501-14.842a1 1 0 0 1-.322-1.912c14.785-6.52 53.055-25.048 88.997-56.215 36.576-31.715 59.529-66.46 68.224-103.27 19.385-82.048-26.93-136.245-63.454-169.875-4.489-4.125-8.799-7.646-12.528-10.243-.65.344-1.312.707-1.986 1.095a69.38 69.38 0 0 0-2.761 1.622c-.505.302-1.004.611-1.503.922a111.41 111.41 0 0 0-2.927 1.898 135.46 135.46 0 0 0-3.285 2.229 220.818 220.818 0 0 0-4.737 3.413c-6.312 4.688-13.07 10.214-20.083 16.427a403.746 403.746 0 0 0-13.595 12.668 497.329 497.329 0 0 0-3.951 3.9 407.525 407.525 0 0 0-13.357 13.985l-.211.232c-.52.573-1.044 1.151-1.553 1.721a288.004 288.004 0 0 0-3.44 3.89 296.11 296.11 0 0 0-5.892 6.938c-9.085 11.038-15.922 20.898-19.771 28.518l-.021.041c4.178 2.058 9.468 4.875 14.81 8.791l.5.367c21.896 16.32 28.884 37.519 20.208 61.302-10.014 27.448-42.946 46.021-74.794 63.981-27.895 15.732-54.244 30.592-66.042 50.731-10.125 17.27-12.253 35.028-5.839 48.725 4.831 10.313 14.198 17.324 25.7 19.233a.998.998 0 0 1 .721.52c9.239 17.525 31.002 26.139 49.543 19.613.106-.036.218-.055.329-.055z" fill="#112c41"/><path d="M493.759 802.867a1 1 0 0 1-.894-.55c-6.574-13.022-6.013-27.503-3.564-33.188a1 1 0 0 1 1.837.791c-2.391 5.551-2.5 19.585 3.513 31.497a1 1 0 0 1-.892 1.45zm50.761 20.083a.996.996 0 0 1-.613-.21c-14.346-11.138-18.45-26.338-16.192-35.747a1 1 0 0 1 1.945.467c-2.113 8.805 1.828 23.106 15.474 33.7a1 1 0 0 1-.614 1.79zm26.38-25.191a1 1 0 0 1-.167-1.986c8.978-1.526 16.485-3.746 26.776-7.917a1 1 0 1 1 .751 1.854c-10.436 4.229-18.06 6.482-27.192 8.036a1.211 1.211 0 0 1-.168.013z" fill="#112c41"/><path d="M347.581 116.93c-12.71 9.02-23.68-13.4-36-27.06 1.02 15.58-7.66 32.17-22.21 37.02-6.9 25.28-34.45 28.53-53.62 24-23.4-5.53-28.34-25.28-17.53-32.08-36.85-3.41-63.643 17.84-75.575 33.948-15.319 20.681-25.277 74.37 37.566 104.502-.5.53-.99 1.08-1.48 1.63-21.84 24.53-42.61 106.62-37.83 146.67l.03.24C64.007 372.588-14.376 288.333 3.601 173.42 24.017 42.915 149.891-23.03 257.541 9.01c85.79 25.54 106.38 96.32 90.04 107.92z" fill="#ffd6c0"/><path d="M142.641 152.76c-15.31 20.68-25.27 74.37 37.57 104.5-.5.53-.99 1.08-1.48 1.63-3.12 3.51-6.22 8.19-9.23 13.76-59.98-35.47-58.47-88.79-38.4-118 9.74-14.17 31.25-31.5 60.42-34-23.12 5.49-40.05 20.2-48.88 32.11z" fill="#f5b9ab"/><path d="M289.372 126.888c2.55-15.445-4.896-25.913-8.301-28.977" fill="#ffd6c0"/><path d="M289.373 127.889a1 1 0 0 1-.988-1.163c2.375-14.384-4.183-24.65-7.983-28.07a.999.999 0 1 1 1.338-1.486c4.081 3.673 11.135 14.645 8.619 29.883a1.001 1.001 0 0 1-.986.836z" fill="#112c41"/><path d="M311.582 89.868c-.809-7.323-3.872-14.153-3.872-14.153" fill="#ffd6c0"/><path d="M311.58 90.868c-.503 0-.936-.379-.993-.891-.781-7.071-3.761-13.786-3.791-13.853a1 1 0 1 1 1.825-.818c.127.284 3.138 7.059 3.954 14.452a1 1 0 0 1-.995 1.11z" fill="#112c41"/><path d="M218.22 118.806c11.913 1.111 26.723 6.809 35.915 11.915" fill="#ffd6c0"/><path d="M254.134 131.721a.992.992 0 0 1-.485-.126c-9.132-5.073-23.657-10.688-35.522-11.793a1.001 1.001 0 0 1 .185-1.992c12.154 1.133 26.993 6.862 36.308 12.037a1 1 0 0 1-.486 1.874z" fill="#112c41"/><path d="M140.931 406.8a.996.996 0 0 1-.396-.082c-42.168-18.206-79.345-48.715-104.683-85.907C5.887 276.827-5.606 225.807 2.613 173.266c9.413-60.17 41.959-110.583 91.642-141.951C143.473.24 203.093-8.239 257.826 8.052c27.978 8.329 52 22.506 69.47 41 13.889 14.702 23.296 31.849 25.81 47.042 1.708 10.315-.096 18.208-4.947 21.651-10.474 7.433-19.773-4.77-28.766-16.57-2.195-2.88-4.449-5.837-6.73-8.539-.084 15.718-9.367 30.37-22.471 35.028-6.865 23.875-33.076 29.302-54.671 24.199-9.679-2.288-21.653-8.992-23.543-20.36-.777-4.674.557-8.951 3.606-11.895-33.155-2.08-58.912 15.895-72.135 33.746-8.351 11.273-14.507 31.804-9.435 52.259 5.227 21.076 21.351 38.624 46.63 50.745a1 1 0 0 1 .295 1.588 78.24 78.24 0 0 0-1.461 1.608c-21.302 23.926-42.377 105.73-37.584 145.887l.03.237a1.002 1.002 0 0 1-.993 1.122zM201.963 1.937c-37.132 0-74.17 10.568-106.64 31.069-49.188 31.056-81.412 80.977-90.734 140.568-8.14 52.03 3.242 102.555 32.916 146.11 24.809 36.417 61.069 66.374 102.24 84.507-1.932-19.078 1.444-48.065 9.121-78.035 7.933-30.967 18.818-56.361 29.119-67.932.194-.218.388-.436.583-.651-25.138-12.366-41.204-30.145-46.494-51.479-5.229-21.086 1.139-42.279 9.769-53.931 13.883-18.741 41.265-37.603 76.471-34.35a1.002 1.002 0 0 1 .441 1.843c-3.808 2.396-5.604 6.702-4.803 11.519 1.729 10.399 12.948 16.596 22.031 18.741 16.074 3.801 45.204 3.168 52.425-23.29.088-.322.332-.579.648-.685 13.327-4.442 22.582-19.921 21.528-36.006a.999.999 0 0 1 1.741-.735c2.959 3.281 5.858 7.085 8.661 10.763 8.805 11.555 17.122 22.466 26.018 16.151 4.141-2.939 5.686-10.302 4.131-19.694-4.904-29.637-36.373-69.332-93.878-86.452a193.752 193.752 0 0 0-55.294-8.031zM347.581 116.93h.01z" fill="#112c41"/></svg></g></svg>