<svg xmlns="http://www.w3.org/2000/svg" viewBox="0 0 1800 1800" width="1800" height="1800"><g transform="translate(343.0 1624.0) rotate(0.0 278.0 20.0) scale(0.8783570300157978 0.8695652173913043)"><svg width="633" height="46" viewBox="0 0 633 46"><ellipse cx="316.5" cy="23" fill="#cbc8ff" rx="316.5" ry="23"/></svg></g><g transform="translate(470.0 764.0) rotate(0.0 326.5 445.5) scale(1.006642607959722 1.0074045933579134)"><svg width="648.691" height="884.451" viewBox="0 0 648.691 884.451"><path d="M167.66 685.149c-1.93 10.81-3.99 24.72-5.79 37.71-2.73 19.74-4.86 37.37-5.04 38.92-.01.07-.02.11-.02.11l-124.74 6.13-15.72.78h-.04v-.15c.17-9.09.83-24.48 1.42-39.54.7-17.67 1.31-34.88.93-40.96 0 0 5.44.23 14.41.49 29.25.85 96.09 2.01 134.59-3.49z" fill="#ffd6c0"/><path d="m33.07 688.639-1 79.38v.16c-3.81 2.77-12.58 8.56-15.41 9.97-.16-2.96-.27-6.1-.35-9.35v-.15c.36-19.75 3.05-69.24 2.35-80.5 0 0 5.44.23 14.41.49z" fill="#f5b9ab"/><path d="M222.578 840.54c-48.277 16.93-112.693 16.242-166.877 6.8a384.875 384.875 0 0 1-44.121-10.26s3.713-42.594 4.731-68.284l11.35-.526s128.812-6.27 129.152-6.376c9.97 5.059 55.314 31.015 65.765 78.646z" fill="#b2b0f7"/><path d="M130.445 854.916a440.072 440.072 0 0 1-74.916-6.586 384.965 384.965 0 0 1-44.236-10.292 1 1 0 0 1-.709-1.045c.037-.426 3.722-42.865 4.728-68.236a1 1 0 0 1 .953-.96l11.351-.525c1.266-.062 126.728-6.175 129.072-6.37a.993.993 0 0 1 .577.1c9.187 4.662 55.553 30.393 66.289 79.324a1 1 0 0 1-.645 1.158c-25.369 8.896-57.592 13.432-92.464 13.432zm-117.8-18.561a384.206 384.206 0 0 0 43.227 10c61.135 10.649 122.92 8.225 165.534-6.47-11.014-47.917-58.365-73.676-64.827-76.991-2.638.168-19.321 1.034-128.869 6.372l-10.438.483c-.972 23.536-4.116 60.66-4.626 66.606z" fill="#360815"/><path d="M11.58 837.08s3.713-42.594 4.731-68.284l14.017 1.88c1.993 22.383 4.575 57.4 15.207 74.951.112.184-20.554-4.527-33.955-8.547z" fill="#9797f7"/><path d="M84.63 853.9a2.5 2.5 0 0 1-2.5-2.462c-.606-40.576-33.887-72.671-64.591-77.191a2.5 2.5 0 1 1 .728-4.946c40.548 5.967 68.343 47.249 68.863 82.062a2.5 2.5 0 0 1-2.462 2.537z" fill="#fff"/><path d="M16.35 769.8a1.043 1.043 0 0 1-.709-.275 1.019 1.019 0 0 1-.331-.725v-.15c.138-7.364.593-18.781 1.075-30.869l.346-8.71c.654-16.507 1.319-34.639.931-40.859a1 1 0 0 1 1.04-1.061c.054 0 5.538.232 14.4.49 27.494.8 95.638 2.059 134.419-3.481a1 1 0 0 1 1.126 1.166c-1.673 9.372-3.619 22.047-5.784 37.671-2.615 18.92-4.753 36.459-5.037 38.9-.022.155-.041.231-.041.231a1.022 1.022 0 0 1-.923.762L16.4 769.8zm3.361-80.607c.27 7.138-.361 24.28-.982 39.956l-.346 8.712c-.462 11.582-.9 22.549-1.054 29.889l14.691-.728 123.9-6.089c.5-4.156 2.519-20.587 4.956-38.21 2.066-14.91 3.933-27.142 5.556-36.392-39.145 5.341-106.166 4.1-133.394 3.309-6.58-.192-11.304-.368-13.327-.448z" fill="#112c41"/><path d="M130.445 854.916a440.072 440.072 0 0 1-74.916-6.586 384.965 384.965 0 0 1-44.236-10.292 1 1 0 0 1-.709-1.045c.037-.426 3.722-42.865 4.728-68.236a1 1 0 0 1 .953-.96l11.351-.525c1.266-.062 126.728-6.175 129.072-6.37a.993.993 0 0 1 .577.1c9.187 4.662 55.553 30.393 66.289 79.324a1 1 0 0 1-.645 1.158c-25.369 8.896-57.592 13.432-92.464 13.432zm-117.8-18.561a384.206 384.206 0 0 0 43.227 10c61.135 10.649 122.92 8.225 165.534-6.47-11.014-47.917-58.365-73.676-64.827-76.991-2.638.168-19.321 1.034-128.869 6.372l-10.438.483c-.972 23.536-4.116 60.66-4.626 66.606z" fill="#112c41"/><path d="M226.012 863.438a4.932 4.932 0 0 1-1.9 4.143c-25.292 20.286-148.363 21.907-207.877.313-5.1-1.85-6.173-4.84-6.361-8.159l1.7-22.655c59.4 17.808 148.651 25.321 211 3.46 1.898 7.787 3.326 15.685 3.438 22.898z" fill="#fff"/><path d="M130.014 884.452c-44.576 0-87.05-5.8-114.115-15.618-5.854-2.124-6.833-5.763-7.018-9.042a.969.969 0 0 1 0-.132l1.7-22.655a1 1 0 0 1 1.284-.883c57.193 17.148 147.422 25.551 210.38 3.475a1 1 0 0 1 1.3.707c2.233 9.176 3.366 16.739 3.462 23.119a5.907 5.907 0 0 1-2.269 4.938c-12.042 9.66-47.189 15.822-91.725 16.082-.996.006-2 .009-2.999.009zM10.881 859.743c.192 3.159 1.247 5.595 5.7 7.211 29.469 10.693 72.776 15.514 112.495 15.515 43.084 0 81.949-5.669 94.415-15.668a3.949 3.949 0 0 0 1.52-3.348 102.141 102.141 0 0 0-3.148-21.606c-62.889 21.615-152.151 13.447-209.379-3.455z" fill="#112c41"/><path d="M17.73 729.109c47.47 2.45 108.98 2.26 144.14-6.25-2.73 19.74-4.86 37.37-5.04 38.92-.01.07-.02.11-.02.11-37.9 10.72-98.25 14.7-140.46 6.91a.06.06 0 0 0-.04-.01v-.14z" fill="#fff"/><path d="M67.04 773.844c-18.375 0-36.018-1.32-50.871-4.061l-.083-.019a1 1 0 0 1-.776-.975v-.14l1.421-39.576a1 1 0 0 1 .323-.7.985.985 0 0 1 .728-.262c22.843 1.179 100.728 4.216 143.852-6.223A1 1 0 0 1 162.86 723c-2.615 18.92-4.753 36.459-5.037 38.9-.022.155-.041.231-.041.231a1.031 1.031 0 0 1-.7.726c-25.315 7.155-58.738 10.986-90.042 10.987zm-49.7-5.882c39.683 7.139 98.916 4.21 138.567-6.857.446-3.747 2.394-19.615 4.777-36.94-12.9 2.935-55.569 10.378-141.987 6z" fill="#112c41"/><circle cx="144.556" cy="790.304" fill="#ffe993" r="8.5"/><path d="M145.916 792.923c15.3-.32 31.588-8.739 36.182-13.311a2.833 2.833 0 0 0-4-4.016c-3.527 3.51-19.059 11.705-33.188 11.671a2.832 2.832 0 1 0-.017 5.664c.342.002.683-.001 1.023-.008z" fill="#fff"/><path d="M145.067 793.932h-.174a3.832 3.832 0 0 1 .015-7.664H145c13.83 0 28.966-7.968 32.395-11.38a3.832 3.832 0 1 1 5.406 5.433c-4.727 4.7-21.09 13.272-36.867 13.6-.287.007-.578.011-.867.011zm-.159-5.665a1.836 1.836 0 0 0-1.835 1.827 1.832 1.832 0 0 0 1.827 1.837c.333 0 .663 0 .994-.009 15.031-.314 31.1-8.642 35.5-13.019a1.832 1.832 0 1 0-2.586-2.6c-3.6 3.585-19.432 11.961-33.807 11.961z" fill="#112c41"/><circle cx="161.744" cy="810.969" fill="#ffe993" r="8.5"/><path d="M163.181 813.547c15.285-.773 32.346-11.655 36.8-16.361a2.833 2.833 0 0 0-4.113-3.9c-3.421 3.613-19.734 14.248-33.859 14.634a2.832 2.832 0 0 0 .151 5.662c.34-.005.682-.018 1.021-.035z" fill="#fff"/><path d="M162.085 814.586a3.832 3.832 0 0 1-.1-7.662c14.063-.383 30.016-11 33.161-14.321a3.832 3.832 0 1 1 5.564 5.271c-4.183 4.417-21.474 15.862-37.478 16.671q-.522.027-1.043.04zm35.844-21.179a1.828 1.828 0 0 0-1.332.572c-3.281 3.464-19.915 14.545-34.557 14.944a1.832 1.832 0 0 0 .046 3.663h.05c.331-.009.663-.021.993-.038 15.443-.781 32.1-11.8 36.127-16.05a1.83 1.83 0 0 0-1.328-3.091z" fill="#112c41"/><path d="M431.621 772.323a835.418 835.418 0 0 0-4.062-38.9l-.017-.217c-.013-.085-.017-.167-.024-.23-1.7-13.24-3.329-26.1-4.848-37.309 0 0 92.618-8.256 142.266-19.1 1.393 12.525 2.48 22.895 3.407 36.2 1.6 22.877 2.9 42.418 2.9 42.418z" fill="#ffd6c0"/><path d="m437.134 685.665 10.154 84.9c-3.59 3.036-10.488 9-13.21 10.606C429.837 747.3 422.7 690.53 422.7 690.53z" fill="#f5b9ab"/><path d="M431.621 773.323a1 1 0 0 1-1-.919c-1.054-13.057-2.344-25.4-4.058-38.852l-.022-.264-.015-.139-.62-4.861c-1.49-11.643-2.9-22.641-4.23-32.485a1 1 0 0 1 .9-1.13c.925-.083 93.123-8.375 142.141-19.078a1 1 0 0 1 1.207.866c1.3 11.644 2.447 22.407 3.411 36.244 1.58 22.617 2.888 42.226 2.9 42.421a1 1 0 0 1-.876 1.059l-139.616 17.131a1.01 1.01 0 0 1-.122.007zM423.8 696.57c1.293 9.585 2.654 20.224 4.092 31.465l.616 4.816c0 .013.011.108.012.121l.018.155.017.231a825.273 825.273 0 0 1 3.977 37.846l137.651-16.889c-.28-4.18-1.455-21.673-2.839-41.471-.93-13.362-2.037-23.858-3.28-35.06-46.537 10.001-129.975 17.842-140.264 18.786z" fill="#112c41"/><path d="M642.57 828.833c-46.913 20.405-111.208 24.417-165.936 18.956a384.944 384.944 0 0 1-44.752-7.019s.6-42.751-.261-68.447l11.281-1.352s128.011-15.653 128.343-15.779c10.312 4.319 57.428 26.899 71.325 73.641z" fill="#b2b0f7"/><path d="M520.907 851c-14.6 0-29.473-.727-44.372-2.214a384.847 384.847 0 0 1-44.87-7.038 1 1 0 0 1-.784-.99c.006-.427.587-43.022-.259-68.4a1 1 0 0 1 .88-1.025l11.281-1.352c1.26-.155 125.923-15.4 128.263-15.767a1 1 0 0 1 .585.058c9.5 3.979 57.622 26.261 71.9 74.278a1 1 0 0 1-.561 1.2C611.186 843.574 567.517 851 520.907 851zm-88.015-11.029a384.09 384.09 0 0 0 43.842 6.825c61.755 6.162 123.192-.763 164.62-18.525-14.479-46.988-63.587-69.226-70.268-72.059-2.624.362-19.209 2.443-128.063 15.754l-10.373 1.243c.742 23.539.317 60.791.242 66.76z" fill="#360815"/><path d="M432.1 840.812s.6-42.75-.262-68.446l14.117.852c3.62 22.179 8.749 56.916 20.633 73.643.119.175-20.835-3.014-34.488-6.049z" fill="#9797f7"/><path d="M505.78 852.229a2.5 2.5 0 0 1-2.487-2.281c-1.426-16.174-9.732-34.01-22.219-47.713-13.592-14.913-30.5-23.593-47.613-24.44a2.5 2.5 0 1 1 .249-4.994c18.439.913 36.572 10.17 51.059 26.066 13.4 14.7 21.963 33.158 23.5 50.642a2.5 2.5 0 0 1-2.27 2.71c-.072.007-.146.01-.219.01z" fill="#fff"/><path d="M520.907 851c-14.6 0-29.473-.727-44.372-2.214a384.847 384.847 0 0 1-44.87-7.038 1 1 0 0 1-.784-.99c.006-.427.587-43.022-.259-68.4a1 1 0 0 1 .88-1.025l11.281-1.352c1.26-.155 125.923-15.4 128.263-15.767a1 1 0 0 1 .585.058c9.5 3.979 57.622 26.261 71.9 74.278a1 1 0 0 1-.561 1.2C611.186 843.574 567.517 851 520.907 851zm-88.015-11.029a384.09 384.09 0 0 0 43.842 6.825c61.755 6.162 123.192-.763 164.62-18.525-14.479-46.988-63.587-69.226-70.268-72.059-2.624.362-19.209 2.443-128.063 15.754l-10.373 1.243c.742 23.539.317 60.791.242 66.76z" fill="#112c41"/><path d="M647.665 851.419a4.932 4.932 0 0 1-1.587 4.271c-23.746 22.076-146.371 32.669-207.3 15.472-5.22-1.473-6.51-4.377-6.939-7.673l.044-22.719c60.536 13.429 150.1 14.412 210.688-11.937 2.456 7.627 4.458 15.401 5.094 22.586z" fill="#fff"/><path d="M516.911 880.73c-30.623 0-58.431-2.968-78.406-8.605-5.993-1.691-7.235-5.249-7.659-8.507a.95.95 0 0 1-.009-.131l.044-22.719a1 1 0 0 1 1.217-.974c58.291 12.931 148.892 14.729 210.073-11.878a1 1 0 0 1 1.351.61c2.9 8.99 4.576 16.449 5.139 22.805a5.914 5.914 0 0 1-1.9 5.09c-11.306 10.512-45.91 19.221-90.307 22.728a503.838 503.838 0 0 1-39.543 1.581zm-84.074-17.306c.421 3.137 1.652 5.49 6.211 6.776 62.9 17.753 183.856 5.67 206.349-15.243a3.951 3.951 0 0 0 1.272-3.45 102.268 102.268 0 0 0-4.716-21.319C580.81 856.331 491.19 854.7 432.879 842.013z" fill="#112c41"/><path d="M431.621 772.319c42.664 4.7 102.6-3.675 139.624-17.127 0 0-1.15-16.068-2.458-36.079-.044-.694-.1-1.4-.145-2.1s-.1-1.4-.144-2.11-.1-1.417-.152-2.132c-34.46 11.923-91.7 18.992-140.849 19.918 0 0 .012.1.023.284a1.28 1.28 0 0 0 .024.226 1.907 1.907 0 0 0 .017.22 835.287 835.287 0 0 1 4.06 38.9z" fill="#fff"/><path d="M457.417 774.611a239.164 239.164 0 0 1-25.906-1.3 1 1 0 0 1-.887-.914c-1.055-13.066-2.344-25.411-4.055-38.85a1.761 1.761 0 0 1-.021-.226 2.487 2.487 0 0 1-.023-.235 5.05 5.05 0 0 0-.021-.271 1.005 1.005 0 0 1 .974-1.124c53.409-1.006 108.574-8.8 140.541-19.863a1 1 0 0 1 1.324.874l.152 2.13c.044.713.093 1.407.144 2.1l.021.291c.043.61.087 1.219.125 1.823 1.293 19.776 2.446 35.91 2.457 36.071a1 1 0 0 1-.656 1.011c-31.54 11.462-76.615 18.483-114.169 18.483zm-24.867-3.2c40.078 4.225 98.887-3 137.644-16.9-.242-3.413-1.27-17.968-2.4-35.331-.038-.6-.081-1.2-.124-1.809l-.02-.282c-.052-.709-.1-1.411-.145-2.12l-.059-.826c-32.1 10.824-86.258 18.45-138.839 19.531 1.653 13.077 2.91 25.086 3.943 37.739z" fill="#112c41"/><circle cx="561.092" cy="784.42" fill="#ffe993" r="8.5"/><path d="M562.639 786.933c15.237-1.435 30.867-11.019 35.115-15.914a2.832 2.832 0 1 0-4.277-3.713c-3.262 3.757-18.155 13.063-32.249 14.06a2.832 2.832 0 1 0 .4 5.65c.334-.023.672-.051 1.011-.083z" fill="#fff"/><path d="M561.422 788.023a3.832 3.832 0 0 1-.266-7.655c13.818-.977 28.388-10.058 31.565-13.718a3.832 3.832 0 1 1 5.788 5.024c-4.371 5.036-20.065 14.775-35.776 16.255a45.99 45.99 0 0 1-1.04.085 4.157 4.157 0 0 1-.271.009zm34.196-20.69a1.831 1.831 0 0 0-1.387.63c-3.339 3.847-18.57 13.386-32.934 14.4a1.832 1.832 0 1 0 .256 3.656c.331-.023.663-.051.992-.081 14.969-1.41 30.387-10.889 34.455-15.575a1.831 1.831 0 0 0-1.382-3.032z" fill="#112c41"/><circle cx="579.742" cy="803.777" fill="#ffe993" r="8.5"/><path d="M581.363 806.243c15.188-1.886 31.41-13.983 35.512-19a2.832 2.832 0 1 0-4.386-3.585c-3.149 3.853-18.643 15.649-32.7 17.063a2.832 2.832 0 0 0 .563 5.636q.505-.051 1.011-.114z" fill="#fff"/><path d="M580.066 807.371a3.833 3.833 0 0 1-.38-7.646c14-1.408 29.134-13.161 32.028-16.7a3.833 3.833 0 1 1 5.935 4.851c-3.85 4.71-20.26 17.386-36.163 19.36-.345.042-.691.081-1.035.116-.13.012-.258.019-.385.019zm34.621-23.753a1.83 1.83 0 0 0-1.421.672c-3.02 3.7-18.8 15.959-33.376 17.425a1.832 1.832 0 1 0 .364 3.646c.329-.032.661-.07.99-.11 15.343-1.9 31.154-14.108 34.859-18.642a1.831 1.831 0 0 0-1.416-2.991z" fill="#112c41"/><path d="M565.06 677.679c-4.6 2.53-106.4 15.47-138.71 18.46-.8.07-1.74.15-2.74.23-4.51.37-10.5.78-12.95.78a9.852 9.852 0 0 1-6.71-2.27.6.6 0 0 1-.08-.08 8.888 8.888 0 0 1-2.55-4.42c-.17-.67-.34-1.34-.52-2.01-59.5-232.13-112.32-365.46-173.14-449.22-3.29 55.18-45 370-60.42 448.4-50.31 4.32-93.94 4.58-144.1 2.33-.01 0-.01-.01-.02-.01a116.221 116.221 0 0 1-11.58-1.38 41.709 41.709 0 0 1-5.88-1.34 6.413 6.413 0 0 1-4.32-3.66.318.318 0 0 1-.03-.09 6.42 6.42 0 0 1-.26-2.83c.12-1.08.24-2.16.35-3.23 24.52-225.31 28.74-291.94 18.26-407.19-12-132 12.04-198.85 69-241 39.84-29.48 110.8-38.01 171.88-14.96a179.446 179.446 0 0 1 44.12 23.96c161 120.151 238 437 260.4 639.53z" fill="#ffa9dc"/><path d="M410.66 698.149a10.906 10.906 0 0 1-7.372-2.521 2.078 2.078 0 0 1-.141-.134 9.866 9.866 0 0 1-2.8-4.866c-.169-.669-.338-1.335-.516-2-29.66-115.71-57.8-207.343-86.042-280.146-26.982-69.563-54.907-124.061-85.318-166.493-4.391 62.028-44.764 367-60.254 445.753a1 1 0 0 1-.9.8C120.128 692.6 77 693.3 23.1 690.878a.969.969 0 0 1-.141-.017c-1.916-.1-6.958-.586-11.585-1.386a41.971 41.971 0 0 1-6.033-1.375c-2.546-.853-4.208-2.286-4.939-4.26a1.406 1.406 0 0 1-.063-.2 7.3 7.3 0 0 1-.284-3.182l.036-.329c.108-.967.214-1.935.313-2.893 24.015-220.679 28.945-289.48 18.259-407-5.919-65.1-3.08-115.667 8.678-154.573C38.6 78.418 57.9 50.671 88.065 28.345c19.829-14.673 47.7-24.393 78.474-27.37a211.07 211.07 0 0 1 94.354 12.278 180.458 180.458 0 0 1 44.365 24.1c38.1 28.431 73.665 69.618 105.716 122.416 28.382 46.755 54.223 102.917 76.8 166.925 50.023 141.793 70.514 280.7 78.276 350.88a1 1 0 0 1-.512.987c-5.05 2.777-108.813 15.776-139.1 18.579-.807.071-1.75.151-2.752.231-4.744.384-10.615.778-13.026.778zm-6.052-4.024a8.859 8.859 0 0 0 6.052 2.024c2.354 0 8.159-.39 12.868-.776 1-.08 1.937-.161 2.735-.23 31.325-2.9 128.293-15.235 137.719-18.114-7.816-70.334-28.313-208.58-78.09-349.674-22.536-63.879-48.317-119.916-76.628-166.553-31.917-52.578-67.312-93.575-105.2-121.852a178.493 178.493 0 0 0-43.875-23.825 209.019 209.019 0 0 0-93.458-12.159C136.312 5.908 108.8 15.492 89.254 29.953c-29.806 22.056-48.871 49.476-60 86.292-11.683 38.655-14.5 88.968-8.6 153.814 10.7 117.7 5.77 186.557-18.262 407.388-.1.958-.206 1.93-.313 2.9l-.037.329a5.461 5.461 0 0 0 .211 2.393l.019.061v.009a5.446 5.446 0 0 0 3.7 3.059 40.355 40.355 0 0 0 5.73 1.3c4.626.8 9.826 1.293 11.459 1.367a.887.887 0 0 1 .135.016c53.5 2.395 96.336 1.715 143.1-2.269 15.835-81.136 56.989-392.7 60.258-447.528a1 1 0 0 1 1.807-.527c31.144 42.891 59.663 98.235 87.189 169.2 28.267 72.878 56.435 164.585 86.111 280.362.178.663.349 1.338.521 2.012a7.866 7.866 0 0 0 2.256 3.93c.03.022.05.039.07.064z" fill="#112c41"/><path d="M260.54 14.189c-50.35-14.65-100.25-2.51-142.88 27.96-57.31 40.98-78 91-75 218 2.89 122.23-1 162-29.06 420.33-.34 3.11 3.94 6.84 7.51 8.6a5.168 5.168 0 0 0 .55.07c-.15-.01-.29-.01-.44-.02a12.121 12.121 0 0 0 1.16.49l-1.55-.51c-3.37-.15-6.98-.42-9.29-.62-1.38-.11-2.3-.2-2.44-.22-.19-.04-6.32-.1-7.76-4.78a.318.318 0 0 1-.03-.09 7.34 7.34 0 0 1-.27-2.53c.01-.1.01-.2.01-.3.12-1.08.24-2.16.35-3.23 24.52-225.31 28.74-291.94 18.26-407.19-12-132 12.04-198.85 69-241 39.84-29.48 110.8-38.01 171.88-14.96zm164.74 682.25c-3.63.39-10.55.77-13.67 1.06q-.315.03-.57.06a8.4 8.4 0 0 1-7.09-2.68.6.6 0 0 1-.08-.08 9.617 9.617 0 0 1-2.13-3.77c-.26-.85-.57-1.74-.94-2.66-59.5-232.13-112.32-365.46-173.14-449.22 0-10 2-23 4-28 36 26 67.738 77.438 103 177 34 96 70.63 253.75 78.69 298.51 1.25 6.93 5.72 9.1 9.54 9.63.24.04.48.06.72.08a13.813 13.813 0 0 0 1.67.07z" fill="#ff90d8"/><g fill="#112c41"><path d="M227.661 240.149h-.051a1 1 0 0 1-.949-1.048c1.017-20.35 5.086-34.394 13.19-45.538a1 1 0 1 1 1.617 1.176c-7.862 10.811-11.812 24.523-12.809 44.462a1 1 0 0 1-.998.948z"/><path d="M410.66 698.149a10.906 10.906 0 0 1-7.372-2.521 2.078 2.078 0 0 1-.141-.134 9.866 9.866 0 0 1-2.8-4.866c-.169-.669-.338-1.335-.516-2-29.66-115.71-57.8-207.343-86.042-280.146-26.982-69.563-54.907-124.061-85.318-166.493-4.391 62.028-44.764 367-60.254 445.753a1 1 0 0 1-.9.8C120.128 692.6 77 693.3 23.1 690.878a.969.969 0 0 1-.141-.017c-1.916-.1-6.958-.586-11.585-1.386a41.971 41.971 0 0 1-6.033-1.375c-2.546-.853-4.208-2.286-4.939-4.26a1.406 1.406 0 0 1-.063-.2 7.3 7.3 0 0 1-.284-3.182l.036-.329c.108-.967.214-1.935.313-2.893 24.015-220.679 28.945-289.48 18.259-407-5.919-65.1-3.08-115.667 8.678-154.573C38.6 78.418 57.9 50.671 88.065 28.345c19.829-14.673 47.7-24.393 78.474-27.37a211.07 211.07 0 0 1 94.354 12.278 180.458 180.458 0 0 1 44.365 24.1c38.1 28.431 73.665 69.618 105.716 122.416 28.382 46.755 54.223 102.917 76.8 166.925 50.023 141.793 70.514 280.7 78.276 350.88a1 1 0 0 1-.512.987c-5.05 2.777-108.813 15.776-139.1 18.579-.807.071-1.75.151-2.752.231-4.744.384-10.615.778-13.026.778zm-6.052-4.024a8.859 8.859 0 0 0 6.052 2.024c2.354 0 8.159-.39 12.868-.776 1-.08 1.937-.161 2.735-.23 31.325-2.9 128.293-15.235 137.719-18.114-7.816-70.334-28.313-208.58-78.09-349.674-22.536-63.879-48.317-119.916-76.628-166.553-31.917-52.578-67.312-93.575-105.2-121.852a178.493 178.493 0 0 0-43.875-23.825 209.019 209.019 0 0 0-93.458-12.159C136.312 5.908 108.8 15.492 89.254 29.953c-29.806 22.056-48.871 49.476-60 86.292-11.683 38.655-14.5 88.968-8.6 153.814 10.7 117.7 5.77 186.557-18.262 407.388-.1.958-.206 1.93-.313 2.9l-.037.329a5.461 5.461 0 0 0 .211 2.393l.019.061v.009a5.446 5.446 0 0 0 3.7 3.059 40.355 40.355 0 0 0 5.73 1.3c4.626.8 9.826 1.293 11.459 1.367a.887.887 0 0 1 .135.016c53.5 2.395 96.336 1.715 143.1-2.269 15.835-81.136 56.989-392.7 60.258-447.528a1 1 0 0 1 1.807-.527c31.144 42.891 59.663 98.235 87.189 169.2 28.267 72.878 56.435 164.585 86.111 280.362.178.663.349 1.338.521 2.012a7.866 7.866 0 0 0 2.256 3.93c.03.022.05.039.07.064z"/></g></svg></g><g transform="translate(290.0 488.0) rotate(0.0 401.5 199.0) translate(0.0 0.0) scale(1.0146857759503043 1.0128231554785334)"><svg width="698.738" height="392.961" viewBox="0 0 698.738 392.961"><path d="M502.476 232.609c-6.249-5.385-11.584-10.014-19.577-16.55 30.31-21.13 87.63-71.79 111.48-97.72.18.24.35.48.52.72 24.51 35.01 43.266 83.239 98 89 19 2 40 0 57-15 8.431-7.439 15-12 20.617-8.687 4.55 2.684 5.427 10.59-.017 22.658 7.98-1.064 14.681.766 17.833 5.627 4.375 6.747.632 17.353-8.422 26.427 3.953 1.175 6.999 3.365 8.617 6.542 4.342 8.526-3.115 21.189-16.865 29.517 1.995 1.131 3.548 2.659 4.526 4.579 4.469 8.775-4.744 22.428-20.582 30.513-1.629.958-4.004 2.015-5.706 2.823-40 19-97.307 17.593-148-9-51.635-27.085-64.972-41.762-99.424-71.449z" fill="#ffd6c0"/><path d="M688.758 326.882c-2.945 0-5.911-.075-8.9-.227-26.822-1.36-53.941-8.867-78.424-21.711-44.428-23.306-60.999-37.823-86.083-59.797-4.254-3.726-8.652-7.58-13.528-11.781l-1.474-1.271c-5.521-4.759-10.735-9.254-18.083-15.263a1.002 1.002 0 0 1 .061-1.594c29.211-20.364 86.429-70.52 111.316-97.577a1.003 1.003 0 0 1 1.536.076c.186.248.361.495.536.742 4.508 6.439 8.72 13.16 13.179 20.276 19.609 31.293 39.887 63.652 84.109 68.307 23.754 2.501 42.148-2.326 56.234-14.755 7.75-6.838 15.248-12.655 21.787-8.798 2.007 1.184 7.844 6.229 1.08 22.339 7.868-.657 14.031 1.583 17.067 6.264 4.385 6.762 1.454 17.06-7.445 26.533 3.565 1.376 6.208 3.611 7.692 6.526 4.379 8.599-2.43 21.296-15.892 29.984 1.542 1.126 2.733 2.504 3.552 4.112 4.708 9.246-4.72 23.537-21.019 31.857-1.276.753-3.039 1.576-4.593 2.301l-1.139.534c-17.9 8.507-39.034 12.923-61.569 12.923zM484.552 216.121c6.837 5.611 11.831 9.916 17.103 14.46l1.474 1.27c4.881 4.206 9.283 8.062 13.54 11.791 25.865 22.658 41.478 36.335 85.694 59.531 47.925 25.14 105.667 28.666 147.106 8.982l1.151-.54c1.515-.707 3.231-1.508 4.478-2.242 15.37-7.848 24.407-20.933 20.198-29.197-.866-1.701-2.255-3.102-4.128-4.163a1.002 1.002 0 0 1-.025-1.725c13.445-8.144 20.535-20.27 16.493-28.208-1.436-2.818-4.206-4.906-8.011-6.038a1 1 0 0 1-.423-1.665c8.924-8.944 12.256-19.062 8.291-25.177-2.818-4.345-8.963-6.233-16.862-5.18a.999.999 0 0 1-1.044-1.402c4.755-10.54 4.916-18.734.421-21.385-4.876-2.875-10.823.966-19.448 8.576-14.529 12.82-33.422 17.807-57.766 15.245-45.191-4.757-65.731-37.535-85.595-69.234-4.379-6.988-8.519-13.594-12.919-19.9-25.07 26.998-80.449 75.547-109.728 96.201z" fill="#112c41"/><path d="M482.899 216.059c7.99 6.54 13.33 11.17 19.58 16.55 34.45 29.69 47.79 44.36 99.42 71.45 48.18 25.27 102.34 27.8 141.93 11.67-40.28 10.41-91.63 2.27-135.49-26.29-48.85-31.83-60.75-47.7-92.26-80.49-3.41-3.56-6.53-6.81-10.05-10.41-8.58 6.87-16.5 12.9-23.13 17.52z" fill="#f5b9ab"/><path d="M693.358 261.42a1 1 0 0 1-.016-2c.23-.004 23.207-.609 36.842-20.189a1 1 0 0 1 1.642 1.143c-14.235 20.442-38.212 21.043-38.453 21.046h-.015z" fill="#112c41"/><path d="M688.758 326.882c-2.945 0-5.911-.075-8.9-.227-26.822-1.36-53.941-8.867-78.424-21.711-44.428-23.306-60.999-37.823-86.083-59.797-4.254-3.726-8.652-7.58-13.528-11.781l-1.474-1.271c-5.521-4.759-10.735-9.254-18.083-15.263a1.002 1.002 0 0 1 .061-1.594c29.211-20.364 86.429-70.52 111.316-97.577a1.003 1.003 0 0 1 1.536.076c.186.248.361.495.536.742 4.508 6.439 8.72 13.16 13.179 20.276 19.609 31.293 39.887 63.652 84.109 68.307 23.754 2.501 42.148-2.326 56.234-14.755 7.75-6.838 15.248-12.655 21.787-8.798 2.007 1.184 7.844 6.229 1.08 22.339 7.868-.657 14.031 1.583 17.067 6.264 4.385 6.762 1.454 17.06-7.445 26.533 3.565 1.376 6.208 3.611 7.692 6.526 4.379 8.599-2.43 21.296-15.892 29.984 1.542 1.126 2.733 2.504 3.552 4.112 4.708 9.246-4.72 23.537-21.019 31.857-1.276.753-3.039 1.576-4.593 2.301l-1.139.534c-17.9 8.507-39.034 12.923-61.569 12.923zM484.552 216.121c6.837 5.611 11.831 9.916 17.103 14.46l1.474 1.27c4.881 4.206 9.283 8.062 13.54 11.791 25.865 22.658 41.478 36.335 85.694 59.531 47.925 25.14 105.667 28.666 147.106 8.982l1.151-.54c1.515-.707 3.231-1.508 4.478-2.242 15.37-7.848 24.407-20.933 20.198-29.197-.866-1.701-2.255-3.102-4.128-4.163a1.002 1.002 0 0 1-.025-1.725c13.445-8.144 20.535-20.27 16.493-28.208-1.436-2.818-4.206-4.906-8.011-6.038a1 1 0 0 1-.423-1.665c8.924-8.944 12.256-19.062 8.291-25.177-2.818-4.345-8.963-6.233-16.862-5.18a.999.999 0 0 1-1.044-1.402c4.755-10.54 4.916-18.734.421-21.385-4.876-2.875-10.823.966-19.448 8.576-14.529 12.82-33.422 17.807-57.766 15.245-45.191-4.757-65.731-37.535-85.595-69.234-4.379-6.988-8.519-13.594-12.919-19.9-25.07 26.998-80.449 75.547-109.728 96.201z" fill="#112c41"/><path d="M46.899 112.059c.65 1.75 1.41 3.57 2.29 5.45 15.89 34.55 61.365 80.792 89.476 101.252 3.872 3.136 9.988 4.221 14.391 2.387 9.25-5.83 14.993-9.388 21.633-12.178 11.71-4.93 18.73-5.98 18.75-5.98.46.76.92 1.53 1.38 2.28 26.81 43.75 75.16 73.44 130.92 74.6 20.75.43 40.64-3.12 58.91-9.96.02 0 .04-.01.05-.01 28.93-10.83 53.79-29.86 71.56-54.27.62-.83 1.23-1.68 1.82-2.53.55-.8 1.11-1.6 1.65-2.41.03-.07.08-.12.11-.18 1.65-2.46 3.22-4.97 4.72-7.52 0 0 13.34 9.07 18.34 13.07 33-23 103.651-71.964 122.651-94.964 4.85-5.87-5.611-19.816-10.651-26.036-15.62-19.3-78.55-75.76-212.16-90.7a550.21 550.21 0 0 0-36.68-2.86c-12.49-.56-24.75-.68-36.75-.2-3.52.14-7.01.32-10.48.53h-.01c-52.01 3.23-98.56 14.77-137.07 28.91-65.09 23.9-107.2 55.23-113.85 66.32-3 4.999-2.44 11.129-1 14.999z" fill="#ffe993"/><path d="M329.138 280.904a162.6 162.6 0 0 1-3.419-.036c-54.384-1.131-103.637-29.197-131.752-75.077a226.91 226.91 0 0 1-.924-1.524l-.105-.174c-1.964.379-8.384 1.808-17.86 5.797-6.538 2.747-12.143 6.213-21.488 12.103a.946.946 0 0 1-.148.077c-4.698 1.957-11.176.892-15.406-2.532-27.088-19.715-73.387-66.023-89.755-101.611a73.321 73.321 0 0 1-2.319-5.52c-1.561-4.196-2.097-10.567 1.08-15.863C53.471 85.823 94.86 54.234 161.404 29.8 205.86 13.477 252.072 3.73 298.757.831 302.445.608 305.88.435 309.27.3c11.51-.46 23.56-.395 36.834.2a554.523 554.523 0 0 1 36.747 2.865C531.525 19.99 589.549 86.86 595.676 94.43c10.908 13.462 14.49 22.648 10.645 27.302-18.589 22.503-87.206 70.312-120.182 93.288l-2.668 1.86a1 1 0 0 1-1.196-.04c-4.173-3.338-14.347-10.336-17.399-12.424a150.163 150.163 0 0 1-4.203 6.645 2.575 2.575 0 0 1-.062.098c-.443.677-.849 1.264-1.253 1.849l-.454.657a90.364 90.364 0 0 1-1.843 2.562c-18.099 24.862-43.002 43.749-72.01 54.608a.958.958 0 0 1-.123.037c-17.821 6.662-36.572 10.032-55.79 10.032zm-135.699-78.915a1 1 0 0 1 .855.482l.461.764c.305.507.611 1.013.916 1.511 27.758 45.297 76.389 73.006 130.089 74.123 20.187.418 39.88-2.911 58.538-9.897.04-.015.081-.027.123-.037 28.609-10.726 53.17-29.362 71.029-53.895a87.006 87.006 0 0 0 1.807-2.512l.454-.658c.387-.559.774-1.12 1.151-1.685.042-.078.083-.137.109-.174a152.828 152.828 0 0 0 4.726-7.53 1 1 0 0 1 1.425-.32c.525.357 12.486 8.496 17.814 12.652l2.06-1.435c32.902-22.925 101.368-70.628 119.783-92.921 3.065-3.71-.72-12.506-10.657-24.77-6.074-7.505-63.612-73.8-211.494-90.336a551.809 551.809 0 0 0-36.614-2.855c-13.217-.593-25.21-.658-36.665-.2-3.376.134-6.797.307-10.459.529-46.5 2.887-92.521 12.594-136.796 28.851C96.012 55.942 55.063 87.056 48.756 97.573c-2.815 4.693-2.255 10.549-.92 14.137v.001a71.428 71.428 0 0 0 2.258 5.374c16.228 35.285 62.206 81.25 89.158 100.867 3.651 2.954 9.353 3.924 13.343 2.303 9.391-5.918 15.041-9.408 21.706-12.208 11.956-5.033 19.09-6.058 19.138-6.058z" fill="#112c41"/><path d="M46.899 112.059c.65 1.75 3.454 6.853 4.334 8.733 6.421-6.972 15.686-15.383 18.936-18.023 69.29-56.86 174.02-91.31 228.65-100.94-52.01 3.23-98.56 14.77-137.07 28.91-65.09 23.9-107.2 55.23-113.85 66.32-3 5-2.44 11.13-1 15zm296.155 162.37c-54.546-3.45-106.33-39.838-138.412-95.328-3.136-5.435-20.805-17.694-27.077-18.556 0 0 4.593 16.675 9.494 27.576.512 1.12 1.018 2.228 1.554 3.334l.295.38a179.92 179.92 0 0 0 6.116 11.334l1.404 2.283c26.803 43.742 75.154 73.438 130.917 74.599z" fill="#ffd169"/><g fill="#112c41"><path d="M329.138 280.904a162.6 162.6 0 0 1-3.419-.036c-54.384-1.131-103.637-29.197-131.752-75.077a226.91 226.91 0 0 1-.924-1.524l-.105-.174c-1.964.379-8.384 1.808-17.86 5.797-6.352 2.669-11.975 5.74-21.488 11.736-2.893 1.807-10.247 2.108-15.985-2.069-26.835-19.532-72.807-65.717-89.324-101.631a73.321 73.321 0 0 1-2.319-5.52c-1.561-4.196-2.097-10.567 1.08-15.863C53.47 85.823 94.86 54.234 161.404 29.8 205.86 13.477 252.072 3.73 298.757.831 302.445.608 305.88.435 309.27.3c11.51-.46 23.56-.395 36.834.2a554.523 554.523 0 0 1 36.747 2.865C531.837 20.025 589.582 86.54 595.676 94.07c6.016 7.425 15.331 20.824 10.117 27.135-13.464 16.298-54.619 48.488-122.322 95.675a1 1 0 0 1-1.196-.04c-4.173-3.338-14.346-10.335-17.398-12.424a150.797 150.797 0 0 1-4.204 6.646 2.398 2.398 0 0 1-.062.097c-.443.677-.849 1.264-1.253 1.849l-.453.657a90.364 90.364 0 0 1-1.843 2.562c-18.099 24.862-43.002 43.749-72.01 54.608a.926.926 0 0 1-.124.037c-17.821 6.662-36.572 10.032-55.79 10.032zm-135.699-78.915a1 1 0 0 1 .855.482l.461.764c.305.507.611 1.013.916 1.511 27.758 45.297 76.389 73.006 130.089 74.123 20.187.418 39.88-2.911 58.538-9.897.04-.015.081-.027.123-.037 28.609-10.726 53.17-29.362 71.029-53.895a87.006 87.006 0 0 0 1.807-2.512l.454-.658c.387-.559.774-1.12 1.151-1.685.042-.078.083-.137.109-.174a152.828 152.828 0 0 0 4.726-7.53 1 1 0 0 1 1.424-.32c.526.357 12.487 8.496 17.815 12.652 67.194-46.853 108.006-78.774 121.315-94.884 4.594-5.56-6.591-20.237-10.129-24.602-6.042-7.465-63.3-73.404-211.494-89.975a551.809 551.809 0 0 0-36.614-2.855c-13.217-.593-25.21-.658-36.665-.2-3.376.134-6.797.307-10.459.529-46.5 2.887-92.521 12.594-136.796 28.851C96.012 55.942 55.063 87.056 48.756 97.573c-2.815 4.693-2.255 10.549-.92 14.137v.001a71.428 71.428 0 0 0 2.258 5.374c16.377 35.61 62.028 81.452 88.687 100.855 5.135 3.738 11.678 3.284 13.745 1.992 9.613-6.059 15.312-9.17 21.775-11.885 11.956-5.033 19.09-6.058 19.138-6.058z"/><path d="M329.13 280.907c-1.137 0-2.272-.012-3.412-.035-54.384-1.132-103.636-29.198-131.749-75.076-8.408-13.724-14.565-28.563-18.299-44.105a1 1 0 0 1 1.945-.467c3.685 15.338 9.761 29.982 18.06 43.527 27.755 45.295 76.385 73.004 130.085 74.122 20.181.417 39.874-2.912 58.534-9.895a.763.763 0 0 1 .081-.026c28.626-10.722 53.206-29.364 71.079-53.91a90.318 90.318 0 0 0 1.798-2.512 125.44 125.44 0 0 0 1.711-2.502 151.622 151.622 0 0 0 15.832-30.75 150.067 150.067 0 0 0 6.85-24.168 1 1 0 0 1 1.963.381 152.017 152.017 0 0 1-6.941 24.492 153.399 153.399 0 0 1-16.063 31.19c-.586.884-1.147 1.695-1.707 2.497a94.11 94.11 0 0 1-1.829 2.556c-18.106 24.866-43.01 43.751-72.016 54.609v-.002l-.081.029c-17.839 6.67-36.608 10.045-55.841 10.045zM297.172 9.174c-.392 11.428 16.967 21.202 38.766 21.833 21.809.631 39.795-8.12 40.187-19.548.097-2.702-.814-5.316-2.543-7.741a584.745 584.745 0 0 0-36.71-2.249 500.102 500.102 0 0 0-36.75.255c-1.822 2.28-2.862 4.795-2.95 7.45z"/></g><ellipse cx="283.398" cy="242.372" fill="#ffd6c0" rx="50.601" ry="21.116" transform="matrix(.8058 -.5922 .5922 .8058 -88.4943 214.8971)"/><path d="M254.165 277.825c-5.54 0-9.863-1.594-12.319-4.935-7.333-9.977 5.173-31.207 28.473-48.332 10.991-8.079 22.653-13.891 32.837-16.367 10.466-2.545 18.204-1.259 21.79 3.62 7.333 9.977-5.173 31.207-28.473 48.332-15.497 11.39-31.302 17.682-42.308 17.682zm58.601-68.993c-2.688 0-5.758.409-9.154 1.234-9.942 2.417-21.359 8.116-32.15 16.047-22.053 16.209-34.641 36.681-28.061 45.634 6.582 8.954 29.878 3.049 51.93-13.16 22.053-16.209 34.641-36.681 28.061-45.634-2.008-2.73-5.668-4.121-10.626-4.121z" fill="#112c41"/><path d="M324.777 280.911c46.719 30.367 46.234-40.73-33.887-50.35-43.756-5.254-72.6 16.378-120.137 14.079-19.647-.95-27.751-1.888-42.447-7.964-1.206-17.128 11.101-28.174 26.536-34.862-3.852-24.266-47.365-81.624-86.127-97.687-24.12 15.099-72.33 62.883-67.358 133.647 5.645 80.338 70.382 126.229 133.496 131.201 73.567 5.796 112.932-29.72 144.849-29.72h30.336c19.661 0 22.557-12.494 14.292-20.4 11.32 1.257 27.417-14.552.447-37.944z" fill="#ffd6c0"/><path d="M151.02 370.619c-5.223 0-10.63-.204-16.245-.647-33.105-2.608-64.672-15.958-88.887-37.59C18.745 308.134 3.001 275.443.359 237.844c-4.903-69.787 42.222-118.538 67.825-134.565a1 1 0 0 1 .914-.076c17.539 7.268 38.146 24.052 56.54 46.05 16.402 19.616 28.253 40.186 30.192 52.404a1 1 0 0 1-.59 1.074c-12.395 5.371-26.881 15.485-25.973 33.258 14.355 5.87 22.47 6.73 41.535 7.652 22.798 1.103 41.335-3.349 59.261-7.655 19.609-4.709 38.131-9.158 60.947-6.418 39.091 4.693 61.076 24.238 65.523 41.525 1.79 6.959.294 12.957-4.001 16.044-4.825 3.467-12.378 2.911-21.311-1.411 11.144 12.068 10.015 20.805 8.077 25.234-2.184 4.989-7.361 8.528-12.669 8.929 2.916 3.666 3.818 7.987 2.332 11.691-2.212 5.514-9.109 8.676-18.921 8.676h-30.336c-11.783 0-24.905 5.035-40.099 10.865-22.945 8.802-50.824 19.497-88.585 19.498zM68.808 105.25C43.462 121.334-2.455 169.259 2.354 237.704c2.605 37.069 18.12 69.293 44.866 93.187 23.89 21.342 55.04 34.513 87.711 37.087 45.754 3.605 78.025-8.777 103.955-18.726 15.379-5.901 28.662-10.997 40.815-10.997h30.336c8.953 0 15.172-2.705 17.065-7.421 1.42-3.54.093-7.854-3.465-11.256a1 1 0 0 1 .802-1.717c4.467.496 10.544-2.036 13.025-7.703 3.411-7.794-1.452-18.178-13.343-28.491a1.001 1.001 0 0 1 1.2-1.594c11.217 7.291 20.71 9.273 26.042 5.441 3.601-2.588 4.809-7.792 3.232-13.922-3.192-12.408-20.227-34.803-63.825-40.038-22.461-2.696-40.813 1.711-60.241 6.377-18.062 4.338-36.738 8.824-59.825 7.707-19.577-.947-27.767-1.832-42.78-8.039a1 1 0 0 1-.616-.854c-1.063-15.097 8.067-27.372 26.415-35.533-4.587-24.479-47.44-80.116-84.915-95.962z" fill="#112c41"/><path d="M33.215 284.077c-24.162-44.706-24.108-98.962-2.89-141.113C-2.221 184.433-8.288 245.027 18.218 294.07c29.961 55.435 93.953 82.142 155.402 72.99-57.308-1.547-112.369-31.109-140.405-82.983z" fill="#f5b9ab"/><path d="M129.839 392.961c-.458 0-.914-.047-1.369-.146-1.442-.312-2.672-1.276-3.657-2.867-6.935-11.205-1.43-53.579 7.271-87.76 9.591-37.674 26.832-74.778 39.106-71.656 3.835.976 6.378 5.638 7.559 13.856a1 1 0 1 1-1.98.284c-1.025-7.133-3.182-11.466-6.072-12.202-8.53-2.168-25.298 25.523-36.674 70.211-9.947 39.076-13.246 76.945-7.509 86.214.688 1.111 1.488 1.772 2.379 1.965 6.455 1.398 14.684-11.938 20.121-20.764l.489-.793a1 1 0 1 1 1.702 1.05l-.488.792c-5.723 9.291-13.439 21.815-20.878 21.816zm56.485-4.052c-.089 0-.178-.003-.268-.008-11.478-.728-18.889-37.381-16.185-80.039 1.287-20.301 4.504-39.27 9.058-53.415 3.313-10.29 8.756-22.457 15.985-22.004 3.854.244 6.839 3.032 9.125 8.522a1 1 0 0 1-1.847.769c-1.964-4.717-4.386-7.103-7.406-7.295-4.538-.289-9.642 7.227-13.954 20.62-4.505 13.991-7.689 32.788-8.966 52.928-2.784 43.899 5.262 77.342 14.315 77.916 4.363.292 10.488-11.964 13.229-23.123a1 1 0 1 1 1.942.478c-2.361 9.62-8.497 24.651-15.028 24.651z" fill="#112c41"/><ellipse cx="746.732" cy="295.231" fill="#ffd6c0" rx="32.863" ry="18.034" transform="matrix(.896 -.4441 .4441 .896 -53.4355 362.3261)"/><path d="M733.009 317.958c-7.775 0-13.985-2.541-16.564-7.533-1.518-2.938-1.669-6.496-.436-10.288 2.594-7.977 11.013-16.349 21.972-21.85 16.688-8.377 34.185-7.604 39.004 1.723 1.518 2.938 1.669 6.495.436 10.288-2.593 7.977-11.012 16.349-21.971 21.85-7.758 3.893-15.689 5.81-22.441 5.81zm-14.762-8.465c4.312 8.344 20.592 8.721 36.292.84 10.492-5.267 18.52-13.184 20.952-20.664 1.061-3.265.955-6.283-.309-8.729-4.311-8.344-20.591-8.721-36.291-.84-10.492 5.266-18.52 13.184-20.952 20.664-1.062 3.266-.955 6.284.308 8.729z" fill="#112c41"/><ellipse cx="759.029" cy="261.064" fill="#ffd6c0" rx="33.221" ry="18.996" transform="matrix(.8963 -.4435 .4435 .8963 -37.0524 363.6995)"/><path d="M745.978 284.517c-8.182 0-14.789-2.752-17.562-8.12-1.646-3.185-1.814-7.024-.488-11.104 2.649-8.15 11.042-16.599 21.902-22.05 16.862-8.465 34.703-7.382 39.766 2.417 1.646 3.185 1.814 7.024.488 11.104-2.649 8.15-11.042 16.599-21.902 22.05-7.625 3.827-15.451 5.703-22.204 5.703zm26.185-45.014c-6.434 0-14.008 1.833-21.422 5.555-10.393 5.217-18.395 13.211-20.883 20.864-1.155 3.552-1.03 6.853.361 9.545 4.555 8.816 21.178 9.504 37.054 1.535 10.393-5.217 18.394-13.211 20.882-20.864 1.155-3.552 1.03-6.853-.361-9.545-2.428-4.7-8.287-7.09-15.631-7.09z" fill="#112c41"/><ellipse cx="760.06" cy="231.111" fill="#ffd6c0" rx="33.782" ry="19.022" transform="matrix(.8459 -.5334 .5334 .8459 -6.1254 441.0239)"/><path d="M745.494 256.226c-6.577 0-11.961-2.101-14.771-6.371-1.949-2.962-2.51-6.726-1.623-10.886 1.808-8.478 9.444-17.909 19.93-24.611 16.16-10.329 34.244-11.228 40.312-2.004 1.949 2.962 2.51 6.726 1.623 10.886-1.808 8.478-9.445 17.909-19.931 24.611-8.677 5.548-17.911 8.375-25.54 8.375zm29.134-48.294c-7.202 0-16.097 2.762-24.504 8.136-10.045 6.421-17.34 15.358-19.038 23.325-.771 3.617-.31 6.849 1.333 9.347 5.462 8.302 22.295 7.136 37.524-2.598 10.045-6.421 17.34-15.358 19.039-23.325.771-3.617.31-6.849-1.333-9.347-2.448-3.719-7.177-5.538-13.021-5.538z" fill="#112c41"/><path d="M325.026 319.508c-7.852-6.781-16.774-11.421-31.942-15.703" fill="#ffd6c0"/><path d="M325.026 320.508a.998.998 0 0 1-.653-.243c-8.048-6.951-17.191-11.441-31.56-15.498a1 1 0 0 1 .544-1.925c14.672 4.143 24.037 8.752 32.324 15.909a1 1 0 0 1-.655 1.757z" fill="#112c41"/><path d="M324.777 280.911c-11.088-8.658-21.353-13.548-29.444-16.774" fill="#ffd6c0"/><path d="M324.777 281.91a.996.996 0 0 1-.615-.212c-11.708-9.141-22.271-13.871-29.199-16.633a.999.999 0 1 1 .741-1.857c7.041 2.808 17.78 7.616 29.688 16.915a1 1 0 0 1-.615 1.787z" fill="#112c41"/></svg></g><g transform="translate(745.0 942.0) rotate(0.0 356.0 355.5) scale(1.0098932661962343 1.0095774967873852)"><svg width="705.025" height="704.255" viewBox="0 0 705.025 704.255"><path d="m37.971 701.951-.108-349.3H2.007l-.106 333.206c-.001 9.183 7.01 16.077 16.186 16.135z" fill="#9595f5"/><path d="M704.025 18c0-9.389-7.611-17-17-17H352.683v104.762c39.083.096 70.736 31.803 70.736 70.908s-31.654 70.812-70.736 70.909v104.762h104.762c0 .055-.004.109-.004.165 0 39.164 31.749 70.913 70.913 70.913s70.913-31.749 70.913-70.913c0-.055-.004-.109-.004-.165h104.762z" fill="#afadf4"/><path d="M528.355 424.418c-39.375 0-71.46-31.807-71.908-71.077H352.684a1 1 0 0 1-1-1V247.579a1 1 0 0 1 .997-1c38.454-.095 69.739-31.456 69.739-69.909s-31.285-69.814-69.739-69.908a1 1 0 0 1-.997-1V1a1 1 0 0 1 1-1h334.341c9.925 0 18 8.075 18 18v334.341a1 1 0 0 1-1 1H600.263c-.448 39.27-32.533 71.077-71.908 71.077zm-174.671-73.077h103.762a1 1 0 0 1 1 1l-.003.118c-.001 38.596 31.362 69.959 69.912 69.959s69.913-31.363 69.913-69.913l-.005-.165a1 1 0 0 1 1-1h103.762V18c0-8.822-7.178-16-16-16H353.684v102.771c39.096.632 70.736 32.679 70.736 71.899s-31.641 71.267-70.736 71.899z" fill="#360815"/><path d="M1 685.984c0 9.389 7.611 17 17 17h334.341V598.222c-39.083-.096-70.736-31.803-70.736-70.908s31.654-70.812 70.736-70.909V351.643H247.579c0-.055.004-.109.004-.165 0-39.164-31.749-70.913-70.913-70.913s-70.913 31.749-70.913 70.913c0 .055.004.109.004.165H1z" fill="#afadf4"/><path d="M352.341 703.984H18c-9.925 0-18-8.075-18-18V351.643a1 1 0 0 1 1-1h103.762c.448-39.27 32.533-71.077 71.908-71.077s71.46 31.807 71.908 71.077h103.763a1 1 0 0 1 1 1v104.762a1 1 0 0 1-.998 1c-38.453.095-69.738 31.456-69.738 69.909s31.285 69.814 69.738 69.908a1 1 0 0 1 .998 1v104.762a.997.997 0 0 1-1 1zM2 352.643v333.341c0 8.822 7.178 16 16 16h333.341V599.213c-39.096-.632-70.736-32.679-70.736-71.899s31.641-71.267 70.736-71.899V352.643H247.579a1 1 0 0 1-1-1l.003-.118c.001-38.597-31.362-69.959-69.912-69.959s-69.913 31.363-69.913 69.913l.005.165a1 1 0 0 1-1 1H2z" fill="#360815"/><path d="M687.025 703.254c9.389 0 17-7.611 17-17V351.913H599.263c-.096 39.083-31.803 70.736-70.908 70.736s-70.813-31.654-70.909-70.736H352.684v104.762c-.055 0-.109-.004-.165-.004-39.164 0-70.913 31.749-70.913 70.913s31.749 70.913 70.913 70.913c.055 0 .109-.004.165-.004v104.762z" fill="#fff"/><path d="M352.684 704.255a1 1 0 0 1-1-1V599.492c-39.27-.448-71.077-32.534-71.077-71.908 0-39.375 31.808-71.46 71.077-71.908V351.913a1 1 0 0 1 1-1h104.762a1 1 0 0 1 1 .998c.094 38.454 31.455 69.739 69.908 69.739s69.814-31.285 69.908-69.739a1 1 0 0 1 1-.998h104.763a1 1 0 0 1 1 1v334.341c0 9.925-8.075 18-18 18zm0-106.762a1 1 0 0 1 1 1v103.762h333.341c8.822 0 16-7.177 16-16V352.913H600.253c-.631 39.096-32.678 70.736-71.898 70.736s-71.268-31.64-71.898-70.736H353.684v103.762c0 .267-.106.522-.296.71s-.431.299-.713.29l-.106-.003c-38.6-.001-69.962 31.361-69.962 69.912 0 38.55 31.362 69.913 69.912 69.913z" fill="#112c41"/><path d="m389.64 115.069-.086-113.02h-35.856v102.697c13.158.194 25.722 4.074 35.942 10.323zM353.706 248.58l-.119 102.49 36.074-.074-.035-112.667c-10.385 5.804-21.821 10.017-35.92 10.251z" fill="#9595f5"/><path d="m389.462 352.94-.149 113.969a7.947 7.947 0 0 1-7.187 7.904c-65.058 6.367-61.931 99.444.342 105.575a7.276 7.276 0 0 1 6.566 7.246l-.168 114.663-35.182-.033-.017-104.755c-7.741.047-13.405-.747-19.459-2.539-67.397-19.946-68.739-116.1.862-135.229 6.007-1.651 11.628-1.84 18.724-2.265l.047-104.537c-.001.001 31.596.001 35.621.001z" fill="#dedffe"/></svg></g><g transform="translate(599.0 555.0) rotate(0.0 249.5 253.0) scale(1.0145782079173697 1.014290267423843)"><svg width="491.83" height="498.871" viewBox="0 0 491.83 498.871"><path d="M5.979 237.415c-6.639 6.639-6.639 17.403 0 24.042l236.415 236.415 74.078-74.078c-27.568-27.703-27.53-72.507.122-100.158 27.651-27.651 72.455-27.689 100.158-.122l74.078-74.078-74.078-74.078c.039-.039.08-.074.119-.113 27.693-27.693 27.693-72.593 0-100.286s-72.593-27.694-100.286 0c-.039.039-.074.08-.113.119L242.394 1z" fill="#fff"/><path d="M242.395 498.871a.996.996 0 0 1-.707-.293L5.273 262.164c-3.4-3.4-5.272-7.92-5.272-12.728s1.872-9.328 5.272-12.728l.707.707-.707-.707L241.687.293a.999.999 0 0 1 1.414 0l73.371 73.371c28.085-27.451 73.264-27.254 101.106.588 13.583 13.583 21.062 31.641 21.062 50.85 0 18.93-7.265 36.743-20.475 50.256l73.371 73.371a1 1 0 0 1 0 1.414l-74.078 74.078a1 1 0 0 1-1.412.002c-27.26-27.125-71.557-27.07-98.746.12-27.19 27.191-27.244 71.488-.12 98.745a1 1 0 0 1-.002 1.412l-74.077 74.078a.995.995 0 0 1-.706.293zm-.001-496.457L6.687 238.122C3.664 241.144 2 245.162 2 249.436s1.664 8.292 4.687 11.314l235.708 235.708 72.67-72.67c-27.198-28.092-26.91-73.126.822-100.858 27.734-27.733 72.767-28.021 100.858-.822l72.671-72.67-73.371-73.371a1 1 0 0 1 .004-1.418l.08-.076c13.24-13.238 20.512-30.795 20.512-49.469s-7.271-36.231-20.477-49.436c-27.26-27.259-71.612-27.259-98.872 0l-.113.12a1 1 0 0 1-1.414 0z" fill="#112c41"/><path d="M264.942 473.877 16.756 228.173c-4.621 4.187-8.832 8.425-11.464 11.467-4.635 5.357-4.973 15.153 2.633 22.524L242.39 496.429s20.513-20.602 22.552-22.552z" fill="#dedffe"/></svg></g><g transform="translate(440.0 153.0) rotate(29.67319964265664 173.5 149.5) scale(0.9986876036102412 0.9975212098364266)"><svg width="347.456" height="299.743" viewBox="0 0 347.456 299.743"><circle cx="313.794" cy="133.433" fill="#ffd6c0" r="28.57"/><path d="M321.584 160.92a28.567 28.567 0 0 0 20.071-33.809 28.572 28.572 0 0 1-55.89 4.64q-.2-.739-.37-1.478a28.59 28.59 0 0 0 36.189 30.647z" fill="#f5b9ab"/><path d="M313.817 163a29.653 29.653 0 0 1-15.5-4.365 1 1 0 0 1 1.047-1.705 27.568 27.568 0 1 0-12.594-18.009 1 1 0 0 1-1.959.4 29.678 29.678 0 0 1 20.92-34.335A29.569 29.569 0 1 1 313.817 163z" fill="#112c41"/><path d="M302.546 145.26a1 1 0 0 1-.823-.429 18.122 18.122 0 0 1 4.192-25.247 17.645 17.645 0 0 1 15.229-2.366 1 1 0 0 1-.574 1.916 15.646 15.646 0 0 0-13.513 2.092 16.118 16.118 0 0 0-3.691 22.463 1 1 0 0 1-.82 1.571z" fill="#112c41"/><circle cx="226.446" cy="196.341" fill="#ffd6c0" r="102.5"/><path d="M155.917 122.373c.249-.239.507-.463.758-.7l13.467 4.366c-38.4 37.156-40.885 96.151-4.388 134.091 36.563 38.009 98.4 40.494 137.007 3.356a98.234 98.234 0 0 0 10.412-11.736 102.51 102.51 0 1 1-157.256-129.377z" fill="#f5b9ab"/><path d="M227 299.694a103.45 103.45 0 1 1 71.733-28.86A103.206 103.206 0 0 1 227 299.694zm-73.173-33.084a101.5 101.5 0 1 0 2.783-143.516 101.616 101.616 0 0 0-2.783 143.516z" fill="#112c41"/><ellipse cx="205.228" cy="188.111" fill="#112c41" rx="6.828" ry="9.104" transform="matrix(.72068422 -.69326348 .69326348 .72068422 -73.087 194.819)"/><ellipse cx="181.282" cy="169.093" fill="#112c41" rx="14.13" ry="9.336" transform="matrix(.61176177 -.79104205 .79104205 .61176177 -63.379 209.051)"/><ellipse cx="287.714" cy="168.082" fill="#ffa6e0" rx="12.121" ry="8.009" transform="matrix(.64400347 -.76502257 .76502257 .64400347 -26.161 279.944)"/><ellipse cx="208.206" cy="216.799" fill="#ffa6e0" rx="12.121" ry="8.009" transform="matrix(.95320122 -.30233662 .30233662 .95320122 -55.802 73.094)"/><g fill="#112c41"><ellipse cx="256.241" cy="121.518" rx="13.016" ry="8.6" transform="matrix(.98691207 -.16125933 .16125933 .98691207 -16.242 42.911)"/><path d="M257.99 114.772c4.816 0 8.653 2.09 9.124 4.969.348 2.135-1.207 3.94-2.165 4.825a14.849 14.849 0 0 1-7.643 3.465 17.461 17.461 0 0 1-2.813.232c-4.816 0-8.654-2.09-9.124-4.969-.349-2.135 1.207-3.939 2.165-4.825a14.846 14.846 0 0 1 7.643-3.469 17.566 17.566 0 0 1 2.813-.232m0-2a19.623 19.623 0 0 0-3.135.258c-7.094 1.159-12.225 5.9-11.459 10.587.651 3.983 5.348 6.646 11.1 6.646a19.489 19.489 0 0 0 3.135-.258c7.1-1.159 12.225-5.9 11.459-10.586-.65-3.983-5.348-6.647-11.1-6.647z"/><ellipse cx="263.428" cy="150.022" rx="6.828" ry="9.104" transform="matrix(.92030014 -.39121305 .39121305 .92030014 -37.695 115.014)"/><path d="M228.417 192.649c8.063 9.545 19.732 13.193 27.651 8.089s9.418-17.237 4.056-28.523z"/><path d="M247.916 204.046c-6.836 0-14.4-3.816-20.263-10.752a1 1 0 0 1 .222-1.486l31.707-20.434a1 1 0 0 1 1.445.412c5.68 11.953 3.822 24.483-4.417 29.792a15.868 15.868 0 0 1-8.694 2.468zm-17.986-11.184c7.824 8.674 18.447 11.643 25.6 7.035s8.834-15.507 4.167-26.215z"/></g><path d="M260.9 194.544c-4.822-1.935-11.112-.562-15.747 3.895a17.791 17.791 0 0 0-2.953 3.71c4.947 1.51 9.885 1.158 13.872-1.411a14.684 14.684 0 0 0 5.25-6.014q-.213-.094-.422-.18z" fill="#ffa6e0"/><path d="M247.921 204.04a20.637 20.637 0 0 1-6.017-.934 1 1 0 0 1-.567-1.467 18.67 18.67 0 0 1 3.119-3.92c4.761-4.579 11.52-6.229 16.812-4.1h.005q.229.093.453.193a1 1 0 0 1 .492 1.35 15.6 15.6 0 0 1-5.609 6.417 15.868 15.868 0 0 1-8.688 2.461zm-4.137-2.5a15.024 15.024 0 0 0 11.742-1.646 13.427 13.427 0 0 0 4.383-4.649c-4.482-1.478-10.05.047-14.066 3.912a16.9 16.9 0 0 0-2.059 2.386z" fill="#112c41"/><circle cx="130.328" cy="256.606" fill="#ffd6c0" r="30.5"/><path d="M160.894 255.092a33.246 33.246 0 0 1-2.955 7.019c-8.024 14.817-27 19.952-41.808 11.933-9.718-5.259-14.734-14.706-15.242-24.981-3.528 13.289 1.631 27.416 14.266 34.261a30.493 30.493 0 0 0 41.345-12.291c2.76-5.09 4.671-10.541 4.394-15.941z" fill="#f5b9ab"/><path d="M130.345 288.106c-.209 0-.417 0-.627-.006a31.5 31.5 0 0 1-21.228-54.2 31.618 31.618 0 0 1 42.824-.792 1 1 0 0 1-1.334 1.491 29.606 29.606 0 0 0-40.1.743 29.5 29.5 0 1 0 40.9 42.52 31.456 31.456 0 0 0 9.115-22.753 1 1 0 0 1 2-.043 33.52 33.52 0 0 1-9.728 24.238 31.286 31.286 0 0 1-21.822 8.802z" fill="#112c41"/><path d="M113.915 260.325a1 1 0 0 1-1-.982 18.676 18.676 0 0 1 20.826-19.038 19.639 19.639 0 0 1 13.046 7.109 1 1 0 0 1-1.545 1.272 17.643 17.643 0 0 0-11.721-6.393 16.678 16.678 0 0 0-18.606 17.015 1 1 0 0 1-.983 1.017z" fill="#112c41"/><path d="M116.179 139.982a104.786 104.786 0 0 1 10.347-19.834 108.554 108.554 0 0 1 13.557-16.548c30.324-30.385 73.906-38.744 109.335-24.349a88.937 88.937 0 0 1 26.588 16.739c1.6 1.464.5 3.229-1.195 3.354-17.081 1.261-45.442 10.938-64.12 20.7-12.461 6.512-24.387 15.38-35.909 25.459q-7.269 6.358-13.747 13.111a63.913 63.913 0 0 1-11.53-25.056c-1.708 10.215-.23 22.976 3.071 34.471-13.549 16.058-24.416 33.839-30.892 50.6-.536 1.385-2.243 1.978-3.129.143-11.712-24.237-12.536-52.872-2.376-78.79z" fill="#b2b0f7"/><path d="M121.487 219.133c2.448-6.416 8.485-18.3 12.014-24.739-10.389-21.658-13.911-55.679 4.136-82.793a98.047 98.047 0 0 1 22.6-23.909 109.117 109.117 0 0 0-33.718 32.455c-20.285 30.489-23.019 68.548-7.729 99.108a1.477 1.477 0 0 0 2.697-.122z" fill="#9797f7"/><path d="M120.044 220.918a2.7 2.7 0 0 1-2.39-1.715c-11.791-24.4-12.668-53.406-2.406-79.587a106.068 106.068 0 0 1 10.446-20.022 109.871 109.871 0 0 1 13.681-16.7 106.771 106.771 0 0 1 53.252-29.239 97.235 97.235 0 0 1 57.173 4.67 89.9 89.9 0 0 1 26.886 16.926 2.9 2.9 0 0 1 .963 3.11 3.091 3.091 0 0 1-2.758 1.981c-17.737 1.309-46.332 11.5-63.732 20.588-11.3 5.9-22.981 14.187-35.714 25.324a219.196 219.196 0 0 0-13.684 13.052 1.015 1.015 0 0 1-.784.3 1 1 0 0 1-.739-.4A66.874 66.874 0 0 1 149.9 139.1a88.366 88.366 0 0 0 3.637 28.653 1 1 0 0 1-.2.921c-13.421 15.907-24.333 33.774-30.725 50.312a2.869 2.869 0 0 1-2.474 1.932h-.094zm93.863-147.536a99.744 99.744 0 0 0-20.861 2.229 104.786 104.786 0 0 0-52.255 28.7 108.014 108.014 0 0 0-13.433 16.389 104.115 104.115 0 0 0-10.249 19.646c-10.058 25.663-9.2 54.088 2.346 77.985.086.178.313.586.594.586h.011a.944.944 0 0 0 .691-.655c6.415-16.6 17.314-34.5 30.718-50.473-3.472-12.328-4.548-24.837-2.951-34.4a1 1 0 0 1 .967-.835h.02a1 1 0 0 1 .979.8 62.887 62.887 0 0 0 10.656 23.71 222.508 222.508 0 0 1 12.984-12.317c12.853-11.242 24.663-19.613 36.1-25.592 17.579-9.186 46.516-19.481 64.51-20.808a1.142 1.142 0 0 0 1.017-.641c.129-.373-.159-.738-.423-.979a87.911 87.911 0 0 0-26.289-16.549 93.136 93.136 0 0 0-35.132-6.796z" fill="#112c41"/><circle cx="151.717" cy="281.49" fill="#fff" r="11.5"/><path d="M151.69 293.994a12.5 12.5 0 0 1-12.268-10.256 12.474 12.474 0 1 1 12.268 10.256zm.049-23.007a10.671 10.671 0 0 0-1.911.174 10.514 10.514 0 0 0-8.44 12.218 10.5 10.5 0 1 0 10.351-12.392z" fill="#112c41"/><circle cx="334.954" cy="160.56" fill="#fff" r="11.5"/><path d="M334.928 173.064a12.508 12.508 0 0 1-12.27-10.256 12.5 12.5 0 1 1 14.542 10.048 12.715 12.715 0 0 1-2.272.208zm-10.3-10.616a10.5 10.5 0 1 0 8.44-12.217 10.432 10.432 0 0 0-8.44 12.217zM59.964 133.784q-1.794 0-3.585-.092c-16.968-.875-32.062-7.912-42.5-19.812C-8.73 88.113-3.147 45.283 26.322 18.405a1 1 0 0 1 1.348 1.479C-1 46.032-6.513 87.608 15.381 112.562c10.081 11.49 24.677 18.286 41.1 19.132 19.1.987 38.44-6.2 53.02-19.719a1 1 0 1 1 1.359 1.467 75.455 75.455 0 0 1-50.896 20.342z" fill="#112c41"/><path d="M114.454 109.405a63 63 0 1 0-89.079-1.728 63 63 0 0 0 89.079 1.728" fill="#9797f7"/><path d="M34.856 88.594a61.054 61.054 0 0 0 98.02-13.948A63.027 63.027 0 0 0 21.948 24.175a61.029 61.029 0 0 0 12.908 64.419z" fill="#b2b0f7"/><path d="M70.792 127.972a63.975 63.975 0 0 1-49.618-104.43 64.754 64.754 0 0 1 5.231-5.665 64 64 0 1 1 44.387 110.1zM70.765 2.03a61.791 61.791 0 0 0-42.972 17.288 62.7 62.7 0 0 0-5.07 5.489A62.079 62.079 0 1 0 70.765 2.03z" fill="#112c41"/></svg></g><g transform="translate(1072.0 671.0) rotate(0.0 -44.5 65.5) translate(-0.0 0.0) scale(-1.167979002624672 1.1688914269398243)"><svg width="76.2" height="112.072" viewBox="0 0 76.2 112.072"><ellipse cx="44.664" cy="89.284" fill="#ffd6c0" rx="18.034" ry="32.862" transform="matrix(.44410357 -.89597545 .89597545 .44410357 -55.168 89.65)"/><path d="M58.369 112.025a51.378 51.378 0 0 1-22.44-5.811c-10.959-5.5-19.378-13.873-21.97-21.85a13.177 13.177 0 0 1 .435-10.288c4.82-9.327 22.316-10.1 39-1.723 10.96 5.5 19.379 13.874 21.972 21.851a13.177 13.177 0 0 1-.436 10.288c-2.575 4.991-8.787 7.533-16.561 7.533zM30.817 68.5c-6.927 0-12.384 2.184-14.62 6.513a11.211 11.211 0 0 0-.309 8.729c2.432 7.479 10.46 15.4 20.952 20.664 15.7 7.879 31.979 7.5 36.292-.841a11.211 11.211 0 0 0 .308-8.729c-2.431-7.479-10.46-15.4-20.952-20.664-7.555-3.797-15.245-5.672-21.671-5.672z" fill="#112c41"/><ellipse cx="32.372" cy="55.095" fill="#ffd6c0" rx="18.996" ry="33.22" transform="matrix(.44352489 -.89626206 .89626206 .44352489 -31.366 59.672)"/><path d="M45.4 78.584a50.672 50.672 0 0 1-22.2-5.7c-10.86-5.451-19.252-13.9-21.9-22.05a14.219 14.219 0 0 1 .488-11.1c5.063-9.8 22.9-10.881 39.766-2.416 10.86 5.451 19.253 13.9 21.9 22.049a14.225 14.225 0 0 1-.488 11.1c-2.778 5.364-9.385 8.117-17.566 8.117zM19.216 33.569c-7.346 0-13.2 2.39-15.631 7.089a12.247 12.247 0 0 0-.361 9.542c2.488 7.652 10.49 15.647 20.882 20.864 15.877 7.969 32.5 7.28 37.053-1.535a12.243 12.243 0 0 0 .36-9.545C59.032 52.335 51.03 44.34 40.637 39.123a49.091 49.091 0 0 0-21.421-5.554z" fill="#112c41"/><ellipse cx="31.345" cy="25.171" fill="#ffd6c0" rx="19.021" ry="33.781" transform="matrix(.53339309 -.84586749 .84586749 .53339309 -6.666 38.259)"/><path d="M45.884 50.292c-7.63 0-16.863-2.826-25.542-8.374C9.856 35.216 2.219 25.785.412 17.307A14.071 14.071 0 0 1 2.035 6.421C8.1-2.8 26.187-1.9 42.347 8.425c10.486 6.7 18.123 16.132 19.931 24.611a14.072 14.072 0 0 1-1.623 10.886c-2.81 4.269-8.195 6.37-14.771 6.37zM16.75 2C10.905 2 6.177 3.817 3.73 7.536a12.1 12.1 0 0 0-1.33 9.347c1.7 7.967 8.993 16.9 19.038 23.325 15.231 9.735 32.063 10.9 37.525 2.6a12.1 12.1 0 0 0 1.333-9.348c-1.7-7.967-8.994-16.9-19.039-23.324C32.848 4.761 23.952 2 16.75 2z" fill="#112c41"/></svg></g><g transform="translate(288.0 591.0) rotate(0.0 183.0 148.5) scale(1.0243980262145134 1.0247244974709662)"><svg width="357.283" height="289.834" viewBox="0 0 357.283 289.834"><ellipse cx="283.397" cy="139.224" fill="#ffd6c0" rx="50.601" ry="21.116" transform="matrix(.8058 -.5922 .5922 .8058 -27.407 194.8828)"/><path d="M254.074 174.659c-5.63 0-9.845-1.655-12.227-4.896-3.586-4.878-2.503-12.648 3.049-21.877 5.403-8.981 14.432-18.375 25.423-26.454s22.653-13.892 32.837-16.368c10.466-2.545 18.204-1.259 21.79 3.62s2.503 12.648-3.049 21.877c-5.403 8.98-14.432 18.375-25.423 26.454s-22.653 13.891-32.837 16.367c-3.512.855-6.718 1.277-9.563 1.277zm16.816-52.45.571.777c-10.79 7.931-19.637 17.127-24.912 25.894-5.125 8.519-6.242 15.529-3.147 19.74 3.094 4.21 10.117 5.236 19.779 2.887 9.941-2.417 21.359-8.116 32.15-16.047 10.79-7.931 19.637-17.127 24.912-25.894 5.125-8.519 6.242-15.529 3.147-19.74-3.095-4.21-10.117-5.235-19.779-2.887-9.941 2.417-21.359 8.116-32.15 16.047z" fill="#112c41"/><path d="M324.777 177.784c46.719 30.367 46.234-40.73-33.887-50.35-43.756-5.254-72.6 16.378-120.137 14.079-19.647-.95-27.751-1.888-42.447-7.964-1.206-17.128 11.101-28.174 26.536-34.862C150.99 74.421 107.477 17.063 68.715 1 44.594 16.099-3.616 63.883 1.357 134.647c5.645 80.338 70.382 126.229 133.496 131.201 73.567 5.796 112.932-29.72 144.849-29.72h30.336c19.661 0 22.557-12.494 14.292-20.4 11.32 1.258 27.417-14.552.447-37.944z" fill="#ffd6c0"/><path d="M151.02 267.492c-5.224 0-10.631-.204-16.245-.646-33.105-2.608-64.673-15.958-88.887-37.59C18.745 205.008 3.002 172.317.36 134.718-4.544 64.93 42.581 16.18 68.184.152a.997.997 0 0 1 .913-.076c17.539 7.268 38.146 24.052 56.539 46.05 16.402 19.616 28.253 40.186 30.192 52.404a.998.998 0 0 1-.59 1.074c-12.396 5.371-26.882 15.486-25.973 33.258 14.354 5.87 22.469 6.729 41.534 7.651 22.803 1.101 41.335-3.349 59.262-7.654 19.61-4.709 38.133-9.158 60.947-6.418 39.091 4.693 61.075 24.237 65.523 41.524 1.79 6.959.294 12.958-4.002 16.044-4.826 3.468-12.38 2.911-21.311-1.411 11.144 12.068 10.015 20.805 8.077 25.233-2.184 4.989-7.361 8.528-12.67 8.929 2.916 3.667 3.817 7.987 2.332 11.691-2.213 5.514-9.109 8.676-18.922 8.676h-30.336c-11.782 0-24.904 5.035-40.098 10.864-22.941 8.805-50.819 19.5-88.581 19.501zM68.808 2.123C43.461 18.207-2.456 66.133 2.354 134.577c2.605 37.069 18.12 69.293 44.866 93.188 23.89 21.342 55.04 34.513 87.711 37.087 45.756 3.608 78.026-8.777 103.956-18.726 15.38-5.901 28.661-10.997 40.814-10.997h30.336c8.953 0 15.173-2.705 17.065-7.421 1.421-3.541.093-7.854-3.465-11.257a1 1 0 0 1-.215-1.146.984.984 0 0 1 1.017-.57c4.465.492 10.544-2.036 13.024-7.704 3.411-7.793-1.452-18.178-13.343-28.491a1.001 1.001 0 0 1 1.2-1.594c11.219 7.291 20.711 9.273 26.042 5.44 3.601-2.587 4.809-7.792 3.231-13.922-3.192-12.408-20.227-34.803-63.824-40.038-22.462-2.697-40.812 1.71-60.241 6.377-18.063 4.337-36.75 8.817-59.825 7.708-19.577-.947-27.768-1.832-42.78-8.039a.998.998 0 0 1-.615-.854c-1.064-15.097 8.066-27.372 26.413-35.533-4.585-24.479-47.438-80.116-84.913-95.962z" fill="#112c41"/><path d="M33.215 180.95C9.053 136.244 9.107 81.988 30.325 39.838-2.221 81.306-8.288 141.9 18.218 190.943c29.961 55.435 93.953 82.142 155.402 72.99-57.308-1.546-112.369-31.109-140.405-82.983z" fill="#f5b9ab"/><path d="M328.838 180.792c-11.088-8.658-21.353-13.548-29.444-16.774" fill="#ffd6c0"/><path d="M328.836 181.792a.99.99 0 0 1-.614-.212c-11.706-9.14-22.271-13.871-29.198-16.634a.999.999 0 1 1 .74-1.857c7.042 2.808 17.781 7.617 29.688 16.915a.999.999 0 0 1-.616 1.788z" fill="#112c41"/><path d="M325.193 216.573c-7.852-6.781-16.774-11.421-31.942-15.703" fill="#ffd6c0"/><g fill="#112c41"><path d="M325.193 217.573a.994.994 0 0 1-.653-.243c-8.049-6.951-17.192-11.44-31.561-15.498a1 1 0 0 1 .543-1.925c14.673 4.143 24.037 8.752 32.324 15.909a1 1 0 0 1-.653 1.757zm-195.355 72.262c-.458 0-.913-.047-1.368-.146-1.442-.312-2.673-1.277-3.657-2.867-6.936-11.205-1.431-53.579 7.271-87.759 5.164-20.29 11.97-38.88 19.163-52.347 5.23-9.793 12.915-21.092 19.942-19.31 3.835.977 6.378 5.639 7.559 13.856a1.002 1.002 0 0 1-1.981.284c-1.023-7.132-3.181-11.465-6.072-12.202-4.433-1.133-10.867 5.55-17.684 18.314-7.12 13.329-13.864 31.76-18.99 51.897-9.947 39.076-13.245 76.945-7.509 86.214.688 1.111 1.488 1.772 2.379 1.964 6.492 1.412 14.686-11.94 20.123-20.767l.486-.791a1 1 0 0 1 1.703 1.05l-.487.79c-5.721 9.293-13.438 21.818-20.878 21.82zm56.486-4.052c-.09 0-.179-.003-.269-.008-11.478-.728-18.889-37.381-16.185-80.04 1.287-20.3 4.505-39.27 9.059-53.415 3.313-10.29 8.788-22.457 15.984-22.003 3.854.245 6.84 3.032 9.125 8.522a1 1 0 1 1-1.846.769c-1.964-4.717-4.387-7.103-7.406-7.294-4.516-.284-9.643 7.226-13.954 20.62-4.504 13.992-7.688 32.789-8.966 52.929-2.783 43.898 5.263 77.342 14.315 77.916.049.003.098.005.147.005 4.368 0 10.371-12.092 13.083-23.128a1 1 0 1 1 1.941.478c-2.361 9.617-8.497 24.649-15.028 24.649z"/><path d="M151.02 267.492c-5.224 0-10.631-.204-16.245-.646-33.105-2.608-64.673-15.958-88.887-37.59C18.745 205.008 3.002 172.317.36 134.718-4.544 64.93 42.581 16.18 68.184.152a.997.997 0 0 1 .913-.076c17.539 7.268 38.146 24.052 56.539 46.05 16.402 19.616 28.253 40.186 30.192 52.404a.998.998 0 0 1-.59 1.074c-12.396 5.371-26.882 15.486-25.973 33.258 14.354 5.87 22.469 6.729 41.534 7.651 22.803 1.101 41.335-3.349 59.262-7.654 19.61-4.709 38.133-9.158 60.947-6.418 39.091 4.693 61.075 24.237 65.523 41.524 1.79 6.959.294 12.958-4.002 16.044-4.826 3.468-12.38 2.911-21.311-1.411 11.144 12.068 10.015 20.805 8.077 25.233-2.184 4.989-7.361 8.528-12.67 8.929 2.916 3.667 3.817 7.987 2.332 11.691-2.213 5.514-9.109 8.676-18.922 8.676h-30.336c-11.782 0-24.904 5.035-40.098 10.864-22.941 8.805-50.819 19.5-88.581 19.501zM68.808 2.123C43.461 18.207-2.456 66.133 2.354 134.577c2.605 37.069 18.12 69.293 44.866 93.188 23.89 21.342 55.04 34.513 87.711 37.087 45.756 3.608 78.026-8.777 103.956-18.726 15.38-5.901 28.661-10.997 40.814-10.997h30.336c8.953 0 15.173-2.705 17.065-7.421 1.421-3.541.093-7.854-3.465-11.257a1 1 0 0 1-.215-1.146.984.984 0 0 1 1.017-.57c4.465.492 10.544-2.036 13.024-7.704 3.411-7.793-1.452-18.178-13.343-28.491a1.001 1.001 0 0 1 1.2-1.594c11.219 7.291 20.711 9.273 26.042 5.44 3.601-2.587 4.809-7.792 3.231-13.922-3.192-12.408-20.227-34.803-63.824-40.038-22.462-2.697-40.812 1.71-60.241 6.377-18.063 4.337-36.75 8.817-59.825 7.708-19.577-.947-27.768-1.832-42.78-8.039a.998.998 0 0 1-.615-.854c-1.064-15.097 8.066-27.372 26.413-35.533-4.585-24.479-47.438-80.116-84.913-95.962z"/></g></svg></g></svg>