<svg xmlns="http://www.w3.org/2000/svg" viewBox="0 0 1800 1800" width="1800" height="1800"><g transform="translate(414.0 1582.0) rotate(0.0 328.5 23.5) translate(142.0 0.0) scale(1.037914691943128 1.0217391304347827)"><svg width="496.187" height="45.021" viewBox="136.813 0 496.187 45.021"><ellipse cx="316.5" cy="23" fill="#cbc8ff" rx="316.5" ry="23"/></svg></g><g transform="translate(896.0 282.0) rotate(0.0 360.5 275.5) scale(1.0002302888043573 1.0)"><svg width="720.834" height="551" viewBox="0 0 720.834 551"><path d="M663.247 551H90.586c-31.805 0-57.587-25.783-57.587-57.587V89.587C32.999 57.783 58.782 32 90.586 32h572.66c31.805 0 57.587 25.783 57.587 57.587v403.826c.001 31.804-25.782 57.587-57.586 57.587z" fill="#cbc8ff"/><path d="M643.874 520H45.96C21.129 520 1 499.871 1 475.04V45.96C1 21.129 21.129 1 45.96 1h597.914c24.831 0 44.96 20.129 44.96 44.96v429.08c.001 24.831-20.129 44.96-44.96 44.96z" fill="#9797f7"/><path d="M643.875 521H45.96C20.618 521 0 500.383 0 475.04V45.96C0 20.617 20.618 0 45.96 0h597.915c25.342 0 45.96 20.617 45.96 45.96v429.08c0 25.343-20.618 45.96-45.96 45.96zM45.96 2C21.72 2 2 21.721 2 45.96v429.08C2 499.279 21.72 519 45.96 519h597.915c24.24 0 43.96-19.721 43.96-43.96V45.96c0-24.239-19.72-43.96-43.96-43.96z" fill="#112c41"/></svg></g><g transform="translate(807.0 750.0) rotate(0.0 -221.0 437.5) scale(-1.0012617710553797 1.0004104541177465)"><svg width="441.443" height="874.641" viewBox="0 0 441.443 874.641"><path d="M232.168 676.115a833.345 833.345 0 0 1-17.487-34.982l-.103-.193c-.034-.078-.075-.15-.103-.207-5.688-12.076-11.223-23.793-15.97-34.065 0 0-82.533 42.831-130.225 60.381 5.559 11.31 10.218 20.639 16.59 32.357a15033.306 15033.306 0 0 0 20.358 37.327z" fill="#ffd6c0"/><path d="m180.931 606.01 37.08 77.044c4.659.63 13.679 1.947 16.84 1.842-14.631-30.837-39.132-82.545-39.132-82.545z" fill="#f5b9ab"/><path d="M105.229 737.733a1 1 0 0 1-.878-.52c-.094-.172-9.533-17.409-20.359-37.329-6.611-12.157-11.433-21.863-16.609-32.394a1 1 0 0 1 .552-1.379c47.086-17.327 129.285-59.902 130.109-60.33a1.01 1.01 0 0 1 .784-.059c.258.089.469.279.584.526 4.12 8.915 8.786 18.818 13.727 29.304l2.24 4.756c.047.089.083.159.115.233l.068.121c5.814 12.317 11.364 23.42 17.488 34.984a1.002 1.002 0 0 1-.453 1.37l-126.94 60.618a.96.96 0 0 1-.428.099zm-35.562-70.13c4.983 10.131 9.698 19.585 16.082 31.326a15145.935 15145.935 0 0 0 19.902 36.493l125.146-59.761c-5.947-11.262-11.369-22.126-17.02-34.102l-.081-.149-.073-.146a2.694 2.694 0 0 1-.047-.093l-2.246-4.767c-4.768-10.118-9.28-19.695-13.294-28.368-9.182 4.735-83.752 42.98-128.369 59.567z" fill="#112c41"/><path d="M84.676 837.172c50.527-8.015 106.897-39.198 150.107-73.225 12.595-9.923 24.075-20.076 33.961-29.978 0 0-23.486-35.727-36.577-57.854l-10.239 4.925s-116.353 55.621-116.701 55.693c-6.373 9.186-33.962 53.555-20.551 100.439z" fill="#b2b0f7"/><path d="M84.676 838.172a1 1 0 0 1-.961-.725c-13.776-48.16 14.819-92.82 20.691-101.284a.997.997 0 0 1 .462-.362c2.185-.955 115.483-55.115 116.629-55.663l10.237-4.924a.999.999 0 0 1 1.294.393c12.929 21.854 36.317 57.457 36.552 57.813a1 1 0 0 1-.128 1.256c-10.023 10.04-21.479 20.153-34.05 30.057-49.332 38.848-105.62 66.297-150.57 73.427a1.025 1.025 0 0 1-.156.012zm21.234-100.667c-4.111 5.981-33.563 51.135-20.512 98.537 44.482-7.295 100.012-34.488 148.767-72.882 12.269-9.666 23.467-19.528 33.297-29.323-3.271-4.991-23.658-36.175-35.687-56.424l-9.413 4.527c-98.942 47.299-114.047 54.46-116.452 55.565z" fill="#360815"/><path d="M268.745 733.969s-23.486-35.727-36.577-57.854l-11.445 8.307c8.871 20.647 23.221 52.695 22.194 73.188-.011.216 15.942-13.739 25.828-23.641z" fill="#9797f7"/><path d="M211.25 783.755a2.499 2.499 0 0 1-2.22-1.348c-8.056-15.485-10.684-35.678-7.21-55.399 3.743-21.247 14.042-38.866 29-49.612a2.499 2.499 0 1 1 2.917 4.06c-29.826 21.427-35.302 69.752-20.272 98.645a2.5 2.5 0 0 1-2.215 3.654z" fill="#fff"/><path d="M84.676 838.172a1 1 0 0 1-.961-.725c-13.776-48.16 14.819-92.82 20.691-101.284a.997.997 0 0 1 .462-.362c2.185-.955 115.483-55.115 116.629-55.663l10.237-4.924a.999.999 0 0 1 1.294.393c12.929 21.854 36.317 57.457 36.552 57.813a1 1 0 0 1-.128 1.256c-10.023 10.04-21.479 20.153-34.05 30.057-49.332 38.848-105.62 66.297-150.57 73.427a1.025 1.025 0 0 1-.156.012zm21.234-100.667c-4.111 5.981-33.563 51.135-20.512 98.537 44.482-7.295 100.012-34.488 148.767-72.882 12.269-9.666 23.467-19.528 33.297-29.323-3.271-4.991-23.658-36.175-35.687-56.424l-9.413 4.527c-98.942 47.299-114.047 54.46-116.452 55.565z" fill="#112c41"/><path d="M92.523 858.956c.736 1.417 1.883 2.426 3.634 2.747 31.891 5.849 140.982-51.143 183.113-98.4 3.609-4.048 3.135-7.191 1.725-10.201l-12.251-19.133c-43.824 43.868-118.817 92.848-184.069 103.202 2.03 7.753 4.521 15.384 7.848 21.785z" fill="#fff"/><path d="M101.12 863.105c-1.896 0-3.613-.138-5.143-.419-1.938-.355-3.398-1.455-4.341-3.27-2.944-5.663-5.537-12.856-7.927-21.992a1.002 1.002 0 0 1 .81-1.24c65.891-10.455 141.319-60.681 183.518-102.922a1 1 0 0 1 1.55.168l12.251 19.133a.856.856 0 0 1 .063.115c1.393 2.975 2.259 6.643-1.885 11.29-19.59 21.973-55.356 47.891-95.674 69.332-35.358 18.804-66.304 29.804-83.222 29.805zm-15.195-25.123c2.273 8.485 4.725 15.203 7.485 20.513.652 1.255 1.61 1.982 2.927 2.225 1.422.261 3.021.388 4.774.388 35.506.005 135.966-51.982 177.412-98.469 3.152-3.536 2.925-6.182 1.594-9.054l-11.546-18.031c-42.347 42.043-117.034 91.602-182.646 102.428z" fill="#112c41"/><path d="M232.165 676.112c-33.45 26.895-88.484 52.058-126.937 60.622 0 0-7.67-14.167-17.324-31.743-.336-.609-.67-1.227-1.005-1.845a190.71 190.71 0 0 0-1.013-1.857c-.334-.618-.676-1.249-1.019-1.879 35.466-8.473 87.532-33.285 129.472-58.927 0 0 .043.09.133.251.029.057.076.128.102.204.037.069.076.128.104.194a835.219 835.219 0 0 0 17.487 34.98z" fill="#fff"/><path d="M105.228 737.733a1 1 0 0 1-.879-.523c-.077-.142-7.779-14.365-17.321-31.738a241.27 241.27 0 0 1-.975-1.79c-.366-.677-.698-1.292-1.041-1.908l-1.023-1.888a1 1 0 0 1 .647-1.449c32.9-7.859 83.607-30.942 129.183-58.808a.999.999 0 0 1 1.426.426c.005.011.039.079.102.192.053.094.096.176.131.256.058.102.096.177.129.257a831.329 831.329 0 0 0 17.443 34.885 1 1 0 0 1-.257 1.247c-31.83 25.593-86.577 51.738-127.347 60.818a1.084 1.084 0 0 1-.218.023zm-18.862-37.659.4.738c.341.614.677 1.235 1.013 1.858.354.654.677 1.25 1 1.836a6901.046 6901.046 0 0 1 16.968 31.085c40.155-9.107 93.627-34.637 125.148-59.743a830.362 830.362 0 0 1-16.959-33.947c-44.919 27.356-94.687 50.044-127.57 58.173z" fill="#112c41"/><circle cx="129.502" cy="755.92" fill="#ffe993" r="8.5"/><path d="M129.548 758.871c-13.619 6.981-31.95 7.303-38.164 5.459a2.833 2.833 0 0 1 1.611-5.431c4.771 1.415 22.331 1.255 34.751-5.482a2.832 2.832 0 0 1 2.703 4.978c-.298.162-.599.321-.901.476z" fill="#fff"/><path d="M100.617 766.298c-4.074 0-7.436-.393-9.518-1.01a3.837 3.837 0 0 1-2.584-4.764 3.838 3.838 0 0 1 4.763-2.585c4.646 1.378 21.814 1.201 33.99-5.401a3.837 3.837 0 0 1 5.196 1.538 3.837 3.837 0 0 1-1.538 5.197 47.7 47.7 0 0 1-.922.486h-.001c-9.47 4.857-20.951 6.539-29.386 6.539zm-8.427-6.516a1.834 1.834 0 0 0-.522 3.589c5.948 1.766 24.043 1.469 37.424-5.39.295-.152.59-.308.882-.466a1.834 1.834 0 0 0 .734-2.483 1.835 1.835 0 0 0-2.486-.735c-12.656 6.866-30.628 7.009-35.512 5.562a1.771 1.771 0 0 0-.52-.077z" fill="#112c41"/><circle cx="124.183" cy="782.268" fill="#ffe993" r="8.5"/><path d="M124.141 785.219c-13.82 6.575-34.002 5.096-40.158 3.069a2.832 2.832 0 1 1 1.771-5.381c4.727 1.556 24.133 3.173 36.747-3.193a2.832 2.832 0 0 1 2.555 5.055c-.302.154-.608.304-.915.45z" fill="#fff"/><path d="M99.175 790.992c-6.964 0-12.829-.872-15.505-1.753a3.837 3.837 0 0 1-2.442-4.839c.32-.973 1-1.763 1.913-2.224a3.804 3.804 0 0 1 2.925-.219c4.344 1.432 23.424 3.202 35.984-3.136a3.84 3.84 0 0 1 5.148 1.691 3.838 3.838 0 0 1-1.691 5.149c-.31.156-.622.31-.935.459l-.001.001c-7.77 3.697-17.322 4.871-25.396 4.871zm-14.31-7.227c-.283 0-.564.065-.823.197a1.834 1.834 0 0 0 .253 3.375c5.562 1.833 25.455 3.62 39.416-3.022.299-.143.599-.29.894-.438.9-.456 1.263-1.561.808-2.462s-1.56-1.266-2.463-.808c-13.076 6.6-32.976 4.741-37.51 3.25a1.864 1.864 0 0 0-.575-.092z" fill="#112c41"/><path d="M381.506 748.715a833.164 833.164 0 0 1-1.934-39.062l-.017-.218c0-.086-.009-.167-.011-.231-.349-13.344-.702-26.298-.915-37.612 0 0-92.791 6.005-143.513 2.883.538 12.591 1.05 23.005 2.169 36.298 1.918 22.852 3.619 42.363 3.619 42.363z" fill="#ffd6c0"/><path d="m362.805 663.919 2.949 85.451c4.012 2.451 11.74 7.286 14.676 8.461-.987-34.118-2.613-91.314-2.613-91.314z" fill="#f5b9ab"/><path d="M240.904 754.137a1 1 0 0 1-.996-.913c-.017-.195-1.723-19.773-3.62-42.365-1.161-13.797-1.671-24.62-2.172-36.339a.998.998 0 0 1 1.061-1.041c50.078 3.081 142.46-2.823 143.387-2.884a1.002 1.002 0 0 1 1.065.98c.186 9.86.475 20.856.781 32.497l.134 5.106c.007.105.011.182.011.26l.014.138c.366 13.613.98 26.011 1.935 39.065a1 1 0 0 1-.965 1.073l-140.602 4.423h-.033zm-4.742-78.595c.486 11.275.998 21.825 2.119 35.149a15023.63 15023.63 0 0 0 3.537 41.417l138.614-4.36c-.914-12.707-1.506-24.833-1.861-38.068l-.014-.168-.007-.162a4.052 4.052 0 0 1-.006-.11l-.134-5.114c-.295-11.235-.575-21.87-.761-31.468-10.312.639-93.967 5.651-141.487 2.884z" fill="#112c41"/><path d="M181.679 836.819c49.482 12.991 113.634 7.123 166.883-6.643 15.523-4.017 30.118-8.693 43.152-13.78 0 0-7.127-42.157-10.209-67.681l-11.355.389s-128.899 4.107-129.246 4.034c-9.531 5.844-52.639 35.363-59.225 83.681z" fill="#b2b0f7"/><path d="M244.626 844.978c-23.311 0-44.861-2.377-63.2-7.192a1 1 0 0 1-.737-1.102c6.765-49.639 50.912-79.015 59.693-84.399a.994.994 0 0 1 .569-.146h.005c2.537 0 127.894-3.993 129.163-4.033l11.353-.39.035-.001a1 1 0 0 1 .992.88c3.043 25.21 10.131 67.214 10.202 67.635a1 1 0 0 1-.623 1.099c-13.219 5.16-27.776 9.809-43.265 13.816-35.465 9.168-71.547 13.833-104.187 13.833zm-61.832-8.902c43.658 11.218 105.436 8.665 165.518-6.867 15.117-3.912 29.337-8.436 42.281-13.449-.987-5.886-7.104-42.636-9.97-66.014l-10.439.357c-109.587 3.492-126.314 3.972-128.967 4.016-6.169 3.82-51.299 33.304-58.423 81.957zm58.11-82.939h.01z" fill="#360815"/><path d="M391.715 816.396s-7.127-42.157-10.209-67.681l-13.82 3.001c-.186 22.471.057 57.585-9.128 75.932-.097.192 20.123-6.164 33.157-11.252z" fill="#9797f7"/><path d="M320.05 839.051a2.5 2.5 0 0 1-2.492-2.336c-1.144-17.419 4.574-36.962 15.689-53.619 11.975-17.946 28.492-29.933 46.51-33.752a2.494 2.494 0 0 1 2.964 1.927 2.5 2.5 0 0 1-1.927 2.964c-35.926 7.616-60.382 49.654-58.247 82.152a2.499 2.499 0 0 1-2.497 2.664z" fill="#fff"/><path d="M244.626 844.978c-23.311 0-44.861-2.377-63.2-7.192a1 1 0 0 1-.737-1.102c6.765-49.639 50.912-79.015 59.693-84.399a.994.994 0 0 1 .569-.146h.005c2.537 0 127.894-3.993 129.163-4.033l11.353-.39.035-.001a1 1 0 0 1 .992.88c3.043 25.21 10.131 67.214 10.202 67.635a1 1 0 0 1-.623 1.099c-13.219 5.16-27.776 9.809-43.265 13.816-35.465 9.168-71.547 13.833-104.187 13.833zm-61.832-8.902c43.658 11.218 105.436 8.665 165.518-6.867 15.117-3.912 29.337-8.436 42.281-13.449-.987-5.886-7.104-42.636-9.97-66.014l-10.439.357c-109.587 3.492-126.314 3.972-128.967 4.016-6.169 3.82-51.299 33.304-58.423 81.957zm58.11-82.939h.01z" fill="#112c41"/><path d="M180.098 859.919c.104 1.593.747 2.978 2.222 3.977 26.842 18.185 149.644 9.901 207.229-16.411 4.933-2.254 5.763-5.322 5.684-8.645l-3.518-22.445c-57.771 22.529-146.132 37.197-210.035 20.423-1.262 7.915-2.052 15.903-1.582 23.101z" fill="#fff"/><path d="M242.265 874.643c-28.942 0-51.006-3.483-60.506-9.919-1.631-1.105-2.525-2.7-2.659-4.739-.416-6.369.104-13.998 1.591-23.323.044-.279.205-.526.441-.681.237-.153.528-.2.8-.129 64.531 16.938 153.791 1.305 209.418-20.388a1 1 0 0 1 1.352.776l3.518 22.445a.981.981 0 0 1 .012.131c.079 3.284-.604 6.99-6.268 9.578-26.774 12.234-69.946 21.572-115.484 24.979-11.4.855-22.219 1.27-32.215 1.27zm-61.169-14.789c.093 1.411.676 2.463 1.785 3.214 25.427 17.228 146.808 10.671 206.252-16.491 4.309-1.97 5.165-4.482 5.101-7.646l-3.315-21.153c-39.307 15.144-94.882 27.231-146.826 27.233-21.642 0-42.649-2.098-61.597-6.946-1.332 8.682-1.79 15.818-1.4 21.789z" fill="#112c41"/><path d="M381.505 748.711c-41.444 11.164-101.951 12.058-140.6 4.427 0 0-1.322-16.055-3.088-36.031-.063-.692-.12-1.393-.178-2.094-.057-.701-.115-1.401-.18-2.107-.057-.701-.117-1.415-.177-2.13 35.878 6.513 93.527 4.745 142.239-1.855 0 0 .003.1.021.284.004.064.018.147.011.228.006.078.019.148.017.22a834.37 834.37 0 0 0 1.935 39.058z" fill="#fff"/><path d="M299.062 759.116c-20.892 0-41.319-1.635-58.351-4.997a1.002 1.002 0 0 1-.803-.899c-.013-.16-1.342-16.281-3.088-36.025a214.12 214.12 0 0 1-.178-2.099 195.85 195.85 0 0 0-.179-2.098l-.178-2.138a1 1 0 0 1 1.175-1.068c33.281 6.041 88.991 5.312 141.926-1.862.281-.035.565.046.781.229.216.184.344.45.353.733 0 .012.004.088.016.217.011.11.017.202.017.288.012.117.017.199.015.282a829.615 829.615 0 0 0 1.934 38.959 1 1 0 0 1-.737 1.039c-23.045 6.206-53.332 9.439-82.703 9.439zm-57.223-6.815c40.426 7.815 99.652 5.961 138.609-4.344a831.18 831.18 0 0 1-1.868-37.901c-52.128 6.972-106.819 7.72-140.194 1.932l.069.837a174 174 0 0 1 .18 2.107c.057.696.114 1.394.177 2.083a6893.964 6893.964 0 0 1 3.027 35.286z" fill="#112c41"/><circle cx="255.407" cy="780.469" fill="#ffe993" r="8.5"/><path d="M254.262 783.189c-15.277.912-32.188-6.169-37.136-10.357a2.833 2.833 0 0 1 3.66-4.324c3.798 3.215 19.939 10.133 34.02 8.963a2.833 2.833 0 0 1 .473 5.645c-.338.028-.678.053-1.017.073z" fill="#fff"/><path d="M251.474 784.271c-14.903 0-30.208-6.626-34.993-10.676a3.837 3.837 0 0 1-.449-5.401 3.84 3.84 0 0 1 5.401-.45c3.698 3.132 19.482 9.862 33.292 8.731 2.106-.191 3.962 1.395 4.138 3.499s-1.394 3.961-3.499 4.138c-.345.029-.693.055-1.04.075h-.001c-.946.057-1.898.084-2.849.084zm-32.516-15.432c-.521 0-1.039.22-1.4.647a1.835 1.835 0 0 0 .215 2.582c4.736 4.009 21.419 11.008 36.43 10.123h-.001c.331-.021.663-.044.993-.071a1.836 1.836 0 0 0 1.673-1.979c-.084-1.005-.972-1.771-1.979-1.672-14.351 1.186-30.862-5.907-34.749-9.198a1.82 1.82 0 0 0-1.182-.432z" fill="#112c41"/><circle cx="239.937" cy="802.45" fill="#ffe993" r="8.5"/><path d="M238.712 805.135c-15.297.459-33.178-9.015-38-13.347a2.833 2.833 0 0 1 3.786-4.214c3.701 3.326 20.817 12.614 34.926 11.862a2.833 2.833 0 0 1 .306 5.656 43.07 43.07 0 0 1-1.018.043z" fill="#fff"/><path d="M237.618 806.152c-15.732 0-33.154-9.648-37.575-13.62-1.571-1.412-1.701-3.84-.289-5.412s3.84-1.702 5.412-.29c3.401 3.057 20.163 12.389 34.205 11.607a3.837 3.837 0 0 1 4.032 3.62 3.837 3.837 0 0 1-3.619 4.033 45.76 45.76 0 0 1-1.041.044l-.001.001c-.373.011-.749.017-1.124.017zm-35.012-18.302c-.502 0-1.003.204-1.364.606a1.834 1.834 0 0 0 .138 2.587c4.254 3.823 21.038 13.108 36.215 13.108a41.529 41.529 0 0 0 2.083-.059 1.836 1.836 0 0 0 1.729-1.929 1.836 1.836 0 0 0-1.93-1.729c-14.623.76-32.098-8.929-35.647-12.117a1.834 1.834 0 0 0-1.224-.467z" fill="#112c41"/><path d="M389.305 489.147c-2.92 67.69-.24 138.35 1.21 168.25.41 8.36-5.75 15.59-14.07 16.52-1.52.17-3.13.35-4.83.53-16.79 1.8-41.6 4.11-63.31 4.7-37 1-73.05-1.38-73.05-1.38s-12.95-152.62-14.95-245.62 12-207 12-207-.16.23-.45.67v.01c-4.48 6.64-40.32 61.37-50.55 124.32-12.07 74.27 6.03 189.03 25.48 238.71 2.56 6.53.42 13.98-5.28 18.07-4.14 2.97-8.78 6.02-13.8 9.09-38.77 23.74-99.61 48.94-118.22 53.48-7.36-9.7-83.18-164.35-65.18-335.35 16.36-155.43 113-349 274-332 2.84.3 5.64.64 8.39 1.03 146.81 20.26 160.6 152 151.61 220.97-9 69-43 126-49 265z" fill="#ffa9dc"/><path d="M289.448 680.39c-29.236 0-53.96-1.605-54.259-1.625a1 1 0 0 1-.93-.913c-.13-1.527-12.976-153.716-14.954-245.684-1.764-82.018 9.047-181.504 11.514-202.95-8.565 13.264-39.217 63.798-48.528 121.089-12.327 75.853 6.5 189.849 25.424 238.186 2.74 6.988.425 14.903-5.628 19.247-4.098 2.939-8.762 6.012-13.861 9.131-39.382 24.114-100.421 49.187-118.505 53.599a1.013 1.013 0 0 1-1.034-.367c-3.714-4.895-24.515-45.833-42.264-107.516C10.668 507.833-6.131 423.737 3.31 334.043c8.795-83.559 39.8-169.964 82.937-231.133C152.455 9.028 227.289-4.24 278.41 1.153c2.923.309 5.758.656 8.426 1.034 34.512 4.763 63.901 16.056 87.347 33.563 20.298 15.157 36.329 35.082 47.648 59.221 24.239 51.688 20.289 107.646 17.466 129.305-3.233 24.787-9.561 47.589-16.888 73.991-12.59 45.368-28.259 101.83-32.105 190.923l-.999-.043.999.043c-2.951 68.413-.137 140.389 1.21 168.158.435 8.861-6.136 16.576-14.958 17.563-1.522.17-3.134.35-4.836.529-16.993 1.823-41.785 4.119-63.388 4.706a698.47 698.47 0 0 1-18.884.244zm-53.269-3.567c5.691.347 38.704 2.225 72.099 1.324 21.537-.585 46.272-2.876 63.23-4.694 1.699-.18 3.308-.359 4.826-.529 7.775-.869 13.565-7.668 13.182-15.478-1.348-27.798-4.165-99.847-1.21-168.342 3.855-89.322 19.558-145.906 32.176-191.372 7.307-26.329 13.617-49.067 16.832-73.714 2.801-21.485 6.722-76.986-17.294-128.197-24.365-51.958-69.268-82.794-133.461-91.653-2.647-.375-5.458-.72-8.358-1.026-50.59-5.337-124.67 7.831-190.318 100.921C44.932 164.965 14.06 251.017 5.299 334.252c-17.465 165.92 54.449 319.198 64.603 334.11 18.752-4.81 78.516-29.461 117.28-53.197 5.059-3.094 9.681-6.139 13.74-9.05 5.309-3.81 7.337-10.756 4.932-16.893-19.008-48.55-37.918-163.049-25.536-239.235 10.269-63.186 46.303-118.178 50.656-124.642a.783.783 0 0 1 .047-.079c.298-.452.463-.689.463-.689a1 1 0 0 1 1.814.693c-.14 1.139-13.968 114.995-11.993 206.856 1.898 88.302 13.827 232.202 14.874 244.697z" fill="#112c41"/><path d="M389.305 489.147c-2.92 67.69-.24 138.35 1.21 168.25.41 8.36-5.75 15.59-14.07 16.52-1.52.17-3.13.35-4.83.53 8.32-14.7-5.867-87.106-3.31-163.3 5-149 48-241 45-333-4.538-139.156-126.61-174.97-126.61-174.97 146.81 20.26 160.6 152 151.61 220.97-9 69-43 126-49 265zm-157.45-263.33v.01c-4.48 6.64-40.32 61.37-50.55 124.32-12.07 74.27 6.03 189.03 25.48 238.71 2.56 6.53.42 13.98-5.28 18.07-4.14 2.97-8.78 6.02-13.8 9.09 8.6-28.87-37.4-107.87-29.4-228.87 4.63-70.025 19-121 70.91-190.93 0 0 4.42 16.63 2.64 29.6z" fill="#ff90d8"/><g fill="#112c41"><path d="M230.829 239.085a.999.999 0 0 1-.994-1.123c.119-.959.247-1.945.379-2.957 1.524-11.691 3.422-26.243-3.832-43.47a1.001 1.001 0 0 1 1.844-.776c7.463 17.725 5.527 32.573 3.971 44.504-.131 1.007-.259 1.988-.377 2.944a1 1 0 0 1-.991.878z"/><path d="M288.898 680.29c-29.236 0-53.961-1.605-54.259-1.625a1 1 0 0 1-.93-.913c-.13-1.527-12.976-153.716-14.953-245.684-1.764-82.018 9.047-181.505 11.514-202.951-8.565 13.265-39.217 63.799-48.528 121.09-12.327 75.852 6.5 189.849 25.424 238.186 2.74 6.987.425 14.902-5.628 19.247-4.098 2.939-8.762 6.012-13.861 9.131-39.384 24.114-100.421 49.186-118.505 53.598a1.01 1.01 0 0 1-1.034-.367c-3.714-4.895-24.515-45.833-42.264-107.516-15.756-54.754-32.555-138.85-23.113-228.544 8.795-83.559 39.8-169.964 82.937-231.133C151.905 8.927 226.74-4.344 277.86 1.052c2.949.312 5.784.659 8.426 1.034 34.511 4.763 63.9 16.056 87.346 33.563 20.298 15.157 36.329 35.082 47.648 59.221 24.239 51.688 20.289 107.646 17.466 129.305-3.233 24.787-9.561 47.589-16.888 73.991-12.59 45.368-28.259 101.83-32.105 190.923l-.999-.043.999.043c-2.951 68.403-.137 140.386 1.21 168.158.435 8.862-6.136 16.576-14.958 17.562l-.271.03c-1.442.161-2.964.331-4.566.5-17.005 1.823-41.807 4.119-63.388 4.706-6.369.173-12.726.245-18.882.245zm-53.269-3.568c5.692.347 38.705 2.228 72.099 1.324 21.515-.584 46.26-2.875 63.23-4.694 1.599-.169 3.117-.339 4.555-.5l.271-.03c7.775-.868 13.565-7.667 13.182-15.477-1.348-27.801-4.165-99.855-1.21-168.342 3.855-89.322 19.558-145.906 32.176-191.372 7.307-26.329 13.617-49.067 16.832-73.714 2.801-21.485 6.722-76.986-17.294-128.197-24.365-51.958-69.268-82.794-133.461-91.653a237.238 237.238 0 0 0-8.358-1.026c-50.588-5.342-124.67 7.831-190.318 100.921C44.382 164.865 13.51 250.917 4.75 334.151-12.716 500.07 59.198 653.348 69.352 668.26c18.751-4.81 78.515-29.46 117.28-53.196 5.059-3.094 9.681-6.139 13.739-9.05 5.309-3.811 7.337-10.757 4.932-16.893-19.008-48.551-37.918-163.05-25.536-239.235 10.268-63.186 46.303-118.178 50.656-124.642a.999.999 0 0 1 .046-.078c.3-.455.465-.692.465-.692a.999.999 0 0 1 1.813.695c-.14 1.139-13.968 114.995-11.993 206.856 1.9 88.303 13.828 232.202 14.875 244.697z"/></g></svg></g><g transform="translate(974.0 327.0) rotate(0.0 259.5 211.5) scale(1.001884082590768 1.0023126646825773)"><svg width="518.024" height="422.024" viewBox="0 0 518.024 422.024"><g fill="#fff"><path d="M117.502 235.038c-54.092 0-102.897-37.656-114.812-92.624C-11.034 79.094 29.315 16.415 92.634 2.69c63.32-13.727 125.999 26.623 139.724 89.944 13.724 63.319-26.625 125.999-89.943 139.724a117.549 117.549 0 0 1-24.913 2.68zM7.577 141.355c13.14 60.624 73.154 99.264 133.778 86.116 60.625-13.141 99.256-73.153 86.116-133.778C214.33 33.068 154.313-5.568 93.693 7.577 33.068 20.717-5.563 80.73 7.577 141.355z"/><path d="M220.679 170.858c-.38 0-.758-.087-1.105-.258l-103.155-50.834a2.5 2.5 0 0 1-.758-3.911l76.706-85.681a2.5 2.5 0 0 1 3.53-.194c18.572 16.626 31.18 38.291 36.46 62.653 5.599 25.833 2.248 53.118-9.436 76.829a2.503 2.503 0 0 1-2.242 1.396zm-99.095-54.12 97.933 48.26c10.309-22.167 13.139-47.386 7.955-71.305-4.879-22.509-16.292-42.614-33.064-58.299zm202.092 305.286h-45.304c-5.706 0-10.348-4.642-10.348-10.348v-89.305c0-5.706 4.642-10.348 10.348-10.348h45.304c5.706 0 10.348 4.642 10.348 10.348v89.305c0 5.707-4.642 10.348-10.348 10.348zm-45.304-105a5.354 5.354 0 0 0-5.348 5.348v89.305a5.355 5.355 0 0 0 5.348 5.348h45.304a5.354 5.354 0 0 0 5.348-5.348v-89.305a5.355 5.355 0 0 0-5.348-5.348zm136.304 105h-45.304c-5.706 0-10.348-4.642-10.348-10.348V287.372c0-5.706 4.642-10.348 10.348-10.348h45.304c5.706 0 10.348 4.642 10.348 10.348v124.305c0 5.706-4.642 10.347-10.348 10.347zm-45.304-140a5.354 5.354 0 0 0-5.348 5.348v124.305a5.355 5.355 0 0 0 5.348 5.348h45.304a5.354 5.354 0 0 0 5.348-5.348V287.372a5.355 5.355 0 0 0-5.348-5.348zm138.305 140h-45.305c-5.706 0-10.348-4.642-10.348-10.348V223.372c0-5.706 4.642-10.348 10.348-10.348h45.305c5.706 0 10.348 4.642 10.348 10.348v188.305c-.001 5.706-4.642 10.347-10.348 10.347zm-45.305-204a5.354 5.354 0 0 0-5.348 5.348v188.305a5.355 5.355 0 0 0 5.348 5.348h45.305a5.355 5.355 0 0 0 5.348-5.348V223.372a5.355 5.355 0 0 0-5.348-5.348zm-72.848-136h-130a2.5 2.5 0 1 1 0-5h130a2.5 2.5 0 1 1 0 5zm125-30h-67a2.5 2.5 0 1 1 0-5h67a2.5 2.5 0 1 1 0 5zm0 28h-67a2.5 2.5 0 1 1 0-5h67a2.5 2.5 0 1 1 0 5zm0 27h-67a2.5 2.5 0 1 1 0-5h67a2.5 2.5 0 1 1 0 5z"/><circle cx="423.024" cy="49.024" r="6.5"/><path d="M423.024 58.024c-4.962 0-9-4.037-9-9s4.038-9 9-9 9 4.037 9 9-4.037 9-9 9zm0-13c-2.206 0-4 1.794-4 4s1.794 4 4 4 4-1.794 4-4-1.794-4-4-4z"/><circle cx="423.024" cy="78.024" r="6.5"/><path d="M423.024 87.024c-4.962 0-9-4.037-9-9s4.038-9 9-9 9 4.037 9 9-4.037 9-9 9zm0-13c-2.206 0-4 1.794-4 4s1.794 4 4 4 4-1.794 4-4-1.794-4-4-4z"/><circle cx="423.024" cy="105.024" r="6.5"/><path d="M423.024 114.024c-4.962 0-9-4.037-9-9s4.038-9 9-9 9 4.037 9 9-4.037 9-9 9zm0-13c-2.206 0-4 1.794-4 4s1.794 4 4 4 4-1.794 4-4-1.794-4-4-4zM281.523 291.025a2.502 2.502 0 0 1-.738-4.89c76.837-23.749 140.725-63.213 189.889-117.293a2.499 2.499 0 1 1 3.699 3.363c-49.773 54.751-114.409 94.689-192.111 118.707a2.462 2.462 0 0 1-.739.113z"/></g></svg></g><g transform="translate(815.0 171.0) rotate(-8.469211727924437 -135.0 186.5) scale(-1.0005299102858178 1.0021251501172728)"><svg width="269.857" height="372.209" viewBox="0 0 269.857 372.209"><circle cx="29.571" cy="300.231" fill="#ffd6c0" r="28.57"/><path d="M46.836 322.995c-12.163 9.227-29.336 7.224-39.08-4.316 9.697 5.752 22.306 5.418 31.847-1.809 12.569-9.538 15.031-27.467 5.492-40.036-.311-.406-.63-.801-.957-1.185a28.397 28.397 0 0 1 8.192 7.319c9.538 12.569 7.075 30.488-5.494 40.027z" fill="#f5b9ab"/><path d="M29.633 329.806c-1.354 0-2.718-.093-4.083-.28-7.825-1.074-14.763-5.131-19.537-11.424-9.854-12.99-7.303-31.575 5.687-41.43 12.26-9.299 29.835-7.562 40.012 3.956a1 1 0 1 1-1.499 1.325c-9.487-10.738-25.874-12.358-37.304-3.687-12.111 9.188-14.49 26.516-5.302 38.627 4.451 5.867 10.919 9.65 18.215 10.651 7.296 1.002 14.544-.898 20.412-5.349a27.652 27.652 0 0 0 10.783-19.348 1 1 0 0 1 1.991.191 29.657 29.657 0 0 1-11.565 20.751c-5.195 3.941-11.401 6.017-17.81 6.017z" fill="#112c41"/><path d="M44.988 298.763c-.42 0-.812-.268-.95-.688-1.362-4.149-4.212-7.533-8.026-9.528-3.806-1.991-8.116-2.36-12.135-1.041-4.541 1.49-8.113 4.964-9.802 9.532a1 1 0 1 1-1.876-.694c1.901-5.144 5.93-9.058 11.054-10.739 4.539-1.489 9.399-1.074 13.686 1.169 4.279 2.238 7.475 6.03 9 10.676a1 1 0 0 1-.951 1.313z" fill="#112c41"/><circle cx="132.378" cy="268.328" fill="#ffd6c0" r="102.5"/><path d="M115.748 167.487c-.341.055-.675.126-1.015.184l-4.618 13.383c52.787-8.311 101.395 25.211 109.733 77.191 8.352 52.074-26.876 102.957-79.77 111.441a98.349 98.349 0 0 1-15.639 1.253c7.778.565 15.738.251 23.776-1.039 55.895-8.965 93.939-61.544 84.973-117.439-8.966-55.896-61.545-93.939-117.44-84.974z" fill="#f5b9ab"/><g fill="#112c41"><path d="M131.921 372.203c-49.909 0-93.982-36.295-102.134-87.118-9.039-56.35 29.452-109.547 85.802-118.585 56.347-9.043 109.546 29.452 118.585 85.802 4.378 27.297-2.135 54.665-18.341 77.063s-40.164 37.144-67.461 41.522a103.765 103.765 0 0 1-16.451 1.316zm.119-205.019c-5.326 0-10.71.421-16.134 1.291-55.261 8.864-93.008 61.033-84.144 116.294 8.863 55.26 61.034 93.004 116.294 84.144 26.769-4.293 50.264-18.755 66.157-40.72s22.28-48.805 17.987-75.574c-7.994-49.837-51.22-85.435-100.16-85.435z"/><ellipse cx="138.574" cy="246.43" rx="6.828" ry="9.104" transform="matrix(.9874 -.1584 .1584 .9874 -37.2785 25.0562)"/><ellipse cx="137.796" cy="211.861" rx="14.13" ry="9.336" transform="matrix(.9999 -.0125 .0125 .9999 -2.6441 1.7434)"/><ellipse cx="54.69" cy="243.096" rx="13.016" ry="8.6" transform="matrix(.7227 -.6912 .6912 .7227 -152.8518 105.2076)"/><path d="M59.06 234.161c1.062 0 2.547.229 3.591 1.322 2.473 2.585.916 8.257-3.4 12.384-2.728 2.609-6.067 4.166-8.932 4.166-1.062 0-2.547-.229-3.591-1.321-2.473-2.586-.916-8.257 3.4-12.384 2.728-2.61 6.067-4.167 8.932-4.167m0-2c-3.25 0-7.102 1.648-10.315 4.72-5.195 4.969-6.746 11.779-3.463 15.212 1.253 1.31 3.03 1.939 5.036 1.939 3.25 0 7.102-1.648 10.315-4.72 5.195-4.969 6.746-11.779 3.463-15.212-1.252-1.31-3.029-1.939-5.036-1.939z"/><ellipse cx="73.13" cy="269.99" rx="6.828" ry="9.104" transform="matrix(.8663 -.4996 .4996 .8663 -125.098 72.637)"/><path d="M128.243 267.681c2.771 12.184-1.338 23.698-10.18 26.952-8.842 3.253-19.434-2.852-25.221-13.926z"/><path d="M113.115 296.504c-7.875 0-16.171-5.789-21.159-15.335a1.001 1.001 0 0 1 .541-1.401l35.401-13.025a.997.997 0 0 1 1.32.717c2.935 12.904-1.612 24.727-10.811 28.112a15.274 15.274 0 0 1-5.292.932zm-18.842-15.259c5.743 10.171 15.46 15.387 23.444 12.449 7.985-2.938 12.004-13.208 9.786-24.675z"/></g><path d="M110.211 294.761c1.356-5.016 6.238-9.214 12.587-10.232a17.739 17.739 0 0 1 4.74-.126c-1.772 4.86-5.024 8.592-9.476 10.23-2.561.942-5.268 1.099-7.962.574.035-.15.072-.298.111-.446z" fill="#ffa6e0"/><path d="M113.133 296.507c-1.059 0-2.134-.106-3.224-.319a.995.995 0 0 1-.646-.435.995.995 0 0 1-.138-.766c.037-.164.078-.326.122-.488 1.489-5.508 6.872-9.912 13.394-10.957a18.703 18.703 0 0 1 5.007-.133 1.002 1.002 0 0 1 .831 1.337c-1.934 5.303-5.51 9.148-10.07 10.826-1.695.622-3.46.935-5.276.935zm-1.765-2.111c2.208.271 4.34.037 6.35-.702 3.639-1.339 6.579-4.294 8.381-8.388a16.915 16.915 0 0 0-3.142.21c-5.504.883-10.072 4.412-11.589 8.88z" fill="#112c41"/><circle cx="238.352" cy="227.832" fill="#ffd6c0" r="30.5"/><path d="M218.748 251.332c2.198.91 4.932 1.492 7.384 1.864 16.662 2.509 32.183-9.556 34.69-26.209 1.648-10.926-2.877-20.617-10.778-27.207 12.737 5.18 20.914 17.802 18.778 32.012-2.497 16.654-18.035 28.132-34.698 25.624-5.726-.859-11.23-2.613-15.376-6.084z" fill="#f5b9ab"/><path d="M238.79 259.289c-7.244 0-14.835-2.581-20.661-7.172a1 1 0 1 1 1.238-1.571c6.638 5.231 15.703 7.691 23.657 6.413 7.78-1.248 14.609-5.451 19.228-11.835s6.476-14.185 5.228-21.965c-2.576-16.061-17.732-27.028-33.8-24.456-15.157 2.432-26.019 16.304-24.727 31.582a1 1 0 0 1-1.993.169c-1.379-16.315 10.218-31.129 26.404-33.725 17.152-2.75 33.34 8.964 36.091 26.114 1.333 8.308-.65 16.637-5.582 23.454-4.932 6.816-12.224 11.304-20.532 12.637a28.718 28.718 0 0 1-4.551.355z" fill="#112c41"/><path d="M222.078 236.21a1 1 0 0 1-.971-.766c-1.219-5.059-.448-10.278 2.172-14.697 2.625-4.428 6.791-7.521 11.73-8.712 5.576-1.344 11.411-.055 16.009 3.536a1 1 0 0 1-1.232 1.576c-4.114-3.214-9.331-4.369-14.309-3.167-4.41 1.062-8.131 3.828-10.479 7.788-2.353 3.968-3.045 8.659-1.948 13.208a1.001 1.001 0 0 1-.972 1.234z" fill="#112c41"/><path d="M153.725 146.347a104.89 104.89 0 0 0-22.067-3.672 108.656 108.656 0 0 0-21.373.869c-42.516 5.933-75.42 35.709-85.244 72.668-2.663 10.018-3.65 20.567-2.633 31.307.205 2.161 2.278 2.344 3.398 1.064 11.286-12.883 36.082-29.71 55.118-38.753 12.7-6.033 26.959-10.221 41.942-13.358a219.624 219.624 0 0 1 18.745-3.089c-2.746-9.39-7.278-17.699-13.072-24.287 9.186 4.784 18.488 13.643 25.682 23.197 20.978-1.157 41.719.865 58.999 5.776 1.429.406 2.93-.6 1.998-2.412-12.305-23.936-34.678-41.826-61.493-49.31z" fill="#b2b0f7"/><path d="M213.744 198.22c-6.597-1.907-19.722-4.237-26.987-5.293-11.044-21.331-36.096-44.618-68.611-46.522a97.696 97.696 0 0 0-19.126.781 97.155 97.155 0 0 0-13.572 2.883 107.888 107.888 0 0 1 24.837-6.525 108.736 108.736 0 0 1 21.375-.872c36.558 2.148 68.599 22.868 83.804 53.47.563 1.143-.499 2.432-1.72 2.078z" fill="#9797f7"/><path d="M24.155 250.386c-.284 0-.566-.043-.839-.131-1.069-.345-1.781-1.333-1.905-2.641-1.002-10.589-.107-21.24 2.663-31.658 4.942-18.593 15.549-35.353 30.673-48.468 15.47-13.413 34.626-22.035 55.398-24.934a109.745 109.745 0 0 1 21.57-.877 106.035 106.035 0 0 1 22.278 3.707c27.084 7.56 49.723 25.717 62.112 49.817.575 1.117.528 2.217-.128 3.018-.676.825-1.864 1.146-3.032.813-17.055-4.848-37.893-6.887-58.671-5.74a.995.995 0 0 1-.854-.397c-6.264-8.319-13.597-15.429-20.696-20.149 4.292 5.935 7.658 12.877 9.845 20.357a1 1 0 0 1-.84 1.274c-6.2.746-12.478 1.781-18.659 3.076-16.552 3.464-30.198 7.809-41.718 13.282-17.732 8.424-43.077 25.131-54.795 38.508-.644.735-1.527 1.143-2.402 1.143zM125.4 143.492c-4.989 0-10.004.349-14.977 1.042-20.389 2.845-39.188 11.305-54.364 24.464-14.821 12.851-25.212 29.266-30.051 47.47-2.708 10.188-3.584 20.604-2.604 30.956.034.355.153.805.528.927.344.11.806-.064 1.122-.427 11.89-13.573 37.525-30.486 55.441-38.998 11.666-5.542 25.458-9.936 42.167-13.433a221.795 221.795 0 0 1 17.649-2.958c-2.691-8.651-7.007-16.507-12.523-22.78a1 1 0 0 1 1.213-1.547c8.597 4.477 17.94 12.864 25.696 23.057 20.823-1.093 41.679.977 58.796 5.842.428.123.802.01.938-.157.181-.221-.012-.659-.103-.837-12.135-23.605-34.322-41.394-60.872-48.804a104.022 104.022 0 0 0-21.857-3.637c-2.058-.119-4.127-.18-6.199-.18z" fill="#112c41"/><circle cx="245.354" cy="259.889" fill="#fff" r="11.5"/><path d="M245.366 272.389a12.422 12.422 0 0 1-9.208-4.033c-4.668-5.07-4.342-12.994.729-17.663a12.398 12.398 0 0 1 8.982-3.294 12.422 12.422 0 0 1 8.681 4.022 12.418 12.418 0 0 1 3.293 8.982 12.418 12.418 0 0 1-4.022 8.681 12.406 12.406 0 0 1-8.455 3.305zm-.022-23a10.43 10.43 0 0 0-7.103 2.776c-4.259 3.922-4.533 10.577-.611 14.836a10.427 10.427 0 0 0 7.292 3.378 10.392 10.392 0 0 0 7.545-2.767c2.063-1.899 3.263-4.489 3.378-7.292s-.867-5.482-2.767-7.545a10.427 10.427 0 0 0-7.734-3.386z" fill="#112c41"/><circle cx="38.502" cy="333.456" fill="#fff" r="11.5"/><path d="M38.507 345.95a12.47 12.47 0 0 1-9.201-4.027c-4.668-5.07-4.342-12.994.729-17.663 5.07-4.667 12.993-4.342 17.663.729 4.668 5.07 4.342 12.994-.729 17.663a12.455 12.455 0 0 1-8.462 3.298zm-.01-22.989a10.46 10.46 0 0 0-7.108 2.771c-4.259 3.921-4.533 10.578-.611 14.837 3.921 4.258 10.576 4.534 14.837.611 4.259-3.922 4.533-10.578.611-14.837a10.474 10.474 0 0 0-7.729-3.382zm97.054-196.817a1 1 0 0 1-.175-1.984c19.571-3.51 36.941-14.619 47.657-30.477 9.207-13.626 12.564-29.374 9.454-44.34-6.755-32.502-43.28-53.122-81.413-45.958a1 1 0 0 1-.369-1.965c39.198-7.359 76.766 13.957 83.74 47.517 3.221 15.5-.243 31.789-9.755 45.867-11.016 16.303-28.861 27.721-48.96 31.326a1.22 1.22 0 0 1-.179.014z" fill="#112c41"/><path d="M130.343 126.568c-34.355 5.51-66.672-17.873-72.182-52.228S76.033 7.669 110.388 2.158s66.672 17.873 72.182 52.228-17.872 66.672-52.227 72.182" fill="#9797f7"/><path d="M161.624 50.473c5.344 33.277-17.304 64.573-50.574 69.91-6.661 1.063-13.241 1.018-19.553-.02-17.165-8.867-30.046-25.485-33.34-46.024C52.652 39.987 76.03 7.667 110.39 2.155a63.175 63.175 0 0 1 7.554-.757c22.147 6.263 39.796 24.853 43.68 49.075z" fill="#b2b0f7"/><path d="M120.238 128.38c-10.131 0-20.07-2.409-29.2-7.129-18.004-9.301-30.665-26.779-33.868-46.754-5.584-34.845 18.219-67.741 53.061-73.33a64.418 64.418 0 0 1 7.673-.769c32.308-1.279 60.528 21.869 65.657 53.83 5.584 34.845-18.219 67.741-53.062 73.331a64.832 64.832 0 0 1-10.261.821zm.205-126.032c-.817 0-1.637.016-2.459.048h-.001a62.522 62.522 0 0 0-7.435.745c-33.754 5.416-56.813 37.284-51.403 71.04 3.103 19.35 15.369 36.283 32.811 45.293 11.818 6.109 25.036 8.222 38.228 6.11 33.753-5.415 56.813-37.283 51.403-71.039-4.838-30.148-30.891-52.197-61.144-52.197zm-2.499-.95h.01zM70.072 300.975c-.136 0-.273-.002-.409-.005-10.879-.295-19.405-12.504-19.007-27.217.399-14.712 9.569-26.439 20.453-26.148 10.879.295 19.405 12.505 19.007 27.217-.192 7.071-2.39 13.676-6.188 18.598-3.771 4.885-8.677 7.555-13.856 7.555zm.633-51.418c-9.646 0-17.727 10.777-18.092 24.249-.37 13.634 7.303 24.941 17.103 25.207 4.703.14 9.185-2.284 12.662-6.789 3.547-4.596 5.601-10.794 5.781-17.455.37-13.634-7.303-24.942-17.103-25.208a20.421 20.421 0 0 0-.351-.004zm82.5 24.061c-7.769 0-16.366-4.305-22.512-12.092-4.504-5.708-7.046-12.424-7.158-18.911-.113-6.592 2.287-12.166 6.759-15.694 4.471-3.529 10.451-4.568 16.835-2.926 6.284 1.616 12.225 5.649 16.73 11.357 9.364 11.865 9.543 27.389.399 34.605-3.143 2.48-6.985 3.661-11.053 3.661zm-11.847-48.329c-3.707 0-7.077 1.099-9.793 3.243-3.957 3.123-6.08 8.111-5.978 14.047.104 6.041 2.489 12.318 6.717 17.675 8.663 10.977 22.427 14.606 30.682 8.091 8.255-6.515 7.923-20.746-.739-31.723-4.228-5.357-9.778-9.136-15.629-10.641-1.803-.463-3.567-.692-5.26-.692zm22.264 43.862h.01z" fill="#112c41"/><path d="M88.336 267.546a1.001 1.001 0 0 1-.83-1.556c9.173-13.692 27.258-17.381 39.615-13.902a.998.998 0 0 1 .691 1.233.994.994 0 0 1-1.233.691c-11.846-3.334-29.078.65-37.412 13.09a.997.997 0 0 1-.831.444zm74.014-31.752a.998.998 0 0 1-.687-1.726c13.7-12.969 33.011-20.435 48.051-18.578.548.068.938.567.87 1.115s-.571.933-1.115.87c-14.482-1.789-33.141 5.463-46.431 18.045a1 1 0 0 1-.688.274zM31.947 281.586a1 1 0 0 1-.642-1.767c4.281-3.578 14.168-5.48 20.346-3.912a1 1 0 0 1-.492 1.938c-5.563-1.411-14.764.326-18.572 3.508a.99.99 0 0 1-.64.233z" fill="#112c41"/></svg></g><g transform="translate(204.0 431.0) rotate(-14.523447690146163 471.5 262.0) scale(1.003720044065758 1.0015730813854584)"><svg width="939.505" height="523.177" viewBox="0 0 939.505 523.177"><path d="M921.665 349.005a10.572 10.572 0 0 1 4.37 4.29c4.39 8.28-4.18 21.43-19.15 29.36a48.49 48.49 0 0 1-17.88 5.62c-29.02 66.02-127.02 143.02-222.02 133.02-122.244-12.867-177.01-112.63-196.86-161-1.95-4.73-3.61-8.97-5.03-12.59l-.73-1.87q-.84-2.115-1.56-3.84c-1.21-2.86-2.03-4.87-2.43-5.84a1.787 1.787 0 0 1-.12-.24c8.06-2.77 17.02-5.48 26.65-8.07 7.14-1.91 14.64-3.74 22.41-5.46q1.215-.27 2.49-.54c37.06-8 74.67-17.69 92.18-15.55 25.59 39.4 47 77 88 81 77.691 7.58 157.087-123.147 184-107 10 6 2.3 26.36 2.01 26.99.46-.3 15.11-10.07 22.38-15.2 14.25-10.05 30.67-10.96 36.18-2.76 4.26 6.35.87 16.49-7.6 25.26 3.77 1.06 6.7 3.1 8.29 6.09 4.26 8.04-2.63 20.2-15.58 28.33z" fill="#ffd6c0"/><path d="M683.72 523.162a160.845 160.845 0 0 1-16.84-.872c-53.414-5.623-99.656-28.329-137.442-67.487-31.078-32.2-49.912-68.963-60.238-94.128-1.891-4.587-3.49-8.662-4.9-12.259l-.867-2.217q-.832-2.1-1.551-3.819a534.158 534.158 0 0 1-2.25-5.4l-.154-.377a2.773 2.773 0 0 1-.145-.3 1 1 0 0 1 .6-1.332c8.033-2.761 17.02-5.483 26.715-8.091a535.29 535.29 0 0 1 22.454-5.47q1.218-.271 2.5-.542c6.51-1.406 13.1-2.878 19.483-4.3 30.043-6.709 58.422-13.046 73.025-11.261a1 1 0 0 1 .717.448q2.621 4.034 5.19 8.034c23.8 36.936 44.348 68.835 82.068 72.515 44.766 4.362 89.749-37.314 125.9-70.806 26.047-24.133 46.617-43.2 58.518-36.056 8.547 5.128 5.313 19.248 3.406 25.371 4.569-3.055 14.369-9.642 19.894-13.541 9.224-6.5 20.039-9.606 28.221-8.1 4.184.772 7.422 2.708 9.365 5.6 4.275 6.373 1.663 16.21-6.627 25.355a13.286 13.286 0 0 1 7.369 6.083c4.306 8.126-1.954 20.309-14.606 28.788a11.116 11.116 0 0 1 3.4 3.834c2.3 4.341 1.463 9.961-2.36 15.826-3.709 5.687-9.819 10.973-17.205 14.886a49.7 49.7 0 0 1-17.669 5.673c-15.034 33.805-47.287 69.249-86.4 94.917-38.813 25.466-80.646 39.028-119.571 39.028zM461.6 336.512a552.89 552.89 0 0 0 2.123 5.094q.725 1.74 1.568 3.861l.867 2.219c1.408 3.588 3 7.656 4.889 12.228 10.261 25 28.969 61.522 59.827 93.5 37.45 38.811 83.279 61.315 136.212 66.887 43.023 4.531 91.011-8.91 135.1-37.844 39.007-25.6 71.12-60.958 85.9-94.584a1 1 0 0 1 .823-.593 47.319 47.319 0 0 0 17.5-5.508c7.092-3.757 12.94-8.8 16.466-14.212 3.409-5.227 4.215-10.127 2.268-13.8a9.557 9.557 0 0 0-3.967-3.882 1 1 0 0 1-.05-1.724c12.638-7.934 19.184-19.548 15.227-27.015-1.4-2.643-4.06-4.578-7.676-5.595a1 1 0 0 1-.45-1.657c8.33-8.623 11.339-18.271 7.491-24.009-1.635-2.432-4.425-4.073-8.068-4.746-7.67-1.412-17.906 1.56-26.706 7.767-7.256 5.119-21.865 14.864-22.411 15.22a1 1 0 0 1-1.454-1.256c.084-.191 7.692-20.129-1.616-25.714-10.61-6.367-31.7 13.177-56.13 35.808-34.644 32.1-77.345 71.654-120.7 71.656q-3.378 0-6.756-.327c-38.684-3.773-60.481-37.605-83.556-73.422q-2.446-3.8-4.93-7.633c-14.409-1.555-42.332 4.681-71.884 11.282-6.382 1.424-12.98 2.9-19.5 4.306-.852.18-1.677.36-2.485.538a534.34 534.34 0 0 0-22.368 5.45c-9.23 2.493-17.824 5.079-25.554 7.705z" fill="#112c41"/><path d="M460.257 335.912c4.227 9.448 57.728 179.383 212.769 185.476a90.656 90.656 0 0 0 10.06.015c-133.649-13.467-187.073-157.4-199.353-192.919-9.627 2.581-15.422 4.662-23.476 7.428z" fill="#f5b9ab"/><path d="M683.72 523.162a160.845 160.845 0 0 1-16.84-.872c-53.414-5.623-99.656-28.329-137.442-67.487-31.078-32.2-49.912-68.963-60.238-94.128-1.891-4.587-3.49-8.662-4.9-12.259l-.867-2.217q-.832-2.1-1.551-3.819a534.158 534.158 0 0 1-2.25-5.4l-.154-.377a2.773 2.773 0 0 1-.145-.3 1 1 0 0 1 .6-1.332c8.033-2.761 17.02-5.483 26.715-8.091a535.29 535.29 0 0 1 22.454-5.47q1.218-.271 2.5-.542c6.51-1.406 13.1-2.878 19.483-4.3 30.043-6.709 58.422-13.046 73.025-11.261a1 1 0 0 1 .717.448q2.621 4.034 5.19 8.034c23.8 36.936 44.348 68.835 82.068 72.515 44.766 4.362 89.749-37.314 125.9-70.806 26.047-24.133 46.617-43.2 58.518-36.056 8.547 5.128 5.313 19.248 3.406 25.371 4.569-3.055 14.369-9.642 19.894-13.541 9.224-6.5 20.039-9.606 28.221-8.1 4.184.772 7.422 2.708 9.365 5.6 4.275 6.373 1.663 16.21-6.627 25.355a13.286 13.286 0 0 1 7.369 6.083c4.306 8.126-1.954 20.309-14.606 28.788a11.116 11.116 0 0 1 3.4 3.834c2.3 4.341 1.463 9.961-2.36 15.826-3.709 5.687-9.819 10.973-17.205 14.886a49.7 49.7 0 0 1-17.669 5.673c-15.034 33.805-47.287 69.249-86.4 94.917-38.813 25.466-80.646 39.028-119.571 39.028zM461.6 336.512a552.89 552.89 0 0 0 2.123 5.094q.725 1.74 1.568 3.861l.867 2.219c1.408 3.588 3 7.656 4.889 12.228 10.261 25 28.969 61.522 59.827 93.5 37.45 38.811 83.279 61.315 136.212 66.887 43.023 4.531 91.011-8.91 135.1-37.844 39.007-25.6 71.12-60.958 85.9-94.584a1 1 0 0 1 .823-.593 47.319 47.319 0 0 0 17.5-5.508c7.092-3.757 12.94-8.8 16.466-14.212 3.409-5.227 4.215-10.127 2.268-13.8a9.557 9.557 0 0 0-3.967-3.882 1 1 0 0 1-.05-1.724c12.638-7.934 19.184-19.548 15.227-27.015-1.4-2.643-4.06-4.578-7.676-5.595a1 1 0 0 1-.45-1.657c8.33-8.623 11.339-18.271 7.491-24.009-1.635-2.432-4.425-4.073-8.068-4.746-7.67-1.412-17.906 1.56-26.706 7.767-7.256 5.119-21.865 14.864-22.411 15.22a1 1 0 0 1-1.454-1.256c.084-.191 7.692-20.129-1.616-25.714-10.61-6.367-31.7 13.177-56.13 35.808-34.644 32.1-77.345 71.654-120.7 71.656q-3.378 0-6.756-.327c-38.684-3.773-60.481-37.605-83.556-73.422q-2.446-3.8-4.93-7.633c-14.409-1.555-42.332 4.681-71.884 11.282-6.382 1.424-12.98 2.9-19.5 4.306-.852.18-1.677.36-2.485.538a534.34 534.34 0 0 0-22.368 5.45c-9.23 2.493-17.824 5.079-25.554 7.705z" fill="#112c41"/><path d="M877.985 307.3c-4.5 9-12.375 16.875-16.032 20.25a5.475 5.475 0 0 0-1.771 4.3c.412 8.073.094 33.837-18.2 55.454" fill="#ffd6c0"/><path d="M841.983 388.3a1 1 0 0 1-.762-1.646c18.168-21.471 18.342-47.34 17.962-54.757a6.458 6.458 0 0 1 2.092-5.082c3.257-3.006 11.32-10.971 15.815-19.962a1 1 0 1 1 1.789.895c-4.476 8.951-12.1 16.71-16.247 20.537a4.46 4.46 0 0 0-1.451 3.51c.388 7.6.209 34.119-18.433 56.151a1 1 0 0 1-.765.354z" fill="#112c41"/><ellipse cx="898.935" cy="367.653" fill="#ffd6c0" rx="30.67" ry="16.977" transform="matrix(.88363492 -.46817659 .46817659 .88363492 -67.521 463.645)"/><path d="M886.007 389.372c-7.014 0-12.631-2.314-15.057-6.892-4.64-8.759 4.138-22.537 19.569-30.713 7.385-3.913 15.2-6 21.977-5.875 7 .128 12.123 2.59 14.424 6.934 4.641 8.758-4.138 22.536-19.568 30.712-7.367 3.902-14.938 5.834-21.345 5.834zm25.909-41.486c-6.327 0-13.567 2-20.462 5.649-14.456 7.659-22.861 20.224-18.736 28.008s19.239 7.887 33.7.227 22.861-20.224 18.736-28.008c-1.945-3.671-6.453-5.756-12.692-5.871a33.028 33.028 0 0 0-.546-.005z" fill="#112c41"/><ellipse cx="909.85" cy="335.193" fill="#ffd6c0" rx="31.004" ry="17.883" transform="matrix(.884 -.468 .468 .884 -51.054 464.978)"/><path d="M897.552 357.609c-7.39 0-13.373-2.508-15.983-7.432-2.41-4.55-1.65-10.384 2.141-16.425 3.686-5.873 9.829-11.287 17.3-15.245s15.425-6 22.328-5.751c7.129.256 12.382 2.9 14.793 7.453 4.874 9.2-3.847 23.408-19.44 31.67a46.34 46.34 0 0 1-21.139 5.73zm24.638-42.874c-6.326 0-13.466 1.949-20.245 5.54-7.165 3.8-13.039 8.96-16.541 14.54-3.395 5.41-4.13 10.534-2.067 14.425 4.358 8.227 19.8 8.618 34.418.871s22.966-20.739 18.608-28.966c-2.061-3.891-6.713-6.161-13.1-6.391a31.624 31.624 0 0 0-1.073-.019z" fill="#112c41"/><ellipse cx="910.348" cy="306.929" fill="#ffd6c0" rx="31.568" ry="17.883" transform="matrix(.83009989 -.55761472 .55761472 .83009989 -16.48 559.771)"/><path d="M896.7 330.957c-6.115 0-10.821-2.045-13.388-5.867-2.873-4.278-2.675-10.193.559-16.658 3.143-6.281 8.806-12.381 15.946-17.178s14.929-7.732 21.932-8.266c7.205-.551 12.759 1.5 15.632 5.78s2.675 10.193-.56 16.658c-3.141 6.28-8.8 12.381-15.945 17.178s-14.93 7.732-21.933 8.266q-1.143.088-2.243.087zM924 284.9q-1.017 0-2.095.082c-6.663.508-14.109 3.325-20.967 7.932s-12.283 10.436-15.273 16.413c-2.9 5.792-3.142 10.994-.688 14.648 2.452 3.652 7.353 5.39 13.82 4.9 6.663-.508 14.11-3.325 20.969-7.932s12.282-10.436 15.272-16.413c2.9-5.792 3.142-10.994.688-14.647-2.184-3.246-6.305-4.983-11.726-4.983z" fill="#112c41"/><path d="M617.985 322.3c-1.47.89-3.19 1.85-5.12 2.87-24.32 12.83-83.49 35.09-142.74 35.13-1.95-4.73-3.61-8.97-5.03-12.59l-.73-1.87a148.817 148.817 0 0 1-81.47-8.28.076.076 0 0 1-.05-.02 151.066 151.066 0 0 1-94.64-131.22 284.5 284.5 0 0 0-25.1-19.59c-8.13-5.73-17.99-12.19-29.22-18.59q-3.375-1.935-6.9-3.84c0-28.74 10-121.77 30.2-149.3a24.928 24.928 0 0 1 4.85-5.15 3.289 3.289 0 0 1 .33-.23 11.021 11.021 0 0 1 6.93-2.35c.08 0 .2.01.34.02a.03.03 0 0 1 .04 0c.68.03 1.87.1 2.17.13s.62.07.96.12c.28.04.58.09.88.14 19.37 3.34 93.6 30.38 174.57 92.97q11.88 9.2 23.9 19.4c.59.5 1.18 1.02 1.78 1.53q11.13 9.51 22.24 19.97c.37.35.72.68 1.06 1.01.24.22.48.45.72.68 1.42 1.35 2.85 2.71 4.27 4.09a632.42 632.42 0 0 1 40.15 42.51 616.05 616.05 0 0 1 80.61 119.46c3.49 6.765 0 10-5 13z" fill="#ffe993"/><path d="M470.125 361.3a1 1 0 0 1-.925-.618c-1.891-4.589-3.49-8.665-4.9-12.261l-.568-1.453a149.506 149.506 0 0 1-81.208-8.479l-.049-.02a152.069 152.069 0 0 1-95.245-131.684 295.084 295.084 0 0 0-24.7-19.242 360.462 360.462 0 0 0-29.138-18.539 317.847 317.847 0 0 0-6.881-3.829 1 1 0 0 1-.525-.88c0-31.479 10.651-122.984 30.394-149.891a26 26 0 0 1 5.047-5.352 3.949 3.949 0 0 1 .382-.267 12 12 0 0 1 7.521-2.519c.054 0 .14 0 .257.013a.965.965 0 0 1 .24.012c.709.033 1.827.1 2.12.129.313.032.649.074 1 .126.267.037.553.085.841.133 22.035 3.8 96.606 32.517 175.076 93.175a664.61 664.61 0 0 1 23.937 19.43c.305.259.614.526.924.794l.855.735a624.672 624.672 0 0 1 22.278 20l.076.072 1 .948c.225.206.471.442.717.677 1.418 1.349 2.851 2.711 4.274 4.094a636.123 636.123 0 0 1 40.211 42.575 618.855 618.855 0 0 1 80.74 119.654c4.029 7.815-.66 11.487-5.372 14.315a106.084 106.084 0 0 1-5.17 2.9c-23.073 12.173-82.7 35.2-143.205 35.245zm-5.76-16.46a1 1 0 0 1 .931.637l.865 2.214c1.344 3.425 2.859 7.288 4.633 11.608 59.887-.21 118.767-22.965 141.6-35.013a101.858 101.858 0 0 0 5.069-2.841c5.275-3.165 7.574-5.964 4.626-11.685a616.933 616.933 0 0 0-80.479-119.266 634.39 634.39 0 0 0-40.087-42.443 553.23 553.23 0 0 0-4.264-4.084c-.239-.228-.473-.453-.707-.668-.335-.324-.658-.629-1-.951l-.075-.069a623.957 623.957 0 0 0-22.2-19.937l-.866-.744a120.1 120.1 0 0 0-.911-.783 666.527 666.527 0 0 0-23.865-19.372c-78.168-60.437-152.303-89.021-174.12-92.782-.325-.054-.6-.1-.852-.136-.327-.048-.632-.086-.917-.114s-1.431-.1-2.1-.126h-.083c-.165-.012-.226-.018-.271-.018a10.146 10.146 0 0 0-6.342 2.158 3.475 3.475 0 0 0-.287.2 23.991 23.991 0 0 0-4.673 4.963c-19.371 26.4-29.876 116.285-30.008 148.116a363.782 363.782 0 0 1 35.7 22.208 288.275 288.275 0 0 1 25.2 19.668.992.992 0 0 1 .325.684A150.067 150.067 0 0 0 383.22 336.61l.027.011.023.009a147.51 147.51 0 0 0 80.922 8.225 1.071 1.071 0 0 1 .173-.02z" fill="#112c41"/><path d="M495.325 140.765c-36.78-33.48-130.34-94.47-218.34-111.71-.11-.54-.23-1.07-.34-1.58-.08-.32-.15-.64-.23-.95-1.61-6.4-3.84-10.15-6.63-10.5-2.3-.29-4.78 1.75-7.32 5.71-.17.27-.35.55-.52.84-.03.05-.06.1-.09.16-4.37-1.81-6.9-2.84-7.14-2.95a27.371 27.371 0 0 1 2.47-4.79 17.947 17.947 0 0 1 4.85-5.15 3.289 3.289 0 0 1 .33-.23 14.092 14.092 0 0 1 7.27-2.33.03.03 0 0 1 .04 0c.68.03 1.87.1 2.17.13s.62.07.96.12c.28.04.58.09.88.14 19.37 3.34 93.6 30.38 174.57 92.97q11.88 9.2 23.9 19.4c.59.5 1.18 1.02 1.78 1.53q10.47 9.105 21.39 19.19zm2.66 2.53c-.24-.24-.5-.49-.75-.74.24.22.48.45.72.68zm-191.98-16.356s-7.432 14.676-10.955 25.484c-.355 1.117-.709 2.22-1.038 3.341l-.035.457q-1.7 5.925-2.945 11.89l-.472 2.505a150.66 150.66 0 0 0 92.281 166.92c-60.962-30.836-86.032-104.9-69.641-180.216 1.266-5.832-3.331-25.763-7.195-30.381z" fill="#ffd169"/><g fill="#112c41"><path d="M507.823 152.983c-.053.128-.106.257-.169.386a12.269 12.269 0 0 1-3.195 6.152c-7.855 7.96-26.036 2.751-40.625-11.631s-20.065-32.5-12.219-40.456a11.35 11.35 0 0 1 3.26-2.29l.011-.009a651.186 651.186 0 0 1 47.015 41.937c.362.358.7.695 1.037 1.033.235.225.47.46.7.7a411.868 411.868 0 0 1 4.185 4.178z"/><path d="M470.125 361.3a1 1 0 0 1-.925-.618c-1.891-4.589-3.49-8.665-4.9-12.261l-.568-1.453a149.506 149.506 0 0 1-81.208-8.479l-.049-.02a152.069 152.069 0 0 1-95.245-131.684 295.084 295.084 0 0 0-24.7-19.242 360.462 360.462 0 0 0-29.138-18.539 317.847 317.847 0 0 0-6.881-3.829 1 1 0 0 1-.525-.88c0-31.479 10.651-122.984 30.394-149.891a26 26 0 0 1 5.047-5.352 3.949 3.949 0 0 1 .382-.267 12 12 0 0 1 7.521-2.519c.054 0 .14 0 .257.013a.965.965 0 0 1 .24.012c.709.033 1.827.1 2.12.129.313.032.649.074 1 .126.267.037.553.085.841.133 22.035 3.8 96.606 32.517 175.076 93.175a664.61 664.61 0 0 1 23.937 19.43c.305.259.614.526.924.794l.855.735a624.672 624.672 0 0 1 22.278 20l.076.072 1 .948c.225.206.471.442.717.677 1.418 1.349 2.851 2.711 4.274 4.094a636.123 636.123 0 0 1 40.211 42.575 618.855 618.855 0 0 1 80.74 119.654c4.029 7.815-.66 11.487-5.372 14.315a106.084 106.084 0 0 1-5.17 2.9c-23.073 12.173-82.7 35.2-143.205 35.245zm-5.76-16.46a1 1 0 0 1 .931.637l.865 2.214c1.344 3.425 2.859 7.288 4.633 11.608 59.887-.21 118.767-22.965 141.6-35.013a101.858 101.858 0 0 0 5.069-2.841c5.275-3.165 7.574-5.964 4.626-11.685a616.933 616.933 0 0 0-80.479-119.266 634.39 634.39 0 0 0-40.087-42.443 553.23 553.23 0 0 0-4.264-4.084c-.239-.228-.473-.453-.707-.668-.335-.324-.658-.629-1-.951l-.075-.069a623.957 623.957 0 0 0-22.2-19.937l-.866-.744a120.1 120.1 0 0 0-.911-.783 666.527 666.527 0 0 0-23.865-19.372c-78.168-60.437-152.303-89.021-174.12-92.782-.325-.054-.6-.1-.852-.136-.327-.048-.632-.086-.917-.114s-1.431-.1-2.1-.126h-.083c-.165-.012-.226-.018-.271-.018a10.146 10.146 0 0 0-6.342 2.158 3.475 3.475 0 0 0-.287.2 23.991 23.991 0 0 0-4.673 4.963c-19.371 26.4-29.876 116.285-30.008 148.116a363.782 363.782 0 0 1 35.7 22.208 288.275 288.275 0 0 1 25.2 19.668.992.992 0 0 1 .325.684A150.067 150.067 0 0 0 383.22 336.61l.027.011.023.009a147.51 147.51 0 0 0 80.922 8.225 1.071 1.071 0 0 1 .173-.02z"/><path d="M278.965 79.965c-.76 11.96-2.1 25.07-4.06 38.76-.12.85-.23 1.7-.36 2.52q-.51 3.51-1.07 6.96c.2-.01-6.51 39.64-10.37 58.52q-2.685-1.89-5.05-3.51c-7.05-4.79-15.17-9.95-24.17-15.08a.17.17 0 0 1 .01-.07c1.34-18.11 3.86-43.03 5.48-56 4.87-39.13 13.31-72.39 21.4-87.45q.585-1.08 1.17-2.04c.17-.29.35-.57.52-.84 2.54-3.96 5.02-6 7.32-5.71 2.79.35 5.02 4.1 6.63 10.5.08.31.15.63.23.95.22.98.44 2.02.64 3.11 2.1 11.42 2.715 28.79 1.68 49.38z"/><path d="M263.105 187.725a1 1 0 0 1-.576-.182q-2.679-1.886-5.039-3.5a362.096 362.096 0 0 0-24.1-15.037 1 1 0 0 1-.5-.869 1.242 1.242 0 0 1 .014-.174c1.362-18.383 3.906-43.386 5.484-56.02 4.7-37.756 13.141-72.219 21.511-87.8q.6-1.107 1.2-2.087c.132-.225.279-.457.422-.684l.106-.168c2.844-4.432 5.631-6.5 8.291-6.17 3.184.4 5.7 4.184 7.475 11.249.045.172.088.354.131.538l.1.413c.229 1.016.452 2.069.654 3.173 2.117 11.51 2.719 29.129 1.7 49.609v.014c-.791 12.441-2.16 25.508-4.068 38.838l-.108.772c-.082.595-.163 1.187-.255 1.763q-.508 3.5-1.07 6.962l-.055-.009c-.053 1.474-.8 6.076-3.626 22.292-1.239 7.12-4.372 24.909-6.7 36.279a1 1 0 0 1-.979.8zm-28.171-20.143a364.573 364.573 0 0 1 23.682 14.806q1.818 1.242 3.812 2.641c3.786-18.843 9.854-54.661 10.048-56.777a1.085 1.085 0 0 1 .011-.205q.555-3.444 1.069-6.946c.091-.575.17-1.153.25-1.734l.108-.782c1.9-13.277 3.265-26.29 4.053-38.677 1.015-20.327.424-37.779-1.666-49.142-.2-1.077-.415-2.1-.632-3.072l-.1-.414c-.04-.17-.08-.339-.122-.505-1.513-6.016-3.567-9.479-5.787-9.758-1.784-.224-4 1.592-6.352 5.258l-.105.166c-.132.207-.266.42-.394.639a45.325 45.325 0 0 0-1.154 2.011c-8.26 15.377-16.617 49.566-21.287 87.1-1.56 12.488-4.068 37.091-5.434 55.391zM438.031 349.2a149.747 149.747 0 0 1-55.51-10.711 1.263 1.263 0 0 1-.082-.035 151.283 151.283 0 0 1-48.123-30.858c-37.572-35.594-54.3-86.87-44.738-137.164a145.117 145.117 0 0 1 15.334-42.767 1 1 0 1 1 1.754.962 143.065 143.065 0 0 0-15.123 42.173c-9.431 49.622 7.073 100.216 44.148 135.339a149.293 149.293 0 0 0 47.52 30.465.7.7 0 0 1 .074.034 147.16 147.16 0 0 0 84.49 7.51 87.817 87.817 0 0 0 2.872-.617c.9-.2 1.8-.414 2.687-.638 0 0 .06-.017.12-.031a144.13 144.13 0 0 0 30.8-11.515 142.645 142.645 0 0 0 20.272-12.628 1 1 0 1 1 1.2 1.6 144.659 144.659 0 0 1-51.71 24.462s-.057.016-.117.03c-.978.247-1.893.459-2.8.666-.971.227-1.949.435-2.925.629a148.78 148.78 0 0 1-30.143 3.094z"/></g><path d="M278.965 79.965c-.76 11.96-2.1 25.07-4.06 38.76-.12.85-.23 1.7-.36 2.52q-.51 3.51-1.07 6.96c.12-.01-2.24 14.21-4.98 29.68-1.84 10.36-3.84 21.27-5.39 28.84q-2.685-1.89-5.05-3.51a407.94 407.94 0 0 0-9.65-6.48c-5.82-3.77-10.07-6.22-14.51-8.67-2.19-1.21-4.42-2.41-6.91-3.77-11-6-65.51-35.4-86-12-13.89 15.87-7.32 44.25 10 69.54.01.01.02.03.03.04a138.423 138.423 0 0 0 25.97 28.42c17 14 59 8 60 24 .44 7.06-5 13-27 17 12 14 19 58-16 68-8 17-29 21-40 20-8 10-33 18-51 1-15.56-14.69-14.49-36.52-6.74-42.76C38.985 280.3-39.483 129.21 25.517 47.21c58.6-73.92 185.068-40.9 236.428-24.635.18.05.35.11.52.16 5.44 1.72 10.13 3.37 13.94 4.79l.24-.05c.22.98.44 2.02.64 3.11 2.1 11.42 2.715 28.79 1.68 49.38z" fill="#ffd6c0"/><path d="M127.679 391.19a36.18 36.18 0 0 1-25.379-10.168c-8.268-7.805-12.952-18.854-12.531-29.554.234-5.931 2.092-11.048 5.027-13.973-24.64-24.915-60.254-74.995-80.71-135.517C3.964 172.03-.744 144.141.1 119.084 1.054 90.394 9.344 66 24.733 46.589 50.215 14.446 91.191-1.2 146.469.072c34.176.789 73.13 8.039 115.777 21.55.08.021.191.057.3.091l.2.063a296.085 296.085 0 0 1 13.739 4.712 1 1 0 0 1 1.135.769c.223.992.446 2.045.648 3.149 2.117 11.51 2.719 29.129 1.7 49.609v.014c-.791 12.441-2.16 25.508-4.068 38.838l-.108.772c-.082.595-.163 1.187-.255 1.763q-.508 3.5-1.07 6.962h-.024c-.039.939-.411 3.161-1.406 9.115a2257.65 2257.65 0 0 1-3.553 20.584c-2.237 12.592-4.051 22.3-5.395 28.867a1 1 0 0 1-.61.729 1.008 1.008 0 0 1-.945-.112q-2.679-1.886-5.039-3.5a405.573 405.573 0 0 0-9.63-6.467c-5.715-3.7-9.91-6.129-14.449-8.633a712.877 712.877 0 0 0-4.257-2.326l-2.649-1.442c-19.425-10.595-66.571-33-84.769-12.219-12.508 14.293-8.56 41.1 10.06 68.3l.011.015.033.046a137.791 137.791 0 0 0 25.78 28.212c7.538 6.208 20.578 8.455 32.083 10.437 14.856 2.56 27.686 4.771 28.279 14.273.366 5.848-2.327 13.107-26.177 17.738 7.191 9.6 11.805 28.6 7.046 44.435-3.577 11.9-11.925 20.095-24.158 23.724-8.064 16.514-28.23 21.115-40.27 20.2-4.914 5.8-14.466 10.1-23.991 10.759-.877.056-1.797.091-2.758.091zM140.274 2C88.742 2 50.423 17.4 26.3 47.831c-19.894 25.1-37.834 72.1-10.319 153.507 20.552 60.807 56.463 110.991 80.97 135.49a1 1 0 0 1-.08 1.486c-2.965 2.387-4.873 7.334-5.1 13.232-.4 10.132 4.051 20.607 11.905 28.022a34.4 34.4 0 0 0 26.621 9.531c10.658-.743 19.188-5.773 22.911-10.428a1.012 1.012 0 0 1 .872-.372c11.513 1.051 31.4-3.264 39-19.429a1 1 0 0 1 .631-.536c11.781-3.366 19.813-11.148 23.226-22.5 4.643-15.452-.239-35.166-7.71-43.884a1 1 0 0 1 .58-1.635c23.816-4.33 26.5-10.8 26.18-15.953-.495-7.924-12.6-10.011-26.623-12.426-11.75-2.025-25.067-4.32-33.014-10.865a139.821 139.821 0 0 1-26.15-28.613v-.006l-.038-.052c-19.164-27.981-23.06-55.758-9.927-70.763 8.935-10.205 24.947-12 47.594-5.326 11.943 3.519 25.279 9.274 39.637 17.106l2.646 1.441c1.477.8 2.88 1.565 4.269 2.332 4.576 2.524 8.805 4.971 14.57 8.706a398.08 398.08 0 0 1 9.675 6.5q1.81 1.238 3.806 2.637c1.3-6.492 3.012-15.67 5.081-27.319 2.72-15.355 4.852-28.25 4.966-29.459a1.079 1.079 0 0 1 .011-.2q.555-3.444 1.069-6.946c.091-.575.17-1.153.25-1.734l.108-.782c1.9-13.277 3.265-26.289 4.053-38.676 1.015-20.327.424-37.78-1.666-49.142a75.326 75.326 0 0 0-.482-2.393c-4.4-1.634-8.991-3.21-13.656-4.685l-.226-.071c-.085-.027-.171-.055-.261-.08-42.5-13.463-81.267-20.682-115.253-21.467A227.689 227.689 0 0 0 140.274 2z" fill="#112c41"/><path d="M96.245 337.535c18.74 16.76 24.74 29.76 24.74 29.76" fill="#ffd6c0"/><path d="M120.985 368.3a1 1 0 0 1-.908-.58c-.059-.129-6.164-13.036-24.5-29.434a1 1 0 0 1 1.334-1.492c18.68 16.707 24.733 29.549 24.982 30.087a1 1 0 0 1-.908 1.419z" fill="#112c41"/><path d="M153.985 379.3c9-12 6-24 4-30" fill="#ffd6c0"/><path d="M153.983 380.3a1 1 0 0 1-.8-1.6c6.31-8.413 7.57-17.927 3.851-29.083a1 1 0 0 1 1.9-.633c3.942 11.826 2.585 21.938-4.149 30.916a1 1 0 0 1-.802.4z" fill="#112c41"/><path d="M193.985 359.3c5-12 3.259-22.352 1-28" fill="#ffd6c0"/><path d="M193.984 360.3a.987.987 0 0 1-.384-.078 1 1 0 0 1-.538-1.307c5.629-13.512 2.184-24.269.994-27.244a1 1 0 1 1 1.857-.743c1.616 4.041 4.754 14.933-1.006 28.756a1 1 0 0 1-.923.616z" fill="#112c41"/><path d="M268.5 157.885c-1.84 10.36-3.84 21.27-5.39 28.84q-2.685-1.89-5.05-3.51a407.94 407.94 0 0 0-9.65-6.48c-5.82-3.77-10.07-6.22-14.51-8.67-2.19-1.21-4.42-2.41-6.91-3.77-11-6-65.51-35.4-86-12-13.89 15.87-7.32 44.25 10 69.54-25.95-28.42-38-63.54-14-85.54 21.524-19.735 72.995-11.995 131.51 21.59z" fill="#f5b9ab"/><path d="M127.679 391.19a36.18 36.18 0 0 1-25.379-10.168c-8.268-7.805-12.952-18.854-12.531-29.554.234-5.931 2.092-11.048 5.027-13.973-24.64-24.915-60.254-74.995-80.71-135.517C3.964 172.03-.744 144.141.1 119.084 1.054 90.394 9.344 66 24.733 46.589 50.215 14.446 91.191-1.2 146.469.072c34.176.789 73.13 8.039 115.777 21.55.08.021.191.057.3.091l.2.063a296.085 296.085 0 0 1 13.739 4.712 1 1 0 0 1 1.135.769c.223.992.446 2.045.648 3.149 2.117 11.51 2.719 29.129 1.7 49.609v.014c-.791 12.441-2.16 25.508-4.068 38.838l-.108.772c-.082.595-.163 1.187-.255 1.763q-.508 3.5-1.07 6.962h-.024c-.039.939-.411 3.161-1.406 9.115a2257.65 2257.65 0 0 1-3.553 20.584c-2.237 12.592-4.051 22.3-5.395 28.867a1 1 0 0 1-.61.729 1.008 1.008 0 0 1-.945-.112q-2.679-1.886-5.039-3.5a405.573 405.573 0 0 0-9.63-6.467c-5.715-3.7-9.91-6.129-14.449-8.633a712.877 712.877 0 0 0-4.257-2.326l-2.649-1.442c-19.425-10.595-66.571-33-84.769-12.219-12.508 14.293-8.56 41.1 10.06 68.3l.011.015.033.046a137.791 137.791 0 0 0 25.78 28.212c7.538 6.208 20.578 8.455 32.083 10.437 14.856 2.56 27.686 4.771 28.279 14.273.366 5.848-2.327 13.107-26.177 17.738 7.191 9.6 11.805 28.6 7.046 44.435-3.577 11.9-11.925 20.095-24.158 23.724-8.064 16.514-28.23 21.115-40.27 20.2-4.914 5.8-14.466 10.1-23.991 10.759-.877.056-1.797.091-2.758.091zM140.274 2C88.742 2 50.423 17.4 26.3 47.831c-19.894 25.1-37.834 72.1-10.319 153.507 20.552 60.807 56.463 110.991 80.97 135.49a1 1 0 0 1-.08 1.486c-2.965 2.387-4.873 7.334-5.1 13.232-.4 10.132 4.051 20.607 11.905 28.022a34.4 34.4 0 0 0 26.621 9.531c10.658-.743 19.188-5.773 22.911-10.428a1.012 1.012 0 0 1 .872-.372c11.513 1.051 31.4-3.264 39-19.429a1 1 0 0 1 .631-.536c11.781-3.366 19.813-11.148 23.226-22.5 4.643-15.452-.239-35.166-7.71-43.884a1 1 0 0 1 .58-1.635c23.816-4.33 26.5-10.8 26.18-15.953-.495-7.924-12.6-10.011-26.623-12.426-11.75-2.025-25.067-4.32-33.014-10.865a139.821 139.821 0 0 1-26.15-28.613v-.006l-.038-.052c-19.164-27.981-23.06-55.758-9.927-70.763 8.935-10.205 24.947-12 47.594-5.326 11.943 3.519 25.279 9.274 39.637 17.106l2.646 1.441c1.477.8 2.88 1.565 4.269 2.332 4.576 2.524 8.805 4.971 14.57 8.706a398.08 398.08 0 0 1 9.675 6.5q1.81 1.238 3.806 2.637c1.3-6.492 3.012-15.67 5.081-27.319 2.72-15.355 4.852-28.25 4.966-29.459a1.079 1.079 0 0 1 .011-.2q.555-3.444 1.069-6.946c.091-.575.17-1.153.25-1.734l.108-.782c1.9-13.277 3.265-26.289 4.053-38.676 1.015-20.327.424-37.78-1.666-49.142a75.326 75.326 0 0 0-.482-2.393c-4.4-1.634-8.991-3.21-13.656-4.685l-.226-.071c-.085-.027-.171-.055-.261-.08-42.5-13.463-81.267-20.682-115.253-21.467A227.689 227.689 0 0 0 140.274 2z" fill="#112c41"/><path d="M62.375 319.509c-2.749 0-4.781-.709-5.906-2.25-2.435-3.336-.186-9.45 6.685-18.175a1 1 0 1 1 1.571 1.238c-5.984 7.6-8.4 13.341-6.641 15.758 4.266 5.845 32.429-5.119 67.553-30.755 15.845-11.565 29.756-23.767 39.173-34.361 8.853-9.959 12.857-17.66 10.711-20.6-1.74-2.381-7.819-1.875-16.685 1.392a1 1 0 0 1-.691-1.877c10.2-3.757 16.587-3.988 18.991-.694 3.619 4.958-3.893 15.3-10.831 23.109-9.509 10.7-23.533 23-39.489 34.647-24.334 17.759-51.875 32.567-64.441 32.568zm-27.847-45.127c-5.987 0-10.976-1.109-12.3-4.484-1.833-4.673 6.088-12.464 13.428-17.714a1 1 0 1 1 1.164 1.627c-9.512 6.8-13.659 12.991-12.731 15.357 1.329 3.391 9.978 4.147 23.131 2.024 13.993-2.258 31.757-7.445 50.019-14.6s34.82-15.426 46.619-23.279c11.093-7.382 16.923-13.813 15.594-17.2-.98-2.5-6.193-3.621-14.3-3.074a1 1 0 1 1-.134-2c9.434-.637 14.92.821 16.3 4.339 2.241 5.715-7.653 13.812-16.348 19.6-11.914 7.929-28.6 16.266-47 23.476s-36.3 12.435-50.431 14.715a84.773 84.773 0 0 1-13.011 1.213z" fill="#112c41"/></svg></g><g transform="translate(1072.0 419.0) rotate(0.0 44.5 129.0) scale(0.9941801365042839 0.9991015830725858)"><svg width="89.521" height="258.232" viewBox="0 0 89.521 258.232"><g fill="#112c41"><path d="M1.548 243.525 82.745 3.019a2.967 2.967 0 0 1 3.76-1.862 2.975 2.975 0 0 1 1.912 3.594L21.402 249.587c-1.514 5.531-7.225 8.788-12.757 7.274-5.531-1.514-8.788-7.225-7.274-12.757.051-.185.117-.399.177-.579z"/><path d="M11.405 258.235c-1.009 0-2.024-.136-3.024-.409a11.306 11.306 0 0 1-6.883-5.341 11.309 11.309 0 0 1-.897-9.28v-.001L81.797 2.699c.338-1.004 1.048-1.815 1.998-2.286s2.024-.542 3.03-.203a3.976 3.976 0 0 1 2.557 4.803L22.366 249.851a11.309 11.309 0 0 1-5.341 6.884 11.317 11.317 0 0 1-5.62 1.5zm-8.909-14.391a9.322 9.322 0 0 0 .739 7.65 9.315 9.315 0 0 0 5.674 4.401c2.417.661 4.948.343 7.125-.898s3.741-3.257 4.403-5.674L87.453 4.487a1.974 1.974 0 0 0-1.268-2.383 1.968 1.968 0 0 0-2.492 1.235z"/></g></svg></g><g transform="translate(1005.0 598.0) rotate(0.0 72.5 62.5) scale(1.0203722599486296 1.0095544230598383)"><svg width="142.105" height="123.817" viewBox="0 0 142.105 123.817"><path d="M63.207 122.817c12.092-25.606 5.75-50.579 3.268-58.272a5.476 5.476 0 0 1 .603-4.608c2.661-4.204 8.911-15.991 10.269-23.714.12-.683 2.302-22.341-8.908-25.557C51.352 5.766 30.159 50.73 1 92.958" fill="#ffd6c0"/><path d="M63.206 123.817a1 1 0 0 1-.904-1.427c12.009-25.431 5.502-50.47 3.221-57.538a6.456 6.456 0 0 1 .709-5.449c2.613-4.129 8.791-15.741 10.128-23.352.032-.206 2.267-21.42-8.199-24.423-11.882-3.403-27.226 20.914-44.984 49.083-6.74 10.69-13.709 21.745-21.354 32.816a1.002 1.002 0 0 1-1.391.255 1.001 1.001 0 0 1-.254-1.392c7.621-11.037 14.579-22.073 21.308-32.746C40.422 29.605 55.375 5.876 68.714 9.707c5.009 1.437 8.266 6.468 9.417 14.548.837 5.878.306 11.544.2 12.143-1.389 7.902-7.729 19.842-10.408 24.075a4.461 4.461 0 0 0-.496 3.766c2.337 7.244 9.007 32.911-3.316 59.005-.171.361-.53.573-.905.573z" fill="#112c41"/><ellipse cx="113.158" cy="89.141" fill="#ffd6c0" rx="30.67" ry="16.977" transform="matrix(.7329 -.6804 .6804 .7329 -30.4209 100.8039)"/><path d="M99.703 114.391c-4.007 0-7.426-1.194-9.755-3.702-6.744-7.265-1.819-22.841 10.979-34.723 12.798-11.881 28.697-15.636 35.441-8.373 6.744 7.265 1.819 22.841-10.979 34.723-8.378 7.78-18.088 12.075-25.686 12.075zm-8.289-5.063c5.994 6.456 20.625 2.653 32.615-8.477 11.989-11.132 16.867-25.44 10.873-31.896-5.994-6.457-20.625-2.654-32.615 8.477-11.989 11.131-16.867 25.44-10.873 31.896z" fill="#112c41"/><ellipse cx="115.326" cy="54.964" fill="#ffd6c0" rx="31.004" ry="17.883" transform="matrix(.7329 -.6804 .6804 .7329 -6.5886 93.1484)"/><path d="M102.396 80.808c-4.396 0-8.032-1.383-10.525-4.068-7.084-7.631-2.326-23.607 10.607-35.614s29.218-15.566 36.302-7.937c3.503 3.773 4.274 9.605 2.171 16.421-2.044 6.625-6.583 13.44-12.778 19.192-6.195 5.753-13.33 9.772-20.087 11.32-2.004.46-3.91.686-5.69.686zm25.813-49.709c-7.182 0-16.4 4.093-24.37 11.491-12.125 11.258-16.836 25.966-10.502 32.789 2.997 3.229 8.076 4.219 14.303 2.795 6.421-1.471 13.23-5.319 19.173-10.836 5.942-5.518 10.285-12.022 12.228-18.317 1.884-6.104 1.271-11.242-1.726-14.47-2.171-2.338-5.362-3.452-9.106-3.452z" fill="#112c41"/><ellipse cx="108.512" cy="27.529" fill="#ffd6c0" rx="31.568" ry="17.883" transform="matrix(.6581 -.753 .753 .6581 16.3763 91.1198)"/><path d="M95.839 55.067c-3.473 0-6.467-1.012-8.759-3.015-7.839-6.852-4.604-23.427 7.213-36.949 11.817-13.522 27.811-18.947 35.65-12.097 3.879 3.391 5.214 9.157 3.758 16.237-1.415 6.879-5.312 14.234-10.972 20.712-5.661 6.477-12.428 11.323-19.055 13.646-2.791.98-5.428 1.466-7.835 1.466zm-7.442-4.52c3.313 2.895 8.504 3.312 14.617 1.168 6.307-2.21 12.774-6.854 18.211-13.075s9.173-13.252 10.519-19.798c1.305-6.345.198-11.434-3.116-14.329-7.01-6.126-21.736-.785-32.828 11.907-11.092 12.691-14.413 28.001-7.403 34.127z" fill="#112c41"/></svg></g></svg>