<svg xmlns="http://www.w3.org/2000/svg" viewBox="0 0 3000 3000" width="3000" height="3000"><g transform="translate(1201.6666666666667 1425.0) rotate(0.0 665.0000000000001 557.5) scale(1.6653498298964107 1.664576615311119)"><svg width="798.631" height="669.84" viewBox="0 0 798.631 669.84"><path d="M771.148 256.124C564.017 382.832 321.458 434.911 80.57 404.396c-12.161-1.54-20.78-12.644-19.314-24.814l29.865-247.866c1.47-12.197 12.525-20.956 24.724-19.5 175.451 20.949 351.811-16.917 503.199-108.04 10.526-6.336 24.203-2.887 30.55 7.632L778.573 225.57c6.333 10.495 3.031 24.158-7.426 30.555z" fill="#ddfeee"/><path d="M215.374 413.927c-44.939 0-89.969-2.843-134.93-8.539-12.657-1.604-21.71-13.234-20.181-25.926l29.864-247.866c1.537-12.75 13.116-21.89 25.836-20.373 173.97 20.769 352.453-17.55 502.565-107.905 10.966-6.599 25.284-3.025 31.922 7.972l128.979 213.762c6.604 10.946 3.122 25.267-7.761 31.924-103.178 63.117-215.196 107.938-332.942 133.219-73.627 15.808-148.357 23.73-223.354 23.73zM113.205 113.059c-10.591 0-19.789 7.969-21.091 18.777L62.25 379.702c-1.398 11.604 6.876 22.237 18.446 23.702 239.21 30.304 484.237-22.304 689.931-148.133l.521.853-.521-.853c9.947-6.085 13.129-19.178 7.091-29.185L648.738 12.324c-6.065-10.053-19.155-13.325-29.178-7.292-75.436 45.406-157.152 77.761-242.882 96.168s-173.528 22.446-260.951 12.008a21.297 21.297 0 0 0-2.522-.15z" fill="#112c41"/><path d="M504.548 218.297c15.839 46.104-18.687 100.186-79.015 113.065-60.312 12.953-113.962-22.245-118.395-70.793-4.504-48.725 32.434-91.655 81.327-102.277 48.954-10.331 100.236 13.707 116.084 60.005z" fill="#7bdaac"/><path d="M400.362 335.065c-22.804 0-44.476-6.685-61.824-19.442-18.925-13.917-30.431-33.437-32.396-54.963-4.417-47.786 30.883-92.215 82.111-103.345 51.296-10.826 101.695 15.256 117.242 60.658 7.022 20.443 4.521 42.963-7.045 63.41-14.488 25.612-40.989 44.186-72.708 50.957-8.507 1.827-17.02 2.726-25.38 2.726zm11.135-178.192c-7.511 0-15.156.778-22.826 2.397-50.235 10.915-84.861 54.424-80.537 101.207 1.913 20.949 13.132 39.961 31.59 53.535 23.247 17.096 54.447 23.062 85.6 16.372 31.161-6.652 57.18-24.872 71.386-49.986 11.28-19.942 13.729-41.881 6.895-61.776-12.896-37.674-50.358-61.747-92.105-61.747z" fill="#112c41"/><path d="M725.077 214.893c8.596 15.259-.455 37.164-20.65 47.94-20.186 10.796-42.759 5.793-50.006-10.187-7.26-16.005 2.438-36.402 21.274-46.483 18.849-10.052 40.777-6.554 49.382 8.73z" fill="#7bdaac"/><path d="M682.446 269.591c-4.222 0-8.333-.644-12.181-1.948-7.729-2.621-13.679-7.8-16.755-14.584-7.399-16.314 2.138-37.301 21.713-47.778 19.663-10.485 41.943-6.475 50.725 9.122 3.628 6.439 4.346 14.375 2.021 22.344-3.218 11.033-11.627 20.862-23.071 26.969-7.264 3.885-15.028 5.875-22.451 5.875zm15.217-68.151c-6.956 0-14.399 1.819-21.497 5.604-18.647 9.981-27.8 29.83-20.833 45.188 2.845 6.274 8.376 11.075 15.575 13.516 10.091 3.423 22.137 2.039 33.047-3.797 10.974-5.855 19.025-15.246 22.094-25.765 2.173-7.449 1.519-14.836-1.843-20.803-5.114-9.084-15.178-13.943-26.543-13.943z" fill="#112c41"/><path d="M190.084 175.001c.005 17.549-15.562 31.495-34.797 30.246-19.235-1.231-33.602-17.11-32.081-34.562 1.519-17.474 17.115-30.049 34.824-28.921 17.711 1.155 32.05 15.664 32.054 33.237z" fill="#7bdaac"/><path d="M157.618 206.322c-.796 0-1.594-.026-2.395-.078-9.833-.63-19.048-5.15-25.28-12.401-5.714-6.648-8.46-14.904-7.732-23.246 1.556-17.91 17.32-31.024 35.884-29.832 18.495 1.206 32.985 16.244 32.99 34.234.002 8.435-3.456 16.323-9.737 22.211-6.247 5.856-14.787 9.111-23.729 9.111zm-1.841-63.63c-16.505 0-30.174 11.967-31.574 28.079-.68 7.801 1.897 15.532 7.257 21.769 5.884 6.846 14.592 11.114 23.892 11.709 9.247.598 18.228-2.496 24.628-8.497 5.874-5.506 9.107-12.875 9.105-20.751-.005-16.941-13.674-31.102-31.119-32.239a34.27 34.27 0 0 0-2.188-.07z" fill="#112c41"/><path d="M784.404 398.865C562.499 497.437 315.217 517.392 80.377 455.68c-11.855-3.115-18.951-15.249-15.908-27.123l61.979-241.843c3.05-11.901 15.155-19.141 27.059-16.104 171.212 43.683 351.007 29.173 512.999-41.399 11.263-4.907 24.373.298 29.291 11.556l99.958 228.775c4.908 11.232-.15 24.347-11.352 29.323z" fill="#ddfeee"/><path d="M351.533 491.836c-91.343 0-182.304-11.773-271.41-35.189-12.339-3.242-19.796-15.955-16.622-28.339l61.979-241.843c3.188-12.442 15.874-19.991 28.274-16.824 169.771 43.314 351.727 28.63 512.353-41.347 11.733-5.112 25.466.304 30.607 12.073l99.958 228.775c5.119 11.714-.203 25.458-11.862 30.638-110.538 49.102-227.45 78.91-347.489 88.597a1066.475 1066.475 0 0 1-85.788 3.46zM148.034 170.919c-9.476 0-18.15 6.42-20.616 16.042L65.439 428.805c-2.901 11.322 3.914 22.944 15.192 25.908 233.207 61.285 483.002 41.127 703.367-56.761l.406.914-.406-.914c10.658-4.734 15.522-17.299 10.843-28.009l-99.958-228.775c-4.702-10.759-17.252-15.714-27.977-11.04-80.719 35.165-165.962 56.571-253.36 63.625s-174.972-.407-260.285-22.174a21.155 21.155 0 0 0-5.227-.659z" fill="#112c41"/><path d="M525.028 326.544c9.683 47.778-31.611 96.887-93.104 101.778-61.487 4.966-110.081-36.938-108.136-85.648 1.898-48.896 44.126-86.634 93.988-90.78 49.884-3.849 97.587 26.68 107.253 74.651z" fill="#7bdaac"/><path d="M422.068 429.721c-28.625 0-55.298-10.083-74.339-28.364-16.946-16.27-25.804-37.125-24.941-58.723 1.861-47.954 42.662-87.393 94.904-91.737 52.282-4.03 98.833 28.406 108.316 75.449 4.293 21.186-1.128 43.186-15.265 61.947-17.709 23.501-46.409 38.455-78.741 41.026-3.331.269-6.646.402-9.935.402zm4.391-177.163c-2.85 0-5.716.109-8.606.333-51.231 4.26-91.243 42.875-93.066 89.822-.839 21.02 7.801 41.333 24.328 57.201 20.815 19.985 50.969 29.976 82.729 27.412 31.763-2.526 59.938-17.191 77.303-40.236 13.788-18.298 19.08-39.729 14.901-60.346-8.757-43.462-49.908-74.185-97.589-74.185z" fill="#112c41"/><path d="M744.113 351.97c6.53 16.251-5.305 36.786-26.734 44.833-21.423 8.068-43.149.159-48.247-16.631-5.107-16.816 7.171-35.772 27.162-43.307 20-7.504 41.284-1.172 47.819 15.105z" fill="#7bdaac"/><path d="M700.345 400.998c-6.235 0-12.211-1.298-17.464-3.888-7.32-3.607-12.543-9.52-14.707-16.647-5.206-17.141 6.99-36.703 27.767-44.533 20.86-7.828 42.428-.944 49.1 15.668 2.756 6.858 2.431 14.819-.916 22.417-4.631 10.517-14.251 19.164-26.395 23.724-5.774 2.175-11.688 3.259-17.385 3.259zm12.916-66.296c-5.365 0-11.015.999-16.616 3.1-19.792 7.46-31.458 25.944-26.557 42.081 2.001 6.592 6.858 12.074 13.677 15.434 9.559 4.712 21.683 4.912 33.261.551 11.644-4.372 20.854-12.63 25.269-22.658 3.127-7.102 3.443-14.512.891-20.866-4.493-11.192-16.29-17.642-29.924-17.642z" fill="#112c41"/><path d="M218.912 242.551c-2.287 17.4-19.541 29.193-38.449 25.443-18.909-3.733-31.08-21.352-27.293-38.456 3.788-17.126 20.892-27.556 38.303-24.125 17.408 3.458 29.729 19.715 27.439 37.138z" fill="#7bdaac"/><path d="M187.412 269.679c-2.371 0-4.764-.232-7.144-.704-9.667-1.908-18.212-7.593-23.443-15.596-4.797-7.337-6.442-15.881-4.632-24.057 3.885-17.553 21.218-28.486 39.474-24.89 18.18 3.611 30.582 20.412 28.236 38.25-1.099 8.363-5.558 15.731-12.555 20.749-5.705 4.092-12.712 6.249-19.937 6.249zm-2.687-63.93c-14.604 0-27.4 9.639-30.579 24.004-1.693 7.646-.147 15.648 4.353 22.531 4.938 7.555 13.015 12.923 22.157 14.729 9.096 1.802 18.398-.095 25.527-5.208 6.542-4.692 10.711-11.576 11.737-19.385 2.208-16.796-9.494-32.621-26.643-36.027a33.859 33.859 0 0 0-6.553-.645z" fill="#112c41"/><path d="M707.348 655.341c-239.756 38.409-483.894-5.675-695.075-125.512-10.661-6.05-14.41-19.597-8.425-30.294l121.889-217.882c5.998-10.722 19.554-14.618 30.283-8.631 154.299 86.102 331.808 118.156 506.476 91.456 12.145-1.856 23.482 6.535 25.351 18.677l37.989 246.752c1.865 12.115-6.385 23.496-18.488 25.435z" fill="#ddfeee"/><path d="M537.993 669.868c-63.295 0-126.478-5.653-189.076-16.957-118.513-21.4-231.941-62.519-337.137-122.213-11.097-6.296-15.047-20.495-8.806-31.652l121.89-217.882c6.271-11.208 20.465-15.254 31.644-9.016 152.998 85.377 332.646 117.816 505.837 91.341 12.66-1.939 24.537 6.82 26.491 19.513l37.988 246.752c1.945 12.635-6.721 24.556-19.318 26.574l-.158-.987.158.987c-56.347 9.027-112.976 13.54-169.513 13.54zM145.252 271.216c-7.468 0-14.735 3.942-18.642 10.924L4.72 500.023c-5.706 10.2-2.097 23.181 8.046 28.937 160.768 91.229 343.236 138.693 526.911 138.695 55.922 0 111.941-4.398 167.512-13.3 11.516-1.845 19.437-12.744 17.658-24.295l-37.988-246.752c-1.787-11.604-12.654-19.605-24.212-17.841-87.037 13.305-174.919 12.149-261.205-3.432-86.288-15.582-169.023-45.236-245.909-88.14a21.044 21.044 0 0 0-10.281-2.678z" fill="#112c41"/><path d="M475.169 518.962c-2.885 48.664-55.386 85.55-116.079 74.517-60.706-10.958-96.938-63.916-82.575-110.501 14.366-46.777 64.855-72.432 114.114-63.661 49.205 9.064 87.49 50.799 84.539 99.645z" fill="#7bdaac"/><path d="M380.639 596.441c-7.162 0-14.435-.652-21.729-1.978-31.918-5.762-58.997-23.486-74.293-48.626-12.21-20.069-15.427-42.498-9.059-63.153 14.09-45.875 63.633-73.541 115.246-64.351 51.561 9.497 88.256 52.784 85.361 100.69-1.279 21.577-12.158 41.453-30.631 55.965-17.851 14.023-40.725 21.454-64.896 21.454zm-9.619-177.866c-43.147 0-81.535 25.58-93.549 64.696-6.198 20.103-3.053 41.952 8.855 61.526 14.998 24.652 41.584 42.038 72.94 47.698a119.574 119.574 0 0 0 21.374 1.945c23.729.001 46.16-7.28 63.659-21.026 18.017-14.153 28.625-33.513 29.87-54.512 2.833-46.899-33.159-89.289-83.723-98.603a110.826 110.826 0 0 0-19.428-1.725z" fill="#112c41"/><path d="M680.42 599.686c2.147 17.382-14.555 34.198-37.331 36.484-22.775 2.308-41.749-10.905-42.374-28.44-.627-17.564 16.099-32.739 37.354-34.899 21.256-2.127 40.206 9.447 42.351 26.856z" fill="#7bdaac"/><path d="M637.909 637.434c-10.88 0-20.962-3.459-28.243-9.808-6.15-5.363-9.685-12.417-9.949-19.861-.64-17.903 16.163-33.685 38.251-35.93 22.174-2.227 41.253 9.962 43.445 27.728.906 7.335-1.448 14.947-6.63 21.434-7.172 8.979-18.688 14.872-31.594 16.167-1.774.18-3.538.269-5.28.269zm5.253-63.859a50.04 50.04 0 0 0-4.993.251c-21.042 2.139-37.056 17.016-36.454 33.869.246 6.885 3.536 13.429 9.266 18.424 8.032 7.003 19.699 10.305 32.009 9.057 12.374-1.242 23.394-6.864 30.231-15.426 4.842-6.063 7.047-13.145 6.208-19.94-1.892-15.346-17.385-26.234-36.267-26.234z" fill="#112c41"/><path d="M200.802 359.322c-6.67 16.232-26.37 23.21-43.685 14.739-17.321-8.454-24.57-28.604-16.526-44.166 8.051-15.583 27.257-21.281 43.207-13.503 15.941 7.804 23.684 26.676 17.004 42.93z" fill="#7bdaac"/><path d="M172.507 378.668c-5.36 0-10.797-1.245-15.83-3.708-8.854-4.322-15.658-12.007-18.664-21.083-2.756-8.322-2.155-17.001 1.689-24.44 8.252-15.971 27.812-22.096 44.533-13.942 16.646 8.15 24.329 27.568 17.49 44.208-3.205 7.801-9.402 13.781-17.451 16.838-3.743 1.422-7.733 2.127-11.768 2.127zm-3.669-64.773c-11.293 0-21.935 5.961-27.358 16.46-3.597 6.957-4.153 15.087-1.568 22.893 2.838 8.569 9.269 15.828 17.644 19.916 8.327 4.073 17.805 4.624 26.01 1.508 7.525-2.858 13.318-8.444 16.312-15.729 6.439-15.669-.816-33.965-16.519-41.652-4.72-2.301-9.68-3.396-14.52-3.396z" fill="#112c41"/></svg></g><g transform="translate(661.6666666666667 1836.6666666666667) rotate(0.0 127.5 140.83333333333337) scale(1.6666666666666667 1.660300543871232)"><svg width="153" height="169.648" viewBox="0 0 153 169.648"><path d="M64.582 22.962C92.583 17.567 146.781 61.1 146.781 61.1l3.878 20.13c7.679 39.86-18.408 78.398-58.268 86.077s-78.398-18.408-86.077-58.268l-3.878-20.13S38.219 28.04 64.582 22.961z" fill="#ffd169"/><path d="M78.459 169.642c-34.982 0-66.269-24.816-73.127-60.414L1.453 89.099a1.002 1.002 0 0 1 .12-.696c1.471-2.501 36.317-61.316 62.819-66.422l.189.982-.189-.982c28.133-5.419 80.787 36.551 83.015 38.34a.989.989 0 0 1 .355.59l3.879 20.13c3.765 19.54-.306 39.377-11.461 55.856s-28.06 27.627-47.6 31.392a74.62 74.62 0 0 1-14.122 1.353zM3.489 89.094l3.807 19.756c7.563 39.254 45.651 65.041 84.906 57.475 19.016-3.664 35.467-14.513 46.322-30.549s14.816-35.341 11.152-54.357l-3.808-19.766c-4.28-3.378-54.913-42.762-81.098-37.709-24.644 4.748-58.424 60.374-61.281 65.15z" fill="#112c41"/><circle cx="74.514" cy="74.514" fill="#ffe993" r="73.5"/><path d="M74.485 149.021c-34.981.001-66.268-24.816-73.126-60.414C-6.412 48.269 20.083 9.13 60.42 1.359l.189.982-.189-.982c40.332-7.775 79.476 18.724 87.249 59.061 3.765 19.54-.306 39.377-11.461 55.856s-28.061 27.628-47.601 31.393a74.62 74.62 0 0 1-14.122 1.353zM60.799 3.323C21.544 10.885-4.239 48.974 3.323 88.229c7.563 39.253 45.646 65.041 84.905 57.475 19.017-3.664 35.468-14.513 46.323-30.55s14.816-35.341 11.152-54.357c-7.562-39.253-45.648-65.038-84.904-57.474z" fill="#112c41"/><circle cx="73.532" cy="74.703" fill="#ffd169" r="53.5"/><g fill="#112c41"><path d="M95.711 95.369a.999.999 0 0 1-.702-1.712c12.295-12.122 16.502-24.491 11.544-33.936-3.881-7.39-13.124-11.757-21.511-10.157-7.906 1.509-13.02 7.805-14.029 17.272C68.957 86.118 60.888 91.23 56.261 92.56c-5.903 1.7-12.56-.818-16.954-6.409-4.057-5.161-6.533-13.933-1.318-23.079a1 1 0 1 1 1.738.991c-4.013 7.035-3.582 14.83 1.152 20.852 3.891 4.949 9.714 7.195 14.829 5.723 4.144-1.192 11.385-5.896 13.316-24.014C70.133 56.22 75.835 49.286 84.667 47.6c9.362-1.789 19.313 2.918 23.656 11.191 5.396 10.279 1.056 23.506-11.91 36.29a.997.997 0 0 1-.702.288z"/><path d="M31.325 81.288a1 1 0 0 1-.188-1.982l86.411-16.648a1.001 1.001 0 0 1 .379 1.964L31.515 81.27a1.035 1.035 0 0 1-.19.018z"/></g></svg></g><g transform="translate(446.6666666666667 2053.3333333333335) rotate(82.94083308386236 102.50000000000003 112.5) scale(1.339869281045752 1.3262755823823447)"><svg width="153" height="169.648" viewBox="0 0 153 169.648"><path d="M64.582 22.962C92.583 17.567 146.781 61.1 146.781 61.1l3.878 20.13c7.679 39.86-18.408 78.398-58.268 86.077s-78.398-18.408-86.077-58.268l-3.878-20.13S38.219 28.04 64.582 22.961z" fill="#ffd169"/><path d="M78.459 169.642c-34.982 0-66.269-24.816-73.127-60.414L1.453 89.099a1.002 1.002 0 0 1 .12-.696c1.471-2.501 36.317-61.316 62.819-66.422l.189.982-.189-.982c28.133-5.419 80.787 36.551 83.015 38.34a.989.989 0 0 1 .355.59l3.879 20.13c3.765 19.54-.306 39.377-11.461 55.856s-28.06 27.627-47.6 31.392a74.62 74.62 0 0 1-14.122 1.353zM3.489 89.094l3.807 19.756c7.563 39.254 45.651 65.041 84.906 57.475 19.016-3.664 35.467-14.513 46.322-30.549s14.816-35.341 11.152-54.357l-3.808-19.766c-4.28-3.378-54.913-42.762-81.098-37.709-24.644 4.748-58.424 60.374-61.281 65.15z" fill="#112c41"/><circle cx="74.514" cy="74.514" fill="#ffe993" r="73.5"/><path d="M74.485 149.021c-34.981.001-66.268-24.816-73.126-60.414C-6.412 48.269 20.083 9.13 60.42 1.359l.189.982-.189-.982c40.332-7.775 79.476 18.724 87.249 59.061 3.765 19.54-.306 39.377-11.461 55.856s-28.061 27.628-47.601 31.393a74.62 74.62 0 0 1-14.122 1.353zM60.799 3.323C21.544 10.885-4.239 48.974 3.323 88.229c7.563 39.253 45.646 65.041 84.905 57.475 19.017-3.664 35.468-14.513 46.323-30.55s14.816-35.341 11.152-54.357c-7.562-39.253-45.648-65.038-84.904-57.474z" fill="#112c41"/><circle cx="73.532" cy="74.703" fill="#ffd169" r="53.5"/><g fill="#112c41"><path d="M95.711 95.369a.999.999 0 0 1-.702-1.712c12.295-12.122 16.502-24.491 11.544-33.936-3.881-7.39-13.124-11.757-21.511-10.157-7.906 1.509-13.02 7.805-14.029 17.272C68.957 86.118 60.888 91.23 56.261 92.56c-5.903 1.7-12.56-.818-16.954-6.409-4.057-5.161-6.533-13.933-1.318-23.079a1 1 0 1 1 1.738.991c-4.013 7.035-3.582 14.83 1.152 20.852 3.891 4.949 9.714 7.195 14.829 5.723 4.144-1.192 11.385-5.896 13.316-24.014C70.133 56.22 75.835 49.286 84.667 47.6c9.362-1.789 19.313 2.918 23.656 11.191 5.396 10.279 1.056 23.506-11.91 36.29a.997.997 0 0 1-.702.288z"/><path d="M31.325 81.288a1 1 0 0 1-.188-1.982l86.411-16.648a1.001 1.001 0 0 1 .379 1.964L31.515 81.27a1.035 1.035 0 0 1-.19.018z"/></g></svg></g><g transform="translate(811.6666666666667 456.6666666666667) rotate(0.0 905.8333333333334 891.6666666666666) scale(1.666649800845315 1.665161796146224)"><svg width="1087.011" height="1070.967" viewBox="0 0 1087.011 1070.967"><path d="m696.2 387.106-383.33 678.74-272.49-104.81C16.65 951.916 1 929.126 1 903.706v-.19c.02-8.32 1.74-16.54 5.03-24.17.43-1.01.89-2 1.38-2.99l276.83-557.05a103.604 103.604 0 0 1 17.77-25.37c28.91-30.37 73.26-40.35 112.4-25.3l202.06 77.74 75.54 29.06c4.67 1.8 6.65 7.32 4.19 11.67z" fill="#b2b0f7"/><path d="M312.87 1066.846a.984.984 0 0 1-.359-.067l-272.49-104.81C16.083 952.77 0 929.356 0 903.706v-.19a62.08 62.08 0 0 1 5.112-24.566 58.52 58.52 0 0 1 1.401-3.038l276.832-557.051a105.022 105.022 0 0 1 8.006-13.479 105.24 105.24 0 0 1 9.935-12.136c29.286-30.765 73.83-40.791 113.484-25.544l277.6 106.801a9.192 9.192 0 0 1 5.353 5.479 9.177 9.177 0 0 1-.65 7.616l-383.33 678.74c-.183.322-.52.508-.871.508zm64.18-804.171c-27.57 0-54.502 11.136-74.315 31.951a102.944 102.944 0 0 0-9.745 11.904 102.925 102.925 0 0 0-7.854 13.221L8.306 876.802a55.676 55.676 0 0 0-1.355 2.936c-3.266 7.575-4.931 15.575-4.95 23.781v.188c0 24.828 15.567 47.492 38.738 56.396l271.686 104.5 382.904-677.988a7.179 7.179 0 0 0 .509-5.958 7.192 7.192 0 0 0-4.188-4.287l-277.6-106.8c-12.067-4.64-24.6-6.894-37.001-6.894z" fill="#112c41"/><path d="M1084.91 115.596c-23.91 54.73-121.2 267.81-177.04 244.25-67.02-28.27-215.22-85.16-247.65-97.57l-6.35-2.43 18.29-29.12 21.15-33.68L812.57 7.156c3.34-5.33 10-7.54 15.87-5.27l249.15 96.18c4.5 1.74 7.48 5.66 8.23 10.07.42 2.43.16 5.02-.91 7.46z" fill="#fff"/><path d="M916.866 362.65c-3.231 0-6.362-.608-9.385-1.883-68.069-28.712-218.212-86.304-247.619-97.557l-6.35-2.43a1 1 0 0 1-.489-1.466L811.724 6.624C815.312.898 822.493-1.486 828.8.953l249.15 96.18c4.7 1.817 8.011 5.868 8.855 10.835a14.01 14.01 0 0 1-.979 8.029c-26.196 59.964-112.365 246.653-168.96 246.653zM655.364 259.347l5.213 1.995c29.412 11.255 179.583 68.858 247.682 97.583 12.47 5.262 28.203-1.572 46.759-20.311 15.604-15.758 33.264-39.999 52.488-72.049 34.409-57.362 64.953-124.966 76.488-151.37a12.018 12.018 0 0 0 .841-6.889c-.726-4.269-3.569-7.747-7.605-9.308L828.079 2.819c-5.418-2.098-11.581-.047-14.661 4.868z" fill="#112c41"/><path d="M963.869 244.847c-.462 0-.933-.081-1.392-.251l-210-78a4 4 0 0 1-2.357-5.142 3.997 3.997 0 0 1 5.143-2.357l210 78a4 4 0 0 1-1.394 7.75z" fill="#9797f7"/><path d="M1084.91 115.596c-23.91 54.73-121.2 267.81-177.04 244.25-67.02-28.27-215.22-85.16-247.65-97.57l11.94-31.55 14.71-38.88s2.28 1.9 6.44 5.2c31.81 25.24 173.74 132.29 251.56 97.8 52.93-23.46 106.58-116.38 140.95-186.71.42 2.43.16 5.02-.91 7.46z" fill="#dedffe"/><path d="M916.866 362.65c-3.231 0-6.362-.608-9.385-1.883-68.069-28.712-218.212-86.304-247.619-97.557l-6.35-2.43a1 1 0 0 1-.489-1.466L811.724 6.624C815.312.898 822.493-1.486 828.8.953l249.15 96.18c4.7 1.817 8.011 5.868 8.855 10.835a14.01 14.01 0 0 1-.979 8.029c-26.196 59.964-112.365 246.653-168.96 246.653zM655.364 259.347l5.213 1.995c29.412 11.255 179.583 68.858 247.682 97.583 12.47 5.262 28.203-1.572 46.759-20.311 15.604-15.758 33.264-39.999 52.488-72.049 34.409-57.362 64.953-124.966 76.488-151.37a12.018 12.018 0 0 0 .841-6.889c-.726-4.269-3.569-7.747-7.605-9.308L828.079 2.819c-5.418-2.098-11.581-.047-14.661 4.868z" fill="#112c41"/><path d="M923.869 322.847c-.462 0-.933-.081-1.392-.251l-210-78a4 4 0 1 1 2.786-7.499l210 78a4 4 0 0 1-1.394 7.75z" fill="#9797f7"/><path d="M907.44 360.272c-.57-.426-274-105-274-105L577.403 89.731c-6.189-18.284 11.701-35.517 29.738-28.641 64.45 24.569 180.211 68.77 228.729 87.755 51.966 20.335 4 162 71.57 211.426z" fill="#dedffe"/><path d="M907.439 361.272a.992.992 0 0 1-.452-.108c-3.88-1.685-271.199-103.923-273.904-104.958a1.003 1.003 0 0 1-.59-.613L576.456 90.052c-2.989-8.831-.675-18.333 6.04-24.798 6.711-6.463 16.289-8.418 25.002-5.098 64.626 24.636 180.278 68.796 228.737 87.759 25.02 9.79 27.352 45.935 30.052 87.787 2.96 45.864 6.313 97.846 41.744 123.763s.008.005.01.007a1 1 0 0 1-.601 1.8zM634.237 254.506c154.268 59 243.964 93.365 267.521 102.495-31.428-27.522-34.626-77.139-37.467-121.17-2.656-41.171-4.951-76.727-28.785-86.054-48.452-18.959-164.099-63.117-228.722-87.752-7.976-3.042-16.753-1.251-22.902 4.67-6.15 5.923-8.271 14.627-5.532 22.716z" fill="#112c41"/><path d="m696.2 387.106-383.33 678.74-272.49-104.81C16.65 951.916 1 929.126 1 903.706v-.19c.02-8.32 1.74-16.54 5.03-24.17-17.16 62.5 228.866 139.33 278.84 103.5 53-38 164.77-266.61 222-366 57.23-99.4 115-230 114.72-267h-6.72s.59-1.3 1.6-3.47l75.54 29.06c4.67 1.8 6.65 7.32 4.19 11.67z" fill="#9797f7"/><path d="M312.87 1066.846a.984.984 0 0 1-.359-.067l-272.49-104.81C16.083 952.77 0 929.356 0 903.706v-.19a62.08 62.08 0 0 1 5.112-24.566 58.52 58.52 0 0 1 1.401-3.038l276.832-557.051a105.022 105.022 0 0 1 8.006-13.479 105.24 105.24 0 0 1 9.935-12.136c29.286-30.765 73.83-40.791 113.484-25.544l277.6 106.801a9.192 9.192 0 0 1 5.353 5.479 9.177 9.177 0 0 1-.65 7.616l-383.33 678.74c-.183.322-.52.508-.871.508zm64.18-804.171c-27.57 0-54.502 11.136-74.315 31.951a102.944 102.944 0 0 0-9.745 11.904 102.925 102.925 0 0 0-7.854 13.221L8.306 876.802a55.676 55.676 0 0 0-1.355 2.936c-3.266 7.575-4.931 15.575-4.95 23.781v.188c0 24.828 15.567 47.492 38.738 56.396l271.686 104.5 382.904-677.988a7.179 7.179 0 0 0 .509-5.958 7.192 7.192 0 0 0-4.188-4.287l-277.6-106.8c-12.067-4.64-24.6-6.894-37.001-6.894z" fill="#112c41"/><path d="m304.821 1001.277 353.456-615.95c13.02-22.69 47.48-15.377 50.162 10.645l8.069 78.267a95.744 95.744 0 0 1-13.966 60.434c-57.078 91.654-264.558 422.842-314.459 502.488-7.785 12.426-19.208 22.172-32.754 27.787-6.267 2.598-12.473 4.707-16.459 4.897-21 1-34.131-4.083-39.258-20.317a60.403 60.403 0 0 1 5.209-48.253z" fill="#9797f7"/><path d="M334.163 1070.962c-19.894 0-30.924-6.624-35.504-21.131-5.156-16.326-3.226-34.204 5.295-49.052l.867.498-.867-.498L657.41 384.83c6.152-10.721 17.937-15.989 30.033-13.425 12.091 2.566 20.724 12.169 21.991 24.465l8.069 78.267c2.189 21.249-2.822 42.935-14.113 61.065-57.718 92.681-272.075 434.841-314.46 502.49-7.979 12.734-19.465 22.479-33.219 28.18-7.545 3.128-13.195 4.8-16.794 4.972-1.638.078-3.224.117-4.755.117zm347.252-698.196c-9.145 0-17.518 4.777-22.271 13.059l-353.455 615.949c-8.243 14.364-10.11 31.661-5.123 47.454 4.676 14.806 16.119 20.674 38.257 19.619 3.368-.16 8.792-1.782 16.124-4.821 13.367-5.542 24.533-15.015 32.289-27.394 42.385-67.649 256.741-409.808 314.458-502.486 11.058-17.755 15.966-38.994 13.82-59.803l-8.069-78.267c-1.177-11.416-9.19-20.332-20.417-22.714a27.039 27.039 0 0 0-5.612-.595z" fill="#112c41"/><path d="M547.12 517.416c-.29 1.38-.8 2.74-1.54 4.05l-71.25 125.6-11.42 20.13a14.356 14.356 0 0 1-17.51 6.36l-240.74-90.18c-.07-.03-.13-.05-.2-.08-7.89-3.09-11.41-12.33-7.52-19.9l8.71-16.96 67.39-131.23c3.32-6.48 10.97-9.43 17.79-6.88l247.3 92.63c6.86 2.57 10.46 9.71 8.99 16.46z" fill="#9797f7"/><path d="M450.466 675.478c-1.803 0-3.634-.319-5.416-.985l-240.74-90.18-.113-.045-.126-.05a15.345 15.345 0 0 1-8.728-8.847 15.363 15.363 0 0 1 .707-12.431l76.101-148.19c3.547-6.925 11.725-10.09 19.03-7.36l247.3 92.63c7.09 2.656 11.224 10.226 9.617 17.608a15.17 15.17 0 0 1-1.646 4.33L463.781 667.69c-2.807 4.942-7.932 7.788-13.314 7.788zM285.799 408.414c-4.879 0-9.531 2.685-11.869 7.249l-76.101 148.191a13.357 13.357 0 0 0-.615 10.81 13.36 13.36 0 0 0 7.61 7.702l.231.093 240.694 90.162a13.3 13.3 0 0 0 16.291-5.917l82.669-145.729a13.168 13.168 0 0 0 1.432-3.762v-.007c1.398-6.419-2.197-13.001-8.363-15.311l-247.3-92.63a13.347 13.347 0 0 0-4.681-.849z" fill="#112c41"/><path d="m474.33 647.066-11.42 20.13a14.356 14.356 0 0 1-17.51 6.36l-240.74-90.18c-.07-.03-.13-.05-.2-.08-.18-.07-.35-.14-.53-.22l-.33-.15c-.16-.07-.31-.15-.46-.22-.79-.41-1.53-.88-2.21-1.4-.1-.08-.2-.16-.29-.24a14.048 14.048 0 0 1-3.43-4.07c-.09-.15-.17-.29-.24-.44a13.106 13.106 0 0 1-.83-1.94c-.06-.15-.11-.31-.15-.46-.05-.15-.09-.3-.14-.46-.9-3.31-.62-6.97 1.09-10.3l8.71-16.96 12.67 4.75z" fill="#112c41"/><path d="M450.466 675.478c-1.803 0-3.634-.319-5.416-.985l-240.74-90.18-.113-.045-.126-.051a11.186 11.186 0 0 1-.548-.228l-.338-.153c-.094-.041-.199-.093-.303-.144l-.163-.079a16.11 16.11 0 0 1-2.396-1.513 7.676 7.676 0 0 1-.348-.288 14.867 14.867 0 0 1-3.638-4.33 5.505 5.505 0 0 1-.273-.504 13.63 13.63 0 0 1-.873-2.048 4.77 4.77 0 0 1-.166-.518 3.65 3.65 0 0 1-.079-.254l-.051-.167a15.308 15.308 0 0 1 1.155-11.053l8.71-16.96a1 1 0 0 1 1.24-.479l12.67 4.75 256.011 95.88a1.002 1.002 0 0 1 .52 1.43l-11.42 20.13c-2.807 4.943-7.932 7.788-13.314 7.788zm-245.551-93.077.141.057L445.75 672.62a13.3 13.3 0 0 0 16.291-5.917l10.841-19.111-254.913-95.469-11.837-4.438-8.303 16.168a13.304 13.304 0 0 0-1.015 9.581l.049.161c.024.082.047.161.074.241.049.176.086.298.132.412.063.186.107.318.16.45.196.515.398.966.624 1.39.078.165.143.275.214.395a13.017 13.017 0 0 0 3.201 3.807c.11.097.193.163.275.229.63.482 1.324.922 2.057 1.302l.166.08c.076.038.152.076.232.111l.342.155c.16.071.316.136.481.2l-.267.97.359-.933zM604.87 478.847a.973.973 0 0 1-.357-.067l-334-128c-.517-.197-.774-.776-.576-1.292s.78-.773 1.291-.576l334 128a1 1 0 0 1-.358 1.935z" fill="#112c41"/><path d="m219.279 669.274-25.293-9.708c-10.695-4.105-15.395-16.638-10.034-26.763 4.519-8.537 14.702-12.354 23.719-8.893l25.293 9.708c10.695 4.105 15.395 16.638 10.034 26.763-4.519 8.537-14.702 12.354-23.719 8.893z" fill="#cbc8ff"/><path d="M226.104 671.542c-2.397 0-4.829-.431-7.184-1.334l-25.293-9.708c-5.364-2.059-9.599-6.326-11.616-11.707s-1.632-11.379 1.057-16.458c4.751-8.974 15.483-12.995 24.962-9.359l25.293 9.708c5.364 2.059 9.599 6.326 11.616 11.707s1.632 11.379-1.057 16.458c-3.571 6.745-10.521 10.693-17.778 10.693zm-6.467-3.202c8.533 3.275 18.199-.346 22.478-8.427 2.421-4.573 2.768-9.975.951-14.82s-5.629-8.688-10.46-10.542l-25.293-9.708c-8.533-3.277-18.2.346-22.478 8.427-2.421 4.573-2.768 9.975-.951 14.82s5.629 8.688 10.46 10.542z" fill="#112c41"/><path d="m203.279 663.274-25.293-9.708c-10.695-4.105-15.395-16.638-10.034-26.763 4.519-8.537 14.702-12.354 23.719-8.893l25.293 9.708c10.695 4.105 15.395 16.638 10.034 26.763-4.519 8.537-14.702 12.354-23.719 8.893z" fill="#dedffe"/><path d="M210.104 665.542c-2.397 0-4.829-.431-7.184-1.334l-25.293-9.708c-5.364-2.059-9.599-6.326-11.616-11.707s-1.632-11.379 1.057-16.458c4.751-8.975 15.483-12.994 24.962-9.359l25.293 9.708c5.364 2.059 9.599 6.326 11.616 11.707s1.632 11.379-1.057 16.458c-3.571 6.745-10.521 10.693-17.778 10.693zm-6.467-3.202c8.532 3.274 18.199-.347 22.478-8.427 2.421-4.573 2.768-9.975.951-14.82s-5.629-8.688-10.46-10.542l-25.293-9.708c-8.534-3.275-18.199.347-22.478 8.427-2.421 4.573-2.768 9.975-.951 14.82s5.629 8.688 10.46 10.542z" fill="#112c41"/><path d="m311.279 704.274-25.293-9.708c-10.695-4.105-15.395-16.638-10.034-26.763 4.519-8.537 14.702-12.354 23.719-8.893l25.293 9.708c10.695 4.105 15.395 16.638 10.034 26.763-4.519 8.537-14.702 12.354-23.719 8.893z" fill="#cbc8ff"/><path d="M318.104 706.542c-2.397 0-4.829-.431-7.184-1.334l-25.293-9.708c-5.364-2.059-9.599-6.326-11.616-11.707s-1.632-11.379 1.057-16.458c4.751-8.974 15.483-12.995 24.962-9.359l25.293 9.708c5.364 2.059 9.599 6.326 11.616 11.707s1.632 11.379-1.057 16.458c-3.571 6.745-10.521 10.693-17.778 10.693zm-6.467-3.202c8.533 3.274 18.199-.346 22.478-8.427 2.421-4.573 2.768-9.975.951-14.82s-5.629-8.688-10.46-10.542l-25.293-9.708c-8.533-3.277-18.2.347-22.478 8.427-2.421 4.573-2.768 9.975-.951 14.82s5.629 8.688 10.46 10.542z" fill="#112c41"/><path d="m295.279 698.274-25.293-9.708c-10.695-4.105-15.395-16.638-10.034-26.763 4.519-8.537 14.702-12.354 23.719-8.893l25.293 9.708c10.695 4.105 15.395 16.638 10.034 26.763-4.519 8.537-14.702 12.354-23.719 8.893z" fill="#dedffe"/><path d="M302.104 700.542c-2.397 0-4.829-.431-7.184-1.334l-25.293-9.708c-5.364-2.059-9.599-6.326-11.616-11.707s-1.632-11.379 1.057-16.458c4.751-8.975 15.483-12.996 24.962-9.359l25.293 9.708c5.364 2.059 9.599 6.326 11.616 11.707s1.632 11.379-1.057 16.458c-3.571 6.745-10.521 10.693-17.778 10.693zm-6.467-3.202c8.532 3.276 18.199-.347 22.478-8.427 2.421-4.573 2.768-9.975.951-14.82s-5.629-8.688-10.46-10.542l-25.293-9.708c-8.533-3.276-18.2.347-22.478 8.427-2.421 4.573-2.768 9.975-.951 14.82s5.629 8.688 10.46 10.542z" fill="#112c41"/><path d="m401.279 739.274-25.293-9.708c-10.695-4.105-15.395-16.638-10.034-26.763 4.519-8.537 14.702-12.354 23.719-8.893l25.293 9.708c10.695 4.105 15.395 16.638 10.034 26.763-4.519 8.537-14.702 12.354-23.719 8.893z" fill="#cbc8ff"/><path d="M408.104 741.542c-2.397 0-4.829-.431-7.184-1.334l-25.293-9.708c-5.364-2.059-9.599-6.326-11.616-11.707s-1.632-11.379 1.057-16.458c4.753-8.975 15.483-12.995 24.962-9.359l25.293 9.708c5.364 2.059 9.599 6.326 11.616 11.707s1.632 11.379-1.057 16.458c-3.571 6.745-10.521 10.693-17.778 10.693zm-6.467-3.202c8.532 3.274 18.199-.347 22.478-8.427 2.421-4.573 2.768-9.975.951-14.82s-5.629-8.688-10.46-10.542l-25.293-9.708c-8.534-3.276-18.199.347-22.478 8.427-2.421 4.573-2.768 9.975-.951 14.82s5.629 8.688 10.46 10.542z" fill="#112c41"/><path d="m385.279 733.274-25.293-9.708c-10.695-4.105-15.395-16.638-10.034-26.763 4.519-8.537 14.702-12.354 23.719-8.893l25.293 9.708c10.695 4.105 15.395 16.638 10.034 26.763-4.519 8.537-14.702 12.354-23.719 8.893z" fill="#dedffe"/><path d="M392.104 735.542c-2.397 0-4.829-.431-7.184-1.334l-25.293-9.708c-5.364-2.059-9.599-6.326-11.616-11.707s-1.632-11.379 1.057-16.458c4.751-8.974 15.482-12.996 24.962-9.359l25.293 9.708c5.364 2.059 9.599 6.326 11.616 11.707s1.632 11.379-1.057 16.458c-3.571 6.745-10.521 10.693-17.778 10.693zm-6.467-3.202c8.531 3.275 18.198-.346 22.478-8.427 2.421-4.573 2.768-9.975.951-14.82s-5.629-8.688-10.46-10.542l-25.293-9.708c-8.534-3.276-18.199.346-22.478 8.427-2.421 4.573-2.768 9.975-.951 14.82s5.629 8.688 10.46 10.542z" fill="#112c41"/><path d="m191.279 725.274-25.293-9.708c-10.695-4.105-15.395-16.638-10.034-26.763 4.519-8.537 14.702-12.354 23.719-8.893l25.293 9.708c10.695 4.105 15.395 16.638 10.034 26.763-4.519 8.537-14.702 12.354-23.719 8.893z" fill="#cbc8ff"/><path d="M198.104 727.542c-2.397 0-4.829-.431-7.184-1.334l-25.293-9.708c-5.364-2.059-9.599-6.326-11.616-11.707s-1.632-11.379 1.057-16.458c4.752-8.975 15.484-12.996 24.962-9.359l25.293 9.708c5.364 2.059 9.599 6.326 11.616 11.707s1.632 11.379-1.057 16.458c-3.571 6.745-10.521 10.693-17.778 10.693zm-6.467-3.202c8.53 3.275 18.198-.346 22.478-8.427 2.421-4.573 2.768-9.975.951-14.82s-5.629-8.688-10.46-10.542l-25.293-9.708c-8.535-3.277-18.199.346-22.478 8.427-2.421 4.573-2.768 9.975-.951 14.82s5.629 8.688 10.46 10.542z" fill="#112c41"/><path d="m175.279 719.274-25.293-9.708c-10.695-4.105-15.395-16.638-10.034-26.763 4.519-8.537 14.702-12.354 23.719-8.893l25.293 9.708c10.695 4.105 15.395 16.638 10.034 26.763-4.519 8.537-14.702 12.354-23.719 8.893z" fill="#dedffe"/><path d="M182.104 721.542c-2.397 0-4.829-.431-7.184-1.334l-25.293-9.708c-5.364-2.059-9.599-6.326-11.616-11.707s-1.632-11.379 1.057-16.458c4.752-8.974 15.484-12.995 24.962-9.359l25.293 9.708c5.364 2.059 9.599 6.326 11.616 11.707s1.632 11.379-1.057 16.458c-3.571 6.745-10.521 10.693-17.778 10.693zm-6.467-3.202c8.53 3.274 18.198-.347 22.478-8.427 2.421-4.573 2.768-9.975.951-14.82s-5.629-8.688-10.46-10.542l-25.293-9.708c-8.536-3.275-18.2.347-22.478 8.427-2.421 4.573-2.768 9.975-.951 14.82s5.629 8.688 10.46 10.542z" fill="#112c41"/><path d="m281.279 759.274-25.293-9.708c-10.695-4.105-15.395-16.638-10.034-26.763 4.519-8.537 14.702-12.354 23.719-8.893l25.293 9.708c10.695 4.105 15.395 16.638 10.034 26.763-4.519 8.537-14.702 12.354-23.719 8.893z" fill="#cbc8ff"/><path d="M288.104 761.542c-2.397 0-4.829-.431-7.184-1.334l-25.293-9.708c-5.364-2.059-9.599-6.326-11.616-11.707s-1.632-11.379 1.057-16.458c4.752-8.974 15.484-12.996 24.962-9.359l25.293 9.708c5.364 2.059 9.599 6.326 11.616 11.707s1.632 11.379-1.057 16.458c-3.571 6.745-10.521 10.693-17.778 10.693zm-6.467-3.202c8.533 3.276 18.199-.347 22.478-8.427 2.421-4.573 2.768-9.975.951-14.82s-5.629-8.688-10.46-10.542l-25.293-9.708c-8.536-3.276-18.2.346-22.478 8.427-2.421 4.573-2.768 9.975-.951 14.82s5.629 8.688 10.46 10.542z" fill="#112c41"/><path d="m265.279 753.274-25.293-9.708c-10.695-4.105-15.395-16.638-10.034-26.763 4.519-8.537 14.702-12.354 23.719-8.893l25.293 9.708c10.695 4.105 15.395 16.638 10.034 26.763-4.519 8.537-14.702 12.354-23.719 8.893z" fill="#dedffe"/><path d="M272.104 755.542c-2.397 0-4.829-.431-7.184-1.334l-25.293-9.708c-5.364-2.059-9.599-6.326-11.616-11.707s-1.632-11.379 1.057-16.458c4.752-8.974 15.483-12.995 24.962-9.359l25.293 9.708c5.364 2.059 9.599 6.326 11.616 11.707s1.632 11.379-1.057 16.458c-3.571 6.745-10.521 10.693-17.778 10.693zm-6.467-3.202c8.533 3.275 18.199-.346 22.478-8.427 2.421-4.573 2.768-9.975.951-14.82s-5.629-8.688-10.46-10.542l-25.293-9.708c-8.533-3.277-18.2.346-22.478 8.427-2.421 4.573-2.768 9.975-.951 14.82s5.629 8.688 10.46 10.542z" fill="#112c41"/><path d="m371.279 793.274-25.293-9.708c-10.695-4.105-15.395-16.638-10.034-26.763 4.519-8.537 14.702-12.354 23.719-8.893l25.293 9.708c10.695 4.105 15.395 16.638 10.034 26.763-4.519 8.537-14.702 12.354-23.719 8.893z" fill="#cbc8ff"/><path d="M378.104 795.542c-2.397 0-4.829-.431-7.184-1.334l-25.293-9.708c-5.364-2.059-9.599-6.326-11.616-11.707s-1.632-11.379 1.057-16.458c4.751-8.975 15.483-12.994 24.962-9.359l25.293 9.708c5.364 2.059 9.599 6.326 11.616 11.707s1.632 11.379-1.057 16.458c-3.571 6.745-10.521 10.693-17.778 10.693zm-6.467-3.202c8.532 3.274 18.199-.346 22.478-8.427 2.421-4.573 2.768-9.975.951-14.82s-5.629-8.688-10.46-10.542l-25.293-9.708c-8.533-3.275-18.199.347-22.478 8.427-2.421 4.573-2.768 9.975-.951 14.82s5.629 8.688 10.46 10.542z" fill="#112c41"/><path d="m355.279 787.274-25.293-9.708c-10.695-4.105-15.395-16.638-10.034-26.763 4.519-8.537 14.702-12.354 23.719-8.893l25.293 9.708c10.695 4.105 15.395 16.638 10.034 26.763-4.519 8.537-14.702 12.354-23.719 8.893z" fill="#dedffe"/><path d="M362.104 789.542c-2.397 0-4.829-.431-7.184-1.334l-25.293-9.708c-5.364-2.059-9.599-6.326-11.616-11.707s-1.632-11.379 1.057-16.458c4.751-8.974 15.483-12.995 24.962-9.359l25.293 9.708c5.364 2.059 9.599 6.326 11.616 11.707s1.632 11.379-1.057 16.458c-3.571 6.745-10.521 10.693-17.778 10.693zm-6.467-3.202c8.531 3.276 18.199-.347 22.478-8.427 2.421-4.573 2.768-9.975.951-14.82s-5.629-8.688-10.46-10.542l-25.293-9.708c-8.534-3.276-18.199.347-22.478 8.427-2.421 4.573-2.768 9.975-.951 14.82s5.629 8.688 10.46 10.542z" fill="#112c41"/><path d="m163.279 781.274-25.293-9.708c-10.695-4.105-15.395-16.638-10.034-26.763 4.519-8.537 14.702-12.354 23.719-8.893l25.293 9.708c10.695 4.105 15.395 16.638 10.034 26.763-4.519 8.537-14.702 12.354-23.719 8.893z" fill="#cbc8ff"/><path d="M170.104 783.542c-2.397 0-4.829-.431-7.184-1.334l-25.293-9.708c-5.364-2.059-9.599-6.326-11.616-11.707s-1.632-11.379 1.057-16.458c4.752-8.975 15.486-12.995 24.962-9.359l25.293 9.708c5.364 2.059 9.599 6.326 11.616 11.707s1.632 11.379-1.057 16.458c-3.571 6.745-10.521 10.693-17.778 10.693zm-6.467-3.202c8.533 3.275 18.199-.346 22.478-8.427 2.421-4.573 2.768-9.975.951-14.82s-5.629-8.688-10.46-10.542l-25.293-9.708c-8.533-3.277-18.2.346-22.478 8.427-2.421 4.573-2.768 9.975-.951 14.82s5.629 8.688 10.46 10.542z" fill="#112c41"/><path d="m147.279 775.274-25.293-9.708c-10.695-4.105-15.395-16.638-10.034-26.763 4.519-8.537 14.702-12.354 23.719-8.893l25.293 9.708c10.695 4.105 15.395 16.638 10.034 26.763-4.519 8.537-14.702 12.354-23.719 8.893z" fill="#dedffe"/><path d="M154.104 777.542c-2.397 0-4.829-.431-7.184-1.334l-25.293-9.708c-5.364-2.059-9.599-6.326-11.616-11.707s-1.632-11.379 1.057-16.458c4.752-8.974 15.485-12.996 24.962-9.359l25.293 9.708c5.364 2.059 9.599 6.326 11.616 11.707s1.632 11.379-1.057 16.458c-3.571 6.745-10.521 10.693-17.778 10.693zm-6.467-3.202c8.532 3.274 18.199-.347 22.478-8.427 2.421-4.573 2.768-9.975.951-14.82s-5.629-8.688-10.46-10.542l-25.293-9.708c-8.534-3.275-18.199.347-22.478 8.427-2.421 4.573-2.768 9.975-.951 14.82s5.629 8.688 10.46 10.542z" fill="#112c41"/><path d="m251.279 815.274-25.293-9.708c-10.695-4.105-15.395-16.638-10.034-26.763 4.519-8.537 14.702-12.354 23.719-8.893l25.293 9.708c10.695 4.105 15.395 16.638 10.034 26.763-4.519 8.537-14.702 12.354-23.719 8.893z" fill="#cbc8ff"/><path d="M258.104 817.542c-2.397 0-4.829-.431-7.184-1.334l-25.293-9.708c-5.364-2.059-9.599-6.326-11.616-11.707s-1.632-11.379 1.057-16.458c4.752-8.975 15.484-12.995 24.962-9.359l25.293 9.708c5.364 2.059 9.599 6.326 11.616 11.707s1.632 11.379-1.057 16.458c-3.571 6.745-10.521 10.693-17.778 10.693zm-6.467-3.202c8.53 3.276 18.198-.347 22.478-8.427 2.421-4.573 2.768-9.975.951-14.82s-5.629-8.688-10.46-10.542l-25.293-9.708c-8.536-3.276-18.199.346-22.478 8.427-2.421 4.573-2.768 9.975-.951 14.82s5.629 8.688 10.46 10.542z" fill="#112c41"/><path d="m235.279 809.274-25.293-9.708c-10.695-4.105-15.395-16.638-10.034-26.763 4.519-8.537 14.702-12.354 23.719-8.893l25.293 9.708c10.695 4.105 15.395 16.638 10.034 26.763-4.519 8.537-14.702 12.354-23.719 8.893z" fill="#dedffe"/><path d="M242.104 811.542c-2.397 0-4.829-.431-7.184-1.334l-25.293-9.708c-5.364-2.059-9.599-6.326-11.616-11.707s-1.632-11.379 1.057-16.458c4.751-8.975 15.484-12.996 24.962-9.359l25.293 9.708c5.364 2.059 9.599 6.326 11.616 11.707s1.632 11.379-1.057 16.458c-3.571 6.745-10.521 10.693-17.778 10.693zm-6.467-3.202c8.533 3.275 18.199-.346 22.478-8.427 2.421-4.573 2.768-9.975.951-14.82s-5.629-8.688-10.46-10.542l-25.293-9.708c-8.532-3.277-18.2.346-22.478 8.427-2.421 4.573-2.768 9.975-.951 14.82s5.629 8.688 10.46 10.542z" fill="#112c41"/><path d="m340.279 849.274-25.293-9.708c-10.695-4.105-15.395-16.638-10.034-26.763 4.519-8.537 14.702-12.354 23.719-8.893l25.293 9.708c10.695 4.105 15.395 16.638 10.034 26.763-4.519 8.537-14.702 12.354-23.719 8.893z" fill="#cbc8ff"/><path d="M347.104 851.542c-2.397 0-4.829-.431-7.184-1.334l-25.293-9.708c-5.364-2.059-9.599-6.326-11.616-11.707s-1.632-11.379 1.057-16.458c4.752-8.975 15.485-12.995 24.962-9.359l25.293 9.708c5.364 2.059 9.599 6.326 11.616 11.707s1.632 11.379-1.057 16.458c-3.571 6.745-10.521 10.693-17.778 10.693zm-6.467-3.202c8.53 3.274 18.198-.346 22.478-8.427 2.421-4.573 2.768-9.975.951-14.82s-5.629-8.688-10.46-10.542l-25.293-9.708c-8.536-3.277-18.2.347-22.478 8.427-2.421 4.573-2.768 9.975-.951 14.82s5.629 8.688 10.46 10.542z" fill="#112c41"/><path d="m324.279 843.274-25.293-9.708c-10.695-4.105-15.395-16.638-10.034-26.763 4.519-8.537 14.702-12.354 23.719-8.893l25.293 9.708c10.695 4.105 15.395 16.638 10.034 26.763-4.519 8.537-14.702 12.354-23.719 8.893z" fill="#dedffe"/><path d="M331.104 845.542c-2.397 0-4.829-.431-7.184-1.334l-25.293-9.708c-5.364-2.059-9.599-6.326-11.616-11.707s-1.632-11.379 1.057-16.458c4.752-8.974 15.484-12.996 24.962-9.359l25.293 9.708c5.364 2.059 9.599 6.326 11.616 11.707s1.632 11.379-1.057 16.458c-3.571 6.745-10.521 10.693-17.778 10.693zm-6.467-3.202c8.533 3.276 18.199-.347 22.478-8.427 2.421-4.573 2.768-9.975.951-14.82s-5.629-8.688-10.46-10.542l-25.293-9.708c-8.532-3.276-18.2.347-22.478 8.427-2.421 4.573-2.768 9.975-.951 14.82s5.629 8.688 10.46 10.542z" fill="#112c41"/><path d="m135.279 837.274-25.293-9.708c-10.695-4.105-15.395-16.638-10.034-26.763 4.519-8.537 14.702-12.354 23.719-8.893l25.293 9.708c10.695 4.105 15.395 16.638 10.034 26.763-4.519 8.537-14.702 12.354-23.719 8.893z" fill="#cbc8ff"/><path d="M142.104 839.542c-2.397 0-4.829-.431-7.184-1.334l-25.293-9.708c-5.364-2.059-9.599-6.326-11.616-11.707s-1.632-11.379 1.057-16.458c4.753-8.974 15.483-12.995 24.962-9.359l25.293 9.708c5.364 2.059 9.599 6.326 11.616 11.707s1.632 11.379-1.057 16.458c-3.571 6.745-10.521 10.693-17.778 10.693zm-6.467-3.202c8.53 3.275 18.198-.346 22.478-8.427 2.421-4.573 2.768-9.975.951-14.82s-5.629-8.688-10.46-10.542l-25.293-9.708c-8.535-3.277-18.2.346-22.478 8.427-2.421 4.573-2.768 9.975-.951 14.82s5.629 8.688 10.46 10.542z" fill="#112c41"/><path d="m119.279 831.274-25.293-9.708c-10.695-4.105-15.395-16.638-10.034-26.763 4.519-8.537 14.702-12.354 23.719-8.893l25.293 9.708c10.695 4.105 15.395 16.638 10.034 26.763-4.519 8.537-14.702 12.354-23.719 8.893z" fill="#dedffe"/><path d="M126.104 833.542c-2.397 0-4.829-.431-7.184-1.334L93.627 822.5c-5.364-2.059-9.599-6.326-11.616-11.707s-1.632-11.379 1.057-16.458c4.753-8.975 15.483-12.994 24.962-9.359l25.293 9.708c5.364 2.059 9.599 6.326 11.616 11.707s1.632 11.379-1.057 16.458c-3.571 6.745-10.521 10.693-17.778 10.693zm-6.467-3.202c8.53 3.274 18.198-.347 22.478-8.427 2.421-4.573 2.768-9.975.951-14.82s-5.629-8.688-10.46-10.542l-25.293-9.708c-8.536-3.275-18.199.347-22.478 8.427-2.421 4.573-2.768 9.975-.951 14.82s5.629 8.688 10.46 10.542z" fill="#112c41"/><path d="m222.279 871.274-25.293-9.708c-10.695-4.105-15.395-16.638-10.034-26.763 4.519-8.537 14.702-12.354 23.719-8.893l25.293 9.708c10.695 4.105 15.395 16.638 10.034 26.763-4.519 8.537-14.702 12.354-23.719 8.893z" fill="#cbc8ff"/><path d="M229.104 873.542c-2.397 0-4.829-.431-7.184-1.334l-25.293-9.708c-5.364-2.059-9.599-6.326-11.616-11.707s-1.632-11.379 1.057-16.458c4.753-8.974 15.483-12.995 24.962-9.359l25.293 9.708c5.364 2.059 9.599 6.326 11.616 11.707s1.632 11.379-1.057 16.458c-3.571 6.745-10.521 10.693-17.778 10.693zm-6.467-3.202c8.533 3.276 18.199-.347 22.478-8.427 2.421-4.573 2.768-9.975.951-14.82s-5.629-8.688-10.46-10.542l-25.293-9.708c-8.533-3.276-18.2.346-22.478 8.427-2.421 4.573-2.768 9.975-.951 14.82s5.629 8.688 10.46 10.542z" fill="#112c41"/><path d="m206.279 865.274-25.293-9.708c-10.695-4.105-15.395-16.638-10.034-26.763 4.519-8.537 14.702-12.354 23.719-8.893l25.293 9.708c10.695 4.105 15.395 16.638 10.034 26.763-4.519 8.537-14.702 12.354-23.719 8.893z" fill="#dedffe"/><path d="M213.104 867.542c-2.397 0-4.829-.431-7.184-1.334l-25.293-9.708c-5.364-2.059-9.599-6.326-11.616-11.707s-1.632-11.379 1.057-16.458c4.751-8.975 15.482-12.994 24.962-9.359l25.293 9.708c5.364 2.059 9.599 6.326 11.616 11.707s1.632 11.379-1.057 16.458c-3.571 6.745-10.521 10.693-17.778 10.693zm-6.467-3.202c8.532 3.275 18.199-.346 22.478-8.427 2.421-4.573 2.768-9.975.951-14.82s-5.629-8.688-10.46-10.542l-25.293-9.708c-8.533-3.277-18.2.346-22.478 8.427-2.421 4.573-2.768 9.975-.951 14.82s5.629 8.688 10.46 10.542z" fill="#112c41"/><path d="m309.279 903.274-25.293-9.708c-10.695-4.105-15.395-16.638-10.034-26.763 4.519-8.537 14.702-12.354 23.719-8.893l25.293 9.708c10.695 4.105 15.395 16.638 10.034 26.763-4.519 8.537-14.702 12.354-23.719 8.893z" fill="#cbc8ff"/><path d="M316.104 905.542c-2.397 0-4.829-.431-7.184-1.334l-25.293-9.708c-5.364-2.059-9.599-6.326-11.616-11.707s-1.632-11.379 1.057-16.458c4.751-8.975 15.482-12.994 24.962-9.359l25.293 9.708c5.364 2.059 9.599 6.326 11.616 11.707s1.632 11.379-1.057 16.458c-3.571 6.745-10.521 10.693-17.778 10.693zm-6.467-3.202c8.531 3.275 18.199-.346 22.478-8.427 2.421-4.573 2.768-9.975.951-14.82s-5.629-8.688-10.46-10.542l-25.293-9.708c-8.534-3.277-18.199.346-22.478 8.427-2.421 4.573-2.768 9.975-.951 14.82s5.629 8.688 10.46 10.542z" fill="#112c41"/><path d="m293.279 897.274-25.293-9.708c-10.695-4.105-15.395-16.638-10.034-26.763 4.519-8.537 14.702-12.354 23.719-8.893l25.293 9.708c10.695 4.105 15.395 16.638 10.034 26.763-4.519 8.537-14.702 12.354-23.719 8.893z" fill="#dedffe"/><path d="M300.104 899.542c-2.397 0-4.829-.431-7.184-1.334l-25.293-9.708c-5.364-2.059-9.599-6.326-11.616-11.707s-1.632-11.379 1.057-16.458c4.752-8.974 15.482-12.996 24.962-9.359l25.293 9.708c5.364 2.059 9.599 6.326 11.616 11.707s1.632 11.379-1.057 16.458c-3.571 6.745-10.521 10.693-17.778 10.693zm-6.467-3.202c8.531 3.274 18.198-.347 22.478-8.427 2.421-4.573 2.768-9.975.951-14.82s-5.629-8.688-10.46-10.542l-25.293-9.708c-8.535-3.276-18.199.347-22.478 8.427-2.421 4.573-2.768 9.975-.951 14.82s5.629 8.688 10.46 10.542z" fill="#112c41"/><path d="m108.279 893.274-25.293-9.708c-10.695-4.105-15.395-16.638-10.034-26.763 4.519-8.537 14.702-12.354 23.719-8.893l25.293 9.708c10.695 4.105 15.395 16.638 10.034 26.763-4.519 8.537-14.702 12.354-23.719 8.893z" fill="#ff90d8"/><path d="M115.104 895.542c-2.397 0-4.829-.431-7.184-1.334L82.627 884.5c-5.364-2.059-9.599-6.326-11.616-11.707s-1.632-11.379 1.057-16.458c4.753-8.974 15.483-12.996 24.962-9.359l25.293 9.708c5.364 2.059 9.599 6.326 11.616 11.707s1.632 11.379-1.057 16.458c-3.571 6.745-10.521 10.693-17.778 10.693zm-6.467-3.202c8.531 3.275 18.198-.346 22.478-8.427 2.421-4.573 2.768-9.975.951-14.82s-5.629-8.688-10.46-10.542l-25.293-9.708c-8.534-3.277-18.199.346-22.478 8.427-2.421 4.573-2.768 9.975-.951 14.82s5.629 8.688 10.46 10.542z" fill="#112c41"/><path d="m92.279 887.274-25.293-9.708c-10.695-4.105-15.395-16.638-10.034-26.763 4.519-8.537 14.702-12.354 23.719-8.893l25.293 9.708c10.695 4.105 15.395 16.638 10.034 26.763-4.519 8.537-14.702 12.354-23.719 8.893z" fill="#ffa9dc"/><path d="M99.104 889.542c-2.397 0-4.829-.431-7.184-1.334L66.627 878.5c-5.364-2.059-9.599-6.326-11.616-11.707s-1.632-11.379 1.057-16.458c4.751-8.974 15.482-12.995 24.962-9.359l25.293 9.708c5.364 2.059 9.599 6.326 11.616 11.707s1.632 11.379-1.057 16.458c-3.571 6.745-10.521 10.693-17.778 10.693zm-6.467-3.202c8.531 3.274 18.198-.347 22.478-8.427 2.421-4.573 2.768-9.975.951-14.82s-5.629-8.688-10.46-10.542l-25.293-9.708c-8.535-3.275-18.199.347-22.478 8.427-2.421 4.573-2.768 9.975-.951 14.82s5.629 8.688 10.46 10.542z" fill="#112c41"/><path d="m191.279 924.274-25.293-9.708c-10.695-4.105-15.395-16.638-10.034-26.763 4.519-8.537 14.702-12.354 23.719-8.893l25.293 9.708c10.695 4.105 15.395 16.638 10.034 26.763-4.519 8.537-14.702 12.354-23.719 8.893z" fill="#ffd169"/><path d="M198.104 926.542c-2.397 0-4.829-.431-7.184-1.334l-25.293-9.708c-5.364-2.059-9.599-6.326-11.616-11.707s-1.632-11.379 1.057-16.458c4.752-8.974 15.484-12.995 24.962-9.359l25.293 9.708c5.364 2.059 9.599 6.326 11.616 11.707s1.632 11.379-1.057 16.458c-3.571 6.745-10.521 10.693-17.778 10.693zm-6.467-3.202c8.53 3.275 18.198-.347 22.478-8.427 2.421-4.573 2.768-9.975.951-14.82s-5.629-8.688-10.46-10.542l-25.293-9.708c-8.535-3.276-18.199.346-22.478 8.427-2.421 4.573-2.768 9.975-.951 14.82s5.629 8.688 10.46 10.542z" fill="#112c41"/><path d="m175.279 918.274-25.293-9.708c-10.695-4.105-15.395-16.638-10.034-26.763 4.519-8.537 14.702-12.354 23.719-8.893l25.293 9.708c10.695 4.105 15.395 16.638 10.034 26.763-4.519 8.537-14.702 12.354-23.719 8.893z" fill="#ffe993"/><path d="M182.104 920.542c-2.397 0-4.829-.431-7.184-1.334l-25.293-9.708c-5.364-2.059-9.599-6.326-11.616-11.707s-1.632-11.379 1.057-16.458c4.752-8.975 15.484-12.995 24.962-9.359l25.293 9.708c5.364 2.059 9.599 6.326 11.616 11.707s1.632 11.379-1.057 16.458c-3.571 6.745-10.521 10.693-17.778 10.693zm-6.467-3.202c8.53 3.275 18.198-.346 22.478-8.427 2.421-4.573 2.768-9.975.951-14.82s-5.629-8.688-10.46-10.542l-25.293-9.708c-8.536-3.277-18.2.347-22.478 8.427-2.421 4.573-2.768 9.975-.951 14.82s5.629 8.688 10.46 10.542z" fill="#112c41"/><path d="m275.279 957.274-25.293-9.708c-10.695-4.105-15.395-16.638-10.034-26.763 4.519-8.537 14.702-12.354 23.719-8.893l25.293 9.708c10.695 4.105 15.395 16.638 10.034 26.763-4.519 8.537-14.702 12.354-23.719 8.893z" fill="#7bdaac"/><path d="M282.104 959.542c-2.397 0-4.829-.431-7.184-1.334l-25.293-9.708c-5.364-2.059-9.599-6.326-11.616-11.707s-1.632-11.379 1.057-16.458c4.752-8.974 15.485-12.994 24.962-9.359l25.293 9.708c5.364 2.059 9.599 6.326 11.616 11.707s1.632 11.379-1.057 16.458c-3.571 6.745-10.521 10.693-17.778 10.693zm-6.467-3.202c8.533 3.275 18.199-.346 22.478-8.427 2.421-4.573 2.768-9.975.951-14.82s-5.629-8.688-10.46-10.542l-25.293-9.708c-8.533-3.276-18.2.346-22.478 8.427-2.421 4.573-2.768 9.975-.951 14.82s5.629 8.688 10.46 10.542z" fill="#112c41"/><path d="m259.279 951.274-25.293-9.708c-10.695-4.105-15.395-16.638-10.034-26.763 4.519-8.537 14.702-12.354 23.719-8.893l25.293 9.708c10.695 4.105 15.395 16.638 10.034 26.763-4.519 8.537-14.702 12.354-23.719 8.893z" fill="#ddfeee"/><path d="M266.104 953.542c-2.397 0-4.829-.431-7.184-1.334l-25.293-9.708c-5.364-2.059-9.599-6.326-11.616-11.707s-1.632-11.379 1.057-16.458c4.752-8.974 15.484-12.995 24.962-9.359l25.293 9.708c5.364 2.059 9.599 6.326 11.616 11.707s1.632 11.379-1.057 16.458c-3.571 6.745-10.521 10.693-17.778 10.693zm-6.467-3.202c8.532 3.275 18.199-.346 22.478-8.427 2.421-4.573 2.768-9.975.951-14.82s-5.629-8.688-10.46-10.542l-25.293-9.708c-8.533-3.277-18.199.347-22.478 8.427-2.421 4.573-2.768 9.975-.951 14.82s5.629 8.688 10.46 10.542z" fill="#112c41"/><path d="M834.02 148.086c-21.76-.25-45 12.58-68.26 33.24l-.02.02c-14.79 13.13-29.58 29.43-44 47.55-75.61 95.02-140.87 239.95-140.87 239.95l-274-105s.3-.61.87-1.78c9.55-19.38 95.92-192.07 182.45-275.99 32.19-31.22 79.67-40.74 121.47-24.51 60.16 23.37 157.63 61.24 200.71 78.03 13.47 5.25 21.63 8.45 21.65 8.49z" fill="#fff"/><path d="M580.87 469.846a.993.993 0 0 1-.357-.066l-274-105a.999.999 0 0 1-.54-1.374l.869-1.777c9.577-19.437 96.059-192.289 182.651-276.27 32.338-31.363 80.432-41.07 122.529-24.724 102.877 39.964 168.53 65.488 200.711 78.03q21.982 8.568 22.185 8.983a.999.999 0 0 1-.054.973.96.96 0 0 1-.856.465c-19.918-.235-42.683 10.87-67.584 32.987-13.902 12.345-28.666 28.301-43.901 47.445-74.668 93.837-140.089 238.29-140.74 239.738a.999.999 0 0 1-.912.589zM308.249 363.304 580.35 467.576c5.556-12.165 68.8-149.06 140.608-239.302 15.306-19.234 30.149-35.274 44.118-47.676 23.328-20.722 44.862-31.917 64.111-33.356-3.385-1.33-8.903-3.488-17.181-6.714-32.18-12.542-97.832-38.065-200.709-78.029-41.367-16.062-88.633-6.525-120.412 24.295-86.352 83.748-172.688 256.313-182.248 275.714l-.389.795z" fill="#112c41"/><path d="M721.74 228.896c-75.61 95.02-140.87 239.95-140.87 239.95l-274-105s.3-.61.87-1.78c124.01 31.4 271.49 7.82 414-133.17z" fill="#dedffe"/><path d="M338.348 568.487a7.004 7.004 0 0 1-6.936-6.052l-7.305-53.467a7 7 0 0 1 5.988-7.883 7.002 7.002 0 0 1 7.883 5.988l6.052 44.294 108.951-47.59a7 7 0 0 1 5.604 12.829l-117.436 51.296a7.002 7.002 0 0 1-2.802.585z" fill="#fff"/><path d="M557.869 431.847c-.462 0-.933-.081-1.392-.251l-210-78a4 4 0 0 1-2.357-5.142 3.998 3.998 0 0 1 5.143-2.357l210 78a4 4 0 0 1-1.394 7.75zm44-84c-.462 0-.933-.081-1.392-.251l-210-78a4 4 0 0 1-2.357-5.142 3.997 3.997 0 0 1 5.143-2.357l210 78a4 4 0 0 1-1.394 7.75zm51-81c-.462 0-.933-.081-1.392-.251l-210-78a4 4 0 1 1 2.786-7.499l210 78a4 4 0 0 1-1.394 7.75zm57-71c-.462 0-.933-.081-1.392-.251l-210-78a4 4 0 0 1-2.357-5.142 3.997 3.997 0 0 1 5.143-2.357l210 78a4 4 0 0 1-1.394 7.75zm54-40c-.462 0-.933-.081-1.392-.251l-210-78a4 4 0 0 1-2.357-5.142 3.997 3.997 0 0 1 5.143-2.357l210 78a4 4 0 0 1-1.394 7.75z" fill="#9797f7"/><path d="M547.12 517.416c-13.25-9.57-63.25-29.57-109.25-43.57-37.509-11.416-114.911-40.119-142.209-50.326a12.114 12.114 0 0 0-14.865 5.522c-12.659 23.062-45.811 84.22-62.476 122.145l-12.67-4.75 67.39-131.23c3.32-6.48 10.97-9.43 17.79-6.88l247.3 92.63c6.86 2.57 10.46 9.71 8.99 16.46z" fill="#b2b0f7"/><path d="M218.32 551.186c-5.9 13.41-10.77 24.82-13.86 32.11-.18-.07-.35-.14-.53-.22l-.33-.15c-.16-.07-.31-.15-.46-.22-.79-.41-1.53-.88-2.21-1.4-.1-.08-.2-.16-.29-.24a14.048 14.048 0 0 1-3.43-4.07c-.09-.15-.17-.29-.24-.44a13.106 13.106 0 0 1-.83-1.94c-.06-.15-.11-.31-.15-.46-.05-.15-.09-.3-.14-.46-.9-3.31-.62-6.97 1.09-10.3l8.71-16.96z" fill="#9797f7"/><path d="M450.466 675.478c-1.803 0-3.634-.319-5.416-.985l-240.74-90.18-.113-.045-.126-.05a15.345 15.345 0 0 1-8.728-8.847 15.363 15.363 0 0 1 .707-12.431l76.101-148.19c3.547-6.925 11.725-10.09 19.03-7.36l247.3 92.63c7.09 2.656 11.224 10.226 9.617 17.608a15.17 15.17 0 0 1-1.646 4.33L463.781 667.69c-2.807 4.942-7.932 7.788-13.314 7.788zM285.799 408.414c-4.879 0-9.531 2.685-11.869 7.249l-76.101 148.191a13.357 13.357 0 0 0-.615 10.81 13.36 13.36 0 0 0 7.61 7.702l.231.093 240.694 90.162a13.3 13.3 0 0 0 16.291-5.917l82.669-145.729a13.168 13.168 0 0 0 1.432-3.762v-.007c1.398-6.419-2.197-13.001-8.363-15.311l-247.3-92.63a13.347 13.347 0 0 0-4.681-.849z" fill="#112c41"/><path d="M450.466 675.478c-1.803 0-3.634-.319-5.416-.985l-240.74-90.18-.113-.045-.126-.051a11.186 11.186 0 0 1-.548-.228l-.338-.153c-.094-.041-.199-.093-.303-.144l-.163-.079a16.11 16.11 0 0 1-2.396-1.513 7.676 7.676 0 0 1-.348-.288 14.867 14.867 0 0 1-3.638-4.33 5.505 5.505 0 0 1-.273-.504 13.63 13.63 0 0 1-.873-2.048 4.77 4.77 0 0 1-.166-.518 3.65 3.65 0 0 1-.079-.254l-.051-.167a15.308 15.308 0 0 1 1.155-11.053l8.71-16.96a1 1 0 0 1 1.24-.479l12.67 4.75 256.011 95.88a1.002 1.002 0 0 1 .52 1.43l-11.42 20.13c-2.807 4.943-7.932 7.788-13.314 7.788zm-245.551-93.077.141.057L445.75 672.62a13.3 13.3 0 0 0 16.291-5.917l10.841-19.111-254.913-95.469-11.837-4.438-8.303 16.168a13.304 13.304 0 0 0-1.015 9.581l.049.161c.024.082.047.161.074.241.049.176.086.298.132.412.063.186.107.318.16.45.196.515.398.966.624 1.39.078.165.143.275.214.395a13.017 13.017 0 0 0 3.201 3.807c.11.097.193.163.275.229.63.482 1.324.922 2.057 1.302l.166.08c.076.038.152.076.232.111l.342.155c.16.071.316.136.481.2l-.267.97.359-.933zM580.87 469.846a.993.993 0 0 1-.357-.066l-274-105a.999.999 0 0 1-.54-1.374l.869-1.777c9.577-19.437 96.059-192.289 182.651-276.27 32.338-31.363 80.432-41.07 122.529-24.724 102.877 39.964 168.53 65.488 200.711 78.03q21.982 8.568 22.185 8.983a.999.999 0 0 1-.054.973.96.96 0 0 1-.856.465c-19.918-.235-42.683 10.87-67.584 32.987-13.902 12.345-28.666 28.301-43.901 47.445-74.668 93.837-140.089 238.29-140.74 239.738a.999.999 0 0 1-.912.589zM308.249 363.304 580.35 467.576c5.556-12.165 68.8-149.06 140.608-239.302 15.306-19.234 30.149-35.274 44.118-47.676 23.328-20.722 44.862-31.917 64.111-33.356-3.385-1.33-8.903-3.488-17.181-6.714-32.18-12.542-97.832-38.065-200.709-78.029-41.367-16.062-88.633-6.525-120.412 24.295-86.352 83.748-172.688 256.313-182.248 275.714l-.389.795z" fill="#112c41"/><g fill="#9797f7"><path d="m797.901 120.528-7.351-2.895 48.806-76.931 7.35 2.895zm10.691 4.211-7.35-2.895 48.805-76.931 7.35 2.895zm110.253 43.424-7.351-2.895L960.3 88.337l7.35 2.895zm-72.5-28.555-14.032-5.526 48.805-76.931 14.032 5.527zm26.394 10.396-14.032-5.527 48.805-76.931 14.032 5.527zm88.87 35.002-14.032-5.527 48.806-76.93 14.032 5.526zm26.06 10.264-14.032-5.527 48.805-76.93 14.033 5.526zm-82.522-32.502-8.019-3.158 48.806-76.931 8.018 3.158zm-14.367-5.659-8.018-3.158 48.805-76.93 8.019 3.158z"/></g></svg></g><g transform="translate(385.0 955.0) rotate(0.0 439.16666666666674 312.5) scale(1.6637369742338606 1.6625922073638204)"><svg width="527.928" height="375.919" viewBox="0 0 527.928 375.919"><path d="m507.734 283.516-427.63 90.87c-9.7 2.06-19.29-2-24.71-9.59-1.9-2.63-3.29-5.69-4.01-9.07l-49.85-234.61c-2.78-13.09 5.57-25.95 18.65-28.73l427.63-90.86c.91-.19 1.82-.33 2.72-.41 12.11-1.19 23.42 6.89 26.01 19.07l49.85 234.61c2.78 13.08-5.57 25.94-18.66 28.72z" fill="#ff90d8"/><path d="M75.064 375.916a25.17 25.17 0 0 1-20.484-10.539 24.878 24.878 0 0 1-4.175-9.442L.556 121.324c-2.89-13.605 5.822-27.026 19.42-29.916L447.606.548a24.644 24.644 0 0 1 2.839-.428c12.771-1.261 24.402 7.283 27.077 19.858l49.85 234.61c1.4 6.588.15 13.327-3.519 18.975-3.669 5.649-9.32 9.531-15.911 10.931l-427.631 90.87a25.205 25.205 0 0 1-5.247.552zM452.919 1.999c-.756 0-1.52.037-2.287.112-.845.075-1.721.208-2.613.394L20.392 93.364c-12.52 2.661-20.54 15.017-17.879 27.544l49.85 234.61a22.887 22.887 0 0 0 3.842 8.692 23.185 23.185 0 0 0 23.691 9.197l427.631-90.87a23.07 23.07 0 0 0 14.65-10.064 23.055 23.055 0 0 0 3.238-17.47l-49.85-234.609C473.264 9.572 463.75 1.998 452.919 1.998z" fill="#112c41"/><path d="m485.734 273.516-427.63 90.87c-.91.19-1.81.33-2.71.41-1.9-2.63-3.29-5.69-4.01-9.07l-49.85-234.61c-2.78-13.09 5.57-25.95 18.65-28.73l427.63-90.86c.91-.19 1.82-.33 2.72-.41 1.9 2.63 3.29 5.69 4.01 9.07l49.85 234.61c2.78 13.08-5.57 25.94-18.66 28.72z" fill="#ffa9dc"/><rect fill="#ffe993" height="60" rx="17.413" transform="matrix(.97829975 -.20719462 .20719462 .97829975 -27.375 21.996)" width="101" x="40.823" y="111.691"/><path d="M61.523 179.279a18.288 18.288 0 0 1-10.002-2.984 18.298 18.298 0 0 1-7.974-11.62l-5.216-24.628c-2.103-9.933 4.267-19.725 14.199-21.829l64.737-13.71c9.929-2.103 19.725 4.266 21.829 14.199l5.216 24.627c2.103 9.933-4.267 19.725-14.199 21.829l-64.738 13.71a18.614 18.614 0 0 1-3.853.405zm59.563-73.172a16.39 16.39 0 0 0-3.404.358l-64.737 13.71c-8.854 1.875-14.531 10.604-12.656 19.458l5.216 24.628a16.305 16.305 0 0 0 7.107 10.358 16.298 16.298 0 0 0 12.35 2.298l64.738-13.71c8.854-1.875 14.531-10.604 12.656-19.458l-5.216-24.627c-1.634-7.711-8.468-13.014-16.054-13.014z" fill="#112c41"/><rect fill="#fff" height="58" rx="10.37" transform="matrix(.97829975 -.20719462 .20719462 .97829975 -40.916 90.425)" width="150" x="336.247" y="211.551"/><path d="M351.855 283.542c-2.176 0-4.309-.628-6.176-1.843a11.294 11.294 0 0 1-4.924-7.175l-7.72-36.452c-1.299-6.133 2.634-12.179 8.768-13.479l126.456-26.782c2.97-.63 6.01-.063 8.555 1.592a11.3 11.3 0 0 1 4.924 7.176l7.72 36.452c.63 2.971.064 6.009-1.592 8.555a11.295 11.295 0 0 1-7.176 4.924l-126.456 26.781c-.791.167-1.588.25-2.379.25zm118.778-83.98a9.4 9.4 0 0 0-1.96.207l-126.456 26.782c-5.054 1.07-8.295 6.053-7.225 11.107l7.72 36.452a9.309 9.309 0 0 0 4.058 5.913 9.309 9.309 0 0 0 7.05 1.312l126.456-26.781a9.309 9.309 0 0 0 5.913-4.057 9.305 9.305 0 0 0 1.312-7.05l-7.72-36.453a9.309 9.309 0 0 0-4.058-5.913 9.303 9.303 0 0 0-5.09-1.519z" fill="#112c41"/><g fill="#fff"><path d="M60.597 239.061a5.002 5.002 0 0 1-1.032-9.893l73.55-15.577a5 5 0 0 1 2.073 9.783l-73.55 15.577c-.35.074-.698.109-1.041.109zm111.466-23.607a5.002 5.002 0 0 1-1.032-9.893l73.55-15.577a5 5 0 0 1 2.073 9.783l-73.55 15.577c-.35.074-.698.109-1.041.109zm111.467-23.607a5.002 5.002 0 0 1-1.032-9.893l73.551-15.577a5 5 0 0 1 2.073 9.783l-73.551 15.577c-.35.074-.698.109-1.041.109zm111.468-23.607a5.002 5.002 0 0 1-1.032-9.893l73.55-15.577a5 5 0 1 1 2.073 9.783l-73.55 15.577c-.35.074-.698.109-1.041.109zM78.735 326.194a5.002 5.002 0 0 1-1.032-9.893l143.811-30.457a5 5 0 0 1 2.073 9.783L79.776 326.084c-.35.074-.698.109-1.041.109zm327.453-210.522a5 5 0 0 1-4.041-7.94c6.294-8.658 8.359-21.815 5.525-35.194-2.833-13.379-10.055-24.569-19.318-29.933a5 5 0 1 1 5.012-8.655c11.674 6.76 20.68 20.411 24.09 36.515 3.411 16.105.712 32.234-7.219 43.146a4.995 4.995 0 0 1-4.049 2.061zm-24.573-5.017a5 5 0 0 1-4.041-7.94c4.372-6.014 5.794-15.213 3.804-24.608-1.989-9.395-7.019-17.228-13.452-20.954a5.001 5.001 0 0 1 5.012-8.654c8.844 5.122 15.657 15.415 18.224 27.535 2.567 12.121.512 24.293-5.497 32.561a4.995 4.995 0 0 1-4.049 2.061zm-24.216-8.16a5 5 0 0 1-4.041-7.94c1.845-2.538 2.444-6.694 1.564-10.847-.879-4.152-3.111-7.708-5.826-9.279a5 5 0 1 1 5.012-8.655c5.243 3.036 9.105 8.817 10.598 15.861 1.492 7.044.305 13.896-3.258 18.798a4.995 4.995 0 0 1-4.049 2.061z"/></g><path d="M75.064 375.916a25.17 25.17 0 0 1-20.484-10.539 24.878 24.878 0 0 1-4.175-9.442L.556 121.324c-2.89-13.605 5.822-27.026 19.42-29.916L447.606.548a24.644 24.644 0 0 1 2.839-.428c12.771-1.261 24.402 7.283 27.077 19.858l49.85 234.61c1.4 6.588.15 13.327-3.519 18.975-3.669 5.649-9.32 9.531-15.911 10.931l-427.631 90.87a25.205 25.205 0 0 1-5.247.552zM452.919 1.999c-.756 0-1.52.037-2.287.112-.845.075-1.721.208-2.613.394L20.392 93.364c-12.52 2.661-20.54 15.017-17.879 27.544l49.85 234.61a22.887 22.887 0 0 0 3.842 8.692 23.185 23.185 0 0 0 23.691 9.197l427.631-90.87a23.07 23.07 0 0 0 14.65-10.064 23.055 23.055 0 0 0 3.238-17.47l-49.85-234.609C473.264 9.572 463.75 1.998 452.919 1.998z" fill="#112c41"/></svg></g></svg>