<svg xmlns="http://www.w3.org/2000/svg" viewBox="0 0 1800 1800" width="1800" height="1800"><g transform="translate(117.0 651.0) rotate(0.0 802.0 378.5) scale(1.2123429207185172 1.2118534313701947)"><svg width="1323.058" height="624.663" viewBox="0 0 1323.058 624.663"><path d="M964.485 623.663H139.659c-7.381 0-13.805-5.346-15.497-12.914l-7.528-33.577L3.839 74.245C-7.584 24.393 16.415 1.312 58.717 1.202c175.163-.455 700.653 0 700.653 0 20.18 0 39.061 7.025 54.313 19.113 16.502 13.017 28.738 31.95 33.74 54.291l6.523 29.057c.171.827.343 1.653.539 2.48l105.659 471.03 7.528 33.577 1.495 6.69c.712 3.175-1.568 6.223-4.682 6.223z" fill="#dedffe"/><path d="M964.485 624.663H139.659c-7.896 0-14.671-5.632-16.473-13.696L2.863 74.463c-5.5-24.001-3.113-42.687 7.094-55.531C19.649 6.737 36.509.26 58.714.202c173.16-.45 695.4-.004 700.656 0 19.982 0 38.979 6.684 54.934 19.33 17.083 13.476 29.192 32.958 34.095 54.856l6.523 29.056c.173.833.343 1.65.536 2.468L961.12 576.954l9.023 40.266c.42 1.876-.018 3.797-1.199 5.272-1.105 1.38-2.73 2.171-4.459 2.171zM317.713 2.001c-103.806 0-200.982.05-258.993.201-21.577.056-37.898 6.272-47.196 17.974C1.713 32.521-.544 50.638 4.814 74.021L117.61 576.954l7.528 33.576c1.597 7.144 7.568 12.133 14.521 12.133h824.825c1.119 0 2.176-.518 2.899-1.421a4.226 4.226 0 0 0 .809-3.585l-9.023-40.266-105.659-471.03c-.196-.824-.37-1.66-.543-2.496l-6.52-29.041c-4.803-21.452-16.659-40.531-33.384-53.725-15.6-12.362-34.166-18.897-53.694-18.897-3.495-.003-235.613-.201-441.656-.201z" fill="#112c41"/><path d="m940.998 611.409-784.841.804c-6.925 0-12.953-5.063-14.54-12.229-9.737-43.829 7.451 33.726-114.787-518.088-10.718-47.205 8.96-59.002 48.651-59.106 174.772-.458 174.752-.422 671.591 0 48.259.041 74.195 32.286 81.137 63.494 122.376 550.17 121.021 525.125 112.789 525.125z" fill="#fff"/><path d="M156.158 613.213c-7.439 0-13.82-5.351-15.519-13.012l-2.446-11.009c-3.903-17.561-3.903-17.561-49.766-224.6L25.853 82.113c-4.896-21.565-3.591-36.679 3.99-46.201 7.728-9.704 21.802-14.06 45.635-14.123 164.953-.433 172.967-.426 592.427-.067l79.168.067c22.271.019 41.887 7.043 56.728 20.314 12.562 11.232 21.577 26.845 25.385 43.963 42.114 189.336 69.213 308.949 87.146 388.099 28.289 124.869 30.601 135.069 28.108 137.777-.74.802-1.731.664-2.53.551-.302-.042-.613-.086-.91-.086zm128.89-589.754c-80.59 0-123.919.106-209.564.331-23.169.061-36.763 4.184-44.076 13.369-7.179 9.016-8.357 23.577-3.603 44.517L90.38 364.161c45.862 207.038 45.862 207.038 49.767 224.599l2.446 11.009c1.493 6.739 7.071 11.445 13.564 11.445l784.84-.805h.001c.437 0 .836.057 1.188.105.275.039.694.098.81.055 1.748-1.931-4.081-27.663-28.617-135.961-17.932-79.151-45.031-198.766-87.147-388.106-3.717-16.713-12.512-31.951-24.765-42.907-14.47-12.938-33.625-19.787-55.396-19.805l-79.168-.067c-201.665-.173-308.234-.264-382.855-.264z" fill="#112c41"/><path d="M1307.852 577.172c7.845 0 14.206 6.36 14.206 14.206v18.08c0 7.845-6.36 14.206-14.206 14.206H147.046a16.763 16.763 0 0 1-16.316-12.914l-7.929-33.577h1185.051z" fill="#b2b0f7"/><path d="M1307.853 624.663H147.046a17.699 17.699 0 0 1-17.29-13.685l-7.929-33.576a1 1 0 0 1 .973-1.23h1185.052c8.384 0 15.205 6.821 15.205 15.205v18.08c.001 8.384-6.821 15.206-15.204 15.206zM124.065 578.172l7.639 32.347a15.707 15.707 0 0 0 15.343 12.144h1160.807c7.281 0 13.205-5.924 13.205-13.205v-18.08c0-7.281-5.924-13.205-13.205-13.205H124.065z" fill="#112c41"/><path d="M459.497 610.656c1.585 6.594-3.51 12.914-10.41 12.914H141.552c-7.918 0-15.424-4.572-17.239-12.14l-7.55-34.459 334.657.108z" fill="#cbc8ff"/><path d="M449.086 624.57H141.552c-8.899 0-16.389-5.308-18.212-12.906l-7.554-34.479a1 1 0 0 1 .976-1.214l334.657.107a1 1 0 0 1 .973.767l8.076 33.577a11.302 11.302 0 0 1-2.138 9.69c-2.23 2.834-5.6 4.458-9.244 4.458zm-331.08-46.599 7.283 33.245c1.603 6.677 8.291 11.354 16.263 11.354h307.534c3.026 0 5.824-1.347 7.675-3.695a9.314 9.314 0 0 0 1.763-7.985l-7.892-32.811z" fill="#112c41"/></svg></g><g transform="translate(275.0 527.0) rotate(0.0 708.5 431.5) scale(1.212220759344665 1.2120854611542762)"><svg width="1168.929" height="711.996" viewBox="0 0 1168.929 711.996"><g fill="#cbc8ff"><path d="M314.172 621.466h2v6h-2zm2 73.312h-2v-11.219h2zm0-22.438h-2v-11.218h2zm0-22.436h-2v-11.219h2zm-2 56.092h2v6h-2zM133.08 571.377h2v6h-2zm2 122.926h-2v-11.692h2zm0-23.384h-2v-11.692h2zm0-23.386h-2V635.84h2zm0-23.385h-2v-11.692h2zm0-23.386h-2V589.07h2zm-2 105.234h2v6h-2zM1140.448 18.469h2v6h-2zm2 655.786h-2v-12.033h2zm0-24.067h-2v-12.033h2zm0-24.065h-2V614.09h2zm0-24.067h-2v-12.033h2zm0-24.066h-2v-12.033h2zm0-24.067h-2V541.89h2zm0-24.065h-2v-12.033h2zm0-24.066h-2v-12.033h2zm0-24.067h-2v-12.033h2zm0-24.065h-2v-12.033h2zm0-24.067h-2V421.56h2zm0-24.066h-2v-12.033h2zm0-24.066h-2v-12.033h2zm0-24.066h-2v-12.033h2zm0-24.066h-2v-12.033h2zm0-24.067h-2v-12.033h2zm0-24.065h-2v-12.033h2zm0-24.066h-2v-12.033h2zm0-24.067h-2v-12.033h2zm0-24.065h-2v-12.033h2zm0-24.067h-2v-12.033h2zm0-24.066h-2v-12.033h2zm0-24.066h-2v-12.033h2zm0-24.066h-2v-12.033h2zm0-24.066h-2V84.634h2zm0-24.066h-2V60.569h2zm0-24.066h-2V36.503h2zm-2 637.751h2v6h-2zM698.19 528.076h2v6h-2zm2 166.458h-2v-11.461h2zm0-22.923h-2V660.15h2zm0-22.922h-2v-11.462h2zm0-22.923h-2v-11.462h2zm0-22.923h-2v-11.461h2zm0-22.922h-2V568.46h2zm0-22.923h-2v-11.461h2zm-2 148.998h2v6h-2z"/></g><path d="m316.487 631.078-25.039.148-157.807-51.139L4.966 674.31 1 656.392l127.832-94.09a8.57 8.57 0 0 1 10.611.299l177.043 56.576 379.744-113.88 437.195-474.335a8.57 8.57 0 0 1 16.594 4.286l-438.75 480.445c-.412 1.595-3.151 4.913-4.361 6.03L340.76 631.382z" fill="#ffa8db"/><path d="M4.965 675.31a1 1 0 0 1-.977-.784L.022 656.608a1 1 0 0 1 .384-1.021l127.833-94.09a9.538 9.538 0 0 1 11.688.21l176.568 56.423L695.68 504.419l436.845-473.954a9.504 9.504 0 0 1 4.337-5.603 9.508 9.508 0 0 1 7.253-1.021c2.475.639 4.553 2.203 5.851 4.405s1.66 4.777 1.021 7.252a.996.996 0 0 1-.229.425L712.159 516.202c-.674 1.968-3.458 5.229-4.573 6.258a.997.997 0 0 1-.391.223L341.047 632.339c-.097.029-.177.055-.3.042l-24.268-.304-25.026.147h-.005a1.02 1.02 0 0 1-.31-.049l-157.319-50.98L5.556 675.117a.997.997 0 0 1-.591.193zm-2.848-18.498 3.494 15.786L133.05 579.28a.999.999 0 0 1 .899-.145l157.653 51.089 24.878-.146h.019l24.12.302 365.773-109.545c1.334-1.297 3.607-4.229 3.908-5.391a.987.987 0 0 1 .229-.424l438.576-480.257a7.516 7.516 0 0 0-.864-5.501 7.527 7.527 0 0 0-4.628-3.485 7.524 7.524 0 0 0-5.737.808 7.516 7.516 0 0 0-3.484 4.628 1.007 1.007 0 0 1-.232.428L696.965 505.975a.99.99 0 0 1-.448.28L316.774 620.134a.98.98 0 0 1-.592-.006l-177.044-56.575a.988.988 0 0 1-.336-.185 7.548 7.548 0 0 0-9.373-.265z" fill="#112c41"/><circle cx="1141.038" cy="27.891" fill="#ff90d8" r="26.891"/><path d="M1141.038 55.782c-15.379 0-27.891-12.512-27.891-27.891 0-15.38 12.512-27.892 27.891-27.892 15.38 0 27.892 12.512 27.892 27.892-.001 15.379-12.513 27.891-27.892 27.891zm0-53.782c-14.276 0-25.891 11.615-25.891 25.892s11.614 25.891 25.891 25.891 25.892-11.614 25.892-25.891S1155.314 2 1141.038 2z" fill="#112c41"/><circle cx="699.199" cy="509.693" fill="#ff90d8" r="26.891"/><path d="M699.2 537.585c-15.38 0-27.892-12.512-27.892-27.892 0-15.379 12.512-27.891 27.892-27.891 15.379 0 27.891 12.512 27.891 27.891-.001 15.38-12.512 27.892-27.891 27.892zm0-53.783c-14.276 0-25.892 11.614-25.892 25.891 0 14.276 11.615 25.892 25.892 25.892s25.891-11.615 25.891-25.892c-.001-14.276-11.615-25.891-25.891-25.891z" fill="#112c41"/><circle cx="316.466" cy="622.715" fill="#ff90d8" r="26.891"/><path d="M316.465 650.606c-15.379 0-27.891-12.512-27.891-27.891 0-15.38 12.512-27.892 27.891-27.892 15.38 0 27.892 12.512 27.892 27.892 0 15.379-12.512 27.891-27.892 27.891zm0-53.782c-14.276 0-25.891 11.615-25.891 25.892s11.614 25.891 25.891 25.891 25.892-11.614 25.892-25.891-11.615-25.892-25.892-25.892z" fill="#112c41"/><circle cx="134.408" cy="574.546" fill="#ff90d8" r="26.891"/><path d="M134.408 602.437c-15.379 0-27.891-12.512-27.891-27.892 0-15.379 12.512-27.891 27.891-27.891s27.891 12.512 27.891 27.891c-.001 15.38-12.512 27.892-27.891 27.892zm0-53.782c-14.276 0-25.891 11.614-25.891 25.891s11.614 25.892 25.891 25.892 25.891-11.615 25.891-25.892-11.615-25.891-25.891-25.891z" fill="#112c41"/></svg></g><g transform="translate(149.0 1138.0) rotate(0.0 452.0 389.0) translate(446.0 0.0) scale(0.999580927907437 0.9994270636627332)"><svg width="458.192" height="213.122" viewBox="446.187 0 458.192 213.122"><path d="M693.613 610.419a838.109 838.109 0 0 0 12.6-37.025l.076-.205c.023-.082.055-.158.074-.219 4-12.733 7.9-25.092 11.219-35.911 0 0 88.324 31.306 137.951 42.247-3.979 11.958-8.093 21.8-12.823 34.277a14885.245 14885.245 0 0 1-15.124 39.736z" fill="#ffd6c0"/><path d="m734.9 534.03-26.324 81.35c-4.531 1.254-13.291 3.778-16.437 4.1 10.328-32.532 27.613-87.078 27.613-87.078z" fill="#f5b9ab"/><path d="M827.583 654.319a.981.981 0 0 1-.3-.048l-133.97-42.9a1 1 0 0 1-.634-1.3c4.508-12.294 8.506-24.045 12.582-36.982l.093-.252a1 1 0 0 1 .044-.135l1.58-5.018c3.481-11.068 6.77-21.523 9.649-30.922a1 1 0 0 1 .507-.6.987.987 0 0 1 .784-.049c.882.312 88.834 31.41 137.832 42.213a1 1 0 0 1 .733 1.292c-2.8 8.421-5.7 15.87-8.765 23.756-1.311 3.371-2.664 6.849-4.071 10.56-8.033 21.2-15.055 39.556-15.125 39.739a1 1 0 0 1-.939.646zM694.91 609.784l132.076 42.295c1.5-3.914 7.754-20.291 14.786-38.85 1.41-3.717 2.764-7.2 4.077-10.576 2.929-7.532 5.7-14.664 8.38-22.612-46.474-10.405-126.222-38.254-136-41.692-2.808 9.146-5.988 19.256-9.348 29.94l-1.567 4.981c0 .013-.034.1-.039.113l-.051.154-.077.2a824.469 824.469 0 0 1-12.237 36.047z" fill="#112c41"/><path d="M861.524 750.058c-51.147-1.111-111.215-24.387-158.629-52.26a385.008 385.008 0 0 1-37.7-25.111s18.441-38.574 28.42-62.268l10.811 3.5s122.8 39.381 123.159 39.4c7.555 8.24 40.889 48.472 33.939 96.739z" fill="#ffa9dc"/><path d="M665.193 672.687s18.441-38.574 28.42-62.268l12.463 6.684c-6 21.657-15.884 55.351-12.1 75.516.044.212-17.649-11.458-28.783-19.932z" fill="#ff90d8"/><path d="M861.524 751.058h-.024c-45.5-.988-104.982-20.576-159.114-52.4a384.707 384.707 0 0 1-37.8-25.178 1 1 0 0 1-.3-1.227c.184-.386 18.545-38.824 28.4-62.225a1 1 0 0 1 1.23-.564l10.811 3.5c1.208.388 120.8 38.738 123.081 39.384a1 1 0 0 1 .507.3c6.962 7.591 41.333 47.973 34.194 97.556a1 1 0 0 1-.985.854zm-195.078-78.675a384.194 384.194 0 0 0 36.954 24.554c53.5 31.449 112.195 50.885 157.254 52.1 6.524-48.733-28.763-89.489-33.645-94.859-2.534-.77-18.473-5.825-122.892-39.311l-9.941-3.214c-9.176 21.689-25.164 55.347-27.73 60.73z" fill="#112c41"/><path d="M775.278 735.156a2.5 2.5 0 0 1-2.5-2.431c-.337-12.367-4.1-28.24-29.455-52.2-21.823-20.625-27.139-38.159-19.623-64.692a2.5 2.5 0 1 1 4.811 1.363c-7 24.72-2.226 40.341 18.25 59.693 21.225 20.059 30.5 36.717 31.019 55.7a2.5 2.5 0 0 1-2.431 2.567z" fill="#fff"/><path d="M856.694 772.7a4.931 4.931 0 0 1-3.229 3.213c-30.807 10.107-146.6-31.614-194.735-72.741-4.123-3.523-4.079-6.7-3.089-9.874l9.552-20.613c49.353 37.541 130.278 75.933 196.331 77.371-.962 7.957-2.399 15.854-4.83 22.644z" fill="#fff"/><path d="M841.519 778.416c-17.912 0-46.529-6.652-79.27-18.72C719.4 743.9 680.46 723.057 658.08 703.935c-4.734-4.045-4.372-7.8-3.394-10.933a.859.859 0 0 1 .048-.122l9.552-20.613a1 1 0 0 1 1.512-.376c47.522 36.149 129.048 75.715 195.748 77.167a1 1 0 0 1 .971 1.12c-1.134 9.375-2.73 16.853-4.881 22.861a5.916 5.916 0 0 1-3.859 3.827 40.353 40.353 0 0 1-12.258 1.55zM656.576 693.66c-.931 3.025-.8 5.676 2.8 8.754 44.611 38.117 141.8 73.99 182.311 73.993a37.739 37.739 0 0 0 11.462-1.442 3.951 3.951 0 0 0 2.6-2.6 102.231 102.231 0 0 0 4.651-21.335c-66.474-1.858-147.175-40.864-194.817-76.8z" fill="#112c41"/><path d="M693.615 610.415c36.779 22.126 94.71 39.618 133.968 42.9 0 0 5.684-15.073 12.873-33.794.251-.648.5-1.306.746-1.964s.5-1.315.753-1.976.5-1.329.755-2c-36.286-3.6-91.229-21.146-136.25-40.882 0 0-.03.1-.1.267a1.471 1.471 0 0 0-.073.216 2.187 2.187 0 0 0-.076.207 829.362 829.362 0 0 1-12.596 37.026z" fill="#fff"/><g fill="#112c41"><path d="M827.583 654.319h-.084c-41.623-3.485-99.4-21.99-134.4-43.044a1 1 0 0 1-.424-1.2 828.31 828.31 0 0 0 12.583-36.979 1.71 1.71 0 0 1 .077-.214 2.1 2.1 0 0 1 .077-.224c.066-.17.091-.243.1-.257a1 1 0 0 1 1.354-.61c48.924 21.447 102.286 37.464 135.947 40.8a1 1 0 0 1 .836 1.349l-.754 2c-.258.663-.5 1.312-.748 1.962-.253.675-.5 1.336-.754 1.987-7.105 18.5-12.814 33.635-12.871 33.786a1 1 0 0 1-.939.644zm-132.744-44.337c34.625 20.615 91.057 38.681 132.075 42.276 1.209-3.2 6.371-16.848 12.609-33.091.251-.648.5-1.3.744-1.958.252-.671.5-1.327.756-1.987l.293-.775c-33.683-3.609-86.058-19.359-134.264-40.394a828.767 828.767 0 0 1-12.213 35.929z"/><path d="M693.615 611.416a1.012 1.012 0 0 1-.344-.062 1 1 0 0 1-.595-1.283 828.31 828.31 0 0 0 12.583-36.979 1.71 1.71 0 0 1 .077-.214 2.1 2.1 0 0 1 .077-.224c.066-.172.091-.245.1-.259a1 1 0 0 1 1.9.613s-.037.116-.119.326a1.544 1.544 0 0 1-.069.205l-.963-.286.911.416a832.634 832.634 0 0 1-12.619 37.09 1 1 0 0 1-.939.657zm133.967 42.904a1 1 0 0 1-.933-1.358s5.744-15.02 12.872-33.792c.253-.651.5-1.306.746-1.961.252-.671.5-1.327.756-1.987l.752-1.991a1 1 0 0 1 1.87.708l-.754 2c-.258.663-.5 1.312-.748 1.962-.253.675-.5 1.336-.754 1.987-7.127 18.769-12.872 33.791-12.872 33.791a1 1 0 0 1-.935.641z"/></g><circle cx="806.125" cy="675.612" fill="#ffe993" r="8.5"/><path d="M806.479 678.541c14.438 5.077 32.644 2.917 38.552.25a2.832 2.832 0 1 0-2.33-5.163c-4.536 2.047-21.956 4.262-35.173-.733a2.832 2.832 0 1 0-2.006 5.3c.316.117.636.234.957.346z" fill="#fff"/><path d="M826.411 682.633a62.179 62.179 0 0 1-20.264-3.148q-.492-.174-.98-.358a3.832 3.832 0 0 1 2.714-7.168c12.959 4.9 29.992 2.751 34.408.757a3.833 3.833 0 0 1 3.154 6.987c-3.411 1.539-10.68 2.93-19.032 2.93zm-19.6-5.035c14.183 4.986 32.153 2.834 37.809.281a1.832 1.832 0 1 0-1.508-3.339c-4.642 2.1-22.468 4.381-35.938-.71a1.832 1.832 0 1 0-1.3 3.427c.309.117.622.231.935.341z" fill="#112c41"/><circle cx="814.958" cy="700.999" fill="#ffe993" r="8.5"/><path d="M815.4 703.917c14.582 4.646 34.378.452 40.2-2.388a2.832 2.832 0 1 0-2.482-5.092c-4.473 2.181-23.483 6.406-36.842 1.8a2.832 2.832 0 0 0-1.848 5.355c.323.114.646.222.972.325z" fill="#fff"/><path d="M830.443 707a51.121 51.121 0 0 1-15.349-2.126 45.812 45.812 0 0 1-.989-.329 3.833 3.833 0 0 1 2.5-7.246c13.3 4.583 31.968.247 36.078-1.757a3.833 3.833 0 1 1 3.359 6.89C852.3 704.25 841.672 707 830.443 707zm-14.743-4.036c14.732 4.693 34.2.231 39.463-2.334a1.832 1.832 0 1 0-1.606-3.294c-4.288 2.092-23.754 6.623-37.605 1.851a1.832 1.832 0 0 0-2.246 2.533 1.817 1.817 0 0 0 1.05.93c.313.109.63.213.946.314z" fill="#112c41"/><path d="M126.548 285.89c-1.212-88.517 65.4-124.063 65.4-124.063a833.774 833.774 0 0 0 34.281 18.825l.188.11c.077.037.147.081.2.111 11.847 6.15 22.331 11.306 32.412 16.447 0 0-41.538 83.92-60.915 130.9l-1.023-.555c-10.834-5.883-22.993-12.937-34.106-19.548-19.712-11.72-36.145-22.05-36.145-22.05z" fill="#ffd6c0"/><path d="m258.906 215.471-75.678-39.792c-.464-4.679-1.46-13.74-1.243-16.9 30.3 15.717 81.107 40.631 81.107 40.631z" fill="#f5b9ab"/><path d="M126.82 284.814v.071c-.092.337-.185.674-.271 1.019-9.425 6.015-54.9 32.3-101.231 17.088 12.863-64.8 64.7-137.849 110.23-179.948 0 0 34.794 24.848 56.4 38.783" fill="#ffa9dc"/><path d="M134.145 123.168s34.871 24.74 56.519 38.609l-8.709 11.143c-20.319-9.6-51.837-25.078-72.353-24.779-.215.003 14.298-15.441 24.543-24.973z" fill="#ff90d8"/><path d="M55.287 308.67A96.676 96.676 0 0 1 25 303.942a1 1 0 0 1-.669-1.145C37.41 236.923 90.8 163.061 134.867 122.31a1 1 0 0 1 1.26-.08c.348.249 35.022 24.994 56.361 38.757a1 1 0 0 1-1.084 1.681c-19.741-12.732-50.851-34.83-55.775-38.336C92.1 164.8 39.7 237.4 26.472 302.314c45.5 14.45 89.859-11.138 99.205-17.042.055-.208.112-.414.168-.62a1.033 1.033 0 0 1 1-.8.97.97 0 0 1 .978.986v.071a1.04 1.04 0 0 1-.035.242c-.091.33-.181.66-.265 1a1 1 0 0 1-.433.6c-6.86 4.371-36.577 21.919-71.803 21.919z" fill="#112c41"/><path d="M65.161 227.4a58.276 58.276 0 0 1-7.61-.506 2.5 2.5 0 1 1 .654-4.957c12.265 1.617 28.532.4 56.193-20.857 23.807-18.3 41.959-20.785 66.975-9.181a2.5 2.5 0 0 1-2.1 4.537c-23.307-10.812-39.486-8.559-61.824 8.609C97.424 220.432 81.322 227.4 65.161 227.4z" fill="#fff"/><path d="M3.851 294.311a4.935 4.935 0 0 1-2.6-3.738c-4.613-32.092 56.547-138.9 105.4-179.179 4.184-3.45 7.306-2.855 10.26-1.33l18.645 12.98c-45.527 42.1-97.365 115.145-110.23 179.948-7.678-2.326-15.207-5.11-21.475-8.681z" fill="#fff"/><path d="M25.316 303.992a1 1 0 0 1-.291-.043c-9.036-2.741-16.124-5.61-21.669-8.77a5.915 5.915 0 0 1-3.1-4.464c-2.2-15.28 10.362-48.68 32.775-87.166 22.982-39.46 50.262-74.2 72.974-92.926 4.8-3.961 8.436-2.955 11.355-1.448a.983.983 0 0 1 .112.068l18.646 12.981a1 1 0 0 1 .107 1.555C92.387 164.315 39.288 237.748 26.3 303.187a1 1 0 0 1-.981.805zm87.289-194.136a8.37 8.37 0 0 0-5.328 2.31C56.852 153.743-2.134 260.03 2.236 290.431a3.953 3.953 0 0 0 2.11 3.011 102.167 102.167 0 0 0 20.208 8.271c13.352-65.146 65.756-137.864 109.4-178.557l-17.572-12.233a8.268 8.268 0 0 0-3.777-1.067z" fill="#112c41"/><path d="M226.874 181.023c-27.249 40.908-54.055 91.986-63.89 127.1a1960.013 1960.013 0 0 1-36.138-22.052c-.016-.4-.024-.831-.022-1.253 10.67-41.078 36.78-90.387 65.111-122.978l.009-.011a830.654 830.654 0 0 0 34.284 18.823 1.959 1.959 0 0 0 .191.114c.074.034.138.078.2.113.042.026.074.043.106.061.097.06.149.083.149.083z" fill="#fff"/><path d="M162.984 309.12a1 1 0 0 1-.512-.141 1973.979 1973.979 0 0 1-36.158-22.065 1 1 0 0 1-.468-.808 30.617 30.617 0 0 1-.022-1.3 1.07 1.07 0 0 1 .032-.246c10.687-41.147 36.939-90.73 65.324-123.383a1.015 1.015 0 0 1 1.266-.22c11.285 6.548 22.166 12.522 34.244 18.8a.985.985 0 0 1 .107.065.9.9 0 0 0 .1.059 1.667 1.667 0 0 1 .166.093c.023.012.18.1.2.118a1.055 1.055 0 0 1 .549.651 1.019 1.019 0 0 1-.112.83c-29.6 44.439-54.629 94.216-63.76 126.812a1 1 0 0 1-.962.731zm-35.155-23.62c2.722 1.7 17.354 10.84 34.549 21.091 9.4-32.571 34-81.424 63.066-125.227-11.721-6.1-22.329-11.92-33.286-18.264-27.986 32.449-53.769 81.261-64.334 121.84 0 .191.002.379.005.56z" fill="#112c41"/><path d="M198.115 329.223a1 1 0 0 1-.476-.12c-9.771-5.289-21.6-12.06-35.166-20.124-19.493-11.6-36-21.961-36.159-22.065a1 1 0 0 1-.468-.808 30.617 30.617 0 0 1-.022-1.3 1.07 1.07 0 0 1 .032-.246c10.687-41.147 36.939-90.73 65.324-123.383a1.015 1.015 0 0 1 1.266-.22c11.285 6.548 22.166 12.522 34.244 18.8a.985.985 0 0 1 .107.065.9.9 0 0 0 .1.059 1.667 1.667 0 0 1 .166.093l-.34.958.46-.888c7.3 3.785 14.051 7.179 20.581 10.461 4 2.011 7.886 3.965 11.713 5.916a1 1 0 0 1 .442 1.334c-.415.839-41.738 84.431-60.883 130.845a1 1 0 0 1-.589.562 1.017 1.017 0 0 1-.332.061zM127.829 285.5a1998.133 1998.133 0 0 0 35.666 21.756c13.092 7.784 24.565 14.359 34.12 19.554 18.267-44.06 55.608-120 60.077-129.055-3.54-1.8-7.134-3.608-10.824-5.463-6.535-3.285-13.292-6.682-20.6-10.473l-.273-.156a3.358 3.358 0 0 1-.272-.155C213.89 175.359 203.2 169.5 192.158 163.1c-27.986 32.449-53.769 81.261-64.334 121.84 0 .191.002.379.005.56z" fill="#112c41"/><circle cx="108.237" cy="261.337" fill="#ffe993" r="8.5"/><path d="M105.291 261.177c-7.5 13.339-8.531 31.644-6.929 37.925a2.832 2.832 0 1 0 5.489-1.4c-1.23-4.822-.392-22.362 6.819-34.514a2.832 2.832 0 0 0-4.87-2.888c-.172.286-.343.581-.509.877z" fill="#fff"/><path d="M101.108 302.234a3.839 3.839 0 0 1-3.715-2.885c-1.648-6.461-.71-24.908 7.026-38.662q.257-.456.523-.9a3.832 3.832 0 0 1 6.588 3.915c-7.069 11.914-7.908 29.062-6.71 33.757a3.832 3.832 0 0 1-3.712 4.779zm5.054-40.567c-7.37 13.1-8.364 31.176-6.831 37.188a1.832 1.832 0 0 0 3.551-.906c-1.259-4.935-.42-22.888 6.928-35.271a1.836 1.836 0 0 0-.638-2.511 1.832 1.832 0 0 0-2.511.638q-.255.427-.5.862z" fill="#112c41"/><circle cx="81.704" cy="265.635" fill="#ffe993" r="8.5"/><path d="M78.753 265.562c-7.1 13.556-6.4 33.78-4.617 40.01a2.832 2.832 0 1 0 5.445-1.561c-1.372-4.784-2.239-24.238 4.609-36.6a2.832 2.832 0 0 0-4.953-2.749q-.246.449-.484.9z" fill="#fff"/><path d="M76.861 308.624a3.84 3.84 0 0 1-3.686-2.776C71.5 300 70.43 279.291 77.868 265.1c.161-.308.327-.616.5-.918a3.832 3.832 0 0 1 6.7 3.718c-6.819 12.308-5.783 31.442-4.522 35.837a3.834 3.834 0 0 1-3.682 4.889zm4.855-44.417a1.834 1.834 0 0 0-1.6.944q-.242.433-.473.875c-7.176 13.695-6.156 33.64-4.542 39.269a1.832 1.832 0 1 0 3.523-1.01c-1.316-4.586-2.4-24.543 4.695-37.357a1.833 1.833 0 0 0-1.6-2.722z" fill="#112c41"/><path d="M404.092 381.415c114-14 168.85-99.73 205.83-195.57.369.18.74.36 1.109.55 173.871 85.67 106.8 298.38 94.76 333.97 0 .01-.01.01-.01.02-1.02 3.02-1.649 4.76-1.689 5.03-.71 4.44-.01 7.96 4.87 10.57.87.47 1.739.97 2.67 1.4.139.07.28.13.429.2a.035.035 0 0 1 .021.01c1.07.49 2.159.99 3.27 1.48 34.679 15.46 91.74 33.34 139.74 41.34 58-138 71-288-1.46-407.05-52.071-85.55-112.72-130.15-169.411-151.79a347.689 347.689 0 0 0-39.16-12.5 257.878 257.878 0 0 0-78.969-7.66c-56 3.03-108 29-135 82-10.16 19.94-25.48 63.22-36 87-26.16 59.11-72.98 34.65-116.551 17.63-1.389-.55-2.78-1.08-4.169-1.61-4.04-1.54-8.581-.46-10.91 3.19-12.627 19.805-51.37 90.79-66.37 138.039-.076.236 101.491 66.708 207 53.751z" fill="#b2b0f7"/><path d="M645.061 9.075c-18.969-2.66-91.969-14.66-142.969 25.34-74.855 58.71-66 146-114 176-37.235 23.272-86.38-2.62-117.041-15.8-3.649-1.56-7.03-.81-11.919 3.32.649-.98 4.47-7.13 5.06-7.96a8.638 8.638 0 0 1 11.069-2.6 5.378 5.378 0 0 0 3.28.67c43.571 17.02 90.391 41.48 116.551-17.63 10.52-23.78 25.84-67.06 36-87 27-53 79-78.97 135-82a257.878 257.878 0 0 1 78.969 7.66zm70.291 530a12.107 12.107 0 0 1-2.24-12.18c91.98-241.48-41.02-343.48-90.02-368.48-5 9-10 20-13 27 173.87 85.67 107.74 299.36 95.7 334.95 0 .01-.01.01-.01.02a410.83 410.83 0 0 1-.97 4.6c-.929 4.39-.04 8.23 4.7 11.09.341.21 1.381.82 2.55 1.51a.035.035 0 0 1 .021.01c1.74 1.02 3.76 2.2 4.29 2.5a9.6 9.6 0 0 1-1.021-1.02z" fill="#9797f7"/><path d="M855.092 581.415a.919.919 0 0 1-.165-.014c-51.667-8.611-108.781-27.5-139.983-41.412a227.323 227.323 0 0 1-3.088-1.4l-.191-.088-.041-.019-.13-.06c-.105-.048-.207-.094-.309-.145-.726-.335-1.433-.723-2.117-1.1l-.582-.317c-5.875-3.142-6.018-7.632-5.382-11.608a21.9 21.9 0 0 1 .763-2.36c.261-.759.587-1.707.967-2.832a.646.646 0 0 1 .026-.069c9.672-28.6 25.408-85.794 22.268-147.786-1.958-38.649-11.083-72.971-27.122-102.012-19.56-35.415-49.644-63.309-89.417-82.906l-.13-.066c-32.25 83.263-84.919 180.282-206.247 195.182-54.633 6.711-108.05-8.182-143.239-21.856-37.947-14.745-64.124-31.611-64.65-32.245a1.007 1.007 0 0 1-.186-.945c15.1-47.574 53.678-118.193 66.48-138.275a9.931 9.931 0 0 1 12.11-3.587c1.393.532 2.787 1.064 4.181 1.615 3.283 1.282 6.588 2.608 9.9 3.938 20.023 8.034 40.725 16.344 59.082 15.752 20.479-.658 35.619-12.694 46.285-36.8 4.371-9.88 9.485-22.912 14.9-36.709 7.459-19.006 15.171-38.658 21.123-50.34a143.592 143.592 0 0 1 57.016-60.15C509.882 9.724 537.137 1.98 566.038.416A258.427 258.427 0 0 1 645.3 8.105a346.759 346.759 0 0 1 39.273 12.536c66.789 25.5 123.954 76.7 169.908 152.2 65.987 108.415 66.53 253.3 1.527 407.957a1 1 0 0 1-.916.617zm-142.578-44.722.174.08c1 .46 2.027.928 3.068 1.388 30.934 13.79 87.433 32.5 138.72 41.137 64.437-153.777 63.842-297.732-1.7-405.413C807.06 98.772 750.23 47.842 683.865 22.509a344.78 344.78 0 0 0-39.047-12.464 256.475 256.475 0 0 0-78.672-7.631c-28.588 1.546-55.535 9.2-77.93 22.128a141.631 141.631 0 0 0-56.233 59.327c-5.909 11.6-13.6 31.2-21.044 50.163-5.423 13.817-10.545 26.868-14.933 36.788-12.731 28.765-30.241 38.07-49.855 38.072-18.254 0-38.33-8.056-58.086-15.983a1151.726 1151.726 0 0 0-9.887-3.932c-1.39-.55-2.777-1.079-4.163-1.607a7.948 7.948 0 0 0-9.711 2.793c-12.7 19.92-50.832 89.708-66.034 137.1 8.027 5.216 105.136 65.513 205.7 53.161l.121.993-.121-.993c52.619-6.462 95.53-28.306 131.185-66.782 28.5-30.759 51.966-71.481 73.834-128.155a1 1 0 0 1 1.37-.539c.376.182.753.366 1.129.559 40.132 19.774 70.508 47.946 90.27 83.726 16.187 29.31 25.395 63.923 27.368 102.878 3.159 62.357-12.671 119.854-22.387 148.577-.008.022-.016.045-.026.068a464.167 464.167 0 0 1-.954 2.794c-.345 1-.643 1.869-.683 2.047-.633 3.96-.136 7.105 4.358 9.508l.6.325c.655.359 1.332.73 2.022 1.05l.433.2z" fill="#112c41"/><path d="M478.453 134.229a77.73 77.73 0 0 1-20.573-2.842 1 1 0 0 1 .529-1.929c40.508 11.108 67.144-13.04 75.569-27.36a1 1 0 0 1 1.724 1.014c-6.041 10.268-16.416 19.337-28.464 24.881a68.5 68.5 0 0 1-28.785 6.236zm131.638 52.187a1 1 0 0 1-.928-1.373 305.133 305.133 0 0 1 16.06-34.124 1 1 0 0 1 1.737.992 302.857 302.857 0 0 0-15.94 33.876 1 1 0 0 1-.929.629z" fill="#112c41"/></svg></g><g transform="translate(339.0 575.0) rotate(0.0 559.5 388.5) scale(1.2111910153222698 1.2121401215260175)"><svg width="923.884" height="641.015" viewBox="0 0 923.884 641.015"><path d="M23.52 359.974C4.374 401.984-5.464 514.492 19.648 529.56c25.112 15.069 265.536-4.575 274.542-4.012 9.007.563 47.286-6.192 63.611-14.636s103.657-167.297 103.657-167.297 90.57-232.289-207.976-149.25C97.21 237.832 42.667 317.963 23.52 359.974zM679.878 81.209c-.052 0-.071.083-.061.236.153-.154.178-.236.061-.236z" fill="#fff"/><path d="M785.702 201.145c13.914-11.987 12.536-20.655 11.345-26.115-2.569-11.773-4.558-17.911-12.629-31.894l-25.901-37.246-19.051-27.185c-6.714-5.318-18.381-21.815-26.329-18.837-1.141-3.162-34.846 20.786-34.891 20.121-3.042 3.091-55.893 37.108-55.893 37.108-26.615 15.009-74.234 54.828-246.797 58.641-22.643.5 69.046 115.897 62.772 149.308-6.274 33.412 161.58-26.26 172.629-26.26s60.918-23.115 60.918-23.115l35.068-19.09c.443.398 4.894-3.812 5.338-3.42 17.083-10.818 25.207-16.183 39.815-26.329-.001 0 23.93-17.351 33.606-25.687z" fill="#fff"/><path d="M467.685 303.111c2.161 6.169 3.714 19.814 5.281 32.385 1.718.107 3.437.205 5.136.29 104.718-11.419 180.273-51.419 235.161-84.612 3.659-2.213 7.868-4.775 10.527-6.729-56.745 30.556-152.176 61.338-256.105 58.666z" fill="#dedffe"/><path d="M330.055 518.465c74.358-12.393 127.752-76.384 140.282-152.647 2.145-13.056 2.434-25.032 1.723-35.54-1.632-24.168-8.546-40.606-10.394-44.775" fill="#fff"/><path d="M330.053 519.465a1 1 0 0 1-.163-1.986c35.524-5.921 67.595-23.921 92.745-52.053 24.304-27.185 40.457-61.685 46.715-99.771 1.927-11.729 2.503-23.608 1.711-35.311-1.522-22.554-7.718-38.589-10.311-44.437a.999.999 0 1 1 1.828-.81c2.636 5.944 8.934 22.24 10.479 45.112.802 11.854.219 23.89-1.734 35.77-6.319 38.462-22.64 73.311-47.196 100.779-25.457 28.476-57.93 46.696-93.908 52.692a.854.854 0 0 1-.166.015z" fill="#112c41"/><path d="M371.415 222.991c-11.145 12.564-48.667 3.091-58-4.076-4.583 9.516-4.015 37.718-28.717 43.465-20.487 4.766-56.089-16.189-58.237-59.399 5.913-2.151 10.148-3.518 15.779-5.278l.009-.011a461.224 461.224 0 0 1 11.234-3.327c12.681-3.57 24.169-6.273 34.189-8.473 12.39-2.717 26.01-4.619 40.425-5.904a522.537 522.537 0 0 1 16.815-1.234c15.611 12.705 36.469 33.01 26.503 44.237z" fill="#dedffe"/><path d="M371.447 222.317c-11.726 11.576-46.278-10.138-57.432-17.202 1.204 9.409-3.957 55.311-29.287 56.587-19.784.997-42.676-29.248-42.459-64.677l.009-.011c16.067-4.93 30.071-8.486 45.735-11.696 25.401-5.205 60.175-7.71 62.149-7.808.001 0 37.615 28.687 21.285 44.807z" fill="#fff"/><path d="M283.794 262.725c-6.781 0-14.129-3.474-20.807-9.863-13.528-12.942-21.851-34.34-21.719-55.843a.996.996 0 0 1 .226-.627 1.05 1.05 0 0 1 .49-.334c15.807-4.85 29.94-8.464 45.828-11.72 26.325-5.395 61.982-7.812 62.3-7.827a.99.99 0 0 1 .656.204c1.01.77 24.737 19.04 25.753 34.969.28 4.387-1.191 8.204-4.373 11.345-11.839 11.687-44.158-7.921-57.001-16.015.268 9.121-2.71 33.519-13.82 46.801-4.665 5.578-10.233 8.567-16.549 8.886a20.07 20.07 0 0 1-.984.024zm-40.526-64.969c.069 20.427 8.309 41.421 21.103 53.661 6.601 6.313 13.806 9.603 20.307 9.285 5.737-.288 10.823-3.038 15.117-8.171 11.69-13.977 14.07-40.709 13.228-47.29a1 1 0 0 1 1.527-.972c29.813 18.88 48.719 24.711 56.195 17.335 2.75-2.715 4.022-6.01 3.782-9.792-.898-14.11-21.933-31.118-24.679-33.279-3.827.265-36.878 2.691-61.633 7.764-15.589 3.195-29.484 6.737-44.947 11.459z" fill="#112c41"/><path d="M295.292 212.814c-20.98 3.442-39.619-3.716-41.635-15.975a12.865 12.865 0 0 1-.174-2.474c12.681-3.57 24.169-6.273 34.189-8.473 12.39-2.717 26.01-4.619 40.425-5.904a13.48 13.48 0 0 1 1.542 4.382c2.006 12.26-13.357 24.991-34.347 28.444z" fill="#112c41"/><circle cx="735.178" cy="216.429" fill="#fff" r="6.313"/><path d="M735.167 223.743a7.258 7.258 0 0 1-4.783-1.791 7.264 7.264 0 0 1-2.5-5.009 7.266 7.266 0 0 1 1.772-5.309 7.264 7.264 0 0 1 5.009-2.5c1.941-.147 3.833.491 5.309 1.772s2.363 3.061 2.5 5.009c.283 4.022-2.76 7.525-6.781 7.809a7.17 7.17 0 0 1-.526.019zm.02-12.627a5.284 5.284 0 0 0-4.021 1.83 5.273 5.273 0 0 0-1.289 3.856 5.284 5.284 0 0 0 1.817 3.639 5.28 5.28 0 0 0 3.856 1.289 5.322 5.322 0 0 0 4.928-5.674 5.284 5.284 0 0 0-1.817-3.639 5.272 5.272 0 0 0-3.474-1.301z" fill="#112c41"/><circle cx="365.477" cy="305.63" fill="#fff" r="6.313"/><path d="M365.465 312.943a7.258 7.258 0 0 1-4.783-1.791 7.265 7.265 0 0 1-2.499-5.008c-.284-4.022 2.758-7.525 6.78-7.809 4.005-.303 7.525 2.757 7.809 6.78a7.265 7.265 0 0 1-1.773 5.31 7.26 7.26 0 0 1-5.008 2.499 7.13 7.13 0 0 1-.526.019zm.016-12.626a5.321 5.321 0 0 0-5.304 5.687c.1 1.416.745 2.707 1.816 3.638s2.439 1.387 3.856 1.289a5.321 5.321 0 0 0 4.928-5.674 5.319 5.319 0 0 0-5.296-4.94z" fill="#112c41"/><circle cx="377.483" cy="443.231" fill="#fff" r="6.313"/><path d="M377.488 450.541a7.302 7.302 0 0 1-5.478-2.459c-2.675-3.018-2.396-7.648.622-10.323 3.018-2.674 7.649-2.397 10.323.622a7.268 7.268 0 0 1 1.828 5.291 7.266 7.266 0 0 1-2.45 5.032 7.284 7.284 0 0 1-4.845 1.837zm-.008-12.621a5.287 5.287 0 0 0-3.521 1.334 5.322 5.322 0 0 0-.452 7.501 5.322 5.322 0 0 0 7.501.452 5.276 5.276 0 0 0 1.779-3.657 5.28 5.28 0 0 0-1.327-3.844 5.306 5.306 0 0 0-3.98-1.786z" fill="#112c41"/><circle cx="382.322" cy="372.334" fill="#fff" r="6.313"/><g fill="#112c41"><path d="M382.326 379.643a7.295 7.295 0 0 1-5.477-2.459c-2.675-3.018-2.396-7.649.622-10.323s7.649-2.397 10.323.622c2.675 3.018 2.396 7.649-.622 10.323a7.28 7.28 0 0 1-4.846 1.837zm-.007-12.62a5.287 5.287 0 0 0-3.521 1.334 5.32 5.32 0 0 0-.452 7.501 5.322 5.322 0 0 0 7.501.452 5.32 5.32 0 0 0 .452-7.501 5.303 5.303 0 0 0-3.98-1.786z"/><path d="M364.909 508.966a1 1 0 0 1-.765-1.643c31.029-36.913 44.311-93.81 35.526-152.197-4.024-26.752-14.062-55.483-28.267-80.901-15.639-27.985-35.762-51.219-58.194-67.188a1 1 0 1 1 1.161-1.629c22.672 16.14 42.998 39.599 58.78 67.842 14.318 25.623 24.439 54.596 28.499 81.58 8.867 58.946-4.58 116.435-35.974 153.781a1.001 1.001 0 0 1-.766.355zm362.469-265.218a.994.994 0 0 1-.607-.206c-44.959-34.479-81.028-107.301-83.404-139.568a.999.999 0 0 1 .924-1.07 1.01 1.01 0 0 1 1.07.924c2.35 31.907 38.081 103.965 82.627 138.127.438.337.521.964.186 1.402a1.004 1.004 0 0 1-.796.391zM710.212 77.782c.187.875.435 1.825.738 2.819.105.322.209.653.302.994 3.807 12.001 13.965 31.478 27.837 52.418 9.255 13.964 18.659 26.287 26.82 35.489a165.115 165.115 0 0 0 5.88 6.32c2.445 2.489 4.723 4.6 6.789 6.282.188.164.388.32.588.466 1.184.943 2.285 1.742 3.305 2.368l-.001.01c2.663 1.653 4.722 2.214 6.02 1.493 1.67-.947 1.864-3.928.787-8.465l-.009-.011c-.137-.588-.3-1.217-.48-1.868-.092-.36-.201-.74-.318-1.132-.925-3.002-2.259-6.493-3.965-10.37a165.16 165.16 0 0 0-3.345-7.144c-5.097-10.354-12.19-22.607-20.681-35.416-14.213-21.451-28.766-39.009-38.641-47.404a65.816 65.816 0 0 0-1.245-1.018c-1.257-.999-2.421-1.843-3.486-2.502-2.671-1.673-4.74-2.235-6.038-1.504-1.64.92-1.853 3.801-.857 8.175z"/><path d="M787.189 187.75c-1.408 0-3.143-.648-5.246-1.953a1.135 1.135 0 0 1-.106-.076c-.979-.607-2.057-1.384-3.292-2.368a8.946 8.946 0 0 1-.624-.497c-2.043-1.661-4.354-3.8-6.844-6.333a165.663 165.663 0 0 1-5.915-6.357c-8.448-9.525-18.004-22.168-26.906-35.6-13.516-20.403-23.967-40.093-27.956-52.668a21.63 21.63 0 0 0-.3-.985 36.573 36.573 0 0 1-.765-2.914c-1.154-5.076-.715-8.106 1.343-9.264 1.635-.924 3.948-.42 7.06 1.528 1.057.654 2.229 1.495 3.577 2.566.412.326.833.675 1.264 1.034 10.289 8.746 25.166 26.99 38.834 47.618 8.271 12.478 15.445 24.763 20.745 35.527a165.676 165.676 0 0 1 3.363 7.186c1.722 3.912 3.069 7.438 4.006 10.477.124.411.236.806.331 1.179.17.612.328 1.224.464 1.798a.825.825 0 0 1 .028.097c1.246 5.247.832 8.376-1.266 9.566-.527.292-1.124.439-1.795.439zm-4.085-3.587c3.07 1.882 4.388 1.688 4.901 1.403 1.135-.644 1.253-3.294.319-7.271a.77.77 0 0 1-.03-.104 47.02 47.02 0 0 0-.47-1.828 27.645 27.645 0 0 0-.312-1.109c-.912-2.96-2.232-6.412-3.924-10.257a167.298 167.298 0 0 0-3.326-7.104c-5.264-10.69-12.393-22.899-20.618-35.307-13.571-20.483-28.307-38.567-38.455-47.194-.41-.342-.817-.679-1.218-.996-1.289-1.024-2.397-1.82-3.393-2.436-3.154-1.976-4.499-1.777-5.021-1.483-1.117.628-1.253 3.21-.372 7.083l.003.012c.184.855.425 1.776.718 2.737.104.317.212.663.31 1.02 3.926 12.372 14.287 31.874 27.707 52.131 8.852 13.356 18.347 25.921 26.734 35.378a163.142 163.142 0 0 0 5.844 6.281c2.438 2.481 4.695 4.57 6.709 6.209.194.168.368.305.546.434 1.252.997 2.3 1.749 3.237 2.323.04.023.077.049.111.078z"/><path d="M112.255 640.945a.996.996 0 0 1-.396-.082c-30.697-13.266-51.953-26.958-76.324-61.263C6.501 538.733-5.334 485.588 2.208 429.956c7.062-52.083 30.5-100.869 64.306-133.851 76.838-74.964 171.43-101.845 220.976-111.195 40.35-7.611 77.445-9.658 113.32-11.638 47.656-2.63 92.67-5.113 140.805-20.133 61.499-19.19 112.366-56.277 142.759-78.437 5.395-3.933 10.054-7.33 14.172-10.201 7.155-4.988 12.586-6.619 17.617-5.281 13.272 3.541 36.101 30.476 52.837 55.599 16.489 24.753 32.848 56.325 29.307 70.704-1.275 5.212-6.001 10.917-9.998 14.519-10.197 9.191-48.337 39.458-101.645 68.73-71.061 39.021-141.2 61.903-208.471 68.011-1.604.145-3.213.289-4.823.418.209 9.56-.479 19.236-2.047 28.779-6.595 38.75-23.803 75.043-48.454 102.201-26.822 29.549-61.363 47.615-99.888 52.247a1.001 1.001 0 0 1-.238-1.986c38.04-4.573 72.15-22.418 98.645-51.605 24.398-26.879 41.433-62.813 47.964-101.187a154.583 154.583 0 0 0 1.995-29.344 1 1 0 0 1 .924-1.025c1.916-.146 3.835-.317 5.742-.49 66.994-6.082 136.871-28.884 207.689-67.771 53.141-29.181 91.119-59.314 101.269-68.464 4.745-4.274 8.433-9.577 9.395-13.509 2.79-11.33-8.604-38.46-29.029-69.118-19.55-29.348-40.805-51.872-51.687-54.775-4.403-1.168-9.329.367-15.958 4.989-4.102 2.859-8.752 6.25-14.138 10.177-30.493 22.231-81.527 59.44-143.342 78.729-48.372 15.094-93.506 17.584-141.29 20.221-35.811 1.977-72.84 4.02-113.06 11.605-49.324 9.31-143.488 36.065-219.951 110.662-33.493 32.676-56.718 81.038-63.721 132.688-7.474 55.128 4.237 107.766 32.977 148.218 24.049 33.851 45.033 47.406 75.297 60.503l149.679-.039c6.843-23.988 5.108-94.811 1.835-125.913-.84-7.973-7.685-13.706-17.438-14.606-36.347-3.356-84.909-11.625-86.999-44.54-.717-11.295 5.269-27.468 24.497-35.872a.997.997 0 0 1 1.316.516.998.998 0 0 1-.516 1.316c-18.281 7.991-23.978 23.263-23.302 33.913.833 13.113 9.472 23.026 26.41 30.305 13.85 5.951 33.075 9.997 58.776 12.37 10.747.992 18.3 7.426 19.243 16.39 3.322 31.558 5.041 103.902-2.118 127.413a1.002 1.002 0 0 1-.957.709z"/></g><path d="M216.384 493.466c10.669 1.746 24.753 2.949 29.999 3.592 11.597 1.42 17.677 7.404 18.577 15.483 5.966 53.515 5.952 91.772-1.55 127.235-49.557 0-152.812-.135-152.812-.135-19.745-8.372-38.283-16.356-65.838-49.555" fill="#fff"/><path d="M264.221 640.776h-.811c-48.991 0-151.781-.135-152.813-.136h-.203l-.187-.079c-19.721-8.362-38.348-16.26-66.217-49.837l-.639-.77 1.539-1.277.639.77C73 622.545 91.38 630.405 110.801 638.64c5.155.007 103.548.135 151.797.136 7.039-33.828 7.443-71.62 1.367-126.125-.905-8.128-7.193-13.314-17.704-14.601-1.48-.181-3.665-.407-6.279-.678-6.786-.701-16.08-1.663-23.76-2.919l-.987-.162.323-1.974.986.161c7.622 1.247 16.882 2.205 23.644 2.904 2.629.272 4.827.5 6.316.683 11.355 1.39 18.444 7.354 19.449 16.364 6.148 55.154 5.68 93.301-1.565 127.553z" fill="#112c41"/><path d="m77.69 614.621 66.047-77.055-56.04-75.053-68.049 67.047s-3.002 21.015 18.013 44.031c21.015 23.017 40.029 41.03 40.029 41.03z" fill="#fff"/><path d="M110.902 638.573c-36.156-12.349-67.008-45.918-83.978-76.112-13.342-23.737-21.067-50.829-23.543-77.295-1.457-15.787-1.493-30.674-.304-44.323 4.927-56.591 27.9-92.922 28.129-94.01-8.786 27.237-20.503 78.879-19.039 105.238 6.961 125.297 87.439 167.067 128.529 186.502z" fill="#dedffe"/><path d="M246.045 514.815c-.155.365-.305.739-.451 1.134-.116.315-.235.645-.354.974-4.323 11.908-8.145 33.632-9.872 58.765-1.161 16.758-1.196 32.298-.31 44.577.509 7.131 1.319 13.156 2.402 17.72.056.25.116.486.189.725.032.122.062.258.094.38l11.575.21c.144-.346.294-.719.429-1.095 1.744-4.687 3.415-10.976 4.898-18.447 2.267-11.359 4.103-25.45 5.166-40.827 1.78-25.743.906-48.57-1.849-61.236-.127-.539-.242-1.061-.369-1.564-1.354-5.451-3.088-8.656-5.161-8.933-2.1-.284-4.293 2.497-6.387 7.617z" fill="#112c41"/><path d="M249.32 640.301h-.019l-11.576-.21a1 1 0 0 1-.949-.747l-.093-.379c-.07-.226-.136-.484-.198-.76-1.09-4.594-1.906-10.609-2.424-17.869-.917-12.713-.808-28.594.31-44.719 1.682-24.47 5.394-46.539 9.929-59.036l.354-.976c.154-.414.309-.799.469-1.176 2.405-5.883 4.822-8.592 7.444-8.224 2.499.336 4.461 3.503 5.997 9.684.092.365.18.744.269 1.132l.104.446c2.87 13.189 3.587 36.762 1.874 61.533-1.037 14.996-2.828 29.158-5.183 40.953-1.503 7.569-3.166 13.828-4.941 18.6-.138.382-.293.771-.442 1.131a1.005 1.005 0 0 1-.925.617zm-10.802-2.196 10.131.184c.055-.14.107-.281.159-.423 1.718-4.615 3.396-10.94 4.858-18.301 2.337-11.715 4.117-25.789 5.147-40.702 1.701-24.595 1-47.951-1.829-60.954l-.101-.438c-.087-.374-.171-.739-.261-1.095-1.765-7.104-3.611-8.092-4.323-8.188-1.47-.188-3.455 2.421-5.329 7.004l-.006.014c-.149.352-.293.711-.436 1.092l-.35.965c-4.477 12.332-8.145 34.198-9.813 58.492-1.111 16.034-1.222 31.815-.312 44.438.511 7.154 1.311 13.062 2.378 17.562l.087.35zm7.527-123.29h.01z" fill="#112c41"/><path d="M298.032 514.361c-22.857 16.8-31.631 38.454-24.62 47.992s31.223 3.651 54.081-13.149 37.924-42.011 30.914-51.549c-7.318-9.232-37.325 2.061-60.375 16.706z" fill="#ffd6c0"/><path d="M285.127 567.928c-5.619 0-10.002-1.616-12.492-5.004-3.714-5.053-3.344-13.167 1.017-22.262 4.574-9.539 13.03-19.156 23.81-27.079l.054-.037c12.03-7.644 25.268-13.99 36.318-17.414 9.01-2.791 20.716-4.896 25.329.923 7.386 10.049-7.738 35.756-31.099 52.927-15.728 11.56-31.77 17.946-42.937 17.946zm13.451-52.77c-10.516 7.734-18.75 17.088-23.186 26.34-4.042 8.431-4.48 15.824-1.202 20.284 6.683 9.094 30.34 3.102 52.731-13.354 22.151-16.282 37.361-41.147 30.708-50.201-3.048-3.845-11.303-3.942-23.225-.251-10.885 3.372-23.943 9.634-35.826 17.182z" fill="#112c41"/><path d="M238.106 639.709c24.849 0 62.061.306 125.414.306 19.957 0 24.476-12.137 16.086-20.162 11.491 1.277 27.831-14.771.455-38.515 47.423 30.825 42.389-27.637-33.18-54.676-21.237-7.599-67.493-11.058-101.175-11.058-10.746 21.839-16.297 86.027-7.6 124.105z" fill="#ffd6c0"/><path d="M363.52 641.015c-38.957 0-67.493-.113-90.422-.205-14.205-.056-25.425-.101-34.992-.101a1 1 0 0 1-.975-.777c-8.771-38.403-3.111-102.846 7.677-124.77.169-.342.517-.559.897-.559 33.928 0 80.166 3.479 101.512 11.116 24.146 8.64 39.157 19.745 47.499 27.54 9.946 9.295 16.11 19.105 16.913 26.916.446 4.336-.913 7.704-3.825 9.483-4.465 2.726-11.789 1.568-21.03-3.223 11.107 12.139 9.966 20.928 8.011 25.396-2.22 5.071-7.491 8.665-12.889 9.058 2.673 3.413 3.435 7.357 2.017 10.892-2.355 5.869-9.788 9.234-20.393 9.234zm-124.614-2.305c9.396.003 20.387.046 34.2.102 22.928.091 51.461.204 90.414.204 9.603 0 16.531-2.982 18.536-7.979 1.354-3.374.18-7.284-3.142-10.461a1.001 1.001 0 0 1-.215-1.146.985.985 0 0 1 1.017-.571c4.544.501 10.715-2.068 13.236-7.828 3.465-7.918-1.473-18.465-13.548-28.938a1 1 0 0 1 1.2-1.594c11.811 7.678 21.346 10.396 26.156 7.454 2.844-1.737 3.136-5.076 2.879-7.572-1.246-12.122-19.478-37.171-63.097-52.777-20.991-7.511-66.51-10.956-100.21-10.999-10.402 22.014-15.793 84.299-7.426 122.105z" fill="#112c41"/><path d="M380.505 581.778c-8.158-6.712-15.947-11.256-25.035-15.15" fill="#ffd6c0"/><path d="M380.504 582.779a.993.993 0 0 1-.635-.228c-7.679-6.318-15.325-10.946-24.793-15.005a.999.999 0 1 1 .787-1.837c9.65 4.137 17.446 8.854 25.277 15.298.426.352.487.981.137 1.408a.997.997 0 0 1-.773.364z" fill="#112c41"/><path d="M379.812 619.91c-9.412-8.006-18.013-13.686-30.671-17.743" fill="#ffd6c0"/><path d="M379.812 620.91a.993.993 0 0 1-.647-.238c-8.868-7.543-17.42-13.415-30.329-17.553a1 1 0 0 1 .612-1.904c13.225 4.239 21.962 10.235 31.013 17.934a.999.999 0 0 1-.649 1.761z" fill="#112c41"/><path d="M363.72 638.976c-49.312-3.576-97.725-10.946-128.034-23.659.752 9.545 1.725 16.506 3.371 23.417zm-14.182-37.725c16.49 2.191 31.796 6.73 41.56 12.749-2.113 3.169-7.059 5.08-11.014 4.897-10.222-8.884-19.106-13.873-30.546-17.646zm6.389-35.597c22.94 6.024 42.213 22.202 53.744 15.512.44 5.634-3.179 9.801-13.373 6.954-8.409-2.348-16.104-7.784-17.797-9.262-5.293-4.624-16.124-9.979-22.574-13.204z" fill="#f5b9ab"/><path d="M912.501 103.498c2.569 5.156 1.88 10.226-1.685 14.844-6.047 7.831-17.723 11.315-44.076 18.441-26.862 7.255-54.201 18.811-72.239 30.255-1.404.885-5.004 3.47-8.992 6.369-3.021 2.196-6.254 4.58-8.948 6.564-.047-.024-.082-.055-.126-.088-9.17-7.091-23.242-23.503-37.086-43.973-13.703-20.237-23.629-39.226-26.903-50.414 2.634-2 5.844-4.456 8.818-6.718 4.234-3.251 7.944-6.118 8.691-6.764 32.406-27.948 33.627-56.9 41.924-67.137.119-.161.259-.317.395-.462.346-.4.701-.755 1.091-1.078l.003-.01c1.188-1.041 2.535-1.758 4.108-2.081.263-.057.523-.104.804-.146.199-.021.411-.049.618-.057.144-.014.275-.022.416-.026a7.873 7.873 0 0 1 1.504.046c11.67 1.214 17.955 21.444 18.807 32.991 0 0-.003.01.005.023.026.534.057 1.048.074 1.537.023-.005.035-.012.058-.016 19.085-4.974 48.035-12.862 75.085-8.267 45.965 7.791 50.773 35.5 35.578 41.742 15.411 9.078 17.012 26.81 2.076 34.425z" fill="#ffd6c0"/><path d="M776.56 180.971a.998.998 0 0 1-.462-.113 1.576 1.576 0 0 1-.263-.174c-9.591-7.417-23.885-24.354-37.316-44.214-13.253-19.572-23.612-38.997-27.034-50.693a1.002 1.002 0 0 1 .355-1.078c1.391-1.056 2.942-2.239 4.535-3.454l4.282-3.263c5.114-3.927 8.023-6.19 8.644-6.725 22.162-19.114 29.479-38.351 34.822-52.396 2.404-6.321 4.304-11.313 6.978-14.614a6.1 6.1 0 0 1 .444-.517c.344-.399.714-.768 1.104-1.099a.633.633 0 0 1 .059-.057c1.377-1.206 2.87-1.961 4.565-2.309.273-.06.556-.111.86-.155l.152-.018c.186-.021.379-.042.568-.05.114-.013.266-.021.43-.026a8.798 8.798 0 0 1 1.653.054c11.79 1.226 18.711 20.915 19.68 33.865.004.03.007.061.009.092l.016.307.464-.122c18.871-4.926 47.394-12.369 73.906-7.869 13.578 2.302 24.882 6.62 32.688 12.488 6.667 5.011 10.707 11.08 11.377 17.09.63 5.66-1.867 10.59-6.594 13.261 7.387 4.913 11.615 12.044 11.392 19.363-.193 6.349-3.849 11.911-10.07 15.389 2.204 5.116 1.453 10.29-2.197 15.019-6.307 8.167-18.232 11.663-44.607 18.795-26.283 7.099-53.858 18.646-71.964 30.135-1.543.972-5.842 4.08-8.94 6.333-2.859 2.079-5.911 4.327-8.514 6.244l-.43.316a.988.988 0 0 1-.592.195zm-62.958-95.098c3.557 11.576 13.676 30.429 26.573 49.477 13.101 19.369 26.98 35.899 36.396 43.371 2.566-1.891 5.55-4.088 8.349-6.122 4.961-3.608 7.836-5.644 9.047-6.406 18.262-11.588 46.048-23.228 72.512-30.376 25.924-7.009 37.634-10.43 43.545-18.086 3.408-4.414 3.94-9.053 1.581-13.786a1 1 0 0 1 .441-1.337c6.157-3.14 9.648-8.154 9.83-14.122.216-7.077-4.256-14.013-11.961-18.552a.999.999 0 0 1 .128-1.787c5.02-2.062 7.653-6.55 7.046-12.004-1.081-9.704-12.837-22.814-42.411-27.827-26.092-4.435-54.361 2.948-73.067 7.832l-1.599.417-.106.027a.999.999 0 0 1-1.203-.944c-.012-.332-.03-.676-.049-1.03l-.022-.449a.569.569 0 0 1-.004-.041h-.001c-.784-10.614-6.843-30.918-17.914-32.07a7.029 7.029 0 0 0-1.333-.042 7.07 7.07 0 0 0-.388.022c-.195.01-.341.027-.481.043l-.124.014a10.66 10.66 0 0 0-.697.128c-1.333.273-2.507.862-3.597 1.8a.878.878 0 0 1-.089.084 8.235 8.235 0 0 0-.974.963 4.731 4.731 0 0 0-.348.402c-2.499 3.086-4.349 7.947-6.689 14.101-5.112 13.441-12.84 33.755-35.385 53.199-.657.567-3.516 2.792-8.735 6.8l-4.284 3.265-3.987 3.036z" fill="#112c41"/><path d="M914.035 109.327c.092 3.123-1.007 6.156-3.219 9.014-6.047 7.831-17.723 11.315-44.076 18.441-26.862 7.255-54.201 18.811-72.239 30.255-1.404.885-5.004 3.47-8.992 6.369-3.021 2.196-6.254 4.58-8.948 6.564-.047-.024-.082-.055-.126-.088-3.019-2.332-6.559-5.667-10.443-9.827 2.818-1.81 6.071-3.91 9.132-5.858 4.398-2.787 8.359-5.274 9.902-6.12 19.762-10.865 49.36-21.243 78.182-27.134 28.286-5.779 40.835-8.68 47.706-16.534 1.419-1.611 2.465-3.314 3.121-5.082z" fill="#f5b9ab"/><path d="M912.494 103.49c-9.399-13.991-35.55-17.433-61.947-13.26" fill="#ffd6c0"/><path d="M912.495 104.49a1 1 0 0 1-.831-.442c-8.289-12.339-32.217-17.376-60.961-12.83a.995.995 0 0 1-1.144-.831.998.998 0 0 1 .831-1.144c35.819-5.665 55.994 3.358 62.934 13.689a1 1 0 0 1-.829 1.558z" fill="#112c41"/><path d="M910.423 69.076c-12.77-7.522-33.457-11.535-54.988-7.778" fill="#ffd6c0"/><path d="M910.422 70.076a.996.996 0 0 1-.507-.139c-13.839-8.151-34.648-11.085-54.309-7.654a1 1 0 0 1-.344-1.97c20.109-3.506 41.437-.479 55.668 7.902a1 1 0 0 1-.508 1.861z" fill="#112c41"/><path d="M852.949 45.027c4.107 13.108-.189 45.248-7.764 61.064" fill="#ffd6c0"/><path d="M845.184 107.091a1.001 1.001 0 0 1-.902-1.432c7.669-16.013 11.705-47.589 7.713-60.334a1 1 0 1 1 1.908-.598c4.104 13.103.014 45.444-7.816 61.795a.998.998 0 0 1-.903.569z" fill="#112c41"/><path d="M796.296 63.46s4.625-11.922 3.409-27.85" fill="#ffd6c0"/><path d="M796.295 64.46a.998.998 0 0 1-.932-1.361c.046-.117 4.527-11.917 3.345-27.412a1 1 0 1 1 1.994-.152c1.219 15.972-3.282 27.792-3.474 28.287a1.002 1.002 0 0 1-.933.638z" fill="#112c41"/><path d="M776.56 180.971a.998.998 0 0 1-.462-.113 1.576 1.576 0 0 1-.263-.174c-9.591-7.417-23.885-24.354-37.316-44.214-13.253-19.572-23.612-38.997-27.034-50.693a1.002 1.002 0 0 1 .355-1.078c1.391-1.056 2.942-2.239 4.535-3.454l4.282-3.263c5.114-3.927 8.023-6.19 8.644-6.725 22.162-19.114 29.479-38.351 34.822-52.396 2.404-6.321 4.304-11.313 6.978-14.614a6.1 6.1 0 0 1 .444-.517c.344-.399.714-.768 1.104-1.099a.633.633 0 0 1 .059-.057c1.377-1.206 2.87-1.961 4.565-2.309.273-.06.556-.111.86-.155l.152-.018c.186-.021.379-.042.568-.05.114-.013.266-.021.43-.026a8.798 8.798 0 0 1 1.653.054c11.79 1.226 18.711 20.915 19.68 33.865.004.03.007.061.009.092l.016.307.464-.122c18.871-4.926 47.394-12.369 73.906-7.869 13.578 2.302 24.882 6.62 32.688 12.488 6.667 5.011 10.707 11.08 11.377 17.09.63 5.66-1.867 10.59-6.594 13.261 7.387 4.913 11.615 12.044 11.392 19.363-.193 6.349-3.849 11.911-10.07 15.389 2.204 5.116 1.453 10.29-2.197 15.019-6.307 8.167-18.232 11.663-44.607 18.795-26.283 7.099-53.858 18.646-71.964 30.135-1.543.972-5.842 4.08-8.94 6.333-2.859 2.079-5.911 4.327-8.514 6.244l-.43.316a.988.988 0 0 1-.592.195zm-62.958-95.098c3.557 11.576 13.676 30.429 26.573 49.477 13.101 19.369 26.98 35.899 36.396 43.371 2.566-1.891 5.55-4.088 8.349-6.122 4.961-3.608 7.836-5.644 9.047-6.406 18.262-11.588 46.048-23.228 72.512-30.376 25.924-7.009 37.634-10.43 43.545-18.086 3.408-4.414 3.94-9.053 1.581-13.786a1 1 0 0 1 .441-1.337c6.157-3.14 9.648-8.154 9.83-14.122.216-7.077-4.256-14.013-11.961-18.552a.999.999 0 0 1 .128-1.787c5.02-2.062 7.653-6.55 7.046-12.004-1.081-9.704-12.837-22.814-42.411-27.827-26.092-4.435-54.361 2.948-73.067 7.832l-1.599.417-.106.027a.999.999 0 0 1-1.203-.944c-.012-.332-.03-.676-.049-1.03l-.022-.449a.569.569 0 0 1-.004-.041h-.001c-.784-10.614-6.843-30.918-17.914-32.07a7.029 7.029 0 0 0-1.333-.042 7.07 7.07 0 0 0-.388.022c-.195.01-.341.027-.481.043l-.124.014a10.66 10.66 0 0 0-.697.128c-1.333.273-2.507.862-3.597 1.8a.878.878 0 0 1-.089.084 8.235 8.235 0 0 0-.974.963 4.731 4.731 0 0 0-.348.402c-2.499 3.086-4.349 7.947-6.689 14.101-5.112 13.441-12.84 33.755-35.385 53.199-.657.567-3.516 2.792-8.735 6.8l-4.284 3.265-3.987 3.036z" fill="#112c41"/><circle cx="192.054" cy="627.271" fill="#fff" r="6.313"/><path d="M192.041 634.586a7.263 7.263 0 0 1-4.561-1.608 7.27 7.27 0 0 1-2.694-4.906 7.265 7.265 0 0 1 1.562-5.374c2.523-3.147 7.137-3.653 10.28-1.132 3.146 2.522 3.653 7.134 1.132 10.28v.001a7.27 7.27 0 0 1-4.905 2.694 7.7 7.7 0 0 1-.814.045zm.018-12.625c-1.558 0-3.103.68-4.15 1.987a5.276 5.276 0 0 0-1.136 3.904 5.276 5.276 0 0 0 1.958 3.564 5.322 5.322 0 0 0 7.469-.822 5.32 5.32 0 0 0-.822-7.469 5.292 5.292 0 0 0-3.319-1.164zm4.921 9.259h.01zm-42.694 9.169a1 1 0 0 1-.987-.847c-4.197-27.125-2.388-58.5 5.094-88.345 7.071-28.208 18.567-52.131 31.541-65.637a.999.999 0 1 1 1.441 1.385c-24.815 25.836-45.243 93.194-36.1 152.29a1.002 1.002 0 0 1-.989 1.154z" fill="#112c41"/><path d="M184.909 419.835c-17.034 7.225-27.323 24.257-21.974 40.89 6.942 21.584 37.931 28.862 54.807 31.771-18.041-19.01-33.027-44.339-32.833-72.661z" fill="#dedffe"/></svg></g><g transform="translate(1438.0 864.0) rotate(137.77901510983733 98.5 67.5) scale(1.2332385972380464 1.2360260389485538)"><svg width="159.742" height="109.221" viewBox="0 0 159.742 109.221"><path d="M127.482 1.488C100.948 31.118 44.243 44.969 2.9 32.935a1.5 1.5 0 0 0-1.875 1.729l13.047 67.516a1.509 1.509 0 0 0 1.089 1.172c51.147 13.642 116.089-2.168 143.275-37.652a1.506 1.506 0 0 0 .167-1.545L129.946 1.877a1.5 1.5 0 0 0-2.464-.389z" fill="#ddfeee"/><path d="M53.93 109.252a151.914 151.914 0 0 1-39.03-4.934 2.523 2.523 0 0 1-1.813-1.948L.046 34.854a2.488 2.488 0 0 1 .774-2.328 2.459 2.459 0 0 1 2.363-.55c19.921 5.8 43.829 5.76 67.319-.111C94.124 25.963 114.1 14.938 126.736.821a2.472 2.472 0 0 1 2.214-.794 2.5 2.5 0 0 1 1.905 1.432l28.656 62.278a2.505 2.505 0 0 1-.282 2.573C138.782 93 96.318 109.251 53.93 109.252zM2.486 33.875a.479.479 0 0 0-.319.125.5.5 0 0 0-.157.471l13.044 67.519a.514.514 0 0 0 .366.4c52.032 13.876 115.834-2.852 142.222-37.294a.506.506 0 0 0 .052-.52L129.038 2.3a.5.5 0 0 0-.387-.289.45.45 0 0 0-.424.149c-12.907 14.407-33.234 25.648-57.24 31.646-23.83 5.954-48.108 5.988-68.363.09a.515.515 0 0 0-.138-.021z" fill="#112c41"/><ellipse cx="80.127" cy="65.747" fill="#7bdaac" rx="22.723" ry="16.596" transform="matrix(.98212664 -.18822131 .18822131 .98212664 -10.943 16.256)"/><path d="M77.448 83.605a26.539 26.539 0 0 1-11.32-2.405c-5.1-2.41-8.4-6.313-9.3-10.988s.73-9.522 4.579-13.648a28.356 28.356 0 0 1 15.409-8.1 28.343 28.343 0 0 1 17.31 1.828c5.1 2.41 8.405 6.313 9.3 10.987S102.7 70.8 98.848 74.93a28.343 28.343 0 0 1-15.409 8.1 31.844 31.844 0 0 1-5.991.575zm5.364-33.716a29.844 29.844 0 0 0-5.62.542 26.337 26.337 0 0 0-14.323 7.5c-3.4 3.647-4.849 7.876-4.077 11.907s3.682 7.427 8.19 9.558a26.367 26.367 0 0 0 16.08 1.671 26.354 26.354 0 0 0 14.323-7.5c3.4-3.648 4.849-7.876 4.077-11.909s-3.682-7.425-8.191-9.556a24.538 24.538 0 0 0-10.459-2.213z" fill="#112c41"/><ellipse cx="139.488" cy="65.84" fill="#7bdaac" rx="8.237" ry="6.016" transform="matrix(.80403331 -.59458425 .59458425 .80403331 -11.812 95.841)"/><path d="M137.288 73.724a5.946 5.946 0 0 1-5.967-8.14 11.5 11.5 0 0 1 10.315-7.628 5.949 5.949 0 0 1 6.019 8.14 11.5 11.5 0 0 1-10.315 7.628zm4.4-13.768h-.04a9.516 9.516 0 0 0-8.418 6.226 4.344 4.344 0 0 0 .439 3.961 4.449 4.449 0 0 0 3.66 1.581 9.516 9.516 0 0 0 8.418-6.226 3.964 3.964 0 0 0-4.059-5.542z" fill="#112c41"/><ellipse cx="21.233" cy="49.497" fill="#7bdaac" rx="6.016" ry="8.237" transform="matrix(.21700188 -.97617118 .97617118 .21700188 -31.692 59.483)"/><path d="M22.334 56.638a12.132 12.132 0 0 1-2.623-.292 10.923 10.923 0 0 1-5.838-3.3 5.949 5.949 0 0 1 2.2-9.881 10.917 10.917 0 0 1 6.685-.516 10.915 10.915 0 0 1 5.838 3.3 5.949 5.949 0 0 1-2.2 9.881 10.158 10.158 0 0 1-4.062.808zm-2.207-12.283a8.14 8.14 0 0 0-3.256.645 3.967 3.967 0 0 0-1.5 6.729 8.91 8.91 0 0 0 4.77 2.668A8.879 8.879 0 0 0 25.6 54a3.966 3.966 0 0 0 1.5-6.728 8.9 8.9 0 0 0-4.778-2.672 10.089 10.089 0 0 0-2.195-.245z" fill="#112c41"/></svg></g><g transform="translate(1178.0 1204.0) rotate(74.83423240580437 82.5 110.5) scale(1.1323940182143861 1.1370418390236874)"><svg width="145.709" height="194.364" viewBox="0 0 145.709 194.364"><path d="M24.149 193.364s35.474-10.756 75.146-12.591c0 0-3.013-32.132 9.429-80.055a343.157 343.157 0 0 1 7.407-24.632c6.647-19.447 15.811-40.689 28.433-62.892a1.105 1.105 0 0 0-.519-1.562L119.294 1 1 180.2c13.726 6.207 23.149 13.164 23.149 13.164z" fill="#7cdaac"/><path d="M24.149 194.364c-.211 0-.42-.067-.594-.195-.094-.069-9.507-6.972-22.968-13.058a1.002 1.002 0 0 1-.423-1.462L118.458.449a.999.999 0 0 1 1.229-.368l24.751 10.632c.548.235.971.694 1.16 1.26a2.11 2.11 0 0 1-.166 1.715c-11.511 20.249-21.052 41.352-28.356 62.721a344.881 344.881 0 0 0-7.385 24.561c-12.248 47.176-9.431 79.391-9.4 79.711a1.004 1.004 0 0 1-.95 1.092c-39.083 1.809-74.549 12.442-74.902 12.55a1.058 1.058 0 0 1-.29.041zM2.477 179.777c11.534 5.333 19.952 11.136 21.858 12.49 4.332-1.264 37.418-10.611 73.889-12.443-.374-5.927-1.579-36.562 9.532-79.356a345.655 345.655 0 0 1 7.428-24.705c7.346-21.487 16.937-42.705 28.511-63.063l.35-1.067-.395.919-23.982-10.303z" fill="#112c41"/><path d="M1 180.2c35.679-13.136 70.571-15.583 70.571-15.583 2.482-27.262 7.573-52.528 13.537-74.654a474.718 474.718 0 0 1 7.309-24.478C105.447 25.76 119.294 1 119.294 1 93.817 3.021 65.892 13.203 60.793 15.138a2.2 2.2 0 0 0-1.222 1.09c-10.026 19.689-20.738 45.766-30.27 71.724-.191.527-.395 1.06-.582 1.578a1164.946 1164.946 0 0 0-7.812 22.104c-.178.522-.356 1.044-.529 1.557C10.822 141.332 3.501 166.685 1 180.2z" fill="#ddfeee"/><path d="M1 181.2a1.002 1.002 0 0 1-.984-1.181c2.502-13.52 9.94-39.25 19.414-67.15l.53-1.558a1172.7 1172.7 0 0 1 7.819-22.124l.581-1.576c7.388-20.117 18.643-48.906 30.318-71.838a3.228 3.228 0 0 1 1.772-1.575C65.745 12.19 93.52 2.041 119.214.003c.357-.026.722.146.921.457s.211.706.031 1.028c-.139.247-13.954 25.145-26.799 64.308a473.427 473.427 0 0 0-7.294 24.428c-6.738 24.999-11.283 50.06-13.507 74.484a1 1 0 0 1-.926.906c-.348.024-35.169 2.591-70.296 15.524A.972.972 0 0 1 1 181.2zM117.535 2.156C92.637 4.492 66.283 14.124 61.147 16.072c-.306.111-.538.32-.686.609-11.63 22.843-22.854 51.553-30.221 71.615l-.58 1.572a1179.409 1179.409 0 0 0-7.807 22.089l-.528 1.554c-9.056 26.669-16.241 51.321-19.009 65.146 31.771-11.412 62.857-14.496 68.336-14.969 2.262-24.274 6.799-49.16 13.49-73.986a478.058 478.058 0 0 1 7.325-24.529c11.036-33.648 22.799-56.839 26.068-63.017z" fill="#112c41"/><ellipse cx="58.592" cy="147.556" fill="#7cdaac" rx="8.845" ry="5.503" transform="matrix(.1817 -.9834 .9834 .1817 -97.1525 178.3678)"/><path d="M57.632 157.384c-.281 0-.562-.025-.842-.077-3.625-.669-5.674-5.478-4.664-10.945 1.012-5.47 4.651-9.222 8.267-8.558 3.625.671 5.673 5.479 4.664 10.945-.466 2.518-1.524 4.785-2.983 6.386-1.341 1.471-2.892 2.249-4.442 2.249zm1.926-17.514c-2.239 0-4.606 2.996-5.324 6.88-.765 4.144.584 8.014 2.945 8.449 1.072.203 2.245-.338 3.312-1.509 1.192-1.308 2.065-3.201 2.459-5.33.765-4.144-.584-8.013-2.946-8.449a2.475 2.475 0 0 0-.446-.041zm4.445 8.685h.01z" fill="#112c41"/><ellipse cx="64.965" cy="29.232" fill="#7cdaac" rx="8.845" ry="5.503" transform="matrix(.4876 -.8731 .8731 .4876 7.7692 71.7)"/><path d="M62.479 38.486a4.758 4.758 0 0 1-2.349-.596c-3.219-1.799-3.616-7.009-.905-11.863 2.712-4.855 7.36-7.25 10.575-5.453 3.218 1.797 3.616 7.008.905 11.863-2.101 3.763-5.365 6.049-8.226 6.049zm4.97-16.365c-2.053 0-4.683 1.96-6.353 4.95-2.055 3.679-2.019 7.775.079 8.947 2.098 1.173 5.604-.946 7.659-4.627 2.054-3.679 2.018-7.776-.079-8.947a2.656 2.656 0 0 0-1.306-.323zm2.321 9.793h.01z" fill="#112c41"/><path d="M108.724 100.718a343.157 343.157 0 0 1 7.407-24.632L92.417 65.484a474.718 474.718 0 0 0-7.309 24.478z" fill="#fff"/><path d="M108.724 101.718a.993.993 0 0 1-.414-.09L84.694 90.873a1.002 1.002 0 0 1-.552-1.171 478.058 478.058 0 0 1 7.325-24.529.999.999 0 0 1 1.358-.602l23.713 10.601a1 1 0 0 1 .538 1.236 344.881 344.881 0 0 0-7.385 24.561.998.998 0 0 1-.967.749zm-22.43-12.314 21.763 9.911a345.635 345.635 0 0 1 6.833-22.689l-21.867-9.775a475.522 475.522 0 0 0-6.729 22.553z" fill="#112c41"/><path d="M70.635 91.989c-4.374 12.294-15.311 24.548-24.632 22.563-9.307-1.982-9.089-16.014-4.663-28.289 5.003-13.874 16.096-24.421 24.34-22.021 7.532 2.193 9.714 14.37 4.955 27.747z" fill="#7cdaac"/><path d="M47.994 115.759c-.741 0-1.475-.074-2.199-.229-2.826-.602-4.989-2.222-6.432-4.814-3.535-6.357-1.782-16.975 1.036-24.792 5.322-14.758 17.033-25.122 25.561-22.642 2.605.758 4.733 2.628 6.154 5.406 2.907 5.684 2.707 14.52-.537 23.636-4.243 11.924-14.372 23.435-23.583 23.435zm15.282-50.851c-7.236 0-16.555 9.378-20.996 21.693-3.405 9.447-3.854 18.314-1.169 23.143 1.148 2.065 2.864 3.354 5.1 3.829 8.581 1.846 19.271-10.082 23.481-21.919 3.018-8.479 3.263-16.931.642-22.055-1.181-2.309-2.841-3.788-4.933-4.397a7.6 7.6 0 0 0-2.125-.294z" fill="#112c41"/><path d="m20.907 111.633 64.201-21.671a474.718 474.718 0 0 1 7.309-24.478L29.301 87.951c-.191.527-.395 1.06-.582 1.578a1176.99 1176.99 0 0 0-7.812 22.104z" fill="#fff"/><path d="M20.907 112.633a1 1 0 0 1-.946-1.324 1177.368 1177.368 0 0 1 7.819-22.122l.581-1.576c.103-.281.324-.501.605-.602l63.116-22.467a1 1 0 0 1 1.285 1.254 473.427 473.427 0 0 0-7.294 24.428 1 1 0 0 1-.646.687l-64.201 21.67a1.03 1.03 0 0 1-.319.052zm9.171-23.896-.418 1.132a1159.81 1159.81 0 0 0-7.146 20.167l61.769-20.849a477.13 477.13 0 0 1 6.555-22.078z" fill="#112c41"/><path d="M84.533 169.95c.463-13.525 2.349-26.814 3.684-33.701" fill="#7cdaac"/><g fill="#112c41"><path d="m84.535 170.95-.035-.001a1 1 0 0 1-.965-1.033c.451-13.226 2.275-26.504 3.701-33.857a1 1 0 1 1 1.963.381c-1.411 7.281-3.218 20.436-3.666 33.545a.999.999 0 0 1-.998.965z"/><path d="M99.024 181.621a.994.994 0 0 1-.656-.246c-.123-.106-12.422-10.719-27.127-15.812a1 1 0 0 1 .654-1.89c15.081 5.225 27.66 16.086 27.785 16.195a.998.998 0 0 1-.656 1.753z"/></g></svg></g><g transform="translate(1175.0 1118.0) rotate(0.0 167.0 134.5) translate(0.0 0.0) scale(1.2617962841232782 1.2597407462910235)"><svg width="264.702" height="212.742" viewBox="0 0 264.702 212.742"><path d="M246.866 148.256s-23.743 28.468-40.91 64.28c0 0-28.41-15.31-77.39-22.55-7.99-1.18-16.52-2.14-25.57-2.79a368.28 368.28 0 0 0-69 1.645 1.106 1.106 0 0 1-1.236-1.088l-.133-26.937 211.15-39.01a140.091 140.091 0 0 0 3.089 26.45z" fill="#7bdaac"/><path d="M205.956 213.536a1 1 0 0 1-.474-.119c-.283-.152-28.847-15.315-77.062-22.441a343.31 343.31 0 0 0-25.5-2.782 368.314 368.314 0 0 0-68.813 1.64 2.1 2.1 0 0 1-2.351-2.076l-.134-26.936a1 1 0 0 1 .818-.989l211.15-39.01a1 1 0 0 1 1.181.959 140.347 140.347 0 0 0 3.063 26.241 1 1 0 0 1-.2.874c-.237.283-23.864 28.791-40.776 64.072a1 1 0 0 1-.593.519 1.022 1.022 0 0 1-.309.048zM77.5 185.293q12.883 0 25.57.906a344.186 344.186 0 0 1 25.645 2.8 303.516 303.516 0 0 1 57.253 14.037 180.19 180.19 0 0 1 19.535 8.144c15.912-32.865 37.425-59.68 40.279-63.18a144.979 144.979 0 0 1-2.973-25L33.63 161.648l.13 26.1.235 1.093-.116-.993a376.754 376.754 0 0 1 43.621-2.555z" fill="#112c41"/><path d="M243.776 121.806c-26.015 27.728-41.88 58.9-41.88 58.9a441.807 441.807 0 0 0-74.02-16.66c-8.89-1.23-17.39-2.15-25.39-2.82-41.66-3.5-69.86-.41-69.86-.41 11.8-22.67 32.07-44.41 35.84-48.35a2.2 2.2 0 0 1 1.48-.7c22.04-1.55 50.23-1.24 77.85.11.56.03 1.13.05 1.68.08 7.91.4 15.76.89 23.4 1.43l1.64.12c29.64 2.18 55.84 5.33 69.26 8.3z" fill="#ddfeee"/><path d="M201.9 181.706a.976.976 0 0 1-.3-.048 441.082 441.082 0 0 0-73.852-16.622 477.02 477.02 0 0 0-25.337-2.814c-41.071-3.45-69.387-.441-69.667-.411a1 1 0 0 1-1-1.456c11.9-22.854 32.079-44.478 36-48.58a3.2 3.2 0 0 1 2.132-1.006c25.666-1.8 56.567-.937 77.97.108l1.686.081c7.421.375 15.3.857 23.415 1.431l1.644.12c29.385 2.162 55.979 5.35 69.4 8.32a1 1 0 0 1 .513 1.662c-25.621 27.307-41.56 58.359-41.718 58.668a1 1 0 0 1-.886.547zM63.384 158.568c10.882 0 24.187.4 39.185 1.662 8.442.708 17 1.658 25.444 2.826A443.352 443.352 0 0 1 201.4 179.5c2.573-4.861 17.54-32.28 40.443-57.082-13.81-2.845-39.311-5.846-67.4-7.913l-1.567-.114a1176.956 1176.956 0 0 0-23.45-1.434l-1.684-.08c-21.343-1.043-52.16-1.908-77.725-.112a1.209 1.209 0 0 0-.818.384c-3.809 3.98-22.961 24.5-34.822 46.5 4.003-.349 14.286-1.081 29.007-1.081z" fill="#112c41"/><ellipse cx="191.25" cy="162.099" fill="#7bdaac" rx="5.503" ry="8.845" transform="matrix(.21637146 -.97631112 .97631112 .21637146 -8.39 313.746)"/><path d="M193.058 168.881a14.982 14.982 0 0 1-3.231-.363 13.061 13.061 0 0 1-6.274-3.207 5.761 5.761 0 0 1-1.984-5.357c.8-3.6 5.673-5.477 11.1-4.273a13.065 13.065 0 0 1 6.275 3.207 5.761 5.761 0 0 1 1.983 5.356c-.627 2.864-3.847 4.637-7.869 4.637zm-3.579-11.412c-2.985 0-5.417 1.135-5.819 2.948a3.739 3.739 0 0 0 1.391 3.363 10.915 10.915 0 0 0 5.24 2.646c4.112.909 8.028-.3 8.549-2.644a3.742 3.742 0 0 0-1.391-3.363 10.911 10.911 0 0 0-5.24-2.646 12.707 12.707 0 0 0-2.73-.304z" fill="#112c41"/><ellipse cx="79.815" cy="121.806" fill="#7bdaac" rx="8.845" ry="5.503" transform="matrix(.99411699 -.10831167 .10831167 .99411699 -12.723 9.361)"/><path d="M78.871 128.433a12.378 12.378 0 0 1-5.316-1.115 5.765 5.765 0 0 1-3.6-4.438c-.4-3.665 3.618-7.008 9.146-7.61s10.171 1.8 10.57 5.462-3.618 7.008-9.145 7.61a15.247 15.247 0 0 1-1.655.091zm1.866-11.109a12.869 12.869 0 0 0-1.4.077c-4.189.456-7.508 2.859-7.248 5.247a3.737 3.737 0 0 0 2.4 2.738 10.886 10.886 0 0 0 5.812.825c4.189-.456 7.508-2.859 7.248-5.247-.237-2.117-3.219-3.64-6.812-3.64z" fill="#112c41"/><path d="M128.566 189.986c-7.99-1.18-16.52-2.14-25.57-2.79l-.51-25.97c8 .67 16.5 1.59 25.39 2.82z" fill="#fff"/><path d="M128.566 190.987a1.014 1.014 0 0 1-.146-.011 343.251 343.251 0 0 0-25.5-2.782 1 1 0 0 1-.928-.978l-.51-25.971a1 1 0 0 1 1.083-1.015c8.442.708 17 1.658 25.444 2.826a1 1 0 0 1 .862.964l.69 25.94a1 1 0 0 1-1 1.027zm-24.588-4.721c7.941.591 15.856 1.45 23.556 2.559l-.635-23.9a472.409 472.409 0 0 0-23.392-2.6z" fill="#112c41"/><path d="M135.388 151.51c13.027.769 28.576-4.521 30.385-13.878s-11.2-14.616-24.228-15.329c-14.726-.806-28.765 5.293-29.772 13.82-.92 7.79 9.442 14.55 23.615 15.387z" fill="#7bdaac"/><path d="M137.913 152.583q-1.3 0-2.584-.075c-9.66-.57-17.874-3.832-21.972-8.726a10.147 10.147 0 0 1-2.577-7.776c1.042-8.827 15.163-15.555 30.819-14.7 8.3.453 18.757 2.981 23.232 8.717a9.332 9.332 0 0 1 1.924 7.8c-1.773 9.169-15.844 14.76-28.842 14.76zm-2.465-2.071c12.538.742 27.676-4.445 29.343-13.069a7.409 7.409 0 0 0-1.537-6.191c-3.4-4.355-11.738-7.4-21.764-7.951-14.389-.783-27.817 5.258-28.724 12.94a8.093 8.093 0 0 0 2.124 6.256c3.695 4.413 11.573 7.485 20.558 8.015z" fill="#112c41"/><path d="m172.876 113.386-45 50.66c-8.89-1.23-17.39-2.15-25.39-2.82l45.31-49.35c.56.03 1.13.05 1.68.08 7.91.4 15.76.89 23.4 1.43z" fill="#fff"/><path d="M127.876 165.046a.893.893 0 0 1-.137-.01 477.02 477.02 0 0 0-25.337-2.814 1 1 0 0 1-.653-1.673l45.31-49.35a1.015 1.015 0 0 1 .791-.322l1.681.081c7.421.375 15.3.857 23.415 1.431a1 1 0 0 1 .677 1.661l-45 50.66a1 1 0 0 1-.747.336zM104.6 160.4a479.302 479.302 0 0 1 22.885 2.579l43.295-48.742c-7.387-.509-14.56-.942-21.353-1.286l-1.209-.057z" fill="#112c41"/><path d="M201.75 194.722a236.61 236.61 0 0 0-32.469-9.756" fill="#7bdaac"/><path d="M201.75 195.722a1.026 1.026 0 0 1-.359-.066 234.967 234.967 0 0 0-32.317-9.711 1 1 0 1 1 .416-1.957 237.4 237.4 0 0 1 32.618 9.8 1 1 0 0 1-.358 1.934z" fill="#112c41"/><path d="M205.922 213.227a1 1 0 0 1-.951-.69c-.051-.158-5.145-15.977-4.072-31.9a1.011 1.011 0 0 1 1.065-.931 1 1 0 0 1 .93 1.066c-1.045 15.526 3.929 30.991 3.979 31.145a1 1 0 0 1-.641 1.261.985.985 0 0 1-.31.049z" fill="#112c41"/><path d="M1 91.525c.254.467 29.612 36.135 43.454 62.594 0 0 27.773-16.437 76.423-25.636 7.937-1.5 16.421-2.8 25.438-3.813a368.258 368.258 0 0 1 69.255-1.105.886.886 0 0 0 .955-.911l-.955-27.165L3.025 64.979A140.327 140.327 0 0 1 1 91.525z" fill="#7bdaac"/><path d="M44.454 155.119a.985.985 0 0 1-.274-.038 1 1 0 0 1-.612-.5c-8-15.3-22.6-36.392-42.216-60.994A16.9 16.9 0 0 1 .122 92a1 1 0 0 1-.1-.671A138.591 138.591 0 0 0 2.026 65a1 1 0 0 1 1.142-1.006L215.712 94.5a1 1 0 0 1 .858.955l.955 27.165a1.888 1.888 0 0 1-2.031 1.944 368.618 368.618 0 0 0-69.068 1.1 344.958 344.958 0 0 0-25.363 3.8c-47.891 9.055-75.823 25.351-76.1 25.514a.992.992 0 0 1-.509.141zM2.065 91.272c.186.237.474.6.851 1.07 19.306 24.216 33.784 45.069 41.942 60.4a180.1 180.1 0 0 1 19.19-8.918 303.415 303.415 0 0 1 56.643-16.324 346.167 346.167 0 0 1 25.512-3.825 370.511 370.511 0 0 1 69.318-1.118l-.921-26.2L4.04 66.135a143.023 143.023 0 0 1-1.975 25.137z" fill="#112c41"/><path d="M3.025 64.979c30.523 32.3 44.209 57.173 44.209 57.173a441.816 441.816 0 0 1 73.292-19.615 473.613 473.613 0 0 1 25.257-3.836c41.486-5.169 69.787-3.212 69.787-3.212-12.7-22.178-33.825-43.088-37.75-46.874a2.2 2.2 0 0 0-1.507-.64c-22.085-.665-50.24.776-77.783 3.233-.558.052-1.127.095-1.676.147-7.887.717-15.711 1.521-23.323 2.367l-1.634.186c-29.529 3.367-55.582 7.565-68.872 11.071z" fill="#ddfeee"/><path d="M47.235 123.152a1 1 0 0 1-.877-.518c-.137-.248-13.99-25.15-44.059-56.969a1 1 0 0 1 .472-1.653c13.3-3.508 39.74-7.76 69.012-11.1l1.634-.185c8.134-.905 15.988-1.7 23.347-2.37l1.672-.147c21.347-1.9 52.184-4.008 77.907-3.237a3.216 3.216 0 0 1 2.182.932c4.074 3.928 25.1 24.713 37.913 47.084a1 1 0 0 1-.021 1.029 1.027 1.027 0 0 1-.916.467c-.282-.02-28.694-1.888-69.594 3.206a475.152 475.152 0 0 0-25.2 3.828 440.759 440.759 0 0 0-73.126 19.57 1 1 0 0 1-.346.063zM4.915 65.528c26.587 28.366 40.258 51.06 42.77 55.4a443.363 443.363 0 0 1 72.664-19.371c8.4-1.508 16.918-2.8 25.31-3.844 35.138-4.378 61.131-3.637 68.115-3.316-12.741-21.524-32.695-41.244-36.649-45.057a1.222 1.222 0 0 0-.843-.36c-25.62-.772-56.375 1.33-77.663 3.228l-1.671.147c-7.349.668-15.19 1.464-23.307 2.366l-1.63.185C43.984 58.1 18.586 62.126 4.915 65.528z" fill="#112c41"/><ellipse cx="57.068" cy="103.256" fill="#7bdaac" rx="8.845" ry="5.503" transform="matrix(.95641185 -.29202118 .29202118 .95641185 -27.665 21.166)"/><path d="M54.788 110.192a11.1 11.1 0 0 1-2.841-.353 5.27 5.27 0 0 1-2.8-9.183 14 14 0 0 1 13.046-3.984 5.271 5.271 0 0 1 2.8 9.184 13.057 13.057 0 0 1-6 3.687 14.451 14.451 0 0 1-4.205.649zm4.557-11.732a12.32 12.32 0 0 0-3.571.557 10.908 10.908 0 0 0-5.017 3.049 3.174 3.174 0 0 0 1.741 5.7 10.929 10.929 0 0 0 5.864-.275 10.9 10.9 0 0 0 5.017-3.048 3.175 3.175 0 0 0-1.742-5.7 8.968 8.968 0 0 0-2.292-.283z" fill="#112c41"/><ellipse cx="166.854" cy="58.403" fill="#7bdaac" rx="5.503" ry="8.845" transform="matrix(.06834613 -.99766167 .99766167 .06834613 97.183 220.875)"/><path d="M167.481 65q-.531 0-1.076-.037c-5.548-.381-9.7-3.559-9.444-7.237a5.76 5.76 0 0 1 3.417-4.578 14 14 0 0 1 13.609.932 5.765 5.765 0 0 1 2.76 5c-.236 3.438-4.219 5.92-9.266 5.92zm-1.241-11.05a10.467 10.467 0 0 0-4.857 1.089 3.738 3.738 0 0 0-2.285 2.832c-.164 2.4 3.249 4.664 7.453 4.953s7.894-1.494 8.059-3.89a3.735 3.735 0 0 0-1.877-3.116 10.9 10.9 0 0 0-5.576-1.835q-.457-.033-.917-.033z" fill="#112c41"/><path d="M120.877 128.483c7.937-1.5 16.421-2.8 25.438-3.813l-.532-25.97c-7.967.99-16.423 2.25-25.257 3.836z" fill="#fff"/><path d="M120.877 129.484a1 1 0 0 1-1-.987l-.351-25.947a1 1 0 0 1 .823-1c8.4-1.508 16.918-2.8 25.31-3.844a1 1 0 0 1 1.124.972l.532 25.97a1 1 0 0 1-.888 1.014 344.905 344.905 0 0 0-25.364 3.8.977.977 0 0 1-.186.022zm.66-26.113.324 23.911a344.999 344.999 0 0 1 23.435-3.5l-.49-23.949a475.408 475.408 0 0 0-23.269 3.538z" fill="#112c41"/><path d="M112.517 90.312C99.532 91.6 83.783 86.94 81.6 77.664s10.6-15.054 23.594-16.289c14.682-1.4 28.954 4.135 30.3 12.615 1.234 7.747-8.848 14.917-22.977 16.322z" fill="#7bdaac"/><path d="M108.185 91.523c-12.462 0-25.521-4.968-27.559-13.63a9.335 9.335 0 0 1 1.61-7.872c4.241-5.909 14.591-8.856 22.863-9.642 15.613-1.487 29.99 4.677 31.385 13.454a10.145 10.145 0 0 1-2.263 7.873c-3.9 5.055-11.976 8.644-21.605 9.6a44.765 44.765 0 0 1-4.431.217zm1.5-29.362c-1.451 0-2.92.068-4.4.208-10 .952-18.207 4.33-21.428 8.818a7.407 7.407 0 0 0-1.287 6.247c2.011 8.551 17.344 13.126 29.844 11.883 8.956-.891 16.7-4.275 20.219-8.832a8.1 8.1 0 0 0 1.872-6.337c-1.085-6.848-12.186-11.987-24.818-11.987z" fill="#112c41"/><path d="m73.531 53.722 46.995 48.815a473.613 473.613 0 0 1 25.257-3.836L98.53 51.208c-.558.052-1.127.095-1.676.147-7.887.717-15.711 1.521-23.323 2.367z" fill="#fff"/><path d="M120.526 103.536a1 1 0 0 1-.72-.306l-47-48.815a1 1 0 0 1 .61-1.687c8.131-.9 15.985-1.7 23.344-2.369l1.672-.147a.965.965 0 0 1 .8.29L146.492 98a1 1 0 0 1-.585 1.7 475.152 475.152 0 0 0-25.2 3.828.962.962 0 0 1-.181.008zM75.661 54.493l45.215 46.965c7.558-1.347 15.2-2.52 22.763-3.494l-45.488-45.72-1.2.106a1171.47 1171.47 0 0 0-21.29 2.143z" fill="#112c41"/><path d="M47.942 136.151A256.537 256.537 0 0 1 79.993 125.1" fill="#7bdaac"/><path d="M47.943 137.151a1 1 0 0 1-.393-1.92 258.872 258.872 0 0 1 32.2-11.1 1 1 0 0 1 .494 1.938 256.568 256.568 0 0 0-31.9 11 1.007 1.007 0 0 1-.401.082z" fill="#112c41"/><path d="M44.476 154.809a1 1 0 0 1-.963-1.272c.044-.156 4.394-15.808 2.726-31.281a1 1 0 0 1 1.988-.215c1.71 15.869-2.744 31.88-2.789 32.04a1 1 0 0 1-.962.728z" fill="#112c41"/><path d="M16.017 97.392c6.128 8.17 16.556 21.64 22.341 31.532" fill="#fff"/><path d="M38.359 129.923a1 1 0 0 1-.865-.5c-4.982-8.519-13.437-19.719-19.61-27.9-.952-1.261-1.848-2.448-2.666-3.541a1 1 0 1 1 1.6-1.2c.819 1.09 1.713 2.276 2.663 3.534 6.2 8.217 14.7 19.472 19.741 28.092a1 1 0 0 1-.862 1.5z" fill="#112c41"/><path d="M259.664 97.033a1.272 1.272 0 0 1-1.422 1.011c-18.779-1.911-84.14-8.3-151.45 7.145C84.1 83.49 54 58.308 45.253 50.751a2.6 2.6 0 0 1-.827-2.5A196.832 196.832 0 0 0 48.2 18.2l58.874 52.949L263.7 59a307.626 307.626 0 0 1-4.036 38.033z" fill="#7bdaac"/><path d="M106.792 106.189a1 1 0 0 1-.691-.278c-18.83-18.006-42.593-38.266-55.36-49.15-2.566-2.188-4.66-3.974-6.142-5.253a3.614 3.614 0 0 1-1.153-3.457A193.932 193.932 0 0 0 47.2 18.162a1 1 0 0 1 1.668-.71l58.556 52.662 156.2-12.107a1 1 0 0 1 1.077 1.034 311.2 311.2 0 0 1-4.054 38.173 2.267 2.267 0 0 1-2.506 1.825c-68.749-7-120.129.013-151.125 7.124a1.007 1.007 0 0 1-.224.026zM49.11 20.359a200.918 200.918 0 0 1-3.7 28.09 1.609 1.609 0 0 0 .5 1.545c1.479 1.278 3.57 3.06 6.132 5.245 12.694 10.822 36.247 30.9 55.055 48.855 31.2-7.1 82.62-14.029 151.25-7.045a.277.277 0 0 0 .336-.2 305.27 305.27 0 0 0 3.973-36.763l-155.5 12.053a1.008 1.008 0 0 1-.746-.254z" fill="#112c41"/><path d="M106.841 105.892a1.069 1.069 0 0 1-.113-.006 1 1 0 0 1-.883-1.1 196.615 196.615 0 0 0 .233-33.55 1 1 0 1 1 1.993-.164 198.886 198.886 0 0 1-.238 33.928 1 1 0 0 1-.992.892z" fill="#112c41"/><path d="M263.7 59.008c-16.321 4.825-40.049 8.542-65.074 10.858-32.923 3.05-68.09 3.688-91.553 1.283l-.1-.082-8.257-7.43L48.2 18.2c6.18 1.048 13.18 2.05 20.807 2.953 41.5 4.963 101.617 7.08 150.61-3.123 6.419 10.034 21.113 29.605 44.083 40.978z" fill="#ddfeee"/><path d="M141.159 73.607c-12.893 0-24.622-.483-34.187-1.463a1 1 0 0 1-.548-.237l-.1-.082-58.8-52.883a1 1 0 0 1-.232-1.179 1.016 1.016 0 0 1 1.067-.551c6.332 1.074 13.315 2.066 20.758 2.946 20.173 2.412 90.626 9.315 150.288-3.109a1 1 0 0 1 1.046.441c6.64 10.38 21.145 29.461 43.687 40.622a1 1 0 0 1-.16 1.855c-15.414 4.557-38.592 8.426-65.266 10.9-19.612 1.812-39.695 2.74-57.553 2.74zm-33.659-3.42c22.7 2.289 57.54 1.787 91.04-1.317 25.18-2.33 47.206-5.908 62.457-10.128-21.278-11.28-35.166-29.284-41.844-39.595-59.816 12.3-130.087 5.409-150.26 3a445.109 445.109 0 0 1-17.479-2.405z" fill="#112c41"/><path d="M263.7 59c-15.34 4.548-37.241 8.1-60.6 10.435l-.182.015c-1.426.138-2.861.274-4.3.411a651.634 651.634 0 0 1-21.145 1.607h-.01q-3.522.216-7.033.393c-23.708 1.173-46.547 1.01-63.363-.72l-.094-.078c-.59-.454-34.529-34.185-45.3-69.537a.41.41 0 0 1 .6-.469c20.254 12.146 44.735 20.576 66.656 21.827.489.029.978.058 1.468.077.11.009.22.007.32.015q3.072.155 6.094.2a250.558 250.558 0 0 0 26.388-1.07c.031-.008.07 0 .1-.012.4-.028.8-.067 1.2-.105.121-.01.232-.012.343-.023 24.832-2.31 37.9-6.076 49.963-9.938a1.541 1.541 0 0 1 1.727.57A202.354 202.354 0 0 0 263.7 59z" fill="#ddfeee"/><path d="M141.183 73.619c-12.969 0-24.648-.5-34.211-1.48a1.01 1.01 0 0 1-.531-.222l-.094-.077c-.295-.226-34.757-34.353-45.622-70.02A1.411 1.411 0 0 1 62.8.2c20.977 12.58 45.105 20.484 66.2 21.688.485.028.968.057 1.451.076l.358.018c1.906.094 3.945.16 6.031.191a250.117 250.117 0 0 0 26.279-1.065l.048-.006a.694.694 0 0 1 .077-.008c.363-.026.719-.06 1.081-.094l.1-.01.327-.021c24.527-2.282 37.534-5.982 49.763-9.9a2.534 2.534 0 0 1 2.843.938 201.684 201.684 0 0 0 46.924 46.183 1 1 0 0 1-.3 1.773c-14.635 4.339-35.654 7.96-60.784 10.471l-.1.009-4.378.417a654.63 654.63 0 0 1-21.18 1.61h-.054q-3.507.216-7 .392c-10.219.506-20.086.757-29.303.757zM107.5 70.182c16.235 1.643 38.549 1.887 62.889.684 2.332-.116 4.677-.249 7.021-.393h.058a661.025 661.025 0 0 0 21.065-1.6l4.491-.426c23.525-2.351 44.153-5.825 58.425-9.828a203.037 203.037 0 0 1-45.712-45.439.535.535 0 0 0-.608-.2c-12.34 3.948-25.461 7.682-50.177 9.981-.065.007-.142.011-.22.016l-.127.008c-.46.043-.826.078-1.2.1l-.059.006a.393.393 0 0 1-.048.006 251.285 251.285 0 0 1-26.493 1.074c-2.108-.032-4.17-.1-6.127-.2l-.35-.018a64.355 64.355 0 0 1-1.448-.076c-20.96-1.2-44.853-8.9-65.784-21.181C74.033 36.575 105.29 68.019 107.5 70.182z" fill="#112c41"/><path d="M202.921 69.454 200.9 94.9c-1.355 0-2.7.016-4.046.039-7.081.108-14.235.382-21.288.773l1.934-24.319c10.857-.45 14.556-.928 25.421-1.939z" fill="#fff"/><path d="M175.56 96.716a1 1 0 0 1-1-1.079l1.94-24.323a1 1 0 0 1 .955-.92c8.926-.369 12.942-.753 20.232-1.449 1.544-.148 3.232-.309 5.141-.487a1 1 0 0 1 1.09 1.075l-2.026 25.45a1 1 0 0 1-1 .921c-1.349 0-2.69.015-4.031.039-6.729.1-13.878.362-21.25.771zm2.864-24.361-1.776 22.3c7-.375 13.78-.615 20.186-.713q1.565-.027 3.137-.036l1.858-23.346-3.952.375c-7.077.677-11.085 1.059-19.453 1.42z" fill="#112c41"/><path d="M170.263 61.012c-13.046-.279-28.121-6.8-29.173-16.271-1.05-9.457 12.336-13.671 25.38-13.336 14.744.379 28.248 7.585 28.567 16.165.292 7.839-10.579 13.746-24.774 13.442z" fill="#7bdaac"/><path d="M171.316 62.024c-.357 0-.714 0-1.075-.012-13.669-.292-29.041-7.257-30.141-17.161a9.332 9.332 0 0 1 2.543-7.62c4.921-5.358 15.555-7.028 23.857-6.825 15.682.4 29.21 8.246 29.54 17.127a10.146 10.146 0 0 1-3.192 7.544c-4.316 4.38-12.309 6.946-21.532 6.947zm-6.351-29.638c-9.394 0-17.3 2.33-20.852 6.2a7.411 7.411 0 0 0-2.03 6.047c.97 8.732 15.641 15.114 28.2 15.382 9 .214 17.1-2.236 21.134-6.338a8.1 8.1 0 0 0 2.619-6.066c-.287-7.73-13.18-14.833-27.592-15.2q-.744-.025-1.479-.025z" fill="#112c41"/><path d="M202.921 69.454c-1.426.138-2.861.274-4.3.411a651.634 651.634 0 0 1-21.145 1.607h-.01l-40.645-48.3a250.558 250.558 0 0 0 26.388-1.07c.031-.008.07 0 .1-.012z" fill="#fff"/><path d="M177.48 72.472h-.1a1.027 1.027 0 0 1-.676-.352l-40.645-48.3a1 1 0 0 1-.138-1.074 1.033 1.033 0 0 1 .92-.57 249.49 249.49 0 0 0 26.276-1.065l.049-.006a1.011 1.011 0 0 1 .914.347l39.607 47.363a1 1 0 0 1-.671 1.636l-4.3.411a654.63 654.63 0 0 1-21.18 1.61zM139 24.2l38.918 46.245a650.722 650.722 0 0 0 20.619-1.576l2.4-.228-38.052-45.5c-8.721.759-16.558 1.116-23.885 1.059z" fill="#112c41"/><ellipse cx="87.718" cy="24.834" fill="#7bdaac" rx="4.794" ry="8.517" transform="matrix(.43337598 -.90121321 .90121321 .43337598 27.323 93.124)"/><path d="M91.117 31.516a13.96 13.96 0 0 1-5.91-1.461 13.527 13.527 0 0 1-5.2-4.2c-1.273-1.822-1.579-3.649-.861-5.143s2.336-2.394 4.555-2.538a13.459 13.459 0 0 1 6.533 1.442c4.809 2.312 7.474 6.417 6.067 9.345-.719 1.493-2.336 2.4-4.555 2.538-.209.011-.418.017-.629.017zm-6.789-11.365c-.171 0-.338.006-.5.016-1.444.093-2.494.607-2.88 1.409s-.132 1.943.7 3.129a11.483 11.483 0 0 0 4.432 3.547 11.513 11.513 0 0 0 5.533 1.248c1.444-.093 2.494-.606 2.88-1.409.778-1.617-1.138-4.757-5.13-6.676a11.918 11.918 0 0 0-5.035-1.264z" fill="#112c41"/><path d="M71.2 51.42c-9.038-8.7-23.575-21.362-23.575-21.362" fill="#7bdaac"/><path d="M71.2 52.42a1 1 0 0 1-.693-.279c-8.917-8.584-23.393-21.2-23.538-21.329a1 1 0 1 1 1.31-1.512c.146.127 14.66 12.778 23.611 21.4a1 1 0 0 1-.69 1.72z" fill="#112c41"/><path d="M112.825 88.11a323.724 323.724 0 0 1 43.126-4.468" fill="#7bdaac"/><path d="M112.824 89.11a1 1 0 0 1-.176-1.985 327.139 327.139 0 0 1 43.285-4.483 1 1 0 0 1 .037 2A324.414 324.414 0 0 0 113 89.094a.982.982 0 0 1-.176.016z" fill="#112c41"/><path d="M262.724 73.577c-7.424.832-17.488 1.668-25.644 2.245" fill="#7bdaac"/><path d="M237.079 76.823a1 1 0 0 1-.069-2c9.547-.676 19.119-1.514 25.6-2.242a1 1 0 0 1 .222 1.989c-6.509.729-16.111 1.57-25.684 2.248q-.033.005-.069.005z" fill="#112c41"/><ellipse cx="236.042" cy="53.956" fill="#7bdaac" rx="8.845" ry="4.794" transform="matrix(.99411699 -.10831167 .10831167 .99411699 -4.455 25.882)"/><path d="M234.8 59.819c-4.624 0-8.234-1.942-8.545-4.8-.352-3.23 3.672-6.228 9.159-6.826a14.356 14.356 0 0 1 6.857.787c2.114.864 3.378 2.252 3.558 3.906.351 3.229-3.672 6.227-9.16 6.826a17.378 17.378 0 0 1-1.869.107zm2.49-9.729a15.146 15.146 0 0 0-1.659.092c-4.6.5-7.582 2.838-7.388 4.621s3.615 3.429 8.209 2.922 7.583-2.838 7.389-4.621c-.1-.878-.944-1.706-2.327-2.273a11.314 11.314 0 0 0-4.224-.738z" fill="#112c41"/></svg></g><g transform="translate(1392.0 1225.0) rotate(65.76916038445832 78.5 105.0) scale(1.0774900658161128 1.0804469963573502)"><svg width="145.709" height="194.364" viewBox="0 0 145.709 194.364"><path d="M24.149 193.364s35.474-10.756 75.146-12.591c0 0-3.013-32.132 9.429-80.055a343.157 343.157 0 0 1 7.407-24.632c6.647-19.447 15.811-40.689 28.433-62.892a1.105 1.105 0 0 0-.519-1.562L119.294 1 1 180.2c13.726 6.207 23.149 13.164 23.149 13.164z" fill="#7cdaac"/><path d="M24.149 194.364c-.211 0-.42-.067-.594-.195-.094-.069-9.507-6.972-22.968-13.058a1.002 1.002 0 0 1-.423-1.462L118.458.449a.999.999 0 0 1 1.229-.368l24.751 10.632c.548.235.971.694 1.16 1.26a2.11 2.11 0 0 1-.166 1.715c-11.511 20.249-21.052 41.352-28.356 62.721a344.881 344.881 0 0 0-7.385 24.561c-12.248 47.176-9.431 79.391-9.4 79.711a1.004 1.004 0 0 1-.95 1.092c-39.083 1.809-74.549 12.442-74.902 12.55a1.058 1.058 0 0 1-.29.041zM2.477 179.777c11.534 5.333 19.952 11.136 21.858 12.49 4.332-1.264 37.418-10.611 73.889-12.443-.374-5.927-1.579-36.562 9.532-79.356a345.655 345.655 0 0 1 7.428-24.705c7.346-21.487 16.937-42.705 28.511-63.063l.35-1.067-.395.919-23.982-10.303z" fill="#112c41"/><path d="M1 180.2c35.679-13.136 70.571-15.583 70.571-15.583 2.482-27.262 7.573-52.528 13.537-74.654a474.718 474.718 0 0 1 7.309-24.478C105.447 25.76 119.294 1 119.294 1 93.817 3.021 65.892 13.203 60.793 15.138a2.2 2.2 0 0 0-1.222 1.09c-10.026 19.689-20.738 45.766-30.27 71.724-.191.527-.395 1.06-.582 1.578a1164.946 1164.946 0 0 0-7.812 22.104c-.178.522-.356 1.044-.529 1.557C10.822 141.332 3.501 166.685 1 180.2z" fill="#ddfeee"/><path d="M1 181.2a1.002 1.002 0 0 1-.984-1.181c2.502-13.52 9.94-39.25 19.414-67.15l.53-1.558a1172.7 1172.7 0 0 1 7.819-22.124l.581-1.576c7.388-20.117 18.643-48.906 30.318-71.838a3.228 3.228 0 0 1 1.772-1.575C65.745 12.19 93.52 2.041 119.214.003c.357-.026.722.146.921.457s.211.706.031 1.028c-.139.247-13.954 25.145-26.799 64.308a473.427 473.427 0 0 0-7.294 24.428c-6.738 24.999-11.283 50.06-13.507 74.484a1 1 0 0 1-.926.906c-.348.024-35.169 2.591-70.296 15.524A.972.972 0 0 1 1 181.2zM117.535 2.156C92.637 4.492 66.283 14.124 61.147 16.072c-.306.111-.538.32-.686.609-11.63 22.843-22.854 51.553-30.221 71.615l-.58 1.572a1179.409 1179.409 0 0 0-7.807 22.089l-.528 1.554c-9.056 26.669-16.241 51.321-19.009 65.146 31.771-11.412 62.857-14.496 68.336-14.969 2.262-24.274 6.799-49.16 13.49-73.986a478.058 478.058 0 0 1 7.325-24.529c11.036-33.648 22.799-56.839 26.068-63.017z" fill="#112c41"/><ellipse cx="58.592" cy="147.556" fill="#7cdaac" rx="8.845" ry="5.503" transform="matrix(.1817 -.9834 .9834 .1817 -97.1525 178.3678)"/><path d="M57.632 157.384c-.281 0-.562-.025-.842-.077-3.625-.669-5.674-5.478-4.664-10.945 1.012-5.47 4.651-9.222 8.267-8.558 3.625.671 5.673 5.479 4.664 10.945-.466 2.518-1.524 4.785-2.983 6.386-1.341 1.471-2.892 2.249-4.442 2.249zm1.926-17.514c-2.239 0-4.606 2.996-5.324 6.88-.765 4.144.584 8.014 2.945 8.449 1.072.203 2.245-.338 3.312-1.509 1.192-1.308 2.065-3.201 2.459-5.33.765-4.144-.584-8.013-2.946-8.449a2.475 2.475 0 0 0-.446-.041zm4.445 8.685h.01z" fill="#112c41"/><ellipse cx="64.965" cy="29.232" fill="#7cdaac" rx="8.845" ry="5.503" transform="matrix(.4876 -.8731 .8731 .4876 7.7692 71.7)"/><path d="M62.479 38.486a4.758 4.758 0 0 1-2.349-.596c-3.219-1.799-3.616-7.009-.905-11.863 2.712-4.855 7.36-7.25 10.575-5.453 3.218 1.797 3.616 7.008.905 11.863-2.101 3.763-5.365 6.049-8.226 6.049zm4.97-16.365c-2.053 0-4.683 1.96-6.353 4.95-2.055 3.679-2.019 7.775.079 8.947 2.098 1.173 5.604-.946 7.659-4.627 2.054-3.679 2.018-7.776-.079-8.947a2.656 2.656 0 0 0-1.306-.323zm2.321 9.793h.01z" fill="#112c41"/><path d="M108.724 100.718a343.157 343.157 0 0 1 7.407-24.632L92.417 65.484a474.718 474.718 0 0 0-7.309 24.478z" fill="#fff"/><path d="M108.724 101.718a.993.993 0 0 1-.414-.09L84.694 90.873a1.002 1.002 0 0 1-.552-1.171 478.058 478.058 0 0 1 7.325-24.529.999.999 0 0 1 1.358-.602l23.713 10.601a1 1 0 0 1 .538 1.236 344.881 344.881 0 0 0-7.385 24.561.998.998 0 0 1-.967.749zm-22.43-12.314 21.763 9.911a345.635 345.635 0 0 1 6.833-22.689l-21.867-9.775a475.522 475.522 0 0 0-6.729 22.553z" fill="#112c41"/><path d="M70.635 91.989c-4.374 12.294-15.311 24.548-24.632 22.563-9.307-1.982-9.089-16.014-4.663-28.289 5.003-13.874 16.096-24.421 24.34-22.021 7.532 2.193 9.714 14.37 4.955 27.747z" fill="#7cdaac"/><path d="M47.994 115.759c-.741 0-1.475-.074-2.199-.229-2.826-.602-4.989-2.222-6.432-4.814-3.535-6.357-1.782-16.975 1.036-24.792 5.322-14.758 17.033-25.122 25.561-22.642 2.605.758 4.733 2.628 6.154 5.406 2.907 5.684 2.707 14.52-.537 23.636-4.243 11.924-14.372 23.435-23.583 23.435zm15.282-50.851c-7.236 0-16.555 9.378-20.996 21.693-3.405 9.447-3.854 18.314-1.169 23.143 1.148 2.065 2.864 3.354 5.1 3.829 8.581 1.846 19.271-10.082 23.481-21.919 3.018-8.479 3.263-16.931.642-22.055-1.181-2.309-2.841-3.788-4.933-4.397a7.6 7.6 0 0 0-2.125-.294z" fill="#112c41"/><path d="m20.907 111.633 64.201-21.671a474.718 474.718 0 0 1 7.309-24.478L29.301 87.951c-.191.527-.395 1.06-.582 1.578a1176.99 1176.99 0 0 0-7.812 22.104z" fill="#fff"/><path d="M20.907 112.633a1 1 0 0 1-.946-1.324 1177.368 1177.368 0 0 1 7.819-22.122l.581-1.576c.103-.281.324-.501.605-.602l63.116-22.467a1 1 0 0 1 1.285 1.254 473.427 473.427 0 0 0-7.294 24.428 1 1 0 0 1-.646.687l-64.201 21.67a1.03 1.03 0 0 1-.319.052zm9.171-23.896-.418 1.132a1159.81 1159.81 0 0 0-7.146 20.167l61.769-20.849a477.13 477.13 0 0 1 6.555-22.078z" fill="#112c41"/><path d="M84.533 169.95c.463-13.525 2.349-26.814 3.684-33.701" fill="#7cdaac"/><g fill="#112c41"><path d="m84.535 170.95-.035-.001a1 1 0 0 1-.965-1.033c.451-13.226 2.275-26.504 3.701-33.857a1 1 0 1 1 1.963.381c-1.411 7.281-3.218 20.436-3.666 33.545a.999.999 0 0 1-.998.965z"/><path d="M99.024 181.621a.994.994 0 0 1-.656-.246c-.123-.106-12.422-10.719-27.127-15.812a1 1 0 0 1 .654-1.89c15.081 5.225 27.66 16.086 27.785 16.195a.998.998 0 0 1-.656 1.753z"/></g></svg></g><g transform="translate(497.0 477.0) rotate(9.903067592139514 162.0 139.0) scale(1.2132604877756517 1.2061156135570867)"><svg width="267.049" height="230.492" viewBox="0 0 267.049 230.492"><circle cx="237.478" cy="84.689" fill="#ffd6c0" r="28.57"/><path d="M239.064 113.215a28.569 28.569 0 0 0 26.984-28.6 28.572 28.572 0 0 1-55.55-7.7q-.039-.765-.039-1.522a28.59 28.59 0 0 0 28.6 37.824z" fill="#f5b9ab"/><path d="M237.491 114.259a29.664 29.664 0 0 1-20.626-8.37 1 1 0 1 1 1.394-1.433 27.679 27.679 0 0 0 20.747 7.761 27.57 27.57 0 1 0-29.093-28.088 1.016 1.016 0 0 1-1.019.98 1 1 0 0 1-.981-1.019A29.571 29.571 0 0 1 267 83.051a29.57 29.57 0 0 1-27.887 31.162q-.813.045-1.622.046z" fill="#112c41"/><path d="M224.133 93.791a1 1 0 0 1-.927-.622 18.121 18.121 0 0 1 9.616-23.718 17.634 17.634 0 0 1 15.378 1.024 1 1 0 1 1-.98 1.744 15.659 15.659 0 0 0-13.642-.917 16.121 16.121 0 0 0-8.519 21.111 1 1 0 0 1-.925 1.378z" fill="#112c41"/><circle cx="139.02" cy="126.977" fill="#ffd6c0" r="102.5"/><path d="M85.849 39.346c.3-.179.6-.341.893-.517l12.185 7.207C53.322 73.888 37.991 130.909 65.3 175.917c27.359 45.089 87.153 61.047 132.952 33.258A98.411 98.411 0 0 0 210.98 200 102.511 102.511 0 1 1 85.849 39.346z" fill="#f5b9ab"/><g fill="#112c41"><path d="M139.19 230.453a103.539 103.539 0 0 1-88.656-49.786A103.5 103.5 0 1 1 227.505 73.288a103.464 103.464 0 0 1-88.315 157.165zM52.244 179.63a101.5 101.5 0 1 0-11.815-76.782 101.619 101.619 0 0 0 11.815 76.782z"/><ellipse cx="119.578" cy="114.282" rx="6.828" ry="9.104" transform="matrix(.88298037 -.46940992 .46940992 .88298037 -39.653 69.506)"/><ellipse cx="98.237" cy="84.337" rx="14.13" ry="9.336" transform="matrix(.77004578 -.63798863 .63798863 .77004578 -31.216 82.068)"/><ellipse cx="184.169" cy="56.381" rx="8.6" ry="13.016" transform="matrix(.05862688 -.99827997 .99827997 .05862688 117.086 236.927)"/><path d="M183.505 49.762c.348 0 .7.01 1.051.031 5.961.35 10.82 3.663 10.61 7.234-.193 3.294-4.829 5.973-10.334 5.973-.348 0-.7-.011-1.051-.031-5.961-.35-10.819-3.663-10.61-7.235.194-3.293 4.83-5.973 10.334-5.973m0-2c-6.653 0-12.067 3.374-12.331 7.856-.278 4.741 5.314 8.927 12.49 9.348q.589.035 1.168.035c6.653 0 12.068-3.375 12.331-7.857.278-4.741-5.314-8.926-12.49-9.348q-.589-.034-1.168-.034z"/><ellipse cx="184.703" cy="89.853" rx="6.828" ry="9.104" transform="matrix(.95494228 -.29679159 .29679159 .95494228 -18.346 58.868)"/><path d="M141.387 123.839c5.779 11.079 16.366 17.191 25.211 13.944s12.962-14.758 10.2-26.944z"/><path d="M161.66 139.651c-7.878 0-16.176-5.8-21.16-15.349a1 1 0 0 1 .542-1.4l35.411-13a1 1 0 0 1 1.32.718c2.925 12.906-1.629 24.726-10.831 28.1a15.248 15.248 0 0 1-5.282.931zm-18.843-15.272c5.736 10.175 15.449 15.4 23.436 12.465s12.014-13.2 9.8-24.668z"/></g><path d="M172.664 132.8c-4.282-2.943-10.72-2.981-16.217.355a17.715 17.715 0 0 0-3.694 2.974c4.5 2.555 9.392 3.293 13.845 1.658a14.687 14.687 0 0 0 6.438-4.719q-.183-.142-.372-.268z" fill="#ffa6e0"/><path d="M161.67 139.646a19.1 19.1 0 0 1-9.411-2.652 1 1 0 0 1-.233-1.556 18.713 18.713 0 0 1 3.9-3.141c5.647-3.429 12.6-3.557 17.3-.325q.207.142.406.291a1 1 0 0 1 .181 1.424 15.609 15.609 0 0 1-6.875 5.033 15.212 15.212 0 0 1-5.268.926zm-7.235-3.765a15.02 15.02 0 0 0 11.818.963 13.436 13.436 0 0 0 5.294-3.577c-4.05-2.423-9.816-2.153-14.582.739a16.928 16.928 0 0 0-2.53 1.875z" fill="#112c41"/><circle cx="31.504" cy="164.725" fill="#ffd6c0" r="30.5"/><path d="M61.661 169.937a33.288 33.288 0 0 1-4.42 6.2c-11.072 12.7-30.711 13.559-43.4 2.494-8.341-7.256-11.164-17.571-9.412-27.709-6.351 12.195-4.408 27.109 6.423 36.553a30.493 30.493 0 0 0 43.033-2.945c3.806-4.362 6.864-9.263 7.776-14.593z" fill="#f5b9ab"/><path d="M31.562 196.238a31.7 31.7 0 0 1-7.546-.916 31.5 31.5 0 0 1-8.852-57.522 31.614 31.614 0 0 1 41.959 8.6 1 1 0 1 1-1.628 1.162 29.609 29.609 0 0 0-39.295-8.057 29.5 29.5 0 1 0 30.605 50.441A31.465 31.465 0 0 0 60.68 169.74a1 1 0 1 1 1.961.395 33.52 33.52 0 0 1-14.8 21.52 31.312 31.312 0 0 1-16.279 4.583z" fill="#112c41"/><path d="M14.894 164.787a1 1 0 0 1-.98-1.2 18.756 18.756 0 0 1 9.908-13.061 19.278 19.278 0 0 1 25.753 8.834 1 1 0 1 1-1.785.9 17.275 17.275 0 0 0-23.065-7.951 16.765 16.765 0 0 0-8.852 11.68 1 1 0 0 1-.979.798z" fill="#112c41"/><path d="M30.5 124.339c15.441-22.283 39.375-43.273 69.326-58.78A213.343 213.343 0 0 1 138.318 50.1a64.028 64.028 0 0 0-14.207-23.569c.149.073.307.141.448.219a75.854 75.854 0 0 1 25.665 20.3c2.48-.558 4.944-1.047 7.4-1.494 18.033-3.245 35.258-3.521 50.535-.918a1.861 1.861 0 0 0 1.884-2.851 89.532 89.532 0 0 0-21.923-22.749C157.148-3.4 112.834-5.685 76.132 16.585a108.767 108.767 0 0 0-17.117 12.831C32.039 54.182 20.3 90.489 27.853 123.815a1.477 1.477 0 0 0 2.647.524z" fill="#fcaa51"/><path d="M30.5 124.339a155.947 155.947 0 0 1 13.334-16.618c-6.51-29.679 4.019-61.928 28.015-83.951A98.052 98.052 0 0 1 99.505 5.948a109.1 109.1 0 0 0-40.49 23.468C32.039 54.182 20.3 90.489 27.853 123.815a1.477 1.477 0 0 0 2.647.524z" fill="#ff9522"/><path d="M29.245 125.8a2.424 2.424 0 0 1-.479-.048 2.672 2.672 0 0 1-2.007-2.258C19.545 89.51 31.647 53.18 58.341 28.681A109.929 109.929 0 0 1 75.613 15.73 106.707 106.707 0 0 1 134.305.048a97.23 97.23 0 0 1 54.4 18.18 89.87 89.87 0 0 1 22.069 22.854 2.9 2.9 0 0 1 .193 3.25 3.1 3.1 0 0 1-3.152 1.264c-17.291-2.923-37.131-2.082-57.374 2.428a1.007 1.007 0 0 1-.987-.337 76.831 76.831 0 0 0-21.112-17.866 66.794 66.794 0 0 1 10.918 19.951 1 1 0 0 1-.666 1.287 212.549 212.549 0 0 0-38.307 15.386C71.879 81.151 47.5 101.756 31.63 124.464a2.97 2.97 0 0 1-2.385 1.336zm29.773-96.38.676.736c-26.176 24.021-38.046 59.627-30.979 92.92.042.2.169.657.449.714a.933.933 0 0 0 .826-.471c16.048-22.97 40.687-43.8 69.378-58.649a214.69 214.69 0 0 1 37.651-15.233 62.881 62.881 0 0 0-13.629-22.21 1 1 0 0 1 1.137-1.6A76.628 76.628 0 0 1 150.6 45.94c20.288-4.451 40.174-5.253 57.548-2.316a1.133 1.133 0 0 0 1.14-.378 1 1 0 0 0-.176-1.053 87.9 87.9 0 0 0-21.58-22.346 95.239 95.239 0 0 0-53.288-17.8 104.741 104.741 0 0 0-57.593 15.392 107.985 107.985 0 0 0-16.957 12.715zM198.6 115.551a22.539 22.539 0 0 1-4.937-.57 31.953 31.953 0 0 1-16.637-10.364 31.95 31.95 0 0 1-8.089-17.853c-.565-6.307 1.333-11.715 5.343-15.229s9.62-4.686 15.8-3.3a33.805 33.805 0 0 1 24.72 28.221c.565 6.307-1.333 11.716-5.343 15.229a16.152 16.152 0 0 1-10.857 3.866zm-13.449-45.922a14.242 14.242 0 0 0-9.584 3.379c-3.527 3.089-5.19 7.914-4.682 13.582a30 30 0 0 0 7.611 16.738 30 30 0 0 0 15.594 9.744c5.552 1.248 10.553.232 14.08-2.859 3.527-3.09 5.19-7.914 4.682-13.582a31.856 31.856 0 0 0-23.205-26.483 20.582 20.582 0 0 0-4.496-.519zm-68.7 78.582c-11.468 0-21.021-11.958-21.384-26.9a31.874 31.874 0 0 1 5.626-19.422c3.866-5.34 9.131-8.357 14.826-8.5 5.7-.16 11.1 2.617 15.221 7.764a31.876 31.876 0 0 1 6.564 19.125c.367 15.11-8.807 27.635-20.452 27.918a3.85 3.85 0 0 1-.401.015zm-.524-52.765h-.356c-5.039.123-9.732 2.839-13.214 7.647a29.818 29.818 0 0 0-5.236 18.168c.336 13.823 8.973 24.894 19.33 24.894h.353c10.513-.257 18.79-11.838 18.45-25.816a29.817 29.817 0 0 0-6.114-17.893c-3.625-4.524-8.305-7-13.215-7z" fill="#112c41"/><path d="M134.849 112.312a1 1 0 0 1-.822-1.567c7.29-10.57 23.564-19.278 39.367-14.593a1 1 0 0 1-.569 1.918c-14.357-4.256-30.165 3.681-37.152 13.81a1 1 0 0 1-.824.432zm-89.044 25.803a1 1 0 0 1-.728-1.686c10.54-11.19 32.406-18.714 50.861-17.5a1 1 0 0 1 .932 1.063 1.016 1.016 0 0 1-1.063.933c-20.417-1.354-40.625 7.694-49.274 16.878a1 1 0 0 1-.728.312zm162.324-55.631a1 1 0 0 1-.807-1.589c3.746-5.139 12.54-9.978 18.121-9.978h.036a1 1 0 0 1 0 2 .2.2 0 0 1-.035 0c-4.965 0-13.127 4.526-16.5 9.156a1 1 0 0 1-.815.411z" fill="#112c41"/></svg></g><g transform="translate(258.0 1349.0) rotate(0.0 731.5 30.0) scale(1.2117999329078641 1.2322352747884662)"><svg width="1207.295" height="48.692" viewBox="0 0 1207.295 48.692"><path d="M1192.089 1.201c7.845 0 14.206 6.36 14.206 14.206v18.08c0 7.846-6.36 14.206-14.206 14.206H31.283a16.762 16.762 0 0 1-16.316-12.914L7.038 1.201z" fill="#b2b0f7"/><path d="M1192.089 48.692H31.283a17.7 17.7 0 0 1-17.29-13.685L6.064 1.43A1 1 0 0 1 7.037.2h1185.052c8.385 0 15.206 6.821 15.206 15.206v18.079c0 8.386-6.821 15.207-15.206 15.207zM8.301 2.201l7.64 32.348a15.707 15.707 0 0 0 15.343 12.144H1192.09c7.282 0 13.206-5.924 13.206-13.206v-18.08c0-7.282-5.924-13.206-13.206-13.206z" fill="#112c41"/><path d="M343.734 34.684c1.585 6.594-3.51 12.914-10.41 12.914H25.788c-7.918 0-15.424-4.572-17.239-12.14L1 1l334.657.108z" fill="#cbc8ff"/><path d="M333.323 48.598H25.788c-8.899 0-16.388-5.308-18.211-12.906L.024 1.214A.997.997 0 0 1 1 0l334.657.107a1 1 0 0 1 .973.767l8.076 33.576a11.302 11.302 0 0 1-2.138 9.69c-2.231 2.834-5.601 4.458-9.245 4.458zM2.243 2l7.283 33.244c1.603 6.677 8.291 11.354 16.262 11.354h307.535c3.026 0 5.824-1.347 7.675-3.694a9.316 9.316 0 0 0 1.763-7.986l-7.892-32.81z" fill="#112c41"/></svg></g><g transform="translate(1251.0 507.0) rotate(0.0 92.0 122.5) scale(1.2627909051602852 1.2605214957502417)"><svg width="145.709" height="194.364" viewBox="0 0 145.709 194.364"><path d="M24.149 193.364s35.474-10.756 75.146-12.591c0 0-3.013-32.132 9.429-80.055a343.157 343.157 0 0 1 7.407-24.632c6.647-19.447 15.811-40.689 28.433-62.892a1.105 1.105 0 0 0-.519-1.562L119.294 1 1 180.2c13.726 6.207 23.149 13.164 23.149 13.164z" fill="#7cdaac"/><path d="M24.149 194.364c-.211 0-.42-.067-.594-.195-.094-.069-9.507-6.972-22.968-13.058a1.002 1.002 0 0 1-.423-1.462L118.458.449a.999.999 0 0 1 1.229-.368l24.751 10.632c.548.235.971.694 1.16 1.26a2.11 2.11 0 0 1-.166 1.715c-11.511 20.249-21.052 41.352-28.356 62.721a344.881 344.881 0 0 0-7.385 24.561c-12.248 47.176-9.431 79.391-9.4 79.711a1.004 1.004 0 0 1-.95 1.092c-39.083 1.809-74.549 12.442-74.902 12.55a1.058 1.058 0 0 1-.29.041zM2.477 179.777c11.534 5.333 19.952 11.136 21.858 12.49 4.332-1.264 37.418-10.611 73.889-12.443-.374-5.927-1.579-36.562 9.532-79.356a345.655 345.655 0 0 1 7.428-24.705c7.346-21.487 16.937-42.705 28.511-63.063l.35-1.067-.395.919-23.982-10.303z" fill="#112c41"/><path d="M1 180.2c35.679-13.136 70.571-15.583 70.571-15.583 2.482-27.262 7.573-52.528 13.537-74.654a474.718 474.718 0 0 1 7.309-24.478C105.447 25.76 119.294 1 119.294 1 93.817 3.021 65.892 13.203 60.793 15.138a2.2 2.2 0 0 0-1.222 1.09c-10.026 19.689-20.738 45.766-30.27 71.724-.191.527-.395 1.06-.582 1.578a1164.946 1164.946 0 0 0-7.812 22.104c-.178.522-.356 1.044-.529 1.557C10.822 141.332 3.501 166.685 1 180.2z" fill="#ddfeee"/><path d="M1 181.2a1.002 1.002 0 0 1-.984-1.181c2.502-13.52 9.94-39.25 19.414-67.15l.53-1.558a1172.7 1172.7 0 0 1 7.819-22.124l.581-1.576c7.388-20.117 18.643-48.906 30.318-71.838a3.228 3.228 0 0 1 1.772-1.575C65.745 12.19 93.52 2.041 119.214.003c.357-.026.722.146.921.457s.211.706.031 1.028c-.139.247-13.954 25.145-26.799 64.308a473.427 473.427 0 0 0-7.294 24.428c-6.738 24.999-11.283 50.06-13.507 74.484a1 1 0 0 1-.926.906c-.348.024-35.169 2.591-70.296 15.524A.972.972 0 0 1 1 181.2zM117.535 2.156C92.637 4.492 66.283 14.124 61.147 16.072c-.306.111-.538.32-.686.609-11.63 22.843-22.854 51.553-30.221 71.615l-.58 1.572a1179.409 1179.409 0 0 0-7.807 22.089l-.528 1.554c-9.056 26.669-16.241 51.321-19.009 65.146 31.771-11.412 62.857-14.496 68.336-14.969 2.262-24.274 6.799-49.16 13.49-73.986a478.058 478.058 0 0 1 7.325-24.529c11.036-33.648 22.799-56.839 26.068-63.017z" fill="#112c41"/><ellipse cx="58.592" cy="147.556" fill="#7cdaac" rx="8.845" ry="5.503" transform="matrix(.1817 -.9834 .9834 .1817 -97.1525 178.3678)"/><path d="M57.632 157.384c-.281 0-.562-.025-.842-.077-3.625-.669-5.674-5.478-4.664-10.945 1.012-5.47 4.651-9.222 8.267-8.558 3.625.671 5.673 5.479 4.664 10.945-.466 2.518-1.524 4.785-2.983 6.386-1.341 1.471-2.892 2.249-4.442 2.249zm1.926-17.514c-2.239 0-4.606 2.996-5.324 6.88-.765 4.144.584 8.014 2.945 8.449 1.072.203 2.245-.338 3.312-1.509 1.192-1.308 2.065-3.201 2.459-5.33.765-4.144-.584-8.013-2.946-8.449a2.475 2.475 0 0 0-.446-.041zm4.445 8.685h.01z" fill="#112c41"/><ellipse cx="64.965" cy="29.232" fill="#7cdaac" rx="8.845" ry="5.503" transform="matrix(.4876 -.8731 .8731 .4876 7.7692 71.7)"/><path d="M62.479 38.486a4.758 4.758 0 0 1-2.349-.596c-3.219-1.799-3.616-7.009-.905-11.863 2.712-4.855 7.36-7.25 10.575-5.453 3.218 1.797 3.616 7.008.905 11.863-2.101 3.763-5.365 6.049-8.226 6.049zm4.97-16.365c-2.053 0-4.683 1.96-6.353 4.95-2.055 3.679-2.019 7.775.079 8.947 2.098 1.173 5.604-.946 7.659-4.627 2.054-3.679 2.018-7.776-.079-8.947a2.656 2.656 0 0 0-1.306-.323zm2.321 9.793h.01z" fill="#112c41"/><path d="M108.724 100.718a343.157 343.157 0 0 1 7.407-24.632L92.417 65.484a474.718 474.718 0 0 0-7.309 24.478z" fill="#fff"/><path d="M108.724 101.718a.993.993 0 0 1-.414-.09L84.694 90.873a1.002 1.002 0 0 1-.552-1.171 478.058 478.058 0 0 1 7.325-24.529.999.999 0 0 1 1.358-.602l23.713 10.601a1 1 0 0 1 .538 1.236 344.881 344.881 0 0 0-7.385 24.561.998.998 0 0 1-.967.749zm-22.43-12.314 21.763 9.911a345.635 345.635 0 0 1 6.833-22.689l-21.867-9.775a475.522 475.522 0 0 0-6.729 22.553z" fill="#112c41"/><path d="M70.635 91.989c-4.374 12.294-15.311 24.548-24.632 22.563-9.307-1.982-9.089-16.014-4.663-28.289 5.003-13.874 16.096-24.421 24.34-22.021 7.532 2.193 9.714 14.37 4.955 27.747z" fill="#7cdaac"/><path d="M47.994 115.759c-.741 0-1.475-.074-2.199-.229-2.826-.602-4.989-2.222-6.432-4.814-3.535-6.357-1.782-16.975 1.036-24.792 5.322-14.758 17.033-25.122 25.561-22.642 2.605.758 4.733 2.628 6.154 5.406 2.907 5.684 2.707 14.52-.537 23.636-4.243 11.924-14.372 23.435-23.583 23.435zm15.282-50.851c-7.236 0-16.555 9.378-20.996 21.693-3.405 9.447-3.854 18.314-1.169 23.143 1.148 2.065 2.864 3.354 5.1 3.829 8.581 1.846 19.271-10.082 23.481-21.919 3.018-8.479 3.263-16.931.642-22.055-1.181-2.309-2.841-3.788-4.933-4.397a7.6 7.6 0 0 0-2.125-.294z" fill="#112c41"/><path d="m20.907 111.633 64.201-21.671a474.718 474.718 0 0 1 7.309-24.478L29.301 87.951c-.191.527-.395 1.06-.582 1.578a1176.99 1176.99 0 0 0-7.812 22.104z" fill="#fff"/><path d="M20.907 112.633a1 1 0 0 1-.946-1.324 1177.368 1177.368 0 0 1 7.819-22.122l.581-1.576c.103-.281.324-.501.605-.602l63.116-22.467a1 1 0 0 1 1.285 1.254 473.427 473.427 0 0 0-7.294 24.428 1 1 0 0 1-.646.687l-64.201 21.67a1.03 1.03 0 0 1-.319.052zm9.171-23.896-.418 1.132a1159.81 1159.81 0 0 0-7.146 20.167l61.769-20.849a477.13 477.13 0 0 1 6.555-22.078z" fill="#112c41"/><path d="M84.533 169.95c.463-13.525 2.349-26.814 3.684-33.701" fill="#7cdaac"/><g fill="#112c41"><path d="m84.535 170.95-.035-.001a1 1 0 0 1-.965-1.033c.451-13.226 2.275-26.504 3.701-33.857a1 1 0 1 1 1.963.381c-1.411 7.281-3.218 20.436-3.666 33.545a.999.999 0 0 1-.998.965z"/><path d="M99.024 181.621a.994.994 0 0 1-.656-.246c-.123-.106-12.422-10.719-27.127-15.812a1 1 0 0 1 .654-1.89c15.081 5.225 27.66 16.086 27.785 16.195a.998.998 0 0 1-.656 1.753z"/></g></svg></g></svg>