<svg xmlns="http://www.w3.org/2000/svg" viewBox="0 0 1800 1800" width="1800" height="1800"><g transform="translate(584.0 731.0) rotate(0.0 370.0 447.5) scale(0.999839215045148 0.9989898482540002)"><svg width="740.119" height="895.905" viewBox="0 0 740.119 895.905"><path d="M317.972 686.082a839.092 839.092 0 0 1-24.061-30.833l-.139-.168c-.049-.07-.1-.132-.141-.182-7.964-10.713-15.707-21.1-22.393-30.234 0 0-72.431 58.308-115.71 84.944 7.686 9.987 14.1 18.21 22.662 28.437a14893.137 14893.137 0 0 0 27.338 32.563z" fill="#ffd6c0"/><path d="m253.882 627.5 51.585 68.188c4.692-.3 13.794-.8 16.871-1.525a233344.717 233344.717 0 0 1-54.684-73.176z" fill="#f5b9ab"/><path d="M205.529 771.609a1 1 0 0 1-.765-.356c-.126-.149-12.788-15.18-27.34-32.565-8.892-10.617-15.535-19.175-22.688-28.469a1 1 0 0 1 .268-1.462c42.731-26.3 114.884-84.288 115.607-84.871a1.024 1.024 0 0 1 .757-.213 1 1 0 0 1 .677.4c5.906 8.065 12.567 17.022 19.62 26.5l2.769 3.723c.067.084.115.144.16.209l.092.105c8.126 10.914 15.762 20.7 24.059 30.833a1 1 0 0 1-.173 1.432l-112.443 84.533a.992.992 0 0 1-.6.201zM157 709.877c6.885 8.941 13.373 17.274 21.96 27.527a15484.013 15484.013 0 0 0 26.727 31.837l110.854-83.332c-8.063-9.871-15.526-19.448-23.428-30.063l-.112-.132-.095-.124-.072-.091-2.771-3.726c-6.81-9.158-13.255-17.824-19.011-25.674-8.067 6.457-73.6 58.695-114.052 83.778z" fill="#112c41"/><path d="M205.248 873.128c47.943-17.85 97.032-59.566 132.66-101.467a384.818 384.818 0 0 0 27.361-36.1s-30.089-30.376-47.3-49.477l-9.063 6.853s-103.054 77.534-103.381 77.674c-4.425 10.263-22.696 59.212-.277 102.517z" fill="#b2b0f7"/><path d="M205.248 874.128a1 1 0 0 1-.887-.54c-23.034-44.489-3.833-93.918.25-103.376a1 1 0 0 1 .38-.446c1.94-1.359 102.3-76.867 103.316-77.631l9.061-6.851a1 1 0 0 1 1.347.129c17 18.864 46.964 49.139 47.265 49.443a1 1 0 0 1 .122 1.256 384.607 384.607 0 0 1-27.433 36.2C298 820.146 248.248 858.186 205.6 874.066a1.012 1.012 0 0 1-.352.062zm1.1-102.9c-2.848 6.675-22.79 56.758-.617 100.646 42.16-15.948 91.213-53.587 131.413-100.865a384.234 384.234 0 0 0 26.84-35.33c-4.194-4.245-30.345-30.781-46.142-48.25l-8.332 6.3c-87.638 65.941-101.023 75.944-103.16 77.503z" fill="#360815"/><path d="M365.269 735.559s-30.089-30.376-47.3-49.477l-9.569 10.407c12.779 18.485 33.184 47.062 36.23 67.352.028.213 12.907-16.62 20.639-28.282z" fill="#9797f7"/><path d="M318.262 795.781a2.5 2.5 0 0 1-1.948-.93c-10.959-13.587-17.529-32.861-18.025-52.88-.533-21.571 6.077-40.871 18.611-54.371a2.5 2.5 0 1 1 3.663 3.4c-25 26.9-20.809 75.357-.361 100.705a2.5 2.5 0 0 1-1.944 4.07z" fill="#fff"/><path d="M205.248 874.128a1 1 0 0 1-.887-.54c-23.034-44.489-3.833-93.918.25-103.376a1 1 0 0 1 .38-.446c1.94-1.359 102.3-76.867 103.316-77.631l9.061-6.851a1 1 0 0 1 1.347.129c17 18.864 46.964 49.139 47.265 49.443a1 1 0 0 1 .122 1.256 384.607 384.607 0 0 1-27.433 36.2C298 820.146 248.248 858.186 205.6 874.066a1.012 1.012 0 0 1-.352.062zm1.1-102.9c-2.848 6.675-22.79 56.758-.617 100.646 42.16-15.948 91.213-53.587 131.413-100.865a384.234 384.234 0 0 0 26.84-35.33c-4.194-4.245-30.345-30.781-46.142-48.25l-8.332 6.3c-87.638 65.941-101.023 75.944-103.16 77.503z" fill="#112c41"/><path d="M217.248 892.93a4.93 4.93 0 0 0 4.105 1.974c32.418-.574 128.082-78.017 160.035-132.672 2.737-4.682 1.651-7.669-.326-10.341l-15.793-16.332c-34.283 51.67-98.106 114.514-160.021 137.569 3.522 7.198 7.473 14.185 12 19.802z" fill="#fff"/><path d="M221.246 895.905a5.909 5.909 0 0 1-4.777-2.347c-4.006-4.97-7.97-11.508-12.119-19.989a1 1 0 0 1 .55-1.377c62.521-23.281 126.525-87.432 159.536-137.185a1 1 0 0 1 1.551-.142L381.78 751.2a.909.909 0 0 1 .085.1c1.954 2.641 3.529 6.065.386 11.44-14.856 25.413-44.79 57.893-80.071 86.885-34.409 28.275-65.373 46.005-80.809 46.275zm-3.22-3.6a3.957 3.957 0 0 0 3.31 1.6c30.708-.544 126.2-75.756 159.189-132.177 2.391-4.09 1.644-6.638-.229-9.189l-14.884-15.391c-33.195 49.588-96.6 112.939-158.779 136.529a102.18 102.18 0 0 0 11.393 18.623z" fill="#112c41"/><path d="M317.968 686.079c-27.47 32.98-76.44 68.53-112.44 84.53 0 0-10.32-12.37-23.26-27.69-.45-.53-.9-1.07-1.35-1.61s-.9-1.08-1.36-1.62-.91-1.09-1.37-1.64c33.09-15.32 79.22-49.94 115.26-83.37 0 0 .06.08.18.22a1.41 1.41 0 0 1 .14.18 2.1 2.1 0 0 1 .14.17 833.651 833.651 0 0 0 24.06 30.83z" fill="#fff"/><path d="M205.528 771.609a1 1 0 0 1-.767-.359c-.1-.124-10.467-12.544-23.256-27.686-.45-.53-.9-1.072-1.355-1.615l-.113-.134c-.41-.493-.82-.985-1.24-1.478l-1.376-1.647a1 1 0 0 1 .348-1.548c30.694-14.212 75.835-46.868 115-83.2a1 1 0 0 1 1.48.134c.007.009.054.069.138.168a2.835 2.835 0 0 1 .181.227 2.282 2.282 0 0 1 .172.219 832.494 832.494 0 0 0 24 30.752 1 1 0 0 1 0 1.273c-26.138 31.382-74.632 67.84-112.8 84.8a1 1 0 0 1-.412.094zm-25.74-33.209.539.645c.417.489.832.987 1.246 1.485l.114.135c.447.538.895 1.075 1.343 1.6a6847.553 6847.553 0 0 1 22.782 27.115c37.56-16.87 84.926-52.47 110.858-83.315a831.586 831.586 0 0 1-23.338-29.923c-38.62 35.708-82.918 67.791-113.544 82.258z" fill="#112c41"/><circle cx="233.118" cy="784.616" fill="#ffe993" r="8.5"/><path d="M233.746 787.5c-11.969 9.537-29.875 13.478-36.331 12.9a2.832 2.832 0 0 1 .5-5.642c4.956.443 22.138-3.187 32.981-12.247a2.832 2.832 0 1 1 3.634 4.344c-.254.217-.518.432-.784.645z" fill="#fff"/><path d="M198.78 801.454c-.531 0-1.017-.02-1.454-.059a3.832 3.832 0 0 1 .683-7.634c4.824.431 21.619-3.135 32.25-12.018a3.832 3.832 0 1 1 4.918 5.878c-.266.222-.535.444-.808.66-11.53 9.187-28.05 13.173-35.589 13.173zm-1.113-5.708a1.832 1.832 0 0 0-.163 3.657c6.194.549 23.859-3.316 35.619-12.686q.39-.31.77-.629a1.832 1.832 0 0 0 .23-2.582 1.837 1.837 0 0 0-2.582-.228c-11.05 9.232-28.655 12.921-33.71 12.475a1.814 1.814 0 0 0-.164-.007z" fill="#112c41"/><circle cx="233.115" cy="811.495" fill="#ffe993" r="8.5"/><path d="M233.657 814.4c-12.246 9.179-32.322 11.72-38.758 10.951a2.832 2.832 0 0 1 .672-5.624c4.941.59 24.284-1.663 35.39-10.4a2.832 2.832 0 0 1 3.5 4.45q-.395.313-.804.623z" fill="#fff"/><path d="M197.328 826.464a22.152 22.152 0 0 1-2.548-.124 3.832 3.832 0 0 1 .91-7.61c4.545.546 23.594-1.493 34.653-10.191a3.832 3.832 0 0 1 4.742 6.022c-.273.214-.55.427-.828.635-11.386 8.534-28.914 11.268-36.929 11.268zm-2.093-5.761a1.832 1.832 0 0 0-.217 3.651c5.823.7 25.668-1.485 38.04-10.758.264-.2.529-.4.789-.607a1.832 1.832 0 1 0-2.269-2.877c-11.511 9.054-31.387 11.166-36.125 10.6a1.783 1.783 0 0 0-.218-.012z" fill="#112c41"/><path d="M556.936 290.992a834.06 834.06 0 0 1-35.47 16.475l-.2.1c-.08.032-.152.071-.21.1-12.234 5.339-24.106 10.535-34.51 14.985 0 0 39.805 84.787 55.977 132.963 11.465-5.231 21.562-10.678 33.459-16.711 20.456-10.368 37.9-19.277 37.9-19.277z" fill="#ffd6c0"/><path d="m485.388 340.194 78.077-34.852c.763-4.639 2.338-13.618 2.324-16.78-31.245 13.739-83.635 36.745-83.635 36.745z" fill="#f5b9ab"/><path d="m541.934 456.98-.354-1.053c-15.969-47.57-55.537-132.008-55.934-132.856l-.44-.937.951-.407c9.059-3.875 19.128-8.27 29.788-12.924l4.715-2.058c.094-.046.162-.078.234-.107l.131-.068c12.471-5.454 23.728-10.683 35.468-16.475l.935-.461 57.752 130.447-.842.43c-.175.089-17.676 9.029-37.9 19.279-3.214 1.629-6.3 3.216-9.31 4.768-8.125 4.183-15.8 8.133-24.186 11.961zM487.9 323.159c4.361 9.347 39.928 85.965 55.226 131.078 7.955-3.664 15.318-7.454 23.093-11.458 3.018-1.553 6.1-3.142 9.321-4.774a14809.96 14809.96 0 0 0 37.05-18.845l-56.146-126.811c-11.433 5.624-22.448 10.731-34.578 16.034l-.395.19-4.725 2.063c-10.293 4.493-20.035 8.745-28.846 12.523z" fill="#112c41"/><path d="M713.69 443.049c-6.56-50.737-36.112-107.979-68.883-152.149a384.713 384.713 0 0 0-28.99-34.808s-36.386 22.45-58.881 34.9l4.629 10.377s52.256 117.9 52.318 118.252c8.999 6.635 52.557 35.487 99.807 23.428z" fill="#b2b0f7"/><path d="M689.9 447c-38.29 0-69.719-21.49-76.611-26.571a1 1 0 0 1-.349-.471c-.891-2.21-51.775-117.018-52.289-118.18l-4.628-10.378a1 1 0 0 1 .428-1.282c22.217-12.3 58.478-34.652 58.841-34.877a1 1 0 0 1 1.252.164 385.109 385.109 0 0 1 29.066 34.9c37.414 50.428 63.235 107.481 69.072 152.616a1 1 0 0 1-.745 1.1A96.92 96.92 0 0 1 689.9 447zm-75.225-28.034c5.86 4.281 50.148 35.022 97.906 23.333-6.013-44.673-31.6-100.961-68.577-150.8a384.481 384.481 0 0 0-28.355-34.126c-5.083 3.126-36.84 22.609-57.426 34.051l4.255 9.541c44.439 100.263 51.162 115.562 52.197 117.997z" fill="#360815"/><path d="M615.817 256.092s-36.386 22.45-58.881 34.9l7.975 11.679c20.894-8.274 53.341-21.7 73.8-20.083.21.017-13.28-16.33-22.894-26.496z" fill="#9797f7"/><path d="M626.769 324.818a98.561 98.561 0 0 1-19.79-2.021c-21.113-4.337-38.426-15.115-48.751-30.347a2.5 2.5 0 1 1 4.138-2.805c20.584 30.365 68.7 37.2 97.974 23.028a2.5 2.5 0 0 1 2.18 4.5c-10.42 5.045-22.843 7.645-35.751 7.645z" fill="#fff"/><path d="M689.9 447c-38.29 0-69.719-21.49-76.611-26.571a1 1 0 0 1-.349-.471c-.891-2.21-51.775-117.018-52.289-118.18l-4.628-10.378a1 1 0 0 1 .428-1.282c22.217-12.3 58.478-34.652 58.841-34.877a1 1 0 0 1 1.252.164 385.109 385.109 0 0 1 29.066 34.9c37.414 50.428 63.235 107.481 69.072 152.616a1 1 0 0 1-.745 1.1A96.92 96.92 0 0 1 689.9 447zm-75.225-28.034c5.86 4.281 50.148 35.022 97.906 23.333-6.013-44.673-31.6-100.961-68.577-150.8a384.481 384.481 0 0 0-28.355-34.126c-5.083 3.126-36.84 22.609-57.426 34.051l4.255 9.541c44.439 100.263 51.162 115.562 52.197 117.997z" fill="#112c41"/><path d="M735.69 435.831a4.933 4.933 0 0 0 2.851-3.554c6.762-31.709-47.073-142.392-93.1-185.864-3.943-3.724-7.1-3.341-10.147-2.018l-19.477 11.7c42.592 45.066 89.4 121.434 97.873 186.957 7.81-1.809 15.51-4.079 22-7.221z" fill="#fff"/><path d="M713.69 444.048a1 1 0 0 1-.993-.871c-8.558-66.164-56.6-143-97.606-186.4a1 1 0 0 1 .212-1.544l19.476-11.7a.923.923 0 0 1 .117-.06c3.013-1.308 6.7-2.068 11.231 2.208 21.4 20.213 46.281 56.709 66.556 97.626 19.772 39.906 30.055 74.076 26.835 89.174a5.911 5.911 0 0 1-3.393 4.245c-5.743 2.778-13.009 5.163-22.21 7.291a1.014 1.014 0 0 1-.225.031zM617.4 256.31c40.808 43.538 88.2 119.617 97.139 185.513a102.189 102.189 0 0 0 20.718-6.892 3.956 3.956 0 0 0 2.309-2.862c6.406-30.038-45.295-140.053-92.809-184.929-3.445-3.254-6.1-3.1-9-1.853z" fill="#112c41"/><path d="M556.932 291c25.924 34.208 49.5 89.942 56.951 128.626 0 0-14.381 7.259-32.228 16.405-.618.318-1.245.635-1.873.951s-1.256.633-1.885.959-.729.349-1.369.673c-9-35-31.3-88.161-55.722-130.82 0 0 .091-.04.255-.126a1.494 1.494 0 0 1 .207-.1 1.9 1.9 0 0 1 .2-.1A840.187 840.187 0 0 0 556.932 291z" fill="#fff"/><path d="M576.528 439.609a1 1 0 0 1-.968-.751c-9.188-35.731-32.061-89.424-55.622-130.572a1 1 0 0 1 .464-1.412c.01 0 .081-.037.2-.1.1-.051.179-.091.259-.124a2.341 2.341 0 0 1 .254-.119 828.461 828.461 0 0 0 35.378-16.436 1 1 0 0 1 1.24.293c24.667 32.551 49.23 88.027 57.135 129.04a1 1 0 0 1-.532 1.082c-.143.073-14.582 7.364-32.222 16.4-.619.318-1.25.636-1.879.954l-.1.05-1.775.9c-.324.163-.509.252-.692.34s-.365.175-.685.337a1 1 0 0 1-.455.118zm-54.316-131.375c23.191 40.706 45.625 93.334 54.977 128.938l.257-.129c.59-.305 1.188-.607 1.785-.908l.1-.05c.626-.316 1.251-.631 1.866-.948a6898.73 6898.73 0 0 1 31.56-16.068c-7.951-40.4-31.934-94.584-56.124-126.812a827.643 827.643 0 0 1-34.421 15.977z" fill="#112c41"/><circle cx="633.759" cy="395.908" fill="#ffe993" r="8.5"/><path d="M636.71 395.947c6.587 13.814 6.382 32.147 4.361 38.305a2.833 2.833 0 0 1-5.383-1.766c1.552-4.728 1.9-22.285-4.481-34.894a2.832 2.832 0 0 1 5.053-2.56c.153.302.304.608.45.915z" fill="#fff"/><path d="M638.384 437.2a3.838 3.838 0 0 1-3.646-5.029c1.511-4.6 1.83-21.769-4.423-34.131a3.832 3.832 0 0 1 6.837-3.463c.157.309.31.622.46.936 6.793 14.245 6.488 32.712 4.409 39.047a3.836 3.836 0 0 1-3.637 2.639zm-4.652-42.724a1.834 1.834 0 0 0-1.632 2.662c6.5 12.85 6.127 30.818 4.539 35.657a1.832 1.832 0 0 0 2.567 2.205 1.813 1.813 0 0 0 .914-1.063c1.935-5.9 2.159-23.991-4.312-37.564q-.216-.449-.44-.893a1.838 1.838 0 0 0-1.636-1z" fill="#112c41"/><circle cx="659.944" cy="401.982" fill="#ffe993" r="8.5"/><path d="M662.892 402.108c6.175 14 4.117 34.134 1.914 40.23a2.832 2.832 0 0 1-5.327-1.925c1.691-4.68 3.865-24.031-2.136-36.824a2.832 2.832 0 0 1 5.126-2.409q.218.461.423.928z" fill="#fff"/><path d="M662.137 445.208a3.831 3.831 0 0 1-3.6-5.134c1.554-4.3 3.876-23.321-2.1-36.06a3.832 3.832 0 0 1 6.936-3.259c.148.313.293.631.433.951 6.466 14.659 4.008 35.249 1.94 40.972a3.841 3.841 0 0 1-3.609 2.53zm-2.237-44.655a1.832 1.832 0 0 0-1.655 2.613c6.223 13.262 3.793 33.1 2.171 37.587a1.832 1.832 0 1 0 3.45 1.247c1.99-5.508 4.349-25.341-1.889-39.487-.134-.3-.272-.605-.412-.9a1.837 1.837 0 0 0-1.665-1.06z" fill="#112c41"/><path d="M207.528 210.609v-5c-17 47-42 114-9 230 20.71 72.8 62 139 81.23 173.73a8.83 8.83 0 0 1-1.81 11.22c-.13.11-.28.23-.44.37-2.38 1.97-5.33 4.42-8.74 7.23-24.51 20.25-73.24 59.61-113.24 81.45-47.76-61.72-94.27-134.93-121-214-64.67-191.3-31-341 60-435a195.585 195.585 0 0 1 126.19-59.08h.01c.08-.01.15-.01.23-.02q1.665-.12 3.33-.21c.97-.05 1.94-.1 2.91-.14a1.408 1.408 0 0 0 .2-.01c.49-.02.98-.04 1.47-.05.56-.02 1.12-.03 1.68-.04s1.15-.03 1.72-.04a205.4 205.4 0 0 1 38.01 3.05q6.525 1.14 12.78 2.58c84.5 19.54 129.13 80.46 129.47 154.96.13 28.7-9.24 62.94-15.17 93.3-6.7 27.76-8.83 87.7 76 57.84a8.789 8.789 0 0 1 10.72 3.76c.46.81.95 1.7 1.46 2.64.21.4.43.8.65 1.22.13.24.26.47.38.72.45.84.91 1.73 1.39 2.66 13.8 26.93 39.52 86.89 54.57 131.86-68 32-189 73-275-22-74.128-81.88-60-223-60-223z" fill="#ffa9dc"/><path d="M487.958 323.749c-2.35-3.13-7.043-4.768-10.6-3-19.83 9.86-62.465 20.746-83.83 4.86-39-29-9.71-98.29-10-162-.36-78.17-49.47-143.39-142.25-159.54a205.77 205.77 0 0 0-20.55-2.54c.08-.01.15-.01.23-.02q1.665-.12 3.33-.21c.97-.05 1.94-.1 2.91-.14a1.408 1.408 0 0 0 .2-.01c.49-.02.98-.04 1.47-.05.56-.02 1.12-.03 1.68-.04s1.15-.03 1.72-.04a205.4 205.4 0 0 1 38.01 3.05q6.525 1.14 12.78 2.58c84.5 19.54 129.13 80.46 129.47 154.96.13 28.7-9.24 62.94-15.17 93.3-6.7 27.76-8.83 87.7 76 57.84a8.789 8.789 0 0 1 10.72 3.76 158.16 158.16 0 0 1 2.11 3.86c.13.24.26.47.38.72.45.84.91 1.73 1.39 2.66zm-210.01 296.81c-.13.11-.28.23-.44.37-2.38 2.03-7.48 6.72-10.3 9.05a15.226 15.226 0 0 0 1.56-1.82c2.29-3.11 3.85-7.82-.24-13.55-26.44-37.01-75.84-113.94-99-186-35.95-111.84-8-218 34-251 4 10 4.78 23.59 4 33v-5c-17 47-42 114-9 230 20.71 72.8 62 139 81.23 173.73a8.83 8.83 0 0 1-1.81 11.22z" fill="#ff90d8"/><g fill="#112c41"><path d="M207.529 211.609h-.084a1 1 0 0 1-.913-1.08c1.054-12.65-1.316-27.306-5.9-36.47a1 1 0 1 1 1.789-.894c4.731 9.464 7.184 24.546 6.1 37.53a1 1 0 0 1-.992.914z"/><path d="M155.529 710.609a1 1 0 0 1-.792-.388c-57.4-74.18-98.164-146.278-121.156-214.292C2.435 403.8-7.126 318.182 5.165 241.463c11.462-71.547 41.286-132.63 88.645-181.549A196.232 196.232 0 0 1 220.645.531l.129-.009c.018 0 .094-.009.113-.011q1.674-.12 3.348-.211c.975-.05 1.949-.1 2.922-.14h.107l.1-.009c.5-.02.99-.04 1.486-.05.551-.019 1.116-.03 1.681-.04s1.145-.03 1.721-.04a207.212 207.212 0 0 1 38.2 3.065c4.354.761 8.671 1.632 12.834 2.59C364.48 24.451 413.169 82.742 413.528 161.6c.1 21.959-5.306 47.013-10.535 71.243-1.666 7.722-3.24 15.017-4.653 22.253-2.246 9.311-8.219 40.748 8.849 56.164 12.537 11.323 34.687 11.5 65.838.541a9.729 9.729 0 0 1 11.922 4.211c.461.813.955 1.709 1.468 2.655l.729 1.364c.111.2.22.4.324.62.433.806.895 1.7 1.377 2.635 14.554 28.4 39.977 88.218 54.63 132a1 1 0 0 1-.523 1.222c-48.448 22.8-91.341 34.81-131.128 36.719-58.3 2.794-107.1-17.038-145.039-58.953-21.232-23.452-48.539-67.256-58.05-142.751a410.269 410.269 0 0 1-2.3-79.969c-17.132 47.509-38.59 112.556-6.951 223.776 17.692 62.189 50.117 119.005 71.574 156.6 3.494 6.122 6.794 11.9 9.569 16.917a9.785 9.785 0 0 1-2.047 12.474L276 623.476c-1.934 1.6-4.147 3.436-6.6 5.455-46.517 38.431-84.669 65.871-113.4 81.555a.993.993 0 0 1-.471.123zM234.991 2q-1.356 0-2.709.018c-.56.009-1.134.02-1.7.04s-1.125.02-1.679.04c-.5.009-.978.029-1.459.049a1.664 1.664 0 0 1-.247.011c-.924.039-1.892.089-2.858.138q-1.653.09-3.311.209c-.006 0-.064.007-.122.011-.04 0-.138.012-.178.012A194.207 194.207 0 0 0 95.247 61.3C48.179 109.924 18.535 170.645 7.14 241.78-5.1 318.174 4.435 403.466 35.476 495.289c22.85 67.6 63.332 139.267 120.321 213.032 28.529-15.69 66.316-42.914 112.335-80.933 2.449-2.018 4.66-3.85 6.594-5.452l2.144-1.777c.089-.078.195-.166.293-.247l.14-.117a7.814 7.814 0 0 0 1.581-9.97c-2.77-5-6.066-10.78-9.558-16.9-21.5-37.68-54-94.623-71.759-157.047-14.491-50.936-19.2-96.777-14.408-140.145 4.1-37.044 14.533-65.883 22.918-89.056l.511-1.412a1 1 0 0 1 1.94.34v5.1c-.036.352-3.456 35.726 2.2 80.616 9.451 74.952 36.508 118.38 57.542 141.613 37.524 41.45 85.794 61.07 143.461 58.3 39.3-1.886 81.689-13.711 129.566-36.152-14.666-43.62-39.8-102.726-54.228-130.878-.477-.923-.934-1.808-1.382-2.644a8.853 8.853 0 0 0-.3-.566l-.738-1.381a152.2 152.2 0 0 0-1.444-2.611 7.752 7.752 0 0 0-9.519-3.31c-31.892 11.226-54.719 10.909-67.841-.944-17.887-16.156-11.765-48.535-9.462-58.075 1.407-7.212 2.983-14.516 4.651-22.248 5.206-24.125 10.589-49.071 10.49-70.813-.355-77.871-48.465-135.437-128.695-153.99a245.646 245.646 0 0 0-12.726-2.569A205.792 205.792 0 0 0 234.991 2z"/></g></svg></g><g transform="translate(463.0 221.0) rotate(0.0 450.5 336.5) scale(1.005421015865789 1.0051632232731877)"><svg width="896.142" height="669.543" viewBox="0 0 896.142 669.543"><path d="M669.813 419.3c-.158.439-.317.877-.485 1.325-6.913 18.458-24.1 45.848-48.437 75.675a467.767 467.767 0 0 1-31.854 35.386c-2.038-1.105-4.048-2.18-6.011-3.235-10.269-5.49-19.46-10.28-27.054-14.384-.36-.194-.683-.368-.957-.522-3.821-2.057-.542-.248-20.626-10.644a153.081 153.081 0 0 1-248.163-57.229c-.7-1.883-1.375-3.794-2-5.713-2.284-.341-19.5-2.905-40.423-6.492-.077-.012-.173-.025-.269-.047a333.148 333.148 0 0 1-6.2-1.111c-8-1.465-15.916-3.131-23.7-5.091-.641-.165-1.272-.319-1.9-.493a448.119 448.119 0 0 1-6.263-1.652c-1.825-13.131-3.17-27.711-3.875-43.072-1.982-42.858.247-77.35 7.131-94.9 0-.01 0-.01.011-.019 2.556-6.514 5.734-10.686 9.595-12.088 10.806-3.932 39.912-3.048 77.972 1.635a1199.5 1199.5 0 0 1 119.209 21.526 1173.723 1173.723 0 0 1 21.854 5.264q5.7 1.422 11.363 2.9 14.789 3.863 29.221 7.992c2.255.64 4.491 1.289 6.726 1.947 91.293 26.617 167.891 59.783 185.147 81.64.232.3.454.592.657.878.3.405.572.809.82 1.2 2.318 3.666 1.698 10.375-1.489 19.324z" fill="#ffe993"/><path d="M429.78 545.636a155.54 155.54 0 0 1-38.844-4.933 153.41 153.41 0 0 1-105.647-94.678 142.32 142.32 0 0 1-1.82-5.164c-6.26-.938-21.81-3.314-39.834-6.4a4.285 4.285 0 0 1-.329-.06 332.43 332.43 0 0 1-6.161-1.1c-8.592-1.573-16.365-3.243-23.758-5.1l-.544-.139a69.767 69.767 0 0 1-1.38-.36 424.454 424.454 0 0 1-6.261-1.652 1 1 0 0 1-.727-.827c-1.885-13.567-3.192-28.089-3.883-43.163-2.054-44.394.5-78.243 7.2-95.313.007-.018.013-.035.021-.052 2.72-6.917 6.143-11.166 10.172-12.63 10.687-3.888 38.542-3.326 78.437 1.583 36.2 4.468 78.568 12.119 119.311 21.543 7.6 1.758 14.961 3.531 21.873 5.27q5.7 1.422 11.371 2.9c9.89 2.583 19.73 5.274 29.244 8 2.256.64 4.5 1.289 6.733 1.949 93.956 27.39 168.564 60.332 185.646 81.972.244.313.475.621.687.92.3.413.593.836.851 1.249 2.463 3.875 2 10.669-1.386 20.188v.007l-.066.178c-.138.382-.277.765-.424 1.157-7.211 19.251-24.923 46.936-48.6 75.956a466.471 466.471 0 0 1-31.919 35.463 1 1 0 0 1-1.183.17c-1.615-.876-3.214-1.733-4.784-2.576l-1.224-.657c-4.606-2.463-9-4.786-13.125-6.969-5.01-2.65-9.742-5.153-13.93-7.416-.364-.2-.691-.373-.969-.528-1.683-.906-1.973-1.053-3.547-1.855-1.929-.981-5.773-2.938-16.419-8.448a152.565 152.565 0 0 1-104.782 41.515zM206.366 424.285c1.86.5 3.735.993 5.611 1.475a62.4 62.4 0 0 0 1.358.354l.546.14c7.344 1.849 15.076 3.509 23.631 5.075 2.062.393 4.126.756 6.192 1.109.108.024.157.03.2.036a2002.807 2002.807 0 0 0 40.281 6.472l.19.029a1 1 0 0 1 .8.679c.6 1.838 1.267 3.747 1.986 5.672A151.841 151.841 0 0 0 533.7 502.182a1 1 0 0 1 1.15-.165c11.119 5.756 15.075 7.769 17.039 8.769 1.593.81 1.886.96 3.6 1.883.284.158.6.33.958.522 4.181 2.26 8.909 4.76 13.915 7.408 4.13 2.185 8.524 4.509 13.136 6.974l1.223.658q2.042 1.1 4.137 2.225a465.807 465.807 0 0 0 31.259-34.784c23.541-28.857 41.137-56.337 48.274-75.393.144-.384.281-.761.417-1.137l.065-.178c3.121-8.781 3.667-15.159 1.579-18.445-.238-.379-.5-.763-.784-1.148q-.3-.429-.637-.854c-16.846-21.336-91.048-54.008-184.64-81.3a680.9 680.9 0 0 0-6.717-1.944c-9.5-2.722-19.328-5.409-29.2-7.988q-5.66-1.478-11.351-2.9c-6.9-1.735-14.248-3.5-21.838-5.26-40.677-9.409-82.976-17.047-119.1-21.507-39.01-4.8-67.261-5.416-77.508-1.688-3.474 1.261-6.5 5.135-9.007 11.513l-.026.059c-6.584 16.828-9.085 50.367-7.046 94.451.668 14.777 1.939 29.013 3.768 42.332z" fill="#112c41"/><path d="M669.813 419.3a204.567 204.567 0 0 0-4.725-3.04c1.568-5.427 1.232-11-.771-12.625-2.021-1.644-8.438-1.161-15.361 4.406-36.475-35.841-155.492-92.68-214.588-105.061q1.5.236 2.994.441 5.7 1.422 11.363 2.9 14.789 3.863 29.221 7.992c2.255.64 4.491 1.289 6.726 1.947 91.293 26.617 167.891 59.783 185.147 81.64.232.3.454.592.657.878.3.405.572.809.82 1.2 2.435 3.841 2.115 9.712-1.483 19.322zm-107.654 48.12s-8.645 14.354-16.068 23.242c-.771.911-1.531 1.812-2.321 2.7l-.375.278q-4.2 4.67-8.669 8.974l-1.906 1.762a153.46 153.46 0 0 1-193.98 10.664c59.591 35.929 137.074 17.5 193.208-37.393 4.346-4.247 24.034-11.063 30.111-10.227z" fill="#ffd169"/><g fill="#112c41"><path d="M484.518 320.239c-2.415 10.914-20.588 16.158-40.6 11.732s-34.255-16.866-31.84-27.781a12.246 12.246 0 0 1 3.429-6.033c11.083 2.564 22.2 5.285 33.217 8.166q14.789 3.863 29.221 7.992c2.255.64 4.491 1.289 6.726 1.947a11.253 11.253 0 0 1-.153 3.977z"/><path d="M429.78 545.636a155.54 155.54 0 0 1-38.844-4.933c-50.971-13.144-91.1-50.446-107.467-99.842a2029.189 2029.189 0 0 1-39.834-6.4c-11.293-1.934-21.187-3.983-30.248-6.265l-.544-.139a69.767 69.767 0 0 1-1.38-.36 424.454 424.454 0 0 1-6.261-1.652 1 1 0 0 1-.727-.827c-1.885-13.567-3.192-28.089-3.883-43.163-2.054-44.394.5-78.243 7.2-95.313 2.721-6.947 6.152-11.213 10.194-12.682 10.687-3.888 38.542-3.326 78.437 1.583 36.2 4.468 78.568 12.119 119.311 21.543 7.6 1.758 14.961 3.531 21.873 5.27q5.7 1.422 11.371 2.9c9.89 2.583 19.73 5.274 29.244 8 2.256.64 4.5 1.289 6.733 1.949C578.91 342.7 653.518 375.642 670.6 397.282c.244.313.475.621.687.92.3.413.593.836.851 1.249 2.463 3.875 2 10.669-1.386 20.188v.007l-.066.178c-.138.382-.277.765-.424 1.157-7.211 19.251-24.923 46.936-48.6 75.956a466.471 466.471 0 0 1-31.919 35.463 1 1 0 0 1-1.183.17c-1.615-.876-3.214-1.733-4.784-2.576l-1.224-.657c-4.606-2.463-9-4.786-13.125-6.969-5.01-2.65-9.742-5.153-13.93-7.416-.364-.2-.691-.373-.969-.528-1.683-.906-1.973-1.053-3.547-1.855-1.929-.981-5.773-2.938-16.419-8.448a152.565 152.565 0 0 1-104.782 41.515zM206.366 424.285c1.86.5 3.735.993 5.611 1.475a62.4 62.4 0 0 0 1.358.354l.546.14c9 2.268 18.849 4.306 30.091 6.231a1997.297 1997.297 0 0 0 40.213 6.461l.19.029a1 1 0 0 1 .8.678c16.025 49.037 55.749 86.089 106.259 99.114a152.607 152.607 0 0 0 77.317-.218 150.44 150.44 0 0 0 64.949-36.367 1 1 0 0 1 1.15-.165c11.119 5.756 15.075 7.769 17.039 8.769 1.593.81 1.886.96 3.6 1.883.284.158.6.33.958.522 4.181 2.26 8.909 4.76 13.915 7.408 4.13 2.185 8.524 4.509 13.136 6.974l1.223.658q2.042 1.1 4.137 2.225a465.807 465.807 0 0 0 31.259-34.784c23.541-28.857 41.137-56.337 48.274-75.393.144-.384.281-.761.417-1.137l.065-.178c3.121-8.781 3.667-15.159 1.579-18.445-.238-.379-.5-.763-.784-1.148q-.3-.429-.637-.854c-16.846-21.336-91.048-54.008-184.64-81.3a680.9 680.9 0 0 0-6.717-1.944c-9.5-2.722-19.328-5.409-29.2-7.988q-5.66-1.478-11.351-2.9c-6.9-1.735-14.248-3.5-21.838-5.26-40.677-9.409-82.976-17.047-119.1-21.507-39.01-4.8-67.261-5.416-77.508-1.688-3.48 1.264-6.513 5.143-9.017 11.532-6.595 16.814-9.1 50.372-7.062 94.491.668 14.777 1.939 29.013 3.768 42.332z"/><path d="M243.8 433.471q-15.323-2.5-30.173-6.249c-.641-.165-1.272-.319-1.9-.493-1.911-13.461-3.331-28.757-4.084-45-1.95-42.056 1.247-78.215 7.423-92.859 1.844-4.386 3.965-6.836 6.292-6.946 3.1-.144 6.212 3.9 9.108 11.15 6.553 16.373 12.006 49.092 13.749 86.968.041.859.081 1.709.113 2.539a459.3 459.3 0 0 1-.528 50.89z"/><path d="m244.722 434.634-1.08-.176a366.741 366.741 0 0 1-30.255-6.266l-.544-.139a69.767 69.767 0 0 1-1.38-.36l-.632-.174-.093-.65c-1.973-13.892-3.35-29.063-4.094-45.091-1.915-41.326 1.03-77.947 7.5-93.293 2.056-4.886 4.467-7.429 7.167-7.557h.207c3.433 0 6.754 3.962 9.876 11.783 6.832 17.069 12.128 50.518 13.821 87.293l.016.358c.035.74.07 1.472.1 2.189a461.938 461.938 0 0 1-.527 51zm-32.1-8.7q.352.092.709.181l.546.14a365.217 365.217 0 0 0 29 6.051 463.443 463.443 0 0 0 .447-49.68c-.028-.715-.062-1.441-.1-2.175l-.016-.359c-1.683-36.567-6.925-69.766-13.68-86.642-2.755-6.9-5.663-10.653-8.133-10.523-1.836.087-3.71 2.278-5.416 6.335-6.268 14.862-9.22 52-7.347 92.425.74 15.713 2.08 30.594 3.994 44.246zm451.71-9.848c-5.3 16.252-23.528 45.336-48.453 75.887a475.937 475.937 0 0 1-32.853 36.482c-10.269-5.49-19.46-10.28-27.054-14.384-.36-.194-.683-.368-.957-.522 6.828-10.853 15.375-22.993 25.2-35.594.149.168.289.337.438.5q2.112-2.782 4.291-5.582c.513-.659 1.045-1.327 1.577-2 8.545-10.867 17.1-20.9 25.226-29.7 14.179-14.971 27.161-26.528 36.867-32.895 7.53-4.941 13.092-6.763 15.705-4.637 2.188 1.783 2.071 6.159.013 12.445z"/><path d="m583.206 529.686-.652-.349c-4.608-2.464-9-4.787-13.127-6.97-5.01-2.65-9.742-5.153-13.93-7.416-.364-.2-.691-.373-.969-.528l-.922-.513.562-.893c7-11.123 15.732-23.46 25.257-35.677l.742-.951.43.489q1.754-2.3 3.557-4.616c.315-.4.641-.817.968-1.231l.611-.775c8.337-10.6 16.841-20.617 25.277-29.763 14.107-14.895 27.262-26.631 37.052-33.053 8.268-5.424 13.948-6.966 16.886-4.577 2.5 2.033 2.607 6.586.335 13.533-5.481 16.8-24.569 46.717-48.63 76.209a479.664 479.664 0 0 1-32.923 36.56zm-26.777-16.5.018.01c4.181 2.26 8.909 4.76 13.915 7.408 3.935 2.081 8.109 4.289 12.483 6.626a479.392 479.392 0 0 0 32.255-35.889c23.918-29.316 42.867-58.977 48.278-75.565 1.933-5.91 2.041-9.945.3-11.36-1.224-1-4.747-1.718-14.525 4.7-9.665 6.341-22.694 17.971-36.69 32.748-8.39 9.1-16.86 19.071-25.165 29.633l-.614.779q-.486.615-.96 1.221-2.181 2.791-4.283 5.573l-.736.971-.452-.51c-8.933 11.517-17.142 23.111-23.824 33.65zm-126.452 32.498a156.189 156.189 0 0 1-39.041-4.981 154.058 154.058 0 0 1-52.666-24.838c-.022-.015-.045-.03-.066-.047a151.9 151.9 0 0 1-52.913-69.794c-.358-.941-.707-1.9-1.038-2.863-.31-.889-.622-1.793-.914-2.7a7.338 7.338 0 0 1-.078-.252 147.29 147.29 0 0 1-6.846-57.793 1 1 0 0 1 1.994.163 145.3 145.3 0 0 0 6.77 57.069c.045.136.066.2.083.27.267.816.574 1.706.881 2.585a87.97 87.97 0 0 0 1.02 2.812 149.907 149.907 0 0 0 52.206 68.873l.062.042a152.1 152.1 0 0 0 52.007 24.532c50.377 13 102.976-.133 140.7-35.121a145.779 145.779 0 0 0 28.223-35.874 1 1 0 0 1 1.746.974 147.783 147.783 0 0 1-28.607 36.371 151.826 151.826 0 0 1-103.523 40.572z"/></g><path d="M243.8 433.471c-.077-.012-.173-.025-.269-.047-1.036-.148-3.187-.418-6.268-.862-34.86-4.949-189.837-31.385-227.188-157.347-27.9-94.082 12.148-172.19 70.513-219.528S203.46-19.515 184.885 19.43c29.468-17.393 58.121-8.782 29.344 17.31C241.647 53.989 238.64 85 225.21 86.252c-7.736.722-11.564-8.779-17.939-15.457-3.491-3.648-7.371-7.51-16.07-6.819-7.683.607-13.725 7.282-13.906 13.061-.242 7.7 3.429 13.6 15.829 17.85 10.588 3.629 18.167 6.354 18.394 12.628.265 7.238-8.917 8.908-27.938 15.031-54.539 17.571-68.51 63.409-58.942 96.488 12.429 42.973 46.421 57.18 84.094 68.05q3.153.909 6.335 1.789c4.445 1.239 9 2.451 13.633 3.667.593.154 1.185.336 1.767.537 6.553 16.373 12.006 49.092 13.749 86.968a524.836 524.836 0 0 1 .566 25.604c-.033 9.968-.365 19.328-.982 27.822z" fill="#ffd6c0"/><path d="M243.8 434.471a1.063 1.063 0 0 1-.158-.013l.158-.987-.2.98a3.532 3.532 0 0 1-.295-.054c-.277-.036-.779-.1-1.412-.187a461.238 461.238 0 0 1-4.769-.658c-23.069-3.275-68.421-11.968-112.951-33.382-60.43-29.062-99.14-71.007-115.053-124.67-13.135-44.293-12.151-87.334 2.929-127.925 13.07-35.187 36.554-67.23 67.913-92.663 41.329-33.52 93.968-62.8 106.475-52.95 3.393 2.672 3.586 7.75.586 15.114 16.424-8.856 33.371-10.4 38.648-3.24 2.238 3.039 3.861 9.994-9.814 22.765 17.3 11.445 22.347 28.579 19.653 39.871-1.5 6.29-5.316 10.319-10.208 10.777-6.075.562-9.833-4.427-13.817-9.712a67.813 67.813 0 0 0-4.937-6.051c-3.22-3.365-6.871-7.18-15.268-6.512-7.234.572-12.822 6.857-12.986 12.1-.253 8.1 4.279 13.149 15.155 16.873 10.51 3.6 18.811 6.448 19.068 13.537.256 6.988-6.922 9.226-21.222 13.684a791.348 791.348 0 0 0-7.409 2.336c-24.638 7.938-42.94 22.438-52.927 41.933a73.427 73.427 0 0 0-5.36 53.325c12.609 43.594 48.119 57.184 83.41 67.367q3.147.908 6.325 1.786a898.8 898.8 0 0 0 13.62 3.664 24.1 24.1 0 0 1 1.84.559 1 1 0 0 1 .6.574c6.832 17.069 12.128 50.518 13.821 87.293l.016.358c.035.74.07 1.472.1 2.189.321 7.76.474 15.535.454 23.106-.033 9.95-.363 19.333-.981 27.891a1 1 0 0 1-1 .928zM179.251 1.943c-17.128 0-58.962 22.835-98.03 54.521-31.081 25.209-54.352 56.955-67.3 91.806C-1 188.447-1.972 231.061 11.038 274.93c15.745 53.1 54.1 94.631 114 123.437 44.287 21.3 89.411 29.946 112.367 33.2 1.989.287 3.589.5 4.751.655l.723.1c.566-8.22.869-17.19.9-26.678.02-7.541-.132-15.286-.452-23.021q-.042-1.072-.1-2.175l-.016-.359c-1.669-36.261-6.837-69.209-13.51-86.214-.43-.14-.852-.264-1.259-.369a908.843 908.843 0 0 1-13.65-3.671q-3.186-.882-6.344-1.792c-35.828-10.338-71.886-24.161-84.778-68.733a75.462 75.462 0 0 1 5.5-54.793c10.235-19.978 28.941-34.821 54.1-42.925 2.668-.859 5.144-1.63 7.426-2.342 13.746-4.285 20.02-6.24 19.82-11.7-.2-5.44-6.862-8-17.718-11.718-11.7-4-16.789-9.811-16.5-18.827.19-6.095 6.326-13.355 14.826-14.027 9.353-.742 13.517 3.619 16.872 7.124a69.393 69.393 0 0 1 5.088 6.229c3.8 5.037 7.068 9.382 12.035 8.924 4-.374 7.155-3.831 8.448-9.249 2.589-10.855-2.524-27.509-19.868-38.421a1 1 0 0 1-.14-1.587c9.89-8.967 13.718-16.613 10.5-20.978-5.311-7.209-24.639-3.009-38.666 5.27a1 1 0 0 1-1.41-1.29c2.6-5.447 4.918-12.552 1.217-15.468a9.517 9.517 0 0 0-5.949-1.589z" fill="#112c41"/><path d="M243.8 433.471C233.589 431.8 51.058 413.4 10.079 275.215c-2.014-6.8-2.588-9.722-2.588-9.722 47.2 125.76 200.006 140.6 237.489 143.382-.033 9.968-.563 16.102-1.18 24.596z" fill="#f5b9ab"/><path d="M243.8 434.471a1.063 1.063 0 0 1-.158-.013l.158-.987-.2.98a3.532 3.532 0 0 1-.295-.054c-.277-.036-.779-.1-1.412-.187a461.238 461.238 0 0 1-4.769-.658c-23.069-3.275-68.421-11.968-112.951-33.382-60.43-29.062-99.14-71.007-115.053-124.67-13.135-44.293-12.151-87.334 2.929-127.925 13.07-35.187 36.554-67.23 67.913-92.663 41.329-33.52 93.968-62.8 106.475-52.95 3.393 2.672 3.586 7.75.586 15.114 16.424-8.856 33.371-10.4 38.648-3.24 2.238 3.039 3.861 9.994-9.814 22.765 17.3 11.445 22.347 28.579 19.653 39.871-1.5 6.29-5.316 10.319-10.208 10.777-6.075.562-9.833-4.427-13.817-9.712a67.813 67.813 0 0 0-4.937-6.051c-3.22-3.365-6.871-7.18-15.268-6.512-7.234.572-12.822 6.857-12.986 12.1-.253 8.1 4.279 13.149 15.155 16.873 10.51 3.6 18.811 6.448 19.068 13.537.256 6.988-6.922 9.226-21.222 13.684a791.348 791.348 0 0 0-7.409 2.336c-24.638 7.938-42.94 22.438-52.927 41.933a73.427 73.427 0 0 0-5.36 53.325c12.609 43.594 48.119 57.184 83.41 67.367q3.147.908 6.325 1.786a898.8 898.8 0 0 0 13.62 3.664 24.1 24.1 0 0 1 1.84.559 1 1 0 0 1 .6.574c6.832 17.069 12.128 50.518 13.821 87.293l.016.358c.035.74.07 1.472.1 2.189.321 7.76.474 15.535.454 23.106-.033 9.95-.363 19.333-.981 27.891a1 1 0 0 1-1 .928zM179.251 1.943c-17.128 0-58.962 22.835-98.03 54.521-31.081 25.209-54.352 56.955-67.3 91.806C-1 188.447-1.972 231.061 11.038 274.93c15.745 53.1 54.1 94.631 114 123.437 44.287 21.3 89.411 29.946 112.367 33.2 1.989.287 3.589.5 4.751.655l.723.1c.566-8.22.869-17.19.9-26.678.02-7.541-.132-15.286-.452-23.021q-.042-1.072-.1-2.175l-.016-.359c-1.669-36.261-6.837-69.209-13.51-86.214-.43-.14-.852-.264-1.259-.369a908.843 908.843 0 0 1-13.65-3.671q-3.186-.882-6.344-1.792c-35.828-10.338-71.886-24.161-84.778-68.733a75.462 75.462 0 0 1 5.5-54.793c10.235-19.978 28.941-34.821 54.1-42.925 2.668-.859 5.144-1.63 7.426-2.342 13.746-4.285 20.02-6.24 19.82-11.7-.2-5.44-6.862-8-17.718-11.718-11.7-4-16.789-9.811-16.5-18.827.19-6.095 6.326-13.355 14.826-14.027 9.353-.742 13.517 3.619 16.872 7.124a69.393 69.393 0 0 1 5.088 6.229c3.8 5.037 7.068 9.382 12.035 8.924 4-.374 7.155-3.831 8.448-9.249 2.589-10.855-2.524-27.509-19.868-38.421a1 1 0 0 1-.14-1.587c9.89-8.967 13.718-16.613 10.5-20.978-5.311-7.209-24.639-3.009-38.666 5.27a1 1 0 0 1-1.41-1.29c2.6-5.447 4.918-12.552 1.217-15.468a9.517 9.517 0 0 0-5.949-1.589z" fill="#112c41"/><path d="M168.872 39.21a1 1 0 0 1-.651-1.761c.108-.092 10.817-9.292 15.785-18.494a1 1 0 1 1 1.759.95c-5.147 9.535-15.795 18.681-16.245 19.065a.994.994 0 0 1-.648.24zM190.6 53.388a1 1 0 0 1-.447-1.895 132.835 132.835 0 0 0 23.427-15.514 1 1 0 1 1 1.3 1.521 135.061 135.061 0 0 1-23.832 15.783 1.006 1.006 0 0 1-.448.105z" fill="#112c41"/><path d="M193.4 56.368a.994.994 0 0 1-.695-.281c-9.9-9.587-29.8-20.946-45.951-23.362a1 1 0 1 1 .3-1.978c17.174 2.569 37.057 14.232 47.046 23.9a1 1 0 0 1-.695 1.718zm-48.585 100.21a45.71 45.71 0 0 1-8.524-.968c-13.073-2.533-32.357-10-51.582-19.972C63.6 124.693 45.562 112.4 36.454 102.754 31.3 97.305 29.427 93.1 30.9 90.245c1.662-3.211 7.152-3.943 16.314-2.175a1 1 0 0 1-.379 1.964c-7.842-1.513-13-1.1-14.16 1.131-1 1.928.908 5.651 5.229 10.215 8.964 9.492 26.8 21.635 47.723 32.483 19.065 9.889 38.145 17.285 51.042 19.784 7.959 1.548 13.195 1.145 14.36-1.1.935-1.8-.611-5.092-4.352-9.262a1 1 0 1 1 1.489-1.335c4.462 4.973 6.022 8.848 4.638 11.517-1.071 2.07-3.749 3.111-7.989 3.111zm-16.923 37.053a25.257 25.257 0 0 1-5.928-.851c-12.773-3.134-34.021-14.58-55.451-29.88-18.685-13.337-34.9-27.786-43.378-38.65-5.642-7.25-7.461-12.381-5.408-15.25 1.739-2.452 5.98-2.771 12.6-.946q1.023.282 2.1.625a1 1 0 1 1-.606 1.906q-1.041-.332-2.026-.6c-5.562-1.534-9.27-1.471-10.437.178-1.418 1.981.535 6.667 5.356 12.859 8.364 10.721 24.424 25.021 42.963 38.252 21.237 15.16 42.222 26.49 54.766 29.568 4.89 1.21 8.18 1.041 9.262-.481.736-1.031 1.555-4.509-6.713-14.537a1 1 0 0 1 1.543-1.272c6.726 8.159 9.014 13.868 6.8 16.97-1.004 1.403-2.825 2.108-5.443 2.109z" fill="#112c41"/><path d="M541.842 505.529c-1.911-.809-3.024-2.5-2.486-3.767l136-321.412c.538-1.271 2.523-1.647 4.435-.838s3.024 2.5 2.486 3.767l-136 321.412c-.538 1.272-2.524 1.647-4.435.838z" fill="#fff"/><path d="M543.849 506.959a6.2 6.2 0 0 1-2.4-.509c-2.457-1.04-3.782-3.27-3.018-5.077l136-321.412c.765-1.809 3.287-2.409 5.745-1.37s3.783 3.27 3.018 5.077l-136 321.413a3.441 3.441 0 0 1-3.345 1.878zm-1.618-2.351c1.453.614 2.849.345 3.125-.307l136-321.412c.276-.652-.5-1.841-1.955-2.456s-2.848-.345-3.124.307l-136 321.412c-.275.652.5 1.841 1.955 2.456z" fill="#112c41"/><path d="M893.615 231.153c-46-25.917-158.766-51.1-215.473-52.553a2.99 2.99 0 0 0-2.824 1.832l-50.071 118.336c59.989.538 159.3 25.753 217.262 52.787a3 3 0 0 0 4.023-1.565c22.286-53.027 43.611-103.59 48.381-115.086a2.985 2.985 0 0 0-1.298-3.751z" fill="#9dd9f4"/><path d="M843.762 352.836a3.966 3.966 0 0 1-1.676-.375c-60.134-28.048-159.438-52.178-216.847-52.693a1 1 0 0 1-.912-1.389L674.4 180.043a3.936 3.936 0 0 1 3.77-2.443c56.547 1.452 169.554 26.547 215.939 52.682a4 4 0 0 1 1.731 5.006c-2.866 6.905-11.807 28.15-23.126 55.047-7.6 18.065-16.353 38.857-25.257 60.043a4.02 4.02 0 0 1-3.692 2.458zm-217.013-55.049c57.858.912 156.35 24.955 216.182 52.861a1.962 1.962 0 0 0 1.549.051 1.993 1.993 0 0 0 1.13-1.1c8.9-21.186 17.654-41.978 25.257-60.044 11.319-26.894 20.259-48.137 23.122-55.038a1.99 1.99 0 0 0-.865-2.5c-46.155-26.006-158.681-50.979-215.008-52.425a1.945 1.945 0 0 0-1.877 1.222z" fill="#112c41"/><path d="M740.331 291.58a5 5 0 0 1-4.978-4.53L730 230.4a5 5 0 1 1 9.955-.941l4.574 48.392 66.793-43.751a5 5 0 1 1 5.48 8.365l-73.732 48.3a4.987 4.987 0 0 1-2.739.815z" fill="#fff"/><path d="M783.081 619.529c-13.8 29.128-43.7 42.032-71.849 46.915-41.692 7.234-81.673-5.665-106.486-16.836-41.562-18.715-107.864-65.084-95.068-104.21-5.219-17.43-2.947-29.015 3.074-36.539-18.387-28.534-5.192-60.726 14.771-30.782S559.7 517.263 560.489 493c.7-21.439 8.419-28.071 19.724-15.048.149.168.289.337.438.5q2.112-2.782 4.291-5.582c.513-.659 1.045-1.327 1.577-2 8.545-10.867 17.1-20.9 25.226-29.7 14.179-14.971 27.161-26.528 36.867-32.895a162.137 162.137 0 0 1 15.72 7.81c81.173 48.976 153.851 129.346 118.749 203.444z" fill="#ffd6c0"/><path d="M686.2 669.557c-31.963 0-61.235-9.751-81.862-19.038-19.023-8.564-46.925-24.787-68.192-44.631-23.577-22-33.085-42.911-27.514-60.5-4.623-15.634-3.648-27.936 2.9-36.585-11.147-17.748-10.753-37.324-2.873-42.488 2.561-1.677 9.6-3.942 19.7 11.209 13.353 20.028 22.428 29.528 26.99 28.229 2.462-.7 3.9-5.121 4.146-12.781.419-12.826 3.269-20.539 8.239-22.3 3.7-1.314 8.03.777 12.868 6.212q1.755-2.3 3.557-4.616c.315-.4.641-.817.968-1.231l.611-.775c8.337-10.6 16.841-20.617 25.277-29.763 14.107-14.895 27.262-26.631 37.052-33.053a1 1 0 0 1 .972-.071c.989.462 1.991.92 3 1.382a125.187 125.187 0 0 1 12.814 6.479c44.4 26.79 81.084 59.675 103.29 92.6 26.5 39.294 31.983 78.067 15.846 112.13l-.9-.429.9.429C769.1 651.369 736.3 663.11 711.4 667.429a147.3 147.3 0 0 1-25.2 2.128zM512.724 467.1a5.319 5.319 0 0 0-2.97.884c-6.2 4.063-7.831 22.223 3.839 40.333a1 1 0 0 1-.06 1.167c-6.55 8.185-7.524 20.171-2.9 35.626a1 1 0 0 1-.007.6c-6.965 21.3 10.774 43.686 26.882 58.717C558.6 624.1 586.281 640.2 605.157 648.7c20.433 9.2 49.427 18.86 81.039 18.861a145.275 145.275 0 0 0 24.864-2.1c24.433-4.238 56.6-15.721 71.117-46.359a91.857 91.857 0 0 0 7.587-55.567c-2.98-17.734-10.814-36.1-23.284-54.588-22.047-32.686-58.507-65.36-102.665-92a123.927 123.927 0 0 0-12.613-6.374q-1.263-.577-2.506-1.151c-9.615 6.4-22.453 17.9-36.226 32.441-8.39 9.1-16.86 19.071-25.165 29.633l-.614.779q-.486.615-.96 1.221-2.181 2.791-4.283 5.573a1 1 0 0 1-1.545.059l-.439-.508c-4.342-5-8.167-7.092-11.066-6.065-4.012 1.424-6.53 8.891-6.91 20.485-.288 8.859-2.118 13.647-5.6 14.638-5.723 1.633-14.727-7.328-29.2-29.043-4.981-7.478-9.973-11.535-13.964-11.535z" fill="#112c41"/><path d="M783.081 619.529c-13.8 29.126-43.7 42.032-71.849 46.915-41.692 7.234-81.673-5.665-106.486-16.836-27.359-12.321-65.45-36.624-84.629-62.967 22.272 22.082 58.444 40.541 84.6 49.633 25.7 8.933 66.673 18.248 107.563 7.354 27.6-7.358 56.248-22.859 67.416-53.089a92.289 92.289 0 0 0 3.583-52.787c11.068 26.878 12.604 54.74-.198 81.777z" fill="#f5b9ab"/><path d="M686.2 669.557c-31.963 0-61.235-9.751-81.862-19.038-19.023-8.564-46.925-24.787-68.192-44.631-23.577-22-33.085-42.911-27.514-60.5-4.623-15.634-3.648-27.936 2.9-36.585-11.147-17.748-10.753-37.324-2.873-42.488 2.561-1.677 9.6-3.942 19.7 11.209 13.353 20.028 22.428 29.528 26.99 28.229 2.462-.7 3.9-5.121 4.146-12.781.419-12.826 3.269-20.539 8.239-22.3 3.7-1.314 8.03.777 12.868 6.212q1.755-2.3 3.557-4.616c.315-.4.641-.817.968-1.231l.611-.775c8.337-10.6 16.841-20.617 25.277-29.763 14.107-14.895 27.262-26.631 37.052-33.053a1 1 0 0 1 .972-.071c.989.462 1.991.92 3 1.382a125.187 125.187 0 0 1 12.814 6.479c44.4 26.79 81.084 59.675 103.29 92.6 26.5 39.294 31.983 78.067 15.846 112.13l-.9-.429.9.429C769.1 651.369 736.3 663.11 711.4 667.429a147.3 147.3 0 0 1-25.2 2.128zM512.724 467.1a5.319 5.319 0 0 0-2.97.884c-6.2 4.063-7.831 22.223 3.839 40.333a1 1 0 0 1-.06 1.167c-6.55 8.185-7.524 20.171-2.9 35.626a1 1 0 0 1-.007.6c-6.965 21.3 10.774 43.686 26.882 58.717C558.6 624.1 586.281 640.2 605.157 648.7c20.433 9.2 49.427 18.86 81.039 18.861a145.275 145.275 0 0 0 24.864-2.1c24.433-4.238 56.6-15.721 71.117-46.359a91.857 91.857 0 0 0 7.587-55.567c-2.98-17.734-10.814-36.1-23.284-54.588-22.047-32.686-58.507-65.36-102.665-92a123.927 123.927 0 0 0-12.613-6.374q-1.263-.577-2.506-1.151c-9.615 6.4-22.453 17.9-36.226 32.441-8.39 9.1-16.86 19.071-25.165 29.633l-.614.779q-.486.615-.96 1.221-2.181 2.791-4.283 5.573a1 1 0 0 1-1.545.059l-.439-.508c-4.342-5-8.167-7.092-11.066-6.065-4.012 1.424-6.53 8.891-6.91 20.485-.288 8.859-2.118 13.647-5.6 14.638-5.723 1.633-14.727-7.328-29.2-29.043-4.981-7.478-9.973-11.535-13.964-11.535z" fill="#112c41"/><path d="M512.752 508.859c12.91 18.723 24.908 27.612 24.908 27.612" fill="#ffd6c0"/><path d="M537.659 537.471a1 1 0 0 1-.6-.2c-.121-.091-12.28-9.2-25.136-27.848a1 1 0 1 1 1.647-1.135c12.651 18.347 24.561 27.287 24.681 27.376a1 1 0 0 1-.6 1.8z" fill="#112c41"/><path d="M509.678 545.4c3.49 11.679 13.873 18.753 13.873 18.753" fill="#ffd6c0"/><path d="M523.55 565.151a1 1 0 0 1-.563-.174c-.435-.3-10.717-7.41-14.268-19.293a1 1 0 0 1 1.916-.572c3.343 11.186 13.378 18.144 13.479 18.212a1 1 0 0 1-.564 1.827zm165.186-16.639c-56.67 0-83.3-35.72-99.977-58.082-3.316-4.447-6.179-8.287-8.853-11.306a1 1 0 0 1 1.5-1.326c2.729 3.083 5.615 6.954 8.958 11.436 18.536 24.859 49.549 66.468 121.306 55.45a1 1 0 1 1 .3 1.976 152.984 152.984 0 0 1-23.234 1.852z" fill="#112c41"/></svg></g><g transform="translate(1163.0 205.0) rotate(-8.9361044709137 -174.5 150.0) scale(-1.0044437281267269 1.0008574011736722)"><svg width="347.456" height="299.743" viewBox="0 0 347.456 299.743"><circle cx="313.794" cy="133.433" fill="#ffd6c0" r="28.57"/><path d="M321.584 160.92a28.567 28.567 0 0 0 20.071-33.809 28.572 28.572 0 0 1-55.89 4.64q-.2-.739-.37-1.478a28.59 28.59 0 0 0 36.189 30.647z" fill="#f5b9ab"/><path d="M313.817 163a29.653 29.653 0 0 1-15.5-4.365 1 1 0 0 1 1.047-1.705 27.568 27.568 0 1 0-12.594-18.009 1 1 0 0 1-1.959.4 29.678 29.678 0 0 1 20.92-34.335A29.569 29.569 0 1 1 313.817 163z" fill="#112c41"/><path d="M302.546 145.26a1 1 0 0 1-.823-.429 18.122 18.122 0 0 1 4.192-25.247 17.645 17.645 0 0 1 15.229-2.366 1 1 0 0 1-.574 1.916 15.646 15.646 0 0 0-13.513 2.092 16.118 16.118 0 0 0-3.691 22.463 1 1 0 0 1-.82 1.571z" fill="#112c41"/><circle cx="226.446" cy="196.341" fill="#ffd6c0" r="102.5"/><path d="M155.917 122.373c.249-.239.507-.463.758-.7l13.467 4.366c-38.4 37.156-40.885 96.151-4.388 134.091 36.563 38.009 98.4 40.494 137.007 3.356a98.234 98.234 0 0 0 10.412-11.736 102.51 102.51 0 1 1-157.256-129.377z" fill="#f5b9ab"/><path d="M227 299.694a103.45 103.45 0 1 1 71.733-28.86A103.206 103.206 0 0 1 227 299.694zm-73.173-33.084a101.5 101.5 0 1 0 2.783-143.516 101.616 101.616 0 0 0-2.783 143.516z" fill="#112c41"/><ellipse cx="205.228" cy="188.111" fill="#112c41" rx="6.828" ry="9.104" transform="matrix(.72068422 -.69326348 .69326348 .72068422 -73.087 194.819)"/><ellipse cx="181.282" cy="169.093" fill="#112c41" rx="14.13" ry="9.336" transform="matrix(.61176177 -.79104205 .79104205 .61176177 -63.379 209.051)"/><ellipse cx="287.714" cy="168.082" fill="#ffa6e0" rx="12.121" ry="8.009" transform="matrix(.64400347 -.76502257 .76502257 .64400347 -26.161 279.944)"/><ellipse cx="208.206" cy="216.799" fill="#ffa6e0" rx="12.121" ry="8.009" transform="matrix(.95320122 -.30233662 .30233662 .95320122 -55.802 73.094)"/><g fill="#112c41"><ellipse cx="256.241" cy="121.518" rx="13.016" ry="8.6" transform="matrix(.98691207 -.16125933 .16125933 .98691207 -16.242 42.911)"/><path d="M257.99 114.772c4.816 0 8.653 2.09 9.124 4.969.348 2.135-1.207 3.94-2.165 4.825a14.849 14.849 0 0 1-7.643 3.465 17.461 17.461 0 0 1-2.813.232c-4.816 0-8.654-2.09-9.124-4.969-.349-2.135 1.207-3.939 2.165-4.825a14.846 14.846 0 0 1 7.643-3.469 17.566 17.566 0 0 1 2.813-.232m0-2a19.623 19.623 0 0 0-3.135.258c-7.094 1.159-12.225 5.9-11.459 10.587.651 3.983 5.348 6.646 11.1 6.646a19.489 19.489 0 0 0 3.135-.258c7.1-1.159 12.225-5.9 11.459-10.586-.65-3.983-5.348-6.647-11.1-6.647z"/><ellipse cx="263.428" cy="150.022" rx="6.828" ry="9.104" transform="matrix(.92030014 -.39121305 .39121305 .92030014 -37.695 115.014)"/><path d="M228.417 192.649c8.063 9.545 19.732 13.193 27.651 8.089s9.418-17.237 4.056-28.523z"/><path d="M247.916 204.046c-6.836 0-14.4-3.816-20.263-10.752a1 1 0 0 1 .222-1.486l31.707-20.434a1 1 0 0 1 1.445.412c5.68 11.953 3.822 24.483-4.417 29.792a15.868 15.868 0 0 1-8.694 2.468zm-17.986-11.184c7.824 8.674 18.447 11.643 25.6 7.035s8.834-15.507 4.167-26.215z"/></g><path d="M260.9 194.544c-4.822-1.935-11.112-.562-15.747 3.895a17.791 17.791 0 0 0-2.953 3.71c4.947 1.51 9.885 1.158 13.872-1.411a14.684 14.684 0 0 0 5.25-6.014q-.213-.094-.422-.18z" fill="#ffa6e0"/><path d="M247.921 204.04a20.637 20.637 0 0 1-6.017-.934 1 1 0 0 1-.567-1.467 18.67 18.67 0 0 1 3.119-3.92c4.761-4.579 11.52-6.229 16.812-4.1h.005q.229.093.453.193a1 1 0 0 1 .492 1.35 15.6 15.6 0 0 1-5.609 6.417 15.868 15.868 0 0 1-8.688 2.461zm-4.137-2.5a15.024 15.024 0 0 0 11.742-1.646 13.427 13.427 0 0 0 4.383-4.649c-4.482-1.478-10.05.047-14.066 3.912a16.9 16.9 0 0 0-2.059 2.386z" fill="#112c41"/><circle cx="130.328" cy="256.606" fill="#ffd6c0" r="30.5"/><path d="M160.894 255.092a33.246 33.246 0 0 1-2.955 7.019c-8.024 14.817-27 19.952-41.808 11.933-9.718-5.259-14.734-14.706-15.242-24.981-3.528 13.289 1.631 27.416 14.266 34.261a30.493 30.493 0 0 0 41.345-12.291c2.76-5.09 4.671-10.541 4.394-15.941z" fill="#f5b9ab"/><path d="M130.345 288.106c-.209 0-.417 0-.627-.006a31.5 31.5 0 0 1-21.228-54.2 31.618 31.618 0 0 1 42.824-.792 1 1 0 0 1-1.334 1.491 29.606 29.606 0 0 0-40.1.743 29.5 29.5 0 1 0 40.9 42.52 31.456 31.456 0 0 0 9.115-22.753 1 1 0 0 1 2-.043 33.52 33.52 0 0 1-9.728 24.238 31.286 31.286 0 0 1-21.822 8.802z" fill="#112c41"/><path d="M113.915 260.325a1 1 0 0 1-1-.982 18.676 18.676 0 0 1 20.826-19.038 19.639 19.639 0 0 1 13.046 7.109 1 1 0 0 1-1.545 1.272 17.643 17.643 0 0 0-11.721-6.393 16.678 16.678 0 0 0-18.606 17.015 1 1 0 0 1-.983 1.017z" fill="#112c41"/><path d="M116.179 139.982a104.786 104.786 0 0 1 10.347-19.834 108.554 108.554 0 0 1 13.557-16.548c30.324-30.385 73.906-38.744 109.335-24.349a88.937 88.937 0 0 1 26.588 16.739c1.6 1.464.5 3.229-1.195 3.354-17.081 1.261-45.442 10.938-64.12 20.7-12.461 6.512-24.387 15.38-35.909 25.459q-7.269 6.358-13.747 13.111a63.913 63.913 0 0 1-11.53-25.056c-1.708 10.215-.23 22.976 3.071 34.471-13.549 16.058-24.416 33.839-30.892 50.6-.536 1.385-2.243 1.978-3.129.143-11.712-24.237-12.536-52.872-2.376-78.79z" fill="#b2b0f7"/><path d="M121.487 219.133c2.448-6.416 8.485-18.3 12.014-24.739-10.389-21.658-13.911-55.679 4.136-82.793a98.047 98.047 0 0 1 22.6-23.909 109.117 109.117 0 0 0-33.718 32.455c-20.285 30.489-23.019 68.548-7.729 99.108a1.477 1.477 0 0 0 2.697-.122z" fill="#9797f7"/><path d="M120.044 220.918a2.7 2.7 0 0 1-2.39-1.715c-11.791-24.4-12.668-53.406-2.406-79.587a106.068 106.068 0 0 1 10.446-20.022 109.871 109.871 0 0 1 13.681-16.7 106.771 106.771 0 0 1 53.252-29.239 97.235 97.235 0 0 1 57.173 4.67 89.9 89.9 0 0 1 26.886 16.926 2.9 2.9 0 0 1 .963 3.11 3.091 3.091 0 0 1-2.758 1.981c-17.737 1.309-46.332 11.5-63.732 20.588-11.3 5.9-22.981 14.187-35.714 25.324a219.196 219.196 0 0 0-13.684 13.052 1.015 1.015 0 0 1-.784.3 1 1 0 0 1-.739-.4A66.874 66.874 0 0 1 149.9 139.1a88.366 88.366 0 0 0 3.637 28.653 1 1 0 0 1-.2.921c-13.421 15.907-24.333 33.774-30.725 50.312a2.869 2.869 0 0 1-2.474 1.932h-.094zm93.863-147.536a99.744 99.744 0 0 0-20.861 2.229 104.786 104.786 0 0 0-52.255 28.7 108.014 108.014 0 0 0-13.433 16.389 104.115 104.115 0 0 0-10.249 19.646c-10.058 25.663-9.2 54.088 2.346 77.985.086.178.313.586.594.586h.011a.944.944 0 0 0 .691-.655c6.415-16.6 17.314-34.5 30.718-50.473-3.472-12.328-4.548-24.837-2.951-34.4a1 1 0 0 1 .967-.835h.02a1 1 0 0 1 .979.8 62.887 62.887 0 0 0 10.656 23.71 222.508 222.508 0 0 1 12.984-12.317c12.853-11.242 24.663-19.613 36.1-25.592 17.579-9.186 46.516-19.481 64.51-20.808a1.142 1.142 0 0 0 1.017-.641c.129-.373-.159-.738-.423-.979a87.911 87.911 0 0 0-26.289-16.549 93.136 93.136 0 0 0-35.132-6.796z" fill="#112c41"/><circle cx="151.717" cy="281.49" fill="#fff" r="11.5"/><path d="M151.69 293.994a12.5 12.5 0 0 1-12.268-10.256 12.474 12.474 0 1 1 12.268 10.256zm.049-23.007a10.671 10.671 0 0 0-1.911.174 10.514 10.514 0 0 0-8.44 12.218 10.5 10.5 0 1 0 10.351-12.392z" fill="#112c41"/><circle cx="334.954" cy="160.56" fill="#fff" r="11.5"/><path d="M334.928 173.064a12.508 12.508 0 0 1-12.27-10.256 12.5 12.5 0 1 1 14.542 10.048 12.715 12.715 0 0 1-2.272.208zm-10.3-10.616a10.5 10.5 0 1 0 8.44-12.217 10.432 10.432 0 0 0-8.44 12.217zM59.964 133.784q-1.794 0-3.585-.092c-16.968-.875-32.062-7.912-42.5-19.812C-8.73 88.113-3.147 45.283 26.322 18.405a1 1 0 0 1 1.348 1.479C-1 46.032-6.513 87.608 15.381 112.562c10.081 11.49 24.677 18.286 41.1 19.132 19.1.987 38.44-6.2 53.02-19.719a1 1 0 1 1 1.359 1.467 75.455 75.455 0 0 1-50.896 20.342z" fill="#112c41"/><path d="M114.454 109.405a63 63 0 1 0-89.079-1.728 63 63 0 0 0 89.079 1.728" fill="#9797f7"/><path d="M34.856 88.594a61.054 61.054 0 0 0 98.02-13.948A63.027 63.027 0 0 0 21.948 24.175a61.029 61.029 0 0 0 12.908 64.419z" fill="#b2b0f7"/><path d="M70.792 127.972a63.975 63.975 0 0 1-49.618-104.43 64.754 64.754 0 0 1 5.231-5.665 64 64 0 1 1 44.387 110.1zM70.765 2.03a61.791 61.791 0 0 0-42.972 17.288 62.7 62.7 0 0 0-5.07 5.489A62.079 62.079 0 1 0 70.765 2.03z" fill="#112c41"/></svg></g><g transform="translate(341.0 674.0) rotate(0.0 127.5 36.0) scale(1.0380284786166134 1.0505734380015759)"><svg width="245.658" height="68.534" viewBox="0 0 245.658 68.534"><path d="M215.471 67.534H2.006a1 1 0 0 1-.688-1.734C58.925 12.1 135.922-19 141.263 18.591a1 1 0 0 0 1.662.6C176.732-11.4 212.684.356 206 26.686a.993.993 0 0 0 1.275 1.193c34.713-11.928 46.9 21.873 29.552 34.562-4.215 3.086-9.356 5.093-21.356 5.093z" fill="#fff"/><path d="M215.471 68.534H2.006a2 2 0 0 1-1.37-3.467C46.971 21.88 104.919-6.1 129.795 2.7c7.14 2.522 11.332 7.823 12.459 15.754 9.933-8.992 20.784-14.99 31.378-17.354 9.537-2.125 18.321-1.168 24.739 2.7 7.977 4.8 11.112 13.234 8.6 23.133 19.422-6.68 31.43.659 36.18 9.756 4.9 9.377 2.487 20.547-5.731 26.56-4.336 3.172-9.729 5.285-21.949 5.285zM118.843 3.029c-27.746 0-76.6 26-116.843 63.5l213.471.005c11.717 0 16.633-1.875 20.768-4.9 7.415-5.424 9.576-15.526 5.141-24.02-4.366-8.359-15.532-15.058-33.777-8.788a1.982 1.982 0 0 1-1.984-.417 2 2 0 0 1-.586-1.967c2.28-8.985-.524-16.613-7.693-20.929C186.4-1.07 164.924.636 143.6 19.932a2 2 0 0 1-3.324-1.2c-1.013-7.134-4.762-11.9-11.144-14.15a30.953 30.953 0 0 0-10.289-1.553z" fill="#112c41"/><path d="M236.831 62.444a23.7 23.7 0 0 1-10.88 4.363 1 1 0 0 1-1.124-1.261c4.4-14.736-8.957-34.15-36.545-24.668a1 1 0 0 1-1.279-1.2c5.026-19.831-14.128-31.388-38.34-22.812a1 1 0 0 1-.943-1.729C180.026-10.256 212.371 1.594 206 26.685a.994.994 0 0 0 1.276 1.194c34.712-11.928 46.897 21.873 29.555 34.565z" fill="#dedffe"/><path d="M215.471 68.534H2.006a2 2 0 0 1-1.37-3.467C46.971 21.88 104.919-6.1 129.795 2.7c7.14 2.522 11.332 7.823 12.459 15.754 9.933-8.992 20.784-14.99 31.378-17.354 9.537-2.125 18.324-1.168 24.74 2.7 7.977 4.8 11.112 13.234 8.6 23.133 19.422-6.68 31.43.659 36.18 9.756 4.9 9.377 2.487 20.547-5.731 26.56-4.337 3.172-9.73 5.285-21.95 5.285zM118.843 3.029c-27.746 0-76.6 26-116.843 63.5l213.471.005c11.717 0 16.633-1.875 20.768-4.9 7.415-5.424 9.576-15.526 5.141-24.02-4.366-8.359-15.532-15.058-33.777-8.788a1.982 1.982 0 0 1-1.984-.417 2 2 0 0 1-.586-1.967c2.28-8.985-.524-16.613-7.693-20.929-10.933-6.585-32.415-4.878-53.74 14.419a2 2 0 0 1-3.323-1.2c-1.013-7.134-4.762-11.9-11.144-14.15a30.953 30.953 0 0 0-10.29-1.553z" fill="#112c41"/></svg></g><g transform="translate(1095.0 1296.0) rotate(0.0 127.5 36.0) scale(1.0380284786166134 1.0505734380015759)"><svg width="245.658" height="68.534" viewBox="0 0 245.658 68.534"><path d="M215.471 67.534H2.006a1 1 0 0 1-.688-1.734C58.925 12.1 135.922-19 141.263 18.591a1 1 0 0 0 1.662.6C176.732-11.4 212.684.356 206 26.686a.993.993 0 0 0 1.275 1.193c34.713-11.928 46.9 21.873 29.552 34.562-4.215 3.086-9.356 5.093-21.356 5.093z" fill="#fff"/><path d="M215.471 68.534H2.006a2 2 0 0 1-1.37-3.467C46.971 21.88 104.919-6.1 129.795 2.7c7.14 2.522 11.332 7.823 12.459 15.754 9.933-8.992 20.784-14.99 31.378-17.354 9.537-2.125 18.321-1.168 24.739 2.7 7.977 4.8 11.112 13.234 8.6 23.133 19.422-6.68 31.43.659 36.18 9.756 4.9 9.377 2.487 20.547-5.731 26.56-4.336 3.172-9.729 5.285-21.949 5.285zM118.843 3.029c-27.746 0-76.6 26-116.843 63.5l213.471.005c11.717 0 16.633-1.875 20.768-4.9 7.415-5.424 9.576-15.526 5.141-24.02-4.366-8.359-15.532-15.058-33.777-8.788a1.982 1.982 0 0 1-1.984-.417 2 2 0 0 1-.586-1.967c2.28-8.985-.524-16.613-7.693-20.929C186.4-1.07 164.924.636 143.6 19.932a2 2 0 0 1-3.324-1.2c-1.013-7.134-4.762-11.9-11.144-14.15a30.953 30.953 0 0 0-10.289-1.553z" fill="#112c41"/><path d="M236.831 62.444a23.7 23.7 0 0 1-10.88 4.363 1 1 0 0 1-1.124-1.261c4.4-14.736-8.957-34.15-36.545-24.668a1 1 0 0 1-1.279-1.2c5.026-19.831-14.128-31.388-38.34-22.812a1 1 0 0 1-.943-1.729C180.026-10.256 212.371 1.594 206 26.685a.994.994 0 0 0 1.276 1.194c34.712-11.928 46.897 21.873 29.555 34.565z" fill="#dedffe"/><path d="M215.471 68.534H2.006a2 2 0 0 1-1.37-3.467C46.971 21.88 104.919-6.1 129.795 2.7c7.14 2.522 11.332 7.823 12.459 15.754 9.933-8.992 20.784-14.99 31.378-17.354 9.537-2.125 18.324-1.168 24.74 2.7 7.977 4.8 11.112 13.234 8.6 23.133 19.422-6.68 31.43.659 36.18 9.756 4.9 9.377 2.487 20.547-5.731 26.56-4.337 3.172-9.73 5.285-21.95 5.285zM118.843 3.029c-27.746 0-76.6 26-116.843 63.5l213.471.005c11.717 0 16.633-1.875 20.768-4.9 7.415-5.424 9.576-15.526 5.141-24.02-4.366-8.359-15.532-15.058-33.777-8.788a1.982 1.982 0 0 1-1.984-.417 2 2 0 0 1-.586-1.967c2.28-8.985-.524-16.613-7.693-20.929-10.933-6.585-32.415-4.878-53.74 14.419a2 2 0 0 1-3.323-1.2c-1.013-7.134-4.762-11.9-11.144-14.15a30.953 30.953 0 0 0-10.29-1.553z" fill="#112c41"/></svg></g></svg>